<svg id="Layer_1" xmlns="http://www.w3.org/2000/svg" viewBox="-283 399.3 566.9 42.5"><style>.st0{fill:#f5ebe6}</style><path class="st0" d="M-15.9 426.9h-3.6l-.8 3.9h5.2zm-.5-2.6l-1.3-6.7h-.1l-1.3 6.7zm5.6-9.6h-3.1v-2.4h-2.7l4.1 18.5h1.7zM-23 430.8l4.1-18.5h-4.6v2.4h-5.3v5.5h4.6v2.5h-4.6v5.5h5.3v2.6zm19.2-18.5H-5v2.4h-3.1v16.1h4.3zm-66.6 16.4c-.2.5-.5.9-.9 1.3-.4.3-.8.6-1.3.8h4.6v-18.4h-2.2v2.4h-5.3v5c.2-.2.6-.5.9-.6.4-.2.8-.2 1.3-.2.9 0 1.6.3 2.2.8.6.6.9 1.4.9 2.5v4.8c.1.6 0 1.1-.2 1.6zm38.9-16.4h-5.6c2.3.5 3.5 2.2 3.5 5.4 0 1.1-.2 2-.5 2.8-.3.8-.9 1.4-1.8 1.9l2.8 8.4h1.6v-18.5zm32.1 0h-1.7v18.5h5.5zm-45.8 16c-.2.5-.5 1-.9 1.4-.4.4-.8.7-1.4 1-.1 0-.1 0-.2.1h5v-18.4h-4.9c.5.2 1 .5 1.4.9.4.4.7.9.9 1.4.2.6.3 1.2.3 1.8v1h-2.7v-.9c0-.5-.2-1-.4-1.4-.3-.4-.7-.6-1.2-.6-.7 0-1.1.2-1.3.6-.2.4-.3.9-.3 1.6v9.5c0 .5.1 1 .4 1.4.2.4.7.6 1.3.6.2 0 .4 0 .6-.1l.6-.3c.2-.1.3-.3.4-.6.1-.2.2-.6.2-.9v-.9h2.7v1.2c-.2.6-.3 1.1-.5 1.6zm6.8-5.4H-40v7.9h4z"/><path class="st0" d="M-38.5 420.5c.5 0 .8-.1 1.1-.2s.5-.3.7-.6c.1-.2.2-.5.3-.9.1-.4.1-.8.1-1.2 0-.5 0-.9-.1-1.2-.1-.4-.2-.7-.3-.9-.3-.5-1-.7-1.9-.7H-40v5.8h1.5zm-13.6 9.6c-.4-.3-.8-.8-1-1.4-.3-.6-.4-1.3-.4-2.1v-10.3c0-.6.1-1.2.3-1.7.2-.5.5-1 .9-1.4.4-.4.8-.7 1.4-.9h.2-9.3v2.4h-5.3v5.7h4.6v2.5h-4.6v7.8h14.4c-.4-.1-.8-.3-1.2-.6zm109.5-17.8h-1.8v2.4h-5.3v5.7h4.6v2.5h-4.6v7.9h7.1zm6.6 17.8c-.4-.3-.8-.8-1-1.4-.3-.6-.4-1.3-.4-2.1v-10.3c0-.6.1-1.2.3-1.7.2-.5.5-1 .9-1.4.4-.4.8-.7 1.4-.9h.2-5.2v18.4h5.1c-.5-.1-1-.3-1.3-.6z"/><path class="st0" d="M70.9 428.3c-.2.5-.5 1-.9 1.4s-.8.7-1.4 1c-.1 0-.1 0-.2.1h5v-18.4h-4.9c.5.2 1 .5 1.4.9.4.4.7.9.9 1.4.2.6.3 1.2.3 1.8v1h-2.7v-.9c0-.5-.2-1-.4-1.4-.3-.4-.7-.6-1.2-.6-.7 0-1.1.2-1.3.6-.2.4-.3.9-.3 1.6v9.5c0 .5.1 1 .4 1.4.2.4.7.6 1.3.6.2 0 .4 0 .6-.1l.6-.3c.2-.1.3-.3.4-.6.1-.2.2-.6.2-.9v-.9h2.7v1.2c-.2.6-.3 1.1-.5 1.6zm10.4-16v2.4H76v5.5h4.7v2.5H76v5.5h5.3v2.6h204.8v-18.5zM-76.9 430c-.4-.3-.7-.8-.9-1.3-.2-.5-.3-1-.3-1.7v-.8h2.7v.7c0 .5.1.8.4 1.1.3.3.6.4 1 .4s.7-.1.9-.4c.2-.2.3-.6.3-1v-4.4c0-.4-.1-.7-.4-.9-.2-.3-.5-.4-.9-.4-.2 0-.4 0-.6.1-.2.1-.3.2-.4.3-.1.1-.2.2-.2.3-.1.2-.1.3-.2.3h-2.4v-9.9H-284v18.4h208.2c-.3-.2-.7-.5-1.1-.8zm106.4.8c-.6-.2-1-.5-1.4-.9-.4-.4-.8-.8-1.1-1.4-.3-.6-.4-1.2-.4-2v-9.9c0-.8.1-1.4.4-2 .3-.6.6-1.1 1.1-1.4.4-.4.9-.6 1.4-.8h-9.3v2.4h-5.3v5.5h4.6v2.5h-4.6v5.5h5.3v2.5h9.3zM7.7 412.3H3.4l2.1 12.9h.1zm4.5 0h-1.7l-3.7 18.5h5.4zm25.7 0h-5.3c.5.2 1 .5 1.5.8.4.4.8.9 1 1.4.3.6.4 1.2.4 2v9.9c0 .8-.1 1.5-.4 2-.3.6-.6 1-1 1.4-.4.4-.9.7-1.5.9h5.3v-18.4zm9.7 0h-1.7v2.4h-5.3v5.7h4.6v2.5h-4.6v7.9h7z"/><path class="st0" d="M29.3 416.6v9.9c0 .6.2 1.1.5 1.4.4.3.8.5 1.3.5s.9-.2 1.3-.5.5-.8.5-1.4v-9.9c0-.6-.2-1.1-.5-1.4-.4-.3-.8-.5-1.3-.5s-.9.2-1.3.5c-.3.3-.5.8-.5 1.4z"/></svg>