<svg id="Layer_1" xmlns="http://www.w3.org/2000/svg" viewBox="-283 385.2 566.9 56.7"><style>.st0{fill:#f5ebe6}</style><path class="st0" d="M-22.7 423.7l-2.2 6.2h4.5zm15.1-12.3h-1.2v2.4h-3.1v16.1h4.3zm-6.9 2.4h-3.1v-2.4h-.2l-3.6 8.8 3.8 9.7h3.1zm-6.2-2.4h-4l2 5.4zm56.5 3.2c-.3-.5-1-.7-1.9-.7h-1.4v5.8H34c.5 0 .8-.1 1.1-.2s.5-.3.7-.6c.1-.2.2-.5.3-.9s.1-.8.1-1.2c0-.5 0-.9-.1-1.2-.1-.5-.2-.8-.3-1zm-63.6 15.3l3.8-9.7-3.5-8.8h-.7v2.4h-5.3v5.5h4.6v2.5h-4.6v5.5h5.3v2.6zm52.4-18.5c.5.2 1 .5 1.5.8.4.4.8.9 1 1.4.3.6.4 1.2.4 2v9.9c0 .8-.1 1.5-.4 2-.3.6-.6 1-1 1.4s-.9.7-1.5.9h5.3v-18.4h-5.3zm7.9 10.6v7.9h4l-2.4-7.9zm-315.4-10.6h246.7v18.4h-246.7z"/><path class="st0" d="M21.2 415.7v9.9c0 .6.2 1.1.5 1.4.4.3.8.5 1.3.5s.9-.2 1.3-.5.5-.8.5-1.4v-9.9c0-.6-.2-1.1-.5-1.4-.4-.3-.8-.5-1.3-.5s-.9.2-1.3.5-.5.8-.5 1.4zm14.2-4.3c2.3.5 3.5 2.2 3.5 5.4 0 1.1-.2 2-.5 2.8s-.9 1.4-1.8 1.9l2.8 8.4h246.7v-18.4l-250.7-.1z"/><path class="st0" d="M21.4 429.8c-.5-.2-1-.5-1.4-.9s-.8-.8-1.1-1.4c-.3-.6-.4-1.2-.4-2v-9.9c0-.8.1-1.4.4-2s.6-1.1 1.1-1.4c.4-.4.9-.6 1.4-.8h-5.3v18.4h5.3c0 .1 0 0 0 0zm-19.3.1v-18.5H.4v2.4h-5.3v5.5h4.6v2.5h-4.6v5.5H.4v2.6zm4.2-10.3c.5 0 .8-.1 1.1-.2s.5-.3.7-.6c.1-.2.2-.5.3-.9s.1-.8.1-1.2c0-.5 0-.9-.1-1.2-.1-.4-.2-.7-.3-.9-.3-.5-1-.7-1.9-.7H4.8v5.8l1.5-.1z"/><path class="st0" d="M13.4 411.4H7.7c2.3.5 3.5 2.2 3.5 5.4 0 1.1-.2 2-.5 2.8s-.9 1.4-1.8 1.9l2.8 8.4h1.7v-18.5zm-7 10.6H4.8v7.9h4z"/></svg>