<?xml version="1.0" encoding="utf-8"?>
<!-- Generator: Adobe Illustrator 19.0.0, SVG Export Plug-In . SVG Version: 6.00 Build 0)  -->
<svg version="1.1" id="Layer_1" xmlns="http://www.w3.org/2000/svg" xmlns:xlink="http://www.w3.org/1999/xlink" x="0px" y="0px"
	 viewBox="-364 232.4 358.7 378.5" style="enable-background:new -364 232.4 358.7 378.5;" xml:space="preserve">
<style type="text/css">
	.st0{fill:none;}
	.st1{fill:none;stroke:#231F20;stroke-width:0.3;}
	.st2{fill:#FFFFFF;stroke:#1E1E1E;stroke-width:1.4173;stroke-miterlimit:10;}
	.st3{opacity:0.6;fill:url(#XMLID_62_);stroke:#1E1E1E;stroke-width:1.4173;stroke-miterlimit:10;enable-background:new    ;}
	.st4{fill:#5A5A5B;}
	.st5{fill:#383838;}
</style>
<pattern  x="-375" y="622.9" width="72" height="72" patternUnits="userSpaceOnUse" id="XMLID_453_" viewBox="72.2 -144.3 72 72" style="overflow:visible;">
	<g>
		<polygon class="st0" points="72.2,-72.3 144.2,-72.3 144.2,-144.3 72.2,-144.3 		"/>
		<g>
			<polygon id="XMLID_118_" class="st0" points="72.2,-72.3 144.2,-72.3 144.2,-144.3 72.2,-144.3 			"/>
			<g id="XMLID_108_">
				<line id="XMLID_113_" class="st1" x1="117.2" y1="-144" x2="117.2" y2="-216.5"/>
				<line id="XMLID_112_" class="st1" x1="81.2" y1="-144" x2="81.2" y2="-216.5"/>
				<line id="XMLID_110_" class="st1" x1="135.2" y1="-144" x2="135.2" y2="-216.5"/>
				<line id="XMLID_109_" class="st1" x1="99.2" y1="-144" x2="99.2" y2="-216.5"/>
			</g>
			<g id="XMLID_103_">
				<line id="XMLID_107_" class="st1" x1="144" y1="-81.3" x2="216.5" y2="-81.3"/>
				<line id="XMLID_106_" class="st1" x1="144" y1="-117.3" x2="216.5" y2="-117.3"/>
				<line id="XMLID_105_" class="st1" x1="144" y1="-99.3" x2="216.5" y2="-99.3"/>
				<line id="XMLID_104_" class="st1" x1="144" y1="-135.3" x2="216.5" y2="-135.3"/>
			</g>
			<g id="XMLID_84_">
				<line id="XMLID_101_" class="st1" x1="72" y1="-81.3" x2="144.5" y2="-81.3"/>
				<line id="XMLID_100_" class="st1" x1="72" y1="-117.3" x2="144.5" y2="-117.3"/>
				<line id="XMLID_99_" class="st1" x1="72" y1="-99.3" x2="144.5" y2="-99.3"/>
				<line id="XMLID_96_" class="st1" x1="72" y1="-135.3" x2="144.5" y2="-135.3"/>
				<line id="XMLID_92_" class="st1" x1="117.2" y1="-72" x2="117.2" y2="-144.5"/>
				<line id="XMLID_91_" class="st1" x1="81.2" y1="-72" x2="81.2" y2="-144.5"/>
				<line id="XMLID_89_" class="st1" x1="135.2" y1="-72" x2="135.2" y2="-144.5"/>
				<line id="XMLID_87_" class="st1" x1="99.2" y1="-72" x2="99.2" y2="-144.5"/>
			</g>
			<g id="XMLID_76_">
				<line id="XMLID_82_" class="st1" x1="0" y1="-81.3" x2="72.5" y2="-81.3"/>
				<line id="XMLID_80_" class="st1" x1="0" y1="-117.3" x2="72.5" y2="-117.3"/>
				<line id="XMLID_79_" class="st1" x1="0" y1="-99.3" x2="72.5" y2="-99.3"/>
				<line id="XMLID_77_" class="st1" x1="0" y1="-135.3" x2="72.5" y2="-135.3"/>
			</g>
			<g id="XMLID_67_">
				<line id="XMLID_72_" class="st1" x1="117.2" y1="0" x2="117.2" y2="-72.5"/>
				<line id="XMLID_71_" class="st1" x1="81.2" y1="0" x2="81.2" y2="-72.5"/>
				<line id="XMLID_69_" class="st1" x1="135.2" y1="0" x2="135.2" y2="-72.5"/>
				<line id="XMLID_68_" class="st1" x1="99.2" y1="0" x2="99.2" y2="-72.5"/>
			</g>
		</g>
	</g>
</pattern>
<rect x="-364" y="232.4" class="st2" width="358.7" height="378.5"/>
<g id="Guides_For_Artboard_1_">
</g>
<g id="Guides_For_Artboard">
</g>
<g id="XMLID_11322_">
	<pattern  id="XMLID_62_" xlink:href="#XMLID_453_" patternTransform="matrix(1 0 0 -1 -199.689 -18708.6328)">
	</pattern>
	<rect id="XMLID_11401_" x="-364" y="232.4" class="st3" width="358.7" height="378.5"/>
	<g id="XMLID_11360_">
		<path id="XMLID_11399_" class="st4" d="M-190.2,565.5c2.5-2.2,3.6-3.7,3.6-5.1c0-0.9-0.5-1.6-1.5-1.6c-0.6,0-1.2,0.4-1.6,0.9
			l-0.6-0.6c0.6-0.7,1.3-1.2,2.3-1.2c1.4,0,2.3,0.9,2.3,2.3c0,1.6-1.2,3.2-3.1,4.9c0.4,0,0.9-0.1,1.3-0.1h2.2v0.9h-5v-0.4H-190.2z"
			/>
		<path id="XMLID_11396_" class="st4" d="M-183.1,562.1c0-2.7,1-4.1,2.5-4.1s2.5,1.3,2.5,4.1c0,2.7-1,4.1-2.5,4.1
			C-182.2,566.2-183.1,564.9-183.1,562.1z M-179.2,562.1c0-2.3-0.6-3.3-1.5-3.3s-1.5,1-1.5,3.3s0.6,3.3,1.5,3.3
			S-179.2,564.4-179.2,562.1z"/>
		<path id="XMLID_11394_" class="st4" d="M-174.7,565.3h1.8v-5.9h-1.4v-0.6c0.7-0.1,1.2-0.3,1.6-0.6h0.8v7.1h1.6v0.8h-4.3v-0.8
			H-174.7z"/>
		<path id="XMLID_11392_" class="st4" d="M-164.4,559h-3.8v-0.8h4.9v0.6c-1.9,2.4-2.2,4.2-2.3,7.3h-1
			C-166.5,563.1-165.9,561.2-164.4,559z"/>
		<path id="XMLID_11390_" class="st4" d="M-226.9,579.8v-4.6h1v4.7c0,1.9,0.8,2.5,1.8,2.5c1.1,0,1.9-0.6,1.9-2.5v-4.7h1v4.6
			c0,2.5-1.2,3.4-2.8,3.4S-226.9,582.4-226.9,579.8z"/>
		<path id="XMLID_11387_" class="st4" d="M-219.1,575.2h2.3c1.8,0,3,0.6,3,2.3c0,1.7-1.2,2.4-2.9,2.4h-1.3v3.1h-1v-7.8H-219.1z
			 M-216.9,579.2c1.4,0,2-0.5,2-1.6c0-1.1-0.7-1.5-2.1-1.5h-1.1v3.1H-216.9z"/>
		<path id="XMLID_11385_" class="st4" d="M-212.7,579.2c0-2.6,1.5-4.1,3.5-4.1c1,0,1.7,0.5,2.2,1l-0.5,0.6c-0.4-0.4-0.9-0.8-1.6-0.8
			c-1.5,0-2.5,1.2-2.5,3.2s0.9,3.2,2.5,3.2c0.8,0,1.3-0.3,1.8-0.9l0.5,0.6c-0.6,0.7-1.4,1.1-2.4,1.1
			C-211.2,583.2-212.7,581.7-212.7,579.2z"/>
		<path id="XMLID_11383_" class="st4" d="M-204.1,580l-2.4-4.8h1.1l1,2.2c0.3,0.6,0.5,1.1,0.8,1.7l0,0c0.3-0.6,0.5-1.1,0.8-1.7
			l1-2.2h1l-2.4,4.8v3.1h-1L-204.1,580L-204.1,580z"/>
		<path id="XMLID_11381_" class="st4" d="M-200.1,579.2c0-2.6,1.5-4.1,3.5-4.1c1,0,1.7,0.5,2.2,1l-0.5,0.6c-0.4-0.4-0.9-0.8-1.6-0.8
			c-1.5,0-2.5,1.2-2.5,3.2s0.9,3.2,2.5,3.2c0.8,0,1.3-0.3,1.8-0.9l0.5,0.6c-0.6,0.7-1.4,1.1-2.4,1.1
			C-198.6,583.2-200.1,581.7-200.1,579.2z"/>
		<path id="XMLID_11379_" class="st4" d="M-192.8,575.2h1v7h3.4v0.9h-4.4V575.2z"/>
		<path id="XMLID_11377_" class="st4" d="M-187,575.2h4.6v0.8h-3.6v2.5h3v0.9h-3v2.9h3.7v0.9h-4.7V575.2z"/>
		<path id="XMLID_11375_" class="st4" d="M-174.2,575.2h1l2.9,5l0.8,1.6h0.1c-0.1-0.8-0.1-1.7-0.1-2.5v-4.1h0.9v7.9h-1l-2.9-5
			l-0.9-1.6l0,0c0,0.8,0.1,1.6,0.1,2.5v4.1h-0.9L-174.2,575.2L-174.2,575.2z"/>
		<path id="XMLID_11373_" class="st4" d="M-166.4,575.2h4.6v0.8h-3.6v2.5h3v0.9h-3v2.9h3.7v0.9h-4.7V575.2z"/>
		<path id="XMLID_11371_" class="st4" d="M-158.4,576h-2.4v-0.8h5.8v0.8h-2.4v7.1h-1L-158.4,576L-158.4,576z"/>
		<path id="XMLID_11369_" class="st4" d="M-154.5,575.2h1l0.8,4.3c0.2,0.9,0.3,1.7,0.5,2.6l0,0c0.2-0.9,0.4-1.7,0.6-2.6l1.1-4.3h0.9
			l1.1,4.3c0.2,0.8,0.4,1.7,0.6,2.6h0.1c0.2-0.9,0.3-1.7,0.5-2.6l0.8-4.3h1l-1.6,7.9h-1.2l-1.2-4.8c-0.1-0.6-0.3-1.2-0.4-1.8l0,0
			c-0.1,0.6-0.3,1.2-0.4,1.8l-1.2,4.8h-1.2L-154.5,575.2z"/>
		<path id="XMLID_11366_" class="st4" d="M-144.6,579.1c0-2.5,1.4-4.1,3.4-4.1s3.4,1.5,3.4,4.1c0,2.5-1.4,4.1-3.4,4.1
			C-143.3,583.2-144.6,581.7-144.6,579.1z M-138.9,579.1c0-2-0.9-3.2-2.3-3.2c-1.4,0-2.3,1.2-2.3,3.2s0.9,3.2,2.3,3.2
			C-139.9,582.4-138.9,581.1-138.9,579.1z"/>
		<path id="XMLID_11363_" class="st4" d="M-131.9,583.1l-1.9-3.4h-1.4v3.4h-1v-7.9h2.5c1.6,0,2.8,0.6,2.8,2.2c0,1.2-0.7,2-1.8,2.2
			l2,3.5H-131.9L-131.9,583.1z M-135.2,578.9h1.3c1.2,0,1.9-0.5,1.9-1.5s-0.7-1.4-1.9-1.4h-1.3V578.9z"/>
		<path id="XMLID_11361_" class="st4" d="M-129.4,575.2h1v4l0,0l3.3-4h1.1l-2.5,3l2.9,4.9h-1.1l-2.4-4.1l-1.4,1.6v2.5h-1
			L-129.4,575.2L-129.4,575.2z"/>
	</g>
	<g id="XMLID_11323_">
		<path id="XMLID_11357_" class="st5" d="M-176.5,496.7c-14.6,0-28.8-2.9-42.1-8.5c-12.9-5.4-24.4-13.3-34.4-23.2
			c-9.9-9.9-17.8-21.5-23.2-34.4c-5.6-13.4-8.5-27.5-8.5-42.1s2.9-28.8,8.5-42.1c5.4-12.9,13.3-24.4,23.2-34.4
			c9.9-9.9,21.5-17.8,34.4-23.2c13.4-5.6,27.5-8.5,42.1-8.5s28.8,2.9,42.1,8.5c12.9,5.4,24.4,13.3,34.4,23.2
			c9.9,9.9,17.8,21.5,23.2,34.4c5.6,13.4,8.5,27.5,8.5,42.1s-2.9,28.8-8.5,42.1c-5.4,12.9-13.3,24.4-23.2,34.4s-21.5,17.8-34.4,23.2
			C-147.7,493.9-161.9,496.7-176.5,496.7z M-176.5,282.4c-14.3,0-28.2,2.8-41.3,8.3c-12.6,5.3-24,13-33.7,22.7
			c-9.7,9.7-17.4,21.1-22.7,33.7c-5.5,13.1-8.3,26.9-8.3,41.3s2.8,28.2,8.3,41.3c5.3,12.6,13,24,22.7,33.7
			c9.7,9.7,21.1,17.4,33.7,22.7c13.1,5.5,26.9,8.3,41.3,8.3c14.3,0,28.2-2.8,41.3-8.3c12.6-5.3,24-13,33.7-22.7
			c9.7-9.7,17.4-21.1,22.7-33.7c5.5-13.1,8.3-26.9,8.3-41.3s-2.8-28.2-8.3-41.3c-5.3-12.6-13-24-22.7-33.7
			c-9.7-9.7-21.1-17.4-33.7-22.7C-148.4,285.2-162.2,282.4-176.5,282.4z"/>
		<g id="XMLID_11325_">
			<path id="XMLID_11355_" class="st5" d="M-242.8,370.1c-1.4,0-2.6-0.4-3.6-1.5c-1-1.1-1.1-2.1-1.1-3.5v-16.4c0-1,0.4-1.4,1.4-1.4
				s1.4,0.6,1.4,1.4V365c0,1.6,0.5,2.1,1.8,2.1h5c1.3,0,1.8-0.4,1.8-2.1v-16.4c0-1,0.4-1.4,1.4-1.4s1.4,0.6,1.4,1.4V365
				c0,1.3-0.2,2.4-1.1,3.5c-1.1,1.1-2.2,1.5-3.6,1.5H-242.8z"/>
			<path id="XMLID_11352_" class="st5" d="M-222.1,368.7c0,1-0.4,1.4-1.4,1.4s-1.4-0.6-1.4-1.4v-21.4h9.7c1.3,0,2.3,0.2,3.3,1.2
				c1.2,1.1,1.3,2.3,1.3,3.8v4c0,1.5-0.1,2.6-1.2,3.7c-1.1,1.3-2.4,1.4-3.9,1.4h-6.4L-222.1,368.7L-222.1,368.7z M-222.1,358.5h6.5
				c1.7,0,2.1-0.5,2.1-2.1v-4.1c0-1.7-0.4-2.1-2.1-2.1h-6.5V358.5z"/>
			<path id="XMLID_11350_" class="st5" d="M-197,370.1c-2.2,0-3.4-0.9-4.4-2.8l-2.7-5.4c-0.5-1-0.8-1.9-0.8-3.1
				c0-1.3,0.2-2.1,0.9-3.2l2.7-5.4c1-2,2.3-2.9,4.5-2.9h5c0.7,0,1.4,0.4,1.4,1.4s-0.8,1.4-1.4,1.4h-4.9c-1.2,0-1.4,0.1-2,1.2
				l-2.6,5.2c-0.4,0.8-0.6,1.3-0.6,2.2s0.3,1.3,0.6,2l2.5,5.1c0.6,1.2,0.9,1.3,2.2,1.3h4.8c0.7,0,1.4,0.4,1.4,1.4s-0.8,1.4-1.4,1.4
				L-197,370.1L-197,370.1z"/>
			<path id="XMLID_11348_" class="st5" d="M-174.9,368.7c0,1-0.4,1.4-1.4,1.4c-1.1,0-1.4-0.6-1.4-1.4v-9.4l-5.8-7.5v-3
				c0-1,0.4-1.4,1.4-1.4c1.1,0,1.4,0.6,1.4,1.4v2l4.3,5.6l4.3-5.6v-2c0-1,0.4-1.4,1.4-1.4c1.1,0,1.4,0.6,1.4,1.4v3l-5.8,7.5v9.4
				H-174.9z"/>
			<path id="XMLID_11346_" class="st5" d="M-153.8,370.1c-2.2,0-3.4-0.9-4.4-2.8l-2.7-5.4c-0.5-1-0.8-1.9-0.8-3.1
				c0-1.3,0.2-2.1,0.9-3.2l2.7-5.4c1-2,2.3-2.9,4.5-2.9h5c0.7,0,1.4,0.4,1.4,1.4s-0.8,1.4-1.4,1.4h-4.9c-1.2,0-1.4,0.1-2,1.2
				l-2.6,5.2c-0.4,0.8-0.6,1.3-0.6,2.2s0.3,1.3,0.6,2l2.5,5.1c0.6,1.2,0.9,1.3,2.2,1.3h4.8c0.7,0,1.4,0.4,1.4,1.4s-0.8,1.4-1.4,1.4
				L-153.8,370.1L-153.8,370.1z"/>
			<path id="XMLID_11344_" class="st5" d="M-126.5,367.1c0.8,0,1.4,0.4,1.4,1.4c0,1.1-0.7,1.4-1.4,1.4h-13.1v-21.4
				c0-1,0.4-1.4,1.4-1.4s1.4,0.6,1.4,1.4V367L-126.5,367.1L-126.5,367.1z"/>
			<path id="XMLID_11342_" class="st5" d="M-106.7,367.1c0.8,0,1.4,0.4,1.4,1.4c0,1.1-0.7,1.4-1.4,1.4h-13.1v-22.7h13.1
				c0.8,0,1.4,0.4,1.4,1.4c0,1.1-0.7,1.4-1.4,1.4h-10.1v7.1h4.3c0.8,0,1.4,0.4,1.4,1.4s-0.7,1.4-1.4,1.4h-4.3v7.1H-106.7
				L-106.7,367.1z"/>
			<path id="XMLID_11340_" class="st5" d="M-235.6,407.9c0-1,0.4-1.4,1.4-1.4s1.4,0.6,1.4,1.4v21.4h-3.9l-7.6-17.7l0,0h-0.1v16.1
				c0,1-0.4,1.4-1.4,1.4c-1.1,0-1.4-0.6-1.4-1.4v-21.4h3.9l7.6,17.9l0,0h0.1V407.9z"/>
			<path id="XMLID_11338_" class="st5" d="M-213.4,426.3c0.8,0,1.4,0.4,1.4,1.4s-0.7,1.4-1.4,1.4h-13.1v-22.8h13.1
				c0.8,0,1.4,0.4,1.4,1.4s-0.7,1.4-1.4,1.4h-10.1v7.1h4.3c0.8,0,1.4,0.4,1.4,1.4c0,1.1-0.7,1.4-1.4,1.4h-4.3v7.1L-213.4,426.3
				L-213.4,426.3z"/>
			<path id="XMLID_11336_" class="st5" d="M-202.9,409.3v1.1c0,1-0.4,1.4-1.4,1.4c-1.1,0-1.4-0.6-1.4-1.4v-4h14.5v4
				c0,1-0.4,1.4-1.4,1.4s-1.4-0.6-1.4-1.4v-1.1h-2.9v18.4c0,1-0.4,1.4-1.4,1.4s-1.4-0.6-1.4-1.4v-18.4H-202.9z"/>
			<path id="XMLID_11334_" class="st5" d="M-174.7,429.3c-1,0-1.6-0.2-1.8-1.2h-0.1c-0.2,1.1-0.8,1.2-1.8,1.2h-2.2
				c-1.1,0-1.3-0.2-1.8-1.1l-1.1-1.8c-0.4-0.7-0.4-0.7-0.4-1.5v-17c0-1,0.4-1.4,1.4-1.4s1.4,0.6,1.4,1.4v17l0.8,1.4h1.2l0.8-1.4
				v-9.3c0-1,0.4-1.7,1.4-1.7c1.1,0,1.4,0.9,1.4,1.7v9.3l0.8,1.4h1.2l0.8-1.4v-17c0-1,0.4-1.4,1.4-1.4s1.4,0.6,1.4,1.4v17
				c0,0.8,0,0.9-0.4,1.5l-1.1,1.8c-0.5,0.9-0.8,1.1-1.8,1.1H-174.7z"/>
			<path id="XMLID_11331_" class="st5" d="M-148.4,414.7c0.6,1.1,0.8,2,0.8,3.2c0,1.4-0.4,2.3-1,3.5l-2.7,5.4
				c-0.7,1.4-1.9,2.5-3.6,2.5c-1.7,0-2.9-1.1-3.6-2.5l-2.7-5.4c-0.6-1.2-1-2.1-1-3.5c0-1.2,0.2-2.1,0.8-3.2l3-5.8
				c0.7-1.3,1.9-2.4,3.5-2.4c1.6,0,2.9,1.1,3.5,2.4L-148.4,414.7z M-153.9,410.2c-0.2-0.5-0.4-0.9-1-0.9s-0.8,0.4-1,0.9l-2.7,5.3
				c-0.5,0.9-0.7,1.4-0.7,2.4c0,0.8,0.2,1.3,0.5,1.9l2.9,5.5c0.2,0.4,0.4,0.9,1,0.9s0.8-0.5,1-0.9l2.9-5.5c0.3-0.7,0.5-1.1,0.5-1.9
				c0-1-0.2-1.5-0.7-2.4L-153.9,410.2z"/>
			<path id="XMLID_11328_" class="st5" d="M-138,427.8c0,1-0.4,1.4-1.4,1.4s-1.4-0.6-1.4-1.4v-21.4h9.8c2.3,0,4.7,1.6,4.7,4.3v2
				c0,2.8-2.3,4.2-4.7,4.2h-2.7l6.6,9.5c0.3,0.5,0.8,1,0.8,1.5c0,0.9-0.7,1.3-1.5,1.3c-0.6,0-1-0.4-1.3-0.9l-8.1-11.6h-0.7V427.8z
				 M-138,413.9h6.5c0.9,0,2.1-0.1,2.1-1.2v-2c0-1.1-1.2-1.3-2.1-1.3h-6.6L-138,413.9L-138,413.9z"/>
			<path id="XMLID_11326_" class="st5" d="M-119.3,407.9c0-1,0.4-1.4,1.4-1.4c1.1,0,1.4,0.6,1.4,1.4v6.8l9-7.6
				c0.4-0.3,0.8-0.6,1.2-0.6c0.9,0,1.4,0.7,1.4,1.5c0,0.5-0.3,1-0.7,1.2l-10.1,8.6l10.1,8.6c0.4,0.3,0.8,0.8,0.8,1.2
				c0,0.9-0.6,1.5-1.4,1.5c-0.6,0-1.1-0.6-1.6-0.9l-8.6-7.4v6.8c0,1-0.4,1.4-1.4,1.4c-1.1,0-1.4-0.6-1.4-1.4L-119.3,407.9
				L-119.3,407.9z"/>
		</g>
		<rect id="XMLID_11324_" x="-249.5" y="387.8" class="st5" width="145.7" height="1.8"/>
	</g>
</g>
</svg>
