<?xml version="1.0" encoding="utf-8"?>
<!-- Generator: Adobe Illustrator 19.0.0, SVG Export Plug-In . SVG Version: 6.00 Build 0)  -->
<svg version="1.1" id="Layer_1" xmlns="http://www.w3.org/2000/svg" xmlns:xlink="http://www.w3.org/1999/xlink" x="0px" y="0px"
	 viewBox="-364 232.4 358.7 378.5" style="enable-background:new -364 232.4 358.7 378.5;" xml:space="preserve">
<style type="text/css">
	.st0{fill:none;}
	.st1{fill:none;stroke:#231F20;stroke-width:0.3;}
	.st2{fill:#5A5A5B;}
	.st3{fill:#FFFFFF;}
	.st4{opacity:0.6;fill:url(#XMLID_62_);stroke:#1E1E1E;stroke-width:1.4173;stroke-miterlimit:10;enable-background:new    ;}
</style>
<pattern  x="-375" y="622.9" width="72" height="72" patternUnits="userSpaceOnUse" id="XMLID_453_" viewBox="72.2 -144.3 72 72" style="overflow:visible;">
	<g>
		<polygon class="st0" points="72.2,-72.3 144.2,-72.3 144.2,-144.3 72.2,-144.3 		"/>
		<g>
			<polygon id="XMLID_118_" class="st0" points="72.2,-72.3 144.2,-72.3 144.2,-144.3 72.2,-144.3 			"/>
			<g id="XMLID_108_">
				<line id="XMLID_113_" class="st1" x1="117.2" y1="-144" x2="117.2" y2="-216.5"/>
				<line id="XMLID_112_" class="st1" x1="81.2" y1="-144" x2="81.2" y2="-216.5"/>
				<line id="XMLID_110_" class="st1" x1="135.2" y1="-144" x2="135.2" y2="-216.5"/>
				<line id="XMLID_109_" class="st1" x1="99.2" y1="-144" x2="99.2" y2="-216.5"/>
			</g>
			<g id="XMLID_103_">
				<line id="XMLID_107_" class="st1" x1="144" y1="-81.3" x2="216.5" y2="-81.3"/>
				<line id="XMLID_106_" class="st1" x1="144" y1="-117.3" x2="216.5" y2="-117.3"/>
				<line id="XMLID_105_" class="st1" x1="144" y1="-99.3" x2="216.5" y2="-99.3"/>
				<line id="XMLID_104_" class="st1" x1="144" y1="-135.3" x2="216.5" y2="-135.3"/>
			</g>
			<g id="XMLID_84_">
				<line id="XMLID_101_" class="st1" x1="72" y1="-81.3" x2="144.5" y2="-81.3"/>
				<line id="XMLID_100_" class="st1" x1="72" y1="-117.3" x2="144.5" y2="-117.3"/>
				<line id="XMLID_99_" class="st1" x1="72" y1="-99.3" x2="144.5" y2="-99.3"/>
				<line id="XMLID_96_" class="st1" x1="72" y1="-135.3" x2="144.5" y2="-135.3"/>
				<line id="XMLID_92_" class="st1" x1="117.2" y1="-72" x2="117.2" y2="-144.5"/>
				<line id="XMLID_91_" class="st1" x1="81.2" y1="-72" x2="81.2" y2="-144.5"/>
				<line id="XMLID_89_" class="st1" x1="135.2" y1="-72" x2="135.2" y2="-144.5"/>
				<line id="XMLID_87_" class="st1" x1="99.2" y1="-72" x2="99.2" y2="-144.5"/>
			</g>
			<g id="XMLID_76_">
				<line id="XMLID_82_" class="st1" x1="0" y1="-81.3" x2="72.5" y2="-81.3"/>
				<line id="XMLID_80_" class="st1" x1="0" y1="-117.3" x2="72.5" y2="-117.3"/>
				<line id="XMLID_79_" class="st1" x1="0" y1="-99.3" x2="72.5" y2="-99.3"/>
				<line id="XMLID_77_" class="st1" x1="0" y1="-135.3" x2="72.5" y2="-135.3"/>
			</g>
			<g id="XMLID_67_">
				<line id="XMLID_72_" class="st1" x1="117.2" y1="0" x2="117.2" y2="-72.5"/>
				<line id="XMLID_71_" class="st1" x1="81.2" y1="0" x2="81.2" y2="-72.5"/>
				<line id="XMLID_69_" class="st1" x1="135.2" y1="0" x2="135.2" y2="-72.5"/>
				<line id="XMLID_68_" class="st1" x1="99.2" y1="0" x2="99.2" y2="-72.5"/>
			</g>
		</g>
	</g>
</pattern>
<g id="XMLID_121_">
	<rect id="XMLID_11174_" x="-364.2" y="232.2" class="st2" width="359.6" height="378.9"/>
	<g id="XMLID_10534_">
		<path id="XMLID_11170_" class="st3" d="M-181.2,387.7c-7.2,0-14.3-1.4-20.9-4.2c-6.4-2.7-12.1-6.6-17.1-11.5
			c-4.9-4.9-8.8-10.7-11.5-17.1c-2.8-6.6-4.2-13.6-4.2-20.9c0-7.2,1.4-14.3,4.2-20.9c2.7-6.4,6.6-12.1,11.5-17.1
			c4.9-4.9,10.7-8.8,17.1-11.5c6.6-2.8,13.6-4.2,20.9-4.2s14.3,1.4,20.9,4.2c6.4,2.7,12.1,6.6,17.1,11.5c4.9,4.9,8.8,10.7,11.5,17.1
			c2.8,6.6,4.2,13.6,4.2,20.9c0,7.2-1.4,14.3-4.2,20.9c-2.7,6.4-6.6,12.1-11.5,17.1c-4.9,4.9-10.7,8.8-17.1,11.5
			C-166.9,386.3-173.9,387.7-181.2,387.7z M-181.2,281.5c-7.1,0-14,1.4-20.5,4.1c-6.3,2.6-11.9,6.4-16.7,11.3
			c-4.8,4.8-8.6,10.4-11.3,16.7c-2.7,6.5-4.1,13.4-4.1,20.5s1.4,14,4.1,20.5c2.6,6.3,6.4,11.9,11.3,16.7c4.8,4.8,10.4,8.6,16.7,11.3
			c6.5,2.7,13.4,4.1,20.5,4.1s14-1.4,20.5-4.1c6.3-2.6,11.9-6.4,16.7-11.3c4.8-4.8,8.6-10.4,11.3-16.7c2.7-6.5,4.1-13.4,4.1-20.5
			s-1.4-14-4.1-20.5c-2.6-6.3-6.4-11.9-11.3-16.7c-4.8-4.8-10.4-8.6-16.7-11.3C-167.2,282.9-174.1,281.5-181.2,281.5z"/>
		<g id="XMLID_10536_">
			<path id="XMLID_11168_" class="st3" d="M-214,324.9c-0.7,0-1.3-0.2-1.8-0.7s-0.6-1.1-0.6-1.7v-8.1c0-0.5,0.2-0.7,0.7-0.7
				s0.7,0.3,0.7,0.7v8.1c0,0.8,0.2,1,0.9,1h2.5c0.7,0,0.9-0.2,0.9-1v-8.1c0-0.5,0.2-0.7,0.7-0.7s0.7,0.3,0.7,0.7v8.1
				c0,0.7-0.1,1.2-0.6,1.7c-0.5,0.6-1.1,0.7-1.8,0.7C-211.7,324.9-214,324.9-214,324.9z"/>
			<path id="XMLID_11165_" class="st3" d="M-203.7,324.2c0,0.5-0.2,0.7-0.7,0.7s-0.7-0.3-0.7-0.7v-10.6h4.8c0.7,0,1.2,0.1,1.7,0.6
				c0.6,0.6,0.7,1.1,0.7,1.9v2c0,0.7-0.1,1.3-0.6,1.9c-0.6,0.6-1.2,0.7-2,0.7h-3.2V324.2z M-203.7,319.2h3.2c0.9,0,1-0.2,1-1v-2
				c0-0.8-0.2-1-1-1h-3.2V319.2z"/>
			<path id="XMLID_11163_" class="st3" d="M-191.3,324.9c-1.1,0-1.7-0.4-2.2-1.4l-1.3-2.7c-0.2-0.5-0.4-1-0.4-1.5
				c0-0.6,0.1-1,0.4-1.6l1.3-2.7c0.5-1,1.1-1.4,2.2-1.4h2.5c0.3,0,0.7,0.2,0.7,0.7s-0.4,0.7-0.7,0.7h-2.4c-0.6,0-0.7,0.1-1,0.6
				l-1.3,2.5c-0.2,0.4-0.3,0.7-0.3,1.1c0,0.4,0.1,0.7,0.3,1l1.2,2.5c0.3,0.6,0.4,0.6,1.1,0.6h2.4c0.3,0,0.7,0.2,0.7,0.7
				s-0.4,0.7-0.7,0.7h-2.5V324.9z"/>
			<path id="XMLID_11161_" class="st3" d="M-180.4,324.2c0,0.5-0.2,0.7-0.7,0.7s-0.7-0.3-0.7-0.7v-4.7l-2.9-3.7v-1.4
				c0-0.5,0.2-0.7,0.7-0.7s0.7,0.3,0.7,0.7v1l2.1,2.8l2.1-2.8v-1c0-0.5,0.2-0.7,0.7-0.7s0.7,0.3,0.7,0.7v1.5l-2.9,3.7v4.6H-180.4z"
				/>
			<path id="XMLID_11159_" class="st3" d="M-169.9,324.9c-1.1,0-1.7-0.4-2.2-1.4l-1.3-2.7c-0.2-0.5-0.4-1-0.4-1.5
				c0-0.6,0.1-1,0.4-1.6l1.3-2.7c0.5-1,1.1-1.4,2.2-1.4h2.5c0.3,0,0.7,0.2,0.7,0.7s-0.4,0.7-0.7,0.7h-2.4c-0.6,0-0.7,0.1-1,0.6
				l-1.3,2.5c-0.2,0.4-0.3,0.7-0.3,1.1c0,0.4,0.1,0.7,0.3,1l1.2,2.5c0.3,0.6,0.4,0.6,1.1,0.6h2.4c0.3,0,0.7,0.2,0.7,0.7
				s-0.4,0.7-0.7,0.7h-2.5V324.9z"/>
			<path id="XMLID_11157_" class="st3" d="M-156.4,323.5c0.4,0,0.7,0.2,0.7,0.7s-0.3,0.7-0.7,0.7h-6.5v-10.5c0-0.5,0.2-0.7,0.7-0.7
				s0.7,0.3,0.7,0.7v9.1H-156.4z"/>
			<path id="XMLID_11155_" class="st3" d="M-146.6,323.5c0.4,0,0.7,0.2,0.7,0.7s-0.3,0.7-0.7,0.7h-6.5v-11.3h6.5
				c0.4,0,0.7,0.2,0.7,0.7s-0.3,0.7-0.7,0.7h-5v3.5h2.1c0.4,0,0.7,0.2,0.7,0.7s-0.3,0.7-0.7,0.7h-2.1v3.5h5V323.5z"/>
			<path id="XMLID_11153_" class="st3" d="M-210.4,343.7c0-0.5,0.2-0.7,0.7-0.7s0.7,0.3,0.7,0.7v10.6h-1.9l-3.8-8.7l0,0l0,0v8
				c0,0.5-0.2,0.7-0.7,0.7s-0.7-0.3-0.7-0.7V343h1.9l3.8,8.8l0,0l0,0V343.7z"/>
			<path id="XMLID_11151_" class="st3" d="M-199.4,352.8c0.4,0,0.7,0.2,0.7,0.7s-0.3,0.7-0.7,0.7h-6.5v-11.3h6.5
				c0.4,0,0.7,0.2,0.7,0.7s-0.3,0.7-0.7,0.7h-5v3.5h2.1c0.4,0,0.7,0.2,0.7,0.7s-0.3,0.7-0.7,0.7h-2.1v3.5h5V352.8z"/>
			<path id="XMLID_11149_" class="st3" d="M-194.2,344.4v0.5c0,0.5-0.2,0.7-0.7,0.7s-0.7-0.3-0.7-0.7v-2h7.2v2
				c0,0.5-0.2,0.7-0.7,0.7s-0.7-0.3-0.7-0.7v-0.5h-1.4v9.1c0,0.5-0.2,0.7-0.7,0.7s-0.7-0.3-0.7-0.7v-9.1H-194.2z"/>
			<path id="XMLID_11146_" class="st3" d="M-180.3,354.3c-0.5,0-0.8-0.1-0.9-0.6l0,0c-0.1,0.5-0.4,0.6-0.9,0.6h-1.1
				c-0.5,0-0.6-0.1-0.9-0.5l-0.5-0.9c-0.2-0.3-0.2-0.3-0.2-0.7v-8.4c0-0.5,0.2-0.7,0.7-0.7s0.7,0.3,0.7,0.7v8.4l0.4,0.7h0.6l0.4-0.7
				v-4.6c0-0.5,0.2-0.9,0.7-0.9s0.7,0.4,0.7,0.9v4.6l0.4,0.7h0.6l0.4-0.7v-8.4c0-0.5,0.2-0.7,0.7-0.7s0.7,0.3,0.7,0.7v8.4
				c0,0.4,0,0.4-0.2,0.7l-0.5,0.9c-0.2,0.4-0.4,0.5-0.9,0.5H-180.3z"/>
			<path id="XMLID_10641_" class="st3" d="M-167.2,347c0.3,0.6,0.4,1,0.4,1.6c0,0.7-0.2,1.1-0.5,1.7l-1.3,2.7
				c-0.3,0.7-0.9,1.2-1.8,1.2c-0.8,0-1.4-0.5-1.8-1.2l-1.3-2.7c-0.3-0.6-0.5-1-0.5-1.7c0-0.6,0.1-1,0.4-1.6l1.5-2.9
				c0.3-0.7,0.9-1.2,1.8-1.2c0.8,0,1.4,0.5,1.8,1.2L-167.2,347z M-169.9,344.8c-0.1-0.2-0.2-0.4-0.5-0.4s-0.4,0.2-0.5,0.4l-1.3,2.6
				c-0.2,0.4-0.3,0.7-0.3,1.2c0,0.4,0.1,0.6,0.2,1l1.4,2.8c0.1,0.2,0.2,0.4,0.5,0.4s0.4-0.2,0.5-0.4l1.4-2.8c0.2-0.3,0.2-0.6,0.2-1
				c0-0.5-0.1-0.8-0.3-1.2L-169.9,344.8z"/>
			<path id="XMLID_10539_" class="st3" d="M-162,353.5c0,0.5-0.2,0.7-0.7,0.7s-0.7-0.3-0.7-0.7v-10.6h4.9c1.2,0,2.3,0.8,2.3,2.1v1
				c0,1.4-1.1,2.1-2.3,2.1h-1.3l3.3,4.7c0.2,0.2,0.4,0.5,0.4,0.8c0,0.4-0.3,0.7-0.7,0.7c-0.3,0-0.5-0.2-0.6-0.4l-4-5.7h-0.3v5.3
				H-162z M-162,346.7h3.2c0.4,0,1,0,1-0.6v-1c0-0.6-0.6-0.7-1-0.7h-3.2V346.7z"/>
			<path id="XMLID_10537_" class="st3" d="M-152.8,343.7c0-0.5,0.2-0.7,0.7-0.7s0.7,0.3,0.7,0.7v3.3l4.4-3.8
				c0.2-0.1,0.4-0.3,0.6-0.3c0.4,0,0.7,0.3,0.7,0.8c0,0.2-0.2,0.5-0.3,0.6l-5,4.3l5,4.3c0.2,0.2,0.4,0.4,0.4,0.6
				c0,0.4-0.3,0.8-0.7,0.8c-0.3,0-0.6-0.3-0.8-0.4l-4.2-3.7v3.4c0,0.5-0.2,0.7-0.7,0.7s-0.7-0.3-0.7-0.7L-152.8,343.7L-152.8,343.7z
				"/>
		</g>
		<rect id="XMLID_10535_" x="-217.3" y="333.7" class="st3" width="72.2" height="0.9"/>
	</g>
	<g id="XMLID_5844_">
		<path id="XMLID_10531_" class="st3" d="M-297.4,426.1v9.9h-0.9v-5.5h-2.3v3h-4.5v-6.6h0.9v2.6h2.8v-2.6h0.9v2.9h2.3v-3.7
			L-297.4,426.1L-297.4,426.1z M-301.5,430.2h-2.7v2.6h2.8L-301.5,430.2L-301.5,430.2z"/>
		<path id="XMLID_10528_" class="st3" d="M-294.6,433c1.5,0,2.7-0.1,4.2-0.3l0.1,0.8c-1.6,0.2-2.8,0.3-4.4,0.3h-0.8v-3.9h3.4v-2.1
			h-3.4v-0.7h4.3v3.6h-3.4C-294.6,430.7-294.6,433-294.6,433z M-287.6,426.1v9.9h-0.9v-4.2h-2v-0.7h2v-2h-2v-0.7h2v-2.3H-287.6z"/>
		<path id="XMLID_10525_" class="st3" d="M-282.5,429.2c0,1.7,1.2,3.4,2.7,4l-0.5,0.7c-1.2-0.5-2.1-1.7-2.6-3
			c-0.5,1.4-1.4,2.7-2.6,3.3l-0.5-0.7c1.4-0.7,2.6-2.5,2.6-4.3v-1.3h-2.3v-0.8h5.5v0.8h-2.3V429.2z M-278,426.1v9.9h-0.9v-9.9H-278z
			"/>
		<path id="XMLID_10032_" class="st3" d="M-267.4,431.2v0.7h-9v-0.7H-267.4z M-274.3,435.1h6v0.7h-6.9v-2.9h0.9V435.1z
			 M-268.4,429.9h-6.7v-3.4h0.9v2.6h5.8V429.9z"/>
		<path id="XMLID_10028_" class="st3" d="M-255.9,431v1h2.9v2.2h-5.8v1h6.1v0.7h-7v-2.4h5.8v-0.9h-5.9v-0.7h3v-1h-4v-0.7h9v0.7
			L-255.9,431L-255.9,431z M-253,429.5h-6.6v-3h6.6V429.5z M-253.9,427.2h-4.9v1.6h4.9V427.2z"/>
		<path id="XMLID_10024_" class="st3" d="M-245.9,426.9c0,2.6-1.8,4.5-4.6,5.4l-0.4-0.7c2.3-0.8,3.8-2.2,4-3.9h-3.5V427h4.5V426.9z
			 M-242.7,435.1v0.7h-6.5v-3.1h0.9v2.4L-242.7,435.1L-242.7,435.1z M-243.8,429.2v-3.1h0.9v7.3h-0.9v-3.5h-2.1v-0.7H-243.8z"/>
		<path id="XMLID_10019_" class="st3" d="M-232.4,430.4v0.7h-9v-0.7H-232.4z M-240.4,428c0-1.1,1.3-1.7,3.5-1.7s3.5,0.6,3.5,1.7
			c0,1.1-1.3,1.7-3.5,1.7C-239.1,429.7-240.4,429.1-240.4,428z M-239.4,435.2h6.1v0.7h-7v-2.4h5.8v-0.9h-5.9v-0.7h6.7v2.2h-5.8v1.1
			H-239.4z M-239.5,428c0,0.7,0.9,1,2.6,1c1.6,0,2.6-0.4,2.6-1c0-0.7-0.9-1-2.6-1C-238.5,427-239.5,427.4-239.5,428z"/>
		<path id="XMLID_9955_" class="st3" d="M-222.9,428.8c0,1.8,0.7,3.4,2.1,4.1l-0.5,0.7c-1-0.5-1.7-1.5-2-2.7c-0.3,1.3-1,2.4-2.1,3
			l-0.6-0.7c1.4-0.8,2.2-2.5,2.2-4.5v-0.8h-1.9v-0.7h4.6v0.7h-1.8V428.8z M-217.4,426.1v9.9h-0.9v-5.2h-1.3v4.7h-0.9v-9.2h0.9v3.8
			h1.3v-4H-217.4z"/>
		<path id="XMLID_9948_" class="st3" d="M-209.9,431.4c-2.1,0.4-4.5,0.4-6.2,0.4l-0.1-0.7c0.8,0,1.7,0,2.6,0v-0.7
			c-1.2-0.1-1.9-0.6-1.9-1.3c0-0.8,0.9-1.3,2.3-1.3c1.4,0,2.3,0.5,2.3,1.3c0,0.7-0.7,1.2-1.9,1.3v0.6c0.9,0,1.8-0.1,2.7-0.2
			L-209.9,431.4z M-210.2,427.5h-5.7v-0.7h2.4v-0.9h0.9v0.9h2.4L-210.2,427.5L-210.2,427.5z M-213.9,435.3h5.9v0.7h-6.8v-2.1h5.5
			v-0.8h-5.5v-0.7h6.4v2h-5.5L-213.9,435.3L-213.9,435.3z M-213.1,429.9c0.9,0,1.4-0.3,1.4-0.7s-0.6-0.7-1.4-0.7
			c-0.9,0-1.5,0.3-1.5,0.7C-214.5,429.6-214,429.9-213.1,429.9z M-207,428.7v0.8h-1.5v2.6h-0.9v-5.9h0.9v2.5H-207L-207,428.7z"/>
		<path id="XMLID_9846_" class="st3" d="M-197.4,431v0.7h-9V431h2.2v-1.4c-0.8-0.3-1.2-0.8-1.2-1.5c0-1.2,1.3-1.8,3.5-1.8
			s3.5,0.7,3.5,1.8c0,0.7-0.4,1.2-1.2,1.5v1.4H-197.4z M-198.5,434.3c0,1.1-1.3,1.8-3.4,1.8c-2.1,0-3.4-0.6-3.4-1.8
			c0-1.1,1.3-1.8,3.4-1.8S-198.5,433.1-198.5,434.3z M-201.9,429.3c1.6,0,2.6-0.4,2.6-1.1c0-0.7-1-1.1-2.6-1.1s-2.6,0.4-2.6,1.1
			S-203.5,429.3-201.9,429.3z M-199.4,434.3c0-0.7-0.9-1.1-2.5-1.1s-2.5,0.4-2.5,1.1s0.9,1.1,2.5,1.1
			C-200.4,435.3-199.4,435-199.4,434.3z M-203.3,431h2.8v-1.2c-0.4,0.1-0.9,0.1-1.4,0.1s-1,0-1.4-0.1L-203.3,431L-203.3,431z"/>
		<path id="XMLID_9841_" class="st3" d="M-193.3,427.7h2.4v0.7h-5.9v-0.7h2.5v-1.5h0.9v1.5H-193.3z M-191.3,431.6
			c0,1.3-1,2.3-2.4,2.3s-2.4-0.9-2.4-2.3c0-1.3,1-2.3,2.4-2.3S-191.3,430.2-191.3,431.6z M-192.2,431.6c0-0.9-0.7-1.5-1.6-1.5
			c-0.9,0-1.5,0.6-1.5,1.5s0.7,1.5,1.5,1.5C-192.8,433.1-192.2,432.4-192.2,431.6z M-187.4,431h-1.6v5.1h-0.9v-9.9h0.9v4.1h1.6V431z
			"/>
		<path id="XMLID_9837_" class="st3" d="M-178,431.2v0.7h-9v-0.7H-178z M-184.9,435.1h6v0.7h-6.9v-2.9h0.9V435.1z M-179,429.9h-6.7
			v-3.4h0.9v2.6h5.8V429.9z"/>
		<path id="XMLID_9833_" class="st3" d="M-166.3,426.9c0,2.6-1.7,4.4-4.5,5.3l-0.4-0.7c2.3-0.7,3.8-2.1,3.9-3.8h-3.5V427h4.5V426.9z
			 M-166,432.4c0,1.4,1.5,2.5,3.3,2.9l-0.4,0.7c-1.5-0.3-2.8-1.1-3.4-2.2c-0.6,1.2-1.9,1.9-3.4,2.2l-0.4-0.7
			c1.8-0.3,3.3-1.4,3.3-2.9v-0.5h0.9L-166,432.4L-166,432.4z M-164.2,429.7h-2.1V429h2.1v-2.8h0.9v6.7h-0.9V429.7z"/>
		<path id="XMLID_9606_" class="st3" d="M-156.1,426.3h0.9v9.2h-0.9v-4.8h-1.2c-0.1,1.9-0.9,3.1-2.1,3.1c-1.3,0-2.1-1.3-2.1-3.5
			c0-2.1,0.8-3.4,2.1-3.4c1.2,0,2,1.2,2.1,3h1.2V426.3z M-158.2,430.4c0-1.6-0.5-2.6-1.3-2.6s-1.3,1-1.3,2.6s0.5,2.6,1.3,2.6
			S-158.2,432-158.2,430.4z M-153.3,426.1v9.9h-0.9v-9.9H-153.3z"/>
		<path id="XMLID_9603_" class="st3" d="M-148.5,428.8c0,1.8,1.1,3.6,2.6,4.3l-0.5,0.7c-1.1-0.6-2-1.7-2.5-3.1
			c-0.4,1.5-1.3,2.7-2.5,3.3l-0.6-0.7c1.4-0.7,2.6-2.6,2.6-4.5V427h0.9V428.8z M-143.8,426.1v9.9h-0.9v-5.8h-2.3v-0.7h2.3v-3.4
			H-143.8z"/>
		<path id="XMLID_9599_" class="st3" d="M-135,432.9c1.8,0,2.9-0.1,4.3-0.3l0.1,0.8c-1.4,0.3-2.6,0.3-4.5,0.3h-0.8v-6.5h4.5v0.8
			h-3.6V432.9z M-128.3,426.1v9.9h-0.9v-5.6h-2.8v-0.8h2.8V426h0.9V426.1z"/>
		<path id="XMLID_9596_" class="st3" d="M-119.6,432.8c1.4,0,2.9-0.1,4.5-0.4l0.1,0.8c-1.7,0.3-3.2,0.5-4.7,0.5h-0.8v-6.4h0.9V432.8
			z M-111.7,430.8h-1.6v5.2h-0.9v-9.9h0.9v4h1.6V430.8z"/>
		<path id="XMLID_9531_" class="st3" d="M-106.1,430.4c0,2.1-1,3.5-2.5,3.5s-2.5-1.3-2.5-3.5c0-2.1,1-3.5,2.5-3.5
			S-106.1,428.2-106.1,430.4z M-106.9,430.4c0-1.6-0.7-2.6-1.6-2.6c-1,0-1.6,1-1.6,2.6s0.7,2.7,1.6,2.7
			C-107.6,433-106.9,432-106.9,430.4z M-101.9,430.9h-1.6v5.2h-0.9v-9.9h0.9v3.9h1.6V430.9z"/>
		<path id="XMLID_9528_" class="st3" d="M-96.4,427.2c0,2.8-1.3,5.4-4.5,7l-0.5-0.7c2.5-1.3,3.9-3.2,4.1-5.5h-3.6v-0.8H-96.4z
			 M-92.2,430.9h-1.6v5.1h-0.9v-9.9h0.9v4h1.6V430.9z"/>
		<path id="XMLID_9525_" class="st3" d="M-83,428.9c0,1.6,0.8,3.3,2.1,4l-0.5,0.7c-0.9-0.6-1.6-1.6-2-2.8c-0.4,1.3-1.1,2.4-2.1,3
			l-0.6-0.7c1.4-0.8,2.2-2.6,2.2-4.3v-1.9h0.9V428.9z M-77.5,426.1v9.9h-0.9v-5.2h-1.3v4.7h-0.9v-9.2h0.9v3.8h1.3v-4H-77.5z"/>
		<path id="XMLID_9522_" class="st3" d="M-67.2,434.1v0.7h-9v-0.7h4v-1.9h-2.9v-3.1h5.9v-1.5h-5.9v-0.7h6.8v3h-5.9v1.6h6.1v0.7h-3.2
			v1.9H-67.2z"/>
		<path id="XMLID_9516_" class="st3" d="M-57.5,431.2v0.7h-4v2h-0.9v-2h-4.1v-0.7H-57.5z M-65.5,428.4c0-1.2,1.4-2,3.5-2
			s3.5,0.8,3.5,2c0,1.2-1.4,2-3.5,2S-65.5,429.6-65.5,428.4z M-64.4,435.1h6v0.8h-6.9V433h0.9V435.1z M-64.5,428.4
			c0,0.8,1,1.2,2.5,1.2s2.5-0.5,2.5-1.2c0-0.8-1-1.3-2.5-1.3S-64.5,427.6-64.5,428.4z"/>
		<path id="XMLID_9513_" class="st3" d="M-300.5,440.8c0,2.8-1.3,5.4-4.5,7l-0.5-0.7c2.5-1.3,3.9-3.2,4.1-5.5h-3.6v-0.8H-300.5z
			 M-296.3,444.5h-1.6v5.1h-0.9v-9.9h0.9v4h1.6V444.5z"/>
		<path id="XMLID_9510_" class="st3" d="M-292.2,442.9c0,1.7,1.1,3.3,2.6,3.9l-0.5,0.7c-1.1-0.5-2.1-1.6-2.5-2.9
			c-0.4,1.4-1.4,2.5-2.5,3.1l-0.5-0.7c1.5-0.7,2.6-2.4,2.6-4.1v-0.8h-2.3v-0.7h2.3v-1.5h0.9v1.5h2.3v0.7h-2.4V442.9z M-287.7,439.7
			v9.9h-0.9v-9.9H-287.7z"/>
		<path id="XMLID_9505_" class="st3" d="M-277.1,444.3v0.7h-9v-0.7H-277.1z M-284.1,448.9h6.2v0.7h-7.1v-2.2h5.9v-0.8h-5.9v-0.7h6.8
			v2.1h-5.9V448.9z M-279.1,440.7h-5.8v-0.6h6.7v2.1h-5.8v0.9h6v0.7h-6.9v-2.1h5.8V440.7z"/>
		<path id="XMLID_9474_" class="st3" d="M-265.3,446.3h-4.1v3.3h-0.9v-3.3h-4v-0.7h9V446.3z M-266.5,444.4h-6.7v-4.3h0.9v1.4h4.9
			v-1.4h0.9C-266.5,440.1-266.5,444.4-266.5,444.4z M-267.4,442.2h-4.9v1.5h4.9V442.2z"/>
		<path id="XMLID_9469_" class="st3" d="M-256.4,439.7v9.9h-0.9v-3.8h-2.5c-0.4,1-1.2,1.6-2.1,1.6c-1.4,0-2.5-1.3-2.5-3.5
			c0-2.1,1-3.5,2.5-3.5c0.9,0,1.6,0.5,2.1,1.5h2.5v-2.2H-256.4z M-260.3,444c0-1.6-0.7-2.6-1.6-2.6c-1,0-1.6,1-1.6,2.6
			s0.7,2.7,1.6,2.7C-261,446.6-260.3,445.6-260.3,444z M-257.3,445.1v-2.4h-2.3c0.1,0.4,0.1,0.8,0.1,1.3c0,0.4,0,0.8-0.1,1.1H-257.3
			L-257.3,445.1z"/>
		<path id="XMLID_9463_" class="st3" d="M-252,441.4h2v0.7h-4.9v-0.7h2V440h0.9V441.4z M-250.3,445.1c0,1.3-0.9,2.3-2.1,2.3
			s-2.1-0.9-2.1-2.3c0-1.3,0.9-2.3,2.1-2.3S-250.3,443.8-250.3,445.1z M-251.1,445.1c0-0.9-0.6-1.5-1.3-1.5c-0.8,0-1.3,0.6-1.3,1.5
			s0.5,1.5,1.3,1.5S-251.1,446-251.1,445.1z M-246.5,439.7v9.9h-0.9v-5h-1.3v4.5h-0.9v-9.2h0.9v4h1.3v-4.2H-246.5z"/>
		<path id="XMLID_9392_" class="st3" d="M-239.8,442.8c0,1.6,1.1,3.3,2.6,4l-0.5,0.7c-1.1-0.6-2-1.7-2.5-3c-0.5,1.4-1.4,2.7-2.5,3.3
			l-0.5-0.7c1.4-0.7,2.6-2.6,2.6-4.3v-1.3h-2.3v-0.8h5.4v0.8h-2.2v1.3H-239.8z M-233.8,444.5h-1.6v5.2h-0.9v-9.9h0.9v4h1.6V444.5z"
			/>
		<path id="XMLID_6078_" class="st3" d="M-230.6,445c-1,0-1.9,0.1-2.8,0.1l-0.1-0.8c1.8,0,4.3,0,6.4-0.3l0.1,0.7
			c-0.9,0.1-1.8,0.2-2.7,0.3v2h-0.9V445z M-232.6,441.9c0-1,1-1.7,2.4-1.7c1.4,0,2.4,0.7,2.4,1.7c0,1.1-1,1.7-2.4,1.7
			C-231.6,443.6-232.6,442.9-232.6,441.9z M-225,448.7v0.7h-7v-2.9h0.9v2.1h6.1V448.7z M-231.8,441.9c0,0.6,0.6,1.1,1.6,1.1
			c0.9,0,1.6-0.4,1.6-1.1c0-0.6-0.6-1.1-1.6-1.1C-231.1,440.8-231.8,441.2-231.8,441.9z M-226.2,445.6v-5.9h0.9v7.6h-0.9v-1h-2v-0.7
			H-226.2L-226.2,445.6z"/>
		<path id="XMLID_6073_" class="st3" d="M-223.6,446.7c1.8,0,4.3,0,6.5-0.3l0.1,0.7c-2.2,0.4-4.6,0.4-6.4,0.4L-223.6,446.7z
			 M-217.8,442.8c0,1.4-1.1,2.3-2.7,2.3c-1.5,0-2.7-1-2.7-2.3c0-1.4,1.1-2.3,2.7-2.3C-218.9,440.5-217.8,441.4-217.8,442.8z
			 M-222.2,442.8c0,0.9,0.7,1.6,1.8,1.6c1,0,1.8-0.6,1.8-1.6c0-0.9-0.7-1.6-1.8-1.6C-221.5,441.2-222.2,441.9-222.2,442.8z
			 M-215.6,439.7v9.9h-0.9v-9.9H-215.6z"/>
		<path id="XMLID_6070_" class="st3" d="M-202.9,446.1h-4.1v3.6h-0.9v-3.6h-4v-0.8h9V446.1z M-203.7,444.2c-1.5-0.3-3-1.1-3.7-2.3
			c-0.6,1.2-2.1,2.1-3.7,2.3l-0.4-0.7c1.8-0.3,3.6-1.5,3.6-2.9V440h1v0.6c0,1.4,1.8,2.6,3.6,2.9L-203.7,444.2z"/>
		<path id="XMLID_6064_" class="st3" d="M-197.2,444.9h-4.5v-4.4h4.5v0.9h2.3v-1.6h0.9v5.9h-0.9v-1.6h-2.3V444.9z M-198.1,441.2
			h-2.7v3h2.7V441.2z M-194,447.8c0,1.2-1.3,1.9-3.3,1.9s-3.3-0.7-3.3-1.9c0-1.2,1.3-1.9,3.3-1.9C-195.2,445.9-194,446.6-194,447.8z
			 M-194.8,447.8c0-0.7-0.9-1.2-2.4-1.2s-2.4,0.4-2.4,1.2c0,0.7,0.9,1.2,2.4,1.2C-195.8,448.9-194.8,448.5-194.8,447.8z
			 M-197.2,442.1v1.2h2.3v-1.2H-197.2z"/>
		<path id="XMLID_6059_" class="st3" d="M-183.4,444v0.7h-9V444H-183.4z M-191.4,441.6c0-1.1,1.3-1.7,3.5-1.7s3.5,0.6,3.5,1.7
			s-1.3,1.7-3.5,1.7S-191.4,442.7-191.4,441.6z M-190.4,448.8h6.1v0.7h-7v-2.4h5.8v-0.9h-5.9v-0.7h6.7v2.2h-5.8L-190.4,448.8
			L-190.4,448.8z M-190.5,441.6c0,0.7,0.9,1,2.6,1c1.6,0,2.6-0.4,2.6-1c0-0.7-0.9-1-2.6-1C-189.6,440.6-190.5,441-190.5,441.6z"/>
		<path id="XMLID_6054_" class="st3" d="M-175.9,444.4c-0.5,0.6-1.2,0.9-2,0.9c-1.5,0-2.6-1-2.6-2.5c0-1.4,1.1-2.5,2.6-2.5
			c0.9,0,1.6,0.4,2,0.9h2.5v-1.5h0.9v7.3h-0.9v-2.6H-175.9z M-177.9,444.5c1,0,1.7-0.7,1.7-1.7s-0.7-1.7-1.7-1.7s-1.7,0.7-1.7,1.7
			C-179.6,443.8-178.9,444.5-177.9,444.5z M-172.2,448.7v0.7h-6.6v-3.1h0.9v2.4L-172.2,448.7L-172.2,448.7z M-175.5,442
			c0.1,0.3,0.1,0.5,0.1,0.8c0,0.3,0,0.6-0.1,0.8h2.1V442H-175.5z"/>
		<path id="XMLID_6049_" class="st3" d="M-165.6,445.2c-1.1-0.4-2-1.2-2.4-2.1c-0.4,1.1-1.3,2-2.5,2.4l-0.5-0.7
			c1.5-0.5,2.5-1.8,2.5-3.2v-0.4h-2.2v-0.7h5.3v0.7h-2.2v0.4c0,1.3,0.9,2.5,2.4,2.9L-165.6,445.2z M-163.1,447.8
			c0,1.2-1.2,1.8-3.3,1.8c-2,0-3.3-0.7-3.3-1.8c0-1.2,1.2-1.8,3.3-1.8C-164.4,446-163.1,446.7-163.1,447.8z M-164,447.8
			c0-0.7-0.9-1.1-2.4-1.1s-2.4,0.4-2.4,1.1s0.9,1.1,2.4,1.1S-164,448.5-164,447.8z M-161.8,442.2v0.8h-1.4v2.7h-0.9v-6h0.9v2.5
			H-161.8z"/>
		<path id="XMLID_6044_" class="st3" d="M-157.8,441.3h2.4v0.7h-5.9v-0.7h2.5v-1.5h0.9v1.5H-157.8z M-155.9,445.2
			c0,1.3-1,2.3-2.4,2.3s-2.4-0.9-2.4-2.3c0-1.3,1-2.3,2.4-2.3S-155.9,443.8-155.9,445.2z M-156.7,445.2c0-0.9-0.7-1.5-1.6-1.5
			c-0.9,0-1.5,0.6-1.5,1.5s0.7,1.5,1.5,1.5C-157.4,446.7-156.7,446.1-156.7,445.2z M-151.9,444.6h-1.6v5.1h-0.9v-9.9h0.9v4.1h1.6
			V444.6z"/>
		<path id="XMLID_6040_" class="st3" d="M-142.5,444.8v0.7h-9v-0.7H-142.5z M-149.4,448.7h6v0.7h-6.9v-2.9h0.9V448.7z M-143.5,443.5
			h-6.7v-3.4h0.9v2.6h5.8V443.5z"/>
		<path id="XMLID_6035_" class="st3" d="M-131.5,439.7v5.3h-0.9v-2.2h-2c-0.2,1.2-1.2,1.9-2.5,1.9c-1.5,0-2.6-0.9-2.6-2.3
			c0-1.4,1.1-2.3,2.6-2.3c1.3,0,2.3,0.8,2.5,1.9h2v-2.4h0.9V439.7z M-135.3,442.5c0-0.9-0.7-1.5-1.7-1.5s-1.7,0.6-1.7,1.5
			s0.7,1.5,1.7,1.5S-135.3,443.4-135.3,442.5z M-132.4,445.6h0.9v4h-6.3v-4h0.9v1.2h4.5L-132.4,445.6L-132.4,445.6z M-132.4,447.5
			h-4.5v1.3h4.5V447.5z"/>
		<path id="XMLID_6032_" class="st3" d="M-126.7,442.4c0,1.7,1.1,3.6,2.5,4.2l-0.6,0.7c-1.1-0.6-1.9-1.7-2.4-3.1
			c-0.4,1.4-1.3,2.7-2.5,3.3l-0.5-0.7c1.4-0.7,2.6-2.6,2.6-4.4v-1.8h0.9V442.4z M-120.7,444.5h-1.6v5.1h-0.9v-9.9h0.9v4h1.6V444.5z"
			/>
		<path id="XMLID_6028_" class="st3" d="M-114.8,444c0,2.1-1.1,3.5-2.5,3.5c-1.5,0-2.5-1.3-2.5-3.5c0-2.1,1.1-3.5,2.5-3.5
			C-115.9,440.5-114.8,441.8-114.8,444z M-119,444c0,1.6,0.7,2.7,1.7,2.7s1.6-1,1.6-2.7c0-1.6-0.7-2.6-1.6-2.6
			C-118.3,441.3-119,442.4-119,444z M-112.1,439.7v9.9h-0.9v-9.9H-112.1z"/>
		<path id="XMLID_6025_" class="st3" d="M-101.6,443.8v0.7h-8.9v-0.7h6.7c0.1-0.5,0.2-0.9,0.2-1.3l-5.9,0.3l-0.1-0.7l6-0.2
			c0-0.3,0-0.6,0-0.9l0,0h-5.8v-0.7h6.7v0.8c0,0.8,0,1.7-0.2,2.8h1.3V443.8z M-108.5,448.8h6.3v0.7h-7.2v-2.4h5.9v-0.9h-6v-0.7h6.8
			v2.3h-5.9L-108.5,448.8L-108.5,448.8z"/>
		<path id="XMLID_6023_" class="st3" d="M-100.6,448.2c0-0.5,0.3-0.8,0.7-0.8c0.4,0,0.7,0.3,0.7,0.8s-0.3,0.8-0.7,0.8
			C-100.2,449-100.6,448.7-100.6,448.2z"/>
		<path id="XMLID_6021_" class="st3" d="M-305.2,458.9v-4.4h1.6v4.5c0,1.7,0.6,2.2,1.5,2.2c0.9,0,1.6-0.6,1.6-2.2v-4.5h1.5v4.4
			c0,2.6-1.1,3.7-3.1,3.7C-304,462.6-305.2,461.5-305.2,458.9z"/>
		<path id="XMLID_6018_" class="st3" d="M-297.5,454.5h2.6c1.8,0,3.1,0.6,3.1,2.5c0,1.8-1.4,2.6-3.1,2.6h-1.1v2.8h-1.6v-7.9H-297.5z
			 M-295,458.4c1.1,0,1.6-0.5,1.6-1.4s-0.6-1.2-1.7-1.2h-0.9v2.6L-295,458.4L-295,458.4z"/>
		<path id="XMLID_6016_" class="st3" d="M-291.2,458.5c0-2.6,1.7-4.2,3.7-4.2c1,0,1.8,0.5,2.3,1l-0.8,1c-0.4-0.4-0.9-0.7-1.5-0.7
			c-1.2,0-2.1,1-2.1,2.7c0,1.7,0.8,2.8,2.1,2.8c0.7,0,1.2-0.3,1.6-0.8l0.8,1c-0.7,0.8-1.5,1.2-2.5,1.2
			C-289.5,462.6-291.2,461.2-291.2,458.5z"/>
		<path id="XMLID_6014_" class="st3" d="M-282.8,459.5l-2.4-5.1h1.7l0.8,1.9c0.2,0.6,0.4,1.2,0.7,1.8l0,0c0.2-0.6,0.5-1.2,0.7-1.8
			l0.8-1.9h1.7l-2.4,5.1v2.9h-1.6C-282.8,462.4-282.8,459.5-282.8,459.5z"/>
		<path id="XMLID_6012_" class="st3" d="M-278.7,458.5c0-2.6,1.7-4.2,3.7-4.2c1,0,1.8,0.5,2.3,1l-0.8,1c-0.4-0.4-0.9-0.7-1.5-0.7
			c-1.2,0-2.1,1-2.1,2.7c0,1.7,0.8,2.8,2.1,2.8c0.7,0,1.2-0.3,1.6-0.8l0.8,1c-0.7,0.8-1.5,1.2-2.5,1.2
			C-277.1,462.6-278.7,461.2-278.7,458.5z"/>
		<path id="XMLID_6010_" class="st3" d="M-271.6,454.5h1.6v6.6h3.2v1.3h-4.8C-271.6,462.4-271.6,454.5-271.6,454.5z"/>
		<path id="XMLID_6008_" class="st3" d="M-265.9,454.5h4.9v1.3h-3.3v1.8h2.8v1.3h-2.8v2.1h3.4v1.3h-5V454.5z"/>
		<path id="XMLID_6006_" class="st3" d="M-249.6,454.5h1.6l2.3,4.2l0.8,1.7h0.1c-0.1-0.8-0.2-1.9-0.2-2.8v-3.2h1.5v8h-1.6l-2.3-4.3
			l-0.8-1.7h-0.1c0.1,0.9,0.2,1.9,0.2,2.8v3.2h-1.5V454.5z"/>
		<path id="XMLID_6004_" class="st3" d="M-241.9,454.5h4.9v1.3h-3.3v1.8h2.8v1.3h-2.8v2.1h3.4v1.3h-5V454.5z"/>
		<path id="XMLID_6002_" class="st3" d="M-234.2,455.8h-2.2v-1.3h6.1v1.3h-2.3v6.6h-1.6V455.8z"/>
		<path id="XMLID_6000_" class="st3" d="M-230.2,454.5h1.6l0.6,3.9c0.1,0.8,0.2,1.7,0.4,2.5l0,0c0.2-0.9,0.3-1.7,0.5-2.5l0.9-3.9
			h1.4l0.9,3.9c0.2,0.8,0.3,1.7,0.5,2.5h0.1c0.1-0.9,0.2-1.7,0.4-2.5l0.6-3.9h1.5l-1.5,8h-2l-0.9-3.9c-0.1-0.6-0.2-1.2-0.3-1.8l0,0
			c-0.1,0.6-0.2,1.2-0.3,1.8l-0.9,3.9h-1.9L-230.2,454.5z"/>
		<path id="XMLID_5997_" class="st3" d="M-220.4,458.4c0-2.6,1.5-4.1,3.6-4.1s3.6,1.5,3.6,4.1s-1.5,4.2-3.6,4.2
			C-219,462.6-220.4,461-220.4,458.4z M-214.9,458.4c0-1.7-0.8-2.7-1.9-2.7c-1.2,0-1.9,1-1.9,2.7c0,1.7,0.8,2.8,1.9,2.8
			S-214.9,460.1-214.9,458.4z"/>
		<path id="XMLID_5994_" class="st3" d="M-207.8,462.4l-1.6-3h-1.1v3h-1.7v-8h2.8c1.7,0,3,0.6,3,2.4c0,1.2-0.6,1.9-1.5,2.3l1.9,3.3
			H-207.8z M-210.6,458.2h1c1,0,1.6-0.4,1.6-1.3c0-0.9-0.6-1.2-1.6-1.2h-1V458.2z"/>
		<path id="XMLID_5992_" class="st3" d="M-205.2,454.5h1.6v3.5l0,0l2.6-3.5h1.8l-2.4,3.1l2.9,4.8h-1.8l-2.1-3.6l-1,1.3v2.2h-1.6
			V454.5z"/>
		<path id="XMLID_5989_" class="st3" d="M-194.7,460.1c1.8,0,3.1-0.1,4.6-0.4l0.1,0.8c-1.5,0.3-2.9,0.4-4.8,0.4h-0.8v-3.8h3.6V455
			h-3.6v-0.7h4.5v3.6h-3.6V460.1z M-186.7,458h-1.6v5.2h-0.9v-9.9h0.9v3.9h1.6V458z"/>
		<path id="XMLID_5985_" class="st3" d="M-177.3,458.4v0.7h-9v-0.7H-177.3z M-184.2,462.3h6v0.7h-6.9v-2.9h0.9V462.3z M-178.3,457.1
			h-6.7v-3.4h0.9v2.6h5.8V457.1z"/>
		<path id="XMLID_5981_" class="st3" d="M-161,457.6c0,2.1-1.1,3.5-2.5,3.5c-1.5,0-2.5-1.3-2.5-3.5c0-2.1,1.1-3.5,2.5-3.5
			C-162,454.1-161,455.5-161,457.6z M-165.1,457.6c0,1.6,0.7,2.7,1.7,2.7s1.6-1,1.6-2.7c0-1.6-0.7-2.6-1.6-2.6
			C-164.4,454.9-165.1,456-165.1,457.6z M-158.2,453.3v9.9h-0.9v-9.9H-158.2z"/>
		<path id="XMLID_5976_" class="st3" d="M-147.6,458.5v0.7h-9v-0.7H-147.6z M-149.7,454.3h-5.8v-0.7h6.7v2.3h-5.8v1h6v0.7h-6.9v-2.4
			h5.8V454.3z M-155.4,460.1h6.6v3h-6.6V460.1z M-154.5,462.4h4.9v-1.6h-4.9V462.4z"/>
		<path id="XMLID_5972_" class="st3" d="M-137.9,461.2v0.8h-9v-0.8H-137.9z M-138.8,456.7c0,1.7-1.5,2.7-3.6,2.7s-3.6-1.1-3.6-2.7
			c0-1.6,1.5-2.7,3.6-2.7C-140.4,454-138.8,455.1-138.8,456.7z M-145.2,456.7c0,1.2,1.2,2,2.7,2c1.6,0,2.7-0.8,2.7-2
			c0-1.2-1.2-2-2.7-2S-145.2,455.5-145.2,456.7z"/>
		<path id="XMLID_5970_" class="st3" d="M-128.2,461.3v0.7h-9v-0.7h4v-1.9h-2.9v-3h5.9v-1.5h-5.9v-0.7h6.8v3h-5.9v1.6h6.1v0.7h-3.1
			v1.9h4V461.3z"/>
		<path id="XMLID_5968_" class="st3" d="M-116.9,461.6h1.8v-6.1h-1.4v-0.6c0.7-0.1,1.2-0.3,1.7-0.6h0.8v7.3h1.6v0.8h-4.4v-0.8
			H-116.9z"/>
		<path id="XMLID_5965_" class="st3" d="M-111.6,458.4c0-2.8,1-4.2,2.5-4.2s2.5,1.4,2.5,4.2c0,2.8-1,4.2-2.5,4.2
			S-111.6,461.2-111.6,458.4z M-107.5,458.4c0-2.4-0.6-3.4-1.5-3.4s-1.5,1-1.5,3.4s0.6,3.4,1.5,3.4
			C-108.1,461.8-107.5,460.8-107.5,458.4z"/>
		<path id="XMLID_5960_" class="st3" d="M-99.7,458.4c-1.4,0.2-2.7,0.3-4.8,0.3h-0.8V454h4.7v0.7h-3.8v1.2h3.6v0.7h-3.6v1.3
			c2.1,0,3.2,0,4.6-0.3L-99.7,458.4z M-104.1,459.8h6.4v3.4h-6.4V459.8z M-103.3,462.4h4.6v-1.9h-4.6V462.4z M-97.7,453.4v5.9h-0.9
			v-5.9H-97.7z"/>
		<path id="XMLID_5955_" class="st3" d="M-96.1,460.3c1.8,0,4.3,0,6.5-0.3l0.1,0.7c-2.2,0.4-4.6,0.4-6.4,0.4L-96.1,460.3z
			 M-90.3,456.4c0,1.4-1.1,2.3-2.7,2.3c-1.5,0-2.7-1-2.7-2.3c0-1.4,1.1-2.3,2.7-2.3S-90.3,455-90.3,456.4z M-94.7,456.4
			c0,0.9,0.7,1.6,1.8,1.6c1,0,1.8-0.6,1.8-1.6c0-0.9-0.7-1.6-1.8-1.6C-93.9,454.8-94.7,455.5-94.7,456.4z M-88,453.3v9.9h-0.9v-9.9
			H-88z"/>
		<path id="XMLID_5950_" class="st3" d="M-70.8,458.9c-1.1-0.4-2-1.1-2.5-2.1c-0.4,1.1-1.3,1.9-2.5,2.3l-0.4-0.7
			c1.5-0.5,2.5-1.7,2.5-3v-0.2h-2.2v-0.7h2.2v-1.2h0.9v1.2h2.2v0.7h-2.2v0.2c0,1.2,1,2.3,2.5,2.8L-70.8,458.9z M-68,461.4
			c0,1.2-1.3,1.8-3.3,1.8s-3.3-0.7-3.3-1.8c0-1.2,1.3-1.8,3.3-1.8C-69.3,459.6-68,460.3-68,461.4z M-68.9,461.4
			c0-0.7-0.9-1.1-2.4-1.1s-2.4,0.4-2.4,1.1s0.9,1.1,2.4,1.1S-68.9,462.1-68.9,461.4z M-69,456.2v-2.8h0.9v6H-69V457h-2v-0.8H-69z"/>
		<path id="XMLID_5946_" class="st3" d="M-60.8,458.9c-1.6,0.3-2.9,0.4-4.4,0.4H-66v-5.2h0.9v4.4c1.4,0,2.7-0.1,4.1-0.4L-60.8,458.9
			z M-58.1,462.3v0.7h-6.6v-3h0.9v2.2h5.7V462.3z M-59.2,457.3H-62v-0.7h2.8v-1.2H-62v-0.7h2.8v-1.3h0.9v7.3h-0.9V457.3z"/>
		<path id="XMLID_5941_" class="st3" d="M-300.2,472.4c-1.1-0.4-2-1.1-2.4-2c-0.4,1-1.3,1.8-2.5,2.2l-0.4-0.7
			c1.5-0.5,2.5-1.6,2.5-2.9v-0.2h-2.2v-0.7h2.2v-1.2h0.8v1.2h2.2v0.7h-2.2v0.2c0,1.2,1,2.3,2.4,2.7L-300.2,472.4z M-304.1,473.3h6.2
			v3.5h-6.2V473.3z M-303.2,476h4.4v-2h-4.4V476z M-296.4,470.2h-1.5v2.6h-0.9v-5.9h0.9v2.5h1.5V470.2z"/>
		<path id="XMLID_5937_" class="st3" d="M-287.6,466.9v9.9h-0.9V473h-2.5c-0.4,1-1.2,1.6-2.1,1.6c-1.4,0-2.5-1.3-2.5-3.5
			c0-2.1,1-3.5,2.5-3.5c0.9,0,1.6,0.5,2.1,1.5h2.5v-2.2H-287.6z M-291.5,471.2c0-1.6-0.7-2.6-1.6-2.6c-1,0-1.6,1-1.6,2.6
			s0.7,2.7,1.6,2.7C-292.2,473.8-291.5,472.8-291.5,471.2z M-288.5,472.3v-2.4h-2.3c0.1,0.4,0.1,0.8,0.1,1.3c0,0.4,0,0.8-0.1,1.1
			L-288.5,472.3L-288.5,472.3z"/>
		<path id="XMLID_5934_" class="st3" d="M-282.7,470c0,1.6,1.1,3.3,2.6,4l-0.5,0.7c-1.1-0.6-2-1.7-2.5-3c-0.5,1.4-1.4,2.7-2.5,3.3
			l-0.5-0.7c1.4-0.7,2.6-2.6,2.6-4.3v-1.3h-2.3v-0.8h5.4v0.8h-2.2v1.3H-282.7z M-276.8,471.7h-1.6v5.2h-0.9V467h0.9v4h1.6V471.7z"/>
		<path id="XMLID_5930_" class="st3" d="M-267.4,471.1v0.7h-9v-0.7H-267.4z M-274.4,476h6.2v0.7h-7v-2.4h5.8v-1h-5.9v-0.7h6.7v2.3
			h-5.8C-274.4,474.9-274.4,476-274.4,476z M-268.4,470.3h-6.8v-3h6.6v0.7h-5.7v1.5h5.8L-268.4,470.3L-268.4,470.3z"/>
		<path id="XMLID_5926_" class="st3" d="M-263.7,473.9c1.1,0,2.2-0.1,3.2-0.2l0.1,0.7c-2.1,0.3-4.4,0.4-6.2,0.4l-0.1-0.8
			c0.6,0,1.4,0,2.1,0v-3.1h0.9V473.9z M-262.4,472.4c0.3-1.6,0.3-2.9,0.3-3.7h-4.1V468h5v0.5c0,0.8,0,2.1-0.3,3.9H-262.4z
			 M-257.4,471.9h-1.6v5h-0.9V467h0.9v4.1h1.6V471.9z"/>
		<path id="XMLID_5923_" class="st3" d="M-249.6,468c0,2.9-1.3,5.4-4.6,7l-0.5-0.7c2.7-1.3,4-3.2,4.2-5.5h-3.7v-0.7h4.6V468z
			 M-246.7,466.9v9.9h-0.9v-9.9H-246.7z"/>
		<path id="XMLID_5918_" class="st3" d="M-237,467v5.3h-0.9v-2.2h-2c-0.2,1.2-1.2,1.9-2.5,1.9c-1.5,0-2.6-0.9-2.6-2.3
			s1.1-2.3,2.6-2.3c1.3,0,2.3,0.8,2.5,1.9h2v-2.4h0.9V467z M-240.7,469.7c0-0.9-0.7-1.5-1.7-1.5s-1.7,0.6-1.7,1.5s0.7,1.5,1.7,1.5
			C-241.4,471.3-240.7,470.6-240.7,469.7z M-237.9,472.8h0.9v4h-6.3v-4h0.9v1.2h4.5V472.8z M-237.9,474.7h-4.5v1.3h4.5V474.7z"/>
		<path id="XMLID_5914_" class="st3" d="M-226.4,471.1v0.7h-9v-0.7H-226.4z M-233.4,476h6.1v0.7h-7v-2.4h5.8v-1h-5.9v-0.7h6.7v2.3
			h-5.8L-233.4,476L-233.4,476z M-227.5,470.3h-6.7v-3h6.6v0.7h-5.7v1.5h5.8L-227.5,470.3L-227.5,470.3z"/>
		<path id="XMLID_5910_" class="st3" d="M-220.3,471.2c0,2.1-1.1,3.5-2.5,3.5c-1.5,0-2.5-1.3-2.5-3.5c0-2.1,1.1-3.5,2.5-3.5
			C-221.3,467.7-220.3,469.1-220.3,471.2z M-224.4,471.2c0,1.6,0.7,2.7,1.7,2.7s1.6-1,1.6-2.7c0-1.6-0.7-2.6-1.6-2.6
			C-223.8,468.5-224.4,469.6-224.4,471.2z M-217.6,466.9v9.9h-0.9v-9.9H-217.6z"/>
		<path id="XMLID_5905_" class="st3" d="M-205.7,467v5.3h-0.9v-2.2h-2c-0.2,1.2-1.2,1.9-2.5,1.9c-1.5,0-2.6-0.9-2.6-2.3
			s1.1-2.3,2.6-2.3c1.3,0,2.3,0.8,2.5,1.9h2v-2.4h0.9V467z M-209.5,469.7c0-0.9-0.7-1.5-1.7-1.5s-1.7,0.6-1.7,1.5s0.7,1.5,1.7,1.5
			C-210.2,471.3-209.5,470.6-209.5,469.7z M-206.6,472.8h0.9v4h-6.3v-4h0.9v1.2h4.5L-206.6,472.8L-206.6,472.8z M-206.6,474.7h-4.6
			v1.3h4.5v-1.3H-206.6z"/>
		<path id="XMLID_5902_" class="st3" d="M-200.9,469.6c0,1.7,1.1,3.6,2.5,4.2l-0.6,0.7c-1.1-0.6-1.9-1.7-2.4-3.1
			c-0.4,1.4-1.3,2.7-2.5,3.3l-0.5-0.7c1.4-0.7,2.6-2.6,2.6-4.4v-1.8h0.9V469.6z M-194.9,471.7h-1.6v5.1h-0.9v-9.9h0.9v4h1.6V471.7z"
			/>
		<path id="XMLID_5898_" class="st3" d="M-189,471.2c0,2.1-1.1,3.5-2.5,3.5c-1.5,0-2.5-1.3-2.5-3.5c0-2.1,1.1-3.5,2.5-3.5
			C-190.1,467.7-189,469.1-189,471.2z M-193.2,471.2c0,1.6,0.7,2.7,1.7,2.7s1.6-1,1.6-2.7c0-1.6-0.7-2.6-1.6-2.6
			C-192.5,468.5-193.2,469.6-193.2,471.2z M-186.3,466.9v9.9h-0.9v-9.9H-186.3z"/>
		<path id="XMLID_5895_" class="st3" d="M-175.8,471v0.7h-8.9V471h6.7c0.1-0.5,0.2-0.9,0.2-1.3l-5.9,0.3l-0.1-0.7l6-0.2
			c0-0.3,0-0.6,0-0.9l0,0h-5.8v-0.8h6.7v0.8c0,0.8,0,1.7-0.2,2.8H-175.8z M-182.7,476h6.3v0.7h-7.2v-2.4h5.9v-0.9h-6v-0.7h6.8v2.3
			h-5.9L-182.7,476L-182.7,476z"/>
		<path id="XMLID_5890_" class="st3" d="M-174.9,473.9c1.8,0,4.3,0,6.5-0.3l0.1,0.7c-2.2,0.4-4.6,0.4-6.4,0.4L-174.9,473.9z
			 M-169.1,470c0,1.4-1.1,2.3-2.7,2.3c-1.5,0-2.7-1-2.7-2.3c0-1.4,1.1-2.3,2.7-2.3S-169.1,468.6-169.1,470z M-173.6,470
			c0,0.9,0.7,1.6,1.8,1.6c1,0,1.8-0.6,1.8-1.6c0-0.9-0.7-1.6-1.8-1.6C-172.8,468.5-173.6,469.1-173.6,470z M-166.9,466.9v9.9h-0.9
			v-9.9H-166.9z"/>
		<path id="XMLID_5886_" class="st3" d="M-158.1,467.9v6.4h-4.6v-6.4H-158.1z M-161.8,468.6v5h2.8v-5H-161.8z M-155.1,466.9v9.9
			h-0.9v-9.9H-155.1z"/>
		<path id="XMLID_5883_" class="st3" d="M-152.3,473.7c1.1,0,2.2-0.1,3.4-0.3l0.1,0.8c-1.4,0.2-2.5,0.3-3.7,0.3h-0.7v-3.7h2.8v-2
			h-2.8v-0.7h3.7v3.5h-2.8V473.7z M-145.1,466.9v9.9h-0.9v-5.3h-1.4v4.8h-0.8v-9.2h0.9v3.7h1.4v-3.9H-145.1z"/>
		<path id="XMLID_5879_" class="st3" d="M-134.8,471.6v0.7h-9v-0.7H-134.8z M-141.8,476.1h6.2v0.7h-7.1v-2.2h5.9v-0.8h-5.9v-0.7h6.8
			v2.1h-5.9V476.1z M-136.8,467.9h-5.8v-0.6h6.7v2.1h-5.8v0.9h6v0.7h-6.9v-2.1h5.8V467.9z"/>
		<path id="XMLID_5872_" class="st3" d="M-126.1,468.7h-5.9V468h2.5v-1.1h0.9v1.1h2.5V468.7z M-129.1,472.8c-1.4,0-2.4-0.7-2.4-1.8
			s1-1.8,2.4-1.8s2.4,0.7,2.4,1.8S-127.6,472.8-129.1,472.8z M-129.1,472.1c0.9,0,1.5-0.4,1.5-1.1s-0.6-1.1-1.5-1.1
			s-1.5,0.4-1.5,1.1C-130.6,471.6-130,472.1-129.1,472.1z M-130.5,473.5h6.2v3.3h-6.2V473.5z M-129.7,476h4.4v-1.8h-4.4V476z
			 M-122.8,470.3h-1.5v2.6h-0.9v-6h0.9v2.6h1.5V470.3z"/>
		<path id="XMLID_5868_" class="st3" d="M-119.9,468.1c0,2.1-0.3,4.5-1.7,6.4l-0.7-0.4c1.2-1.6,1.6-3.4,1.6-5.2h-1.4v-0.7h2.2V468.1
			z M-116.5,467.2h0.9v9.2h-0.9v-4.8h-1.4c-0.2,1.2-0.7,2.5-1.4,3.6l-0.7-0.4c1.3-1.8,1.6-4,1.6-5.9h-1.1v-0.7h1.9
			c0,0.8,0,1.7-0.1,2.7h1.3v-3.7H-116.5z M-113.8,466.9v9.9h-0.9v-9.9H-113.8z"/>
		<path id="XMLID_5865_" class="st3" d="M-101.5,474.7v0.7h-9v-0.7h3.5v-3.6h0.9v3.6H-101.5z M-103.5,468.7h-6.1V468h7v1
			c0,1.2,0,2.6-0.4,4.6l-0.9-0.1c0.4-1.9,0.4-3.3,0.4-4.5V468.7z"/>
		<path id="XMLID_5860_" class="st3" d="M-95.6,472.4h-4.6v-4.6h4.6V472.4z M-96.5,468.5h-2.9v3.2h2.9V468.5z M-92.4,475.8v0.7h-6.7
			v-3.1h0.9v2.4H-92.4z M-92.7,474.1h-0.9V467h0.9V474.1z"/>
		<path id="XMLID_5853_" class="st3" d="M-83.1,468.7H-89V468h2.5v-1.1h0.9v1.1h2.5V468.7z M-86.1,472.6c-1.4,0-2.4-0.7-2.4-1.7
			c0-1.1,1-1.7,2.4-1.7s2.4,0.7,2.4,1.7C-83.7,472-84.7,472.6-86.1,472.6z M-86.1,471.9c0.9,0,1.5-0.4,1.5-1.1
			c0-0.6-0.6-1.1-1.5-1.1s-1.5,0.4-1.5,1.1S-87,471.9-86.1,471.9z M-82.2,473.2h0.9v3.6h-6.2v-3.6h0.9v1.1h4.4L-82.2,473.2
			L-82.2,473.2z M-82.2,474.9h-4.4v1.1h4.4V474.9z M-79.9,470.2h-1.5v2.5h-0.8v-5.8h0.9v2.5h1.5v0.8H-79.9z"/>
		<path id="XMLID_5850_" class="st3" d="M-77.8,473.5c1.5,0,3-0.1,4.7-0.5l0.1,0.8c-1.7,0.4-3.3,0.5-4.9,0.5h-0.8v-6.4h0.9
			L-77.8,473.5L-77.8,473.5z M-71.2,466.9v9.9h-0.9v-9.9H-71.2z"/>
		<path id="XMLID_5847_" class="st3" d="M-68.2,473.6c1.8,0,3-0.1,4.5-0.3l0.1,0.8c-1.5,0.3-2.8,0.4-4.7,0.4h-0.9V468h4.6v0.8h-3.6
			V473.6z M-60.3,471.6h-1.6v5.3h-0.9V467h0.9v3.9h1.6V471.6z"/>
		<path id="XMLID_5845_" class="st3" d="M-59.6,475.4c0-0.5,0.3-0.8,0.7-0.8c0.4,0,0.7,0.3,0.7,0.8s-0.3,0.8-0.7,0.8
			S-59.6,475.9-59.6,475.4z"/>
	</g>
	<g id="XMLID_120_">
		<path id="XMLID_5840_" class="st3" d="M-300.1,498.9c0,2.5-1.7,4.3-4.6,5.1l-0.4-0.7c2.4-0.7,3.9-1.9,4-3.6h-3.6V499L-300.1,498.9
			L-300.1,498.9z M-303.9,504.6h6.4v3.7h-0.9v-2.9h-5.5V504.6z M-296,501.6h-1.5v2.6h-0.9v-5.8h0.9v2.5h1.5V501.6z"/>
		<path id="XMLID_5837_" class="st3" d="M-286,499.4c0,2.9-1.3,5.4-4.6,7l-0.5-0.7c2.7-1.3,4-3.2,4.2-5.5h-3.7v-0.8H-286z
			 M-283.1,498.3v9.9h-0.9v-9.9H-283.1z"/>
		<path id="XMLID_5832_" class="st3" d="M-272.9,498.3v5.3h-0.9v-2.2h-2c-0.2,1.2-1.2,1.9-2.5,1.9c-1.5,0-2.6-0.9-2.6-2.3
			s1.1-2.3,2.6-2.3c1.3,0,2.3,0.8,2.5,1.9h2v-2.4L-272.9,498.3L-272.9,498.3z M-276.6,501.1c0-0.9-0.7-1.5-1.7-1.5s-1.7,0.6-1.7,1.5
			s0.7,1.5,1.7,1.5C-277.4,502.6-276.6,502-276.6,501.1z M-273.8,504.1h0.9v4h-6.3v-4h0.9v1.2h4.5V504.1z M-273.8,506.1h-4.5v1.3
			h4.5V506.1z"/>
		<path id="XMLID_5828_" class="st3" d="M-261.9,506.2v0.8h-9v-0.8H-261.9z M-262.8,501.7c0,1.7-1.5,2.7-3.6,2.7
			c-2.1,0-3.6-1.1-3.6-2.7s1.5-2.7,3.6-2.7C-264.3,498.9-262.8,500-262.8,501.7z M-269.1,501.7c0,1.2,1.2,2,2.7,2
			c1.6,0,2.7-0.8,2.7-2s-1.2-2-2.7-2C-268,499.7-269.1,500.5-269.1,501.7z"/>
		<path id="XMLID_5826_" class="st3" d="M-251.7,506.3v0.7h-9v-0.7h4v-1.9h-2.9v-3.1h5.9v-1.5h-5.9v-0.7h6.8v3h-5.9v1.6h6.1v0.7
			h-3.2v1.9H-251.7z"/>
		<path id="XMLID_5823_" class="st3" d="M-247.1,500.9c0,1.8,1.1,3.6,2.6,4.3l-0.5,0.7c-1.1-0.6-2-1.7-2.5-3.1
			c-0.4,1.5-1.3,2.7-2.5,3.3l-0.6-0.7c1.4-0.7,2.6-2.6,2.6-4.5v-1.8h0.9V500.9z M-242.4,498.3v9.9h-0.9v-5.8h-2.3v-0.7h2.3v-3.4
			H-242.4z"/>
		<path id="XMLID_5821_" class="st3" d="M-240.4,508.9c0.7-0.3,1.1-0.8,1.1-1.5h-0.1c-0.4,0-0.7-0.2-0.7-0.7c0-0.4,0.4-0.7,0.8-0.7
			c0.5,0,0.9,0.5,0.9,1.2c0,1.1-0.6,1.9-1.6,2.3L-240.4,508.9z"/>
		<path id="XMLID_5816_" class="st3" d="M-225.4,498.3v5.3h-0.9v-2.2h-2c-0.2,1.2-1.2,1.9-2.5,1.9c-1.5,0-2.6-0.9-2.6-2.3
			s1.1-2.3,2.6-2.3c1.3,0,2.3,0.8,2.5,1.9h2v-2.4L-225.4,498.3L-225.4,498.3z M-229.2,501.1c0-0.9-0.7-1.5-1.7-1.5s-1.7,0.6-1.7,1.5
			s0.7,1.5,1.7,1.5S-229.2,502-229.2,501.1z M-226.3,504.1h0.9v4h-6.3v-4h0.9v1.2h4.5V504.1z M-226.3,506.1h-4.5v1.3h4.5V506.1z"/>
		<path id="XMLID_5813_" class="st3" d="M-220.1,501c0,1.7,1.1,3.6,2.5,4.2l-0.6,0.7c-1.1-0.6-1.9-1.7-2.4-3.1
			c-0.4,1.4-1.3,2.7-2.5,3.3l-0.5-0.7c1.4-0.7,2.6-2.6,2.6-4.4v-1.8h0.9V501z M-214.1,503.1h-1.6v5.1h-0.9v-9.9h0.9v4h1.6V503.1z"/>
		<path id="XMLID_5809_" class="st3" d="M-207.8,502.5c0,2.1-1.1,3.5-2.5,3.5c-1.5,0-2.5-1.3-2.5-3.5c0-2.1,1.1-3.5,2.5-3.5
			C-208.9,499.1-207.8,500.4-207.8,502.5z M-212,502.5c0,1.6,0.7,2.7,1.7,2.7s1.6-1,1.6-2.7c0-1.6-0.7-2.6-1.6-2.6
			C-211.3,499.9-212,500.9-212,502.5z M-205.1,498.3v9.9h-0.9v-9.9H-205.1z"/>
		<path id="XMLID_5806_" class="st3" d="M-194.1,502.4v0.7h-8.9v-0.7h6.7c0.1-0.5,0.2-0.9,0.2-1.3l-5.9,0.3l-0.1-0.7l6-0.2
			c0-0.3,0-0.6,0-0.9l0,0h-5.8v-0.7h6.7v0.8c0,0.8,0,1.7-0.2,2.8L-194.1,502.4L-194.1,502.4z M-201.1,507.4h6.3v0.7h-7.2v-2.4h5.9
			v-0.9h-6v-0.7h6.8v2.3h-5.9L-201.1,507.4L-201.1,507.4z"/>
		<path id="XMLID_5801_" class="st3" d="M-183.9,502.6v0.7h-9v-0.7H-183.9z M-191.9,500.2c0-1.1,1.3-1.7,3.5-1.7s3.5,0.6,3.5,1.7
			s-1.3,1.7-3.5,1.7S-191.9,501.3-191.9,500.2z M-190.9,507.4h6.1v0.7h-7v-2.4h5.8v-0.9h-5.9v-0.7h6.7v2.2h-5.8L-190.9,507.4
			L-190.9,507.4z M-191,500.2c0,0.7,0.9,1,2.6,1c1.6,0,2.6-0.4,2.6-1c0-0.7-0.9-1-2.6-1C-190,499.2-191,499.5-191,500.2z"/>
		<path id="XMLID_5797_" class="st3" d="M-170,503.6v0.7h-9v-0.7h4v-1h-2.9v-4h6.7v0.7h-5.8v0.9h5.5v0.7h-5.5v1h5.8v0.7h-3v1
			L-170,503.6L-170,503.6z M-171.1,506.6c0,1-1.2,1.6-3.4,1.6s-3.4-0.6-3.4-1.6s1.2-1.6,3.4-1.6C-172.3,505-171.1,505.6-171.1,506.6
			z M-172,506.6c0-0.6-0.9-0.9-2.5-0.9s-2.5,0.3-2.5,0.9s0.9,0.9,2.5,0.9S-172,507.2-172,506.6z"/>
		<path id="XMLID_5792_" class="st3" d="M-165.9,500h2v0.7h-4.9V500h2v-1.4h0.9V500z M-164.2,503.7c0,1.3-0.9,2.3-2.1,2.3
			s-2.1-0.9-2.1-2.3c0-1.3,0.9-2.3,2.1-2.3S-164.2,502.3-164.2,503.7z M-165,503.7c0-0.9-0.6-1.5-1.3-1.5c-0.8,0-1.3,0.6-1.3,1.5
			s0.5,1.5,1.3,1.5C-165.6,505.2-165,504.5-165,503.7z M-160.4,498.3v9.9h-0.9v-5h-1.3v4.5h-0.9v-9.2h0.9v4h1.3v-4.2L-160.4,498.3
			L-160.4,498.3z"/>
		<path id="XMLID_5786_" class="st3" d="M-148.6,504.5c-2.1,0.4-4.5,0.4-6.2,0.4l-0.1-0.7c0.8,0,1.7,0,2.6,0v-0.8
			c-1.1-0.1-1.9-0.7-1.9-1.5c0-0.9,0.9-1.5,2.3-1.5c1.4,0,2.3,0.6,2.3,1.5s-0.7,1.4-1.9,1.5v0.7c0.9,0,1.8-0.1,2.7-0.3L-148.6,504.5
			z M-149,500h-5.7v-0.7h2.4v-1h0.9v1h2.4L-149,500L-149,500z M-152.6,507.3h5.7v0.7h-6.6v-2.4h0.9L-152.6,507.3L-152.6,507.3z
			 M-151.8,502.8c0.9,0,1.4-0.3,1.4-0.9c0-0.5-0.6-0.9-1.4-0.9c-0.9,0-1.5,0.3-1.5,0.9C-153.3,502.4-152.7,502.8-151.8,502.8z
			 M-145.7,501.8v0.8h-1.5v3.6h-0.9v-7.8h0.9v3.5h1.5V501.8z"/>
		<path id="XMLID_5782_" class="st3" d="M-139.9,500.9c-0.6,1.6-2.1,2.8-4.3,3.4l-0.4-0.7c2.4-0.7,3.8-2,4-3.7h-3.5v-0.7h4.5
			c0,0.4,0,0.7-0.1,1.1h2.2v-1.8h0.9v5.9h-0.9v-1.3h-2.6v-0.7h2.6v-1.3h-2.4V500.9z M-136.5,506.3c0,1.2-1.3,1.9-3.3,1.9
			s-3.3-0.7-3.3-1.9c0-1.2,1.3-1.9,3.3-1.9S-136.5,505.1-136.5,506.3z M-137.4,506.3c0-0.7-0.9-1.2-2.4-1.2s-2.4,0.5-2.4,1.2
			c0,0.8,0.9,1.2,2.4,1.2C-138.3,507.5-137.4,507-137.4,506.3z"/>
		<path id="XMLID_5778_" class="st3" d="M-129,498.5h0.9v9.2h-0.9v-4.8h-1.2c-0.1,1.9-0.9,3.1-2.1,3.1c-1.3,0-2.1-1.3-2.1-3.5
			c0-2.1,0.8-3.4,2.1-3.4c1.2,0,2,1.2,2.1,3h1.2V498.5z M-131,502.6c0-1.6-0.5-2.6-1.3-2.6s-1.3,1-1.3,2.6s0.5,2.6,1.3,2.6
			C-131.5,505.2-131,504.2-131,502.6z M-126.1,498.3v9.9h-0.9v-9.9H-126.1z"/>
		<path id="XMLID_5774_" class="st3" d="M-111.6,502.6v0.7h-9v-0.7h6.6c0.3-1.3,0.3-2.2,0.3-3h-5.8v-0.7h6.7v0.7c0,0.8,0,1.7-0.3,3
			H-111.6z M-112.7,506.4c0,1.2-1.3,1.9-3.4,1.9c-2.1,0-3.4-0.7-3.4-1.9c0-1.2,1.3-1.9,3.4-1.9S-112.7,505.2-112.7,506.4z
			 M-113.6,506.4c0-0.7-1-1.1-2.5-1.1c-1.6,0-2.5,0.4-2.5,1.1s1,1.1,2.5,1.1S-113.6,507.1-113.6,506.4z"/>
		<path id="XMLID_5769_" class="st3" d="M-105.1,503.9c-1.1-0.4-2-1.2-2.4-2.2c-0.4,1.2-1.3,2.1-2.5,2.5l-0.5-0.7
			c1.5-0.5,2.5-1.9,2.5-3.3v-0.3h-2.2v-0.7h5.3v0.7h-2.2v0.3c0,1.3,1,2.5,2.4,3L-105.1,503.9z M-102.3,506.4c0,1.2-1.3,1.8-3.3,1.8
			s-3.3-0.7-3.3-1.8c0-1.2,1.3-1.8,3.3-1.8C-103.5,504.5-102.3,505.2-102.3,506.4z M-103.2,506.4c0-0.7-0.9-1.2-2.4-1.2
			s-2.4,0.4-2.4,1.2c0,0.7,0.9,1.1,2.4,1.1S-103.2,507.1-103.2,506.4z M-103.2,500.9v-2.6h0.9v5.9h-0.9v-2.6h-2v-0.7L-103.2,500.9
			L-103.2,500.9z"/>
		<path id="XMLID_5765_" class="st3" d="M-94.9,503.9c-1.1-0.4-2-1.2-2.4-2.2c-0.4,1.1-1.3,2-2.5,2.5l-0.5-0.7
			c1.5-0.5,2.5-1.8,2.5-3.3v-0.4h-2.2v-0.7h5.3v0.7h-2.2v0.4c0,1.3,1,2.5,2.4,3L-94.9,503.9z M-98.8,504.8h6.6v3.5h-0.9v-2.7h-5.7
			V504.8z M-92.1,498.3v5.9H-93v-2.6h-1.9v-0.7h1.9v-2.6L-92.1,498.3L-92.1,498.3z"/>
		<path id="XMLID_5760_" class="st3" d="M-77.4,506.4v0.7h-9v-0.7h2.4v-1.8c-0.7-0.3-1.1-0.8-1.1-1.5c0-1.2,1.2-1.9,3.3-1.9
			c2,0,3.2,0.7,3.2,1.9c0,0.7-0.4,1.2-1.1,1.5v1.8H-77.4z M-77.9,500.5H-86v-0.7h3.6v-1.3h0.9v1.3h3.6V500.5z M-84.3,503
			c0,0.7,0.9,1.1,2.3,1.1s2.3-0.4,2.3-1.1s-0.9-1.2-2.3-1.2C-83.4,501.9-84.3,502.3-84.3,503z M-83.1,506.4h2.4v-1.6
			c-0.4,0.1-0.8,0.1-1.2,0.1c-0.5,0-0.9,0-1.2-0.1L-83.1,506.4L-83.1,506.4z"/>
		<path id="XMLID_5756_" class="st3" d="M-73.3,505.3c1.1,0,2.2-0.1,3.2-0.2l0.1,0.7c-2.1,0.3-4.4,0.4-6.2,0.4l-0.1-0.8
			c0.6,0,1.4,0,2.1,0v-3.1h0.9V505.3z M-72,503.8c0.3-1.6,0.3-2.9,0.3-3.7h-4.1v-0.7h5v0.5c0,0.8,0,2.1-0.3,3.9H-72z M-67,503.2
			h-1.6v5h-0.9v-9.9h0.9v4.1h1.6V503.2z"/>
		<path id="XMLID_5752_" class="st3" d="M-57.1,502.9v0.7h-9v-0.7H-57.1z M-64.1,507.4h6.2v0.7H-65v-2.2h5.9v-0.8H-65v-0.7h6.8v2.1
			h-5.9V507.4z M-59.1,499.2h-5.8v-0.6h6.7v2.1H-64v0.9h6v0.7h-6.9v-2.1h5.8L-59.1,499.2L-59.1,499.2z"/>
		<path id="XMLID_5749_" class="st3" d="M-300.1,512.7c0,2.8-1.3,5.4-4.5,7l-0.5-0.7c2.5-1.3,3.9-3.2,4.1-5.5h-3.6v-0.8H-300.1z
			 M-295.9,516.4h-1.6v5.1h-0.9v-9.9h0.9v4h1.6V516.4z"/>
		<path id="XMLID_5746_" class="st3" d="M-291.5,514.5c0,1.6,1.2,3.4,2.6,4.2l-0.5,0.7c-1.1-0.6-2-1.8-2.5-3.2
			c-0.4,1.5-1.4,2.8-2.5,3.4l-0.6-0.7c1.4-0.7,2.6-2.6,2.6-4.4v-1.1h-2.2v-0.7h5.4v0.7h-2.2v1.1H-291.5z M-286.8,511.6v9.9h-0.9
			v-4.3h-2v-0.8h2V515h-2v-0.6h2v-2.8H-286.8z"/>
		<path id="XMLID_5743_" class="st3" d="M-275.8,519.5v0.8h-9v-0.8h4v-2.1c-1.8-0.1-3.2-1.1-3.2-2.6c0-1.6,1.5-2.6,3.6-2.6
			c2.1,0,3.6,1,3.6,2.6c0,1.5-1.3,2.4-3.1,2.6v2.1H-275.8z M-280.3,516.8c1.6,0,2.7-0.7,2.7-1.9c0-1.1-1.2-1.9-2.7-1.9
			s-2.7,0.7-2.7,1.9C-283,516-281.9,516.8-280.3,516.8z"/>
		<path id="XMLID_5739_" class="st3" d="M-265.6,516.7v0.7h-9v-0.7H-265.6z M-272.6,520.6h6v0.7h-6.9v-2.9h0.9V520.6z M-266.7,515.4
			h-6.7V512h0.9v2.6h5.8C-266.7,514.6-266.7,515.4-266.7,515.4z"/>
		<path id="XMLID_5734_" class="st3" d="M-258.9,516.4c-1.5,0-2.6-0.9-2.6-2.2s1.1-2.2,2.6-2.2s2.6,0.9,2.6,2.2
			C-256.3,515.5-257.4,516.4-258.9,516.4z M-258.9,515.7c1,0,1.7-0.6,1.7-1.5c0-0.9-0.7-1.5-1.7-1.5s-1.7,0.6-1.7,1.5
			C-260.5,515-259.8,515.7-258.9,515.7z M-253.2,520.7v0.7h-6.7v-2.5h5.5v-1h-5.5v-0.7h6.4v2.4h-5.5v1.1H-253.2z M-253.5,516.7h-0.9
			v-5.1h0.9V516.7z"/>
		<path id="XMLID_5729_" class="st3" d="M-242.5,516.9v0.7h-9v-0.7H-242.5z M-250.5,514c0-1.2,1.4-2,3.5-2c2.1,0,3.5,0.7,3.5,2
			c0,1.2-1.4,2-3.5,2C-249.1,515.9-250.5,515.2-250.5,514z M-249.4,520.6h5.9v0.7h-6.8v-2.9h0.9V520.6z M-249.5,514
			c0,0.8,1,1.2,2.6,1.2c1.6,0,2.6-0.5,2.6-1.2c0-0.8-1-1.2-2.6-1.2C-248.5,512.7-249.5,513.2-249.5,514z"/>
		<path id="XMLID_5725_" class="st3" d="M-233.6,516.5v1h2.9v2.2h-5.8v1h6.1v0.7h-7V519h5.8v-0.9h-5.9v-0.7h3v-1h-4v-0.7h9v0.7
			L-233.6,516.5L-233.6,516.5z M-230.7,515h-6.6v-3h6.6V515z M-231.6,512.7h-4.9v1.6h4.9V512.7z"/>
		<path id="XMLID_5722_" class="st3" d="M-219.3,517.3v0.7h-9v-0.7h4v-1.1h-2.9v-2.5h5.8v-1.1h-5.8v-0.7h6.7v2.5h-5.8v1.1h6v0.7
			h-3.1v1.1H-219.3z M-226.2,520.7h6v0.7h-7v-2.7h0.9v2H-226.2z"/>
		<path id="XMLID_5720_" class="st3" d="M-218.2,522.2c0.7-0.3,1.1-0.8,1.1-1.5h-0.1c-0.4,0-0.7-0.2-0.7-0.7c0-0.4,0.4-0.7,0.8-0.7
			c0.5,0,0.9,0.5,0.9,1.2c0,1.1-0.6,1.9-1.6,2.3L-218.2,522.2z"/>
		<path id="XMLID_5716_" class="st3" d="M-206.9,515.9c0,2.1-1.1,3.5-2.5,3.5c-1.5,0-2.5-1.3-2.5-3.5c0-2.1,1.1-3.5,2.5-3.5
			C-207.9,512.4-206.9,513.7-206.9,515.9z M-211.1,515.9c0,1.6,0.7,2.7,1.7,2.7s1.6-1,1.6-2.7c0-1.6-0.7-2.6-1.6-2.6
			C-210.4,513.2-211.1,514.3-211.1,515.9z M-204.2,511.6v9.9h-0.9v-9.9H-204.2z"/>
		<path id="XMLID_5712_" class="st3" d="M-196.4,517.3c-1.4,0.2-2.6,0.3-4.5,0.3h-0.8v-3h3.5v-1.5h-3.5v-0.7h4.4v2.9h-3.5v1.6
			c1.8,0,3-0.1,4.3-0.3L-196.4,517.3z M-193.6,520.6v0.7h-6.7v-3h0.9v2.2L-193.6,520.6L-193.6,520.6z M-194.9,515h-1.8v-0.8h1.8
			v-2.6h0.9v7.3h-0.9V515z"/>
		<path id="XMLID_5707_" class="st3" d="M-180.1,519.7v0.7h-9v-0.7h2.4v-1.8c-0.7-0.3-1.1-0.8-1.1-1.5c0-1.2,1.2-1.9,3.3-1.9
			c2,0,3.2,0.7,3.2,1.9c0,0.7-0.4,1.2-1.1,1.5v1.8H-180.1z M-180.6,513.8h-8.1v-0.7h3.6v-1.3h0.9v1.3h3.6V513.8z M-187,516.3
			c0,0.7,0.9,1.1,2.3,1.1c1.4,0,2.3-0.4,2.3-1.1s-0.9-1.2-2.3-1.2C-186.1,515.2-187,515.6-187,516.3z M-185.9,519.7h2.4v-1.6
			c-0.4,0.1-0.8,0.1-1.2,0.1c-0.5,0-0.9,0-1.2-0.1V519.7z"/>
		<path id="XMLID_5703_" class="st3" d="M-176.1,518.6c1.1,0,2.2-0.1,3.2-0.2l0.1,0.7c-2.1,0.3-4.4,0.4-6.2,0.4l-0.1-0.8
			c0.6,0,1.4,0,2.1,0v-3.1h0.9V518.6z M-174.7,517.1c0.3-1.6,0.3-2.9,0.3-3.7h-4.1v-0.7h5v0.5c0,0.8,0,2.1-0.3,3.9L-174.7,517.1z
			 M-169.8,516.5h-1.6v5h-0.9v-9.9h0.9v4.1h1.6V516.5z"/>
		<path id="XMLID_5699_" class="st3" d="M-159.8,515.8v0.7h-9v-0.7H-159.8z M-166.8,520.7h6.1v0.7h-7V519h5.8v-1h-5.9v-0.6h6.7v2.3
			h-5.8L-166.8,520.7L-166.8,520.7z M-160.9,515h-6.7v-3h6.6v0.7h-5.7v1.5h5.8L-160.9,515L-160.9,515z"/>
		<path id="XMLID_5695_" class="st3" d="M-153.2,515.9c0,2.1-1.1,3.5-2.5,3.5c-1.5,0-2.5-1.3-2.5-3.5c0-2.1,1.1-3.5,2.5-3.5
			S-153.2,513.7-153.2,515.9z M-157.4,515.9c0,1.6,0.7,2.7,1.7,2.7s1.6-1,1.6-2.7c0-1.6-0.7-2.6-1.6-2.6
			C-156.7,513.2-157.4,514.3-157.4,515.9z M-150.5,511.6v9.9h-0.9v-9.9H-150.5z"/>
		<path id="XMLID_5692_" class="st3" d="M-136.7,515.8v0.7h-9v-0.7h6.7c0.3-1.3,0.3-2.2,0.3-3h-5.8v-0.7h6.7v0.7c0,0.8,0,1.7-0.3,3
			H-136.7z M-144.7,518h6.9v3.6h-0.9v-2.8h-6V518z"/>
		<path id="XMLID_5689_" class="st3" d="M-134.2,518.4c1.3,0,2.3-0.1,3.4-0.3l0.1,0.8c-1.2,0.3-2.2,0.3-3.7,0.3h-0.7v-6.3h3.7v0.7
			h-2.8V518.4z M-127.1,511.6v9.9h-0.9v-5.1h-1.4v4.7h-0.8v-9.2h0.9v3.8h1.4v-4L-127.1,511.6L-127.1,511.6z"/>
		<path id="XMLID_5684_" class="st3" d="M-121.8,518.8c0.9,0,1.8-0.1,2.7-0.2l0.1,0.7c-2.1,0.4-4.5,0.4-6.2,0.4l-0.1-0.8
			c0.8,0,1.7,0,2.7,0v-1.1c-1.1-0.1-1.9-0.8-1.9-1.8c0-1.1,1-1.8,2.3-1.8c1.4,0,2.3,0.7,2.3,1.8c0,1-0.8,1.7-1.9,1.8L-121.8,518.8
			L-121.8,518.8z M-119.3,513.6h-5.9v-0.7h2.5v-1.2h0.9v1.2h2.5V513.6z M-122.3,517.1c0.9,0,1.5-0.4,1.5-1.1s-0.6-1.1-1.5-1.1
			s-1.5,0.5-1.5,1.1C-123.8,516.7-123.2,517.1-122.3,517.1z M-116.1,516.6h-1.5v4.9h-0.9v-9.9h0.9v4.2h1.5V516.6z"/>
		<path id="XMLID_5680_" class="st3" d="M-105.8,516.4c-2.1,0.3-4.5,0.4-6.3,0.4l-0.1-0.7c0.9,0,1.8,0,2.8,0v-1h-1.9v-2.9h4.7v0.7
			h-3.7v1.5h3.8v0.7h-2v1c0.9,0,1.8-0.1,2.7-0.2V516.4z M-103.9,520.7v0.7h-6.9V519h5.6v-0.9h-5.7v-0.7h6.5v2.3h-5.6v1H-103.9z
			 M-104.2,517h-0.9v-5.3h0.9V517z"/>
		<path id="XMLID_5677_" class="st3" d="M-90.4,518h-4.1v3.6h-0.9V518h-4v-0.8h9V518z M-91.2,516.1c-1.5-0.3-3-1.1-3.7-2.3
			c-0.6,1.2-2.1,2.1-3.7,2.3l-0.4-0.7c1.8-0.3,3.6-1.5,3.6-2.9v-0.6h1v0.6c0,1.4,1.8,2.6,3.6,2.9L-91.2,516.1z"/>
		<path id="XMLID_5672_" class="st3" d="M-86.2,514.5c0-1.4,1.1-2.3,2.6-2.3s2.6,0.9,2.6,2.3c0,1.4-1.1,2.3-2.6,2.3
			S-86.2,515.9-86.2,514.5z M-79.4,518.3c0,1,0.7,2,2,2.5l-0.5,0.7c-1-0.4-1.7-1-2-1.9c-0.3,0.8-0.9,1.6-1.8,2
			c-1-0.4-1.5-1.1-1.8-1.9c-0.4,0.8-1,1.5-2,1.8l-0.5-0.7c1.2-0.4,2-1.5,2-2.5v-0.5h0.9v0.5c0,0.9,0.5,1.8,1.4,2.4
			c1-0.6,1.4-1.6,1.4-2.4v-0.5h0.9V518.3z M-85.3,514.5c0,0.9,0.7,1.6,1.7,1.6s1.7-0.6,1.7-1.6c0-0.9-0.7-1.6-1.7-1.6
			C-84.6,513-85.3,513.6-85.3,514.5z M-78.3,517.3h-0.9v-5.7h0.9V517.3z"/>
		<path id="XMLID_5670_" class="st3" d="M-67.2,519.6v0.8h-9v-0.8h4v-2.5h-2.9v-4.7h6.7v0.7h-5.8v3.1h5.9v0.7h-3v2.5h4.1V519.6z"/>
		<path id="XMLID_5667_" class="st3" d="M-57.1,517.1v0.7h-9v-0.7h4v-1H-65v-2.4h5.8v-1H-65V512h6.7v2.4h-5.8v1h6v0.7h-3.1v1H-57.1z
			 M-65.1,518.6h6.9v2.9h-0.9v-2.1h-6V518.6z"/>
		<path id="XMLID_5662_" class="st3" d="M-296.9,525v5.3h-0.9v-2.2h-2c-0.2,1.2-1.2,1.9-2.5,1.9c-1.5,0-2.6-0.9-2.6-2.3
			c0-1.4,1.1-2.3,2.6-2.3c1.3,0,2.3,0.8,2.5,1.9h2v-2.4L-296.9,525L-296.9,525z M-300.7,527.7c0-0.9-0.7-1.5-1.7-1.5
			s-1.7,0.6-1.7,1.5c0,0.9,0.7,1.5,1.7,1.5C-301.4,529.3-300.7,528.6-300.7,527.7z M-297.9,530.8h0.9v4h-6.3v-4h0.9v1.2h4.5
			C-297.9,532-297.9,530.8-297.9,530.8z M-297.9,532.7h-4.5v1.3h4.5V532.7z"/>
		<path id="XMLID_5659_" class="st3" d="M-291.6,527.6c0,1.7,1.1,3.6,2.5,4.2l-0.6,0.7c-1.1-0.6-1.9-1.7-2.4-3.1
			c-0.4,1.4-1.3,2.7-2.5,3.3l-0.5-0.7c1.4-0.7,2.6-2.6,2.6-4.4v-1.8h0.9V527.6z M-285.7,529.7h-1.6v5.1h-0.9v-9.9h0.9v4h1.6V529.7z"
			/>
		<path id="XMLID_5655_" class="st3" d="M-279.4,529.2c0,2.1-1.1,3.5-2.5,3.5c-1.5,0-2.5-1.3-2.5-3.5c0-2.1,1.1-3.5,2.5-3.5
			C-280.4,525.7-279.4,527.1-279.4,529.2z M-283.6,529.2c0,1.6,0.7,2.7,1.7,2.7s1.6-1,1.6-2.7c0-1.6-0.7-2.6-1.6-2.6
			C-282.9,526.5-283.6,527.6-283.6,529.2z M-276.7,525v9.9h-0.9V525H-276.7z"/>
		<path id="XMLID_5652_" class="st3" d="M-265.6,529v0.7h-8.9V529h6.7c0.1-0.5,0.2-0.9,0.2-1.3l-5.9,0.3l-0.1-0.7l6-0.2
			c0-0.3,0-0.6,0-0.9l0,0h-5.8v-0.8h6.7v0.8c0,0.8,0,1.7-0.2,2.8H-265.6L-265.6,529z M-272.6,534h6.3v0.7h-7.2v-2.4h5.9v-0.9h-6
			v-0.7h6.8v2.3h-5.9v1H-272.6z"/>
		<path id="XMLID_5648_" class="st3" d="M-254.9,530.7c-1.1-0.4-2-1.2-2.4-2.3c-0.4,1.2-1.3,2.1-2.5,2.5l-0.5-0.7
			c1.5-0.5,2.5-1.9,2.5-3.4v-1.2h0.9v1.2c0,1.4,1,2.6,2.4,3.1L-254.9,530.7z M-257.7,533.9h5.7v0.7h-6.6v-3.1h0.9V533.9z M-251,528
			v0.8h-1.5v3.5h-0.9V525h0.9v3.1h1.5V528z"/>
		<path id="XMLID_5643_" class="st3" d="M-241.8,525v5.3h-0.9v-2.2h-2c-0.2,1.2-1.2,1.9-2.5,1.9c-1.5,0-2.6-0.9-2.6-2.3
			c0-1.4,1.1-2.3,2.6-2.3c1.3,0,2.3,0.8,2.5,1.9h2v-2.4L-241.8,525L-241.8,525z M-245.6,527.7c0-0.9-0.7-1.5-1.7-1.5
			s-1.7,0.6-1.7,1.5c0,0.9,0.7,1.5,1.7,1.5S-245.6,528.6-245.6,527.7z M-242.8,530.8h0.9v4h-6.3v-4h0.9v1.2h4.5V530.8z
			 M-242.8,532.7h-4.5v1.3h4.5V532.7z"/>
		<path id="XMLID_5638_" class="st3" d="M-239.8,532c1.8,0,4.3,0,6.5-0.3l0.1,0.7c-2.2,0.4-4.6,0.4-6.4,0.4L-239.8,532z M-234,528
			c0,1.4-1.1,2.3-2.7,2.3c-1.5,0-2.7-1-2.7-2.3c0-1.4,1.1-2.3,2.7-2.3C-235.1,525.7-234,526.6-234,528z M-238.4,528
			c0,0.9,0.7,1.6,1.8,1.6c1,0,1.8-0.6,1.8-1.6c0-0.9-0.7-1.6-1.8-1.6C-237.7,526.5-238.4,527.1-238.4,528z M-231.8,525v9.9h-0.9V525
			H-231.8z"/>
		<path id="XMLID_5633_" class="st3" d="M-221,530.3c-0.9-0.4-1.6-1.1-2-1.9c-0.4,0.9-1.1,1.8-2,2.2l-0.5-0.7c1.3-0.6,2.1-1.9,2.1-3
			v-1.3h0.9v1.3c0,1.1,0.7,2.2,2,2.7L-221,530.3z M-217,533.1c0,1.1-1.3,1.8-3.3,1.8s-3.3-0.7-3.3-1.8c0-1.1,1.3-1.8,3.3-1.8
			C-218.3,531.3-217,532-217,533.1z M-217.9,533.1c0-0.7-0.9-1.1-2.4-1.1s-2.4,0.4-2.4,1.1s0.9,1.1,2.4,1.1
			C-218.8,534.2-217.9,533.8-217.9,533.1z M-219.2,530.8h-0.9v-5.6h0.9v2.5h1.3V525h0.9v6.1h-0.9v-2.7h-1.3V530.8z"/>
		<path id="XMLID_5630_" class="st3" d="M-214,531.7c1.4,0,2.3,0,3.4-0.3l0.1,0.8c-1.2,0.2-2.1,0.3-3.7,0.3h-0.7v-6.3h3.9v0.7h-3
			v1.9h2.9v0.7h-2.9V531.7z M-206.8,525v9.9h-0.9v-5.2h-1.3v4.7h-0.9v-9.2h0.9v3.8h1.3v-4H-206.8L-206.8,525z"/>
		<path id="XMLID_5627_" class="st3" d="M-199.5,525.2h0.9v9.1h-0.9v-3.4h-1.8v-0.7h1.8v-1.8h-1.7c-0.5,1.7-1.5,3.2-3.4,4.3
			l-0.5-0.6c2.1-1.3,3.2-3.1,3.4-5.1h-2.9v-0.7h3.8c0,0.5,0,1-0.1,1.5h1.5v-2.6H-199.5z M-196.7,525v9.9h-0.9V525H-196.7z"/>
		<path id="XMLID_5623_" class="st3" d="M-185.9,529.6v0.7h-9v-0.7H-185.9z M-192.9,534.1h6.2v0.7h-7.1v-2.2h5.9v-0.8h-5.9v-0.7h6.8
			v2.1h-5.9V534.1z M-188,525.9h-5.8v-0.6h6.7v2.1h-5.8v0.9h6v0.7h-6.9v-2.1h5.8V525.9z"/>
		<path id="XMLID_5618_" class="st3" d="M-175.5,530.4h-4.6v-4.6h4.6V530.4z M-176.4,526.6h-2.8v3.1h2.8V526.6z M-178.1,533.9h5.7
			v0.7h-6.6v-3.1h0.9L-178.1,533.9L-178.1,533.9z M-171.3,528v0.8h-1.5v3.5h-0.9V525h0.9v3H-171.3z"/>
		<path id="XMLID_5614_" class="st3" d="M-161.4,529.1v0.7h-9v-0.7H-161.4z M-168.3,534h6.1v0.7h-7v-2.3h5.8v-1h-5.9v-0.7h6.7v2.3
			h-5.8L-168.3,534L-168.3,534z M-162.4,528.3h-6.7v-3h6.6v0.7h-5.7v1.5h5.8V528.3z"/>
		<path id="XMLID_5611_" class="st3" d="M-152,525v9.9h-0.9v-5.4h-2.2c-0.1,1.9-1.1,3.2-2.5,3.2s-2.5-1.3-2.5-3.5
			c0-2.1,1-3.5,2.5-3.5c1.3,0,2.3,1.2,2.5,3h2.2v-3.8L-152,525L-152,525z M-155.9,529.2c0-1.6-0.7-2.6-1.6-2.6c-1,0-1.6,1-1.6,2.6
			c0,1.6,0.7,2.7,1.6,2.7C-156.6,531.8-155.9,530.8-155.9,529.2z"/>
		<path id="XMLID_4027_" class="st3" d="M-144.9,526c0,2.8-1.3,5.4-4.5,7l-0.5-0.7c2.5-1.3,3.9-3.2,4.1-5.5h-3.6V526H-144.9z
			 M-140.8,529.7h-1.6v5.1h-0.9v-9.9h0.9v4h1.6V529.7z"/>
		<path id="XMLID_4023_" class="st3" d="M-130.8,530v0.7h-9V530H-130.8z M-137.8,533.9h6v0.7h-6.9v-2.9h0.9V533.9z M-131.9,528.7
			h-6.7v-3.4h0.9v2.6h5.8V528.7z"/>
		<path id="XMLID_4018_" class="st3" d="M-122.6,529.7c-1.5,0-2.6-0.9-2.6-2.2s1.1-2.2,2.6-2.2s2.6,0.9,2.6,2.2
			C-120.1,528.8-121.1,529.7-122.6,529.7z M-122.6,529c1,0,1.7-0.6,1.7-1.5c0-0.9-0.7-1.5-1.7-1.5s-1.7,0.6-1.7,1.5
			C-124.3,528.4-123.6,529-122.6,529z M-116.9,534v0.7h-6.7v-2.5h5.5v-1h-5.5v-0.7h6.4v2.4h-5.5v1.1H-116.9z M-117.3,530h-0.9v-5.1
			h0.9V530z"/>
		<path id="XMLID_4013_" class="st3" d="M-106.3,529.2v0.7h-9v-0.7H-106.3z M-114.2,526.8c0-1.1,1.3-1.7,3.5-1.7s3.5,0.6,3.5,1.7
			c0,1.1-1.3,1.7-3.5,1.7S-114.2,528-114.2,526.8z M-113.2,534.1h6.1v0.7h-7v-2.4h5.8v-0.9h-5.9v-0.7h6.7v2.2h-5.7V534.1z
			 M-113.3,526.8c0,0.7,0.9,1,2.6,1c1.6,0,2.6-0.4,2.6-1c0-0.7-0.9-1-2.6-1C-112.4,525.8-113.3,526.2-113.3,526.8z"/>
		<path id="XMLID_3398_" class="st3" d="M-94.9,526.7h-5.9V526h2.5v-1.1h0.9v1.1h2.5V526.7z M-97.9,530.8c-1.4,0-2.4-0.7-2.4-1.8
			s1-1.8,2.4-1.8s2.4,0.7,2.4,1.8C-95.5,530.1-96.4,530.8-97.9,530.8z M-97.9,530.1c0.9,0,1.5-0.4,1.5-1.1s-0.6-1.1-1.5-1.1
			s-1.5,0.4-1.5,1.1S-98.8,530.1-97.9,530.1z M-99.3,531.5h6.2v3.3h-6.2V531.5z M-98.5,534h4.4v-1.8h-4.4V534z M-91.6,528.4h-1.5
			v2.6H-94v-6h0.9v2.6h1.5V528.4z"/>
		<path id="XMLID_3394_" class="st3" d="M-88.2,526.1c0,2.1-0.3,4.5-1.7,6.4l-0.7-0.4c1.2-1.6,1.6-3.4,1.6-5.2h-1.4v-0.7
			L-88.2,526.1L-88.2,526.1z M-84.9,525.2h0.9v9.2h-0.9v-4.8h-1.4c-0.2,1.2-0.7,2.5-1.4,3.6l-0.7-0.4c1.3-1.8,1.6-4,1.6-5.9h-1.1
			v-0.7h1.9c0,0.8,0,1.7-0.1,2.7h1.3L-84.9,525.2L-84.9,525.2z M-82.2,525v9.9h-0.9V525H-82.2z"/>
		<path id="XMLID_3389_" class="st3" d="M-72.9,526.5h2.4v0.7h-5.9v-0.7h2.5V525h0.9v1.5H-72.9z M-70.9,530.4c0,1.3-1,2.3-2.4,2.3
			s-2.4-0.9-2.4-2.3c0-1.3,1-2.3,2.4-2.3S-70.9,529-70.9,530.4z M-71.8,530.4c0-0.9-0.7-1.5-1.6-1.5s-1.5,0.6-1.5,1.5
			c0,0.9,0.7,1.5,1.5,1.5C-72.4,531.9-71.8,531.3-71.8,530.4z M-67,529.8h-1.6v5.1h-0.9V525h0.9v4.1h1.6V529.8z"/>
		<path id="XMLID_3386_" class="st3" d="M-57.1,532.7v0.7h-9v-0.7h3.5v-3.6h0.9v3.6H-57.1z M-59.1,526.7h-6.1V526h7v1
			c0,1.2,0,2.6-0.4,4.6l-0.9-0.1c0.4-1.9,0.4-3.3,0.4-4.5V526.7z"/>
		<path id="XMLID_3381_" class="st3" d="M-304.9,541.2c0-1.4,1.1-2.3,2.6-2.3s2.6,0.9,2.6,2.3c0,1.4-1.1,2.3-2.6,2.3
			S-304.9,542.5-304.9,541.2z M-298.1,544.9c0,1,0.7,2,2,2.5l-0.5,0.7c-1-0.4-1.7-1-2-1.9c-0.3,0.8-0.9,1.6-1.8,2
			c-1-0.4-1.5-1.1-1.8-1.9c-0.4,0.8-1,1.5-2,1.8l-0.5-0.7c1.2-0.4,2-1.5,2-2.5v-0.5h0.9v0.5c0,0.9,0.5,1.8,1.4,2.4
			c1-0.6,1.4-1.6,1.4-2.4v-0.5h0.9C-298.1,544.4-298.1,544.9-298.1,544.9z M-304,541.2c0,0.9,0.7,1.6,1.7,1.6s1.7-0.6,1.7-1.6
			c0-0.9-0.7-1.6-1.7-1.6C-303.3,539.6-304,540.3-304,541.2z M-297,544h-0.9v-5.7h0.9V544z"/>
		<path id="XMLID_3376_" class="st3" d="M-286,542.8v0.7h-9v-0.7H-286z M-286.8,542.1c-1.5-0.2-3-1-3.6-2.1
			c-0.6,1.1-2.1,1.9-3.7,2.1l-0.3-0.7c1.8-0.2,3.5-1.3,3.5-2.5v-0.5h0.9v0.4c0,1.2,1.7,2.3,3.5,2.5L-286.8,542.1z M-288,544.2h0.8
			v3.8h-6.7v-3.8h0.9v1.2h4.9L-288,544.2L-288,544.2z M-288,546.1h-4.9v1.3h4.9V546.1z"/>
		<path id="XMLID_3373_" class="st3" d="M-283.3,544.9c1.5,0,3-0.1,4.7-0.5l0.1,0.8c-1.7,0.4-3.3,0.5-4.9,0.5h-0.8v-6.4h0.9V544.9z
			 M-276.6,538.3v9.9h-0.9v-9.9H-276.6z"/>
		<path id="XMLID_3370_" class="st3" d="M-273.3,545c1.8,0,3-0.1,4.5-0.3l0.1,0.8c-1.5,0.3-2.8,0.4-4.7,0.4h-0.8v-6.5h4.6v0.8h-3.7
			V545z M-265.3,542.9h-1.6v5.3h-0.9v-9.9h0.9v3.9h1.6V542.9z"/>
		<path id="XMLID_119_" class="st3" d="M-264.2,546.8c0-0.5,0.3-0.8,0.7-0.8s0.7,0.3,0.7,0.8s-0.3,0.8-0.7,0.8
			S-264.2,547.2-264.2,546.8z"/>
	</g>
</g>
<g id="XMLID_11322_">
	<pattern  id="XMLID_62_" xlink:href="#XMLID_453_" patternTransform="matrix(1 0 0 -1 -199.4588 -18708.6328)">
	</pattern>
	<rect id="XMLID_11401_" x="-363.8" y="232.4" class="st4" width="358.7" height="378.5"/>
</g>
<g id="Guides_For_Artboard_1_">
</g>
<g id="Guides_For_Artboard">
</g>
</svg>
