<?xml version="1.0" encoding="utf-8"?>
<!-- Generator: Adobe Illustrator 19.0.0, SVG Export Plug-In . SVG Version: 6.00 Build 0)  -->
<svg version="1.1" id="Layer_1" xmlns="http://www.w3.org/2000/svg" xmlns:xlink="http://www.w3.org/1999/xlink" x="0px" y="0px"
	 viewBox="-424 279.4 283.5 283.5" style="enable-background:new -424 279.4 283.5 283.5;" xml:space="preserve">
<style type="text/css">
	.st0{fill:none; stroke:rgb(255, 255, 255); stroke-width:5.6693;stroke-linecap:round;stroke-linejoin:round;stroke-miterlimit:10;}
</style>
<g id="XMLID_32_">
	<path id="XMLID_33_" class="st0" d="M-211.4,350.3h-141.7V492h60.5v-66.2H-305v-17.6h12.4v-6.4c0-7.1,0.8-12.5,2.3-16
		s4.3-6.4,8.3-8.6c4-2.2,9.1-3.3,15.3-3.3c6.3,0,12.5,1,18.6,2.9l-3,15.6c-3.5-0.9-6.9-1.3-10.2-1.3c-3.2,0-5.5,0.8-6.9,2.3
		s-2.1,4.4-2.1,8.7v6h16.6v17.6h-16.6v66.2h59V350.3H-211.4z"/>
</g>
</svg>
