<?xml version="1.0" encoding="utf-8"?>
<!-- Generator: Adobe Illustrator 19.0.0, SVG Export Plug-In . SVG Version: 6.00 Build 0)  -->
<svg version="1.1" id="Layer_1" xmlns="http://www.w3.org/2000/svg" xmlns:xlink="http://www.w3.org/1999/xlink" x="0px" y="0px"
	 viewBox="-283 385.2 566.9 56.7" style="enable-background:new -283 385.2 566.9 56.7;" xml:space="preserve">
<style type="text/css">
	.st0{fill:#F5EBE6;}
</style>
<g>
	<polygon class="st0" points="-22.7,423.7 -24.9,429.9 -20.4,429.9 	"/>
	<polygon class="st0" points="-7.6,411.4 -8.8,411.4 -8.8,413.8 -11.9,413.8 -11.9,429.9 -7.6,429.9 	"/>
	<polygon class="st0" points="-14.5,413.8 -17.6,413.8 -17.6,411.4 -17.8,411.4 -21.4,420.2 -17.6,429.9 -14.5,429.9 	"/>
	<polygon class="st0" points="-20.7,411.4 -24.7,411.4 -22.7,416.8 	"/>
	<path class="st0" d="M35.8,414.6c-0.3-0.5-1-0.7-1.9-0.7h-1.4v5.8H34c0.5,0,0.8-0.1,1.1-0.2s0.5-0.3,0.7-0.6
		c0.1-0.2,0.2-0.5,0.3-0.9s0.1-0.8,0.1-1.2c0-0.5,0-0.9-0.1-1.2C36,415.1,35.9,414.8,35.8,414.6z"/>
	<polygon class="st0" points="-27.8,429.9 -24,420.2 -27.5,411.4 -28.2,411.4 -28.2,413.8 -33.5,413.8 -33.5,419.3 -28.9,419.3 
		-28.9,421.8 -33.5,421.8 -33.5,427.3 -28.2,427.3 -28.2,429.9 	"/>
	<path class="st0" d="M24.6,411.4c0.5,0.2,1,0.5,1.5,0.8c0.4,0.4,0.8,0.9,1,1.4c0.3,0.6,0.4,1.2,0.4,2v9.9c0,0.8-0.1,1.5-0.4,2
		c-0.3,0.6-0.6,1-1,1.4s-0.9,0.7-1.5,0.9l0,0h5.3v-18.4L24.6,411.4L24.6,411.4z"/>
	<polygon class="st0" points="32.5,422 32.5,429.9 36.5,429.9 34.1,422 	"/>
	<rect x="-282.9" y="411.4" class="st0" width="246.7" height="18.4"/>
	<path class="st0" d="M21.2,415.7v9.9c0,0.6,0.2,1.1,0.5,1.4c0.4,0.3,0.8,0.5,1.3,0.5s0.9-0.2,1.3-0.5s0.5-0.8,0.5-1.4v-9.9
		c0-0.6-0.2-1.1-0.5-1.4c-0.4-0.3-0.8-0.5-1.3-0.5s-0.9,0.2-1.3,0.5C21.3,414.6,21.2,415.1,21.2,415.7z"/>
	<path class="st0" d="M35.4,411.4c2.3,0.5,3.5,2.2,3.5,5.4c0,1.1-0.2,2-0.5,2.8s-0.9,1.4-1.8,1.9l2.8,8.4h246.7v-18.4L35.4,411.4
		L35.4,411.4z"/>
	<path class="st0" d="M21.4,429.8c-0.5-0.2-1-0.5-1.4-0.9s-0.8-0.8-1.1-1.4c-0.3-0.6-0.4-1.2-0.4-2v-9.9c0-0.8,0.1-1.4,0.4-2
		s0.6-1.1,1.1-1.4c0.4-0.4,0.9-0.6,1.4-0.8l0,0h-5.3v18.4L21.4,429.8C21.4,429.9,21.4,429.8,21.4,429.8z"/>
	<polygon class="st0" points="2.1,429.9 2.1,411.4 0.4,411.4 0.4,413.8 -4.9,413.8 -4.9,419.3 -0.3,419.3 -0.3,421.8 -4.9,421.8 
		-4.9,427.3 0.4,427.3 0.4,429.9 	"/>
	<path class="st0" d="M6.3,419.6c0.5,0,0.8-0.1,1.1-0.2s0.5-0.3,0.7-0.6c0.1-0.2,0.2-0.5,0.3-0.9s0.1-0.8,0.1-1.2
		c0-0.5,0-0.9-0.1-1.2c-0.1-0.4-0.2-0.7-0.3-0.9c-0.3-0.5-1-0.7-1.9-0.7H4.8v5.8L6.3,419.6L6.3,419.6z"/>
	<path class="st0" d="M13.4,411.4H7.7c2.3,0.5,3.5,2.2,3.5,5.4c0,1.1-0.2,2-0.5,2.8s-0.9,1.4-1.8,1.9l2.8,8.4h1.7V411.4z"/>
	<polygon class="st0" points="6.4,422 4.8,422 4.8,429.9 8.8,429.9 	"/>
</g>
</svg>
