<?xml version="1.0" encoding="utf-8"?>
<!-- Generator: Adobe Illustrator 19.0.0, SVG Export Plug-In . SVG Version: 6.00 Build 0)  -->
<svg version="1.1" id="Layer_1" xmlns="http://www.w3.org/2000/svg" xmlns:xlink="http://www.w3.org/1999/xlink" x="0px" y="0px"
	 viewBox="0 0 566.9 56.7" style="enable-background:new 0 0 566.9 56.7;" xml:space="preserve">
<style type="text/css">
	.st0{fill: rgb(245,235,230);}
</style>
<g id="XMLID_379_">
	<path id="XMLID_979_" class="st0" d="M1164.9,722.9h-2.9v-2.1h-4.4c0.7,0.3,1.3,0.7,1.8,1.3c0.5,0.7,0.9,1.7,1.1,3
		c0.2,1.2,0.3,3,0.3,5.3c0,3.3-0.4,5.6-1.1,7c-0.5,0.9-1.1,1.5-2,1.8h7.1V722.9z"/>
	<path id="XMLID_980_" class="st0" d="M1154.3,724.1c-0.3,1-0.4,2.9-0.4,5.9c0,2.7,0.2,4.6,0.5,5.6c0.3,1,0.9,1.5,1.8,1.5
		c0.8,0,1.4-0.5,1.7-1.4c0.3-0.9,0.5-2.6,0.5-5.1c0-3.2-0.1-5.3-0.4-6.4c-0.3-1.1-0.9-1.6-1.8-1.6
		C1155.2,722.7,1154.6,723.2,1154.3,724.1z"/>
	<path id="XMLID_981_" class="st0" d="M1172.4,737.2c-0.7-1.4-1.1-4-1.1-7.7c0-3.3,0.4-5.6,1.1-7c0.5-0.9,1.1-1.5,2-1.8h-4.2v2.1
		h-2.8v16.3h7.2C1173.6,738.8,1172.9,738.2,1172.4,737.2z"/>
	<path id="XMLID_982_" class="st0" d="M1184.2,737.3c-0.7-1.4-1.1-3.9-1.1-7.3c0-3.9,0.4-6.5,1.2-7.8c0.5-0.8,1.1-1.2,1.9-1.5h-8.5
		c0.7,0.3,1.3,0.7,1.8,1.3c0.5,0.7,0.9,1.7,1.1,3c0.2,1.2,0.3,3,0.3,5.3c0,3.3-0.4,5.6-1.1,7c-0.5,0.9-1.1,1.5-2,1.8h8.3
		C1185.4,738.8,1184.7,738.2,1184.2,737.3z"/>
	<path id="XMLID_983_" class="st0" d="M1174.4,724.1c-0.3,1-0.4,2.9-0.4,5.9c0,2.7,0.2,4.6,0.5,5.6c0.3,1,0.9,1.5,1.8,1.5
		c0.8,0,1.4-0.5,1.7-1.4c0.3-0.9,0.5-2.6,0.5-5.1c0-3.2-0.1-5.3-0.4-6.4c-0.3-1.1-0.9-1.6-1.8-1.6
		C1175.3,722.7,1174.7,723.2,1174.4,724.1z"/>
	<rect id="XMLID_984_" x="1142.6" y="720.7" class="st0" width="3.7" height="7.2"/>
	<path id="XMLID_985_" class="st0" d="M1152.3,737.2c-0.7-1.4-1.1-4-1.1-7.7c0-3.3,0.4-5.6,1.1-7c0.5-0.9,1.1-1.5,2-1.8h-5.5v18.4
		h5.7C1153.5,738.8,1152.8,738.2,1152.3,737.2z"/>
	<path id="XMLID_986_" class="st0" d="M1140.1,739.1v-18.4h-5.8c1.2,0.1,2.2,0.5,2.8,1.2c0.7,0.8,1.1,2.1,1.1,3.8
		c0,2.5-0.7,4.1-2.2,4.8c-0.7,0.3-1.8,0.5-3.2,0.5v8.2H1140.1z"/>
	<path id="XMLID_987_" class="st0" d="M1135,728.2c0.4-0.4,0.6-1.2,0.6-2.3c0-1.1-0.2-1.9-0.6-2.4c-0.4-0.5-1-0.8-1.8-0.8h-0.3v6.1
		C1133.9,728.8,1134.6,728.6,1135,728.2z"/>
	<rect id="XMLID_988_" x="1142.6" y="730" class="st0" width="3.7" height="9.1"/>
	<path id="XMLID_989_" class="st0" d="M1191.5,737.5c-0.4,0.8-1,1.4-1.8,1.7h5.2v-18.4h-5.3c0.4,0.1,0.8,0.3,1.1,0.6
		c0.7,0.6,1.2,1.6,1.6,2.9l-2.3,1c-0.1-0.5-0.2-0.9-0.3-1.2c-0.1-0.3-0.3-0.6-0.4-0.8c-0.3-0.4-0.8-0.6-1.4-0.6
		c-0.8,0-1.4,0.5-1.7,1.5c-0.3,1.1-0.5,3-0.5,5.8c0,2.8,0.2,4.7,0.5,5.7c0.3,1,0.9,1.5,1.8,1.5c0.8,0,1.3-0.4,1.7-1.1
		c0.3-0.8,0.5-2,0.5-3.6v-0.5v-0.4h-2.2v-2.1h4.5v0.7C1192.4,733.8,1192.1,736.2,1191.5,737.5z"/>
	<path id="XMLID_990_" class="st0" d="M1219.9,728.2c0.4-0.4,0.6-1.2,0.6-2.3c0-1.1-0.2-1.9-0.6-2.4c-0.4-0.5-1-0.8-1.8-0.8h-0.3
		v6.1C1218.8,728.8,1219.5,728.6,1219.9,728.2z"/>
	<rect id="XMLID_991_" x="1227.5" y="730" class="st0" width="3.7" height="9.1"/>
	<path id="XMLID_992_" class="st0" d="M1197.4,728.9c1,0,1.7-0.2,2.1-0.7s0.6-1.2,0.6-2.3c0-0.6,0-1.1-0.1-1.5
		c-0.1-0.4-0.2-0.7-0.4-1c-0.2-0.3-0.4-0.4-0.7-0.6s-0.6-0.2-1-0.2h-0.4V728.9z"/>
	<rect id="XMLID_993_" x="898.5" y="720.7" class="st0" width="231.8" height="18.4"/>
	<path id="XMLID_994_" class="st0" d="M1225,720.7h-5.8c1.2,0.1,2.2,0.5,2.8,1.2c0.7,0.8,1.1,2.1,1.1,3.8c0,2.5-0.7,4.1-2.2,4.8
		c-0.7,0.3-1.8,0.5-3.2,0.5v8.2h7.2V720.7z"/>
	<rect id="XMLID_995_" x="1233.7" y="720.7" class="st0" width="231.8" height="18.4"/>
	<rect id="XMLID_996_" x="1227.5" y="720.7" class="st0" width="3.7" height="7.2"/>
	<path id="XMLID_997_" class="st0" d="M1207.9,720.7h-9c1,0.1,1.8,0.4,2.4,0.9c0.8,0.8,1.3,2.1,1.3,3.9c0,1.3-0.2,2.4-0.7,3.2
		c-0.4,0.8-1.1,1.3-1.9,1.5l3.4,9h0.6L1207.9,720.7z"/>
	<polygon id="XMLID_998_" class="st0" points="1197.4,730.1 1197.4,739.1 1200.8,739.1 	"/>
	<polygon id="XMLID_999_" class="st0" points="1210.7,735.6 1207,735.6 1206.3,739.1 1211.3,739.1 	"/>
	<polygon id="XMLID_1000_" class="st0" points="1215.3,720.7 1209.9,720.7 1213.8,739.1 1215.3,739.1 	"/>
	<path id="XMLID_1001_" class="st0" d="M1207.8,731.3l-0.5,2.4h3l-0.6-3c-0.4-2-0.7-4.2-0.9-6.4c-0.1,1.1-0.3,2.2-0.4,3.4
		C1208.2,728.8,1208,730,1207.8,731.3z"/>
</g>
<g id="XMLID_136_">
	<path id="XMLID_140_" class="st0" d="M285.9,29.3c0-0.2-0.1-0.6-0.1-1l-0.3-1.8c0-0.1,0-0.4-0.1-0.6c0-0.3-0.1-0.6-0.1-1.1
		l-0.1-0.8c0,0.2,0,0.3,0,0.5c0,0.1,0,0.2,0,0.3c0,0.5-0.1,0.9-0.1,1.2c0,0.3,0,0.5-0.1,0.5l-0.3,1.8c-0.1,0.4-0.1,0.7-0.1,1
		c0,0.2-0.1,0.4-0.1,0.4l-1.3,7.9h4l-1.3-7.9C285.9,29.6,285.9,29.5,285.9,29.3z"/>
	<path id="XMLID_137_" class="st0" d="M302.7,29.3c-0.3-0.8-0.5-1.6-0.7-2.4c-0.2-0.8-0.4-1.7-0.6-2.6c0-0.1,0-0.2-0.1-0.4
		c0-0.2-0.1-0.3-0.1-0.5c0,0.2,0,0.4,0.1,0.5c0,0.1,0,0.3,0,0.4l0.1,1.9l0.1,2.3c0,0.1,0,0.3,0,0.5c0,0.2,0,0.4,0,0.6l0.1,8h3.8
		L302.7,29.3z"/>
	<path id="XMLID_238_" class="st0" d="M248.1,19.2h3.1c0.9,0,1.7,0.1,2.4,0.3c0.6,0.2,1.1,0.6,1.6,1.1c0.7,0.8,1.2,1.8,1.5,3
		c0.3,1.2,0.4,2.9,0.4,5.1c0,2-0.2,3.7-0.5,5c-0.3,1.2-0.8,2.2-1.6,2.8c-0.7,0.6-1.9,1-3.5,1.1h8V19.2h3.3c1.4,0,2.4,0.3,3,1
		c0.8,0.8,1.3,2.1,1.3,3.8c0,1.3-0.2,2.4-0.7,3.2c-0.4,0.8-1.1,1.3-1.9,1.5l3.4,8.9h0.6l4-18.4h1.9l3.9,18.4h2.9L278,19.2h2.4
		l1.3,8.6l0.2,1.3c0.1,0.7,0.2,1.3,0.2,1.9l0.1,1.6c0,0,0,0.1,0,0.2c0,0.1,0,0.2,0,0.4l0.1-0.6c0.1-1,0.2-2,0.3-2.9
		c0.1-0.9,0.2-1.7,0.4-2.4l1.3-8h1.9l1.2,7.7c0.2,1.1,0.3,2.2,0.5,3.2c0.1,1,0.2,1.9,0.3,2.8c0.1-0.9,0.2-1.8,0.3-2.7
		c0.1-0.9,0.2-1.7,0.3-2.6l0.2-1.2l1.1-7.2h2.4l-3.2,18.4h4.7V19.2h2.5v18.4h2.8V19.2h2.3l2.5,7.4c0.7,2.1,1.3,4.3,1.9,6.6
		c-0.2-1.4-0.3-2.7-0.4-3.9c-0.1-1.2-0.1-2.2-0.1-3.3v-6.9h2.5v18.4h5.6c-0.9-0.3-1.6-0.9-2.1-1.9c-0.7-1.4-1.1-3.8-1.1-7.2
		c0-3.9,0.4-6.4,1.2-7.7c0.5-0.8,1.2-1.4,2.2-1.6H1.2v18.4h246.9V19.2z"/>
	<polygon id="XMLID_397_" class="st0" points="270.8,37.6 275.8,37.6 275.2,34 271.5,34 	"/>
	<path id="XMLID_398_" class="st0" d="M316.5,19.1c0.5,0.1,1,0.4,1.4,0.7c0.7,0.6,1.2,1.6,1.6,2.9l-2.3,1c-0.1-0.5-0.2-0.9-0.3-1.2
		c-0.1-0.3-0.3-0.6-0.4-0.8c-0.3-0.4-0.8-0.6-1.4-0.6c-0.8,0-1.4,0.5-1.7,1.5c-0.3,1.1-0.5,3-0.5,5.7c0,2.8,0.2,4.7,0.5,5.7
		c0.3,1,0.9,1.5,1.8,1.5c0.8,0,1.3-0.4,1.7-1.1c0.3-0.7,0.5-1.9,0.5-3.6v-0.5V30h-2.2v-2.1h4.5v0.7c0,3.6-0.3,6-0.9,7.3
		c-0.4,0.8-1,1.3-1.8,1.7h250V19.1H316.5z"/>
	<path id="XMLID_399_" class="st0" d="M273.4,22.8c-0.1,1.1-0.3,2.2-0.4,3.4c-0.2,1.1-0.4,2.3-0.6,3.6l-0.5,2.4h2.9l-0.5-2.9
		C273.9,27.2,273.6,25,273.4,22.8z"/>
	<path id="XMLID_400_" class="st0" d="M264.5,23c-0.1-0.4-0.2-0.7-0.4-1c-0.2-0.3-0.4-0.4-0.7-0.6c-0.3-0.1-0.6-0.2-1-0.2H262v6.1
		c1,0,1.6-0.2,2-0.7c0.4-0.4,0.6-1.2,0.6-2.3C264.6,23.9,264.6,23.4,264.5,23z"/>
	<path id="XMLID_401_" class="st0" d="M254.4,28.7c0-2.8-0.3-4.8-0.8-5.9c-0.5-1.1-1.4-1.6-2.8-1.6h-0.3v14.2c1.5,0,2.5-0.5,3-1.4
		C254.2,33.2,254.4,31.4,254.4,28.7z"/>
	<polygon id="XMLID_402_" class="st0" points="262,37.6 265.3,37.6 262,28.6 	"/>
</g>
</svg>
