<?xml version="1.0" encoding="utf-8"?>
<!-- Generator: Adobe Illustrator 19.0.0, SVG Export Plug-In . SVG Version: 6.00 Build 0)  -->
<svg version="1.1" id="Layer_1" xmlns="http://www.w3.org/2000/svg" xmlns:xlink="http://www.w3.org/1999/xlink" x="0px" y="0px"
	 viewBox="-283 399.3 566.9 42.5" style="enable-background:new -283 399.3 566.9 42.5;" xml:space="preserve">
<style type="text/css">
	.st0{fill:#F5EBE6;}
</style>
<g id="XMLID_379_">
	<path id="XMLID_979_" class="st0" d="M881.9,1115.1H879v-2.1h-4.4c0.7,0.3,1.3,0.7,1.8,1.3c0.5,0.7,0.9,1.7,1.1,3
		c0.2,1.2,0.3,3,0.3,5.3c0,3.3-0.4,5.6-1.1,7c-0.5,0.9-1.1,1.5-2,1.8h7.1L881.9,1115.1L881.9,1115.1z"/>
	<path id="XMLID_980_" class="st0" d="M871.3,1116.3c-0.3,1-0.4,2.9-0.4,5.9c0,2.7,0.2,4.6,0.5,5.6s0.9,1.5,1.8,1.5
		c0.8,0,1.4-0.5,1.7-1.4c0.3-0.9,0.5-2.6,0.5-5.1c0-3.2-0.1-5.3-0.4-6.4s-0.9-1.6-1.8-1.6C872.2,1114.9,871.6,1115.4,871.3,1116.3z"
		/>
	<path id="XMLID_981_" class="st0" d="M889.4,1129.4c-0.7-1.4-1.1-4-1.1-7.7c0-3.3,0.4-5.6,1.1-7c0.5-0.9,1.1-1.5,2-1.8h-4.2v2.1
		h-2.8v16.3h7.2C890.6,1131,889.9,1130.4,889.4,1129.4z"/>
	<path id="XMLID_982_" class="st0" d="M901.2,1129.5c-0.7-1.4-1.1-3.9-1.1-7.3c0-3.9,0.4-6.5,1.2-7.8c0.5-0.8,1.1-1.2,1.9-1.5h-8.5
		c0.7,0.3,1.3,0.7,1.8,1.3c0.5,0.7,0.9,1.7,1.1,3c0.2,1.2,0.3,3,0.3,5.3c0,3.3-0.4,5.6-1.1,7c-0.5,0.9-1.1,1.5-2,1.8h8.3
		C902.4,1131,901.7,1130.4,901.2,1129.5z"/>
	<path id="XMLID_983_" class="st0" d="M891.4,1116.3c-0.3,1-0.4,2.9-0.4,5.9c0,2.7,0.2,4.6,0.5,5.6s0.9,1.5,1.8,1.5
		c0.8,0,1.4-0.5,1.7-1.4c0.3-0.9,0.5-2.6,0.5-5.1c0-3.2-0.1-5.3-0.4-6.4s-0.9-1.6-1.8-1.6C892.3,1114.9,891.7,1115.4,891.4,1116.3z"
		/>
	<rect id="XMLID_984_" x="859.6" y="1112.9" class="st0" width="3.7" height="7.2"/>
	<path id="XMLID_985_" class="st0" d="M869.3,1129.4c-0.7-1.4-1.1-4-1.1-7.7c0-3.3,0.4-5.6,1.1-7c0.5-0.9,1.1-1.5,2-1.8h-5.5v18.4
		h5.7C870.5,1131,869.8,1130.4,869.3,1129.4z"/>
	<path id="XMLID_986_" class="st0" d="M857.1,1131.3v-18.4h-5.8c1.2,0.1,2.2,0.5,2.8,1.2c0.7,0.8,1.1,2.1,1.1,3.8
		c0,2.5-0.7,4.1-2.2,4.8c-0.7,0.3-1.8,0.5-3.2,0.5v8.2L857.1,1131.3L857.1,1131.3z"/>
	<path id="XMLID_987_" class="st0" d="M852,1120.4c0.4-0.4,0.6-1.2,0.6-2.3s-0.2-1.9-0.6-2.4s-1-0.8-1.8-0.8h-0.3v6.1
		C850.9,1121,851.6,1120.8,852,1120.4z"/>
	<rect id="XMLID_988_" x="859.6" y="1122.2" class="st0" width="3.7" height="9.1"/>
	<path id="XMLID_989_" class="st0" d="M908.5,1129.7c-0.4,0.8-1,1.4-1.8,1.7h5.2V1113h-5.3c0.4,0.1,0.8,0.3,1.1,0.6
		c0.7,0.6,1.2,1.6,1.6,2.9l-2.3,1c-0.1-0.5-0.2-0.9-0.3-1.2c-0.1-0.3-0.3-0.6-0.4-0.8c-0.3-0.4-0.8-0.6-1.4-0.6
		c-0.8,0-1.4,0.5-1.7,1.5c-0.3,1.1-0.5,3-0.5,5.8c0,2.8,0.2,4.7,0.5,5.7s0.9,1.5,1.8,1.5c0.8,0,1.3-0.4,1.7-1.1
		c0.3-0.8,0.5-2,0.5-3.6v-0.5v-0.4H905v-2.1h4.5v0.7C909.4,1126,909.1,1128.4,908.5,1129.7z"/>
	<path id="XMLID_990_" class="st0" d="M936.9,1120.4c0.4-0.4,0.6-1.2,0.6-2.3s-0.2-1.9-0.6-2.4s-1-0.8-1.8-0.8h-0.3v6.1
		C935.8,1121,936.5,1120.8,936.9,1120.4z"/>
	<rect id="XMLID_991_" x="944.5" y="1122.2" class="st0" width="3.7" height="9.1"/>
	<path id="XMLID_992_" class="st0" d="M914.4,1121.1c1,0,1.7-0.2,2.1-0.7s0.6-1.2,0.6-2.3c0-0.6,0-1.1-0.1-1.5s-0.2-0.7-0.4-1
		c-0.2-0.3-0.4-0.4-0.7-0.6s-0.6-0.2-1-0.2h-0.4L914.4,1121.1L914.4,1121.1z"/>
	<rect id="XMLID_993_" x="615.5" y="1112.9" class="st0" width="231.8" height="18.4"/>
	<path id="XMLID_994_" class="st0" d="M942,1112.9h-5.8c1.2,0.1,2.2,0.5,2.8,1.2c0.7,0.8,1.1,2.1,1.1,3.8c0,2.5-0.7,4.1-2.2,4.8
		c-0.7,0.3-1.8,0.5-3.2,0.5v8.2h7.2L942,1112.9L942,1112.9z"/>
	<rect id="XMLID_995_" x="950.7" y="1112.9" class="st0" width="231.8" height="18.4"/>
	<rect id="XMLID_996_" x="944.5" y="1112.9" class="st0" width="3.7" height="7.2"/>
	<path id="XMLID_997_" class="st0" d="M924.9,1112.9h-9c1,0.1,1.8,0.4,2.4,0.9c0.8,0.8,1.3,2.1,1.3,3.9c0,1.3-0.2,2.4-0.7,3.2
		c-0.4,0.8-1.1,1.3-1.9,1.5l3.4,9h0.6L924.9,1112.9z"/>
	<polygon id="XMLID_998_" class="st0" points="914.4,1122.3 914.4,1131.3 917.8,1131.3 	"/>
	<polygon id="XMLID_999_" class="st0" points="927.7,1127.8 924,1127.8 923.3,1131.3 928.3,1131.3 	"/>
	<polygon id="XMLID_1000_" class="st0" points="932.3,1112.9 926.9,1112.9 930.8,1131.3 932.3,1131.3 	"/>
	<path id="XMLID_1001_" class="st0" d="M924.8,1123.5l-0.5,2.4h3l-0.6-3c-0.4-2-0.7-4.2-0.9-6.4c-0.1,1.1-0.3,2.2-0.4,3.4
		C925.2,1121,925,1122.2,924.8,1123.5z"/>
</g>
<g>
	<path class="st0" d="M7.5,428.6c-0.5-0.2-1-0.5-1.4-0.9c-0.4-0.4-0.7-0.9-0.9-1.4c-0.2-0.5-0.3-1.1-0.3-1.7v-14.2h-5.1
		c1.9,0.6,2.9,2.3,2.9,5.2c0,1.1-0.2,2-0.5,2.8s-0.9,1.4-1.8,1.9l2.9,8.5H0.5l-2.5-8h-1.6v8h-2.7v-18.4h-4.9
		c0.4,0.2,0.8,0.4,1.1,0.7c0.4,0.4,0.8,0.9,1,1.4c0.3,0.6,0.4,1.2,0.4,2v9.9c0,0.8-0.1,1.5-0.4,2c-0.3,0.6-0.6,1-1,1.4
		c-0.4,0.4-0.9,0.7-1.5,0.9c-0.2,0.1-0.4,0.1-0.6,0.2H8.2C7.9,428.7,7.7,428.6,7.5,428.6z"/>
	<path class="st0" d="M-3.6,412.6v5.8h1.5c0.5,0,0.8-0.1,1.1-0.2s0.5-0.3,0.7-0.6c0.1-0.2,0.2-0.5,0.3-0.9C0,416.4,0,416,0,415.5
		c0-0.5,0-0.9-0.1-1.2c-0.1-0.4-0.2-0.7-0.3-0.9c-0.3-0.5-1-0.7-1.9-0.7H-3.6z"/>
	<polygon class="st0" points="22.1,419.9 25.4,410.3 18.7,410.3 22,419.9 	"/>
	<path class="st0" d="M-13.2,426.2c0.5,0,0.9-0.2,1.3-0.5c0.4-0.3,0.5-0.8,0.5-1.4v-9.9c0-0.6-0.2-1.1-0.5-1.4
		c-0.4-0.3-0.8-0.5-1.3-0.5s-0.9,0.2-1.3,0.5c-0.4,0.3-0.5,0.8-0.5,1.4v9.9c0,0.6,0.2,1.1,0.5,1.4
		C-14.1,426.1-13.7,426.2-13.2,426.2z"/>
	<path class="st0" d="M10.8,424.3v-13.9H7.5v13.9c0,0.7,0.2,1.2,0.5,1.5c0.3,0.3,0.7,0.5,1.2,0.5s0.9-0.2,1.2-0.5
		C10.7,425.4,10.8,424.9,10.8,424.3z"/>
	<path class="st0" d="M28.1,410.3v18.4h-2.7v-11.4h-0.1l-2.7,8h-1.3l-2.6-8h-0.1v11.4H16v-18.4h-2.5v14.2c0,0.6-0.1,1.2-0.3,1.7
		c-0.2,0.5-0.5,1-0.9,1.4c-0.4,0.4-0.9,0.7-1.4,0.9c-0.2,0.1-0.4,0.2-0.7,0.2h273.7v-18.4H28.1z"/>
	<path class="st0" d="M-14.8,428.6c-0.5-0.2-1-0.5-1.4-0.9c-0.4-0.4-0.8-0.8-1-1.4c-0.3-0.6-0.4-1.2-0.4-2v-9.9c0-0.8,0.1-1.4,0.4-2
		c0.3-0.6,0.6-1.1,1-1.4c0.3-0.3,0.7-0.5,1.1-0.7h-4.1v2.2h-5.3v5.7h4.6v2.5h-4.6v8h-2.7v-18.4H-283v18.4h268.8
		C-14.4,428.7-14.6,428.7-14.8,428.6z"/>
</g>
</svg>
