<?xml version="1.0" encoding="utf-8"?>
<!-- Generator: Adobe Illustrator 19.0.0, SVG Export Plug-In . SVG Version: 6.00 Build 0)  -->
<svg version="1.1" id="Layer_1" xmlns="http://www.w3.org/2000/svg" xmlns:xlink="http://www.w3.org/1999/xlink" x="0px" y="0px"
	 viewBox="-283 399.3 566.9 42.5" style="enable-background:new -283 399.3 566.9 42.5;" xml:space="preserve">
<style type="text/css">
	.st0{fill:#F5EBE6;}
</style>
<g>
	<polygon class="st0" points="-9.1,412.2 -14.5,412.2 -10.4,430.6 -9.1,430.6 	"/>
	<polygon class="st0" points="-20.9,430.6 -16.8,412.2 -26.8,412.2 -26.8,428.1 -21.5,428.1 -21.5,430.6 	"/>
	<polygon class="st0" points="-14.3,424.2 -15.6,417.5 -15.7,417.5 -17,424.2 	"/>
	<polygon class="st0" points="-13.8,426.7 -17.5,426.7 -18.2,430.6 -13.1,430.6 	"/>
	<polygon class="st0" points="-29.4,412.2 -36,412.2 -36,414.6 -41.3,414.6 -41.3,420.3 -36.7,420.3 -36.7,422.8 -41.3,422.8 
		-41.3,430.6 -29.4,430.6 	"/>
	<path class="st0" d="M-49.5,430.6V428h-5.3v-2.5l3.8-13.3h-12.3c0.1,0.1,0.3,0.1,0.4,0.1c0.5,0.3,0.8,0.6,1.1,0.9
		c0.2,0.2,0.3,0.4,0.5,0.6c0.1,0.2,0.2,0.5,0.3,0.8c0.2,0.6,0.2,1.4,0.2,2.6c0,0.6,0,1.2,0,1.6c0,0.4-0.1,0.7-0.2,1
		c-0.1,0.3-0.3,0.5-0.5,0.7s-0.5,0.4-0.9,0.6c0.4,0.3,0.7,0.5,1,0.7c0.2,0.2,0.4,0.5,0.5,0.8c0.1,0.3,0.2,0.7,0.2,1.1
		c0,0.4,0,1,0,1.6c0,0.6,0,1.1,0,1.5c0,0.4-0.1,0.7-0.1,1c-0.1,0.3-0.1,0.5-0.2,0.7c-0.1,0.2-0.2,0.4-0.3,0.6
		c-0.3,0.5-0.8,0.9-1.3,1.2c-0.1,0.1-0.3,0.1-0.4,0.2h4.4v-2.5h2.7v2.5H-49.5z"/>
	<path class="st0" d="M6.7,419.6c0.2-0.2,0.4-0.4,0.5-0.7c0.2-0.2,0.3-0.5,0.4-0.8c0.1-0.3,0.2-0.6,0.2-0.9c0-0.3-0.1-0.6-0.3-0.9
		c-0.2-0.3-0.5-0.4-0.9-0.4c-0.4,0-0.7,0.2-1,0.5c-0.2,0.3-0.4,0.7-0.4,1.1c0,0.4,0.1,0.8,0.3,1.3c0.2,0.5,0.4,0.9,0.7,1.4
		C6.3,420,6.5,419.8,6.7,419.6z"/>
	<path class="st0" d="M4.2,426.4c0,0.6,0.2,1.2,0.6,1.7s0.9,0.7,1.4,0.7c0.4,0,0.8-0.1,1.2-0.4c0.4-0.3,0.6-0.5,0.8-0.7l-2.6-4.1
		c-0.4,0.4-0.7,0.8-1,1.3C4.3,425.4,4.2,425.9,4.2,426.4z"/>
	<path class="st0" d="M17.5,430.6c-0.5-0.2-1-0.5-1.4-0.9c-0.4-0.4-0.8-0.8-1.1-1.4c-0.3-0.6-0.4-1.2-0.4-2v-9.9
		c0-0.8,0.1-1.4,0.4-2c0.3-0.6,0.6-1.1,1.1-1.4c0.4-0.4,0.9-0.6,1.4-0.8c0,0,0,0,0,0H-3.9c0.3,0.1,0.6,0.1,0.9,0.3
		c0.6,0.3,1.1,0.6,1.5,1c0.4,0.4,0.7,0.9,0.8,1.5c0.2,0.6,0.2,1.2,0.2,1.8v0.7c0,0.5,0,0.9-0.1,1.3c-0.1,0.3-0.2,0.7-0.4,0.9
		c-0.3,0.5-0.8,0.9-1.4,1.3c0.6,0.3,1.1,0.7,1.4,1.3c0.3,0.6,0.4,1.4,0.4,2.4v1c0,1.6-0.4,2.9-1.2,3.8c-0.6,0.6-1.4,1-2.4,1.2h8.3
		c0,0-0.1,0-0.1,0c-0.5-0.2-0.9-0.5-1.2-0.9c-0.4-0.4-0.6-0.8-0.8-1.4c-0.2-0.5-0.3-1.1-0.3-1.8c0-1,0.2-1.9,0.7-2.7
		c0.5-0.8,1.1-1.5,1.8-2.2c-0.5-0.7-0.9-1.4-1.2-2.1c-0.3-0.7-0.5-1.5-0.5-2.2c0-0.5,0.1-1,0.2-1.4c0.2-0.4,0.4-0.8,0.7-1.2
		c0.3-0.3,0.7-0.6,1.1-0.8c0.5-0.2,1-0.3,1.6-0.3c0.6,0,1.1,0.1,1.5,0.3c0.4,0.2,0.8,0.4,1.1,0.7c0.6,0.6,0.9,1.4,0.9,2.4
		c0,0.9-0.3,1.7-0.8,2.5s-1.2,1.5-1.9,2.2c0.2,0.2,0.4,0.5,0.5,0.8c0.2,0.3,0.4,0.6,0.6,1c0.4,0.8,0.9,1.4,1.3,2.1l1.4-2l1.7,1.2
		l-2,2.6l1.9,3.1L17.5,430.6C17.5,430.6,17.5,430.6,17.5,430.6z"/>
	<path class="st0" d="M9.2,429.3c-0.5,0.5-1.1,0.9-1.6,1.2c-0.1,0-0.2,0.1-0.3,0.1H10L9.2,429.3z"/>
	<polygon class="st0" points="-46.8,428 -46.8,430.6 -44,430.6 -44,412.2 -48.2,412.2 -52.1,425.5 -49.5,425.5 -49.5,420.1 
		-46.8,420.1 -46.8,425.5 -45.5,425.5 -45.5,428 	"/>
	<path class="st0" d="M-3.4,415.2c-0.3-0.4-1-0.6-1.8-0.6h-1.1v5.1h1.2c0.9,0,1.5-0.2,1.8-0.7c0.3-0.4,0.5-1.1,0.5-2
		C-2.9,416.3-3.1,415.6-3.4,415.2z"/>
	<path class="st0" d="M58.8,428.2c-0.2,0.5-0.5,1-0.9,1.4c-0.4,0.4-0.8,0.7-1.4,1c-0.1,0-0.1,0-0.2,0.1h5v-18.4h-4.9
		c0.5,0.2,1,0.5,1.4,0.9c0.4,0.4,0.7,0.9,0.9,1.4c0.2,0.6,0.3,1.2,0.3,1.8v1h-2.7v-0.9c0-0.5-0.2-1-0.4-1.4
		c-0.3-0.4-0.7-0.6-1.2-0.6c-0.7,0-1.1,0.2-1.3,0.6c-0.2,0.4-0.3,0.9-0.3,1.6v9.5c0,0.5,0.1,1,0.4,1.4c0.2,0.4,0.7,0.6,1.3,0.6
		c0.2,0,0.4,0,0.6-0.1c0.2-0.1,0.4-0.2,0.6-0.3c0.2-0.1,0.3-0.3,0.4-0.6c0.1-0.2,0.2-0.6,0.2-0.9v-0.9h2.7v1.2
		C59.2,427.2,59.1,427.7,58.8,428.2z"/>
	<polygon class="st0" points="45.4,412.2 43.6,412.2 43.6,414.6 38.3,414.6 38.3,420.3 42.9,420.3 42.9,422.8 38.3,422.8 
		38.3,430.6 45.4,430.6 	"/>
	<path class="st0" d="M-67.4,430c-0.4-0.3-0.7-0.7-1-1.2c-0.3-0.5-0.4-1.1-0.4-1.9v-1.5h2.7v1.4c0,0.4,0.1,0.8,0.4,1
		c0.2,0.3,0.6,0.4,1,0.4c0.4,0,0.7-0.1,1-0.4c0.2-0.3,0.4-0.6,0.4-1.1v-2.7c0-0.7-0.1-1.2-0.4-1.4c-0.2-0.1-0.4-0.2-0.6-0.3
		c-0.3,0-0.6-0.1-1.1-0.1v-2.4c0.8,0,1.4-0.1,1.7-0.3c0.3-0.2,0.5-0.6,0.5-1.3v-2.4c0-0.4-0.1-0.7-0.4-0.9c-0.2-0.2-0.6-0.4-1-0.4
		c-0.5,0-0.8,0.1-1,0.4c-0.2,0.3-0.3,0.6-0.3,0.9v1.5h-2.7v-1.5c0-0.5,0.1-1.1,0.3-1.5c0.2-0.5,0.5-0.9,0.9-1.3
		c0.4-0.3,0.8-0.6,1.3-0.8c0,0,0.1,0,0.1,0h-218v18.4h217.9C-66.7,430.5-67.1,430.3-67.4,430z"/>
	<polygon class="st0" points="69.3,412.2 69.3,414.6 64,414.6 64,420.1 68.6,420.1 68.6,422.6 64,422.6 64,428.1 69.3,428.1 
		69.3,430.6 284.7,430.6 284.7,412.2 	"/>
	<path class="st0" d="M52,430c-0.4-0.3-0.8-0.8-1-1.4c-0.3-0.6-0.4-1.3-0.4-2.1v-10.3c0-0.6,0.1-1.2,0.3-1.7c0.2-0.5,0.5-1,0.9-1.4
		c0.4-0.4,0.8-0.7,1.4-0.9c0,0,0.1,0,0.2,0h-5.2v18.4h5.1C52.7,430.5,52.3,430.3,52,430z"/>
	<path class="st0" d="M17.3,416.5v9.9c0,0.6,0.2,1.1,0.5,1.4c0.4,0.3,0.8,0.5,1.3,0.5c0.5,0,0.9-0.2,1.3-0.5
		c0.4-0.3,0.5-0.8,0.5-1.4v-9.9c0-0.6-0.2-1.1-0.5-1.4c-0.4-0.3-0.8-0.5-1.3-0.5c-0.5,0-0.9,0.2-1.3,0.5
		C17.4,415.4,17.3,415.8,17.3,416.5z"/>
	<path class="st0" d="M-4,422.3c-0.3-0.1-0.7-0.2-1.2-0.2h-1.2v6h1.2c0.5,0,1-0.1,1.3-0.2c0.3-0.2,0.5-0.4,0.7-0.7
		c0.2-0.3,0.3-0.6,0.3-1c0-0.4,0.1-0.8,0.1-1.3c0-0.5,0-0.9-0.1-1.2s-0.2-0.6-0.3-0.9C-3.5,422.6-3.7,422.4-4,422.3z"/>
	<path class="st0" d="M25.9,412.2h-5.3c0,0,0,0,0,0c0.5,0.2,1,0.5,1.5,0.8c0.4,0.4,0.8,0.9,1,1.4c0.3,0.6,0.4,1.2,0.4,2v9.9
		c0,0.8-0.1,1.5-0.4,2c-0.3,0.6-0.6,1-1,1.4c-0.4,0.4-0.9,0.7-1.5,0.9c0,0,0,0,0,0h5.3V412.2z"/>
	<polygon class="st0" points="35.6,412.2 33.9,412.2 33.9,414.6 28.6,414.6 28.6,420.3 33.2,420.3 33.2,422.8 28.6,422.8 
		28.6,430.6 35.6,430.6 	"/>
</g>
<g>
	<polygon class="st0" points="14.6,334.7 10.9,334.7 10.2,338.6 15.3,338.6 	"/>
	<polygon class="st0" points="14.1,332.2 12.8,325.4 12.7,325.4 11.4,332.2 	"/>
	<polygon class="st0" points="19.7,322.5 16.6,322.5 16.6,320.1 13.9,320.1 18,338.6 19.7,338.6 	"/>
	<polygon class="st0" points="7.5,338.6 11.6,320.1 6.9,320.1 6.9,322.5 1.6,322.5 1.6,328 6.3,328 6.3,330.5 1.6,330.5 1.6,336 
		6.9,336 6.9,338.6 	"/>
	<polygon class="st0" points="26.7,320.1 25.4,320.1 25.4,322.5 22.3,322.5 22.3,338.6 26.7,338.6 	"/>
	<path class="st0" d="M-40,336.5c-0.2,0.5-0.5,0.9-0.9,1.3c-0.4,0.3-0.8,0.6-1.3,0.8h4.6v-18.4h-2.2v2.4h-5.3v5
		c0.2-0.2,0.6-0.5,0.9-0.6c0.4-0.2,0.8-0.2,1.3-0.2c0.9,0,1.6,0.3,2.2,0.8c0.6,0.6,0.9,1.4,0.9,2.5v4.8
		C-39.6,335.5-39.7,336-40,336.5z"/>
	<path class="st0" d="M-1,320.1h-5.6c2.3,0.5,3.5,2.2,3.5,5.4c0,1.1-0.2,2-0.5,2.8c-0.3,0.8-0.9,1.4-1.8,1.9l2.8,8.4H-1V320.1z"/>
	<polygon class="st0" points="31.1,320.1 29.4,320.1 29.4,338.6 34.8,338.6 	"/>
	<path class="st0" d="M-14.7,336.2c-0.2,0.5-0.5,1-0.9,1.4c-0.4,0.4-0.8,0.7-1.4,1c-0.1,0-0.1,0-0.2,0.1h5v-18.4h-4.9
		c0.5,0.2,1,0.5,1.4,0.9c0.4,0.4,0.7,0.9,0.9,1.4c0.2,0.6,0.3,1.2,0.3,1.8v1h-2.7v-0.9c0-0.5-0.2-1-0.4-1.4
		c-0.3-0.4-0.7-0.6-1.2-0.6c-0.7,0-1.1,0.2-1.3,0.6c-0.2,0.4-0.3,0.9-0.3,1.6v9.5c0,0.5,0.1,1,0.4,1.4c0.2,0.4,0.7,0.6,1.3,0.6
		c0.2,0,0.4,0,0.6-0.1c0.2-0.1,0.4-0.2,0.6-0.3c0.2-0.1,0.3-0.3,0.4-0.6c0.1-0.2,0.2-0.6,0.2-0.9v-0.9h2.7v1.2
		C-14.4,335.1-14.5,335.6-14.7,336.2z"/>
	<polygon class="st0" points="-7.9,330.7 -9.5,330.7 -9.5,338.6 -5.5,338.6 	"/>
	<path class="st0" d="M-8,328.4c0.5,0,0.8-0.1,1.1-0.2s0.5-0.3,0.7-0.6c0.1-0.2,0.2-0.5,0.3-0.9c0.1-0.4,0.1-0.8,0.1-1.2
		c0-0.5,0-0.9-0.1-1.2c-0.1-0.4-0.2-0.7-0.3-0.9c-0.3-0.5-1-0.7-1.9-0.7h-1.4v5.8H-8z"/>
	<path class="st0" d="M-21.6,337.9c-0.4-0.3-0.8-0.8-1-1.4c-0.3-0.6-0.4-1.3-0.4-2.1v-10.3c0-0.6,0.1-1.2,0.3-1.7
		c0.2-0.5,0.5-1,0.9-1.4c0.4-0.4,0.8-0.7,1.4-0.9c0,0,0.1,0,0.2,0h-9.2v2.4h-5.3v5.7h4.6v2.5h-4.6v7.8h14.4
		C-20.8,338.4-21.2,338.2-21.6,337.9z"/>
	<polygon class="st0" points="87.9,320.1 86.1,320.1 86.1,322.5 80.8,322.5 80.8,328.2 85.4,328.2 85.4,330.7 80.8,330.7 
		80.8,338.6 87.9,338.6 	"/>
	<path class="st0" d="M94.4,337.9c-0.4-0.3-0.8-0.8-1-1.4c-0.3-0.6-0.4-1.3-0.4-2.1v-10.3c0-0.6,0.1-1.2,0.3-1.7
		c0.2-0.5,0.5-1,0.9-1.4c0.4-0.4,0.8-0.7,1.4-0.9c0,0,0.1,0,0.2,0h-5.2v18.4h5.1C95.2,338.4,94.8,338.2,94.4,337.9z"/>
	<path class="st0" d="M101.3,336.2c-0.2,0.5-0.5,1-0.9,1.4s-0.8,0.7-1.4,1c-0.1,0-0.1,0-0.2,0.1h5v-18.4H99c0.5,0.2,1,0.5,1.4,0.9
		c0.4,0.4,0.7,0.9,0.9,1.4c0.2,0.6,0.3,1.2,0.3,1.8v1H99v-0.9c0-0.5-0.2-1-0.4-1.4c-0.3-0.4-0.7-0.6-1.2-0.6c-0.7,0-1.1,0.2-1.3,0.6
		c-0.2,0.4-0.3,0.9-0.3,1.6v9.5c0,0.5,0.1,1,0.4,1.4c0.2,0.4,0.7,0.6,1.3,0.6c0.2,0,0.4,0,0.6-0.1c0.2-0.1,0.4-0.2,0.6-0.3
		c0.2-0.1,0.3-0.3,0.4-0.6c0.1-0.2,0.2-0.6,0.2-0.9v-0.9h2.7v1.2C101.7,335.1,101.5,335.6,101.3,336.2z"/>
	<polygon class="st0" points="111.8,320.1 111.8,322.5 106.5,322.5 106.5,328 111.1,328 111.1,330.5 106.5,330.5 106.5,336 
		111.8,336 111.8,338.6 316.6,338.6 316.6,320.1 	"/>
	<path class="st0" d="M-46.4,337.8c-0.4-0.3-0.7-0.8-0.9-1.3c-0.2-0.5-0.3-1-0.3-1.7V334h2.7v0.7c0,0.5,0.1,0.8,0.4,1.1
		c0.3,0.3,0.6,0.4,1,0.4c0.4,0,0.7-0.1,0.9-0.4c0.2-0.2,0.3-0.6,0.3-1v-4.4c0-0.4-0.1-0.7-0.4-0.9c-0.2-0.3-0.5-0.4-0.9-0.4
		c-0.2,0-0.4,0-0.6,0.1c-0.2,0.1-0.3,0.2-0.4,0.3c-0.1,0.1-0.2,0.2-0.2,0.3c-0.1,0.2-0.1,0.3-0.2,0.3h-2.4v-9.9h-205.1v18.4h207.2
		C-45.6,338.4-46,338.1-46.4,337.8z"/>
	<path class="st0" d="M60,338.6C59.9,338.6,59.9,338.6,60,338.6c-0.6-0.2-1-0.5-1.4-0.9c-0.4-0.4-0.8-0.8-1.1-1.4
		c-0.3-0.6-0.4-1.2-0.4-2v-9.9c0-0.8,0.1-1.4,0.4-2c0.3-0.6,0.6-1.1,1.1-1.4c0.4-0.4,0.9-0.6,1.4-0.8c0,0,0,0,0,0h-9.3v2.4h-5.3v5.5
		h4.6v2.5h-4.6v5.5h5.3v2.5H60z"/>
	<polygon class="st0" points="38.2,320.1 33.9,320.1 36,333.1 36.1,333.1 	"/>
	<polygon class="st0" points="42.6,320.1 41,320.1 37.2,338.6 42.6,338.6 	"/>
	<path class="st0" d="M68.4,320.1h-5.3c0,0,0,0,0,0c0.5,0.2,1,0.5,1.5,0.8c0.4,0.4,0.8,0.9,1,1.4c0.3,0.6,0.4,1.2,0.4,2v9.9
		c0,0.8-0.1,1.5-0.4,2c-0.3,0.6-0.6,1-1,1.4c-0.4,0.4-0.9,0.7-1.5,0.9c0,0,0,0,0,0h5.3V320.1z"/>
	<polygon class="st0" points="78.1,320.1 76.4,320.1 76.4,322.5 71.1,322.5 71.1,328.2 75.7,328.2 75.7,330.7 71.1,330.7 
		71.1,338.6 78.1,338.6 	"/>
	<path class="st0" d="M59.7,324.4v9.9c0,0.6,0.2,1.1,0.5,1.4c0.4,0.3,0.8,0.5,1.3,0.5c0.5,0,0.9-0.2,1.3-0.5
		c0.4-0.3,0.5-0.8,0.5-1.4v-9.9c0-0.6-0.2-1.1-0.5-1.4c-0.4-0.3-0.8-0.5-1.3-0.5c-0.5,0-0.9,0.2-1.3,0.5
		C59.9,323.3,59.7,323.8,59.7,324.4z"/>
</g>
<g>
	<path class="st0" d="M7.6,361.8v9.9c0,0.6,0.2,1.1,0.5,1.4c0.4,0.3,0.8,0.5,1.3,0.5c0.5,0,0.9-0.2,1.3-0.5c0.4-0.3,0.5-0.8,0.5-1.4
		v-9.9c0-0.6-0.2-1.1-0.5-1.4c-0.4-0.3-0.8-0.5-1.3-0.5c-0.5,0-0.9,0.2-1.3,0.5C7.8,360.7,7.6,361.2,7.6,361.8z"/>
	<path class="st0" d="M7.8,376c-0.5-0.2-1-0.5-1.4-0.9c-0.4-0.4-0.8-0.8-1.1-1.4c-0.3-0.6-0.4-1.2-0.4-2v-9.9c0-0.8,0.1-1.4,0.4-2
		c0.3-0.6,0.6-1.1,1.1-1.4c0.4-0.4,0.9-0.6,1.4-0.8c0,0,0,0,0,0h-8.3c2.3,0.5,3.5,2.2,3.5,5.4c0,1.1-0.2,2-0.5,2.8
		c-0.3,0.8-0.9,1.4-1.8,1.9l2.8,8.4L7.8,376C7.8,376,7.8,376,7.8,376z"/>
	<path class="st0" d="M19,376c-0.5-0.2-1-0.5-1.4-0.9c-0.4-0.4-0.8-0.8-1.1-1.4c-0.3-0.6-0.4-1.2-0.4-2v-9.9c0-0.8,0.1-1.4,0.4-2
		c0.3-0.6,0.6-1.1,1.1-1.4c0.4-0.4,0.9-0.6,1.4-0.8c0,0,0,0,0,0h-8c0,0,0,0,0,0c0.5,0.2,1,0.5,1.5,0.8c0.4,0.4,0.8,0.9,1,1.4
		c0.3,0.6,0.4,1.2,0.4,2v9.9c0,0.8-0.1,1.5-0.4,2c-0.3,0.6-0.6,1-1,1.4c-0.4,0.4-0.9,0.7-1.5,0.9c0,0,0,0,0,0L19,376
		C19,376,19,376,19,376z"/>
	<path class="st0" d="M66.9,357.5c0.2,0,0.5,0.1,0.7,0.2c0.6,0.2,1.1,0.5,1.5,1c0.5,0.5,0.8,1.1,0.9,1.7c0.2,0.7,0.3,1.5,0.3,2.7
		c0,0.8,0,1.5-0.1,2.1c-0.1,0.6-0.3,1.1-0.6,1.6c-0.4,0.6-0.9,1.1-1.5,1.4c-0.6,0.3-1.4,0.5-2.4,0.5h-1.4v7.2h252.3v-18.4H66.9z"/>
	<path class="st0" d="M18.8,361.8v9.9c0,0.6,0.2,1.1,0.5,1.4c0.4,0.3,0.8,0.5,1.3,0.5c0.5,0,0.9-0.2,1.3-0.5
		c0.4-0.3,0.5-0.8,0.5-1.4v-9.9c0-0.6-0.2-1.1-0.5-1.4c-0.4-0.3-0.8-0.5-1.3-0.5c-0.5,0-0.9,0.2-1.3,0.5
		C19,360.7,18.8,361.2,18.8,361.8z"/>
	<polygon class="st0" points="0.7,376 -1.8,368.1 -3.4,368.1 -3.4,376 	"/>
	<path class="st0" d="M-1.9,365.7c0.5,0,0.8-0.1,1.1-0.2c0.3-0.1,0.5-0.3,0.7-0.6c0.1-0.2,0.2-0.5,0.3-0.9c0.1-0.4,0.1-0.8,0.1-1.2
		c0-0.5,0-0.9-0.1-1.2c-0.1-0.4-0.2-0.7-0.3-0.9c-0.3-0.5-1-0.7-1.9-0.7h-1.4v5.8H-1.9z"/>
	<path class="st0" d="M64.3,366.3h1.3c0.5,0,1-0.1,1.3-0.2c0.3-0.2,0.5-0.4,0.7-0.7c0.1-0.3,0.2-0.6,0.2-1c0-0.4,0-0.8,0-1.3
		c0-0.4,0-0.9,0-1.2c0-0.4-0.1-0.7-0.2-1c-0.1-0.3-0.4-0.5-0.6-0.7c-0.3-0.2-0.7-0.2-1.2-0.2h-1.4V366.3z"/>
	<path class="st0" d="M61.6,357.5h-5.3c0,0,0,0,0,0c0.5,0.2,1,0.5,1.5,0.8c0.4,0.4,0.8,0.9,1,1.4c0.3,0.6,0.4,1.2,0.4,2v9.9
		c0,0.8-0.1,1.5-0.4,2c-0.3,0.6-0.6,1-1,1.4c-0.4,0.4-0.9,0.7-1.5,0.9c0,0,0,0,0,0h5.3V357.5z"/>
	<path class="st0" d="M27.4,357.5h-5.3c0,0,0,0,0,0c0.5,0.2,1,0.5,1.5,0.8c0.4,0.4,0.8,0.9,1,1.4c0.3,0.6,0.4,1.2,0.4,2v9.9
		c0,0.8-0.1,1.5-0.4,2c-0.3,0.6-0.6,1-1,1.4c-0.4,0.4-0.9,0.7-1.5,0.9c0,0,0,0,0,0h5.3V357.5z"/>
	<path class="st0" d="M52.9,361.8v9.9c0,0.6,0.2,1.1,0.5,1.4c0.4,0.3,0.8,0.5,1.3,0.5c0.5,0,0.9-0.2,1.3-0.5
		c0.4-0.3,0.5-0.8,0.5-1.4v-9.9c0-0.6-0.2-1.1-0.5-1.4c-0.4-0.3-0.8-0.5-1.3-0.5c-0.5,0-0.9,0.2-1.3,0.5
		C53.1,360.7,52.9,361.2,52.9,361.8z"/>
	<rect x="-252.4" y="357.5" class="st0" width="246.3" height="18.4"/>
	<polygon class="st0" points="43.8,359.9 40.7,359.9 40.7,357.5 35.4,357.5 35.4,359.9 30.1,359.9 30.1,365.6 34.7,365.6 
		34.7,368.1 30.1,368.1 30.1,376 43.8,376 	"/>
	<path class="st0" d="M53.1,376c-0.5-0.2-1-0.5-1.4-0.9c-0.4-0.4-0.8-0.8-1.1-1.4c-0.3-0.6-0.4-1.2-0.4-2v-9.9c0-0.8,0.1-1.4,0.4-2
		c0.3-0.6,0.6-1.1,1.1-1.4c0.4-0.4,0.9-0.6,1.4-0.8c0,0,0,0,0,0h-3.6v2.4h-3.1v16L53.1,376C53.2,376,53.1,376,53.1,376z"/>
</g>
</svg>
