<?xml version="1.0" encoding="utf-8"?>
<!-- Generator: Adobe Illustrator 19.0.0, SVG Export Plug-In . SVG Version: 6.00 Build 0)  -->
<svg version="1.1" id="Layer_1" xmlns="http://www.w3.org/2000/svg" xmlns:xlink="http://www.w3.org/1999/xlink" x="0px" y="0px"
	 viewBox="-283 399.3 566.9 42.5" style="enable-background:new -283 399.3 566.9 42.5;" xml:space="preserve">
<style type="text/css">
	.st0{fill:#F5EBE6;}
</style>
<g>
	<polygon class="st0" points="-15.9,426.9 -19.5,426.9 -20.3,430.8 -15.1,430.8 	"/>
	<polygon class="st0" points="-16.4,424.3 -17.7,417.6 -17.8,417.6 -19.1,424.3 	"/>
	<polygon class="st0" points="-10.8,414.7 -13.9,414.7 -13.9,412.3 -16.6,412.3 -12.5,430.8 -10.8,430.8 	"/>
	<polygon class="st0" points="-23,430.8 -18.9,412.3 -23.5,412.3 -23.5,414.7 -28.8,414.7 -28.8,420.2 -24.2,420.2 -24.2,422.7 
		-28.8,422.7 -28.8,428.2 -23.5,428.2 -23.5,430.8 	"/>
	<polygon class="st0" points="-3.8,412.3 -5,412.3 -5,414.7 -8.1,414.7 -8.1,430.8 -3.8,430.8 	"/>
	<path class="st0" d="M-70.4,428.7c-0.2,0.5-0.5,0.9-0.9,1.3c-0.4,0.3-0.8,0.6-1.3,0.8h4.6v-18.4h-2.2v2.4h-5.3v5
		c0.2-0.2,0.6-0.5,0.9-0.6c0.4-0.2,0.8-0.2,1.3-0.2c0.9,0,1.6,0.3,2.2,0.8c0.6,0.6,0.9,1.4,0.9,2.5v4.8
		C-70.1,427.7-70.2,428.2-70.4,428.7z"/>
	<path class="st0" d="M-31.5,412.3h-5.6c2.3,0.5,3.5,2.2,3.5,5.4c0,1.1-0.2,2-0.5,2.8c-0.3,0.8-0.9,1.4-1.8,1.9l2.8,8.4h1.6V412.3z"
		/>
	<polygon class="st0" points="0.6,412.3 -1.1,412.3 -1.1,430.8 4.4,430.8 	"/>
	<path class="st0" d="M-45.2,428.3c-0.2,0.5-0.5,1-0.9,1.4c-0.4,0.4-0.8,0.7-1.4,1c-0.1,0-0.1,0-0.2,0.1h5v-18.4h-4.9
		c0.5,0.2,1,0.5,1.4,0.9c0.4,0.4,0.7,0.9,0.9,1.4c0.2,0.6,0.3,1.2,0.3,1.8v1h-2.7v-0.9c0-0.5-0.2-1-0.4-1.4
		c-0.3-0.4-0.7-0.6-1.2-0.6c-0.7,0-1.1,0.2-1.3,0.6c-0.2,0.4-0.3,0.9-0.3,1.6v9.5c0,0.5,0.1,1,0.4,1.4c0.2,0.4,0.7,0.6,1.3,0.6
		c0.2,0,0.4,0,0.6-0.1c0.2-0.1,0.4-0.2,0.6-0.3c0.2-0.1,0.3-0.3,0.4-0.6c0.1-0.2,0.2-0.6,0.2-0.9v-0.9h2.7v1.2
		C-44.9,427.3-45,427.8-45.2,428.3z"/>
	<polygon class="st0" points="-38.4,422.9 -40,422.9 -40,430.8 -36,430.8 	"/>
	<path class="st0" d="M-38.5,420.5c0.5,0,0.8-0.1,1.1-0.2s0.5-0.3,0.7-0.6c0.1-0.2,0.2-0.5,0.3-0.9c0.1-0.4,0.1-0.8,0.1-1.2
		c0-0.5,0-0.9-0.1-1.2c-0.1-0.4-0.2-0.7-0.3-0.9c-0.3-0.5-1-0.7-1.9-0.7H-40v5.8H-38.5z"/>
	<path class="st0" d="M-52.1,430.1c-0.4-0.3-0.8-0.8-1-1.4c-0.3-0.6-0.4-1.3-0.4-2.1v-10.3c0-0.6,0.1-1.2,0.3-1.7
		c0.2-0.5,0.5-1,0.9-1.4c0.4-0.4,0.8-0.7,1.4-0.9c0,0,0.1,0,0.2,0H-60v2.4h-5.3v5.7h4.6v2.5h-4.6v7.8h14.4
		C-51.3,430.6-51.7,430.4-52.1,430.1z"/>
	<polygon class="st0" points="57.4,412.3 55.6,412.3 55.6,414.7 50.3,414.7 50.3,420.4 54.9,420.4 54.9,422.9 50.3,422.9 
		50.3,430.8 57.4,430.8 	"/>
	<path class="st0" d="M64,430.1c-0.4-0.3-0.8-0.8-1-1.4c-0.3-0.6-0.4-1.3-0.4-2.1v-10.3c0-0.6,0.1-1.2,0.3-1.7
		c0.2-0.5,0.5-1,0.9-1.4c0.4-0.4,0.8-0.7,1.4-0.9c0,0,0.1,0,0.2,0h-5.2v18.4h5.1C64.8,430.6,64.3,430.4,64,430.1z"/>
	<path class="st0" d="M70.9,428.3c-0.2,0.5-0.5,1-0.9,1.4s-0.8,0.7-1.4,1c-0.1,0-0.1,0-0.2,0.1h5v-18.4h-4.9c0.5,0.2,1,0.5,1.4,0.9
		c0.4,0.4,0.7,0.9,0.9,1.4c0.2,0.6,0.3,1.2,0.3,1.8v1h-2.7v-0.9c0-0.5-0.2-1-0.4-1.4c-0.3-0.4-0.7-0.6-1.2-0.6
		c-0.7,0-1.1,0.2-1.3,0.6c-0.2,0.4-0.3,0.9-0.3,1.6v9.5c0,0.5,0.1,1,0.4,1.4c0.2,0.4,0.7,0.6,1.3,0.6c0.2,0,0.4,0,0.6-0.1
		c0.2-0.1,0.4-0.2,0.6-0.3c0.2-0.1,0.3-0.3,0.4-0.6c0.1-0.2,0.2-0.6,0.2-0.9v-0.9h2.7v1.2C71.2,427.3,71.1,427.8,70.9,428.3z"/>
	<polygon class="st0" points="81.3,412.3 81.3,414.7 76,414.7 76,420.2 80.7,420.2 80.7,422.7 76,422.7 76,428.2 81.3,428.2 
		81.3,430.8 286.1,430.8 286.1,412.3 	"/>
	<path class="st0" d="M-76.9,430c-0.4-0.3-0.7-0.8-0.9-1.3c-0.2-0.5-0.3-1-0.3-1.7v-0.8h2.7v0.7c0,0.5,0.1,0.8,0.4,1.1
		c0.3,0.3,0.6,0.4,1,0.4c0.4,0,0.7-0.1,0.9-0.4c0.2-0.2,0.3-0.6,0.3-1v-4.4c0-0.4-0.1-0.7-0.4-0.9c-0.2-0.3-0.5-0.4-0.9-0.4
		c-0.2,0-0.4,0-0.6,0.1c-0.2,0.1-0.3,0.2-0.4,0.3c-0.1,0.1-0.2,0.2-0.2,0.3c-0.1,0.2-0.1,0.3-0.2,0.3h-2.4v-9.9h-206.1v18.4h208.2
		C-76.1,430.6-76.5,430.3-76.9,430z"/>
	<path class="st0" d="M29.5,430.8C29.5,430.8,29.5,430.8,29.5,430.8c-0.6-0.2-1-0.5-1.4-0.9c-0.4-0.4-0.8-0.8-1.1-1.4
		c-0.3-0.6-0.4-1.2-0.4-2v-9.9c0-0.8,0.1-1.4,0.4-2c0.3-0.6,0.6-1.1,1.1-1.4c0.4-0.4,0.9-0.6,1.4-0.8c0,0,0,0,0,0h-9.3v2.4h-5.3v5.5
		h4.6v2.5h-4.6v5.5h5.3v2.5H29.5z"/>
	<polygon class="st0" points="7.7,412.3 3.4,412.3 5.5,425.2 5.6,425.2 	"/>
	<polygon class="st0" points="12.2,412.3 10.5,412.3 6.8,430.8 12.2,430.8 	"/>
	<path class="st0" d="M37.9,412.3h-5.3c0,0,0,0,0,0c0.5,0.2,1,0.5,1.5,0.8c0.4,0.4,0.8,0.9,1,1.4c0.3,0.6,0.4,1.2,0.4,2v9.9
		c0,0.8-0.1,1.5-0.4,2c-0.3,0.6-0.6,1-1,1.4c-0.4,0.4-0.9,0.7-1.5,0.9c0,0,0,0,0,0h5.3V412.3z"/>
	<polygon class="st0" points="47.6,412.3 45.9,412.3 45.9,414.7 40.6,414.7 40.6,420.4 45.2,420.4 45.2,422.9 40.6,422.9 
		40.6,430.8 47.6,430.8 	"/>
	<path class="st0" d="M29.3,416.6v9.9c0,0.6,0.2,1.1,0.5,1.4c0.4,0.3,0.8,0.5,1.3,0.5c0.5,0,0.9-0.2,1.3-0.5
		c0.4-0.3,0.5-0.8,0.5-1.4v-9.9c0-0.6-0.2-1.1-0.5-1.4c-0.4-0.3-0.8-0.5-1.3-0.5c-0.5,0-0.9,0.2-1.3,0.5
		C29.5,415.5,29.3,416,29.3,416.6z"/>
</g>
</svg>
