<?xml version="1.0" encoding="UTF-8" standalone="no"?><!DOCTYPE svg PUBLIC "-//W3C//DTD SVG 1.1//EN" "http://www.w3.org/Graphics/SVG/1.1/DTD/svg11.dtd"><svg width="100%" height="100%" viewBox="0 0 101 70" version="1.1" xmlns="http://www.w3.org/2000/svg" xmlns:xlink="http://www.w3.org/1999/xlink" xml:space="preserve" xmlns:serif="http://www.serif.com/" style="fill-rule:evenodd;clip-rule:evenodd;stroke-linejoin:round;stroke-miterlimit:1.41421;"><path id="A" d="M51.1,69.3l-1.4,0l-12.1,-32.6l-24.2,0l-11.9,32.6l-1.5,0l25.1,-69.3l0.9,0l25.1,69.3Zm-14,-34.1l-11.5,-32.4l-11.7,32.4l23.2,0Z" style="fill:#FFFFFF;fill-rule:nonzero;"/><path id="A1" serif:id="A" d="M100.8,69.3l-1.4,0l-11.9,-32.6l-24.5,0l-11.8,32.6l-1.4,0l25.1,-69.3l0.9,0l25,69.3Zm-13.8,-34.1l-11.7,-32.4l-11.7,32.4l23.4,0Z" style="fill:#FFFFFF;fill-rule:nonzero;"/><path id="TRIANGLE" d="M28,0.3l22.4,62l22.5,-62l-44.9,0Zm14.9,36.4l-0.5,-1.5l15.8,0l-0.5,1.5l-14.8,0Z" style="fill:#FFFFFF;fill-rule:nonzero;"/></svg>
