<svg id="Layer_1" xmlns="http://www.w3.org/2000/svg" viewBox="-283 400.2 566.9 56.7"><style>.st0{fill:#f5ebe6}</style><g id="XMLID_379_"><path id="XMLID_979_" class="st0" d="M881.9 1237.9H879v-2.1h-4.4c.7.3 1.3.7 1.8 1.3.5.7.9 1.7 1.1 3 .2 1.2.3 3 .3 5.3 0 3.3-.4 5.6-1.1 7-.5.9-1.1 1.5-2 1.8h7.1l.1-16.3z"/><path id="XMLID_980_" class="st0" d="M871.3 1239.2c-.3 1-.4 2.9-.4 5.9 0 2.7.2 4.6.5 5.6s.9 1.5 1.8 1.5c.8 0 1.4-.5 1.7-1.4.3-.9.5-2.6.5-5.1 0-3.2-.1-5.3-.4-6.4s-.9-1.6-1.8-1.6c-1 .1-1.6.6-1.9 1.5z"/><path id="XMLID_981_" class="st0" d="M889.4 1252.3c-.7-1.4-1.1-4-1.1-7.7 0-3.3.4-5.6 1.1-7 .5-.9 1.1-1.5 2-1.8h-4.2v2.1h-2.8v16.3h7.2c-1-.3-1.7-1-2.2-1.9z"/><path id="XMLID_982_" class="st0" d="M901.2 1252.3c-.7-1.4-1.1-3.9-1.1-7.3 0-3.9.4-6.5 1.2-7.8.5-.8 1.1-1.2 1.9-1.5h-8.5c.7.3 1.3.7 1.8 1.3.5.7.9 1.7 1.1 3 .2 1.2.3 3 .3 5.3 0 3.3-.4 5.6-1.1 7-.5.9-1.1 1.5-2 1.8h8.3c-.7-.2-1.4-.8-1.9-1.8z"/><path id="XMLID_983_" class="st0" d="M891.4 1239.2c-.3 1-.4 2.9-.4 5.9 0 2.7.2 4.6.5 5.6s.9 1.5 1.8 1.5c.8 0 1.4-.5 1.7-1.4.3-.9.5-2.6.5-5.1 0-3.2-.1-5.3-.4-6.4s-.9-1.6-1.8-1.6c-1 .1-1.6.6-1.9 1.5z"/><path id="XMLID_984_" class="st0" d="M859.6 1235.8h3.7v7.2h-3.7z"/><path id="XMLID_985_" class="st0" d="M869.3 1252.3c-.7-1.4-1.1-4-1.1-7.7 0-3.3.4-5.6 1.1-7 .5-.9 1.1-1.5 2-1.8h-5.5v18.4h5.7c-1-.3-1.7-1-2.2-1.9z"/><path id="XMLID_986_" class="st0" d="M857.1 1254.2v-18.4h-5.8c1.2.1 2.2.5 2.8 1.2.7.8 1.1 2.1 1.1 3.8 0 2.5-.7 4.1-2.2 4.8-.7.3-1.8.5-3.2.5v8.2l7.3-.1z"/><path id="XMLID_987_" class="st0" d="M852 1243.3c.4-.4.6-1.2.6-2.3s-.2-1.9-.6-2.4-1-.8-1.8-.8h-.3v6.1c1 0 1.7-.2 2.1-.6z"/><path id="XMLID_988_" class="st0" d="M859.6 1245.1h3.7v9.1h-3.7z"/><path id="XMLID_989_" class="st0" d="M908.5 1252.6c-.4.8-1 1.4-1.8 1.7h5.2v-18.4h-5.3c.4.1.8.3 1.1.6.7.6 1.2 1.6 1.6 2.9l-2.3 1c-.1-.5-.2-.9-.3-1.2-.1-.3-.3-.6-.4-.8-.3-.4-.8-.6-1.4-.6-.8 0-1.4.5-1.7 1.5-.3 1.1-.5 3-.5 5.8s.2 4.7.5 5.7.9 1.5 1.8 1.5c.8 0 1.3-.4 1.7-1.1.3-.8.5-2 .5-3.6v-1H905v-2.1h4.5v.7c-.1 3.7-.4 6.1-1 7.4z"/><path id="XMLID_990_" class="st0" d="M936.9 1243.3c.4-.4.6-1.2.6-2.3s-.2-1.9-.6-2.4-1-.8-1.8-.8h-.3v6.1c1 0 1.7-.2 2.1-.6z"/><path id="XMLID_991_" class="st0" d="M944.5 1245.1h3.7v9.1h-3.7z"/><path id="XMLID_992_" class="st0" d="M914.4 1244c1 0 1.7-.2 2.1-.7s.6-1.2.6-2.3c0-.6 0-1.1-.1-1.5s-.2-.7-.4-1c-.2-.3-.4-.4-.7-.6s-.6-.2-1-.2h-.4l-.1 6.3z"/><path id="XMLID_993_" class="st0" d="M615.5 1235.8h231.8v18.4H615.5z"/><path id="XMLID_994_" class="st0" d="M942 1235.8h-5.8c1.2.1 2.2.5 2.8 1.2.7.8 1.1 2.1 1.1 3.8 0 2.5-.7 4.1-2.2 4.8-.7.3-1.8.5-3.2.5v8.2h7.2l.1-18.5z"/><path id="XMLID_995_" class="st0" d="M950.7 1235.8h231.8v18.4H950.7z"/><path id="XMLID_996_" class="st0" d="M944.5 1235.8h3.7v7.2h-3.7z"/><path id="XMLID_997_" class="st0" d="M924.9 1235.8h-9c1 .1 1.8.4 2.4.9.8.8 1.3 2.1 1.3 3.9 0 1.3-.2 2.4-.7 3.2-.4.8-1.1 1.3-1.9 1.5l3.4 9h.6l3.9-18.5z"/><path id="XMLID_998_" class="st0" d="M914.4 1245.2v9h3.4z"/><path id="XMLID_999_" class="st0" d="M927.7 1250.7H924l-.7 3.5h5z"/><path id="XMLID_1000_" class="st0" d="M932.3 1235.8h-5.4l3.9 18.4h1.5z"/><path id="XMLID_1001_" class="st0" d="M924.8 1246.4l-.5 2.4h3l-.6-3c-.4-2-.7-4.2-.9-6.4-.1 1.1-.3 2.2-.4 3.4-.2 1.1-.4 2.3-.6 3.6z"/></g><g id="XMLID_138_"><path id="XMLID_139_" class="st0" d="M-11.8 425.4h-5.7c.7.3 1.4.7 1.8 1.3.5.7.9 1.7 1.1 3 .2 1.2.3 3 .3 5.3 0 3.3-.4 5.6-1.1 7-.5.9-1.1 1.5-2 1.8h5.5v-18.4h.1z"/><path id="XMLID_153_" class="st0" d="M-9.4 425.4l2.5 7.4c.7 2.1 1.4 4.3 1.9 6.7-.2-1.4-.3-2.7-.4-3.9-.1-1.2-.1-2.3-.1-3.3v-6.9h-3.9z"/><path id="XMLID_155_" class="st0" d="M-20.8 428.9c-.3 1-.4 2.9-.4 5.9 0 2.7.2 4.6.5 5.6s.9 1.5 1.8 1.5c.8 0 1.4-.5 1.7-1.4.3-.9.5-2.6.5-5.1 0-3.2-.1-5.3-.4-6.4s-.9-1.6-1.8-1.6-1.6.5-1.9 1.5z"/><path id="XMLID_156_" class="st0" d="M-25.9 443.9h5.2c-.9-.3-1.6-1-2.1-1.9-.7-1.4-1.1-4-1.1-7.7 0-3.3.4-5.6 1.1-7 .5-.9 1.1-1.5 2-1.8H-26l.6.3v2.2c-.6-.3-1.2-.5-1.6-.5-.6 0-1.1.1-1.5.4-.4.3-.8.7-1 1.3-.3.6-.5 1.4-.6 2.3s-.2 2-.2 3.3c0 4.6 1.2 6.9 3.5 6.9.4 0 .9-.1 1.5-.4v2.3c-.3.1-.5.2-.6.3z"/><path id="XMLID_159_" class="st0" d="M-8.3 435.6c-.3-.8-.5-1.6-.7-2.4-.2-.8-.4-1.7-.6-2.6 0-.1 0-.2-.1-.4 0-.2-.1-.3-.1-.6 0 .2 0 .4.1.5v.4l.1 1.9.1 2.3v1.1l.1 8h3.8l-2.7-8.2z"/><path id="XMLID_160_" class="st0" d="M21.7 425.4c1.3.1 2.3.5 3 1.2.7.8 1.1 2.1 1.1 3.8 0 2.5-.7 4.1-2.2 4.8-.7.3-1.8.5-3.2.5v8.2H29v-16.3h-2.9v-2.2h-4.4z"/><path id="XMLID_161_" class="st0" d="M34.4 425.4v2.2h-2.8v16.3h252.5v-18.5z"/><path id="XMLID_163_" class="st0" d="M-33.1 435c0-3.3.5-5.8 1.4-7.4.6-1.1 1.4-1.8 2.5-2.1h-253.6v18.4h253.6c-2.6-.9-3.9-3.9-3.9-8.9z"/><path id="XMLID_164_" class="st0" d="M22.6 432.9c.4-.4.6-1.2.6-2.3 0-1.1-.2-1.9-.6-2.4s-1-.8-1.8-.8h-.3v6.1c1 .1 1.7-.1 2.1-.6z"/><path id="XMLID_165_" class="st0" d="M18 443.9v-18.5h-2.3v2.1h-4.1v5.9h3.6v2.1h-3.6v6.3h4.1v2.1z"/><path id="XMLID_166_" class="st0" d="M-.7 435c0-3.3.5-5.8 1.4-7.4.6-1.1 1.4-1.8 2.5-2.1h-6.3v18.4h6.3C.6 443-.7 440-.7 435z"/><path id="XMLID_168_" class="st0" d="M6.5 443.9h2.6v-18.5H6.4l.6.3v2.2c-.6-.3-1.2-.5-1.6-.5-.6 0-1.1.1-1.5.4-.4.3-.8.7-1 1.3-.2.6-.5 1.4-.6 2.3s-.2 2-.2 3.3c0 4.6 1.2 6.9 3.5 6.9.4 0 .9-.1 1.5-.4v2.3c-.3.2-.4.3-.6.4z"/></g></svg>