<?xml version="1.0" encoding="utf-8"?>
<!-- Generator: Adobe Illustrator 19.0.0, SVG Export Plug-In . SVG Version: 6.00 Build 0)  -->
<svg version="1.1" id="Layer_1" xmlns="http://www.w3.org/2000/svg" xmlns:xlink="http://www.w3.org/1999/xlink" x="0px" y="0px"
	 viewBox="-481.9 241 121.5 352.5" style="enable-background:new -481.9 241 121.5 352.5;" xml:space="preserve">
<style type="text/css">
	.st0{fill:#FEEBEB;}
	.st1{fill:none;}
	.st2{enable-background:new    ;}
	.st3{fill:none;stroke:#FEEBEB;stroke-width:1.4173;stroke-miterlimit:10;}
	.st4{font-family:'Dosis-SemiBold';}
	.st5{font-size:31.2049px;}
	.st6{letter-spacing:4;}
</style>
<g id="XMLID_11_">
	<polygon id="XMLID_18_" class="st0" points="-1150.6,-1028.1 -1197.7,-900.8 -1103.6,-900.8 	"/>
	<polygon id="XMLID_13_" class="st0" points="-1084,-846.3 -1100.1,-890.4 -1201.4,-890.4 -1246.4,-767.1 -1113,-767.1 
		-1054.8,-767.1 	"/>
</g>
<g id="XMLID_12_">
	<polygon id="XMLID_15_" class="st0" points="-180.6,-1028.1 -227.6,-900.8 -133.5,-900.8 	"/>
	<polygon id="XMLID_14_" class="st0" points="-114,-846.3 -130.1,-890.4 -231.4,-890.4 -276.4,-767.1 -143,-767.1 -84.8,-767.1 	"/>
</g>
<rect id="XMLID_8_" x="-1303.6" y="-714.1" class="st1" width="306" height="132"/>
<text transform="matrix(1 0 0 1 -1253.4663 -690.4205)" style="font-family:'Dosis-Medium'; font-size:31.1811px;">ARCHITECTURAL</text>
<text transform="matrix(1 0 0 1 -1196.3663 -653.0206)" style="font-family:'Dosis-Medium'; font-size:31.1811px;">DESIGN</text>
<rect id="XMLID_10_" x="-333.6" y="-714.1" class="st1" width="306" height="132"/>
<text transform="matrix(1 0 0 1 -236.1864 -690.4205)" style="font-family:'Dosis-Medium'; font-size:31.1811px;">ARTISTIC </text>
<text transform="matrix(1 0 0 1 -226.3865 -653.0206)" style="font-family:'Dosis-Medium'; font-size:31.1811px;">DESIGN</text>
<line id="XMLID_47_" class="st3" x1="-391.9" y1="574.9" x2="-391.9" y2="264.8"/>
<polygon id="XMLID_48_" class="st0" points="-391.9,258.9 -397.2,270.7 -386.6,270.7 "/>
<g id="XMLID_51_">
	<text id="XMLID_119_" transform="matrix(4.489659e-11 -1 1 4.489659e-11 -425.9316 464.3194)" class="st0 st4 st5 st6">SCALE</text>
</g>
</svg>
