<?xml version="1.0" encoding="utf-8"?>
<!-- Generator: Adobe Illustrator 19.0.0, SVG Export Plug-In . SVG Version: 6.00 Build 0)  -->
<svg version="1.1" id="Layer_1" xmlns="http://www.w3.org/2000/svg" xmlns:xlink="http://www.w3.org/1999/xlink" x="0px" y="0px"
	 viewBox="-276.9 166.9 454.9 508" style="enable-background:new -276.9 166.9 454.9 508;" xml:space="preserve">
<style type="text/css">
	.st0{fill:#E2E2E2;}
	.st1{fill:#FEEBEB;}
</style>
<g>
	<g id="XMLID_258_">
		<path id="XMLID_259_" class="st0" d="M-201.1,635.9c0-0.3,0.1-0.6,0.3-0.9s0.4-0.4,0.7-0.4c0.2,0,0.4,0.1,0.8,0.4
			c0.3,0.3,0.8,0.6,1.5,0.8s1.4,0.4,2.2,0.4c1.1,0,2-0.2,2.5-0.6c0.5-0.4,0.8-0.9,0.8-1.5c0-0.8-0.3-1.4-0.9-1.8
			c-0.6-0.4-1.3-0.8-2.1-1s-1.6-0.5-2.4-0.8s-1.5-0.7-2.1-1.4c-0.6-0.6-0.9-1.5-0.9-2.5c0-1.3,0.5-2.4,1.4-3.3
			c0.9-0.9,2.3-1.4,4.2-1.4c1.2,0,2.3,0.2,3.3,0.5c1,0.4,1.5,0.8,1.5,1.2c0,0.3-0.1,0.6-0.3,0.9s-0.5,0.5-0.8,0.5
			c-0.1,0-0.5-0.2-1.3-0.5s-1.6-0.5-2.3-0.5c-1,0-1.8,0.2-2.3,0.7s-0.8,1-0.8,1.7c0,0.6,0.3,1.1,0.9,1.5c0.6,0.4,1.3,0.7,2.1,0.9
			s1.6,0.5,2.5,0.8c0.8,0.3,1.5,0.8,2.1,1.5s0.9,1.7,0.9,2.8c0,1.4-0.5,2.5-1.5,3.3s-2.4,1.2-4.2,1.2c-1.5,0-2.9-0.3-3.9-0.8
			C-200.5,637.1-201.1,636.5-201.1,635.9z"/>
		<path id="XMLID_261_" class="st0" d="M-185.7,617.2c-0.4-0.3-0.5-0.7-0.5-1.1c0-0.4,0.2-0.8,0.5-1.1s0.8-0.5,1.3-0.5
			s0.9,0.2,1.2,0.5s0.5,0.7,0.5,1.1c0,0.4-0.2,0.8-0.5,1.1s-0.7,0.5-1.2,0.5C-185,617.7-185.4,617.5-185.7,617.2z M-185.9,637.2
			v-14.1c0-0.3,0.1-0.5,0.4-0.7c0.3-0.2,0.6-0.3,1-0.3s0.7,0.1,1,0.3s0.4,0.4,0.4,0.7v14.1c0,0.2-0.1,0.5-0.4,0.7
			c-0.3,0.2-0.6,0.3-1,0.3s-0.7-0.1-1-0.3C-185.8,637.7-185.9,637.5-185.9,637.2z"/>
		<path id="XMLID_264_" class="st0" d="M-179.5,641.4c0-1.7,0.9-2.9,2.8-3.7c-1.1-0.4-1.7-1.2-1.7-2.3c0-1,0.5-1.9,1.6-2.5
			c-1.3-1-1.9-2.5-1.9-4.3v-1.1c0-1.7,0.6-3,1.7-4c1.1-1,2.6-1.6,4.4-1.6c1.5,0,2.9,0.4,4,1.3c0.7-1.4,1.5-2.1,2.3-2.1
			c0.4,0,0.7,0.1,0.9,0.3s0.3,0.5,0.3,0.7c0,0.3-0.2,0.5-0.6,0.7c-0.8,0.2-1.4,0.7-1.8,1.5c0.7,0.8,1.1,1.9,1.1,3.2v1.1
			c0,1.6-0.6,3-1.7,4c-1.2,1.1-2.6,1.6-4.4,1.6c-0.9,0-1.8-0.2-2.5-0.5c-0.6,0.3-0.9,0.7-0.9,1.1c0,0.4,0.3,0.8,0.8,1
			s1.2,0.4,1.9,0.5c0.8,0.1,1.6,0.2,2.5,0.3s1.8,0.3,2.5,0.6s1.4,0.7,1.9,1.4c0.5,0.6,0.8,1.5,0.8,2.5c0,1.6-0.6,2.8-1.9,3.7
			c-1.3,0.8-2.9,1.3-5,1.3s-3.7-0.4-5.1-1.2C-178.8,644-179.5,642.8-179.5,641.4z M-176.8,641.1c0,0.9,0.4,1.6,1.2,2.1
			s1.8,0.8,3.1,0.8s2.3-0.3,3-0.8c0.8-0.5,1.1-1.3,1.1-2.1c0-0.4-0.1-0.7-0.2-1c-0.1-0.3-0.3-0.5-0.6-0.7s-0.5-0.3-0.8-0.5
			c-0.3-0.1-0.6-0.2-1.1-0.3c-0.4-0.1-0.8-0.1-1.1-0.1s-0.6-0.1-1.1-0.1c-0.5-0.1-0.8-0.1-1-0.1
			C-175.9,638.9-176.8,639.9-176.8,641.1z M-175.9,628.6c0,1.1,0.3,2,0.9,2.7c0.6,0.7,1.4,1.1,2.5,1.1c1,0,1.8-0.3,2.4-1
			s0.9-1.6,0.9-2.7v-1.1c0-1-0.3-1.9-0.9-2.6s-1.4-1.1-2.4-1.1s-1.9,0.3-2.4,1c-0.6,0.7-0.9,1.6-0.9,2.6v1.1H-175.9z"/>
		<path id="XMLID_268_" class="st0" d="M-161.8,637.2v-14.1c0-0.3,0.1-0.5,0.4-0.7s0.6-0.3,1-0.3c0.3,0,0.6,0.1,0.9,0.3
			s0.4,0.4,0.4,0.7v1.4c0.4-0.7,0.9-1.4,1.8-1.9c0.8-0.5,1.7-0.8,2.8-0.8c1.6,0,3,0.6,4.2,1.9s1.8,2.8,1.8,4.6v8.8
			c0,0.3-0.1,0.6-0.4,0.7c-0.3,0.2-0.6,0.3-1,0.3c-0.4,0-0.7-0.1-1-0.3s-0.4-0.4-0.4-0.7v-8.8c0-1-0.4-1.9-1.2-2.7
			c-0.8-0.8-1.7-1.2-2.7-1.2s-1.8,0.4-2.6,1.1c-0.7,0.7-1.1,1.7-1.1,2.9v8.8c0,0.2-0.1,0.5-0.4,0.7s-0.6,0.3-1,0.3
			c-0.4,0-0.7-0.1-1-0.3C-161.7,637.7-161.8,637.5-161.8,637.2z"/>
		<path id="XMLID_270_" class="st0" d="M-144.9,634c0-1.8,0.7-3,2-3.7c1.4-0.7,3.3-1,5.9-1h1.6v-0.7c0-1.1-0.3-2.1-0.9-3
			c-0.6-0.9-1.6-1.3-2.8-1.3c-1,0-1.8,0.2-2.5,0.5s-1.1,0.5-1.2,0.5c-0.3,0-0.6-0.2-0.8-0.5c-0.2-0.3-0.3-0.6-0.3-1
			c0-0.5,0.5-1,1.5-1.4s2.1-0.6,3.3-0.6c2.2,0,3.9,0.6,4.9,1.9c1.1,1.3,1.6,2.8,1.6,4.7v8.7c0,0.3-0.1,0.5-0.4,0.7s-0.6,0.3-1,0.3
			c-0.4,0-0.7-0.1-0.9-0.3c-0.2-0.2-0.4-0.4-0.4-0.7v-1.3c-1.5,1.7-3.3,2.6-5.1,2.6c-1.4,0-2.5-0.4-3.3-1.1S-144.9,635.5-144.9,634z
			 M-142,633.7c0,0.9,0.2,1.5,0.7,1.9s1.1,0.7,1.9,0.7c1,0,1.9-0.4,2.8-1.2c0.9-0.8,1.3-1.6,1.3-2.4v-1.8h-1.2c-0.7,0-1.2,0-1.7,0.1
			c-0.5,0-1,0.1-1.5,0.2c-0.5,0.1-0.9,0.3-1.3,0.4c-0.3,0.2-0.6,0.5-0.8,0.8C-142,632.7-142,633.2-142,633.7z"/>
		<path id="XMLID_273_" class="st0" d="M-129,641.4c0-1.7,0.9-2.9,2.8-3.7c-1.1-0.4-1.7-1.2-1.7-2.3c0-1,0.5-1.9,1.6-2.5
			c-1.3-1-1.9-2.5-1.9-4.3v-1.1c0-1.7,0.6-3,1.7-4s2.6-1.6,4.4-1.6c1.5,0,2.9,0.4,4,1.3c0.7-1.4,1.5-2.1,2.3-2.1
			c0.4,0,0.7,0.1,0.9,0.3c0.2,0.2,0.3,0.5,0.3,0.7c0,0.3-0.2,0.5-0.6,0.7c-0.8,0.2-1.4,0.7-1.8,1.5c0.7,0.8,1.1,1.9,1.1,3.2v1.1
			c0,1.6-0.6,3-1.7,4c-1.2,1.1-2.6,1.6-4.4,1.6c-0.9,0-1.8-0.2-2.5-0.5c-0.6,0.3-0.9,0.7-0.9,1.1c0,0.4,0.3,0.8,0.8,1
			s1.2,0.4,1.9,0.5c0.8,0.1,1.6,0.2,2.5,0.3s1.8,0.3,2.5,0.6s1.4,0.7,1.9,1.4c0.5,0.6,0.8,1.5,0.8,2.5c0,1.6-0.6,2.8-1.9,3.7
			c-1.3,0.8-2.9,1.3-5,1.3s-3.7-0.4-5.1-1.2C-128.4,644-129,642.8-129,641.4z M-126.3,641.1c0,0.9,0.4,1.6,1.2,2.1s1.8,0.8,3.1,0.8
			s2.3-0.3,3-0.8c0.8-0.5,1.1-1.3,1.1-2.1c0-0.4-0.1-0.7-0.2-1s-0.3-0.5-0.6-0.7s-0.5-0.3-0.8-0.5c-0.3-0.1-0.6-0.2-1.1-0.3
			c-0.4-0.1-0.8-0.1-1.1-0.1s-0.6-0.1-1.1-0.1c-0.5-0.1-0.8-0.1-1-0.1C-125.4,638.9-126.3,639.9-126.3,641.1z M-125.5,628.6
			c0,1.1,0.3,2,0.9,2.7s1.4,1.1,2.5,1.1c1,0,1.8-0.3,2.4-1s0.9-1.6,0.9-2.7v-1.1c0-1-0.3-1.9-0.9-2.6s-1.4-1.1-2.4-1.1
			s-1.9,0.3-2.4,1c-0.6,0.7-0.9,1.6-0.9,2.6L-125.5,628.6L-125.5,628.6z"/>
		<path id="XMLID_277_" class="st0" d="M-112,631.9v-3.6c0-1.7,0.7-3.3,2-4.5c1.3-1.3,2.9-1.9,4.8-1.9c1.8,0,3.3,0.6,4.6,1.8
			s1.9,2.7,1.9,4.4c0,0.7-0.1,1.2-0.2,1.6c-0.2,0.4-0.4,0.7-0.7,0.9c-0.3,0.2-0.6,0.3-0.9,0.3s-0.7,0.1-1.1,0.1h-7.4v1
			c0,1.2,0.4,2.2,1.3,3c0.9,0.7,2.1,1.1,3.5,1.1c0.7,0,1.4-0.1,2-0.3s1-0.4,1.3-0.7c0.3-0.2,0.6-0.3,0.8-0.3c0.3,0,0.6,0.1,0.8,0.4
			s0.3,0.6,0.3,0.9c0,0.5-0.5,1.1-1.5,1.6s-2.3,0.8-3.8,0.8c-2.2,0-4-0.6-5.4-1.8C-111.3,635.5-112,633.9-112,631.9z M-109.2,629
			h6.3c0.6,0,1-0.1,1.2-0.2c0.2-0.1,0.3-0.4,0.3-0.9c0-1-0.4-1.9-1.1-2.7s-1.7-1.2-2.8-1.2s-2,0.4-2.8,1.1s-1.2,1.6-1.2,2.6
			L-109.2,629L-109.2,629z"/>
		<path id="XMLID_280_" class="st0" d="M-95.5,636.7c0-0.5,0.2-0.9,0.5-1.3c0.3-0.4,0.7-0.5,1.2-0.5s0.9,0.2,1.2,0.5
			c0.3,0.3,0.5,0.8,0.5,1.3c0,0.4-0.5,1.8-1.5,4.1c-0.1,0.3-0.4,0.5-0.7,0.5c-0.2,0-0.5-0.1-0.7-0.2c-0.2-0.1-0.3-0.3-0.3-0.6
			c0-0.2,0-0.3,0.1-0.4l0.7-1.8C-95.1,638-95.5,637.5-95.5,636.7z"/>
		<path id="XMLID_282_" class="st0" d="M-80.2,645v-21.9c0-0.3,0.1-0.5,0.4-0.7c0.3-0.2,0.6-0.3,1-0.3s0.7,0.1,1,0.3
			c0.2,0.2,0.4,0.4,0.4,0.7v1.4c0.4-0.7,1-1.4,1.8-1.9c0.8-0.5,1.7-0.8,2.8-0.8c1.7,0,3.1,0.6,4.3,1.9c1.2,1.3,1.8,2.8,1.8,4.6v3.5
			c0,1.7-0.6,3.3-1.8,4.6c-1.2,1.3-2.6,2-4.2,2c-1,0-1.9-0.3-2.7-0.8c-0.8-0.5-1.4-1.2-1.8-1.9v9.2c0,0.2-0.1,0.5-0.4,0.7
			s-0.6,0.3-1,0.3s-0.7-0.1-1-0.3C-80,645.5-80.2,645.3-80.2,645z M-77.3,632.8c0,0.6,0.4,1.2,1.2,2c0.8,0.8,1.7,1.1,2.7,1.1
			s1.9-0.4,2.7-1.2c0.8-0.8,1.2-1.8,1.2-2.8v-3.4c0-1-0.4-1.9-1.2-2.7c-0.8-0.8-1.7-1.2-2.8-1.2c-1,0-1.9,0.4-2.6,1.1
			c-0.8,0.7-1.1,1.7-1.1,2.9v4.2L-77.3,632.8L-77.3,632.8z"/>
		<path id="XMLID_285_" class="st0" d="M-63.2,631.9v-3.5c0-1.7,0.7-3.3,2-4.6s2.9-2,4.7-2s3.4,0.6,4.7,1.9c1.3,1.3,2,2.8,2,4.6v3.5
			c0,1.7-0.7,3.3-2,4.6s-2.9,2-4.7,2c-1.8,0-3.4-0.7-4.7-2C-62.5,635.1-63.2,633.6-63.2,631.9z M-60.3,631.9c0,1.1,0.4,2,1.2,2.8
			s1.7,1.2,2.7,1.2c1.1,0,2-0.4,2.8-1.2s1.2-1.8,1.2-2.8v-3.4c0-1-0.4-1.9-1.2-2.7c-0.8-0.8-1.7-1.2-2.8-1.2s-2,0.4-2.7,1.2
			s-1.1,1.7-1.1,2.7v3.4H-60.3z"/>
		<path id="XMLID_288_" class="st0" d="M-46.5,635.9c0-0.3,0.1-0.6,0.3-0.9c0.2-0.3,0.4-0.4,0.7-0.4c0.2,0,0.4,0.1,0.8,0.4
			c0.3,0.3,0.8,0.6,1.5,0.8c0.6,0.3,1.4,0.4,2.2,0.4c1.1,0,2-0.2,2.5-0.6c0.5-0.4,0.8-0.9,0.8-1.5c0-0.8-0.3-1.4-0.9-1.8
			c-0.6-0.4-1.3-0.8-2.1-1c-0.8-0.2-1.6-0.5-2.4-0.8s-1.5-0.7-2.1-1.4c-0.6-0.6-0.9-1.5-0.9-2.5c0-1.3,0.5-2.4,1.4-3.3
			c0.9-0.9,2.3-1.4,4.2-1.4c1.2,0,2.3,0.2,3.3,0.5c1,0.4,1.5,0.8,1.5,1.2c0,0.3-0.1,0.6-0.3,0.9c-0.2,0.3-0.5,0.5-0.8,0.5
			c-0.1,0-0.5-0.2-1.3-0.5s-1.6-0.5-2.3-0.5c-1,0-1.8,0.2-2.3,0.7s-0.8,1-0.8,1.7c0,0.6,0.3,1.1,0.9,1.5s1.3,0.7,2.1,0.9
			c0.8,0.2,1.7,0.5,2.5,0.8s1.5,0.8,2.1,1.5c0.6,0.7,0.9,1.7,0.9,2.8c0,1.4-0.5,2.5-1.5,3.3s-2.4,1.2-4.2,1.2
			c-1.5,0-2.9-0.3-3.9-0.8C-45.9,637.1-46.5,636.5-46.5,635.9z"/>
		<path id="XMLID_290_" class="st0" d="M-31.4,633.1v-17.5c0-0.3,0.1-0.5,0.4-0.7c0.3-0.2,0.6-0.3,1-0.3s0.7,0.1,1,0.3
			c0.3,0.2,0.4,0.4,0.4,0.7v6.5h4.3c0.2,0,0.5,0.1,0.6,0.3s0.2,0.5,0.2,0.8s-0.1,0.5-0.2,0.8c-0.1,0.3-0.4,0.3-0.6,0.3h-4.3v8.7
			c0,1,0.2,1.6,0.6,2c0.4,0.4,1.2,0.6,2.2,0.6h1.1c0.4,0,0.7,0.1,0.9,0.4c0.2,0.2,0.3,0.5,0.3,0.9s-0.1,0.7-0.3,0.9
			c-0.2,0.2-0.5,0.4-0.9,0.4h-1.1C-29.5,638.2-31.4,636.5-31.4,633.1z"/>
		<path id="XMLID_292_" class="st0" d="M-20.8,631.9v-3.6c0-1.7,0.7-3.3,2-4.5c1.3-1.3,2.9-1.9,4.8-1.9c1.8,0,3.3,0.6,4.6,1.8
			c1.3,1.2,1.9,2.7,1.9,4.4c0,0.7-0.1,1.2-0.2,1.6c-0.2,0.4-0.4,0.7-0.7,0.9c-0.3,0.2-0.6,0.3-0.9,0.3s-0.7,0.1-1.1,0.1h-7.4v1
			c0,1.2,0.4,2.2,1.3,3c0.9,0.7,2.1,1.1,3.5,1.1c0.7,0,1.4-0.1,2-0.3s1-0.4,1.3-0.7s0.6-0.3,0.8-0.3c0.3,0,0.6,0.1,0.8,0.4
			c0.2,0.3,0.3,0.6,0.3,0.9c0,0.5-0.5,1.1-1.5,1.6s-2.3,0.8-3.8,0.8c-2.2,0-4-0.6-5.4-1.8C-20.1,635.5-20.8,633.9-20.8,631.9z
			 M-18,629h6.3c0.6,0,1-0.1,1.2-0.2c0.2-0.1,0.3-0.4,0.3-0.9c0-1-0.4-1.9-1.1-2.7s-1.7-1.2-2.8-1.2c-1.1,0-2,0.4-2.8,1.1
			s-1.2,1.6-1.2,2.6v1.3L-18,629L-18,629z"/>
		<path id="XMLID_295_" class="st0" d="M-3.5,637.2v-14.1c0-0.3,0.1-0.5,0.4-0.7s0.6-0.3,1-0.3s0.7,0.1,0.9,0.3s0.4,0.4,0.4,0.7v1.6
			c0.4-0.8,1-1.4,1.8-2s1.7-0.8,2.7-0.8h1.2c0.3,0,0.5,0.1,0.8,0.4c0.2,0.3,0.3,0.6,0.3,0.9s-0.1,0.6-0.3,0.9
			c-0.2,0.3-0.5,0.4-0.8,0.4H3.7c-1.2,0-2.2,0.5-3,1.4c-0.9,0.9-1.3,2.1-1.3,3.6v7.7c0,0.2-0.1,0.5-0.4,0.7s-0.6,0.3-1,0.3
			s-0.7-0.1-1-0.3C-3.3,637.7-3.5,637.5-3.5,637.2z"/>
		<path id="XMLID_297_" class="st0" d="M6.7,636.7c0-0.5,0.2-0.9,0.5-1.3c0.3-0.4,0.7-0.5,1.2-0.5s0.9,0.2,1.2,0.5
			c0.4,0.3,0.5,0.8,0.5,1.3c0,0.4-0.5,1.8-1.5,4.1c-0.1,0.3-0.4,0.5-0.7,0.5c-0.2,0-0.5-0.1-0.7-0.2c-0.2-0.1-0.3-0.3-0.3-0.6
			c0-0.2,0-0.3,0.1-0.4l0.7-1.8C7.1,638,6.7,637.5,6.7,636.7z"/>
		<path id="XMLID_299_" class="st0" d="M22,645v-21.9c0-0.3,0.1-0.5,0.4-0.7s0.6-0.3,1-0.3s0.7,0.1,1,0.3c0.2,0.2,0.4,0.4,0.4,0.7
			v1.4c0.4-0.7,1-1.4,1.8-1.9s1.7-0.8,2.8-0.8c1.7,0,3.1,0.6,4.3,1.9s1.8,2.8,1.8,4.6v3.5c0,1.7-0.6,3.3-1.8,4.6
			c-1.2,1.3-2.6,2-4.2,2c-1,0-1.9-0.3-2.7-0.8s-1.4-1.2-1.8-1.9v9.2c0,0.2-0.1,0.5-0.4,0.7s-0.6,0.3-1,0.3s-0.7-0.1-1-0.3
			C22.3,645.4,22,645.3,22,645z M24.9,632.8c0,0.6,0.4,1.2,1.2,2s1.7,1.1,2.7,1.1c1,0,1.9-0.4,2.7-1.2s1.2-1.8,1.2-2.8v-3.4
			c0-1-0.4-1.9-1.2-2.7c-0.8-0.8-1.7-1.2-2.8-1.2c-1,0-1.9,0.4-2.6,1.1s-1.1,1.7-1.1,2.9v4.2L24.9,632.8L24.9,632.8z"/>
		<path id="XMLID_302_" class="st0" d="M39.5,632v-8.8c0-0.3,0.1-0.5,0.4-0.7s0.6-0.3,1-0.3s0.7,0.1,1,0.3s0.4,0.4,0.4,0.7v8.8
			c0,1,0.4,1.9,1.2,2.7c0.8,0.8,1.7,1.2,2.8,1.2c1,0,1.9-0.4,2.7-1.2c0.8-0.8,1.2-1.7,1.2-2.8V623c0-0.2,0.1-0.5,0.4-0.7
			s0.6-0.3,1-0.3s0.7,0.1,1,0.3s0.4,0.4,0.4,0.7v8.9c0,1.7-0.7,3.3-2,4.6s-2.9,2-4.7,2c-1.8,0-3.4-0.7-4.7-2
			C40.2,635.2,39.5,633.7,39.5,632z"/>
		<path id="XMLID_304_" class="st0" d="M57.7,637.2v-23.8c0-0.3,0.1-0.5,0.4-0.7s0.6-0.3,1-0.3s0.7,0.1,1,0.3s0.4,0.4,0.4,0.7v11.1
			c0.4-0.7,1-1.4,1.8-1.9s1.7-0.8,2.7-0.8c1.7,0,3.1,0.6,4.3,1.9c1.2,1.3,1.8,2.8,1.8,4.6v3.5c0,1.7-0.6,3.3-1.8,4.6
			c-1.2,1.3-2.6,2-4.2,2c-1,0-2-0.3-2.8-0.8c-0.9-0.5-1.5-1.2-1.9-1.9v1.4c0,0.3-0.1,0.5-0.4,0.7s-0.6,0.3-0.9,0.3
			c-0.4,0-0.7-0.1-1-0.3C57.9,637.7,57.7,637.5,57.7,637.2z M60.5,632.8c0,0.6,0.4,1.2,1.2,2c0.8,0.8,1.7,1.1,2.7,1.1
			c1,0,1.9-0.4,2.7-1.2c0.8-0.8,1.2-1.8,1.2-2.8v-3.4c0-1-0.4-1.9-1.2-2.7c-0.8-0.8-1.7-1.2-2.7-1.2c-1,0-1.9,0.4-2.7,1.1
			s-1.2,1.7-1.2,2.9V632.8z"/>
		<path id="XMLID_307_" class="st0" d="M75.7,637.2v-23.8c0-0.3,0.1-0.5,0.4-0.7s0.6-0.3,1-0.3s0.7,0.1,1,0.3s0.4,0.4,0.4,0.7v23.8
			c0,0.2-0.1,0.5-0.4,0.7s-0.6,0.3-1,0.3s-0.7-0.1-1-0.3S75.7,637.5,75.7,637.2z"/>
		<path id="XMLID_309_" class="st0" d="M83.8,617.2c-0.4-0.3-0.5-0.7-0.5-1.1c0-0.4,0.2-0.8,0.5-1.1s0.8-0.5,1.3-0.5
			s0.9,0.2,1.2,0.5s0.5,0.7,0.5,1.1c0,0.4-0.2,0.8-0.5,1.1s-0.7,0.5-1.2,0.5S84.1,617.5,83.8,617.2z M83.6,637.2v-14.1
			c0-0.3,0.1-0.5,0.4-0.7s0.6-0.3,1-0.3s0.7,0.1,1,0.3s0.4,0.4,0.4,0.7v14.1c0,0.2-0.1,0.5-0.4,0.7s-0.6,0.3-1,0.3s-0.7-0.1-1-0.3
			S83.6,637.5,83.6,637.2z"/>
		<path id="XMLID_312_" class="st0" d="M90.3,635.9c0-0.3,0.1-0.6,0.3-0.9c0.2-0.3,0.4-0.4,0.7-0.4c0.2,0,0.4,0.1,0.8,0.4
			c0.3,0.3,0.8,0.6,1.5,0.8c0.7,0.2,1.4,0.4,2.2,0.4c1.1,0,2-0.2,2.5-0.6c0.5-0.4,0.8-0.9,0.8-1.5c0-0.8-0.3-1.4-0.9-1.8
			c-0.6-0.4-1.3-0.8-2.1-1s-1.6-0.5-2.4-0.8s-1.5-0.7-2.1-1.4c-0.6-0.6-0.9-1.5-0.9-2.5c0-1.3,0.5-2.4,1.4-3.3
			c0.9-0.9,2.3-1.4,4.2-1.4c1.2,0,2.3,0.2,3.3,0.5c1,0.4,1.5,0.8,1.5,1.2c0,0.3-0.1,0.6-0.3,0.9c-0.2,0.3-0.5,0.5-0.8,0.5
			c-0.1,0-0.5-0.2-1.3-0.5s-1.6-0.5-2.3-0.5c-1,0-1.8,0.2-2.3,0.7s-0.8,1-0.8,1.7c0,0.6,0.3,1.1,0.8,1.5c0.6,0.4,1.3,0.7,2.1,0.9
			s1.6,0.5,2.5,0.8c0.8,0.3,1.5,0.8,2.1,1.5s0.8,1.7,0.8,2.8c0,1.4-0.5,2.5-1.5,3.3s-2.4,1.2-4.2,1.2c-1.5,0-2.9-0.3-3.9-0.8
			C90.9,637.1,90.3,636.5,90.3,635.9z"/>
		<path id="XMLID_314_" class="st0" d="M105.5,637.2v-23.8c0-0.3,0.1-0.5,0.4-0.7s0.6-0.3,1-0.3s0.7,0.1,1,0.3s0.4,0.4,0.4,0.7v11.1
			c0.4-0.7,1-1.4,1.7-1.9c0.8-0.5,1.7-0.8,2.7-0.8c1.6,0,3,0.6,4.2,1.9s1.8,2.8,1.8,4.6v8.8c0,0.3-0.1,0.6-0.4,0.7
			c-0.3,0.2-0.6,0.3-1,0.3s-0.7-0.1-1-0.3s-0.4-0.4-0.4-0.7v-8.8c0-1-0.4-1.9-1.2-2.7s-1.7-1.2-2.7-1.2s-1.8,0.4-2.6,1.1
			c-0.7,0.7-1.1,1.7-1.1,2.9v8.8c0,0.2-0.1,0.5-0.4,0.7s-0.6,0.3-1,0.3s-0.7-0.1-1-0.3C105.7,637.7,105.5,637.5,105.5,637.2z"/>
		<path id="XMLID_316_" class="st0" d="M123.7,617.2c-0.4-0.3-0.5-0.7-0.5-1.1c0-0.4,0.2-0.8,0.5-1.1s0.8-0.5,1.3-0.5
			s0.9,0.2,1.2,0.5s0.5,0.7,0.5,1.1c0,0.4-0.2,0.8-0.5,1.1s-0.7,0.5-1.2,0.5C124.4,617.7,124,617.5,123.7,617.2z M123.5,637.2v-14.1
			c0-0.3,0.1-0.5,0.4-0.7s0.6-0.3,1-0.3s0.7,0.1,1,0.3s0.4,0.4,0.4,0.7v14.1c0,0.2-0.1,0.5-0.4,0.7s-0.6,0.3-1,0.3s-0.7-0.1-1-0.3
			S123.5,637.5,123.5,637.2z"/>
		<path id="XMLID_319_" class="st0" d="M131.2,637.2v-14.1c0-0.3,0.1-0.5,0.4-0.7s0.6-0.3,1-0.3c0.3,0,0.6,0.1,0.9,0.3
			c0.3,0.2,0.4,0.4,0.4,0.7v1.4c0.4-0.7,0.9-1.4,1.8-1.9c0.8-0.5,1.7-0.8,2.8-0.8c1.6,0,3,0.6,4.2,1.9s1.8,2.8,1.8,4.6v8.8
			c0,0.3-0.1,0.6-0.4,0.7c-0.3,0.2-0.6,0.3-1,0.3s-0.7-0.1-1-0.3s-0.4-0.4-0.4-0.7v-8.8c0-1-0.4-1.9-1.2-2.7s-1.7-1.2-2.7-1.2
			s-1.8,0.4-2.6,1.1c-0.7,0.7-1.1,1.7-1.1,2.9v8.8c0,0.2-0.1,0.5-0.4,0.7s-0.6,0.3-1,0.3s-0.7-0.1-1-0.3S131.2,637.5,131.2,637.2z"
			/>
		<path id="XMLID_321_" class="st0" d="M147.9,641.4c0-1.7,0.9-2.9,2.8-3.7c-1.1-0.4-1.7-1.2-1.7-2.3c0-1,0.5-1.9,1.6-2.5
			c-1.3-1-1.9-2.5-1.9-4.3v-1.1c0-1.7,0.6-3,1.7-4s2.6-1.6,4.4-1.6c1.5,0,2.9,0.4,4,1.3c0.7-1.4,1.5-2.1,2.3-2.1
			c0.4,0,0.7,0.1,0.9,0.3s0.3,0.5,0.3,0.7c0,0.3-0.2,0.5-0.6,0.7c-0.8,0.2-1.4,0.7-1.8,1.5c0.7,0.8,1.1,1.9,1.1,3.2v1.1
			c0,1.6-0.6,3-1.7,4c-1.2,1.1-2.6,1.6-4.4,1.6c-0.9,0-1.8-0.2-2.5-0.5c-0.6,0.3-0.9,0.7-0.9,1.1c0,0.4,0.3,0.8,0.8,1
			s1.2,0.4,1.9,0.5c0.8,0.1,1.6,0.2,2.5,0.3s1.8,0.3,2.5,0.6s1.4,0.7,1.9,1.4c0.5,0.6,0.8,1.5,0.8,2.5c0,1.6-0.6,2.8-1.9,3.7
			c-1.3,0.8-2.9,1.3-5,1.3c-2,0-3.7-0.4-5.1-1.2S147.9,642.8,147.9,641.4z M150.6,641.1c0,0.9,0.4,1.6,1.2,2.1s1.8,0.8,3.1,0.8
			s2.3-0.3,3-0.8c0.8-0.5,1.1-1.3,1.1-2.1c0-0.4-0.1-0.7-0.2-1s-0.3-0.5-0.6-0.7s-0.5-0.3-0.8-0.5c-0.3-0.1-0.6-0.2-1.1-0.3
			c-0.4-0.1-0.8-0.1-1.1-0.1s-0.6-0.1-1.1-0.1s-0.8-0.1-1-0.1C151.5,638.9,150.6,639.9,150.6,641.1z M151.4,628.6
			c0,1.1,0.3,2,0.9,2.7s1.4,1.1,2.5,1.1c1,0,1.8-0.3,2.4-1s0.9-1.6,0.9-2.7v-1.1c0-1-0.3-1.9-0.9-2.6s-1.4-1.1-2.4-1.1
			s-1.9,0.3-2.4,1c-0.6,0.7-0.9,1.6-0.9,2.6v1.1H151.4z"/>
	</g>
	<g id="XMLID_200_">
		<path id="XMLID_201_" class="st0" d="M-199.9,350.6c-0.4-0.3-0.5-0.7-0.5-1.1s0.2-0.8,0.5-1.1c0.3-0.3,0.8-0.5,1.3-0.5
			s0.9,0.2,1.2,0.5s0.5,0.7,0.5,1.1s-0.2,0.8-0.5,1.1c-0.3,0.3-0.7,0.5-1.2,0.5C-199.2,351.1-199.6,350.9-199.9,350.6z
			 M-200.1,370.6v-14.1c0-0.3,0.1-0.5,0.4-0.7c0.3-0.2,0.6-0.3,1-0.3s0.7,0.1,1,0.3c0.3,0.2,0.4,0.4,0.4,0.7v14.1
			c0,0.2-0.1,0.5-0.4,0.7c-0.3,0.2-0.6,0.3-1,0.3s-0.7-0.1-1-0.3C-199.9,371.1-200.1,370.9-200.1,370.6z"/>
		<path id="XMLID_204_" class="st0" d="M-190.3,370.6v-23.8c0-0.3,0.1-0.5,0.4-0.7c0.3-0.2,0.6-0.3,1-0.3s0.7,0.1,1,0.3
			c0.3,0.2,0.4,0.4,0.4,0.7v23.8c0,0.2-0.1,0.5-0.4,0.7c-0.3,0.2-0.6,0.3-1,0.3s-0.7-0.1-1-0.3
			C-190.1,371.1-190.3,370.9-190.3,370.6z"/>
		<path id="XMLID_206_" class="st0" d="M-180.2,370.6v-23.8c0-0.3,0.1-0.5,0.4-0.7c0.3-0.2,0.6-0.3,1-0.3s0.7,0.1,1,0.3
			c0.3,0.2,0.4,0.4,0.4,0.7v23.8c0,0.2-0.1,0.5-0.4,0.7c-0.3,0.2-0.6,0.3-1,0.3s-0.7-0.1-1-0.3C-180,371.1-180.2,370.9-180.2,370.6z
			"/>
		<path id="XMLID_208_" class="st0" d="M-170.5,365.3v-8.8c0-0.3,0.1-0.5,0.4-0.7c0.3-0.2,0.6-0.3,1-0.3s0.7,0.1,1,0.3
			c0.3,0.2,0.4,0.4,0.4,0.7v8.8c0,1,0.4,1.9,1.2,2.7c0.8,0.8,1.7,1.2,2.8,1.2c1,0,2-0.4,2.7-1.2c0.8-0.8,1.2-1.7,1.2-2.8v-8.9
			c0-0.2,0.1-0.5,0.4-0.7s0.6-0.3,1-0.3c0.4,0,0.7,0.1,1,0.3c0.3,0.2,0.4,0.4,0.4,0.7v8.9c0,1.7-0.7,3.3-2,4.6c-1.3,1.3-2.9,2-4.7,2
			s-3.4-0.7-4.7-2C-169.9,368.6-170.5,367.1-170.5,365.3z"/>
		<path id="XMLID_210_" class="st0" d="M-151.5,369.3c0-0.3,0.1-0.6,0.3-0.9c0.2-0.3,0.4-0.4,0.7-0.4c0.2,0,0.4,0.1,0.8,0.4
			c0.3,0.3,0.8,0.6,1.5,0.8c0.6,0.3,1.4,0.4,2.2,0.4c1.1,0,2-0.2,2.5-0.6s0.8-0.9,0.8-1.5c0-0.8-0.3-1.4-0.9-1.8
			c-0.6-0.4-1.3-0.8-2.1-1s-1.6-0.5-2.4-0.8s-1.5-0.7-2.1-1.4c-0.6-0.6-0.9-1.5-0.9-2.5c0-1.3,0.5-2.4,1.4-3.3
			c0.9-0.9,2.3-1.4,4.2-1.4c1.2,0,2.3,0.2,3.3,0.5c1,0.4,1.5,0.8,1.5,1.2c0,0.3-0.1,0.6-0.3,0.9c-0.2,0.3-0.5,0.5-0.8,0.5
			c-0.1,0-0.5-0.2-1.3-0.5s-1.6-0.5-2.3-0.5c-1,0-1.8,0.2-2.3,0.7s-0.8,1-0.8,1.7c0,0.6,0.3,1.1,0.9,1.5c0.6,0.4,1.3,0.7,2.1,0.9
			c0.8,0.2,1.7,0.5,2.5,0.8s1.5,0.8,2.1,1.5c0.6,0.7,0.9,1.7,0.9,2.8c0,1.4-0.5,2.5-1.5,3.3s-2.4,1.2-4.2,1.2
			c-1.5,0-2.9-0.3-3.9-0.8C-151,370.5-151.5,369.9-151.5,369.3z"/>
		<path id="XMLID_212_" class="st0" d="M-134.6,366.5V349c0-0.3,0.1-0.5,0.4-0.7s0.6-0.3,1-0.3c0.4,0,0.7,0.1,1,0.3
			c0.3,0.2,0.4,0.4,0.4,0.7v6.5h4.3c0.2,0,0.5,0.1,0.6,0.3c0.2,0.2,0.2,0.5,0.2,0.8s-0.1,0.5-0.2,0.8c-0.2,0.2-0.4,0.3-0.6,0.3h-4.3
			v8.7c0,1,0.2,1.6,0.6,2c0.4,0.4,1.2,0.6,2.2,0.6h1.1c0.4,0,0.7,0.1,0.9,0.4c0.2,0.2,0.3,0.5,0.3,0.9s-0.1,0.7-0.3,0.9
			c-0.2,0.3-0.5,0.4-0.9,0.4h-1.1C-132.8,371.6-134.6,369.9-134.6,366.5z"/>
		<path id="XMLID_214_" class="st0" d="M-121.4,370.6v-14.1c0-0.3,0.1-0.5,0.4-0.7s0.6-0.3,1-0.3s0.7,0.1,0.9,0.3
			c0.2,0.2,0.4,0.4,0.4,0.7v1.6c0.4-0.8,1-1.4,1.8-2s1.7-0.8,2.7-0.8h1.2c0.3,0,0.5,0.1,0.8,0.4c0.2,0.3,0.3,0.6,0.3,0.9
			s-0.1,0.6-0.3,0.9c-0.2,0.3-0.5,0.4-0.8,0.4h-1.2c-1.2,0-2.2,0.5-3,1.4c-0.9,0.9-1.3,2.1-1.3,3.6v7.7c0,0.2-0.1,0.5-0.4,0.7
			s-0.6,0.3-1,0.3s-0.7-0.1-1-0.3C-121.2,371.1-121.4,370.9-121.4,370.6z"/>
		<path id="XMLID_216_" class="st0" d="M-108.1,367.4c0-1.8,0.7-3,2-3.7s3.3-1,5.9-1h1.6V362c0-1.1-0.3-2.1-0.9-3
			c-0.6-0.8-1.6-1.3-2.8-1.3c-1,0-1.8,0.2-2.5,0.5s-1.1,0.5-1.2,0.5c-0.3,0-0.6-0.2-0.8-0.5c-0.2-0.3-0.3-0.6-0.3-1
			c0-0.5,0.5-1,1.5-1.4s2.1-0.6,3.3-0.6c2.2,0,3.9,0.6,4.9,1.9s1.6,2.8,1.6,4.7v8.7c0,0.3-0.1,0.5-0.4,0.7s-0.6,0.3-1,0.3
			s-0.7-0.1-0.9-0.3c-0.2-0.2-0.4-0.4-0.4-0.7v-1.3c-1.5,1.7-3.3,2.6-5.1,2.6c-1.4,0-2.5-0.4-3.3-1.1
			C-107.6,370-108.1,368.9-108.1,367.4z M-105.2,367.1c0,0.9,0.2,1.5,0.7,1.9s1.1,0.7,1.9,0.7c1,0,1.9-0.4,2.8-1.2
			c0.9-0.8,1.3-1.6,1.3-2.4v-1.8h-1.2c-0.7,0-1.2,0-1.7,0.1s-1,0.1-1.5,0.2s-0.9,0.3-1.3,0.4c-0.3,0.2-0.6,0.5-0.8,0.8
			S-105.2,366.6-105.2,367.1z"/>
		<path id="XMLID_219_" class="st0" d="M-89.2,366.5V349c0-0.3,0.1-0.5,0.4-0.7c0.3-0.2,0.6-0.3,1-0.3s0.7,0.1,1,0.3
			c0.3,0.2,0.4,0.4,0.4,0.7v6.5h4.3c0.2,0,0.5,0.1,0.6,0.3c0.2,0.2,0.2,0.5,0.2,0.8s-0.1,0.5-0.2,0.8c-0.2,0.2-0.4,0.3-0.6,0.3h-4.3
			v8.7c0,1,0.2,1.6,0.6,2s1.2,0.6,2.2,0.6h1.1c0.4,0,0.7,0.1,0.9,0.4c0.2,0.2,0.3,0.5,0.3,0.9s-0.1,0.7-0.3,0.9
			c-0.2,0.3-0.5,0.4-0.9,0.4h-1.1C-87.3,371.6-89.2,369.9-89.2,366.5z"/>
		<path id="XMLID_221_" class="st0" d="M-75.8,350.6c-0.4-0.3-0.5-0.7-0.5-1.1s0.2-0.8,0.5-1.1c0.3-0.3,0.8-0.5,1.3-0.5
			s0.9,0.2,1.2,0.5c0.3,0.3,0.5,0.7,0.5,1.1s-0.2,0.8-0.5,1.1c-0.3,0.3-0.7,0.5-1.2,0.5S-75.4,350.9-75.8,350.6z M-75.9,370.6v-14.1
			c0-0.3,0.1-0.5,0.4-0.7c0.3-0.2,0.6-0.3,1-0.3s0.7,0.1,1,0.3c0.3,0.2,0.4,0.4,0.4,0.7v14.1c0,0.2-0.1,0.5-0.4,0.7s-0.6,0.3-1,0.3
			s-0.7-0.1-1-0.3C-75.8,371.1-75.9,370.9-75.9,370.6z"/>
		<path id="XMLID_224_" class="st0" d="M-67,365.3v-3.5c0-1.7,0.7-3.3,2-4.6c1.3-1.3,2.9-2,4.7-2s3.4,0.6,4.7,1.9
			c1.3,1.3,2,2.8,2,4.6v3.5c0,1.7-0.7,3.3-2,4.6c-1.3,1.3-2.9,2-4.7,2c-1.8,0-3.4-0.7-4.7-2C-66.3,368.5-67,367-67,365.3z
			 M-64.2,365.3c0,1.1,0.4,2,1.2,2.8c0.8,0.8,1.7,1.2,2.7,1.2c1.1,0,2-0.4,2.8-1.2c0.8-0.8,1.2-1.8,1.2-2.8v-3.4
			c0-1-0.4-1.9-1.2-2.7c-0.8-0.8-1.7-1.2-2.8-1.2c-1.1,0-2,0.4-2.7,1.2c-0.7,0.8-1.1,1.7-1.1,2.7L-64.2,365.3L-64.2,365.3z"/>
		<path id="XMLID_227_" class="st0" d="M-47.6,370.6v-14.1c0-0.3,0.1-0.5,0.4-0.7c0.3-0.2,0.6-0.3,1-0.3c0.3,0,0.6,0.1,0.9,0.3
			c0.3,0.2,0.4,0.4,0.4,0.7v1.4c0.4-0.7,0.9-1.4,1.8-1.9c0.8-0.5,1.7-0.8,2.8-0.8c1.6,0,3,0.6,4.2,1.9c1.2,1.3,1.8,2.8,1.8,4.6v8.8
			c0,0.3-0.1,0.6-0.4,0.7c-0.3,0.2-0.6,0.3-1,0.3c-0.4,0-0.7-0.1-1-0.3c-0.3-0.2-0.4-0.4-0.4-0.7v-8.8c0-1-0.4-1.9-1.2-2.7
			c-0.8-0.8-1.7-1.2-2.7-1.2s-1.8,0.4-2.6,1.1s-1.1,1.7-1.1,2.9v8.8c0,0.2-0.1,0.5-0.4,0.7s-0.6,0.3-1,0.3c-0.4,0-0.7-0.1-1-0.3
			S-47.6,370.9-47.6,370.6z"/>
		<path id="XMLID_229_" class="st0" d="M-28.6,370c0-0.5,0.2-0.9,0.5-1.3c0.3-0.4,0.7-0.5,1.2-0.5s0.9,0.2,1.2,0.5
			c0.4,0.3,0.5,0.8,0.5,1.3c0,0.4-0.5,1.8-1.5,4.1c-0.1,0.3-0.4,0.5-0.7,0.5c-0.2,0-0.5-0.1-0.7-0.2c-0.2-0.1-0.3-0.3-0.3-0.6
			c0-0.2,0-0.3,0.1-0.4l0.7-1.8C-28.2,371.4-28.6,370.8-28.6,370z"/>
		<path id="XMLID_231_" class="st0" d="M-9.7,378.4v-21.9c0-0.3,0.1-0.5,0.4-0.7s0.6-0.3,1-0.3s0.7,0.1,1,0.3
			c0.2,0.2,0.4,0.4,0.4,0.7v1.4c0.4-0.7,1-1.4,1.8-1.9s1.7-0.8,2.8-0.8c1.7,0,3.1,0.6,4.3,1.9s1.8,2.8,1.8,4.6v3.5
			c0,1.7-0.6,3.3-1.8,4.6c-1.2,1.3-2.6,2-4.2,2c-1,0-1.9-0.3-2.7-0.8c-0.8-0.5-1.4-1.2-1.8-1.9v9.2c0,0.2-0.1,0.5-0.4,0.7
			s-0.6,0.3-1,0.3s-0.7-0.1-1-0.3C-9.4,378.8-9.7,378.6-9.7,378.4z M-6.8,366.2c0,0.6,0.4,1.2,1.2,2c0.8,0.8,1.7,1.1,2.7,1.1
			s1.9-0.4,2.7-1.2c0.8-0.8,1.2-1.8,1.2-2.8v-3.4c0-1-0.4-1.9-1.2-2.7C-1,358.4-1.9,358-3,358c-1,0-1.9,0.4-2.6,1.1
			s-1.1,1.7-1.1,2.9v4.2H-6.8z"/>
		<path id="XMLID_234_" class="st0" d="M9.8,370.6v-23.8c0-0.3,0.1-0.5,0.4-0.7c0.3-0.2,0.6-0.3,1-0.3s0.7,0.1,1,0.3
			c0.3,0.2,0.4,0.4,0.4,0.7v11.1c0.4-0.7,1-1.4,1.7-1.9c0.8-0.5,1.7-0.8,2.7-0.8c1.6,0,3,0.6,4.2,1.9s1.8,2.8,1.8,4.6v8.8
			c0,0.3-0.1,0.6-0.4,0.7c-0.3,0.2-0.6,0.3-1,0.3s-0.7-0.1-1-0.3c-0.3-0.2-0.4-0.4-0.4-0.7v-8.8c0-1-0.4-1.9-1.2-2.7
			c-0.8-0.8-1.7-1.2-2.7-1.2s-1.8,0.4-2.6,1.1c-0.7,0.7-1.1,1.7-1.1,2.9v8.8c0,0.2-0.1,0.5-0.4,0.7c-0.3,0.2-0.6,0.3-1,0.3
			s-0.7-0.1-1-0.3S9.8,370.9,9.8,370.6z"/>
		<path id="XMLID_236_" class="st0" d="M28.9,365.3v-3.5c0-1.7,0.7-3.3,2-4.6c1.3-1.3,2.9-2,4.7-2s3.4,0.6,4.7,1.9
			c1.3,1.3,2,2.8,2,4.6v3.5c0,1.7-0.7,3.3-2,4.6c-1.3,1.3-2.9,2-4.7,2c-1.8,0-3.4-0.7-4.7-2C29.6,368.5,28.9,367,28.9,365.3z
			 M31.8,365.3c0,1.1,0.4,2,1.2,2.8c0.8,0.8,1.7,1.2,2.7,1.2c1.1,0,2-0.4,2.8-1.2c0.8-0.8,1.2-1.8,1.2-2.8v-3.4c0-1-0.4-1.9-1.2-2.7
			c-0.8-0.8-1.7-1.2-2.8-1.2c-1.1,0-2,0.4-2.7,1.2c-0.7,0.8-1.1,1.7-1.1,2.7L31.8,365.3L31.8,365.3z"/>
		<path id="XMLID_239_" class="st0" d="M48.4,366.5V349c0-0.3,0.1-0.5,0.4-0.7s0.6-0.3,1-0.3s0.7,0.1,1,0.3c0.3,0.2,0.4,0.4,0.4,0.7
			v6.5h4.3c0.2,0,0.5,0.1,0.6,0.3c0.2,0.2,0.2,0.5,0.2,0.8s-0.1,0.5-0.2,0.8c-0.2,0.2-0.4,0.3-0.6,0.3h-4.3v8.7c0,1,0.2,1.6,0.6,2
			S53,369,54,369h1.1c0.4,0,0.7,0.1,0.9,0.4c0.2,0.2,0.3,0.5,0.3,0.9s-0.1,0.7-0.3,0.9c-0.2,0.2-0.5,0.4-0.9,0.4H54
			C50.3,371.6,48.4,369.9,48.4,366.5z"/>
		<path id="XMLID_241_" class="st0" d="M60.8,365.3v-3.5c0-1.7,0.7-3.3,2-4.6c1.3-1.3,2.9-2,4.7-2s3.4,0.6,4.7,1.9
			c1.3,1.3,2,2.8,2,4.6v3.5c0,1.7-0.7,3.3-2,4.6c-1.3,1.3-2.9,2-4.7,2c-1.8,0-3.4-0.7-4.7-2C61.5,368.5,60.8,367,60.8,365.3z
			 M63.6,365.3c0,1.1,0.4,2,1.2,2.8c0.8,0.8,1.7,1.2,2.7,1.2c1.1,0,2-0.4,2.8-1.2c0.8-0.8,1.2-1.8,1.2-2.8v-3.4c0-1-0.4-1.9-1.2-2.7
			c-0.8-0.8-1.7-1.2-2.8-1.2c-1.1,0-2,0.4-2.7,1.2c-0.7,0.8-1.1,1.7-1.1,2.7L63.6,365.3L63.6,365.3z"/>
		<path id="XMLID_244_" class="st0" d="M79,374.8c0-1.7,0.9-2.9,2.8-3.7c-1.1-0.4-1.7-1.2-1.7-2.3c0-1,0.5-1.9,1.6-2.5
			c-1.3-1-1.9-2.5-1.9-4.3v-1.1c0-1.7,0.6-3,1.7-4s2.6-1.6,4.4-1.6c1.5,0,2.9,0.4,4,1.3c0.7-1.4,1.5-2.1,2.3-2.1
			c0.4,0,0.7,0.1,0.9,0.3c0.2,0.2,0.3,0.5,0.3,0.7c0,0.3-0.2,0.5-0.6,0.7c-0.8,0.2-1.4,0.7-1.8,1.5c0.7,0.8,1.1,1.9,1.1,3.2v1.1
			c0,1.6-0.6,3-1.7,4c-1.2,1.1-2.6,1.6-4.4,1.6c-0.9,0-1.8-0.2-2.5-0.5c-0.6,0.3-0.9,0.7-0.9,1.1s0.3,0.8,0.8,1s1.2,0.4,1.9,0.5
			c0.8,0.1,1.6,0.2,2.5,0.3s1.8,0.3,2.5,0.6c0.7,0.3,1.4,0.7,1.9,1.4c0.5,0.6,0.8,1.5,0.8,2.5c0,1.6-0.6,2.8-1.9,3.7
			c-1.3,0.8-2.9,1.3-5,1.3c-2,0-3.7-0.4-5.1-1.2C79.6,377.5,79,376.2,79,374.8z M81.7,374.5c0,0.9,0.4,1.6,1.2,2.1
			c0.8,0.5,1.8,0.8,3.1,0.8c1.3,0,2.3-0.3,3-0.8c0.8-0.5,1.1-1.3,1.1-2.1c0-0.4-0.1-0.7-0.2-1s-0.3-0.5-0.6-0.7
			c-0.3-0.2-0.5-0.3-0.8-0.5c-0.3-0.1-0.6-0.2-1.1-0.3c-0.4-0.1-0.8-0.1-1.1-0.1c-0.3,0-0.6-0.1-1.1-0.1s-0.8-0.1-1-0.1
			C82.6,372.3,81.7,373.2,81.7,374.5z M82.5,362c0,1.1,0.3,2,0.9,2.7s1.4,1.1,2.5,1.1c1,0,1.8-0.3,2.4-1s0.9-1.6,0.9-2.7V361
			c0-1-0.3-1.9-0.9-2.6s-1.4-1.1-2.4-1.1s-1.9,0.3-2.4,1c-0.6,0.7-0.9,1.6-0.9,2.6L82.5,362L82.5,362z"/>
		<path id="XMLID_248_" class="st0" d="M98.4,370.6v-14.1c0-0.3,0.1-0.5,0.4-0.7c0.3-0.2,0.6-0.3,1-0.3s0.7,0.1,0.9,0.3
			c0.2,0.2,0.4,0.4,0.4,0.7v1.6c0.4-0.8,1-1.4,1.8-2s1.7-0.8,2.7-0.8h1.2c0.3,0,0.5,0.1,0.8,0.4c0.2,0.3,0.3,0.6,0.3,0.9
			s-0.1,0.6-0.3,0.9s-0.5,0.4-0.8,0.4h-1.2c-1.2,0-2.2,0.5-3,1.4c-0.9,0.9-1.3,2.1-1.3,3.6v7.7c0,0.2-0.1,0.5-0.4,0.7
			c-0.3,0.2-0.6,0.3-1,0.3s-0.7-0.1-1-0.3C98.6,371.1,98.4,370.9,98.4,370.6z"/>
		<path id="XMLID_250_" class="st0" d="M111.7,367.4c0-1.8,0.7-3,2-3.7c1.4-0.7,3.3-1,5.9-1h1.6V362c0-1.1-0.3-2.1-0.9-3
			c-0.6-0.8-1.6-1.3-2.8-1.3c-1,0-1.8,0.2-2.5,0.5s-1.1,0.5-1.2,0.5c-0.3,0-0.6-0.2-0.8-0.5s-0.3-0.6-0.3-1c0-0.5,0.5-1,1.5-1.4
			s2.1-0.6,3.3-0.6c2.2,0,3.9,0.6,4.9,1.9c1.1,1.3,1.6,2.8,1.6,4.7v8.7c0,0.3-0.1,0.5-0.4,0.7c-0.3,0.2-0.6,0.3-1,0.3
			s-0.7-0.1-0.9-0.3c-0.2-0.2-0.4-0.4-0.4-0.7v-1.3c-1.5,1.7-3.3,2.6-5.1,2.6c-1.4,0-2.5-0.4-3.3-1.1
			C112.2,370,111.7,368.9,111.7,367.4z M114.6,367.1c0,0.9,0.2,1.5,0.7,1.9s1.1,0.7,1.9,0.7c1,0,1.9-0.4,2.8-1.2
			c0.9-0.8,1.3-1.6,1.3-2.4v-1.8h-1.2c-0.7,0-1.2,0-1.7,0.1c-0.5,0-1,0.1-1.5,0.2s-0.9,0.3-1.3,0.4c-0.4,0.1-0.6,0.5-0.8,0.8
			S114.6,366.6,114.6,367.1z"/>
		<path id="XMLID_253_" class="st0" d="M130.7,378.4v-21.9c0-0.3,0.1-0.5,0.4-0.7c0.3-0.2,0.6-0.3,1-0.3s0.7,0.1,1,0.3
			c0.2,0.2,0.4,0.4,0.4,0.7v1.4c0.4-0.7,1-1.4,1.8-1.9s1.7-0.8,2.8-0.8c1.7,0,3.1,0.6,4.3,1.9s1.8,2.8,1.8,4.6v3.5
			c0,1.7-0.6,3.3-1.8,4.6c-1.2,1.3-2.6,2-4.2,2c-1,0-1.9-0.3-2.7-0.8s-1.4-1.2-1.8-1.9v9.2c0,0.2-0.1,0.5-0.4,0.7
			c-0.3,0.2-0.6,0.3-1,0.3s-0.7-0.1-1-0.3C131,378.8,130.7,378.6,130.7,378.4z M133.5,366.2c0,0.6,0.4,1.2,1.2,2s1.7,1.1,2.7,1.1
			s1.9-0.4,2.7-1.2c0.8-0.8,1.2-1.8,1.2-2.8v-3.4c0-1-0.4-1.9-1.2-2.7c-0.8-0.8-1.7-1.2-2.8-1.2c-1,0-1.9,0.4-2.6,1.1
			s-1.1,1.7-1.1,2.9L133.5,366.2L133.5,366.2z"/>
		<path id="XMLID_256_" class="st0" d="M150.2,370.6v-23.8c0-0.3,0.1-0.5,0.4-0.7c0.3-0.2,0.6-0.3,1-0.3s0.7,0.1,1,0.3
			c0.3,0.2,0.4,0.4,0.4,0.7v11.1c0.4-0.7,1-1.4,1.7-1.9c0.8-0.5,1.7-0.8,2.7-0.8c1.6,0,3,0.6,4.2,1.9s1.8,2.8,1.8,4.6v8.8
			c0,0.3-0.1,0.6-0.4,0.7c-0.3,0.2-0.6,0.3-1,0.3s-0.7-0.1-1-0.3c-0.3-0.2-0.4-0.4-0.4-0.7v-8.8c0-1-0.4-1.9-1.2-2.7
			c-0.8-0.8-1.7-1.2-2.7-1.2s-1.8,0.4-2.6,1.1c-0.7,0.7-1.1,1.7-1.1,2.9v8.8c0,0.2-0.1,0.5-0.4,0.7c-0.3,0.2-0.6,0.3-1,0.3
			s-0.7-0.1-1-0.3C150.3,371.1,150.2,370.9,150.2,370.6z"/>
	</g>
	<g id="XMLID_95_">
		<path id="XMLID_96_" class="st1" d="M-201.6,505.9c0-0.4,0.3-0.8,0.8-1.1c0.5-0.3,1.1-0.5,1.7-0.5c0.7,0,1.2,0.3,1.4,0.8l6.1,21
			l6-21c0.2-0.5,0.6-0.8,1.3-0.8c0.6,0,1.1,0.2,1.7,0.5c0.5,0.3,0.8,0.7,0.8,1.1c0,0.1,0,0.2-0.1,0.3l-7.3,23.9
			c-0.1,0.4-0.4,0.7-0.9,1c-0.5,0.2-1,0.4-1.6,0.4c-1.4,0-2.2-0.4-2.5-1.3l-7.4-23.9C-201.6,506.2-201.6,506.1-201.6,505.9z"/>
		<path id="XMLID_98_" class="st1" d="M-127.2,529.9v-24.3c0-0.4,0.2-0.7,0.6-0.9c0.4-0.2,0.8-0.3,1.4-0.3c0.5,0,1,0.1,1.4,0.3
			c0.4,0.2,0.6,0.5,0.6,0.9V530c0,0.4-0.2,0.7-0.6,0.9s-0.8,0.3-1.4,0.3c-0.5,0-1-0.1-1.4-0.3C-127,530.7-127.2,530.3-127.2,529.9z"
			/>
		<path id="XMLID_100_" class="st1" d="M-68.1,527.2c0-0.5,0.2-0.9,0.5-1.4c0.3-0.5,0.7-0.7,1.2-0.7c0.3,0,0.6,0.2,1,0.5
			c0.4,0.3,0.8,0.7,1.1,1c0.4,0.4,0.9,0.7,1.7,1c0.7,0.3,1.6,0.5,2.5,0.5c1.4,0,2.5-0.3,3.4-1c0.8-0.7,1.3-1.6,1.3-2.9
			c0-1.2-0.4-2.2-1.2-3c-0.8-0.8-1.8-1.4-3-1.9s-2.3-1-3.5-1.5c-1.2-0.5-2.2-1.4-3-2.4c-0.8-1-1.2-2.4-1.2-4.1
			c0-1.3,0.3-2.4,0.8-3.4c0.5-1,1.2-1.7,2-2.2c0.9-0.5,1.8-0.9,2.7-1.1s1.9-0.3,3-0.3c0.7,0,1.4,0,2.1,0.1s1.4,0.2,2.2,0.4
			c0.7,0.2,1.3,0.5,1.8,0.8c0.5,0.4,0.7,0.8,0.7,1.2s-0.1,0.9-0.4,1.4s-0.7,0.7-1.2,0.7c-0.2,0-0.6-0.1-1-0.4
			c-0.4-0.2-1-0.5-1.7-0.7s-1.5-0.4-2.4-0.4c-1.4,0-2.5,0.3-3.4,0.8c-0.9,0.5-1.3,1.4-1.3,2.5c0,0.7,0.2,1.4,0.7,1.9
			c0.4,0.5,1,1,1.7,1.3s1.5,0.7,2.3,1c0.9,0.3,1.7,0.7,2.6,1.2c0.9,0.5,1.6,1,2.3,1.5c0.7,0.5,1.3,1.4,1.7,2.4s0.7,2.2,0.7,3.5
			c0,2.5-0.8,4.5-2.3,5.8s-3.6,2-6.1,2c-2.3,0-4.2-0.5-5.8-1.4C-67.3,529.2-68.1,528.2-68.1,527.2z"/>
		<path id="XMLID_102_" class="st1" d="M3.8,523.2v-17.6c0-0.4,0.2-0.7,0.6-0.9s0.8-0.3,1.4-0.3s1,0.1,1.4,0.3s0.6,0.5,0.6,0.9v17.7
			c0,1.6,0.4,2.8,1.2,3.6s1.9,1.2,3.3,1.2c3,0,4.5-1.6,4.5-4.8v-17.7c0-0.4,0.2-0.7,0.6-0.9s0.8-0.3,1.4-0.3s1,0.1,1.4,0.3
			s0.6,0.5,0.6,0.9v17.7c0,2.8-0.8,4.9-2.3,6.2s-3.6,2-6.1,2s-4.6-0.7-6.1-2C4.6,528.1,3.8,526.1,3.8,523.2z"/>
		<path id="XMLID_108_" class="st1" d="M75,529.6c0-0.1,0-0.3,0-0.3l7.3-23.9c0.3-0.9,1.2-1.3,2.6-1.3c1.5,0,2.3,0.4,2.7,1.2
			l7.3,23.9c0,0.2,0.1,0.3,0.1,0.3c0,0.5-0.3,0.9-0.9,1.2c-0.6,0.3-1.2,0.5-1.8,0.5c-0.8,0-1.3-0.3-1.4-0.8l-1.5-5.3h-9.1l-1.5,5.3
			c-0.2,0.5-0.6,0.8-1.4,0.8c-0.6,0-1.1-0.2-1.7-0.5C75.3,530.4,75,530.1,75,529.6z M81.2,522.1h7.3l-3.7-12.6L81.2,522.1z"/>
		<path id="XMLID_112_" class="st1" d="M149.4,529.9v-24.3c0-0.4,0.2-0.7,0.6-0.9s0.8-0.3,1.4-0.3s1,0.1,1.4,0.3s0.6,0.5,0.6,0.9
			v22.2h9.6c0.4,0,0.7,0.2,0.9,0.5s0.3,0.8,0.3,1.2c0,0.5-0.1,0.9-0.3,1.2s-0.5,0.5-0.9,0.5h-11.8c-0.5,0-0.9-0.1-1.2-0.3
			C149.6,530.7,149.4,530.3,149.4,529.9z"/>
		<path id="XMLID_114_" class="st1" d="M-199.7,574.2v-24.4c0-0.3,0.2-0.6,0.5-0.9c0.3-0.2,0.7-0.4,1.2-0.4h6.5c2.5,0,4.5,0.7,6,2
			s2.3,3.4,2.3,6.2v10.5c0,2.8-0.8,4.9-2.3,6.2s-3.5,2-6,2h-6.5c-0.5,0-0.9-0.1-1.2-0.4C-199.5,574.8-199.7,574.6-199.7,574.2z
			 M-195.7,572h4.3c2.9,0,4.4-1.6,4.4-4.8v-10.5c0-3.2-1.5-4.8-4.4-4.8h-4.3V572z"/>
		<path id="XMLID_121_" class="st1" d="M-127.3,574.2v-24.4c0-0.4,0.2-0.7,0.5-0.9s0.7-0.3,1.2-0.3h13.1c0.4,0,0.7,0.2,1,0.5
			c0.2,0.3,0.3,0.7,0.3,1.2s-0.1,0.9-0.4,1.3c-0.3,0.4-0.5,0.5-0.9,0.5h-10.9v8.4h5.7c0.4,0,0.7,0.2,0.9,0.5s0.4,0.7,0.4,1.1
			c0,0.4-0.1,0.7-0.3,1s-0.5,0.5-1,0.5h-5.7v8.5h10.9c0.4,0,0.7,0.2,0.9,0.5s0.4,0.8,0.4,1.3c0,0.4-0.1,0.8-0.3,1.2s-0.5,0.5-1,0.5
			h-13.1c-0.5,0-0.9-0.1-1.2-0.3C-127.1,574.9-127.3,574.6-127.3,574.2z"/>
		<path id="XMLID_124_" class="st1" d="M-58.1,571.4c0-0.5,0.2-0.9,0.5-1.4s0.7-0.7,1.2-0.7c0.3,0,0.6,0.2,1,0.5
			c0.4,0.3,0.8,0.7,1.1,1c0.4,0.4,0.9,0.7,1.7,1c0.7,0.3,1.6,0.5,2.5,0.5c1.4,0,2.5-0.3,3.4-1c0.8-0.7,1.3-1.6,1.3-2.9
			c0-1.2-0.4-2.2-1.2-3c-0.8-0.8-1.8-1.4-3-1.9c-1.2-0.5-2.3-1-3.5-1.5s-2.2-1.4-3-2.4c-0.8-1.1-1.2-2.4-1.2-4.1
			c0-1.3,0.3-2.4,0.8-3.4s1.2-1.7,2-2.2c0.9-0.5,1.8-0.9,2.7-1.1c0.9-0.2,1.9-0.3,3-0.3c0.7,0,1.4,0,2.1,0.1s1.4,0.2,2.2,0.4
			c0.7,0.2,1.3,0.5,1.8,0.8s0.7,0.8,0.7,1.2s-0.1,0.9-0.4,1.4c-0.3,0.5-0.7,0.7-1.2,0.7c-0.2,0-0.6-0.1-1-0.4
			c-0.4-0.2-1-0.5-1.7-0.7s-1.5-0.4-2.4-0.4c-1.4,0-2.5,0.3-3.4,0.8c-0.8,0.6-1.3,1.4-1.3,2.5c0,0.7,0.2,1.4,0.7,1.9
			c0.4,0.5,1,1,1.7,1.3s1.5,0.7,2.3,1c0.9,0.3,1.7,0.7,2.6,1.2c0.9,0.5,1.6,1,2.3,1.5c0.7,0.5,1.3,1.4,1.7,2.4
			c0.4,1,0.7,2.2,0.7,3.5c0,2.5-0.8,4.5-2.3,5.8s-3.6,2-6.1,2c-2.3,0-4.2-0.5-5.8-1.4C-57.3,573.4-58.1,572.4-58.1,571.4z"/>
		<path id="XMLID_131_" class="st1" d="M13.4,574.2v-24.4c0-0.4,0.2-0.7,0.6-0.9c0.4-0.2,0.8-0.3,1.4-0.3c0.6,0,1,0.1,1.4,0.3
			s0.6,0.5,0.6,0.9v24.4c0,0.4-0.2,0.7-0.6,0.9c-0.4,0.2-0.8,0.3-1.4,0.3c-0.5,0-1-0.1-1.4-0.3C13.6,574.9,13.4,574.6,13.4,574.2z"
			/>
		<path id="XMLID_133_" class="st1" d="M73.1,567.5v-10.7c0-2.8,0.7-4.9,2.2-6.2s3.5-2,5.9-2c2.5,0,4.5,0.6,6.1,1.9
			c1.6,1.2,2.3,2.9,2.3,5c0,0.7-0.2,1.2-0.5,1.5s-0.8,0.4-1.5,0.4c-1.3,0-1.9-0.4-2-1.3c-0.3-2.6-1.7-3.9-4.4-3.9
			c-2.9,0-4.3,1.6-4.3,4.8v10.7c0,3.2,1.4,4.8,4.3,4.8c1.4,0,2.5-0.4,3.2-1.2c0.8-0.8,1.1-2,1.1-3.6v-3h-3.7c-0.4,0-0.7-0.2-0.9-0.5
			c-0.2-0.3-0.3-0.7-0.3-1.1c0-0.4,0.1-0.7,0.3-1.1c0.2-0.3,0.5-0.5,0.9-0.5h6.3c0.4,0,0.7,0.1,0.9,0.4c0.2,0.3,0.3,0.6,0.3,0.9v4.8
			c0,2.8-0.8,4.9-2.3,6.2s-3.5,2-6,2s-4.5-0.7-6-2C73.9,572.4,73.1,570.3,73.1,567.5z"/>
		<path id="XMLID_135_" class="st1" d="M145.1,574.2v-24.4c0-0.9,0.7-1.3,2-1.3c0.7,0,1.2,0.2,1.7,0.5c0.4,0.3,0.8,0.9,1.3,1.8
			l8.2,16v-16.9c0-0.4,0.2-0.7,0.6-0.9c0.4-0.2,0.8-0.3,1.4-0.3s1,0.1,1.4,0.3s0.6,0.5,0.6,0.9v24.4c0,0.4-0.2,0.7-0.6,0.9
			c-0.4,0.2-0.8,0.3-1.4,0.3c-1,0-1.8-0.5-2.3-1.4l-8.8-16.8v16.9c0,0.4-0.2,0.7-0.6,0.9c-0.4,0.2-0.8,0.3-1.4,0.3
			c-0.5,0-1-0.1-1.4-0.3S145.1,574.6,145.1,574.2z"/>
	</g>
	<g id="XMLID_47_">
		<path id="XMLID_48_" class="st1" d="M-201.6,227.4c0-0.1,0-0.3,0-0.3l7.3-23.9c0.3-0.9,1.2-1.3,2.6-1.3c1.5,0,2.3,0.4,2.7,1.2
			l7.3,23.9c0,0.2,0.1,0.3,0.1,0.3c0,0.5-0.3,0.9-0.9,1.2c-0.6,0.3-1.2,0.5-1.8,0.5c-0.8,0-1.3-0.3-1.4-0.8l-1.5-5.3h-9.1l-1.5,5.3
			c-0.2,0.5-0.6,0.8-1.4,0.8c-0.6,0-1.1-0.2-1.7-0.5C-201.3,228.2-201.6,227.8-201.6,227.4z M-195.4,219.8h7.3l-3.7-12.6
			L-195.4,219.8z"/>
		<path id="XMLID_51_" class="st1" d="M-145.9,227.7v-24.4c0-0.3,0.1-0.6,0.4-0.9c0.2-0.2,0.6-0.4,0.9-0.4h7c5.7,0,8.5,2.5,8.5,7.5
			c0,2.1-0.5,3.7-1.4,4.9c-0.9,1.2-2.2,2-3.8,2.4l5.2,9.7c0.1,0.2,0.1,0.4,0.1,0.6c0,0.5-0.3,0.9-0.8,1.4c-0.5,0.4-1,0.6-1.6,0.6
			c-0.6,0-1.2-0.4-1.5-1.1l-5.4-10.6h-3.7v10.3c0,0.4-0.2,0.7-0.6,0.9c-0.4,0.2-0.8,0.4-1.4,0.4c-0.5,0-1-0.1-1.3-0.3
			C-145.7,228.4-145.9,228.1-145.9,227.7z M-142,214.3h4.4c3,0,4.6-1.5,4.6-4.4s-1.5-4.4-4.6-4.4h-4.4V214.3z"/>
		<path id="XMLID_54_" class="st1" d="M-94.4,203.9c0-0.5,0.1-0.9,0.3-1.2c0.2-0.4,0.5-0.5,1-0.5h15.3c0.4,0,0.7,0.2,1,0.5
			c0.2,0.3,0.3,0.8,0.3,1.2c0,0.5-0.1,1-0.4,1.3c-0.2,0.4-0.5,0.5-0.9,0.5h-5.7v22c0,0.4-0.2,0.7-0.6,0.9c-0.4,0.2-0.8,0.3-1.4,0.3
			c-0.5,0-1-0.1-1.4-0.3s-0.6-0.5-0.6-0.9v-22h-5.7c-0.4,0-0.7-0.2-0.9-0.5C-94.3,204.8-94.4,204.4-94.4,203.9z"/>
		<path id="XMLID_56_" class="st1" d="M-40.6,227.7v-24.4c0-0.4,0.2-0.7,0.6-0.9c0.4-0.2,0.8-0.3,1.4-0.3s1,0.1,1.4,0.3
			c0.4,0.2,0.6,0.5,0.6,0.9v24.4c0,0.4-0.2,0.7-0.6,0.9c-0.4,0.2-0.8,0.3-1.4,0.3c-0.5,0-1-0.1-1.4-0.3
			C-40.4,228.4-40.6,228.1-40.6,227.7z"/>
		<path id="XMLID_58_" class="st1" d="M-0.1,225c0-0.5,0.2-0.9,0.5-1.4s0.7-0.7,1.2-0.7c0.3,0,0.6,0.2,1,0.5s0.8,0.7,1.1,1
			c0.4,0.4,0.9,0.7,1.7,1c0.7,0.3,1.6,0.5,2.5,0.5c1.4,0,2.5-0.3,3.4-1c0.8-0.7,1.3-1.6,1.3-2.9c0-1.2-0.4-2.2-1.2-3s-1.8-1.4-3-1.9
			s-2.3-1-3.5-1.5s-2.2-1.4-3-2.4c-0.8-1.1-1.2-2.4-1.2-4.1c0-1.3,0.3-2.4,0.8-3.4s1.2-1.7,2-2.2c0.9-0.5,1.8-0.9,2.7-1.1
			c0.9-0.2,1.9-0.3,3-0.3c0.7,0,1.4,0,2.1,0.1c0.7,0.1,1.4,0.2,2.2,0.4c0.7,0.2,1.3,0.5,1.8,0.8s0.7,0.8,0.7,1.2s-0.1,0.9-0.4,1.4
			s-0.7,0.7-1.2,0.7c-0.2,0-0.6-0.1-1-0.4c-0.4-0.2-1-0.5-1.7-0.7s-1.5-0.4-2.4-0.4c-1.4,0-2.5,0.3-3.4,0.8s-1.3,1.4-1.3,2.5
			c0,0.7,0.2,1.4,0.7,1.9c0.4,0.5,1,1,1.7,1.3s1.5,0.7,2.3,1c0.9,0.3,1.7,0.7,2.6,1.2s1.6,1,2.3,1.5s1.3,1.4,1.7,2.4
			c0.4,1,0.7,2.2,0.7,3.5c0,2.5-0.8,4.5-2.3,5.8s-3.6,2-6.1,2c-2.3,0-4.2-0.5-5.8-1.4C0.7,226.9-0.1,226-0.1,225z"/>
		<path id="XMLID_60_" class="st1" d="M51.3,203.9c0-0.5,0.1-0.9,0.3-1.2c0.2-0.4,0.5-0.5,1-0.5h15.3c0.4,0,0.7,0.2,1,0.5
			c0.2,0.3,0.3,0.8,0.3,1.2c0,0.5-0.1,1-0.4,1.3c-0.2,0.4-0.5,0.5-0.9,0.5h-5.7v22c0,0.4-0.2,0.7-0.6,0.9s-0.8,0.3-1.4,0.3
			c-0.5,0-1-0.1-1.4-0.3s-0.6-0.5-0.6-0.9v-22h-5.7c-0.4,0-0.7-0.2-0.9-0.5C51.4,204.8,51.3,204.4,51.3,203.9z"/>
		<path id="XMLID_65_" class="st1" d="M105.2,227.7v-24.4c0-0.4,0.2-0.7,0.6-0.9s0.8-0.3,1.4-0.3s1,0.1,1.4,0.3s0.6,0.5,0.6,0.9
			v24.4c0,0.4-0.2,0.7-0.6,0.9c-0.4,0.2-0.8,0.3-1.4,0.3c-0.5,0-1-0.1-1.4-0.3C105.4,228.4,105.2,228.1,105.2,227.7z"/>
		<path id="XMLID_67_" class="st1" d="M146.8,221v-10.7c0-2.8,0.8-4.9,2.3-6.2s3.5-2,5.9-2c2.5,0,4.5,0.6,6.1,1.9
			c1.5,1.2,2.3,2.8,2.3,4.8c0,0.8-0.1,1.3-0.4,1.6s-0.8,0.4-1.5,0.4c-1.3,0-1.9-0.4-2-1.3c-0.1-2.6-1.6-3.9-4.3-3.9
			c-2.9,0-4.4,1.6-4.4,4.8v10.7c0,3.2,1.5,4.8,4.5,4.8c0.9,0,1.6-0.1,2.2-0.4s1-0.6,1.3-1.1s0.4-0.9,0.5-1.3s0.2-0.8,0.2-1.4
			c0.1-0.9,0.7-1.3,1.9-1.3c0.7,0,1.2,0.1,1.5,0.4s0.5,0.8,0.5,1.6c0,2-0.8,3.7-2.3,5s-3.6,1.9-6.1,1.9c-2.4,0-4.4-0.7-5.9-2
			C147.5,225.9,146.8,223.8,146.8,221z"/>
		<path id="XMLID_69_" class="st1" d="M-199.7,271.9v-24.3c0-0.4,0.2-0.7,0.6-0.9c0.4-0.2,0.8-0.3,1.4-0.3c0.5,0,1,0.1,1.4,0.3
			s0.6,0.5,0.6,0.9V272c0,0.4-0.2,0.7-0.6,0.9c-0.4,0.2-0.8,0.3-1.4,0.3c-0.5,0-1-0.1-1.4-0.3C-199.5,272.7-199.7,272.3-199.7,271.9
			z"/>
		<path id="XMLID_71_" class="st1" d="M-173,271.9v-24.3c0-0.9,0.7-1.3,2-1.3c0.7,0,1.2,0.2,1.7,0.5c0.4,0.3,0.8,0.9,1.3,1.8l8.2,16
			v-17c0-0.4,0.2-0.7,0.6-0.9c0.4-0.2,0.8-0.3,1.4-0.3c0.5,0,1,0.1,1.4,0.3c0.4,0.2,0.6,0.5,0.6,0.9V272c0,0.4-0.2,0.7-0.6,0.9
			c-0.4,0.2-0.8,0.3-1.4,0.3c-1,0-1.8-0.5-2.3-1.4l-8.8-16.8v16.9c0,0.4-0.2,0.7-0.6,0.9c-0.4,0.2-0.8,0.3-1.4,0.3
			c-0.5,0-1-0.1-1.4-0.3C-172.8,272.7-173,272.3-173,271.9z"/>
		<path id="XMLID_73_" class="st1" d="M-134.6,269.2c0-0.5,0.2-0.9,0.5-1.4s0.7-0.7,1.2-0.7c0.3,0,0.6,0.2,1,0.5
			c0.4,0.3,0.8,0.7,1.1,1c0.4,0.4,0.9,0.7,1.7,1c0.7,0.3,1.6,0.5,2.5,0.5c1.4,0,2.5-0.3,3.4-1c0.8-0.7,1.3-1.6,1.3-2.9
			c0-1.2-0.4-2.2-1.2-3c-0.8-0.8-1.8-1.4-3-1.9s-2.3-1-3.5-1.5s-2.2-1.4-3-2.4c-0.8-1.1-1.2-2.4-1.2-4.1c0-1.3,0.3-2.4,0.8-3.4
			s1.2-1.7,2-2.2c0.9-0.5,1.8-0.9,2.7-1.1c0.9-0.2,1.9-0.3,3-0.3c0.7,0,1.4,0,2.1,0.1s1.4,0.2,2.2,0.4c0.7,0.2,1.3,0.5,1.8,0.8
			s0.7,0.8,0.7,1.2s-0.1,0.9-0.4,1.4s-0.7,0.7-1.2,0.7c-0.2,0-0.6-0.1-1-0.4c-0.4-0.2-1-0.5-1.7-0.7s-1.5-0.4-2.4-0.4
			c-1.4,0-2.5,0.3-3.4,0.8c-0.8,0.6-1.3,1.4-1.3,2.5c0,0.7,0.2,1.4,0.7,1.9c0.4,0.5,1,1,1.7,1.3c0.7,0.3,1.5,0.7,2.3,1
			c0.9,0.3,1.7,0.7,2.6,1.2s1.6,1,2.3,1.5s1.3,1.4,1.7,2.4s0.7,2.2,0.7,3.5c0,2.5-0.8,4.5-2.3,5.8s-3.6,2-6.1,2
			c-2.3,0-4.2-0.5-5.8-1.4C-133.9,271.2-134.6,270.2-134.6,269.2z"/>
		<path id="XMLID_75_" class="st1" d="M-96.5,271.9v-24.3c0-0.3,0.1-0.6,0.4-0.9c0.3-0.2,0.6-0.4,1.1-0.4h7.2c2.5,0,4.4,0.7,5.9,2
			s2.2,3.4,2.2,6.2v0.3c0,2.8-0.8,4.9-2.3,6.2c-1.5,1.3-3.5,2-6,2h-4.6v9.1c0,0.4-0.2,0.7-0.6,0.9c-0.4,0.2-0.8,0.3-1.4,0.3
			c-0.5,0-1-0.1-1.4-0.3C-96.3,272.7-96.5,272.3-96.5,271.9z M-92.6,259.8h4.6c1.4,0,2.5-0.4,3.2-1.2c0.8-0.8,1.1-2,1.1-3.6v-0.4
			c0-1.6-0.4-2.8-1.1-3.6c-0.8-0.8-1.8-1.2-3.2-1.2h-4.6V259.8z"/>
		<path id="XMLID_78_" class="st1" d="M-58.6,271.9v-24.3c0-0.4,0.2-0.7,0.6-0.9c0.4-0.2,0.8-0.3,1.4-0.3c0.6,0,1,0.1,1.4,0.3
			c0.4,0.2,0.6,0.5,0.6,0.9V272c0,0.4-0.2,0.7-0.6,0.9c-0.4,0.2-0.8,0.3-1.4,0.3c-0.5,0-1-0.1-1.4-0.3
			C-58.4,272.7-58.6,272.3-58.6,271.9z"/>
		<path id="XMLID_80_" class="st1" d="M-31.9,271.9v-24.3c0-0.3,0.1-0.6,0.4-0.9c0.2-0.2,0.6-0.4,0.9-0.4h7c5.7,0,8.5,2.5,8.5,7.5
			c0,2.1-0.5,3.7-1.4,4.9c-0.9,1.2-2.2,2-3.8,2.4l5.2,9.7c0.1,0.2,0.1,0.4,0.1,0.6c0,0.5-0.3,0.9-0.8,1.4c-0.5,0.5-1,0.6-1.6,0.6
			s-1.2-0.4-1.5-1.1l-5.5-10.7h-3.7v10.3c0,0.4-0.2,0.7-0.6,0.9c-0.4,0.2-0.8,0.4-1.4,0.4c-0.5,0-1-0.1-1.3-0.3
			C-31.8,272.7-31.9,272.3-31.9,271.9z M-28.1,258.5h4.4c3,0,4.6-1.5,4.6-4.4c0-2.9-1.5-4.4-4.6-4.4h-4.4V258.5z"/>
		<path id="XMLID_83_" class="st1" d="M4.6,271.6c0-0.1,0-0.3,0-0.3l7.3-23.9c0.3-0.9,1.2-1.3,2.6-1.3c1.5,0,2.3,0.4,2.7,1.2
			l7.3,23.9c0,0.2,0.1,0.3,0.1,0.3c0,0.5-0.3,0.9-0.9,1.2c-0.6,0.3-1.2,0.5-1.8,0.5c-0.8,0-1.3-0.3-1.4-0.8l-1.5-5.3H9.9l-1.5,5.3
			c-0.2,0.5-0.6,0.8-1.4,0.8c-0.6,0-1.1-0.2-1.7-0.5C4.9,272.4,4.6,272.1,4.6,271.6z M10.8,264.1h7.3l-3.7-12.6L10.8,264.1z"/>
		<path id="XMLID_86_" class="st1" d="M41.1,248.1c0-0.5,0.1-0.9,0.3-1.2c0.2-0.4,0.5-0.5,1-0.5h15.3c0.4,0,0.7,0.2,1,0.5
			c0.2,0.3,0.3,0.8,0.3,1.2c0,0.5-0.1,1-0.4,1.3c-0.2,0.4-0.5,0.5-0.9,0.5H52v22c0,0.4-0.2,0.7-0.6,0.9c-0.4,0.2-0.8,0.3-1.4,0.3
			c-0.5,0-1-0.1-1.4-0.3c-0.4-0.2-0.6-0.5-0.6-0.9v-22h-5.7c-0.4,0-0.7-0.2-0.9-0.5C41.2,249,41.1,248.6,41.1,248.1z"/>
		<path id="XMLID_88_" class="st1" d="M79.8,271.9v-24.3c0-0.4,0.2-0.7,0.6-0.9s0.8-0.3,1.4-0.3s1,0.1,1.4,0.3s0.6,0.5,0.6,0.9V272
			c0,0.4-0.2,0.7-0.6,0.9s-0.8,0.3-1.4,0.3c-0.5,0-1-0.1-1.4-0.3S79.8,272.3,79.8,271.9z"/>
		<path id="XMLID_90_" class="st1" d="M106.1,265.2v-10.7c0-2.8,0.7-4.9,2.2-6.2s3.5-2,6-2s4.5,0.7,6,2s2.3,3.4,2.3,6.2v10.7
			c0,2.8-0.8,4.9-2.3,6.2s-3.5,2-6,2s-4.5-0.7-6-2C106.9,270.1,106.1,268.1,106.1,265.2z M110,265.2c0,3.2,1.4,4.8,4.3,4.8
			c1.4,0,2.5-0.4,3.2-1.2c0.8-0.8,1.1-2,1.1-3.6v-10.7c0-1.6-0.4-2.8-1.1-3.6c-0.8-0.8-1.8-1.2-3.2-1.2c-2.9,0-4.3,1.6-4.3,4.8
			V265.2z"/>
		<path id="XMLID_93_" class="st1" d="M145.1,271.9v-24.3c0-0.9,0.7-1.3,2-1.3c0.7,0,1.2,0.2,1.7,0.5c0.4,0.3,0.8,0.9,1.3,1.8
			l8.2,16v-17c0-0.4,0.2-0.7,0.6-0.9c0.4-0.2,0.8-0.3,1.4-0.3s1,0.1,1.4,0.3s0.6,0.5,0.6,0.9V272c0,0.4-0.2,0.7-0.6,0.9
			s-0.8,0.3-1.4,0.3c-1,0-1.8-0.5-2.3-1.4l-8.8-16.8v16.9c0,0.4-0.2,0.7-0.6,0.9c-0.4,0.2-0.8,0.3-1.4,0.3c-0.5,0-1-0.1-1.4-0.3
			C145.4,272.6,145.1,272.3,145.1,271.9z"/>
	</g>
</g>
</svg>
