<?xml version="1.0" encoding="utf-8"?>
<!-- Generator: Adobe Illustrator 19.0.0, SVG Export Plug-In . SVG Version: 6.00 Build 0)  -->
<svg version="1.1" id="Layer_1" xmlns="http://www.w3.org/2000/svg" xmlns:xlink="http://www.w3.org/1999/xlink" x="0px" y="0px"
	 viewBox="-436.8 352 141.7 141.7" style="enable-background:new -436.8 352 141.7 141.7;" xml:space="preserve">
<style type="text/css">
	.st0{fill:#FF9696;}
</style>
<g id="XMLID_144_">
	<circle id="XMLID_23_" class="st0" cx="-366" cy="423.5" r="15.4"/>
	<g>
		<path class="st0" d="M-334.7,423.5c0,17.2-14,31.2-31.2,31.2s-31.2-14-31.2-31.2c0-1.8,0.2-3.6,0.5-5.3h-40.2v75.5h141.7v-75.5
			h-40.1C-334.9,419.9-334.7,421.7-334.7,423.5z"/>
		<g>
			<path class="st0" d="M-436.8,352v49.3h48.9c5.6-5.5,13.4-9,21.9-9s16.3,3.4,21.9,9h49V352H-436.8z M-321.5,386.3
				c-5.4,0-9.7-4.3-9.7-9.7c0-5.4,4.3-9.7,9.7-9.7c5.4,0,9.7,4.3,9.7,9.7C-311.8,382-316.2,386.3-321.5,386.3z"/>
		</g>
	</g>
</g>
</svg>
