<?xml version="1.0" encoding="utf-8"?>
<!-- Generator: Adobe Illustrator 19.0.0, SVG Export Plug-In . SVG Version: 6.00 Build 0)  -->
<svg version="1.1" id="Layer_1" xmlns="http://www.w3.org/2000/svg" xmlns:xlink="http://www.w3.org/1999/xlink" x="0px" y="0px"
	 viewBox="-247 -77.6 637.5 978.5" style="enable-background:new -247 -77.6 637.5 978.5;" xml:space="preserve">
<style type="text/css">
	.st0{opacity:0.7;}
	.st1{fill:#EFB1AF;}
	.st2{fill:#FFFFFF;}
	.st3{font-family:'Dosis-Medium';}
	.st4{font-size:35.4331px;}
	.st5{font-family:'DINCondensed-Bold';}
	.st6{font-size:53.8558px;}
	.st7{fill:#E5A29D;}
	.st8{opacity:0.9;fill:#FFFFFF;enable-background:new    ;}
	.st9{font-size:53.8583px;}
	.st10{fill:#DB928F;}
	.st11{opacity:0.9;}
	.st12{opacity:0.8;fill:#FFFFFF;enable-background:new    ;}
	.st13{font-size:53.8607px;}
	.st14{opacity:0.85;}
	.st15{fill:#D67B7B;}
	.st16{opacity:0.8;}
	.st17{opacity:0.6;fill:#FFFFFF;enable-background:new    ;}
</style>
<g id="XMLID_9_">
	<g id="XMLID_4_" class="st0">
		
			<image style="overflow:visible;opacity:0.4;enable-background:new    ;" width="2613" height="2254" id="XMLID_43_" xlink:href="9F1A3D94AC9658E4.png"  transform="matrix(0.2394 0 0 0.2397 -235.94 -67.6061)">
		</image>
		<g id="XMLID_30_">
			<polygon id="XMLID_42_" class="st1" points="-229.5,449.1 365.8,449.1 68.2,-61.1 			"/>
		</g>
	</g>
	<g id="XMLID_117_">
		<text id="XMLID_44_" transform="matrix(0.5035 0.864 -0.864 0.5035 105.0471 98.9684)" class="st2 st3 st4">Signage, Furniture, Lighting</text>
	</g>
	<text id="XMLID_113_" transform="matrix(0.5046 -0.8633 0.8633 0.5046 -140.7016 419.5699)" class="st2 st5 st6">FASHION</text>
</g>
<g id="XMLID_10_">
	<g id="XMLID_3_" class="st0">
		
			<image style="overflow:visible;opacity:0.4;enable-background:new    ;" width="2492" height="2138" id="XMLID_39_" xlink:href="9F1A3D94AC9658EA.png"  transform="matrix(0.2396 0 0 0.2394 -221.7678 102.4727)">
		</image>
		<g id="XMLID_28_">
			<polygon id="XMLID_38_" class="st7" points="-215.3,590.9 351.6,590.9 68.2,109 			"/>
		</g>
	</g>
	<text id="XMLID_116_" transform="matrix(0.5035 0.864 -0.864 0.5035 123.0471 300.8925)" class="st8 st3 st4">Construction Materials</text>
	<text id="XMLID_112_" transform="matrix(0.5326 -0.8464 0.8464 0.5326 -133.8841 568.1371)" class="st8 st5 st9">SKIN</text>
</g>
<g id="XMLID_12_">
	<g id="XMLID_2_" class="st0">
		
			<image style="overflow:visible;opacity:0.4;enable-background:new    ;" width="2371" height="2021" id="XMLID_37_" xlink:href="9F1A3D94AC9658EB.png"  transform="matrix(0.2399 0 0 0.2393 -207.5946 272.5514)">
		</image>
		<g id="XMLID_26_">
			<polygon id="XMLID_36_" class="st10" points="-201.1,732.6 337.5,732.6 68.2,279.1 			"/>
		</g>
	</g>
	<g id="XMLID_115_" class="st11">
		<text transform="matrix(0.5035 0.864 -0.864 0.5035 89.5461 418.3823)" class="st2 st3 st4">Planning Space Structure</text>
	</g>
	<text id="XMLID_111_" transform="matrix(0.5304 -0.8478 0.8478 0.5304 -120.2066 716.0849)" class="st12 st5 st13">BONE</text>
</g>
<g id="XMLID_11_">
	<g id="XMLID_5_" class="st14">
		
			<image style="overflow:visible;opacity:0.4;enable-background:new    ;" width="2254" height="1904" id="XMLID_41_" xlink:href="9F1A3D94AC9658ED.png"  transform="matrix(0.2397 0 0 0.2391 -193.4213 442.6301)">
		</image>
		<g id="XMLID_29_">
			<polygon id="XMLID_40_" class="st15" points="-186.9,874.3 323.3,874.3 68.2,449.1 			"/>
		</g>
	</g>
	<g id="XMLID_96_" class="st16">
		<text id="XMLID_45_" transform="matrix(0.5035 0.864 -0.864 0.5035 156.5442 693.8725)" class="st2 st3 st4">Brand Identity</text>
	</g>
	<text id="XMLID_114_" transform="matrix(0.5304 -0.8478 0.8478 0.5304 -110.2065 859.578)" class="st17 st5 st13">SOUL</text>
</g>
</svg>
