<?xml version="1.0" encoding="utf-8"?>
<!-- Generator: Adobe Illustrator 19.0.0, SVG Export Plug-In . SVG Version: 6.00 Build 0)  -->
<svg version="1.1" id="Layer_1" xmlns="http://www.w3.org/2000/svg" xmlns:xlink="http://www.w3.org/1999/xlink" x="0px" y="0px"
	 viewBox="0 0 149 39.7" style="enable-background:new 0 0 149 39.7;" xml:space="preserve">
<style type="text/css">
	.st0{fill:#D9CCCC;}
</style>
<g id="XMLID_3_">
	<path id="XMLID_37_" class="st0" d="M45.8,38.5c-1-0.8-1.8-1.9-2.3-3.1c-0.6-1.3-0.9-2.8-0.9-4.5V8.8c0-1.7,0.3-3.2,0.9-4.5
		C44,3,44.8,2,45.8,1.1c0.5-0.4,1-0.8,1.5-1.1H32.8c3.5,1.7,5.3,5.4,5.3,11.2c0,2.5-0.4,4.6-1.1,6.3c-0.8,1.7-2.1,3.1-4,4.2l6.1,18
		h8.3C46.8,39.4,46.3,39,45.8,38.5z"/>
	<path id="XMLID_38_" class="st0" d="M27,4.6h-3.1v13h3.4c1.1,0,1.9-0.1,2.5-0.4c0.6-0.3,1.1-0.7,1.5-1.3c0.3-0.5,0.5-1.2,0.6-2
		c0.1-0.8,0.2-1.7,0.2-2.8c0-1.1-0.1-2-0.2-2.8c-0.1-0.8-0.4-1.5-0.7-2.1C30.5,5.1,29.1,4.6,27,4.6z"/>
	<polygon id="XMLID_39_" class="st0" points="27.5,22.9 23.9,22.9 23.9,39.7 32.7,39.7 	"/>
	<path id="XMLID_40_" class="st0" d="M17.9,39.7V0H8.3c0.9,0.4,1.7,1.1,2.4,1.9c1,1.1,1.7,2.4,2.1,3.8c0.4,1.5,0.6,3.5,0.6,6
		c0,1.9-0.1,3.5-0.3,4.8c-0.2,1.3-0.7,2.5-1.4,3.6c-0.8,1.4-1.9,2.4-3.3,3.2c-1.4,0.8-3.2,1.1-5.4,1.1H0v15.3H17.9z"/>
	<path id="XMLID_41_" class="st0" d="M123.9,0c0.6,0.4,1.1,0.8,1.6,1.3c0.9,0.9,1.5,2,2,3.2c0.5,1.2,0.7,2.6,0.7,4v2.3h-6v-2
		c0-1.2-0.3-2.2-1-3.1c-0.7-0.9-1.6-1.3-2.7-1.3c-1.5,0-2.5,0.5-3,1.4c-0.5,0.9-0.7,2.1-0.7,3.5v21.4c0,1.2,0.3,2.2,0.8,3.1
		c0.5,0.8,1.5,1.2,2.8,1.2c0.4,0,0.8-0.1,1.3-0.2c0.4-0.1,0.9-0.4,1.3-0.7c0.4-0.3,0.6-0.7,0.9-1.3c0.2-0.5,0.4-1.2,0.4-2.1v-2.1h6
		v2.6c0,1.3-0.2,2.5-0.7,3.7c-0.5,1.2-1.2,2.2-2,3.1c-0.6,0.6-1.2,1.1-1.9,1.5h13.5V4.6h-6.9V0H123.9z"/>
	<path id="XMLID_42_" class="st0" d="M5.8,5.1C5.2,4.7,4.3,4.6,3.1,4.6H0v14.2h2.9c1.2,0,2.2-0.2,2.8-0.5c0.7-0.4,1.2-0.8,1.5-1.5
		c0.3-0.6,0.5-1.3,0.6-2.2c0.1-0.9,0.1-1.8,0.1-2.9c0-1,0-1.9-0.1-2.8c0-0.9-0.2-1.7-0.5-2.3C6.9,6,6.4,5.5,5.8,5.1z"/>
	<rect id="XMLID_43_" x="143.1" y="4.6" class="st0" width="5.9" height="35.1"/>
	<path id="XMLID_44_" class="st0" d="M49.8,5.6c-0.8,0.7-1.2,1.8-1.2,3.2v22.1c0,1.4,0.4,2.5,1.2,3.2c0.8,0.7,1.8,1,2.8,1
		c1.1,0,2-0.3,2.8-1c0.8-0.7,1.2-1.8,1.2-3.2V8.8c0-1.4-0.4-2.5-1.2-3.2c-0.8-0.7-1.8-1-2.8-1C51.5,4.6,50.6,4.9,49.8,5.6z"/>
	<path id="XMLID_45_" class="st0" d="M113.1,39.7c-0.3-0.2-0.7-0.4-1-0.7c-0.9-0.8-1.7-1.8-2.3-3c-0.6-1.2-0.9-2.8-0.9-4.7v-23
		c0-1.4,0.2-2.6,0.7-3.8c0.5-1.2,1.1-2.2,2-3.1c0.5-0.5,1.1-1,1.7-1.3h-8v4.6H93.5v12.3h10.3v5.6H93.5v12.3h11.9v4.9H113.1z"/>
	<path id="XMLID_46_" class="st0" d="M87.5,0h-5.6v30.9c0,2.9-0.9,5.2-2.7,7.2c-0.6,0.6-1.3,1.2-2.1,1.6h10.4V0z"/>
	<path id="XMLID_47_" class="st0" d="M61.8,35.4c-0.6,1.3-1.4,2.3-2.3,3.1c-0.5,0.4-1,0.8-1.6,1.2h8.8c-1.2-0.8-2.1-1.6-2.8-2.3
		l4.7-3.8c0.4,0.4,0.9,0.8,1.5,1.1c0.6,0.3,1.2,0.4,1.8,0.4c0.4,0,0.8-0.1,1.2-0.2c0.5-0.1,0.9-0.4,1.4-0.8c0.4-0.4,0.8-0.9,1.1-1.5
		c0.3-0.6,0.4-1.5,0.4-2.6V0h-18c0.6,0.3,1.1,0.7,1.6,1.1C60.4,2,61.2,3,61.8,4.3c0.6,1.3,0.9,2.8,0.9,4.5v22.1
		C62.7,32.6,62.4,34.2,61.8,35.4z"/>
</g>
</svg>
