<svg id="Layer_1" xmlns="http://www.w3.org/2000/svg" viewBox="-262.1 361.2 129.8 112.1">
  <style>
    .st0{stroke:#525151;stroke-width:.2;stroke-miterlimit:10}.st0,.st1{fill:#525151}.st3{fill:none;stroke:#ed302d;stroke-miterlimit:10}
  </style>
  <g id="XMLID_1_">
    <path id="XMLID_2_" class="st0" d="M-237.6 468.1h-.6l-3.5-9.5-11.3-5.4-5.5 14.9h-.5l10.5-29.1h.4l10.5 29.1zm-4.3-10.1l-6.4-17.8-4.4 12.4 10.8 5.4z"/>
    <path id="XMLID_3_" class="st0" d="M-223 439.7h-6.3v28.5h-.6v-28.5h-6.3v-.6h13.2v.6z"/>
    <path id="XMLID_5_" class="st0" d="M-205 468.1h-12.2v-29h12.2v.6h-11.6v12.9h10v.6h-10v14.3h11.6v.6z"/>
    <path id="XMLID_6_" class="st0" d="M-187 468.1h-12v-28.7h.6v28.2h11.4v.5z"/>
    <path id="XMLID_7_" class="st0" d="M-179.4 468.1h-.6v-29h.6v29z"/>
    <path id="XMLID_8_" class="st0" d="M-159.5 468.1h-12.1v-29h12.1v.6h-11.6v12.9h10v.6h-10v14.3h11.6v.6z"/>
    <path id="XMLID_9_" class="st0" d="M-140.5 452.6l-1.3.5 5.7 15.1h-.7l-5.7-14.9-10.5 4.6v10.3h-.6v-29.1h8.1l5 13.5zm-5.3-12.9h-7v17.5l11.6-5-4.6-12.5z"/>
    <g id="XMLID_10_">
      <path id="XMLID_11_" class="st1" d="M-196.7 434.8h-1.4l-12.1-32.6h-24.2l-11.9 32.6h-1.5l25.1-69.3h.9l25.1 69.3zm-14-34.1l-11.5-32.4-11.7 32.4h23.2z"/>
    </g>
    <g id="XMLID_12_">
      <path id="XMLID_13_" class="st1" d="M-147 434.8h-1.4l-11.9-32.6h-24.5l-11.8 32.6h-1.4l25.1-69.3h.9l25 69.3zm-13.8-34.1l-11.7-32.4-11.7 32.4h23.4z"/>
    </g>
    <path id="XMLID_14_" d="M-219.8 365.8l22.4 62 22.5-62h-44.9zm14.9 36.4l-.5-1.5h15.8l-.5 1.5h-14.8z" fill="#f8bd1e"/>
  </g>
</svg>
