<?xml version="1.0" encoding="utf-8"?>
<!-- Generator: Adobe Illustrator 19.0.0, SVG Export Plug-In . SVG Version: 6.00 Build 0)  -->
<svg version="1.1" id="Layer_1" xmlns="http://www.w3.org/2000/svg" xmlns:xlink="http://www.w3.org/1999/xlink" x="0px" y="0px"
	 viewBox="-262.1 361.2 129.8 112.1" style="enable-background:new -262.1 361.2 129.8 112.1;" xml:space="preserve">
<style type="text/css">
	.st0{fill:#525151;stroke:#525151;stroke-width:0.2;stroke-miterlimit:10;}
	.st1{fill:#525151;}
	.st2{fill:#F8BD1E;}
	.st3{fill:none;stroke:#ED302D;stroke-miterlimit:10;}
</style>
<g id="XMLID_1_">
	<path id="XMLID_2_" class="st0" d="M-237.6,468.1h-0.6l-3.5-9.5l-11.3-5.4l-5.5,14.9h-0.5l10.5-29.1h0.4L-237.6,468.1z M-241.9,458
		l-6.4-17.8l-4.4,12.4L-241.9,458z"/>
	<path id="XMLID_3_" class="st0" d="M-223,439.7h-6.3v28.5h-0.6v-28.5h-6.3v-0.6h13.2V439.7z"/>
	<path id="XMLID_5_" class="st0" d="M-205,468.1h-12.2v-29h12.2v0.6h-11.6v12.9h10v0.6h-10v14.3h11.6V468.1z"/>
	<path id="XMLID_6_" class="st0" d="M-187,468.1h-12v-28.7h0.6v28.2h11.4V468.1z"/>
	<path id="XMLID_7_" class="st0" d="M-179.4,468.1h-0.6v-29h0.6V468.1z"/>
	<path id="XMLID_8_" class="st0" d="M-159.5,468.1h-12.1v-29h12.1v0.6h-11.6v12.9h10v0.6h-10v14.3h11.6V468.1z"/>
	<path id="XMLID_9_" class="st0" d="M-140.5,452.6l-1.3,0.5l5.7,15.1h-0.7l-5.7-14.9l-10.5,4.6v10.3h-0.6v-29.1h8.1L-140.5,452.6z
		 M-145.8,439.7h-7v17.5l11.6-5L-145.8,439.7z"/>
	<g id="XMLID_10_">
		<path id="XMLID_11_" class="st1" d="M-196.7,434.8h-1.4l-12.1-32.6h-24.2l-11.9,32.6h-1.5l25.1-69.3h0.9L-196.7,434.8z
			 M-210.7,400.7l-11.5-32.4l-11.7,32.4H-210.7z"/>
	</g>
	<g id="XMLID_12_">
		<path id="XMLID_13_" class="st1" d="M-147,434.8h-1.4l-11.9-32.6h-24.5l-11.8,32.6h-1.4l25.1-69.3h0.9L-147,434.8z M-160.8,400.7
			l-11.7-32.4l-11.7,32.4H-160.8z"/>
	</g>
	<path id="XMLID_14_" class="st2" d="M-219.8,365.8l22.4,62l22.5-62H-219.8z M-204.9,402.2l-0.5-1.5h15.8l-0.5,1.5H-204.9z"/>
	<path id="XMLID_51_" class="st3" d="M-173,365.5"/>
	<path id="XMLID_50_" class="st3" d="M-173,473.3"/>
</g>
</svg>
