<?xml version="1.0" encoding="utf-8"?>
<!-- Generator: Adobe Illustrator 19.0.0, SVG Export Plug-In . SVG Version: 6.00 Build 0)  -->
<svg version="1.1" id="Layer_1" xmlns="http://www.w3.org/2000/svg" xmlns:xlink="http://www.w3.org/1999/xlink" x="0px" y="0px"
	 viewBox="-283 399.4 566.9 42.5" style="enable-background:new -283 399.4 566.9 42.5;" xml:space="preserve">
<style type="text/css">
	.st0{fill: rgb(245,235,230);}
	.st1{fill: rgb(245,235,230);}
</style>
<g id="XMLID_379_">
	<path id="XMLID_979_" class="st0" d="M881.9,1213.9H879v-2.1h-4.4c0.7,0.3,1.3,0.7,1.8,1.3c0.5,0.7,0.9,1.7,1.1,3
		c0.2,1.2,0.3,3,0.3,5.3c0,3.3-0.4,5.6-1.1,7c-0.5,0.9-1.1,1.5-2,1.8h7.1L881.9,1213.9L881.9,1213.9z"/>
	<path id="XMLID_980_" class="st0" d="M871.3,1215.2c-0.3,1-0.4,2.9-0.4,5.9c0,2.7,0.2,4.6,0.5,5.6s0.9,1.5,1.8,1.5
		c0.8,0,1.4-0.5,1.7-1.4c0.3-0.9,0.5-2.6,0.5-5.1c0-3.2-0.1-5.3-0.4-6.4c-0.3-1.1-0.9-1.6-1.8-1.6
		C872.2,1213.8,871.6,1214.3,871.3,1215.2z"/>
	<path id="XMLID_981_" class="st0" d="M889.4,1228.3c-0.7-1.4-1.1-4-1.1-7.7c0-3.3,0.4-5.6,1.1-7c0.5-0.9,1.1-1.5,2-1.8h-4.2v2.1
		h-2.8v16.3h7.2C890.6,1229.9,889.9,1229.2,889.4,1228.3z"/>
	<path id="XMLID_982_" class="st0" d="M901.2,1228.4c-0.7-1.4-1.1-3.9-1.1-7.3c0-3.9,0.4-6.5,1.2-7.8c0.5-0.8,1.1-1.2,1.9-1.5h-8.5
		c0.7,0.3,1.3,0.7,1.8,1.3c0.5,0.7,0.9,1.7,1.1,3c0.2,1.2,0.3,3,0.3,5.3c0,3.3-0.4,5.6-1.1,7c-0.5,0.9-1.1,1.5-2,1.8h8.3
		C902.4,1229.9,901.7,1229.3,901.2,1228.4z"/>
	<path id="XMLID_983_" class="st0" d="M891.4,1215.2c-0.3,1-0.4,2.9-0.4,5.9c0,2.7,0.2,4.6,0.5,5.6s0.9,1.5,1.8,1.5
		c0.8,0,1.4-0.5,1.7-1.4c0.3-0.9,0.5-2.6,0.5-5.1c0-3.2-0.1-5.3-0.4-6.4c-0.3-1.1-0.9-1.6-1.8-1.6
		C892.3,1213.8,891.7,1214.3,891.4,1215.2z"/>
	<rect id="XMLID_984_" x="859.6" y="1211.8" class="st0" width="3.7" height="7.2"/>
	<path id="XMLID_985_" class="st0" d="M869.3,1228.3c-0.7-1.4-1.1-4-1.1-7.7c0-3.3,0.4-5.6,1.1-7c0.5-0.9,1.1-1.5,2-1.8h-5.5v18.4
		h5.7C870.5,1229.9,869.8,1229.2,869.3,1228.3z"/>
	<path id="XMLID_986_" class="st0" d="M857.1,1230.2v-18.4h-5.8c1.2,0.1,2.2,0.5,2.8,1.2c0.7,0.8,1.1,2.1,1.1,3.8
		c0,2.5-0.7,4.1-2.2,4.8c-0.7,0.3-1.8,0.5-3.2,0.5v8.2L857.1,1230.2L857.1,1230.2z"/>
	<path id="XMLID_987_" class="st0" d="M852,1219.3c0.4-0.4,0.6-1.2,0.6-2.3s-0.2-1.9-0.6-2.4s-1-0.8-1.8-0.8h-0.3v6.1
		C850.9,1219.9,851.6,1219.7,852,1219.3z"/>
	<rect id="XMLID_988_" x="859.6" y="1221.1" class="st0" width="3.7" height="9.1"/>
	<path id="XMLID_989_" class="st0" d="M908.5,1228.6c-0.4,0.8-1,1.4-1.8,1.7h5.2v-18.4h-5.3c0.4,0.1,0.8,0.3,1.1,0.6
		c0.7,0.6,1.2,1.6,1.6,2.9l-2.3,1c-0.1-0.5-0.2-0.9-0.3-1.2c-0.1-0.3-0.3-0.6-0.4-0.8c-0.3-0.4-0.8-0.6-1.4-0.6
		c-0.8,0-1.4,0.5-1.7,1.5c-0.3,1.1-0.5,3-0.5,5.8c0,2.8,0.2,4.7,0.5,5.7s0.9,1.5,1.8,1.5c0.8,0,1.3-0.4,1.7-1.1
		c0.3-0.8,0.5-2,0.5-3.6v-0.5v-0.4H905v-2.1h4.5v0.7C909.4,1224.9,909.1,1227.3,908.5,1228.6z"/>
	<path id="XMLID_990_" class="st0" d="M936.9,1219.3c0.4-0.4,0.6-1.2,0.6-2.3s-0.2-1.9-0.6-2.4s-1-0.8-1.8-0.8h-0.3v6.1
		C935.8,1219.9,936.5,1219.7,936.9,1219.3z"/>
	<rect id="XMLID_991_" x="944.5" y="1221.1" class="st0" width="3.7" height="9.1"/>
	<path id="XMLID_992_" class="st0" d="M914.4,1220c1,0,1.7-0.2,2.1-0.7s0.6-1.2,0.6-2.3c0-0.6,0-1.1-0.1-1.5s-0.2-0.7-0.4-1
		c-0.2-0.3-0.4-0.4-0.7-0.6s-0.6-0.2-1-0.2h-0.4L914.4,1220L914.4,1220z"/>
	<rect id="XMLID_993_" x="615.5" y="1211.8" class="st0" width="231.8" height="18.4"/>
	<path id="XMLID_994_" class="st0" d="M942,1211.8h-5.8c1.2,0.1,2.2,0.5,2.8,1.2c0.7,0.8,1.1,2.1,1.1,3.8c0,2.5-0.7,4.1-2.2,4.8
		c-0.7,0.3-1.8,0.5-3.2,0.5v8.2h7.2L942,1211.8L942,1211.8z"/>
	<rect id="XMLID_995_" x="950.7" y="1211.8" class="st0" width="231.8" height="18.4"/>
	<rect id="XMLID_996_" x="944.5" y="1211.8" class="st0" width="3.7" height="7.2"/>
	<path id="XMLID_997_" class="st0" d="M924.9,1211.8h-9c1,0.1,1.8,0.4,2.4,0.9c0.8,0.8,1.3,2.1,1.3,3.9c0,1.3-0.2,2.4-0.7,3.2
		c-0.4,0.8-1.1,1.3-1.9,1.5l3.4,9h0.6L924.9,1211.8z"/>
	<polygon id="XMLID_998_" class="st0" points="914.4,1221.2 914.4,1230.2 917.8,1230.2 	"/>
	<polygon id="XMLID_999_" class="st0" points="927.7,1226.7 924,1226.7 923.3,1230.2 928.3,1230.2 	"/>
	<polygon id="XMLID_1000_" class="st0" points="932.3,1211.8 926.9,1211.8 930.8,1230.2 932.3,1230.2 	"/>
	<path id="XMLID_1001_" class="st0" d="M924.8,1222.4l-0.5,2.4h3l-0.6-3c-0.4-2-0.7-4.2-0.9-6.4c-0.1,1.1-0.3,2.2-0.4,3.4
		C925.2,1219.9,925,1221.1,924.8,1222.4z"/>
</g>
<g id="XMLID_733_">
	<path id="XMLID_1213_" class="st1" d="M-25.9,421.7c-0.3-0.8-0.5-1.6-0.7-2.4c-0.2-0.8-0.4-1.7-0.6-2.6c0-0.1,0-0.2-0.1-0.4
		c0-0.2-0.1-0.3-0.1-0.6c0,0.2,0,0.4,0.1,0.5c0,0.1,0,0.3,0,0.4l0.1,1.9l0.1,2.3c0,0.1,0,0.3,0,0.5c0,0.2,0,0.4,0,0.6l0.1,8h3.8
		L-25.9,421.7z"/>
	<polygon id="XMLID_1214_" class="st1" points="-16.5,413.7 -19.4,413.7 -19.4,411.6 -20.7,411.6 -20.7,430 -16.5,430 	"/>
	<rect id="XMLID_1215_" x="-32.2" y="411.6" class="st1" width="2.9" height="18.4"/>
	<polygon id="XMLID_1219_" class="st1" points="-9.9,411.6 -11.2,411.6 -11.2,413.7 -14,413.7 -14,430 -9.9,430 	"/>
	<polygon id="XMLID_1220_" class="st1" points="29,430 32.4,430 29,421 	"/>
	<path id="XMLID_1221_" class="st1" d="M31.5,415.3c-0.1-0.4-0.2-0.7-0.4-1c-0.2-0.3-0.4-0.4-0.7-0.6c-0.3-0.1-0.6-0.2-1-0.2H29v6.2
		c1,0,1.7-0.2,2.1-0.7c0.4-0.4,0.6-1.2,0.6-2.3C31.7,416.2,31.6,415.7,31.5,415.3z"/>
	<path id="XMLID_1222_" class="st1" d="M22.6,412.9c0.5,0.7,0.9,1.7,1.1,3c0.2,1.2,0.3,3,0.3,5.3c0,3.3-0.4,5.6-1.1,7
		c-0.5,0.9-1.1,1.5-2,1.8h5.5v-18.4h-5.7C21.6,411.8,22.2,412.3,22.6,412.9z"/>
	<path id="XMLID_1223_" class="st1" d="M-27,411.6l2.5,7.3c0.7,2.1,1.4,4.3,1.9,6.7c-0.2-1.4-0.3-2.7-0.4-3.9
		c-0.1-1.2-0.1-2.3-0.1-3.3v-6.9H-27z"/>
	<path id="XMLID_1227_" class="st1" d="M9.4,411.6H3c1,0.1,1.8,0.4,2.4,0.9c0.8,0.8,1.3,2.1,1.3,3.9c0,1.3-0.2,2.4-0.7,3.2
		c-0.4,0.8-1.1,1.3-1.9,1.5l3.4,9h2V411.6z"/>
	<path id="XMLID_1228_" class="st1" d="M17.5,415c-0.3,1-0.4,2.9-0.4,5.9c0,2.7,0.2,4.6,0.5,5.6c0.3,1,0.9,1.5,1.8,1.5
		c0.8,0,1.4-0.5,1.7-1.4c0.3-0.9,0.5-2.6,0.5-5.1c0-3.2-0.1-5.3-0.4-6.4c-0.3-1.1-0.9-1.6-1.8-1.6S17.8,414,17.5,415z"/>
	<rect id="XMLID_1229_" x="-283.4" y="411.6" class="st1" width="248.6" height="18.4"/>
	<path id="XMLID_1232_" class="st1" d="M30.5,411.6c1,0.1,1.8,0.4,2.4,0.9c0.8,0.8,1.3,2.1,1.3,3.9c0,1.3-0.2,2.4-0.7,3.2
		c-0.4,0.8-1.1,1.3-1.9,1.5l3.4,9h248.7v-18.4H30.5z"/>
	<polygon id="XMLID_1233_" class="st1" points="1.6,421 1.6,430 4.9,430 	"/>
	<path id="XMLID_1234_" class="st1" d="M1.6,419.8c1,0,1.7-0.2,2.1-0.7c0.4-0.4,0.6-1.2,0.6-2.3c0-0.6,0-1.1-0.1-1.5
		c-0.1-0.4-0.2-0.7-0.4-1c-0.2-0.3-0.4-0.4-0.7-0.6c-0.3-0.1-0.6-0.2-1-0.2H1.6V419.8z"/>
	<path id="XMLID_1236_" class="st1" d="M15.5,428.1c-0.7-1.4-1.1-4-1.1-7.7c0-3.3,0.4-5.6,1.1-7c0.5-0.9,1.1-1.5,2-1.8h-5.5V430h5.7
		C16.7,429.7,16,429,15.5,428.1z"/>
	<polygon id="XMLID_1237_" class="st1" points="-0.9,430 -0.9,411.6 -3.2,411.6 -3.2,413.7 -7.4,413.7 -7.4,419.5 -3.7,419.5
		-3.7,421.6 -7.4,421.6 -7.4,428 -3.2,428 -3.2,430 	"/>
</g>
</svg>
