<?xml version="1.0" encoding="utf-8"?>
<!-- Generator: Adobe Illustrator 19.0.0, SVG Export Plug-In . SVG Version: 6.00 Build 0)  -->
<svg version="1.1" id="Layer_1" xmlns="http://www.w3.org/2000/svg" xmlns:xlink="http://www.w3.org/1999/xlink" x="0px" y="0px"
	 viewBox="-283 399.3 566.9 42.5" style="enable-background:new -283 399.3 566.9 42.5;" xml:space="preserve">
<style type="text/css">
	.st0{fill:#F5EBE6;}
</style>
<g id="XMLID_379_">
	<path id="XMLID_979_" class="st0" d="M881.9,1115.1H879v-2.1h-4.4c0.7,0.3,1.3,0.7,1.8,1.3c0.5,0.7,0.9,1.7,1.1,3
		c0.2,1.2,0.3,3,0.3,5.3c0,3.3-0.4,5.6-1.1,7c-0.5,0.9-1.1,1.5-2,1.8h7.1L881.9,1115.1L881.9,1115.1z"/>
	<path id="XMLID_980_" class="st0" d="M871.3,1116.3c-0.3,1-0.4,2.9-0.4,5.9c0,2.7,0.2,4.6,0.5,5.6s0.9,1.5,1.8,1.5
		c0.8,0,1.4-0.5,1.7-1.4c0.3-0.9,0.5-2.6,0.5-5.1c0-3.2-0.1-5.3-0.4-6.4s-0.9-1.6-1.8-1.6C872.2,1114.9,871.6,1115.4,871.3,1116.3z"
		/>
	<path id="XMLID_981_" class="st0" d="M889.4,1129.4c-0.7-1.4-1.1-4-1.1-7.7c0-3.3,0.4-5.6,1.1-7c0.5-0.9,1.1-1.5,2-1.8h-4.2v2.1
		h-2.8v16.3h7.2C890.6,1131,889.9,1130.4,889.4,1129.4z"/>
	<path id="XMLID_982_" class="st0" d="M901.2,1129.5c-0.7-1.4-1.1-3.9-1.1-7.3c0-3.9,0.4-6.5,1.2-7.8c0.5-0.8,1.1-1.2,1.9-1.5h-8.5
		c0.7,0.3,1.3,0.7,1.8,1.3c0.5,0.7,0.9,1.7,1.1,3c0.2,1.2,0.3,3,0.3,5.3c0,3.3-0.4,5.6-1.1,7c-0.5,0.9-1.1,1.5-2,1.8h8.3
		C902.4,1131,901.7,1130.4,901.2,1129.5z"/>
	<path id="XMLID_983_" class="st0" d="M891.4,1116.3c-0.3,1-0.4,2.9-0.4,5.9c0,2.7,0.2,4.6,0.5,5.6s0.9,1.5,1.8,1.5
		c0.8,0,1.4-0.5,1.7-1.4c0.3-0.9,0.5-2.6,0.5-5.1c0-3.2-0.1-5.3-0.4-6.4s-0.9-1.6-1.8-1.6C892.3,1114.9,891.7,1115.4,891.4,1116.3z"
		/>
	<rect id="XMLID_984_" x="859.6" y="1112.9" class="st0" width="3.7" height="7.2"/>
	<path id="XMLID_985_" class="st0" d="M869.3,1129.4c-0.7-1.4-1.1-4-1.1-7.7c0-3.3,0.4-5.6,1.1-7c0.5-0.9,1.1-1.5,2-1.8h-5.5v18.4
		h5.7C870.5,1131,869.8,1130.4,869.3,1129.4z"/>
	<path id="XMLID_986_" class="st0" d="M857.1,1131.3v-18.4h-5.8c1.2,0.1,2.2,0.5,2.8,1.2c0.7,0.8,1.1,2.1,1.1,3.8
		c0,2.5-0.7,4.1-2.2,4.8c-0.7,0.3-1.8,0.5-3.2,0.5v8.2L857.1,1131.3L857.1,1131.3z"/>
	<path id="XMLID_987_" class="st0" d="M852,1120.4c0.4-0.4,0.6-1.2,0.6-2.3s-0.2-1.9-0.6-2.4s-1-0.8-1.8-0.8h-0.3v6.1
		C850.9,1121,851.6,1120.8,852,1120.4z"/>
	<rect id="XMLID_988_" x="859.6" y="1122.2" class="st0" width="3.7" height="9.1"/>
	<path id="XMLID_989_" class="st0" d="M908.5,1129.7c-0.4,0.8-1,1.4-1.8,1.7h5.2V1113h-5.3c0.4,0.1,0.8,0.3,1.1,0.6
		c0.7,0.6,1.2,1.6,1.6,2.9l-2.3,1c-0.1-0.5-0.2-0.9-0.3-1.2c-0.1-0.3-0.3-0.6-0.4-0.8c-0.3-0.4-0.8-0.6-1.4-0.6
		c-0.8,0-1.4,0.5-1.7,1.5c-0.3,1.1-0.5,3-0.5,5.8c0,2.8,0.2,4.7,0.5,5.7s0.9,1.5,1.8,1.5c0.8,0,1.3-0.4,1.7-1.1
		c0.3-0.8,0.5-2,0.5-3.6v-0.5v-0.4H905v-2.1h4.5v0.7C909.4,1126,909.1,1128.4,908.5,1129.7z"/>
	<path id="XMLID_990_" class="st0" d="M936.9,1120.4c0.4-0.4,0.6-1.2,0.6-2.3s-0.2-1.9-0.6-2.4s-1-0.8-1.8-0.8h-0.3v6.1
		C935.8,1121,936.5,1120.8,936.9,1120.4z"/>
	<rect id="XMLID_991_" x="944.5" y="1122.2" class="st0" width="3.7" height="9.1"/>
	<path id="XMLID_992_" class="st0" d="M914.4,1121.1c1,0,1.7-0.2,2.1-0.7s0.6-1.2,0.6-2.3c0-0.6,0-1.1-0.1-1.5s-0.2-0.7-0.4-1
		c-0.2-0.3-0.4-0.4-0.7-0.6s-0.6-0.2-1-0.2h-0.4L914.4,1121.1L914.4,1121.1z"/>
	<rect id="XMLID_993_" x="615.5" y="1112.9" class="st0" width="231.8" height="18.4"/>
	<path id="XMLID_994_" class="st0" d="M942,1112.9h-5.8c1.2,0.1,2.2,0.5,2.8,1.2c0.7,0.8,1.1,2.1,1.1,3.8c0,2.5-0.7,4.1-2.2,4.8
		c-0.7,0.3-1.8,0.5-3.2,0.5v8.2h7.2L942,1112.9L942,1112.9z"/>
	<rect id="XMLID_995_" x="950.7" y="1112.9" class="st0" width="231.8" height="18.4"/>
	<rect id="XMLID_996_" x="944.5" y="1112.9" class="st0" width="3.7" height="7.2"/>
	<path id="XMLID_997_" class="st0" d="M924.9,1112.9h-9c1,0.1,1.8,0.4,2.4,0.9c0.8,0.8,1.3,2.1,1.3,3.9c0,1.3-0.2,2.4-0.7,3.2
		c-0.4,0.8-1.1,1.3-1.9,1.5l3.4,9h0.6L924.9,1112.9z"/>
	<polygon id="XMLID_998_" class="st0" points="914.4,1122.3 914.4,1131.3 917.8,1131.3 	"/>
	<polygon id="XMLID_999_" class="st0" points="927.7,1127.8 924,1127.8 923.3,1131.3 928.3,1131.3 	"/>
	<polygon id="XMLID_1000_" class="st0" points="932.3,1112.9 926.9,1112.9 930.8,1131.3 932.3,1131.3 	"/>
	<path id="XMLID_1001_" class="st0" d="M924.8,1123.5l-0.5,2.4h3l-0.6-3c-0.4-2-0.7-4.2-0.9-6.4c-0.1,1.1-0.3,2.2-0.4,3.4
		C925.2,1121,925,1122.2,924.8,1123.5z"/>
</g>
<g id="XMLID_65_">
	<polygon id="XMLID_134_" class="st0" points="4.8,429.8 9.8,429.8 9.1,426.2 5.5,426.2 	"/>
	<path id="XMLID_396_" class="st0" d="M16.5,411.3h-29.9c0.5,0.1,0.9,0.4,1.2,0.6c0.7,0.6,1.2,1.6,1.6,2.9l-2.3,1
		c-0.1-0.5-0.2-0.9-0.3-1.2c-0.1-0.3-0.3-0.6-0.4-0.8c-0.3-0.4-0.8-0.6-1.4-0.6c-0.8,0-1.4,0.5-1.7,1.5c-0.3,1.1-0.5,3-0.5,5.7
		c0,2.8,0.2,4.7,0.5,5.7s0.9,1.5,1.8,1.5c0.8,0,1.3-0.4,1.7-1c0.3-0.7,0.5-1.9,0.5-3.6v-0.5v-0.3H-15v-2.1h4.5v0.7
		c0,3.6-0.3,6-0.9,7.3c-0.4,0.8-1.1,1.4-1.9,1.7H-8v-18.4h2.3l2.5,7.3c0.7,2.1,1.3,4.3,1.9,6.6c-0.2-1.4-0.3-2.7-0.4-3.9
		c-0.1-1.2-0.1-2.2-0.1-3.3v-6.9h2.5v18.4h1.8l4-18.4h1.9l3.9,18.4h4.3c-1-0.3-1.7-0.9-2.2-1.9c-0.7-1.4-1.1-3.8-1.1-7.2
		c0-3.9,0.4-6.4,1.2-7.7C15,412.1,15.7,411.6,16.5,411.3z"/>
	<path id="XMLID_412_" class="st0" d="M7.3,414.9c-0.1,1.1-0.3,2.2-0.4,3.4c-0.2,1.1-0.4,2.3-0.6,3.6l-0.5,2.4h2.9l-0.5-2.9
		C7.8,419.3,7.5,417.2,7.3,414.9z"/>
	<path id="XMLID_413_" class="st0" d="M-16.5,429.8c-1-0.3-1.7-0.9-2.2-1.9c-0.7-1.4-1.1-3.8-1.1-7.2c0-3.9,0.4-6.4,1.2-7.7
		c0.5-0.8,1.2-1.3,2-1.6h-12.2c0.3,0.1,0.7,0.2,1,0.4v2.4c-0.8-0.5-1.4-0.8-2-0.8c-0.7,0-1.2,0.2-1.6,0.7c-0.4,0.4-0.6,1-0.6,1.8
		c0,0.6,0.1,1.2,0.4,1.7c0.2,0.2,0.4,0.6,0.7,1c0.3,0.4,0.8,0.9,1.3,1.4c1,1,1.7,1.9,2.1,2.7c0.4,0.7,0.5,1.6,0.5,2.7
		c0,1.4-0.4,2.6-1.2,3.5c-0.5,0.5-1.1,0.9-1.7,1.1h5v-18.6h2.5v18.4H-16.5z"/>
	<path id="XMLID_414_" class="st0" d="M-4.5,421.5c-0.3-0.8-0.5-1.6-0.7-2.4c-0.2-0.8-0.4-1.7-0.6-2.6c0-0.1,0-0.2-0.1-0.4
		c0-0.2-0.1-0.3-0.1-0.5c0,0.2,0,0.4,0.1,0.5c0,0.1,0,0.3,0,0.4l0.1,1.9l0.1,2.3c0,0.1,0,0.3,0,0.5s0,0.4,0,0.6l0.1,8h3.8
		L-4.5,421.5z"/>
	<path id="XMLID_416_" class="st0" d="M19.6,411.3c0.5,0.1,0.9,0.4,1.2,0.6c0.7,0.6,1.2,1.6,1.6,2.9l-2.3,1
		c-0.1-0.5-0.2-0.9-0.3-1.2c-0.1-0.3-0.3-0.6-0.4-0.8c-0.3-0.4-0.8-0.6-1.4-0.6c-0.8,0-1.4,0.5-1.7,1.5c-0.3,1.1-0.5,3-0.5,5.7
		c0,2.8,0.2,4.7,0.5,5.7s0.9,1.5,1.8,1.5c0.8,0,1.3-0.4,1.7-1c0.3-0.7,0.5-1.9,0.5-3.6v-0.5v-0.3h-2.2v-2.1h4.5v0.7
		c0,3.6-0.3,6-0.9,7.3c-0.4,0.8-1.1,1.4-1.9,1.7h5.3v-18.4h6.6v2.1h-4.1v5.8h3.6v2.1h-3.6v6.3h4.1v2.1H284v-18.5H19.6z"/>
	<path id="XMLID_417_" class="st0" d="M-33.8,429.1v-2.5c0.9,0.6,1.7,1,2.4,1s1.2-0.2,1.6-0.7c0.4-0.4,0.6-1.1,0.6-1.8
		c0-0.7-0.1-1.3-0.4-1.8c-0.2-0.3-0.4-0.5-0.6-0.9c-0.3-0.3-0.6-0.7-1-1.1c-0.6-0.6-1.1-1.2-1.6-1.6c-0.4-0.5-0.7-0.9-0.9-1.3
		c-0.4-0.7-0.6-1.6-0.6-2.6c0-1.4,0.4-2.6,1.1-3.4c0.4-0.5,1-0.8,1.6-1H-284v18.4h251.4C-33.1,429.6-33.5,429.4-33.8,429.1z"/>
</g>
</svg>
