<svg version="1.1" id="Layer_1" xmlns="http://www.w3.org/2000/svg" x="0" y="0" viewBox="-283 399.4 566.9 42.5" xml:space="preserve"><style>.st0,.st1{fill:#f5ebe6}</style><g id="XMLID_379_"><path id="XMLID_979_" class="st0" d="M881.9 1213.9H879v-2.1h-4.4c.7.3 1.3.7 1.8 1.3.5.7.9 1.7 1.1 3 .2 1.2.3 3 .3 5.3 0 3.3-.4 5.6-1.1 7-.5.9-1.1 1.5-2 1.8h7.1l.1-16.3z"/><path id="XMLID_980_" class="st0" d="M871.3 1215.2c-.3 1-.4 2.9-.4 5.9 0 2.7.2 4.6.5 5.6s.9 1.5 1.8 1.5c.8 0 1.4-.5 1.7-1.4.3-.9.5-2.6.5-5.1 0-3.2-.1-5.3-.4-6.4-.3-1.1-.9-1.6-1.8-1.6-1 .1-1.6.6-1.9 1.5z"/><path id="XMLID_981_" class="st0" d="M889.4 1228.3c-.7-1.4-1.1-4-1.1-7.7 0-3.3.4-5.6 1.1-7 .5-.9 1.1-1.5 2-1.8h-4.2v2.1h-2.8v16.3h7.2c-1-.3-1.7-1-2.2-1.9z"/><path id="XMLID_982_" class="st0" d="M901.2 1228.4c-.7-1.4-1.1-3.9-1.1-7.3 0-3.9.4-6.5 1.2-7.8.5-.8 1.1-1.2 1.9-1.5h-8.5c.7.3 1.3.7 1.8 1.3.5.7.9 1.7 1.1 3 .2 1.2.3 3 .3 5.3 0 3.3-.4 5.6-1.1 7-.5.9-1.1 1.5-2 1.8h8.3c-.7-.3-1.4-.9-1.9-1.8z"/><path id="XMLID_983_" class="st0" d="M891.4 1215.2c-.3 1-.4 2.9-.4 5.9 0 2.7.2 4.6.5 5.6s.9 1.5 1.8 1.5c.8 0 1.4-.5 1.7-1.4.3-.9.5-2.6.5-5.1 0-3.2-.1-5.3-.4-6.4-.3-1.1-.9-1.6-1.8-1.6-1 .1-1.6.6-1.9 1.5z"/><path id="XMLID_984_" class="st0" d="M859.6 1211.8h3.7v7.2h-3.7z"/><path id="XMLID_985_" class="st0" d="M869.3 1228.3c-.7-1.4-1.1-4-1.1-7.7 0-3.3.4-5.6 1.1-7 .5-.9 1.1-1.5 2-1.8h-5.5v18.4h5.7c-1-.3-1.7-1-2.2-1.9z"/><path id="XMLID_986_" class="st0" d="M857.1 1230.2v-18.4h-5.8c1.2.1 2.2.5 2.8 1.2.7.8 1.1 2.1 1.1 3.8 0 2.5-.7 4.1-2.2 4.8-.7.3-1.8.5-3.2.5v8.2l7.3-.1z"/><path id="XMLID_987_" class="st0" d="M852 1219.3c.4-.4.6-1.2.6-2.3s-.2-1.9-.6-2.4-1-.8-1.8-.8h-.3v6.1c1 0 1.7-.2 2.1-.6z"/><path id="XMLID_988_" class="st0" d="M859.6 1221.1h3.7v9.1h-3.7z"/><path id="XMLID_989_" class="st0" d="M908.5 1228.6c-.4.8-1 1.4-1.8 1.7h5.2v-18.4h-5.3c.4.1.8.3 1.1.6.7.6 1.2 1.6 1.6 2.9l-2.3 1c-.1-.5-.2-.9-.3-1.2-.1-.3-.3-.6-.4-.8-.3-.4-.8-.6-1.4-.6-.8 0-1.4.5-1.7 1.5-.3 1.1-.5 3-.5 5.8s.2 4.7.5 5.7.9 1.5 1.8 1.5c.8 0 1.3-.4 1.7-1.1.3-.8.5-2 .5-3.6v-.9H905v-2.1h4.5v.7c-.1 3.6-.4 6-1 7.3z"/><path id="XMLID_990_" class="st0" d="M936.9 1219.3c.4-.4.6-1.2.6-2.3s-.2-1.9-.6-2.4-1-.8-1.8-.8h-.3v6.1c1 0 1.7-.2 2.1-.6z"/><path id="XMLID_991_" class="st0" d="M944.5 1221.1h3.7v9.1h-3.7z"/><path id="XMLID_992_" class="st0" d="M914.4 1220c1 0 1.7-.2 2.1-.7s.6-1.2.6-2.3c0-.6 0-1.1-.1-1.5s-.2-.7-.4-1c-.2-.3-.4-.4-.7-.6s-.6-.2-1-.2h-.4l-.1 6.3z"/><path id="XMLID_993_" class="st0" d="M615.5 1211.8h231.8v18.4H615.5z"/><path id="XMLID_994_" class="st0" d="M942 1211.8h-5.8c1.2.1 2.2.5 2.8 1.2.7.8 1.1 2.1 1.1 3.8 0 2.5-.7 4.1-2.2 4.8-.7.3-1.8.5-3.2.5v8.2h7.2l.1-18.5z"/><path id="XMLID_995_" class="st0" d="M950.7 1211.8h231.8v18.4H950.7z"/><path id="XMLID_996_" class="st0" d="M944.5 1211.8h3.7v7.2h-3.7z"/><path id="XMLID_997_" class="st0" d="M924.9 1211.8h-9c1 .1 1.8.4 2.4.9.8.8 1.3 2.1 1.3 3.9 0 1.3-.2 2.4-.7 3.2-.4.8-1.1 1.3-1.9 1.5l3.4 9h.6l3.9-18.5z"/><path id="XMLID_998_" class="st0" d="M914.4 1221.2v9h3.4z"/><path id="XMLID_999_" class="st0" d="M927.7 1226.7H924l-.7 3.5h5z"/><path id="XMLID_1000_" class="st0" d="M932.3 1211.8h-5.4l3.9 18.4h1.5z"/><path id="XMLID_1001_" class="st0" d="M924.8 1222.4l-.5 2.4h3l-.6-3c-.4-2-.7-4.2-.9-6.4-.1 1.1-.3 2.2-.4 3.4-.2 1.1-.4 2.3-.6 3.6z"/></g><g id="XMLID_828_"><path id="XMLID_1181_" class="st1" d="M-21.7 411.1h3.7v7.2h-3.7z"/><path id="XMLID_1182_" class="st1" d="M-26.8 429.5h2.6v-18.4h-2.7l.6.3v2.2c-.6-.3-1.2-.5-1.6-.5-.6 0-1.1.1-1.5.4-.4.3-.8.7-1 1.3-.3.6-.5 1.4-.6 2.3-.1.9-.2 2-.2 3.3 0 4.6 1.2 6.9 3.5 6.9.4 0 .9-.1 1.5-.4v2.3c-.3.2-.4.3-.6.3z"/><path id="XMLID_1184_" class="st1" d="M-15.6 411.1h2.9v18.4h-2.9z"/><path id="XMLID_1186_" class="st1" d="M-34 420.6c0-3.3.5-5.8 1.4-7.4.6-1.1 1.4-1.8 2.5-2.1h-9.8c1.1.1 2 .4 2.5.9.8.8 1.3 2.1 1.3 3.8 0 1.3-.2 2.4-.7 3.2-.4.8-1.1 1.3-1.9 1.5l3.4 8.9h5.1c-2.5-.8-3.8-3.7-3.8-8.8z"/><path id="XMLID_1187_" class="st1" d="M-21.7 420.4h3.7v9.1h-3.7z"/><path id="XMLID_1188_" class="st1" d="M-52.7 429.5h5.1l-.7-3.5H-52z"/><path id="XMLID_1189_" class="st1" d="M-6 413.2h-2.9v-2.1h-1.3v18.4H-6z"/><path id="XMLID_1190_" class="st1" d="M-51.6 424h3l-.6-2.9c-.4-2-.7-4.1-.9-6.4-.1 1.1-.3 2.2-.4 3.4-.2 1.1-.4 2.3-.6 3.6l-.5 2.3z"/><path id="XMLID_1191_" class="st1" d="M-39.1 418.6c.4-.4.6-1.2.6-2.3 0-.6 0-1.1-.1-1.5s-.2-.7-.4-1c-.2-.3-.4-.4-.7-.6-.3-.1-.6-.2-1-.2h-.4v6.2c.9.1 1.6-.2 2-.6z"/><path id="XMLID_1192_" class="st1" d="M-43.7 411.1h-5.4l4 18.4h1.4z"/><path id="XMLID_1196_" class="st1" d="M-41.2 420.5v9h3.4z"/><path id="XMLID_1197_" class="st1" d="M-51.1 411.1h-232.3v18.4h228.3z"/><path id="XMLID_1198_" class="st1" d="M42.8 418.6c.4-.4.6-1.2.6-2.3 0-.6 0-1.1-.1-1.5s-.2-.7-.4-1c-.2-.3-.4-.4-.7-.6-.3-.1-.6-.2-1-.2h-.4v6.2c1 .1 1.6-.2 2-.6z"/><path id="XMLID_1200_" class="st1" d="M38.3 411.1h-2.9v13.4c0 2-.3 3.4-.9 4.1-.4.4-.9.7-1.5.9h5.2v-18.4z"/><path id="XMLID_1204_" class="st1" d="M.6 411.1H-.7v2.1h-2.8v16.3H.6z"/><path id="XMLID_1205_" class="st1" d="M55.3 411.1v2.1h-4.2v5.8h3.7v2.1h-3.7v6.4h4.2v2h228.3v-18.4z"/><path id="XMLID_1206_" class="st1" d="M48.6 411.1H42c1.1.1 2 .4 2.5.9.8.8 1.3 2.1 1.3 3.8 0 1.3-.2 2.4-.7 3.2-.4.8-1.1 1.3-1.9 1.5l3.4 8.9h2v-18.3z"/><path id="XMLID_1207_" class="st1" d="M40.8 420.5v9h3.4z"/><path id="XMLID_1211_" class="st1" d="M31.2 427.5c.7 0 1.2-.2 1.4-.6.2-.4.4-1.2.4-2.4v-13.4h-3.6v13.1c0 1.3.1 2.2.4 2.7.2.3.7.6 1.4.6z"/><path id="XMLID_1212_" class="st1" d="M13 429.5c-2.6-.9-3.8-3.8-3.8-8.9 0-3.3.5-5.8 1.4-7.4.6-1.1 1.4-1.8 2.5-2.1H7.3v2.1H3.1v5.9h3.7v2.1H3.1v6.3h4.1v2.1H13z"/><path id="XMLID_1238_" class="st1" d="M16.4 429.5h4v-16.3h-2.9V411h-1.2l.6.3v2.2c-.6-.3-1.2-.5-1.6-.5-.6 0-1.1.1-1.5.4-.4.3-.8.7-1 1.3-.3.6-.5 1.4-.6 2.3-.1.9-.2 2-.2 3.3 0 4.6 1.2 6.9 3.5 6.9.4 0 .9-.1 1.5-.4v2.3c-.3.3-.5.4-.6.4z"/><path id="XMLID_1239_" class="st1" d="M27.6 428.2c-.5-.7-.7-2.1-.7-4.1V411h-1.4v2.2h-2.8v16.3h6.6c-.7-.2-1.3-.6-1.7-1.3z"/></g></svg>