<svg id="Layer_1" xmlns="http://www.w3.org/2000/svg" viewBox="-283 400.2 566.9 56.7"><style>.st0{fill:#f5ebe6}</style><g id="XMLID_379_"><path id="XMLID_979_" class="st0" d="M881.9 1237.9H879v-2.1h-4.4c.7.3 1.3.7 1.8 1.3.5.7.9 1.7 1.1 3 .2 1.2.3 3 .3 5.3 0 3.3-.4 5.6-1.1 7-.5.9-1.1 1.5-2 1.8h7.1l.1-16.3z"/><path id="XMLID_980_" class="st0" d="M871.3 1239.2c-.3 1-.4 2.9-.4 5.9 0 2.7.2 4.6.5 5.6s.9 1.5 1.8 1.5c.8 0 1.4-.5 1.7-1.4.3-.9.5-2.6.5-5.1 0-3.2-.1-5.3-.4-6.4s-.9-1.6-1.8-1.6c-1 .1-1.6.6-1.9 1.5z"/><path id="XMLID_981_" class="st0" d="M889.4 1252.3c-.7-1.4-1.1-4-1.1-7.7 0-3.3.4-5.6 1.1-7 .5-.9 1.1-1.5 2-1.8h-4.2v2.1h-2.8v16.3h7.2c-1-.3-1.7-1-2.2-1.9z"/><path id="XMLID_982_" class="st0" d="M901.2 1252.3c-.7-1.4-1.1-3.9-1.1-7.3 0-3.9.4-6.5 1.2-7.8.5-.8 1.1-1.2 1.9-1.5h-8.5c.7.3 1.3.7 1.8 1.3.5.7.9 1.7 1.1 3 .2 1.2.3 3 .3 5.3 0 3.3-.4 5.6-1.1 7-.5.9-1.1 1.5-2 1.8h8.3c-.7-.2-1.4-.8-1.9-1.8z"/><path id="XMLID_983_" class="st0" d="M891.4 1239.2c-.3 1-.4 2.9-.4 5.9 0 2.7.2 4.6.5 5.6s.9 1.5 1.8 1.5c.8 0 1.4-.5 1.7-1.4.3-.9.5-2.6.5-5.1 0-3.2-.1-5.3-.4-6.4s-.9-1.6-1.8-1.6c-1 .1-1.6.6-1.9 1.5z"/><path id="XMLID_984_" class="st0" d="M859.6 1235.8h3.7v7.2h-3.7z"/><path id="XMLID_985_" class="st0" d="M869.3 1252.3c-.7-1.4-1.1-4-1.1-7.7 0-3.3.4-5.6 1.1-7 .5-.9 1.1-1.5 2-1.8h-5.5v18.4h5.7c-1-.3-1.7-1-2.2-1.9z"/><path id="XMLID_986_" class="st0" d="M857.1 1254.2v-18.4h-5.8c1.2.1 2.2.5 2.8 1.2.7.8 1.1 2.1 1.1 3.8 0 2.5-.7 4.1-2.2 4.8-.7.3-1.8.5-3.2.5v8.2l7.3-.1z"/><path id="XMLID_987_" class="st0" d="M852 1243.3c.4-.4.6-1.2.6-2.3s-.2-1.9-.6-2.4-1-.8-1.8-.8h-.3v6.1c1 0 1.7-.2 2.1-.6z"/><path id="XMLID_988_" class="st0" d="M859.6 1245.1h3.7v9.1h-3.7z"/><path id="XMLID_989_" class="st0" d="M908.5 1252.6c-.4.8-1 1.4-1.8 1.7h5.2v-18.4h-5.3c.4.1.8.3 1.1.6.7.6 1.2 1.6 1.6 2.9l-2.3 1c-.1-.5-.2-.9-.3-1.2-.1-.3-.3-.6-.4-.8-.3-.4-.8-.6-1.4-.6-.8 0-1.4.5-1.7 1.5-.3 1.1-.5 3-.5 5.8s.2 4.7.5 5.7.9 1.5 1.8 1.5c.8 0 1.3-.4 1.7-1.1.3-.8.5-2 .5-3.6v-1H905v-2.1h4.5v.7c-.1 3.7-.4 6.1-1 7.4z"/><path id="XMLID_990_" class="st0" d="M936.9 1243.3c.4-.4.6-1.2.6-2.3s-.2-1.9-.6-2.4-1-.8-1.8-.8h-.3v6.1c1 0 1.7-.2 2.1-.6z"/><path id="XMLID_991_" class="st0" d="M944.5 1245.1h3.7v9.1h-3.7z"/><path id="XMLID_992_" class="st0" d="M914.4 1244c1 0 1.7-.2 2.1-.7s.6-1.2.6-2.3c0-.6 0-1.1-.1-1.5s-.2-.7-.4-1c-.2-.3-.4-.4-.7-.6s-.6-.2-1-.2h-.4l-.1 6.3z"/><path id="XMLID_993_" class="st0" d="M615.5 1235.8h231.8v18.4H615.5z"/><path id="XMLID_994_" class="st0" d="M942 1235.8h-5.8c1.2.1 2.2.5 2.8 1.2.7.8 1.1 2.1 1.1 3.8 0 2.5-.7 4.1-2.2 4.8-.7.3-1.8.5-3.2.5v8.2h7.2l.1-18.5z"/><path id="XMLID_995_" class="st0" d="M950.7 1235.8h231.8v18.4H950.7z"/><path id="XMLID_996_" class="st0" d="M944.5 1235.8h3.7v7.2h-3.7z"/><path id="XMLID_997_" class="st0" d="M924.9 1235.8h-9c1 .1 1.8.4 2.4.9.8.8 1.3 2.1 1.3 3.9 0 1.3-.2 2.4-.7 3.2-.4.8-1.1 1.3-1.9 1.5l3.4 9h.6l3.9-18.5z"/><path id="XMLID_998_" class="st0" d="M914.4 1245.2v9h3.4z"/><path id="XMLID_999_" class="st0" d="M927.7 1250.7H924l-.7 3.5h5z"/><path id="XMLID_1000_" class="st0" d="M932.3 1235.8h-5.4l3.9 18.4h1.5z"/><path id="XMLID_1001_" class="st0" d="M924.8 1246.4l-.5 2.4h3l-.6-3c-.4-2-.7-4.2-.9-6.4-.1 1.1-.3 2.2-.4 3.4-.2 1.1-.4 2.3-.6 3.6z"/></g><g id="XMLID_81_"><path id="XMLID_1040_" class="st0" d="M-13.5 440.3h-3.7l-.7 3.6h5.1z"/><path id="XMLID_1039_" class="st0" d="M-8.9 425.4h-5.4l4 18.5h1.4z"/><path id="XMLID_1038_" class="st0" d="M-16.2 425.4h-9.1c2.4.2 3.6 1.8 3.6 4.9 0 1.3-.2 2.2-.5 2.8-.3.6-1 1.1-1.8 1.4 1 .4 1.7.9 2.1 1.5s.6 1.5.6 2.8c0 3.1-1.2 4.8-3.6 5h4.8l3.9-18.4z"/><path id="XMLID_1037_" class="st0" d="M-26.3 427.4h-.4v6.1c1 0 1.6-.2 2-.7s.6-1.3.6-2.5c0-1.9-.7-2.9-2.2-2.9z"/><path id="XMLID_1036_" class="st0" d="M-16.4 436l-.5 2.4h3l-.6-2.9c-.4-2-.7-4.1-.9-6.4-.1 1.1-.3 2.2-.4 3.4-.1 1-.3 2.2-.6 3.5z"/><path id="XMLID_1035_" class="st0" d="M-26.7 441.8c1 0 1.7-.2 2.1-.7.4-.4.6-1.2.6-2.4s-.2-2-.6-2.5-1.1-.7-2.1-.7v6.3z"/><path id="XMLID_1034_" class="st0" d="M-46.5 441.8c.7 0 1.2-.2 1.4-.6s.4-1.2.4-2.4v-13.4h-3.6v13c0 1.3.1 2.2.4 2.7.2.5.7.7 1.4.7z"/><path id="XMLID_1033_" class="st0" d="M-39.4 425.4h-2.9v13.4c0 2-.3 3.4-.9 4.1-.4.4-.9.7-1.5.9h5.2l.1-18.4z"/><path id="XMLID_1032_" class="st0" d="M-29 425.4h-6.6c1.1.1 2 .4 2.5.9.8.8 1.3 2.1 1.3 3.8 0 1.3-.2 2.4-.7 3.2-.4.8-1.1 1.3-1.9 1.5l3.4 8.9h2v-18.3z"/><path id="XMLID_1031_" class="st0" d="M-34.9 432.9c.4-.4.6-1.2.6-2.3 0-.6 0-1.1-.1-1.5-.1-.4-.2-.7-.4-1-.2-.3-.4-.4-.7-.6-.3-.1-.6-.2-1-.2h-.4v6.2c1 .1 1.6-.1 2-.6z"/><path id="XMLID_1030_" class="st0" d="M-36.9 434.8v9.1h3.4z"/><path id="XMLID_1029_" class="st0" d="M45.1 443.9v-18.5h-5.7v16.4h4.1v2.1z"/><path id="XMLID_1028_" class="st0" d="M29.4 436l-.5 2.4h3l-.6-2.9c-.4-2-.7-4.1-.9-6.4-.1 1.1-.3 2.2-.4 3.4-.1 1-.3 2.2-.6 3.5z"/><path id="XMLID_1027_" class="st0" d="M36.9 425.4h-5.4l4 18.5h1.4z"/><path id="XMLID_1026_" class="st0" d="M32.3 440.3h-3.7l-.7 3.6H33z"/><path id="XMLID_1025_" class="st0" d="M51.7 425.4v2.1h-4.1v5.9h3.6v2.1h-3.6v6.3h4.1v2.1h232.2v-18.5z"/><path id="XMLID_1024_" class="st0" d="M-50.1 442.6c-.5-.7-.7-2.1-.7-4.1v-13H-283v18.4h234.7c-.8-.3-1.4-.7-1.8-1.3z"/><path id="XMLID_1023_" class="st0" d="M-6.5 425.4l2.5 7.4c.7 2.1 1.4 4.3 1.9 6.7-.2-1.4-.3-2.7-.4-3.9-.1-1.2-.1-2.3-.1-3.3v-6.9h-3.9z"/><path id="XMLID_1022_" class="st0" d="M7.7 443.3v-2.5c.9.6 1.7 1 2.4 1s1.2-.2 1.6-.7.6-1.1.6-1.8-.1-1.3-.4-1.8c-.2-.3-.4-.5-.6-.9-.3-.3-.6-.7-1-1.1-.6-.6-1.2-1.2-1.6-1.7s-.7-.9-.9-1.3c-.4-.7-.6-1.6-.6-2.7 0-1.4.4-2.6 1.1-3.4.4-.5.9-.8 1.5-1h-10v18.4h9.1c-.5-.1-.8-.3-1.2-.5z"/><path id="XMLID_1021_" class="st0" d="M-5.4 435.6c-.3-.8-.5-1.6-.7-2.4-.2-.8-.4-1.7-.6-2.6 0-.1 0-.2-.1-.4 0-.2-.1-.3-.1-.6 0 .2 0 .4.1.5v.4l.1 1.9.1 2.3v1.1l.1 8h3.8l-2.7-8.2z"/><path id="XMLID_1020_" class="st0" d="M23.7 443.9h1.9l4-18.4h-6l.6.3v2.2c-.6-.3-1.2-.5-1.6-.5-.6 0-1.1.1-1.5.4-.4.3-.8.7-1 1.3-.3.6-.5 1.4-.6 2.3s-.2 2-.2 3.3c0 4.6 1.2 6.9 3.5 6.9.4 0 .9-.1 1.5-.4v2.3c-.3.1-.5.2-.6.3z"/><path id="XMLID_1019_" class="st0" d="M16.5 435c0-3.3.5-5.8 1.4-7.4.6-1.1 1.4-1.8 2.5-2.1H13c.3.1.6.2.8.4v2.4c-.8-.5-1.4-.8-2.1-.8s-1.2.2-1.6.7c-.4.4-.6 1-.6 1.8 0 .6.1 1.2.4 1.7.2.2.4.6.7 1 .3.4.8.9 1.3 1.4 1 1 1.7 1.9 2.1 2.7.4.7.6 1.6.6 2.7 0 1.4-.4 2.6-1.2 3.5-.4.5-1 .8-1.6 1.1h8.3c-2.3-1.1-3.6-4.1-3.6-9.1z"/></g></svg>