<?xml version="1.0" encoding="utf-8"?>
<!-- Generator: Adobe Illustrator 19.0.0, SVG Export Plug-In . SVG Version: 6.00 Build 0)  -->
<svg version="1.1" id="Layer_1" xmlns="http://www.w3.org/2000/svg" xmlns:xlink="http://www.w3.org/1999/xlink" x="0px" y="0px"
	 viewBox="-283 399.3 566.9 42.5" style="enable-background:new -283 399.3 566.9 42.5;" xml:space="preserve">
<style type="text/css">
	.st0{fill:#F5EBE6;}
</style>
<g>
	<line class="st0" x1="287.1" y1="430.8" x2="287.1" y2="412.3"/>
</g>
<g>
	<path class="st0" d="M-25.1,416.6v9.9c0,0.6,0.2,1.1,0.5,1.4c0.4,0.3,0.8,0.5,1.3,0.5c0.5,0,0.9-0.2,1.3-0.5
		c0.4-0.3,0.5-0.8,0.5-1.4v-9.9c0-0.6-0.2-1.1-0.5-1.4c-0.4-0.3-0.8-0.5-1.3-0.5c-0.5,0-0.9,0.2-1.3,0.5
		C-24.9,415.5-25.1,416-25.1,416.6z"/>
	<path class="st0" d="M-24.9,430.7c-0.5-0.2-1-0.5-1.4-0.9c-0.4-0.4-0.8-0.8-1.1-1.4c-0.3-0.6-0.4-1.2-0.4-2v-9.9
		c0-0.8,0.1-1.4,0.4-2c0.3-0.6,0.6-1.1,1.1-1.4c0.4-0.4,0.9-0.6,1.4-0.8c0,0,0,0,0,0h-8.3c2.3,0.5,3.5,2.2,3.5,5.4
		c0,1.1-0.2,2-0.5,2.8c-0.3,0.8-0.9,1.4-1.8,1.9l2.8,8.4L-24.9,430.7C-24.8,430.8-24.8,430.7-24.9,430.7z"/>
	<path class="st0" d="M-13.7,430.7c-0.5-0.2-1-0.5-1.4-0.9c-0.4-0.4-0.8-0.8-1.1-1.4c-0.3-0.6-0.4-1.2-0.4-2v-9.9
		c0-0.8,0.1-1.4,0.4-2c0.3-0.6,0.6-1.1,1.1-1.4c0.4-0.4,0.9-0.6,1.4-0.8c0,0,0,0,0,0h-8c0,0,0,0,0,0c0.5,0.2,1,0.5,1.5,0.8
		c0.4,0.4,0.8,0.9,1,1.4c0.3,0.6,0.4,1.2,0.4,2v9.9c0,0.8-0.1,1.5-0.4,2c-0.3,0.6-0.6,1-1,1.4c-0.4,0.4-0.9,0.7-1.5,0.9c0,0,0,0,0,0
		L-13.7,430.7C-13.7,430.8-13.7,430.7-13.7,430.7z"/>
	<path class="st0" d="M34.2,412.3c0.2,0,0.5,0.1,0.7,0.2c0.6,0.2,1.1,0.5,1.5,1c0.5,0.5,0.8,1.1,0.9,1.7c0.2,0.7,0.3,1.5,0.3,2.7
		c0,0.8,0,1.5-0.1,2.1c-0.1,0.6-0.3,1.1-0.6,1.6c-0.4,0.6-0.9,1.1-1.5,1.4c-0.6,0.3-1.4,0.5-2.4,0.5h-1.4v7.2h253.3v-18.4H34.2z"/>
	<path class="st0" d="M-13.9,416.6v9.9c0,0.6,0.2,1.1,0.5,1.4c0.4,0.3,0.8,0.5,1.3,0.5c0.5,0,0.9-0.2,1.3-0.5
		c0.4-0.3,0.5-0.8,0.5-1.4v-9.9c0-0.6-0.2-1.1-0.5-1.4c-0.4-0.3-0.8-0.5-1.3-0.5c-0.5,0-0.9,0.2-1.3,0.5
		C-13.7,415.5-13.9,416-13.9,416.6z"/>
	<polygon class="st0" points="-32,430.8 -34.5,422.9 -36.1,422.9 -36.1,430.8 	"/>
	<path class="st0" d="M-34.5,420.5c0.5,0,0.8-0.1,1.1-0.2c0.3-0.1,0.5-0.3,0.7-0.6c0.1-0.2,0.2-0.5,0.3-0.9c0.1-0.4,0.1-0.8,0.1-1.2
		c0-0.5,0-0.9-0.1-1.2c-0.1-0.4-0.2-0.7-0.3-0.9c-0.3-0.5-1-0.7-1.9-0.7h-1.4v5.8H-34.5z"/>
	<path class="st0" d="M31.6,421.1h1.3c0.5,0,1-0.1,1.3-0.2c0.3-0.2,0.5-0.4,0.7-0.7c0.1-0.3,0.2-0.6,0.2-1c0-0.4,0-0.8,0-1.3
		c0-0.4,0-0.9,0-1.2c0-0.4-0.1-0.7-0.2-1c-0.1-0.3-0.4-0.5-0.6-0.7c-0.3-0.2-0.7-0.2-1.2-0.2h-1.4V421.1z"/>
	<path class="st0" d="M28.9,412.3h-5.3c0,0,0,0,0,0c0.5,0.2,1,0.5,1.5,0.8c0.4,0.4,0.8,0.9,1,1.4c0.3,0.6,0.4,1.2,0.4,2v9.9
		c0,0.8-0.1,1.5-0.4,2c-0.3,0.6-0.6,1-1,1.4c-0.4,0.4-0.9,0.7-1.5,0.9c0,0,0,0,0,0h5.3V412.3z"/>
	<path class="st0" d="M-5.2,412.3h-5.3c0,0,0,0,0,0c0.5,0.2,1,0.5,1.5,0.8c0.4,0.4,0.8,0.9,1,1.4c0.3,0.6,0.4,1.2,0.4,2v9.9
		c0,0.8-0.1,1.5-0.4,2c-0.3,0.6-0.6,1-1,1.4c-0.4,0.4-0.9,0.7-1.5,0.9c0,0,0,0,0,0h5.3V412.3z"/>
	<path class="st0" d="M20.3,416.6v9.9c0,0.6,0.2,1.1,0.5,1.4c0.4,0.3,0.8,0.5,1.3,0.5c0.5,0,0.9-0.2,1.3-0.5
		c0.4-0.3,0.5-0.8,0.5-1.4v-9.9c0-0.6-0.2-1.1-0.5-1.4c-0.4-0.3-0.8-0.5-1.3-0.5c-0.5,0-0.9,0.2-1.3,0.5
		C20.5,415.5,20.3,416,20.3,416.6z"/>
	<rect x="-285" y="412.3" class="st0" width="246.3" height="18.4"/>
	<polygon class="st0" points="11.1,414.7 8,414.7 8,412.3 2.8,412.3 2.8,414.7 -2.5,414.7 -2.5,420.4 2.1,420.4 2.1,422.9 
		-2.5,422.9 -2.5,430.8 11.1,430.8 	"/>
	<path class="st0" d="M20.5,430.7c-0.5-0.2-1-0.5-1.4-0.9c-0.4-0.4-0.8-0.8-1.1-1.4c-0.3-0.6-0.4-1.2-0.4-2v-9.9
		c0-0.8,0.1-1.4,0.4-2c0.3-0.6,0.6-1.1,1.1-1.4c0.4-0.4,0.9-0.6,1.4-0.8c0,0,0,0,0,0h-3.6v2.4h-3.1v16L20.5,430.7
		C20.5,430.8,20.5,430.7,20.5,430.7z"/>
</g>
</svg>
