<svg id="Layer_1" xmlns="http://www.w3.org/2000/svg" viewBox="-283 385.2 566.9 56.7"><style>.st0{fill:#f5ebe6}</style><path class="st0" d="M5.3 411.4H-5.2c2.3.5 3.5 2.2 3.5 5.4 0 1.1-.2 2-.5 2.8s-.9 1.4-1.8 1.9l2.8 8.4h6.5v-18.5zM-20.5 411.4h-1.1v2.4h-3.1v16h4.2z"/><path class="st0" d="M-6.6 419.6c.5 0 .8-.1 1.1-.2.3-.1.5-.3.7-.6.1-.2.2-.5.3-.9.1-.4.1-.8.1-1.2 0-.5 0-.9-.1-1.2-.1-.4-.2-.7-.3-.9-.3-.5-1-.7-1.9-.7h-1.4v5.8l1.5-.1zM-6.5 421.9h-1.6v7.9H-4zM-10.8 429.8v-18.4h-1.7v2.4h-5.3v5.4h4.6v2.6h-4.6v5.4h5.3v2.6zM-27.4 413.8h-3.1v-2.4h-3.6c.1 0 .2 0 .3.1.6.2 1 .6 1.4 1 .8.8 1.2 1.8 1.2 2.9v1.3h-2.7v-.6c0-.6-.1-1.1-.4-1.6-.3-.4-.8-.7-1.5-.7-.4 0-.7.1-.9.2s-.4.3-.6.5c-.1.2-.2.5-.3.8s-.1.6-.1.9v.9c0 .2.1.5.2.7.1.2.3.4.5.5s.5.3.8.4l2 .8c.6.2 1.1.5 1.4.8.4.3.7.7.9 1.1.2.4.3.9.4 1.4s.1 1.1.1 1.8c0 .8-.1 1.5-.2 2.2-.2.7-.4 1.2-.8 1.7s-.8.9-1.4 1.2c-.1.1-.3.1-.4.1h6.6v-16h.2zM-48.3 429.8c-.6-.2-1-.5-1.4-.9s-.8-.8-1-1.4c-.3-.6-.4-1.2-.4-2v-9.9c0-.8.1-1.4.4-2 .3-.6.6-1.1 1-1.4.4-.4.9-.6 1.4-.8h-8.1c.2 0 .5.1.7.2.6.2 1.1.5 1.5 1 .5.5.8 1.1.9 1.7.2.7.3 1.5.3 2.7 0 .8 0 1.5-.1 2.1s-.3 1.1-.6 1.6c-.4.6-.9 1.1-1.5 1.4s-1.4.5-2.4.5H-59v7.2h10.7z"/><path class="st0" d="M-59 420.1h1.3c.5 0 1-.1 1.3-.2.3-.2.5-.4.7-.7.1-.3.2-.6.2-1v-1.3-1.2c0-.4-.1-.7-.2-1-.1-.3-.4-.5-.6-.7-.3-.2-.7-.2-1.2-.2H-59v6.3zM-37.6 429.7c-.6-.2-1-.5-1.4-.9s-.7-.9-1-1.4c-.2-.5-.4-1.1-.4-1.7v-1h2.7v.8c0 .5.1.9.4 1.3.3.4.8.6 1.5.6.5 0 .8-.1 1.1-.2s.5-.3.6-.6.2-.5.2-.9v-1.1c0-.5 0-.9-.1-1.2 0-.3-.1-.6-.2-.8-.1-.2-.3-.3-.5-.5-.2-.1-.5-.3-.8-.4l-1.9-.8c-1.2-.5-1.9-1.1-2.3-1.9-.4-.8-.6-1.8-.6-2.9 0-.7.1-1.4.3-2s.5-1.2.9-1.6c.4-.5.8-.8 1.4-1.1.1-.1.3-.1.4-.1h-7.8c.5.2 1 .5 1.5.8.4.4.8.9 1 1.4.3.6.4 1.2.4 2v9.9c0 .8-.1 1.5-.4 2-.3.6-.6 1-1 1.4s-.9.7-1.5.9h7.7c-.1.1-.1.1-.2 0z"/><path class="st0" d="M-48.5 415.6v9.9c0 .6.2 1.1.5 1.4.4.3.8.5 1.3.5s.9-.2 1.3-.5.5-.8.5-1.4v-9.9c0-.6-.2-1.1-.5-1.4-.4-.3-.8-.5-1.3-.5s-.9.2-1.3.5c-.3.3-.5.8-.5 1.4zM50.6 427.5c-.3.6-.6 1-1 1.4s-.9.7-1.5.9h5.1v-18.4h-5.1c.5.2 1 .5 1.5.8.4.4.8.9 1 1.4.3.6.4 1.2.4 2v.9h-2.7v-.9c0-.6-.2-1.1-.5-1.4-.4-.3-.8-.5-1.3-.5s-.9.2-1.3.5-.5.8-.5 1.4v9.9c0 .6.2 1.1.5 1.4.4.3.8.5 1.3.5s.9-.2 1.3-.5.5-.8.5-1.4V422h-2.1v-2.4H51v5.9c0 .8-.1 1.5-.4 2zM55.9 418.7v11.1H60l-4-11.1zM55.9 411.4l4 11.1v-11.1zM-284 411.4h222.3v18.4H-284zM62.6 411.4h222.3v18.4H62.6zM16.5 411.4h-5.9c.9.2 1.7.5 2.2 1.1.8.8 1.2 2 1.2 3.6v8.7c0 1.7-.4 3-1.3 3.9-.6.6-1.4.9-2.3 1.1h6.1v-18.4zM28.6 429.8c-.1 0-.1 0-.2-.1-.6-.2-1-.5-1.4-.9s-.7-.9-1-1.4c-.2-.5-.4-1.1-.4-1.7v-1h2.7v.8c0 .5.1.9.4 1.3s.8.6 1.5.6c.5 0 .8-.1 1.1-.2s.4-.3.6-.6.2-.5.2-.9v-1.1c0-.5 0-.9-.1-1.2 0-.3-.1-.6-.2-.8-.1-.2-.3-.3-.5-.5-.2-.1-.5-.3-.8-.4l-1.9-.8c-1.2-.5-1.9-1.1-2.3-1.9s-.6-1.8-.6-2.9c0-.7.1-1.4.3-2 .2-.6.5-1.2.9-1.6.4-.5.8-.8 1.4-1.1.1-.1.3-.1.4-.1h-4.3v2.4h-5.3v5.5h4.6v2.5h-4.6v5.5h5.3v2.5h4.2v.1z"/><path class="st0" d="M9.2 427.4c.8 0 1.3-.2 1.6-.6s.5-1 .5-1.8v-9c0-.7-.1-1.3-.4-1.7-.3-.4-.8-.6-1.6-.6H8v13.7h1.2zM36.9 411.4h-5c.1 0 .2 0 .3.1.6.2 1 .6 1.4 1 .8.8 1.2 1.8 1.2 2.9v1.3h-2.7v-.6c0-.6-.1-1.1-.4-1.6-.3-.4-.8-.7-1.5-.7-.4 0-.7.1-.9.2s-.4.3-.6.5c-.1.2-.2.5-.3.8-.1.3-.1.6-.1.9v.9c0 .2.1.5.2.7s.3.4.5.5.5.3.8.4l2 .8c.6.2 1.1.5 1.4.8.4.3.7.7.9 1.1s.3.9.4 1.4c.1.5.1 1.1.1 1.8 0 .8-.1 1.5-.2 2.2-.2.7-.4 1.2-.8 1.7s-.8.9-1.4 1.2c-.1.1-.3.1-.4.1h4.9v-18.4h.2zM44.9 429.8c-.5-.2-1-.5-1.4-.9s-.8-.8-1-1.4c-.3-.6-.4-1.2-.4-2v-9.9c0-.8.1-1.4.4-2 .3-.6.6-1.1 1-1.4.4-.4.9-.6 1.4-.8h-5.3v18.4h5.3z"/></svg>