<?xml version="1.0" encoding="utf-8"?>
<!-- Generator: Adobe Illustrator 19.0.0, SVG Export Plug-In . SVG Version: 6.00 Build 0)  -->
<svg version="1.1" id="Layer_1" xmlns="http://www.w3.org/2000/svg" xmlns:xlink="http://www.w3.org/1999/xlink" x="0px" y="0px"
	 viewBox="-283 385.2 566.9 56.7" style="enable-background:new -283 385.2 566.9 56.7;" xml:space="preserve">
<style type="text/css">
	.st0{fill:#F5EBE6;}
</style>
<g>
	<path class="st0" d="M5.3,411.4H-5.2c2.3,0.5,3.5,2.2,3.5,5.4c0,1.1-0.2,2-0.5,2.8s-0.9,1.4-1.8,1.9l2.8,8.4h6.5V411.4z"/>
	<polygon class="st0" points="-20.5,411.4 -21.6,411.4 -21.6,413.8 -24.7,413.8 -24.7,429.8 -20.5,429.8 	"/>
	<path class="st0" d="M-6.6,419.6c0.5,0,0.8-0.1,1.1-0.2c0.3-0.1,0.5-0.3,0.7-0.6c0.1-0.2,0.2-0.5,0.3-0.9c0.1-0.4,0.1-0.8,0.1-1.2
		c0-0.5,0-0.9-0.1-1.2c-0.1-0.4-0.2-0.7-0.3-0.9c-0.3-0.5-1-0.7-1.9-0.7h-1.4v5.8L-6.6,419.6L-6.6,419.6z"/>
	<polygon class="st0" points="-6.5,421.9 -8.1,421.9 -8.1,429.8 -4,429.8 	"/>
	<polygon class="st0" points="-10.8,429.8 -10.8,411.4 -12.5,411.4 -12.5,413.8 -17.8,413.8 -17.8,419.2 -13.2,419.2 -13.2,421.8 
		-17.8,421.8 -17.8,427.2 -12.5,427.2 -12.5,429.8 	"/>
	<path class="st0" d="M-27.4,413.8h-3.1v-2.4h-3.6c0.1,0,0.2,0,0.3,0.1c0.6,0.2,1,0.6,1.4,1c0.8,0.8,1.2,1.8,1.2,2.9v1.3h-2.7v-0.6
		c0-0.6-0.1-1.1-0.4-1.6c-0.3-0.4-0.8-0.7-1.5-0.7c-0.4,0-0.7,0.1-0.9,0.2s-0.4,0.3-0.6,0.5c-0.1,0.2-0.2,0.5-0.3,0.8
		s-0.1,0.6-0.1,0.9c0,0.4,0,0.7,0,0.9c0,0.2,0.1,0.5,0.2,0.7c0.1,0.2,0.3,0.4,0.5,0.5s0.5,0.3,0.8,0.4l2,0.8
		c0.6,0.2,1.1,0.5,1.4,0.8c0.4,0.3,0.7,0.7,0.9,1.1c0.2,0.4,0.3,0.9,0.4,1.4s0.1,1.1,0.1,1.8c0,0.8-0.1,1.5-0.2,2.2
		c-0.2,0.7-0.4,1.2-0.8,1.7c-0.4,0.5-0.8,0.9-1.4,1.2c-0.1,0.1-0.3,0.1-0.4,0.1h6.6v-16L-27.4,413.8L-27.4,413.8z"/>
	<path class="st0" d="M-48.3,429.8L-48.3,429.8c-0.6-0.2-1-0.5-1.4-0.9s-0.8-0.8-1-1.4c-0.3-0.6-0.4-1.2-0.4-2v-9.9
		c0-0.8,0.1-1.4,0.4-2c0.3-0.6,0.6-1.1,1-1.4c0.4-0.4,0.9-0.6,1.4-0.8l0,0h-8.1c0.2,0,0.5,0.1,0.7,0.2c0.6,0.2,1.1,0.5,1.5,1
		c0.5,0.5,0.8,1.1,0.9,1.7c0.2,0.7,0.3,1.5,0.3,2.7c0,0.8,0,1.5-0.1,2.1s-0.3,1.1-0.6,1.6c-0.4,0.6-0.9,1.1-1.5,1.4
		s-1.4,0.5-2.4,0.5H-59v7.2L-48.3,429.8L-48.3,429.8z"/>
	<path class="st0" d="M-59,420.1h1.3c0.5,0,1-0.1,1.3-0.2c0.3-0.2,0.5-0.4,0.7-0.7c0.1-0.3,0.2-0.6,0.2-1s0-0.8,0-1.3
		c0-0.4,0-0.9,0-1.2c0-0.4-0.1-0.7-0.2-1c-0.1-0.3-0.4-0.5-0.6-0.7c-0.3-0.2-0.7-0.2-1.2-0.2H-59V420.1z"/>
	<path class="st0" d="M-37.6,429.7c-0.6-0.2-1-0.5-1.4-0.9s-0.7-0.9-1-1.4c-0.2-0.5-0.4-1.1-0.4-1.7v-1h2.7v0.8
		c0,0.5,0.1,0.9,0.4,1.3c0.3,0.4,0.8,0.6,1.5,0.6c0.5,0,0.8-0.1,1.1-0.2s0.5-0.3,0.6-0.6s0.2-0.5,0.2-0.9c0-0.3,0-0.7,0-1.1
		c0-0.5,0-0.9-0.1-1.2c0-0.3-0.1-0.6-0.2-0.8c-0.1-0.2-0.3-0.3-0.5-0.5c-0.2-0.1-0.5-0.3-0.8-0.4l-1.9-0.8c-1.2-0.5-1.9-1.1-2.3-1.9
		c-0.4-0.8-0.6-1.8-0.6-2.9c0-0.7,0.1-1.4,0.3-2s0.5-1.2,0.9-1.6c0.4-0.5,0.8-0.8,1.4-1.1c0.1-0.1,0.3-0.1,0.4-0.1h-7.8l0,0
		c0.5,0.2,1,0.5,1.5,0.8c0.4,0.4,0.8,0.9,1,1.4c0.3,0.6,0.4,1.2,0.4,2v9.9c0,0.8-0.1,1.5-0.4,2c-0.3,0.6-0.6,1-1,1.4
		s-0.9,0.7-1.5,0.9l0,0h7.7C-37.5,429.8-37.5,429.8-37.6,429.7z"/>
	<path class="st0" d="M-48.5,415.6v9.9c0,0.6,0.2,1.1,0.5,1.4c0.4,0.3,0.8,0.5,1.3,0.5s0.9-0.2,1.3-0.5c0.4-0.3,0.5-0.8,0.5-1.4
		v-9.9c0-0.6-0.2-1.1-0.5-1.4c-0.4-0.3-0.8-0.5-1.3-0.5s-0.9,0.2-1.3,0.5C-48.3,414.5-48.5,415-48.5,415.6z"/>
	<path class="st0" d="M50.6,427.5c-0.3,0.6-0.6,1-1,1.4s-0.9,0.7-1.5,0.9l0,0h5.1v-18.4h-5.1l0,0c0.5,0.2,1,0.5,1.5,0.8
		c0.4,0.4,0.8,0.9,1,1.4c0.3,0.6,0.4,1.2,0.4,2v0.9h-2.7v-0.9c0-0.6-0.2-1.1-0.5-1.4c-0.4-0.3-0.8-0.5-1.3-0.5s-0.9,0.2-1.3,0.5
		c-0.4,0.3-0.5,0.8-0.5,1.4v9.9c0,0.6,0.2,1.1,0.5,1.4c0.4,0.3,0.8,0.5,1.3,0.5s0.9-0.2,1.3-0.5c0.4-0.3,0.5-0.8,0.5-1.4V422h-2.1
		v-2.4H51v5.9C51,426.3,50.9,427,50.6,427.5z"/>
	<polygon class="st0" points="55.9,418.7 55.9,429.8 60,429.8 56,418.7 	"/>
	<polygon class="st0" points="55.9,411.4 59.9,422.5 59.9,422.5 59.9,411.4 	"/>
	<rect x="-284" y="411.4" class="st0" width="222.3" height="18.4"/>
	<rect x="62.6" y="411.4" class="st0" width="222.3" height="18.4"/>
	<path class="st0" d="M16.5,411.4h-5.9c0.9,0.2,1.7,0.5,2.2,1.1c0.8,0.8,1.2,2,1.2,3.6v8.7c0,1.7-0.4,3-1.3,3.9
		c-0.6,0.6-1.4,0.9-2.3,1.1h6.1V411.4z"/>
	<path class="st0" d="M28.6,429.8c-0.1,0-0.1,0-0.2-0.1c-0.6-0.2-1-0.5-1.4-0.9s-0.7-0.9-1-1.4c-0.2-0.5-0.4-1.1-0.4-1.7v-1h2.7v0.8
		c0,0.5,0.1,0.9,0.4,1.3s0.8,0.6,1.5,0.6c0.5,0,0.8-0.1,1.1-0.2s0.4-0.3,0.6-0.6s0.2-0.5,0.2-0.9c0-0.3,0-0.7,0-1.1
		c0-0.5,0-0.9-0.1-1.2c0-0.3-0.1-0.6-0.2-0.8c-0.1-0.2-0.3-0.3-0.5-0.5c-0.2-0.1-0.5-0.3-0.8-0.4l-1.9-0.8c-1.2-0.5-1.9-1.1-2.3-1.9
		s-0.6-1.8-0.6-2.9c0-0.7,0.1-1.4,0.3-2c0.2-0.6,0.5-1.2,0.9-1.6c0.4-0.5,0.8-0.8,1.4-1.1c0.1-0.1,0.3-0.1,0.4-0.1h-4.3v2.4h-5.3
		v5.5h4.6v2.5h-4.6v5.5h5.3v2.5h4.2C28.6,429.7,28.6,429.8,28.6,429.8z"/>
	<path class="st0" d="M9.2,427.4c0.8,0,1.3-0.2,1.6-0.6s0.5-1,0.5-1.8v-9c0-0.7-0.1-1.3-0.4-1.7c-0.3-0.4-0.8-0.6-1.6-0.6H8v13.7
		H9.2z"/>
	<path class="st0" d="M36.9,411.4h-5c0.1,0,0.2,0,0.3,0.1c0.6,0.2,1,0.6,1.4,1c0.8,0.8,1.2,1.8,1.2,2.9v1.3h-2.7v-0.6
		c0-0.6-0.1-1.1-0.4-1.6c-0.3-0.4-0.8-0.7-1.5-0.7c-0.4,0-0.7,0.1-0.9,0.2s-0.4,0.3-0.6,0.5c-0.1,0.2-0.2,0.5-0.3,0.8
		c-0.1,0.3-0.1,0.6-0.1,0.9c0,0.4,0,0.7,0,0.9c0,0.2,0.1,0.5,0.2,0.7s0.3,0.4,0.5,0.5s0.5,0.3,0.8,0.4l2,0.8
		c0.6,0.2,1.1,0.5,1.4,0.8c0.4,0.3,0.7,0.7,0.9,1.1s0.3,0.9,0.4,1.4c0.1,0.5,0.1,1.1,0.1,1.8c0,0.8-0.1,1.5-0.2,2.2
		c-0.2,0.7-0.4,1.2-0.8,1.7c-0.4,0.5-0.8,0.9-1.4,1.2c-0.1,0.1-0.3,0.1-0.4,0.1h4.9v-18.4H36.9z"/>
	<path class="st0" d="M44.9,429.8c-0.5-0.2-1-0.5-1.4-0.9s-0.8-0.8-1-1.4c-0.3-0.6-0.4-1.2-0.4-2v-9.9c0-0.8,0.1-1.4,0.4-2
		c0.3-0.6,0.6-1.1,1-1.4c0.4-0.4,0.9-0.6,1.4-0.8l0,0h-5.3v18.4L44.9,429.8L44.9,429.8z"/>
</g>
</svg>
