<svg version="1.1" id="Layer_1" xmlns="http://www.w3.org/2000/svg" x="0" y="0" viewBox="0 0 566.9 56.7" xml:space="preserve"><style>.st0{fill:#f5ebe6}</style><g id="XMLID_379_"><path id="XMLID_979_" class="st0" d="M1164.9 722.9h-2.9v-2.1h-4.4c.7.3 1.3.7 1.8 1.3.5.7.9 1.7 1.1 3 .2 1.2.3 3 .3 5.3 0 3.3-.4 5.6-1.1 7-.5.9-1.1 1.5-2 1.8h7.1v-16.3z"/><path id="XMLID_980_" class="st0" d="M1154.3 724.1c-.3 1-.4 2.9-.4 5.9 0 2.7.2 4.6.5 5.6s.9 1.5 1.8 1.5c.8 0 1.4-.5 1.7-1.4.3-.9.5-2.6.5-5.1 0-3.2-.1-5.3-.4-6.4-.3-1.1-.9-1.6-1.8-1.6-1 .1-1.6.6-1.9 1.5z"/><path id="XMLID_981_" class="st0" d="M1172.4 737.2c-.7-1.4-1.1-4-1.1-7.7 0-3.3.4-5.6 1.1-7 .5-.9 1.1-1.5 2-1.8h-4.2v2.1h-2.8v16.3h7.2c-1-.3-1.7-.9-2.2-1.9z"/><path id="XMLID_982_" class="st0" d="M1184.2 737.3c-.7-1.4-1.1-3.9-1.1-7.3 0-3.9.4-6.5 1.2-7.8.5-.8 1.1-1.2 1.9-1.5h-8.5c.7.3 1.3.7 1.8 1.3.5.7.9 1.7 1.1 3 .2 1.2.3 3 .3 5.3 0 3.3-.4 5.6-1.1 7-.5.9-1.1 1.5-2 1.8h8.3c-.7-.3-1.4-.9-1.9-1.8z"/><path id="XMLID_983_" class="st0" d="M1174.4 724.1c-.3 1-.4 2.9-.4 5.9 0 2.7.2 4.6.5 5.6s.9 1.5 1.8 1.5c.8 0 1.4-.5 1.7-1.4.3-.9.5-2.6.5-5.1 0-3.2-.1-5.3-.4-6.4-.3-1.1-.9-1.6-1.8-1.6-1 .1-1.6.6-1.9 1.5z"/><path id="XMLID_984_" class="st0" d="M1142.6 720.7h3.7v7.2h-3.7z"/><path id="XMLID_985_" class="st0" d="M1152.3 737.2c-.7-1.4-1.1-4-1.1-7.7 0-3.3.4-5.6 1.1-7 .5-.9 1.1-1.5 2-1.8h-5.5v18.4h5.7c-1-.3-1.7-.9-2.2-1.9z"/><path id="XMLID_986_" class="st0" d="M1140.1 739.1v-18.4h-5.8c1.2.1 2.2.5 2.8 1.2.7.8 1.1 2.1 1.1 3.8 0 2.5-.7 4.1-2.2 4.8-.7.3-1.8.5-3.2.5v8.2h7.3z"/><path id="XMLID_987_" class="st0" d="M1135 728.2c.4-.4.6-1.2.6-2.3 0-1.1-.2-1.9-.6-2.4-.4-.5-1-.8-1.8-.8h-.3v6.1c1 0 1.7-.2 2.1-.6z"/><path id="XMLID_988_" class="st0" d="M1142.6 730h3.7v9.1h-3.7z"/><path id="XMLID_989_" class="st0" d="M1191.5 737.5c-.4.8-1 1.4-1.8 1.7h5.2v-18.4h-5.3c.4.1.8.3 1.1.6.7.6 1.2 1.6 1.6 2.9l-2.3 1c-.1-.5-.2-.9-.3-1.2-.1-.3-.3-.6-.4-.8-.3-.4-.8-.6-1.4-.6-.8 0-1.4.5-1.7 1.5-.3 1.1-.5 3-.5 5.8s.2 4.7.5 5.7.9 1.5 1.8 1.5c.8 0 1.3-.4 1.7-1.1.3-.8.5-2 .5-3.6v-.9h-2.2v-2.1h4.5v.7c-.1 3.6-.4 6-1 7.3z"/><path id="XMLID_990_" class="st0" d="M1219.9 728.2c.4-.4.6-1.2.6-2.3 0-1.1-.2-1.9-.6-2.4-.4-.5-1-.8-1.8-.8h-.3v6.1c1 0 1.7-.2 2.1-.6z"/><path id="XMLID_991_" class="st0" d="M1227.5 730h3.7v9.1h-3.7z"/><path id="XMLID_992_" class="st0" d="M1197.4 728.9c1 0 1.7-.2 2.1-.7s.6-1.2.6-2.3c0-.6 0-1.1-.1-1.5-.1-.4-.2-.7-.4-1-.2-.3-.4-.4-.7-.6s-.6-.2-1-.2h-.4v6.3z"/><path id="XMLID_993_" class="st0" d="M898.5 720.7h231.8v18.4H898.5z"/><path id="XMLID_994_" class="st0" d="M1225 720.7h-5.8c1.2.1 2.2.5 2.8 1.2.7.8 1.1 2.1 1.1 3.8 0 2.5-.7 4.1-2.2 4.8-.7.3-1.8.5-3.2.5v8.2h7.2v-18.5z"/><path id="XMLID_995_" class="st0" d="M1233.7 720.7h231.8v18.4h-231.8z"/><path id="XMLID_996_" class="st0" d="M1227.5 720.7h3.7v7.2h-3.7z"/><path id="XMLID_997_" class="st0" d="M1207.9 720.7h-9c1 .1 1.8.4 2.4.9.8.8 1.3 2.1 1.3 3.9 0 1.3-.2 2.4-.7 3.2-.4.8-1.1 1.3-1.9 1.5l3.4 9h.6l3.9-18.5z"/><path id="XMLID_998_" class="st0" d="M1197.4 730.1v9h3.4z"/><path id="XMLID_999_" class="st0" d="M1210.7 735.6h-3.7l-.7 3.5h5z"/><path id="XMLID_1000_" class="st0" d="M1215.3 720.7h-5.4l3.9 18.4h1.5z"/><path id="XMLID_1001_" class="st0" d="M1207.8 731.3l-.5 2.4h3l-.6-3c-.4-2-.7-4.2-.9-6.4-.1 1.1-.3 2.2-.4 3.4-.2 1.1-.4 2.3-.6 3.6z"/></g><g id="XMLID_136_"><path id="XMLID_140_" class="st0" d="M285.9 29.3c0-.2-.1-.6-.1-1l-.3-1.8c0-.1 0-.4-.1-.6 0-.3-.1-.6-.1-1.1l-.1-.8v.8c0 .5-.1.9-.1 1.2 0 .3 0 .5-.1.5l-.3 1.8c-.1.4-.1.7-.1 1 0 .2-.1.4-.1.4l-1.3 7.9h4l-1.3-7.9v-.4z"/><path id="XMLID_137_" class="st0" d="M302.7 29.3c-.3-.8-.5-1.6-.7-2.4-.2-.8-.4-1.7-.6-2.6 0-.1 0-.2-.1-.4 0-.2-.1-.3-.1-.5 0 .2 0 .4.1.5v.4l.1 1.9.1 2.3v1.1l.1 8h3.8l-2.7-8.3z"/><path id="XMLID_238_" class="st0" d="M248.1 19.2h3.1c.9 0 1.7.1 2.4.3.6.2 1.1.6 1.6 1.1.7.8 1.2 1.8 1.5 3 .3 1.2.4 2.9.4 5.1 0 2-.2 3.7-.5 5-.3 1.2-.8 2.2-1.6 2.8-.7.6-1.9 1-3.5 1.1h8V19.2h3.3c1.4 0 2.4.3 3 1 .8.8 1.3 2.1 1.3 3.8 0 1.3-.2 2.4-.7 3.2-.4.8-1.1 1.3-1.9 1.5l3.4 8.9h.6l4-18.4h1.9l3.9 18.4h2.9L278 19.2h2.4l1.3 8.6.2 1.3c.1.7.2 1.3.2 1.9l.1 1.6v.6l.1-.6c.1-1 .2-2 .3-2.9.1-.9.2-1.7.4-2.4l1.3-8h1.9l1.2 7.7c.2 1.1.3 2.2.5 3.2.1 1 .2 1.9.3 2.8l.3-2.7c.1-.9.2-1.7.3-2.6l.2-1.2 1.1-7.2h2.4l-3.2 18.4h4.7V19.2h2.5v18.4h2.8V19.2h2.3l2.5 7.4c.7 2.1 1.3 4.3 1.9 6.6-.2-1.4-.3-2.7-.4-3.9-.1-1.2-.1-2.2-.1-3.3v-6.9h2.5v18.4h5.6c-.9-.3-1.6-.9-2.1-1.9-.7-1.4-1.1-3.8-1.1-7.2 0-3.9.4-6.4 1.2-7.7.5-.8 1.2-1.4 2.2-1.6H1.2v18.4h246.9V19.2z"/><path id="XMLID_397_" class="st0" d="M270.8 37.6h5l-.6-3.6h-3.7z"/><path id="XMLID_398_" class="st0" d="M316.5 19.1c.5.1 1 .4 1.4.7.7.6 1.2 1.6 1.6 2.9l-2.3 1c-.1-.5-.2-.9-.3-1.2-.1-.3-.3-.6-.4-.8-.3-.4-.8-.6-1.4-.6-.8 0-1.4.5-1.7 1.5-.3 1.1-.5 3-.5 5.7 0 2.8.2 4.7.5 5.7s.9 1.5 1.8 1.5c.8 0 1.3-.4 1.7-1.1.3-.7.5-1.9.5-3.6V30h-2.2v-2.1h4.5v.7c0 3.6-.3 6-.9 7.3-.4.8-1 1.3-1.8 1.7h250V19.1H316.5z"/><path id="XMLID_399_" class="st0" d="M273.4 22.8c-.1 1.1-.3 2.2-.4 3.4-.2 1.1-.4 2.3-.6 3.6l-.5 2.4h2.9l-.5-2.9c-.4-2.1-.7-4.3-.9-6.5z"/><path id="XMLID_400_" class="st0" d="M264.5 23c-.1-.4-.2-.7-.4-1-.2-.3-.4-.4-.7-.6-.3-.1-.6-.2-1-.2h-.4v6.1c1 0 1.6-.2 2-.7.4-.4.6-1.2.6-2.3 0-.4 0-.9-.1-1.3z"/><path id="XMLID_401_" class="st0" d="M254.4 28.7c0-2.8-.3-4.8-.8-5.9-.5-1.1-1.4-1.6-2.8-1.6h-.3v14.2c1.5 0 2.5-.5 3-1.4.7-.8.9-2.6.9-5.3z"/><path id="XMLID_402_" class="st0" d="M262 37.6h3.3l-3.3-9z"/></g></svg>