<?xml version="1.0" encoding="utf-8"?>
<!-- Generator: Adobe Illustrator 19.0.0, SVG Export Plug-In . SVG Version: 6.00 Build 0)  -->
<svg version="1.1" id="Layer_1" xmlns="http://www.w3.org/2000/svg" xmlns:xlink="http://www.w3.org/1999/xlink" x="0px" y="0px"
	 viewBox="0 0 737 737" style="enable-background:new 0 0 737 737;" xml:space="preserve">
<style type="text/css">
	.st0{fill:#FFFFFF;}
	.st1{opacity:0.6;}
	.st2{clip-path:url(#XMLID_55_);fill:#FFFFFF;stroke:#FFFFFF;stroke-width:0.2835;stroke-miterlimit:10;}
</style>
<g id="XMLID_2276_">
	<path id="XMLID_416_" class="st0" d="M371.9,726.4c-47.9,0-94.4-9.4-138.1-27.9c-42.3-17.9-80.2-43.5-112.8-76.1
		c-32.6-32.6-58.2-70.5-76.1-112.8C26.4,465.9,17,419.4,17,371.5s9.4-94.4,27.9-138.1c17.9-42.3,43.5-80.2,76.1-112.8
		c32.6-32.6,70.5-58.2,112.8-76.1C277.5,26,324,16.6,371.9,16.6s94.4,9.4,138.1,27.9c42.3,17.9,80.2,43.5,112.8,76.1
		c32.6,32.6,58.2,70.5,76.1,112.8c18.5,43.8,27.9,90.2,27.9,138.1s-9.4,94.4-27.9,138.1c-17.9,42.3-43.5,80.2-76.1,112.8
		c-32.6,32.6-70.5,58.2-112.8,76.1C466.3,717,419.8,726.4,371.9,726.4z M371.9,23.8c-46.9,0-92.5,9.2-135.3,27.3
		c-41.4,17.5-78.6,42.6-110.5,74.5c-31.9,31.9-57,69.1-74.5,110.5C33.5,279,24.3,324.5,24.3,371.5c0,46.9,9.2,92.5,27.3,135.3
		c17.5,41.4,42.6,78.6,74.5,110.5c31.9,31.9,69.1,57,110.5,74.5c42.9,18.1,88.4,27.3,135.3,27.3s92.5-9.2,135.3-27.3
		c41.4-17.5,78.6-42.6,110.5-74.5c31.9-31.9,57-69.1,74.5-110.5c18.1-42.9,27.3-88.4,27.3-135.3c0-46.9-9.2-92.5-27.3-135.3
		c-17.5-41.4-42.6-78.6-74.5-110.5c-31.9-31.9-69.1-57-110.5-74.5C464.4,33,418.9,23.8,371.9,23.8z"/>
	<g id="XMLID_404_">
		<path id="XMLID_1870_" class="st0" d="M154.7,311.3c-4.8,0-8.6-1.2-11.9-4.9c-3.2-3.6-3.7-7-3.7-11.5v-53.7c0-3.1,1.3-4.8,4.8-4.8
			c3.5,0,4.8,1.7,4.8,4.8v53.7c0,5.4,1.6,6.7,6,6.7h16.4c4.3,0,6-1.3,6-6.7v-53.7c0-3.1,1.3-4.8,4.8-4.8s4.8,1.7,4.8,4.8v53.7
			c0,4.4-0.5,7.9-3.7,11.5c-3.4,3.8-7.1,4.9-11.9,4.9H154.7z"/>
		<path id="XMLID_1867_" class="st0" d="M222.5,306.4c0,3.1-1.3,4.8-4.8,4.8c-3.5,0-4.8-1.7-4.8-4.8v-70.1h32
			c4.4,0,7.6,0.7,11.1,3.9c4.1,3.9,4.5,7.4,4.5,12.6V266c0,4.9-0.4,8.4-3.9,12.3c-3.8,4.2-7.7,4.6-12.9,4.6h-21.1V306.4z
			 M222.5,273.3h21.4c5.7,0,6.9-1.4,6.9-6.9v-13.5c0-5.5-1.3-6.9-6.9-6.9h-21.4V273.3z"/>
		<path id="XMLID_1865_" class="st0" d="M305.1,311.3c-7.2,0-11.4-2.9-14.4-9.1l-8.9-17.9c-1.6-3.3-2.6-6.4-2.6-10.1
			c0-4.2,0.8-6.8,2.7-10.7l8.9-17.8c3.3-6.6,7.4-9.2,14.8-9.2h16.4c2.1,0,4.8,1.2,4.8,4.8c0,3.5-2.6,4.8-4.8,4.8h-16.1
			c-4.1,0-4.8,0.4-6.6,4l-8.4,16.8c-1.3,2.6-2,4.3-2,7.3c0,2.7,0.9,4.3,2,6.6l8.2,16.7c1.9,3.9,2.9,4.2,7.2,4.2h15.7
			c2.1,0,4.8,1.2,4.8,4.8c0,3.5-2.6,4.8-4.8,4.8H305.1z"/>
		<path id="XMLID_1861_" class="st0" d="M377.2,306.4c0,3.1-1.3,4.8-4.8,4.8c-3.5,0-4.8-1.7-4.8-4.8v-30.8l-19-24.7v-9.8
			c0-3.1,1.3-4.8,4.8-4.8c3.5,0,4.8,1.7,4.8,4.8v6.5l14.2,18.4l14.2-18.4v-6.5c0-3.1,1.3-4.8,4.8-4.8c3.5,0,4.8,1.7,4.8,4.8v9.8
			l-19,24.7V306.4z"/>
		<path id="XMLID_755_" class="st0" d="M446.3,311.3c-7.2,0-11.4-2.9-14.4-9.1l-8.9-17.9c-1.6-3.3-2.6-6.4-2.6-10.1
			c0-4.2,0.8-6.8,2.7-10.7l8.9-17.8c3.3-6.6,7.4-9.2,14.8-9.2h16.4c2.1,0,4.8,1.2,4.8,4.8c0,3.5-2.6,4.8-4.8,4.8H447
			c-4.1,0-4.8,0.4-6.6,4l-8.4,16.8c-1.3,2.6-2,4.3-2,7.3c0,2.7,0.9,4.3,2,6.6l8.2,16.7c1.9,3.9,2.9,4.2,7.2,4.2h15.7
			c2.1,0,4.8,1.2,4.8,4.8c0,3.5-2.6,4.8-4.8,4.8H446.3z"/>
		<path id="XMLID_716_" class="st0" d="M535.8,301.6c2.5,0,4.8,1.3,4.8,4.8c0,3.5-2.3,4.8-4.8,4.8H493v-70.1c0-3.1,1.3-4.8,4.8-4.8
			c3.5,0,4.8,1.7,4.8,4.8v60.5H535.8z"/>
		<path id="XMLID_706_" class="st0" d="M600.7,301.6c2.5,0,4.8,1.3,4.8,4.8c0,3.5-2.3,4.8-4.8,4.8H558v-74.9h42.8
			c2.5,0,4.8,1.3,4.8,4.8c0,3.5-2.3,4.8-4.8,4.8h-33.1v23h14.2c2.5,0,4.8,1.3,4.8,4.8c0,3.5-2.3,4.8-4.8,4.8h-14.2v23H600.7z"/>
		<path id="XMLID_703_" class="st0" d="M178.5,435.2c0-3.1,1.3-4.8,4.8-4.8c3.5,0,4.8,1.7,4.8,4.8v70.1h-12.7l-25.1-57.8v-0.1H150
			v53c0,3.1-1.3,4.8-4.8,4.8c-3.5,0-4.8-1.7-4.8-4.8v-70.1h12.7l25.1,58.4h-0.1h0.2L178.5,435.2z"/>
		<path id="XMLID_688_" class="st0" d="M251.1,495.6c2.5,0,4.8,1.3,4.8,4.8c0,3.5-2.3,4.8-4.8,4.8h-42.8v-74.9h42.8
			c2.5,0,4.8,1.3,4.8,4.8c0,3.5-2.3,4.8-4.8,4.8H218v23h14.2c2.5,0,4.8,1.3,4.8,4.8c0,3.5-2.3,4.8-4.8,4.8H218v23H251.1z"/>
		<path id="XMLID_686_" class="st0" d="M285.5,439.9v3.5c0,3.1-1.3,4.8-4.8,4.8c-3.5,0-4.8-1.7-4.8-4.8v-13.1h47.6v13.1
			c0,3.1-1.3,4.8-4.8,4.8c-3.5,0-4.8-1.7-4.8-4.8v-3.5h-9.3v60.5c0,3.1-1.3,4.8-4.8,4.8c-3.5,0-4.8-1.7-4.8-4.8v-60.5H285.5z"/>
		<path id="XMLID_626_" class="st0" d="M377.9,505.2c-3.3,0-5.2-0.7-5.9-4.1h-0.2c-0.7,3.5-2.6,4.1-5.9,4.1h-7.2
			c-3.4,0-4.2-0.6-5.9-3.5l-3.4-5.9c-1.3-2.1-1.3-2.3-1.3-4.9v-55.8c0-3.1,1.3-4.8,4.8-4.8c3.5,0,4.8,1.7,4.8,4.8V491l2.6,4.6h4.1
			l2.6-4.6v-30.3c0-3,1.3-5.7,4.8-5.7c3.5,0,4.8,2.7,4.8,5.7V491l2.6,4.6h4.1l2.6-4.6v-55.8c0-3.1,1.3-4.8,4.8-4.8
			c3.5,0,4.8,1.7,4.8,4.8V491c0,2.6-0.1,2.8-1.3,4.9l-3.4,5.9c-1.6,2.9-2.5,3.5-5.9,3.5H377.9z"/>
		<path id="XMLID_443_" class="st0" d="M464.1,457.4c1.8,3.8,2.5,6.5,2.5,10.7c0,4.6-1.3,7.5-3.2,11.5l-8.9,17.7
			c-2.3,4.6-6.2,8-11.7,8c-5.6,0-9.4-3.4-11.7-8l-8.9-17.7c-1.9-3.9-3.2-6.8-3.2-11.5c0-4.1,0.7-6.9,2.5-10.7l9.6-19.2
			c2.3-4.5,6.3-7.9,11.7-7.9c5.4,0,9.3,3.4,11.7,7.9L464.1,457.4z M446.1,442.8c-0.8-1.5-1.3-2.9-3.3-2.9c-2,0-2.5,1.3-3.3,2.9
			l-8.7,17.4c-1.4,2.8-2.2,4.6-2.2,7.8c0,2.5,0.6,4.2,1.6,6.4l9.2,18.3c0.7,1.3,1.3,2.9,3.3,2.9c1.9,0,2.6-1.5,3.3-2.9l9.2-18.3
			c1.1-2.1,1.6-3.9,1.6-6.4c0-3.2-0.8-5-2.2-7.8L446.1,442.8z"/>
		<path id="XMLID_440_" class="st0" d="M498.4,500.4c0,3.1-1.3,4.8-4.8,4.8c-3.5,0-4.8-1.7-4.8-4.8v-70.1h32.4
			c7.6,0,15.2,5.4,15.2,14v6.6c0,9.1-7.5,13.7-15.2,13.7h-8.9l21.7,31c1.1,1.4,2.4,3.3,2.4,5.1c0,2.7-2.2,4.5-4.9,4.5
			c-1.9,0-3.2-1.2-4.2-2.7l-26.6-37.9h-2.2V500.4z M498.4,455h21.4c2.7,0,6.9-0.2,6.9-4v-6.6c0-3.9-3.9-4.3-6.8-4.3h-21.5V455z"/>
		<path id="XMLID_413_" class="st0" d="M559.3,435.1c0-3.1,1.3-4.8,4.8-4.8c3.5,0,4.8,1.7,4.8,4.8v22.1l29.4-24.9
			c1.2-1,2.4-1.9,3.9-1.9c2.8,0,4.6,2.3,4.6,5c0,1.6-1.1,3-2.2,4l-33.2,28.3l33,28.3c1.3,1.1,2.4,2.4,2.4,4.1c0,2.7-1.8,5-4.6,5
			c-2,0-3.7-1.7-5.2-2.9l-28.1-24.2v22.2c0,3.1-1.3,4.8-4.8,4.8c-3.5,0-4.8-1.7-4.8-4.8V435.1z"/>
	</g>
	<rect id="XMLID_2047_" x="132.8" y="369.3" class="st0" width="477.7" height="5.9"/>
</g>
<g id="XMLID_52_" class="st1">
	<defs>
		<circle id="XMLID_3338_" class="st1" cx="372.1" cy="371.5" r="354.7"/>
	</defs>
	<clipPath id="XMLID_55_">
		<use xlink:href="#XMLID_3338_"  style="overflow:visible;"/>
	</clipPath>
	<path id="XMLID_3345_" class="st2" d="M1121.4-230.1v-1.9H927.3v-194.1h-1.9V-232h-48.2v-194.1h-1.9V-232h-48.2v-194.1h-1.9V-232
		h-48.2v-194.1h-1.9V-232h-48.2v-194.1h-1.9V-232h-48.2v-194.1h-1.9V-232h-48.2v-194.1h-1.9V-232h-48.2v-194.1h-1.9V-232h-48.2
		v-194.1h-1.9V-232h-50.1v-194.1h-1.9V-232h-48.2v-194.1h-1.9V-232H374v-194.1h-1.9V-232h-48.2v-194.1H322V-232h-48.2v-194.1h-1.9
		V-232h-48.2v-194.1h-1.9V-232h-48.2v-194.1h-1.9V-232h-50.1v-194.1h-1.9V-232H71.3v-194.1h-1.9V-232H21.2v-194.1h-1.9V-232h-48.2
		v-194.1h-1.9V-232h-48.2v-194.1H-81V-232h-48.2v-194.1h-1.9V-232h-48.2v-194.1h-1.9V-232h-48.2v-194.1h-1.9V-232h-48.2v-194.1h-1.9
		V-232h-194.1v1.9h194.1v48.2h-194.1v1.9h194.1v48.2h-194.1v1.9h194.1v48.2h-194.1v1.9h194.1v48.2h-194.1v1.9h194.1v48.2h-194.1v1.9
		h194.1v48.2h-194.1v1.9h194.1v48.2h-194.1v1.9h194.1v48.2h-194.1v1.9h194.1v50.1h-194.1v1.9h194.1v48.2h-194.1v1.9h194.1v48.2
		h-194.1v1.9h194.1v48.2h-194.1v1.9h194.1v48.2h-194.1v1.9h194.1v48.2h-194.1v1.9h194.1v48.2h-194.1v1.9h194.1v50.1h-194.1v1.9
		h194.1V624h-194.1v1.9h194.1v48.2h-194.1v1.9h194.1v48.2h-194.1v1.9h194.1v48.2h-194.1v1.9h194.1v48.2h-194.1v1.9h194.1v48.2
		h-194.1v1.9h194.1v48.2h-194.1v1.9h194.1v48.2h-194.1v1.9h194.1v194.1h1.9V976.8h48.2v194.1h1.9V976.8h48.2v194.1h1.9V976.8h48.2
		v194.1h1.9V976.8H-81v194.1h1.9V976.8h48.2v194.1h1.9V976.8h48.2v194.1h1.9V976.8h48.2v194.1h1.9V976.8h48.2v194.1h1.9V976.8h50.1
		v194.1h1.9V976.8h48.2v194.1h1.9V976.8h48.2v194.1h1.9V976.8H322v194.1h1.9V976.8h48.2v194.1h1.9V976.8h48.2v194.1h1.9V976.8h48.2
		v194.1h1.9V976.8h50.1v194.1h1.9V976.8h48.2v194.1h1.9V976.8h48.2v194.1h1.9V976.8h48.2v194.1h1.9V976.8h48.2v194.1h1.9V976.8h48.2
		v194.1h1.9V976.8h48.2v194.1h1.9V976.8h48.2v194.1h1.9V976.8h48.2v194.1h1.9V976.8h194.1v-1.9H927.3v-48.2h194.1v-1.9H927.3v-48.2
		h194.1v-1.9H927.3v-48.2h194.1v-1.9H927.3v-48.2h194.1v-1.9H927.3v-48.2h194.1v-1.9H927.3V676h194.1v-1.9H927.3v-48.2h194.1V624
		H927.3v-48.2h194.1v-1.9H927.3v-50.1h194.1v-1.9H927.3v-48.2h194.1v-1.9H927.3v-48.2h194.1v-1.9H927.3v-48.2h194.1v-1.9H927.3
		v-48.2h194.1v-1.9H927.3v-48.2h194.1v-1.9H927.3V223h194.1v-1.9H927.3v-50.1h194.1v-1.9H927.3v-48.2h194.1v-1.9H927.3V70.7h194.1
		v-1.9H927.3V20.6h194.1v-1.9H927.3v-48.2h194.1v-1.9H927.3v-48.2h194.1v-1.9H927.3v-48.2h194.1v-1.9H927.3V-180h194.1v-1.9H927.3
		v-48.2H1121.4z M-231.4,974.9h-48.2v-48.2h48.2V974.9z M-231.4,924.8h-48.2v-48.2h48.2V924.8z M-231.4,874.7h-48.2v-48.2h48.2
		V874.7z M-231.4,824.5h-48.2v-48.2h48.2V824.5z M-231.4,774.4h-48.2v-48.2h48.2V774.4z M-231.4,724.3h-48.2V676h48.2V724.3z
		 M-231.4,674.2h-48.2v-48.2h48.2V674.2z M-231.4,624h-48.2v-48.2h48.2V624z M-231.4,573.9h-48.2v-50.1h48.2V573.9z M-231.4,521.9
		h-48.2v-48.2h48.2V521.9z M-231.4,471.7h-48.2v-48.2h48.2V471.7z M-231.4,421.6h-48.2v-48.2h48.2V421.6z M-231.4,371.5h-48.2v-48.2
		h48.2V371.5z M-231.4,321.3h-48.2v-48.2h48.2V321.3z M-231.4,271.2h-48.2V223h48.2V271.2z M-231.4,221.1h-48.2v-50.1h48.2V221.1z
		 M-231.4,169.1h-48.2v-48.2h48.2V169.1z M-231.4,118.9h-48.2V70.7h48.2V118.9z M-231.4,68.8h-48.2V20.6h48.2V68.8z M-231.4,18.7
		h-48.2v-48.2h48.2V18.7z M-231.4-31.5h-48.2v-48.2h48.2V-31.5z M-231.4-81.6h-48.2v-48.2h48.2V-81.6z M-231.4-131.7h-48.2V-180
		h48.2V-131.7z M-231.4-181.9h-48.2v-48.2h48.2V-181.9z M-181.2,974.9h-48.2v-48.2h48.2V974.9z M-181.2,924.8h-48.2v-48.2h48.2
		V924.8z M-181.2,874.7h-48.2v-48.2h48.2V874.7z M-181.2,824.5h-48.2v-48.2h48.2V824.5z M-181.2,774.4h-48.2v-48.2h48.2V774.4z
		 M-181.2,724.3h-48.2V676h48.2V724.3z M-181.2,674.2h-48.2v-48.2h48.2V674.2z M-181.2,624h-48.2v-48.2h48.2V624z M-181.2,573.9
		h-48.2v-50.1h48.2V573.9z M-181.2,521.9h-48.2v-48.2h48.2V521.9z M-181.2,471.7h-48.2v-48.2h48.2V471.7z M-181.2,421.6h-48.2v-48.2
		h48.2V421.6z M-181.2,371.5h-48.2v-48.2h48.2V371.5z M-181.2,321.3h-48.2v-48.2h48.2V321.3z M-181.2,271.2h-48.2V223h48.2V271.2z
		 M-181.2,221.1h-48.2v-50.1h48.2V221.1z M-181.2,169.1h-48.2v-48.2h48.2V169.1z M-181.2,118.9h-48.2V70.7h48.2V118.9z M-181.2,68.8
		h-48.2V20.6h48.2V68.8z M-181.2,18.7h-48.2v-48.2h48.2V18.7z M-181.2-31.5h-48.2v-48.2h48.2V-31.5z M-181.2-81.6h-48.2v-48.2h48.2
		V-81.6z M-181.2-131.7h-48.2V-180h48.2V-131.7z M-181.2-181.9h-48.2v-48.2h48.2V-181.9z M-131.1,974.9h-48.2v-48.2h48.2V974.9z
		 M-131.1,924.8h-48.2v-48.2h48.2V924.8z M-131.1,874.7h-48.2v-48.2h48.2V874.7z M-131.1,824.5h-48.2v-48.2h48.2V824.5z
		 M-131.1,774.4h-48.2v-48.2h48.2V774.4z M-131.1,724.3h-48.2V676h48.2V724.3z M-131.1,674.2h-48.2v-48.2h48.2V674.2z M-131.1,624
		h-48.2v-48.2h48.2V624z M-131.1,573.9h-48.2v-50.1h48.2V573.9z M-131.1,521.9h-48.2v-48.2h48.2V521.9z M-131.1,471.7h-48.2v-48.2
		h48.2V471.7z M-131.1,421.6h-48.2v-48.2h48.2V421.6z M-131.1,371.5h-48.2v-48.2h48.2V371.5z M-131.1,321.3h-48.2v-48.2h48.2V321.3z
		 M-131.1,271.2h-48.2V223h48.2V271.2z M-131.1,221.1h-48.2v-50.1h48.2V221.1z M-131.1,169.1h-48.2v-48.2h48.2V169.1z M-131.1,118.9
		h-48.2V70.7h48.2V118.9z M-131.1,68.8h-48.2V20.6h48.2V68.8z M-131.1,18.7h-48.2v-48.2h48.2V18.7z M-131.1-31.5h-48.2v-48.2h48.2
		V-31.5z M-131.1-81.6h-48.2v-48.2h48.2V-81.6z M-131.1-131.7h-48.2V-180h48.2V-131.7z M-131.1-181.9h-48.2v-48.2h48.2V-181.9z
		 M-81,974.9h-48.2v-48.2H-81V974.9z M-81,924.8h-48.2v-48.2H-81V924.8z M-81,874.7h-48.2v-48.2H-81V874.7z M-81,824.5h-48.2v-48.2
		H-81V824.5z M-81,774.4h-48.2v-48.2H-81V774.4z M-81,724.3h-48.2V676H-81V724.3z M-81,674.2h-48.2v-48.2H-81V674.2z M-81,624h-48.2
		v-48.2H-81V624z M-81,573.9h-48.2v-50.1H-81V573.9z M-81,521.9h-48.2v-48.2H-81V521.9z M-81,471.7h-48.2v-48.2H-81V471.7z
		 M-81,421.6h-48.2v-48.2H-81V421.6z M-81,371.5h-48.2v-48.2H-81V371.5z M-81,321.3h-48.2v-48.2H-81V321.3z M-81,271.2h-48.2V223
		H-81V271.2z M-81,221.1h-48.2v-50.1H-81V221.1z M-81,169.1h-48.2v-48.2H-81V169.1z M-81,118.9h-48.2V70.7H-81V118.9z M-81,68.8
		h-48.2V20.6H-81V68.8z M-81,18.7h-48.2v-48.2H-81V18.7z M-81-31.5h-48.2v-48.2H-81V-31.5z M-81-81.6h-48.2v-48.2H-81V-81.6z
		 M-81-131.7h-48.2V-180H-81V-131.7z M-81-181.9h-48.2v-48.2H-81V-181.9z M-30.8,974.9h-48.2v-48.2h48.2V974.9z M-30.8,924.8h-48.2
		v-48.2h48.2V924.8z M-30.8,874.7h-48.2v-48.2h48.2V874.7z M-30.8,824.5h-48.2v-48.2h48.2V824.5z M-30.8,774.4h-48.2v-48.2h48.2
		V774.4z M-30.8,724.3h-48.2V676h48.2V724.3z M-30.8,674.2h-48.2v-48.2h48.2V674.2z M-30.8,624h-48.2v-48.2h48.2V624z M-30.8,573.9
		h-48.2v-50.1h48.2V573.9z M-30.8,521.9h-48.2v-48.2h48.2V521.9z M-30.8,471.7h-48.2v-48.2h48.2V471.7z M-30.8,421.6h-48.2v-48.2
		h48.2V421.6z M-30.8,371.5h-48.2v-48.2h48.2V371.5z M-30.8,321.3h-48.2v-48.2h48.2V321.3z M-30.8,271.2h-48.2V223h48.2V271.2z
		 M-30.8,221.1h-48.2v-50.1h48.2V221.1z M-30.8,169.1h-48.2v-48.2h48.2V169.1z M-30.8,118.9h-48.2V70.7h48.2V118.9z M-30.8,68.8
		h-48.2V20.6h48.2V68.8z M-30.8,18.7h-48.2v-48.2h48.2V18.7z M-30.8-31.5h-48.2v-48.2h48.2V-31.5z M-30.8-81.6h-48.2v-48.2h48.2
		V-81.6z M-30.8-131.7h-48.2V-180h48.2V-131.7z M-30.8-181.9h-48.2v-48.2h48.2V-181.9z M19.3,974.9h-48.2v-48.2h48.2V974.9z
		 M19.3,924.8h-48.2v-48.2h48.2V924.8z M19.3,874.7h-48.2v-48.2h48.2V874.7z M19.3,824.5h-48.2v-48.2h48.2V824.5z M19.3,774.4h-48.2
		v-48.2h48.2V774.4z M19.3,724.3h-48.2V676h48.2V724.3z M19.3,674.2h-48.2v-48.2h48.2V674.2z M19.3,624h-48.2v-48.2h48.2V624z
		 M19.3,573.9h-48.2v-50.1h48.2V573.9z M19.3,521.9h-48.2v-48.2h48.2V521.9z M19.3,471.7h-48.2v-48.2h48.2V471.7z M19.3,421.6h-48.2
		v-48.2h48.2V421.6z M19.3,371.5h-48.2v-48.2h48.2V371.5z M19.3,321.3h-48.2v-48.2h48.2V321.3z M19.3,271.2h-48.2V223h48.2V271.2z
		 M19.3,221.1h-48.2v-50.1h48.2V221.1z M19.3,169.1h-48.2v-48.2h48.2V169.1z M19.3,118.9h-48.2V70.7h48.2V118.9z M19.3,68.8h-48.2
		V20.6h48.2V68.8z M19.3,18.7h-48.2v-48.2h48.2V18.7z M19.3-31.5h-48.2v-48.2h48.2V-31.5z M19.3-81.6h-48.2v-48.2h48.2V-81.6z
		 M19.3-131.7h-48.2V-180h48.2V-131.7z M19.3-181.9h-48.2v-48.2h48.2V-181.9z M69.4,974.9H21.2v-48.2h48.2V974.9z M69.4,924.8H21.2
		v-48.2h48.2V924.8z M69.4,874.7H21.2v-48.2h48.2V874.7z M69.4,824.5H21.2v-48.2h48.2V824.5z M69.4,774.4H21.2v-48.2h48.2V774.4z
		 M69.4,724.3H21.2V676h48.2V724.3z M69.4,674.2H21.2v-48.2h48.2V674.2z M69.4,624H21.2v-48.2h48.2V624z M69.4,573.9H21.2v-50.1
		h48.2V573.9z M69.4,521.9H21.2v-48.2h48.2V521.9z M69.4,471.7H21.2v-48.2h48.2V471.7z M69.4,421.6H21.2v-48.2h48.2V421.6z
		 M69.4,371.5H21.2v-48.2h48.2V371.5z M69.4,321.3H21.2v-48.2h48.2V321.3z M69.4,271.2H21.2V223h48.2V271.2z M69.4,221.1H21.2v-50.1
		h48.2V221.1z M69.4,169.1H21.2v-48.2h48.2V169.1z M69.4,118.9H21.2V70.7h48.2V118.9z M69.4,68.8H21.2V20.6h48.2V68.8z M69.4,18.7
		H21.2v-48.2h48.2V18.7z M69.4-31.5H21.2v-48.2h48.2V-31.5z M69.4-81.6H21.2v-48.2h48.2V-81.6z M69.4-131.7H21.2V-180h48.2V-131.7z
		 M69.4-181.9H21.2v-48.2h48.2V-181.9z M119.6,974.9H71.3v-48.2h48.2V974.9z M119.6,924.8H71.3v-48.2h48.2V924.8z M119.6,874.7H71.3
		v-48.2h48.2V874.7z M119.6,824.5H71.3v-48.2h48.2V824.5z M119.6,774.4H71.3v-48.2h48.2V774.4z M119.6,724.3H71.3V676h48.2V724.3z
		 M119.6,674.2H71.3v-48.2h48.2V674.2z M119.6,624H71.3v-48.2h48.2V624z M119.6,573.9H71.3v-50.1h48.2V573.9z M119.6,521.9H71.3
		v-48.2h48.2V521.9z M119.6,471.7H71.3v-48.2h48.2V471.7z M119.6,421.6H71.3v-48.2h48.2V421.6z M119.6,371.5H71.3v-48.2h48.2V371.5z
		 M119.6,321.3H71.3v-48.2h48.2V321.3z M119.6,271.2H71.3V223h48.2V271.2z M119.6,221.1H71.3v-50.1h48.2V221.1z M119.6,169.1H71.3
		v-48.2h48.2V169.1z M119.6,118.9H71.3V70.7h48.2V118.9z M119.6,68.8H71.3V20.6h48.2V68.8z M119.6,18.7H71.3v-48.2h48.2V18.7z
		 M119.6-31.5H71.3v-48.2h48.2V-31.5z M119.6-81.6H71.3v-48.2h48.2V-81.6z M119.6-131.7H71.3V-180h48.2V-131.7z M119.6-181.9H71.3
		v-48.2h48.2V-181.9z M171.6,974.9h-50.1v-48.2h50.1V974.9z M171.6,924.8h-50.1v-48.2h50.1V924.8z M171.6,874.7h-50.1v-48.2h50.1
		V874.7z M171.6,824.5h-50.1v-48.2h50.1V824.5z M171.6,774.4h-50.1v-48.2h50.1V774.4z M171.6,724.3h-50.1V676h50.1V724.3z
		 M171.6,674.2h-50.1v-48.2h50.1V674.2z M171.6,624h-50.1v-48.2h50.1V624z M171.6,573.9h-50.1v-50.1h50.1V573.9z M171.6,521.9h-50.1
		v-48.2h50.1V521.9z M171.6,471.7h-50.1v-48.2h50.1V471.7z M171.6,421.6h-50.1v-48.2h50.1V421.6z M171.6,371.5h-50.1v-48.2h50.1
		V371.5z M171.6,321.3h-50.1v-48.2h50.1V321.3z M171.6,271.2h-50.1V223h50.1V271.2z M171.6,221.1h-50.1v-50.1h50.1V221.1z
		 M171.6,169.1h-50.1v-48.2h50.1V169.1z M171.6,118.9h-50.1V70.7h50.1V118.9z M171.6,68.8h-50.1V20.6h50.1V68.8z M171.6,18.7h-50.1
		v-48.2h50.1V18.7z M171.6-31.5h-50.1v-48.2h50.1V-31.5z M171.6-81.6h-50.1v-48.2h50.1V-81.6z M171.6-131.7h-50.1V-180h50.1V-131.7z
		 M171.6-181.9h-50.1v-48.2h50.1V-181.9z M221.7,974.9h-48.2v-48.2h48.2V974.9z M221.7,924.8h-48.2v-48.2h48.2V924.8z M221.7,874.7
		h-48.2v-48.2h48.2V874.7z M221.7,824.5h-48.2v-48.2h48.2V824.5z M221.7,774.4h-48.2v-48.2h48.2V774.4z M221.7,724.3h-48.2V676h48.2
		V724.3z M221.7,674.2h-48.2v-48.2h48.2V674.2z M221.7,624h-48.2v-48.2h48.2V624z M221.7,573.9h-48.2v-50.1h48.2V573.9z
		 M221.7,521.9h-48.2v-48.2h48.2V521.9z M221.7,471.7h-48.2v-48.2h48.2V471.7z M221.7,421.6h-48.2v-48.2h48.2V421.6z M221.7,371.5
		h-48.2v-48.2h48.2V371.5z M221.7,321.3h-48.2v-48.2h48.2V321.3z M221.7,271.2h-48.2V223h48.2V271.2z M221.7,221.1h-48.2v-50.1h48.2
		V221.1z M221.7,169.1h-48.2v-48.2h48.2V169.1z M221.7,118.9h-48.2V70.7h48.2V118.9z M221.7,68.8h-48.2V20.6h48.2V68.8z M221.7,18.7
		h-48.2v-48.2h48.2V18.7z M221.7-31.5h-48.2v-48.2h48.2V-31.5z M221.7-81.6h-48.2v-48.2h48.2V-81.6z M221.7-131.7h-48.2V-180h48.2
		V-131.7z M221.7-181.9h-48.2v-48.2h48.2V-181.9z M271.9,974.9h-48.2v-48.2h48.2V974.9z M271.9,924.8h-48.2v-48.2h48.2V924.8z
		 M271.9,874.7h-48.2v-48.2h48.2V874.7z M271.9,824.5h-48.2v-48.2h48.2V824.5z M271.9,774.4h-48.2v-48.2h48.2V774.4z M271.9,724.3
		h-48.2V676h48.2V724.3z M271.9,674.2h-48.2v-48.2h48.2V674.2z M271.9,624h-48.2v-48.2h48.2V624z M271.9,573.9h-48.2v-50.1h48.2
		V573.9z M271.9,521.9h-48.2v-48.2h48.2V521.9z M271.9,471.7h-48.2v-48.2h48.2V471.7z M271.9,421.6h-48.2v-48.2h48.2V421.6z
		 M271.9,371.5h-48.2v-48.2h48.2V371.5z M271.9,321.3h-48.2v-48.2h48.2V321.3z M271.9,271.2h-48.2V223h48.2V271.2z M271.9,221.1
		h-48.2v-50.1h48.2V221.1z M271.9,169.1h-48.2v-48.2h48.2V169.1z M271.9,118.9h-48.2V70.7h48.2V118.9z M271.9,68.8h-48.2V20.6h48.2
		V68.8z M271.9,18.7h-48.2v-48.2h48.2V18.7z M271.9-31.5h-48.2v-48.2h48.2V-31.5z M271.9-81.6h-48.2v-48.2h48.2V-81.6z M271.9-131.7
		h-48.2V-180h48.2V-131.7z M271.9-181.9h-48.2v-48.2h48.2V-181.9z M322,974.9h-48.2v-48.2H322V974.9z M322,924.8h-48.2v-48.2H322
		V924.8z M322,874.7h-48.2v-48.2H322V874.7z M322,824.5h-48.2v-48.2H322V824.5z M322,774.4h-48.2v-48.2H322V774.4z M322,724.3h-48.2
		V676H322V724.3z M322,674.2h-48.2v-48.2H322V674.2z M322,624h-48.2v-48.2H322V624z M322,573.9h-48.2v-50.1H322V573.9z M322,521.9
		h-48.2v-48.2H322V521.9z M322,471.7h-48.2v-48.2H322V471.7z M322,421.6h-48.2v-48.2H322V421.6z M322,371.5h-48.2v-48.2H322V371.5z
		 M322,321.3h-48.2v-48.2H322V321.3z M322,271.2h-48.2V223H322V271.2z M322,221.1h-48.2v-50.1H322V221.1z M322,169.1h-48.2v-48.2
		H322V169.1z M322,118.9h-48.2V70.7H322V118.9z M322,68.8h-48.2V20.6H322V68.8z M322,18.7h-48.2v-48.2H322V18.7z M322-31.5h-48.2
		v-48.2H322V-31.5z M322-81.6h-48.2v-48.2H322V-81.6z M322-131.7h-48.2V-180H322V-131.7z M322-181.9h-48.2v-48.2H322V-181.9z
		 M372.1,974.9h-48.2v-48.2h48.2V974.9z M372.1,924.8h-48.2v-48.2h48.2V924.8z M372.1,874.7h-48.2v-48.2h48.2V874.7z M372.1,824.5
		h-48.2v-48.2h48.2V824.5z M372.1,774.4h-48.2v-48.2h48.2V774.4z M372.1,724.3h-48.2V676h48.2V724.3z M372.1,674.2h-48.2v-48.2h48.2
		V674.2z M372.1,624h-48.2v-48.2h48.2V624z M372.1,573.9h-48.2v-50.1h48.2V573.9z M372.1,521.9h-48.2v-48.2h48.2V521.9z
		 M372.1,471.7h-48.2v-48.2h48.2V471.7z M372.1,421.6h-48.2v-48.2h48.2V421.6z M372.1,371.5h-48.2v-48.2h48.2V371.5z M372.1,321.3
		h-48.2v-48.2h48.2V321.3z M372.1,271.2h-48.2V223h48.2V271.2z M372.1,221.1h-48.2v-50.1h48.2V221.1z M372.1,169.1h-48.2v-48.2h48.2
		V169.1z M372.1,118.9h-48.2V70.7h48.2V118.9z M372.1,68.8h-48.2V20.6h48.2V68.8z M372.1,18.7h-48.2v-48.2h48.2V18.7z M372.1-31.5
		h-48.2v-48.2h48.2V-31.5z M372.1-81.6h-48.2v-48.2h48.2V-81.6z M372.1-131.7h-48.2V-180h48.2V-131.7z M372.1-181.9h-48.2v-48.2
		h48.2V-181.9z M422.2,974.9H374v-48.2h48.2V974.9z M422.2,924.8H374v-48.2h48.2V924.8z M422.2,874.7H374v-48.2h48.2V874.7z
		 M422.2,824.5H374v-48.2h48.2V824.5z M422.2,774.4H374v-48.2h48.2V774.4z M422.2,724.3H374V676h48.2V724.3z M422.2,674.2H374v-48.2
		h48.2V674.2z M422.2,624H374v-48.2h48.2V624z M422.2,573.9H374v-50.1h48.2V573.9z M422.2,521.9H374v-48.2h48.2V521.9z M422.2,471.7
		H374v-48.2h48.2V471.7z M422.2,421.6H374v-48.2h48.2V421.6z M422.2,371.5H374v-48.2h48.2V371.5z M422.2,321.3H374v-48.2h48.2V321.3
		z M422.2,271.2H374V223h48.2V271.2z M422.2,221.1H374v-50.1h48.2V221.1z M422.2,169.1H374v-48.2h48.2V169.1z M422.2,118.9H374V70.7
		h48.2V118.9z M422.2,68.8H374V20.6h48.2V68.8z M422.2,18.7H374v-48.2h48.2V18.7z M422.2-31.5H374v-48.2h48.2V-31.5z M422.2-81.6
		H374v-48.2h48.2V-81.6z M422.2-131.7H374V-180h48.2V-131.7z M422.2-181.9H374v-48.2h48.2V-181.9z M472.4,974.9h-48.2v-48.2h48.2
		V974.9z M472.4,924.8h-48.2v-48.2h48.2V924.8z M472.4,874.7h-48.2v-48.2h48.2V874.7z M472.4,824.5h-48.2v-48.2h48.2V824.5z
		 M472.4,774.4h-48.2v-48.2h48.2V774.4z M472.4,724.3h-48.2V676h48.2V724.3z M472.4,674.2h-48.2v-48.2h48.2V674.2z M472.4,624h-48.2
		v-48.2h48.2V624z M472.4,573.9h-48.2v-50.1h48.2V573.9z M472.4,521.9h-48.2v-48.2h48.2V521.9z M472.4,471.7h-48.2v-48.2h48.2V471.7
		z M472.4,421.6h-48.2v-48.2h48.2V421.6z M472.4,371.5h-48.2v-48.2h48.2V371.5z M472.4,321.3h-48.2v-48.2h48.2V321.3z M472.4,271.2
		h-48.2V223h48.2V271.2z M472.4,221.1h-48.2v-50.1h48.2V221.1z M472.4,169.1h-48.2v-48.2h48.2V169.1z M472.4,118.9h-48.2V70.7h48.2
		V118.9z M472.4,68.8h-48.2V20.6h48.2V68.8z M472.4,18.7h-48.2v-48.2h48.2V18.7z M472.4-31.5h-48.2v-48.2h48.2V-31.5z M472.4-81.6
		h-48.2v-48.2h48.2V-81.6z M472.4-131.7h-48.2V-180h48.2V-131.7z M472.4-181.9h-48.2v-48.2h48.2V-181.9z M524.4,974.9h-50.1v-48.2
		h50.1V974.9z M524.4,924.8h-50.1v-48.2h50.1V924.8z M524.4,874.7h-50.1v-48.2h50.1V874.7z M524.4,824.5h-50.1v-48.2h50.1V824.5z
		 M524.4,774.4h-50.1v-48.2h50.1V774.4z M524.4,724.3h-50.1V676h50.1V724.3z M524.4,674.2h-50.1v-48.2h50.1V674.2z M524.4,624h-50.1
		v-48.2h50.1V624z M524.4,573.9h-50.1v-50.1h50.1V573.9z M524.4,521.9h-50.1v-48.2h50.1V521.9z M524.4,471.7h-50.1v-48.2h50.1V471.7
		z M524.4,421.6h-50.1v-48.2h50.1V421.6z M524.4,371.5h-50.1v-48.2h50.1V371.5z M524.4,321.3h-50.1v-48.2h50.1V321.3z M524.4,271.2
		h-50.1V223h50.1V271.2z M524.4,221.1h-50.1v-50.1h50.1V221.1z M524.4,169.1h-50.1v-48.2h50.1V169.1z M524.4,118.9h-50.1V70.7h50.1
		V118.9z M524.4,68.8h-50.1V20.6h50.1V68.8z M524.4,18.7h-50.1v-48.2h50.1V18.7z M524.4-31.5h-50.1v-48.2h50.1V-31.5z M524.4-81.6
		h-50.1v-48.2h50.1V-81.6z M524.4-131.7h-50.1V-180h50.1V-131.7z M524.4-181.9h-50.1v-48.2h50.1V-181.9z M574.5,974.9h-48.2v-48.2
		h48.2V974.9z M574.5,924.8h-48.2v-48.2h48.2V924.8z M574.5,874.7h-48.2v-48.2h48.2V874.7z M574.5,824.5h-48.2v-48.2h48.2V824.5z
		 M574.5,774.4h-48.2v-48.2h48.2V774.4z M574.5,724.3h-48.2V676h48.2V724.3z M574.5,674.2h-48.2v-48.2h48.2V674.2z M574.5,624h-48.2
		v-48.2h48.2V624z M574.5,573.9h-48.2v-50.1h48.2V573.9z M574.5,521.9h-48.2v-48.2h48.2V521.9z M574.5,471.7h-48.2v-48.2h48.2V471.7
		z M574.5,421.6h-48.2v-48.2h48.2V421.6z M574.5,371.5h-48.2v-48.2h48.2V371.5z M574.5,321.3h-48.2v-48.2h48.2V321.3z M574.5,271.2
		h-48.2V223h48.2V271.2z M574.5,221.1h-48.2v-50.1h48.2V221.1z M574.5,169.1h-48.2v-48.2h48.2V169.1z M574.5,118.9h-48.2V70.7h48.2
		V118.9z M574.5,68.8h-48.2V20.6h48.2V68.8z M574.5,18.7h-48.2v-48.2h48.2V18.7z M574.5-31.5h-48.2v-48.2h48.2V-31.5z M574.5-81.6
		h-48.2v-48.2h48.2V-81.6z M574.5-131.7h-48.2V-180h48.2V-131.7z M574.5-181.9h-48.2v-48.2h48.2V-181.9z M624.7,974.9h-48.2v-48.2
		h48.2V974.9z M624.7,924.8h-48.2v-48.2h48.2V924.8z M624.7,874.7h-48.2v-48.2h48.2V874.7z M624.7,824.5h-48.2v-48.2h48.2V824.5z
		 M624.7,774.4h-48.2v-48.2h48.2V774.4z M624.7,724.3h-48.2V676h48.2V724.3z M624.7,674.2h-48.2v-48.2h48.2V674.2z M624.7,624h-48.2
		v-48.2h48.2V624z M624.7,573.9h-48.2v-50.1h48.2V573.9z M624.7,521.9h-48.2v-48.2h48.2V521.9z M624.7,471.7h-48.2v-48.2h48.2V471.7
		z M624.7,421.6h-48.2v-48.2h48.2V421.6z M624.7,371.5h-48.2v-48.2h48.2V371.5z M624.7,321.3h-48.2v-48.2h48.2V321.3z M624.7,271.2
		h-48.2V223h48.2V271.2z M624.7,221.1h-48.2v-50.1h48.2V221.1z M624.7,169.1h-48.2v-48.2h48.2V169.1z M624.7,118.9h-48.2V70.7h48.2
		V118.9z M624.7,68.8h-48.2V20.6h48.2V68.8z M624.7,18.7h-48.2v-48.2h48.2V18.7z M624.7-31.5h-48.2v-48.2h48.2V-31.5z M624.7-81.6
		h-48.2v-48.2h48.2V-81.6z M624.7-131.7h-48.2V-180h48.2V-131.7z M624.7-181.9h-48.2v-48.2h48.2V-181.9z M674.8,974.9h-48.2v-48.2
		h48.2V974.9z M674.8,924.8h-48.2v-48.2h48.2V924.8z M674.8,874.7h-48.2v-48.2h48.2V874.7z M674.8,824.5h-48.2v-48.2h48.2V824.5z
		 M674.8,774.4h-48.2v-48.2h48.2V774.4z M674.8,724.3h-48.2V676h48.2V724.3z M674.8,674.2h-48.2v-48.2h48.2V674.2z M674.8,624h-48.2
		v-48.2h48.2V624z M674.8,573.9h-48.2v-50.1h48.2V573.9z M674.8,521.9h-48.2v-48.2h48.2V521.9z M674.8,471.7h-48.2v-48.2h48.2V471.7
		z M674.8,421.6h-48.2v-48.2h48.2V421.6z M674.8,371.5h-48.2v-48.2h48.2V371.5z M674.8,321.3h-48.2v-48.2h48.2V321.3z M674.8,271.2
		h-48.2V223h48.2V271.2z M674.8,221.1h-48.2v-50.1h48.2V221.1z M674.8,169.1h-48.2v-48.2h48.2V169.1z M674.8,118.9h-48.2V70.7h48.2
		V118.9z M674.8,68.8h-48.2V20.6h48.2V68.8z M674.8,18.7h-48.2v-48.2h48.2V18.7z M674.8-31.5h-48.2v-48.2h48.2V-31.5z M674.8-81.6
		h-48.2v-48.2h48.2V-81.6z M674.8-131.7h-48.2V-180h48.2V-131.7z M674.8-181.9h-48.2v-48.2h48.2V-181.9z M724.9,974.9h-48.2v-48.2
		h48.2V974.9z M724.9,924.8h-48.2v-48.2h48.2V924.8z M724.9,874.7h-48.2v-48.2h48.2V874.7z M724.9,824.5h-48.2v-48.2h48.2V824.5z
		 M724.9,774.4h-48.2v-48.2h48.2V774.4z M724.9,724.3h-48.2V676h48.2V724.3z M724.9,674.2h-48.2v-48.2h48.2V674.2z M724.9,624h-48.2
		v-48.2h48.2V624z M724.9,573.9h-48.2v-50.1h48.2V573.9z M724.9,521.9h-48.2v-48.2h48.2V521.9z M724.9,471.7h-48.2v-48.2h48.2V471.7
		z M724.9,421.6h-48.2v-48.2h48.2V421.6z M724.9,371.5h-48.2v-48.2h48.2V371.5z M724.9,321.3h-48.2v-48.2h48.2V321.3z M724.9,271.2
		h-48.2V223h48.2V271.2z M724.9,221.1h-48.2v-50.1h48.2V221.1z M724.9,169.1h-48.2v-48.2h48.2V169.1z M724.9,118.9h-48.2V70.7h48.2
		V118.9z M724.9,68.8h-48.2V20.6h48.2V68.8z M724.9,18.7h-48.2v-48.2h48.2V18.7z M724.9-31.5h-48.2v-48.2h48.2V-31.5z M724.9-81.6
		h-48.2v-48.2h48.2V-81.6z M724.9-131.7h-48.2V-180h48.2V-131.7z M724.9-181.9h-48.2v-48.2h48.2V-181.9z M775.1,974.9h-48.2v-48.2
		h48.2V974.9z M775.1,924.8h-48.2v-48.2h48.2V924.8z M775.1,874.7h-48.2v-48.2h48.2V874.7z M775.1,824.5h-48.2v-48.2h48.2V824.5z
		 M775.1,774.4h-48.2v-48.2h48.2V774.4z M775.1,724.3h-48.2V676h48.2V724.3z M775.1,674.2h-48.2v-48.2h48.2V674.2z M775.1,624h-48.2
		v-48.2h48.2V624z M775.1,573.9h-48.2v-50.1h48.2V573.9z M775.1,521.9h-48.2v-48.2h48.2V521.9z M775.1,471.7h-48.2v-48.2h48.2V471.7
		z M775.1,421.6h-48.2v-48.2h48.2V421.6z M775.1,371.5h-48.2v-48.2h48.2V371.5z M775.1,321.3h-48.2v-48.2h48.2V321.3z M775.1,271.2
		h-48.2V223h48.2V271.2z M775.1,221.1h-48.2v-50.1h48.2V221.1z M775.1,169.1h-48.2v-48.2h48.2V169.1z M775.1,118.9h-48.2V70.7h48.2
		V118.9z M775.1,68.8h-48.2V20.6h48.2V68.8z M775.1,18.7h-48.2v-48.2h48.2V18.7z M775.1-31.5h-48.2v-48.2h48.2V-31.5z M775.1-81.6
		h-48.2v-48.2h48.2V-81.6z M775.1-131.7h-48.2V-180h48.2V-131.7z M775.1-181.9h-48.2v-48.2h48.2V-181.9z M825.2,974.9h-48.2v-48.2
		h48.2V974.9z M825.2,924.8h-48.2v-48.2h48.2V924.8z M825.2,874.7h-48.2v-48.2h48.2V874.7z M825.2,824.5h-48.2v-48.2h48.2V824.5z
		 M825.2,774.4h-48.2v-48.2h48.2V774.4z M825.2,724.3h-48.2V676h48.2V724.3z M825.2,674.2h-48.2v-48.2h48.2V674.2z M825.2,624h-48.2
		v-48.2h48.2V624z M825.2,573.9h-48.2v-50.1h48.2V573.9z M825.2,521.9h-48.2v-48.2h48.2V521.9z M825.2,471.7h-48.2v-48.2h48.2V471.7
		z M825.2,421.6h-48.2v-48.2h48.2V421.6z M825.2,371.5h-48.2v-48.2h48.2V371.5z M825.2,321.3h-48.2v-48.2h48.2V321.3z M825.2,271.2
		h-48.2V223h48.2V271.2z M825.2,221.1h-48.2v-50.1h48.2V221.1z M825.2,169.1h-48.2v-48.2h48.2V169.1z M825.2,118.9h-48.2V70.7h48.2
		V118.9z M825.2,68.8h-48.2V20.6h48.2V68.8z M825.2,18.7h-48.2v-48.2h48.2V18.7z M825.2-31.5h-48.2v-48.2h48.2V-31.5z M825.2-81.6
		h-48.2v-48.2h48.2V-81.6z M825.2-131.7h-48.2V-180h48.2V-131.7z M825.2-181.9h-48.2v-48.2h48.2V-181.9z M875.3,974.9h-48.2v-48.2
		h48.2V974.9z M875.3,924.8h-48.2v-48.2h48.2V924.8z M875.3,874.7h-48.2v-48.2h48.2V874.7z M875.3,824.5h-48.2v-48.2h48.2V824.5z
		 M875.3,774.4h-48.2v-48.2h48.2V774.4z M875.3,724.3h-48.2V676h48.2V724.3z M875.3,674.2h-48.2v-48.2h48.2V674.2z M875.3,624h-48.2
		v-48.2h48.2V624z M875.3,573.9h-48.2v-50.1h48.2V573.9z M875.3,521.9h-48.2v-48.2h48.2V521.9z M875.3,471.7h-48.2v-48.2h48.2V471.7
		z M875.3,421.6h-48.2v-48.2h48.2V421.6z M875.3,371.5h-48.2v-48.2h48.2V371.5z M875.3,321.3h-48.2v-48.2h48.2V321.3z M875.3,271.2
		h-48.2V223h48.2V271.2z M875.3,221.1h-48.2v-50.1h48.2V221.1z M875.3,169.1h-48.2v-48.2h48.2V169.1z M875.3,118.9h-48.2V70.7h48.2
		V118.9z M875.3,68.8h-48.2V20.6h48.2V68.8z M875.3,18.7h-48.2v-48.2h48.2V18.7z M875.3-31.5h-48.2v-48.2h48.2V-31.5z M875.3-81.6
		h-48.2v-48.2h48.2V-81.6z M875.3-131.7h-48.2V-180h48.2V-131.7z M875.3-181.9h-48.2v-48.2h48.2V-181.9z M925.5,974.9h-48.2v-48.2
		h48.2V974.9z M925.5,924.8h-48.2v-48.2h48.2V924.8z M925.5,874.7h-48.2v-48.2h48.2V874.7z M925.5,824.5h-48.2v-48.2h48.2V824.5z
		 M925.5,774.4h-48.2v-48.2h48.2V774.4z M925.5,724.3h-48.2V676h48.2V724.3z M925.5,674.2h-48.2v-48.2h48.2V674.2z M925.5,624h-48.2
		v-48.2h48.2V624z M925.5,573.9h-48.2v-50.1h48.2V573.9z M925.5,521.9h-48.2v-48.2h48.2V521.9z M925.5,471.7h-48.2v-48.2h48.2V471.7
		z M925.5,421.6h-48.2v-48.2h48.2V421.6z M925.5,371.5h-48.2v-48.2h48.2V371.5z M925.5,321.3h-48.2v-48.2h48.2V321.3z M925.5,271.2
		h-48.2V223h48.2V271.2z M925.5,221.1h-48.2v-50.1h48.2V221.1z M925.5,169.1h-48.2v-48.2h48.2V169.1z M925.5,118.9h-48.2V70.7h48.2
		V118.9z M925.5,68.8h-48.2V20.6h48.2V68.8z M925.5,18.7h-48.2v-48.2h48.2V18.7z M925.5-31.5h-48.2v-48.2h48.2V-31.5z M925.5-81.6
		h-48.2v-48.2h48.2V-81.6z M925.5-131.7h-48.2V-180h48.2V-131.7z M925.5-181.9h-48.2v-48.2h48.2V-181.9z"/>
	<use xlink:href="#XMLID_3338_"  style="overflow:visible;fill:none;stroke:#FFFFFF;stroke-width:0.2835;stroke-miterlimit:10;"/>
</g>
</svg>
