<?xml version="1.0" encoding="utf-8"?>
<!-- Generator: Adobe Illustrator 19.0.0, SVG Export Plug-In . SVG Version: 6.00 Build 0)  -->
<svg version="1.1" id="Layer_1" xmlns="http://www.w3.org/2000/svg" xmlns:xlink="http://www.w3.org/1999/xlink" x="0px" y="0px"
	 viewBox="0 0 2329.7 595.3" style="enable-background:new 0 0 2329.7 595.3;" xml:space="preserve">
<style type="text/css">
	.st0{fill:#5A5B5B;}
	.st1{fill:none;stroke:#FFFFFF;stroke-width:0.7087;stroke-miterlimit:10;}
	.st2{fill:none;}
	.st3{fill:#FFFFFF;}
	.st4{font-family:'NotoSansKR-Bold-KSCpc-EUC-H';}
	.st5{font-size:11.6221px;}
	.st6{font-family:'NotoSansKR-Regular-KSCpc-EUC-H';}
	.st7{font-family:'NotoSansKR-Medium-KSCpc-EUC-H';}
	.st8{font-size:11.3386px;}
	.st9{letter-spacing:5;}
	.st10{letter-spacing:1;}
	.st11{letter-spacing:2;}
	.st12{letter-spacing:4;}
	.st13{font-size:10.4882px;}
	.st14{letter-spacing:3;}
	.st15{font-family:'JCsmPC';}
	.st16{font-size:22.6772px;}
	.st17{font-size:17.0079px;}
	.st18{fill-rule:evenodd;clip-rule:evenodd;fill:#FFFFFF;}
</style>
<g id="XMLID_287_">
	<rect id="XMLID_187_" x="15" y="3.6" class="st0" width="425.2" height="255.1"/>
	<rect id="XMLID_202_" x="43.3" y="24.9" class="st0" width="368.5" height="212.6"/>
	<line id="XMLID_145_" class="st1" x1="43.3" y1="81.3" x2="411.8" y2="81.3"/>
	<g id="XMLID_148_">
		<rect id="XMLID_510_" x="43.3" y="105.6" class="st2" width="368.5" height="93.3"/>
		<text id="XMLID_509_" transform="matrix(1 0 0 1 43.3332 114.8383)"><tspan x="0" y="0" class="st3 st4 st5">공공공간 | </tspan><tspan x="51.5" y="0" class="st3 st6 st5">공감 공유 공생을 위한 디자인</tspan><tspan x="0" y="13.9" class="st3 st6 st5">저성장의</tspan><tspan x="42.8" y="13.9" class="st3 st6 st5"> </tspan><tspan x="45.8" y="13.9" class="st3 st6 st5">시대,</tspan><tspan x="70.5" y="13.9" class="st3 st6 st5"> </tspan><tspan x="73.5" y="13.9" class="st3 st6 st5">낭비를</tspan><tspan x="105.6" y="13.9" class="st3 st6 st5"> </tspan><tspan x="108.7" y="13.9" class="st3 st6 st5">줄이며</tspan><tspan x="140.8" y="13.9" class="st3 st6 st5"> </tspan><tspan x="143.8" y="13.9" class="st3 st6 st5">환경과</tspan><tspan x="175.9" y="13.9" class="st3 st6 st5"> </tspan><tspan x="179" y="13.9" class="st3 st6 st5">사람이</tspan><tspan x="211.1" y="13.9" class="st3 st6 st5"> </tspan><tspan x="214.1" y="13.9" class="st3 st6 st5">함께</tspan><tspan x="235.5" y="13.9" class="st3 st6 st5"> </tspan><tspan x="238.6" y="13.9" class="st3 st6 st5">공존할</tspan><tspan x="270.7" y="13.9" class="st3 st6 st5"> </tspan><tspan x="273.7" y="13.9" class="st3 st6 st5">수</tspan><tspan x="284.4" y="13.9" class="st3 st6 st5"> </tspan><tspan x="287.5" y="13.9" class="st3 st6 st5">있는</tspan><tspan x="308.9" y="13.9" class="st3 st6 st5"> </tspan><tspan x="312" y="13.9" class="st3 st6 st5">지속</tspan><tspan x="333.4" y="13.9" class="st3 st6 st5"> </tspan><tspan x="336.4" y="13.9" class="st3 st6 st5">가능한 </tspan><tspan x="0" y="27.9" class="st3 st6 st5">디자인을 실천합니다.</tspan><tspan x="0" y="55.8" class="st3 st4 st5">ZERO</tspan><tspan x="31.1" y="55.8" class="st3 st4 st5"> </tspan><tspan x="34.3" y="55.8" class="st3 st4 st5">DESIGN</tspan><tspan x="77.9" y="55.8" class="st3 st4 st5"> </tspan><tspan x="81.1" y="55.8" class="st3 st4 st5">|</tspan><tspan x="84.5" y="55.8" class="st3 st7 st5"> </tspan><tspan x="87.7" y="55.8" class="st3 st6 st5">&apos;낭비</tspan><tspan x="112.3" y="55.8" class="st3 st6 st5"> </tspan><tspan x="115.5" y="55.8" class="st3 st6 st5">없는</tspan><tspan x="136.9" y="55.8" class="st3 st6 st5"> </tspan><tspan x="140" y="55.8" class="st3 st6 st5">삶&apos;을</tspan><tspan x="164.6" y="55.8" class="st3 st6 st5"> </tspan><tspan x="167.8" y="55.8" class="st3 st6 st5">주제로,</tspan><tspan x="203.1" y="55.8" class="st3 st6 st5"> </tspan><tspan x="206.2" y="55.8" class="st3 st6 st5">자원과</tspan><tspan x="238.3" y="55.8" class="st3 st6 st5"> </tspan><tspan x="241.4" y="55.8" class="st3 st6 st5">소비의</tspan><tspan x="273.5" y="55.8" class="st3 st6 st5"> </tspan><tspan x="276.7" y="55.8" class="st3 st6 st5">낭비를</tspan><tspan x="308.7" y="55.8" class="st3 st6 st5"> </tspan><tspan x="311.9" y="55.8" class="st3 st6 st5">줄이는</tspan><tspan x="344" y="55.8" class="st3 st6 st5"> </tspan><tspan x="347.1" y="55.8" class="st3 st6 st5">만큼 </tspan><tspan x="0" y="69.7" class="st3 st6 st5">삶의 여유와 풍요로움을 늘릴 수 있는 패션, 리빙 스타일을 제안합니다.</tspan></text>
	</g>
	<g id="XMLID_42_">
		<path id="XMLID_47_" class="st3" d="M204.9,218.4H192c-0.6,0-1.1,0.5-1.1,1.1v12.9c0,0.6,0.5,1.1,1.1,1.1h4.8v-7.3h-1.3v-1.4
			l1.3-0.1v-1.1c0-1.8,0.9-3,2.9-3c0.6,0,1.2,0.1,1.6,0.3l-0.4,1.4c-0.3-0.1-0.7-0.2-1-0.2c-0.8,0-1.2,0.5-1.2,1.6v1.1h1.9v1.5h-1.9
			v7.3h6.1c0.6,0,1.1-0.5,1.1-1.1v-12.9C205.9,218.9,205.5,218.4,204.9,218.4z"/>
	</g>
	<g id="XMLID_19_">
		<text id="XMLID_397_" transform="matrix(1 0 0 1 68.5763 232.8441)" class="st3 st6 st8">000gan.com</text>
	</g>
	<g id="XMLID_21_">
		<text id="XMLID_396_" transform="matrix(1 0 0 1 217.0801 232.293)" class="st3 st6 st8">www.fb.com/000gan</text>
	</g>
	<g id="XMLID_95_">
		<g id="XMLID_2124_">
			<g id="XMLID_2192_">
				<path id="XMLID_2215_" class="st3" d="M195.1,45.6c0,0-0.1,2,1.6,2h1.1v4.6h-1.9c-3,0-5.4-2.4-5.4-5.4v-8.2v-8.2
					c0-3,2.4-5.4,5.4-5.4h1.9v4.6h-1.1c-1.7,0-1.6,2-1.6,2V45.6z"/>
				<path id="XMLID_2214_" class="st3" d="M202.8,45.6c0,0,0.1,2-1.6,2h-1.1v4.6h1.9c3,0,5.4-2.4,5.4-5.4v-8.2v-8.2
					c0-3-2.4-5.4-5.4-5.4h-1.9v4.6h1.1c1.7,0,1.6,2,1.6,2V45.6z"/>
				<path id="XMLID_2213_" class="st3" d="M213.9,45.6c0,0-0.1,2,1.6,2h1.1v4.6h-1.9c-3,0-5.4-2.4-5.4-5.4v-8.2v-8.2
					c0-3,2.4-5.4,5.4-5.4h1.9v4.6h-1.1c-1.7,0-1.6,2-1.6,2V45.6z"/>
				<path id="XMLID_2198_" class="st3" d="M221.5,45.6c0,0,0.1,2-1.6,2h-1.1v4.6h1.9c3,0,5.4-2.4,5.4-5.4v-8.2v-8.2
					c0-3-2.4-5.4-5.4-5.4h-1.9v4.6h1.1c1.7,0,1.6,2,1.6,2V45.6z"/>
				<path id="XMLID_2197_" class="st3" d="M232.6,45.6c0,0-0.1,2,1.6,2h1.1v4.6h-1.9c-3,0-5.4-2.4-5.4-5.4v-8.2v-8.2
					c0-3,2.4-5.4,5.4-5.4h1.9v4.6h-1.1c-1.7,0-1.6,2-1.6,2V45.6z"/>
				<path id="XMLID_2196_" class="st3" d="M240.2,45.6c0,0,0.1,2-1.6,2h-1.1v4.6h1.9c3,0,5.4-2.4,5.4-5.4v-8.2v-8.2
					c0-3-2.4-5.4-5.4-5.4h-1.9v4.6h1.1c1.7,0,1.6,2,1.6,2V45.6z"/>
				<path id="XMLID_2195_" class="st3" d="M255.3,37.4v-7.1c0-3-2.4-5.4-5.4-5.4h-3.3v4.6h2.5c1.7,0,1.6,2,1.6,2v5.9H255.3z"/>
				<path id="XMLID_2194_" class="st3" d="M250.7,39.6v7.1c0,3,2.4,5.4,5.4,5.4h4.2v-4.6h-3.4c-1.7,0-1.6-2-1.6-2v-5.9H250.7z"/>
				<path id="XMLID_2193_" class="st3" d="M261.6,24.9v5.9c0,0-0.1,2,1.6,2h1.4v4.6h-2.2c-3,0-5.4-2.4-5.4-5.4v-7.1H261.6z"/>
			</g>
			<g id="XMLID_2125_">
				<path id="XMLID_2190_" class="st3" d="M192.4,63.1V62l2.2-3.5h-2.1v-1.3h3.9v1.1l-2.2,3.5h2.2v1.3H192.4z"/>
				<path id="XMLID_2187_" class="st3" d="M197.9,63.1v-5.9h4v1.3h-2.5v1h2.2v1.3h-2.2v1h2.5v1.3H197.9z"/>
				<path id="XMLID_2168_" class="st3" d="M206.4,63.1l-1-2.2h-0.5v2.2h-1.4v-5.9h2.3c1.3,0,2,0.9,2,1.9c0,0.8-0.5,1.3-0.9,1.5
					l1.3,2.5H206.4z M205.7,58.5h-0.8v1.2h0.8c0.4,0,0.6-0.3,0.6-0.6C206.4,58.8,206.1,58.5,205.7,58.5z"/>
				<path id="XMLID_2148_" class="st3" d="M213,62.5c-0.4,0.4-0.9,0.7-1.6,0.7c-0.7,0-1.2-0.2-1.6-0.7c-0.6-0.6-0.6-1.5-0.6-2.3
					c0-0.9,0-1.7,0.6-2.4c0.4-0.4,0.9-0.7,1.6-0.7c0.7,0,1.2,0.2,1.6,0.7c0.6,0.6,0.6,1.5,0.6,2.4C213.6,61.1,213.6,61.9,213,62.5z
					 M211.9,58.7c-0.1-0.1-0.3-0.3-0.6-0.3c-0.3,0-0.5,0.1-0.6,0.3c-0.1,0.2-0.2,0.4-0.2,1.5c0,1.1,0.1,1.3,0.2,1.5
					c0.1,0.1,0.3,0.3,0.6,0.3c0.3,0,0.5-0.1,0.6-0.3c0.1-0.2,0.2-0.4,0.2-1.5C212.1,59.1,212,58.9,211.9,58.7z"/>
				<path id="XMLID_2144_" class="st3" d="M219.3,63.2c-0.9,0-1.6-0.2-2.2-0.8l0.9-0.9c0.3,0.3,0.8,0.4,1.3,0.4
					c0.6,0,0.8-0.2,0.8-0.5c0-0.1,0-0.3-0.1-0.3c-0.1-0.1-0.2-0.1-0.4-0.2l-0.7-0.1c-0.5-0.1-0.9-0.2-1.2-0.5
					c-0.3-0.3-0.4-0.7-0.4-1.2c0-1.1,0.8-1.9,2.1-1.9c0.8,0,1.5,0.2,2,0.7l-0.9,0.9c-0.4-0.4-0.9-0.3-1.1-0.3
					c-0.5,0-0.7,0.3-0.7,0.5c0,0.1,0,0.2,0.1,0.3c0.1,0.1,0.2,0.1,0.4,0.2l0.7,0.1c0.5,0.1,0.9,0.2,1.1,0.5c0.3,0.3,0.4,0.7,0.4,1.3
					C221.6,62.5,220.6,63.2,219.3,63.2z"/>
				<path id="XMLID_2141_" class="st3" d="M225.5,61h-0.9v2.1h-1.4v-5.9h2.3c1.3,0,2,0.9,2,1.9C227.5,60.1,226.8,61,225.5,61z
					 M225.4,58.5h-0.8v1.2h0.8c0.4,0,0.6-0.3,0.6-0.6C226,58.8,225.8,58.5,225.4,58.5z"/>
				<path id="XMLID_2138_" class="st3" d="M231.8,63.1l-0.3-0.9h-1.8l-0.3,0.9h-1.5l2.1-5.9h1.1l2.1,5.9H231.8z M230.6,59.5
					l-0.5,1.6h1L230.6,59.5z"/>
				<path id="XMLID_2136_" class="st3" d="M236.5,63.2c-0.7,0-1.2-0.2-1.6-0.7c-0.6-0.6-0.6-1.5-0.6-2.3c0-0.9,0-1.7,0.6-2.4
					c0.4-0.4,0.9-0.7,1.6-0.7c1.1,0,2,0.6,2.2,1.9h-1.5c-0.1-0.3-0.3-0.6-0.7-0.6c-0.3,0-0.5,0.1-0.6,0.2c-0.1,0.2-0.2,0.4-0.2,1.5
					c0,1.1,0.1,1.3,0.2,1.5c0.1,0.1,0.3,0.3,0.6,0.3c0.5,0,0.7-0.3,0.7-0.6h1.5C238.4,62.6,237.6,63.2,236.5,63.2z"/>
				<path id="XMLID_2134_" class="st3" d="M240.1,63.1v-5.9h4v1.3h-2.5v1h2.2v1.3h-2.2v1h2.5v1.3H240.1z"/>
				<path id="XMLID_2132_" class="st3" d="M248.1,63.1v-5.9h1.4v5.9H248.1z"/>
				<path id="XMLID_2130_" class="st3" d="M254.7,63.1l-1.9-3v3h-1.4v-5.9h1.2l1.9,3v-3h1.4v5.9H254.7z"/>
				<path id="XMLID_2128_" class="st3" d="M259.6,63.2c-0.7,0-1.2-0.2-1.6-0.7c-0.6-0.6-0.6-1.5-0.6-2.3c0-0.9,0-1.7,0.6-2.4
					c0.4-0.4,0.9-0.7,1.6-0.7c1.1,0,2,0.6,2.2,1.9h-1.5c-0.1-0.3-0.3-0.6-0.7-0.6c-0.3,0-0.5,0.1-0.6,0.2c-0.1,0.2-0.2,0.4-0.2,1.5
					c0,1.1,0.1,1.3,0.2,1.5c0.1,0.1,0.3,0.3,0.6,0.3c0.5,0,0.7-0.3,0.7-0.6h1.5C261.6,62.6,260.7,63.2,259.6,63.2z"/>
				<path id="XMLID_2126_" class="st3" d="M263.1,63.1v-1.5h1.5v1.5H263.1z"/>
			</g>
		</g>
	</g>
	<g id="XMLID_41_">
		<path id="XMLID_48_" class="st3" d="M57.3,218.4H44.4c-0.6,0-1.1,0.5-1.1,1.1v12.9c0,0.6,0.5,1.1,1.1,1.1h3.5l-1.8-12.1h1.8
			l0.9,7.7h0l1.4-7.7h1.3l1.4,7.9h0l0.8-7.9h1.8l-1.8,12.1h3.5c0.6,0,1.1-0.5,1.1-1.1v-12.9C58.4,218.9,57.9,218.4,57.3,218.4z"/>
		<polygon id="XMLID_49_" class="st3" points="50.8,225.6 49.5,233.5 52.2,233.5 50.9,225.6 		"/>
	</g>
</g>
<g id="XMLID_831_">
	<polygon id="XMLID_832_" class="st3" points="1446.9,225.6 1445.6,233.5 1448.2,233.5 1446.9,225.6 	"/>
</g>
<g id="XMLID_1895_">
	<rect id="XMLID_2239_" x="482.6" y="3.6" class="st0" width="425.2" height="255.1"/>
	<rect id="XMLID_2238_" x="511" y="24.9" class="st0" width="368.5" height="212.6"/>
	<line id="XMLID_2237_" class="st1" x1="511" y1="81.3" x2="879.5" y2="81.3"/>
	<g id="XMLID_2228_">
		<rect id="XMLID_498_" x="511" y="105.6" class="st2" width="368.5" height="93.3"/>
		<text id="XMLID_495_" transform="matrix(1 0 0 1 510.9608 114.8149)"><tspan x="0" y="0" class="st3 st6 st5">이스트</tspan><tspan x="32.1" y="0" class="st3 st6 st5 st9"> </tspan><tspan x="39.9" y="0" class="st3 st6 st5">인디고는</tspan><tspan x="82.7" y="0" class="st3 st6 st5 st9"> </tspan><tspan x="90.5" y="0" class="st3 st6 st5">For</tspan><tspan x="108.5" y="0" class="st3 st6 st5 st9"> </tspan><tspan x="116.3" y="0" class="st3 st6 st5">The</tspan><tspan x="136.7" y="0" class="st3 st6 st5 st9"> </tspan><tspan x="144.5" y="0" class="st3 st6 st5">Next</tspan><tspan x="169.5" y="0" class="st3 st6 st5 st9"> </tspan><tspan x="177.4" y="0" class="st3 st6 st5">Generation을</tspan><tspan x="248.8" y="0" class="st3 st6 st5 st9"> </tspan><tspan x="256.6" y="0" class="st3 st6 st5">추구하는</tspan><tspan x="299.4" y="0" class="st3 st6 st5 st9"> </tspan><tspan x="307.2" y="0" class="st3 st6 st5">빈티지</tspan><tspan x="339.3" y="0" class="st3 st6 st5 st9"> </tspan><tspan x="347.1" y="0" class="st3 st6 st5">패션 </tspan><tspan x="0" y="13.9" class="st3 st6 st5">브랜드입니다.</tspan><tspan x="67.4" y="13.9" class="st3 st6 st5 st10"> </tspan><tspan x="71.5" y="13.9" class="st3 st6 st5">다음</tspan><tspan x="92.9" y="13.9" class="st3 st6 st5 st10"> </tspan><tspan x="97" y="13.9" class="st3 st6 st5">세대에게</tspan><tspan x="139.8" y="13.9" class="st3 st6 st5 st10"> </tspan><tspan x="143.9" y="13.9" class="st3 st6 st5">전해질</tspan><tspan x="176" y="13.9" class="st3 st6 st5 st10"> </tspan><tspan x="180.1" y="13.9" class="st3 st6 st5">수</tspan><tspan x="190.8" y="13.9" class="st3 st6 st5 st10"> </tspan><tspan x="194.9" y="13.9" class="st3 st6 st5">있는</tspan><tspan x="216.3" y="13.9" class="st3 st6 st5 st10"> </tspan><tspan x="220.5" y="13.9" class="st3 st6 st5">건강한</tspan><tspan x="252.5" y="13.9" class="st3 st6 st5 st10"> </tspan><tspan x="256.7" y="13.9" class="st3 st6 st5">환경,</tspan><tspan x="281.3" y="13.9" class="st3 st6 st5 st10"> </tspan><tspan x="285.4" y="13.9" class="st3 st6 st5">품질</tspan><tspan x="306.8" y="13.9" class="st3 st6 st5 st10"> </tspan><tspan x="310.9" y="13.9" class="st3 st6 st5">좋은</tspan><tspan x="332.3" y="13.9" class="st3 st6 st5 st10"> </tspan><tspan x="336.4" y="13.9" class="st3 st6 st5">제품을 </tspan><tspan x="0" y="27.9" class="st3 st6 st5">만들기 위해 노력합니다.</tspan></text>
	</g>
	<g id="XMLID_2225_">
		<text id="XMLID_392_" transform="matrix(1 0 0 1 536.2038 232.8441)" class="st3 st6 st8">www.eastindigo.com</text>
	</g>
	<g id="XMLID_2222_">
		<text id="XMLID_389_" transform="matrix(1 0 0 1 724.7076 232.293)" class="st3 st6 st8">@ eastindigo</text>
	</g>
	<g id="XMLID_2219_">
		<path id="XMLID_2221_" class="st3" d="M524.9,218.4H512c-0.6,0-1.1,0.5-1.1,1.1v12.9c0,0.6,0.5,1.1,1.1,1.1h3.5l-1.8-12.1h1.8
			l0.9,7.7h0l1.4-7.7h1.3l1.4,7.9h0l0.8-7.9h1.8l-1.8,12.1h3.5c0.6,0,1.1-0.5,1.1-1.1v-12.9C526,218.9,525.5,218.4,524.9,218.4z"/>
		<polygon id="XMLID_2220_" class="st3" points="518.4,225.6 517.1,233.5 519.8,233.5 518.5,225.6 		"/>
	</g>
	<g id="XMLID_1967_">
		<g id="XMLID_1968_">
			<path id="XMLID_2217_" class="st3" d="M581.9,37.5v5h8.4v2h-8.4V50h8.7v2h-10.9V35.5h10.9v2H581.9z"/>
			<path id="XMLID_2186_" class="st3" d="M614.3,48.6h-7.9l-1.3,3.4h-2.3l6.1-16.6h2.8l6.2,16.6h-2.3L614.3,48.6z M613.6,46.7
				l-3.3-8.9l-3.2,8.9H613.6z"/>
			<path id="XMLID_2184_" class="st3" d="M642.3,40.3h-2.2c0-0.8,0-1.3-0.1-1.7c-0.1-0.6-0.5-1-1.1-1.2c-0.4-0.1-1.1-0.2-2.1-0.2
				c-1.5,0-2.4,0-2.8,0.1c-0.8,0.1-1.3,0.5-1.5,1.1c-0.1,0.4-0.2,0.8-0.2,1.4c0,0.7,0.1,1.3,0.3,1.7c0.2,0.4,0.7,0.7,1.5,0.8
				c0.3,0,1.2,0.1,2.6,0.1c1.6,0.1,2.7,0.2,3.3,0.3c1.1,0.2,1.9,0.8,2.4,1.7c0.3,0.6,0.4,1.5,0.4,2.7c0,1.8-0.3,3-0.9,3.7
				c-0.6,0.7-1.4,1.1-2.5,1.2c-0.8,0.1-2,0.1-3.4,0.1c-1.7,0-2.9-0.1-3.5-0.3c-1.4-0.5-2.2-1.5-2.4-3.3c0-0.4-0.1-1.1-0.1-2.1h2.2
				c0,0.3,0,0.5,0,0.6c0,0.8,0.1,1.4,0.2,1.8c0.1,0.4,0.3,0.7,0.6,0.9c0.3,0.2,0.7,0.3,1.3,0.3c0.6,0,1.4,0,2.2,0
				c1.2,0,2-0.1,2.5-0.1c0.5-0.1,0.8-0.3,1.1-0.6c0.3-0.3,0.4-1.2,0.4-2.5c0-0.6-0.1-1.1-0.2-1.4c-0.2-0.4-0.6-0.7-1.4-0.8
				c-0.4,0-1.3-0.1-2.7-0.2c-1.4-0.1-2.3-0.1-2.7-0.2c-1.2-0.2-2.1-0.7-2.6-1.4c-0.5-0.6-0.7-1.6-0.7-3c0-1.9,0.4-3.2,1.2-3.9
				c0.6-0.5,1.5-0.8,2.5-0.9c0.7-0.1,1.6-0.1,2.5-0.1c1.8,0,3.1,0.1,3.7,0.4c1.4,0.5,2.1,1.6,2.3,3.4
				C642.3,39.2,642.3,39.6,642.3,40.3z"/>
			<path id="XMLID_2182_" class="st3" d="M662.3,37.6v14.4h-2.2V37.6h-5.3v-2.1h12.8v2.1H662.3z"/>
			<path id="XMLID_2179_" class="st3" d="M682.8,35.5v16.6h-2.2V35.5H682.8z"/>
			<path id="XMLID_2177_" class="st3" d="M711.5,35.5v16.6h-3.2l-8.8-14.5v14.5h-2.2V35.5h3.2l8.8,14.5V35.5H711.5z"/>
			<path id="XMLID_2174_" class="st3" d="M726,52.1V35.5h7.9c1,0,1.9,0.1,2.6,0.3c1.1,0.3,1.9,1,2.5,2.1c0.5,1.1,0.8,2.8,0.8,5.1
				c0,2,0,3.3-0.1,4.1c-0.2,2.1-1,3.6-2.3,4.3c-0.5,0.3-1.3,0.5-2.3,0.6c-0.3,0-0.5,0.1-0.7,0.1H726z M728.2,50h5.3
				c1.7,0,2.8-0.3,3.3-0.9c0.4-0.5,0.7-1.4,0.8-2.6c0-0.6,0.1-1.4,0.1-2.4c0-1.9,0-3.2-0.1-3.9c-0.2-1.3-0.7-2.1-1.6-2.4
				c-0.5-0.2-1.2-0.3-2-0.3h-5.7V50z"/>
			<path id="XMLID_2172_" class="st3" d="M755.8,35.5v16.6h-2.2V35.5H755.8z"/>
			<path id="XMLID_2166_" class="st3" d="M776.2,43.6h7.1c0,0.5,0.1,1.2,0.1,1.8c0,1.2,0,2.1,0,2.6c-0.1,2-0.8,3.2-2.2,3.8
				c-0.7,0.3-2.3,0.4-4.7,0.4c-1.6,0-2.8-0.1-3.6-0.3c-0.8-0.2-1.4-0.5-1.9-1c-0.8-0.8-1.3-1.9-1.3-3.4c0-0.6,0-1.4,0-2.3
				c0-0.2,0-0.8,0-1.8c0-0.2,0-0.5,0-0.7c0-1.5,0.1-2.6,0.2-3.4c0.1-0.8,0.3-1.5,0.6-2.1c0.5-1.1,1.5-1.8,2.9-2
				c0.5-0.1,1.5-0.1,3-0.1c1.6,0,2.8,0,3.3,0.1c0.6,0,1.1,0.1,1.5,0.3c1.4,0.5,2.1,1.6,2.3,3.2c0,0.3,0,0.9,0,1.8h-2.2
				c0-1.2-0.1-2.1-0.3-2.5c-0.2-0.4-0.7-0.7-1.5-0.8c-0.6-0.1-1.7-0.1-3.3-0.1c-1.3,0-2.3,0.1-2.8,0.3c-0.7,0.2-1.1,0.7-1.2,1.7
				c-0.1,0.5-0.2,2-0.2,4.5c0,2,0,3.2,0,3.5c0,0.9,0.2,1.5,0.4,1.9c0.2,0.4,0.6,0.7,1.1,0.8c0.6,0.2,1.9,0.3,4,0.3
				c1.1,0,1.9-0.1,2.4-0.2c0.5-0.1,0.9-0.3,1.1-0.6c0.3-0.4,0.5-1.4,0.5-3.1c0-0.2,0-0.5,0-0.8h-5V43.6z"/>
			<path id="XMLID_1969_" class="st3" d="M803.8,35.2c1.2,0,2.1,0,2.7,0.1c0.6,0.1,1.2,0.2,1.6,0.4c1.4,0.6,2.2,2,2.4,4.1
				c0.1,0.6,0.1,1.6,0.1,3.1c0,2.6,0,4.2-0.1,4.8c-0.1,1.1-0.4,1.9-0.7,2.5c-0.3,0.6-0.8,1.1-1.5,1.4c-0.7,0.3-1.6,0.5-2.6,0.6
				c-0.6,0-1.3,0-2.1,0c-1.4,0-2.5,0-3.1-0.1c-0.6-0.1-1.2-0.2-1.7-0.5c-1-0.5-1.6-1.3-1.9-2.5c-0.2-0.8-0.4-1.8-0.4-2.9
				c0-0.7,0-1.8,0-3.3c0-1.5,0-2.6,0.1-3.2c0.3-2.1,1.1-3.4,2.4-4c0.6-0.3,1.4-0.4,2.4-0.5C802,35.3,802.8,35.2,803.8,35.2z
				 M803.4,37.3c-1.1,0-1.8,0-2.3,0.1c-0.5,0-0.8,0.1-1.1,0.3c-0.6,0.2-0.9,0.8-1.1,1.6c-0.1,0.6-0.2,1.2-0.2,2v2.6
				c0,2,0,3.2,0.1,3.6c0.1,0.8,0.2,1.3,0.4,1.7c0.2,0.4,0.5,0.7,0.9,0.8c0.3,0.1,0.9,0.2,1.5,0.3c0.5,0,1.2,0,2.1,0
				c1.1,0,1.9,0,2.4-0.1c0.5,0,0.9-0.1,1.2-0.2c0.5-0.2,0.9-0.8,1.1-1.6c0.1-0.6,0.2-1.2,0.2-2v-2.6c0-2,0-3.2-0.1-3.6
				c-0.1-0.8-0.2-1.4-0.4-1.7c-0.2-0.4-0.5-0.7-0.9-0.8c-0.4-0.2-0.9-0.2-1.6-0.3C805.1,37.3,804.3,37.3,803.4,37.3z"/>
		</g>
	</g>
	<g id="XMLID_1896_">
		<g id="XMLID_528_">
			<circle id="XMLID_575_" class="st3" cx="706.1" cy="226.1" r="1.5"/>
			<g id="XMLID_530_">
				<path id="XMLID_533_" class="st3" d="M706.1,222.5c0.8,0,1.5,0.2,2.1,0.7h2.8h2.6v-1c0-2.1-1.7-3.8-3.8-3.8h-7.5
					c-2.1,0-3.8,1.7-3.8,3.8v1h5.5C704.7,222.8,705.4,222.5,706.1,222.5z M709.2,220.7c0-0.2,0.2-0.4,0.4-0.4h1.3
					c0.2,0,0.4,0.2,0.4,0.4v1.3c0,0.2-0.2,0.4-0.4,0.4h-1.3c-0.2,0-0.4-0.2-0.4-0.4V220.7z"/>
				<path id="XMLID_531_" class="st3" d="M709.7,226.1c0,2-1.6,3.6-3.6,3.6s-3.6-1.6-3.6-3.6c0-0.5,0.1-1.1,0.3-1.5h-4.4v5.1
					c0,2.1,1.7,3.8,3.8,3.8h7.5c2.1,0,3.8-1.7,3.8-3.8v-5.1h-4.2C709.6,225.1,709.7,225.6,709.7,226.1z"/>
			</g>
		</g>
	</g>
</g>
<g id="XMLID_828_">
	<rect id="XMLID_2233_" x="946.8" y="3.6" class="st0" width="425.2" height="255.1"/>
	<rect id="XMLID_2181_" x="975.2" y="24.9" class="st0" width="368.5" height="212.6"/>
	<line id="XMLID_2171_" class="st1" x1="975.2" y1="81.3" x2="1343.7" y2="81.3"/>
	<g id="XMLID_1944_">
		<rect id="XMLID_451_" x="975.2" y="104.6" class="st2" width="368.5" height="93.3"/>
		<text id="XMLID_450_" transform="matrix(1 0 0 1 975.1683 113.5893)"><tspan x="0" y="0" class="st3 st6 st8">에코(eco)+디자인(design)+</tspan><tspan x="134" y="0" class="st3 st6 st8"> </tspan><tspan x="137.3" y="0" class="st3 st6 st8">개론학과목코드(101)의</tspan><tspan x="247.3" y="0" class="st3 st6 st8"> </tspan><tspan x="250.5" y="0" class="st3 st6 st8">합성어인</tspan><tspan x="292.2" y="0" class="st3 st6 st8"> </tspan><tspan x="295.5" y="0" class="st3 st6 st8">이자인원오원은 </tspan><tspan x="0" y="13.6" class="st3 st6 st8">에코디자인의 기초가 되고자 만들어진 브랜드 입니다. </tspan><tspan x="0" y="19.3" class="st3 st6 st8">  </tspan><tspan x="0" y="32.9" class="st3 st6 st8">‘아름다운</tspan><tspan x="44.9" y="32.9" class="st3 st6 st8"> </tspan><tspan x="47.2" y="32.9" class="st3 st6 st8">업사이클링,</tspan><tspan x="102.6" y="32.9" class="st3 st6 st8"> </tspan><tspan x="104.9" y="32.9" class="st3 st6 st8">그린디자인’</tspan><tspan x="160.2" y="32.9" class="st3 st6 st8"> </tspan><tspan x="162.6" y="32.9" class="st3 st6 st8">을</tspan><tspan x="173" y="32.9" class="st3 st6 st8"> </tspan><tspan x="175.4" y="32.9" class="st3 st6 st8">모토로</tspan><tspan x="206.7" y="32.9" class="st3 st6 st8"> </tspan><tspan x="209.1" y="32.9" class="st3 st6 st8">하는</tspan><tspan x="229.9" y="32.9" class="st3 st6 st8"> </tspan><tspan x="232.3" y="32.9" class="st3 st6 st8">‘이자인원오원’은</tspan><tspan x="311.6" y="32.9" class="st3 st6 st8"> </tspan><tspan x="314" y="32.9" class="st3 st6 st8">쓰임을</tspan><tspan x="345.3" y="32.9" class="st3 st6 st8"> </tspan><tspan x="347.6" y="32.9" class="st3 st6 st8">다한 </tspan><tspan x="0" y="46.5" class="st3 st6 st8">다양한</tspan><tspan x="31.3" y="46.5" class="st3 st6 st8 st11"> </tspan><tspan x="36.3" y="46.5" class="st3 st6 st8">폐</tspan><tspan x="46.7" y="46.5" class="st3 st6 st8 st11"> </tspan><tspan x="51.8" y="46.5" class="st3 st6 st8">소재가</tspan><tspan x="83.1" y="46.5" class="st3 st6 st8 st11"> </tspan><tspan x="88.1" y="46.5" class="st3 st6 st8">가지고</tspan><tspan x="119.4" y="46.5" class="st3 st6 st8 st11"> </tspan><tspan x="124.4" y="46.5" class="st3 st6 st8">있던</tspan><tspan x="145.2" y="46.5" class="st3 st6 st8 st11"> </tspan><tspan x="150.3" y="46.5" class="st3 st6 st8">가치를</tspan><tspan x="181.5" y="46.5" class="st3 st6 st8 st11"> </tspan><tspan x="186.6" y="46.5" class="st3 st6 st8">새롭고</tspan><tspan x="217.9" y="46.5" class="st3 st6 st8 st11"> </tspan><tspan x="222.9" y="46.5" class="st3 st6 st8">유쾌한</tspan><tspan x="254.2" y="46.5" class="st3 st6 st8 st11"> </tspan><tspan x="259.2" y="46.5" class="st3 st6 st8">시각으로</tspan><tspan x="300.9" y="46.5" class="st3 st6 st8 st11"> </tspan><tspan x="305.9" y="46.5" class="st3 st6 st8">바라봄으로써 </tspan><tspan x="0" y="60.1" class="st3 st6 st8">독특하고 유니크한 감성을 제품에 녹여내는  업사이클 브랜드입니다.   </tspan></text>
	</g>
	<g id="XMLID_1894_">
		<text id="XMLID_386_" transform="matrix(1 0 0 1 1010.4114 231.8441)" class="st3 st6 st8">@ esign101</text>
	</g>
	<g id="XMLID_1875_">
		<polygon id="XMLID_1877_" class="st3" points="982.7,225.6 981.3,233.5 984,233.5 982.7,225.6 		"/>
	</g>
	<g id="XMLID_955_">
		<g id="XMLID_483_">
			<circle id="XMLID_491_" class="st3" cx="982.8" cy="226.1" r="1.5"/>
			<g id="XMLID_484_">
				<path id="XMLID_486_" class="st3" d="M982.8,222.5c0.8,0,1.5,0.2,2.1,0.7h2.8h2.6v-1c0-2.1-1.7-3.8-3.8-3.8h-7.5
					c-2.1,0-3.8,1.7-3.8,3.8v1h5.5C981.3,222.8,982,222.5,982.8,222.5z M985.8,220.7c0-0.2,0.2-0.4,0.4-0.4h1.3
					c0.2,0,0.4,0.2,0.4,0.4v1.3c0,0.2-0.2,0.4-0.4,0.4h-1.3c-0.2,0-0.4-0.2-0.4-0.4V220.7z"/>
				<path id="XMLID_485_" class="st3" d="M986.3,226.1c0,2-1.6,3.6-3.6,3.6s-3.6-1.6-3.6-3.6c0-0.5,0.1-1.1,0.3-1.5h-4.4v5.1
					c0,2.1,1.7,3.8,3.8,3.8h7.5c2.1,0,3.8-1.7,3.8-3.8v-5.1H986C986.2,225.1,986.3,225.6,986.3,226.1z"/>
			</g>
		</g>
	</g>
	<g id="XMLID_829_">
		<g id="XMLID_906_">
			<path id="XMLID_950_" class="st3" d="M1122.5,33.5h-6.3c-1.7,0-3-1.4-3-3c0-1.7,1.4-3,3-3h10.4v-2.5h-10.4
				c-3.1,0-5.5,2.5-5.5,5.5c0,3.1,2.5,5.5,5.5,5.5h6.3c1.7,0,3,1.4,3,3c0,1.7-1.4,3-3,3h-11.3v2.5h11.3c3.1,0,5.5-2.5,5.5-5.5
				C1128.1,35.9,1125.6,33.5,1122.5,33.5z"/>
			<path id="XMLID_949_" class="st3" d="M1170.5,24.5c-5,0-9.1,4.1-9.1,9.1v10.9h2.5V33.6c0-3.6,3-6.6,6.6-6.6c3.6,0,6.6,3,6.6,6.6
				v10.9h2.5V33.6C1179.7,28.6,1175.6,24.5,1170.5,24.5z"/>
			<path id="XMLID_925_" class="st3" d="M1091.7,30.4V39c0,3.1,2.5,5.5,5.5,5.5h10.4V42h-10.4c-1.7,0-3-1.4-3-3v-3h13.5v-2.5h-13.5
				v-3c0-1.7,1.4-3,3-3h10.4v-2.5h-10.4C1094.1,24.9,1091.7,27.4,1091.7,30.4z"/>
			<rect id="XMLID_921_" x="1131.8" y="24.9" class="st3" width="2.5" height="14.4"/>
			<circle id="XMLID_916_" class="st3" cx="1133" cy="43" r="1.9"/>
			<path id="XMLID_915_" class="st3" d="M1158.6,33.5h-12.9V36h10.3l0,0.2c-0.7,3.6-3.9,6.3-7.6,6.3c-4.2,0-7.7-3.5-7.7-7.7
				c0-4.2,3.5-7.7,7.7-7.7c2.6,0,5,1.3,6.4,3.5h2.8c-1.7-3.7-5.3-6-9.3-6c-5.6,0-10.2,4.6-10.2,10.2c0,5.6,4.6,10.2,10.2,10.2
				c5.6,0,10.2-4.6,10.2-10.2C1158.7,34.3,1158.7,33.9,1158.6,33.5z"/>
			<g id="XMLID_911_">
				<path id="XMLID_913_" class="st3" d="M1189.6,25c-0.5-0.2-1-0.1-1.4,0.3l-4.6,4.6l1.8,1.8l2.5-2.5v15.4h2.5V26.1
					C1190.3,25.6,1190,25.2,1189.6,25z"/>
				<path id="XMLID_912_" class="st3" d="M1226,29.9l-4.6-4.6c-0.4-0.4-0.9-0.5-1.4-0.3c-0.5,0.2-0.8,0.6-0.8,1.2v18.4h2.5V29.1
					l2.5,2.5L1226,29.9z"/>
			</g>
			<path id="XMLID_910_" class="st3" d="M1216.2,32.9l-1.3,1.3l0-0.3c-0.4-5.3-4.8-9.5-10.2-9.5c-4.1,0-7.6,2.4-9.3,5.9l2.2,1.2
				c1.2-2.7,3.9-4.6,7-4.6l0,0c3.9,0,7.2,3,7.7,6.9l0,0.4l-1.3-1.3l-0.8,0.8l3.3,3.3l3.3-3.3L1216.2,32.9z"/>
			<path id="XMLID_907_" class="st3" d="M1193.2,36.5l1.3-1.3l0,0.3c0.4,5.3,4.8,9.5,10.2,9.5c4.1,0,7.6-2.4,9.3-5.9l-2.2-1.2
				c-1.2,2.7-3.9,4.6-7,4.6l0,0c-3.9,0-7.2-3-7.7-6.9l0-0.4l1.3,1.3l0.8-0.8l-3.3-3.3l-3.3,3.3L1193.2,36.5z"/>
		</g>
		<g id="XMLID_901_">
			<rect id="XMLID_905_" x="1097.5" y="53.5" class="st3" width="0.9" height="7.7"/>
			<path id="XMLID_902_" class="st3" d="M1094.2,53.3c-1.2,0-2.2,1-2.2,2.2c0,1.2,1,2.2,2.2,2.2c1.2,0,2.2-1,2.2-2.2
				C1096.4,54.3,1095.4,53.3,1094.2,53.3z M1094.2,56.9c-0.7,0-1.3-0.6-1.3-1.3c0-0.7,0.6-1.3,1.3-1.3c0.7,0,1.3,0.6,1.3,1.3
				C1095.5,56.3,1094.9,56.9,1094.2,56.9z"/>
		</g>
		<g id="XMLID_857_">
			<path id="XMLID_898_" class="st3" d="M1142.8,57.8c1.2,0,2.2-1,2.2-2.2c0-1.2-1-2.2-2.2-2.2c-1.2,0-2.2,1-2.2,2.2
				C1140.6,56.7,1141.6,57.8,1142.8,57.8z M1142.8,54.2c0.7,0,1.3,0.6,1.3,1.3c0,0.7-0.6,1.3-1.3,1.3c-0.7,0-1.3-0.6-1.3-1.3
				C1141.5,54.8,1142.1,54.2,1142.8,54.2z"/>
			<rect id="XMLID_859_" x="1146.5" y="53.5" class="st3" width="0.9" height="6"/>
			<path id="XMLID_858_" class="st3" d="M1143.3,59.4h-0.9v1.9c0,0.2,0.2,0.4,0.4,0.4h4.8v-0.9h-4.4V59.4z"/>
		</g>
		<g id="XMLID_847_">
			<path id="XMLID_856_" class="st3" d="M1166.5,59.4h-0.9v1.9c0,0.2,0.2,0.4,0.4,0.4h5.1v-0.9h-4.7V59.4z"/>
			<path id="XMLID_850_" class="st3" d="M1165.8,58.6h0.9v-1.1h2.3v-0.9h-1.1l0.1-0.2c0.2-0.3,0.3-0.7,0.3-1.1c0-1.1-0.9-2-2-2
				c-1.1,0-2,0.9-2,2c0,0.4,0.1,0.8,0.3,1.1l0.1,0.2h-0.6v0.9h1.8V58.6z M1165.1,55.3c0-0.6,0.5-1.2,1.2-1.2c0.6,0,1.2,0.5,1.2,1.2
				c0,0.6-0.5,1.2-1.2,1.2C1165.6,56.5,1165.1,56,1165.1,55.3z"/>
			<polygon id="XMLID_849_" class="st3" points="1170,60 1170.9,60 1170.9,53.5 1170,53.5 1170,58.4 1168.5,58.4 1168.5,59.3 
				1170,59.3 			"/>
		</g>
		<g id="XMLID_839_">
			<path id="XMLID_845_" class="st3" d="M1216.5,59.4h-0.9v1.9c0,0.2,0.2,0.4,0.4,0.4h5.1v-0.9h-4.7V59.4z"/>
			<path id="XMLID_841_" class="st3" d="M1215.7,58.6h0.9v-1.1h2.3v-0.9h-1.1l0.1-0.2c0.2-0.3,0.3-0.7,0.3-1.1c0-1.1-0.9-2-2-2
				c-1.1,0-2,0.9-2,2c0,0.4,0.1,0.8,0.3,1.1l0.1,0.2h-0.6v0.9h1.8V58.6z M1215,55.3c0-0.6,0.5-1.2,1.2-1.2c0.6,0,1.1,0.5,1.1,1.2
				c0,0.6-0.5,1.2-1.1,1.2C1215.6,56.5,1215,56,1215,55.3z"/>
			<polygon id="XMLID_840_" class="st3" points="1220,60 1220.9,60 1220.9,53.5 1220,53.5 1220,58.4 1218.5,58.4 1218.5,59.3 
				1220,59.3 			"/>
		</g>
		<g id="XMLID_836_">
			<path id="XMLID_838_" class="st3" d="M1122.3,54v7.1h0.9v-6.7h1.6v-0.9h-2.1C1122.5,53.6,1122.3,53.8,1122.3,54z"/>
			<polygon id="XMLID_837_" class="st3" points="1120.9,54.6 1120.9,53.7 1116.6,53.7 1116.6,54.6 1118,54.6 1116.5,57.8 
				1117.5,57.8 1118.8,55.1 1120,57.8 1121,57.8 1119.5,54.6 			"/>
		</g>
		<g id="XMLID_830_">
			<path id="XMLID_833_" class="st3" d="M1192.5,58.1L1192.5,58.1c1.2-0.3,2-1.2,2-2.4c0-1.3-1.1-2.4-2.4-2.4
				c-1.3,0-2.4,1.1-2.4,2.4c0,1.1,0.8,2.1,1.9,2.3l0.1,0V60h-2.7v0.9h6.3V60h-2.7V58.1z M1190.6,55.7c0-0.8,0.7-1.5,1.5-1.5
				c0.8,0,1.5,0.7,1.5,1.5c0,0.8-0.7,1.5-1.5,1.5C1191.3,57.2,1190.6,56.5,1190.6,55.7z"/>
		</g>
	</g>
</g>
<g id="XMLID_406_">
	<rect id="XMLID_821_" x="1421" y="3.6" class="st0" width="425.2" height="255.1"/>
	<rect id="XMLID_803_" x="1449.4" y="24.9" class="st0" width="368.5" height="212.6"/>
	<line id="XMLID_780_" class="st1" x1="1449.4" y1="81.3" x2="1817.9" y2="81.3"/>
	<g id="XMLID_713_">
		<rect id="XMLID_432_" x="1449.4" y="104.6" class="st2" width="368.5" height="93.3"/>
		<text id="XMLID_431_" transform="matrix(1 0 0 1 1449.376 113.8149)"><tspan x="0" y="0" class="st3 st6 st5">JUSTPROJECT는</tspan><tspan x="90" y="0" class="st3 st6 st5 st12"> </tspan><tspan x="97.4" y="0" class="st3 st6 st5">쓰레기를</tspan><tspan x="140.1" y="0" class="st3 st6 st5 st12"> </tspan><tspan x="147.5" y="0" class="st3 st6 st5">소재로</tspan><tspan x="179.6" y="0" class="st3 st6 st5 st12"> </tspan><tspan x="187" y="0" class="st3 st6 st5">제품을</tspan><tspan x="219.1" y="0" class="st3 st6 st5 st12"> </tspan><tspan x="226.4" y="0" class="st3 st6 st5">만들고,</tspan><tspan x="261.7" y="0" class="st3 st6 st5 st12"> </tspan><tspan x="269.1" y="0" class="st3 st6 st5">제품기획,</tspan><tspan x="315.1" y="0" class="st3 st6 st5 st12"> </tspan><tspan x="322.5" y="0" class="st3 st6 st5">공간연출, </tspan><tspan x="0" y="13.9" class="st3 st6 st5">그래픽</tspan><tspan x="32.1" y="13.9" class="st3 st6 st5 st11"> </tspan><tspan x="37" y="13.9" class="st3 st6 st5">작업</tspan><tspan x="58.4" y="13.9" class="st3 st6 st5 st11"> </tspan><tspan x="63.4" y="13.9" class="st3 st6 st5">등을</tspan><tspan x="84.7" y="13.9" class="st3 st6 st5 st11"> </tspan><tspan x="89.7" y="13.9" class="st3 st6 st5">하는</tspan><tspan x="111.1" y="13.9" class="st3 st6 st5 st11"> </tspan><tspan x="116" y="13.9" class="st3 st6 st5">디자인회사입니다.</tspan><tspan x="204.8" y="13.9" class="st3 st6 st5 st11"> </tspan><tspan x="209.7" y="13.9" class="st3 st6 st5">쓰레기</tspan><tspan x="241.8" y="13.9" class="st3 st6 st5 st11"> </tspan><tspan x="246.8" y="13.9" class="st3 st6 st5">각각의</tspan><tspan x="278.8" y="13.9" class="st3 st6 st5 st11"> </tspan><tspan x="283.8" y="13.9" class="st3 st6 st5">물성과</tspan><tspan x="315.9" y="13.9" class="st3 st6 st5 st11"> </tspan><tspan x="320.8" y="13.9" class="st3 st6 st5">그에</tspan><tspan x="342.2" y="13.9" class="st3 st6 st5 st11"> </tspan><tspan x="347.1" y="13.9" class="st3 st6 st5">따른 </tspan><tspan x="0" y="27.9" class="st3 st6 st5">가공법을 연구합니다.</tspan></text>
	</g>
	<g id="XMLID_698_">
		<path id="XMLID_699_" class="st3" d="M1711.9,218.4h-12.9c-0.6,0-1.1,0.5-1.1,1.1v12.9c0,0.6,0.5,1.1,1.1,1.1h4.8v-7.3h-1.3v-1.4
			l1.3-0.1v-1.1c0-1.8,0.9-3,2.9-3c0.6,0,1.2,0.1,1.6,0.3l-0.4,1.4c-0.3-0.1-0.7-0.2-1-0.2c-0.8,0-1.2,0.5-1.2,1.6v1.1h1.9v1.5h-1.9
			v7.3h6.1c0.6,0,1.1-0.5,1.1-1.1v-12.9C1713,218.9,1712.5,218.4,1711.9,218.4z"/>
	</g>
	<g id="XMLID_563_">
		<text id="XMLID_384_" transform="matrix(1 0 0 1 1470.619 230.8441)" class="st3 st6 st13">@justproject_korea /  @justproject_projucts</text>
	</g>
	<g id="XMLID_532_">
		<text id="XMLID_378_" transform="matrix(1 0 0 1 1722.1229 231.293)" class="st3 st6 st13">fb.com/justproject0 </text>
	</g>
	<g id="XMLID_478_">
		<g id="XMLID_439_">
			<circle id="XMLID_445_" class="st3" cx="1457" cy="226.1" r="1.5"/>
			<g id="XMLID_440_">
				<path id="XMLID_442_" class="st3" d="M1457,222.5c0.8,0,1.5,0.2,2.1,0.7h2.8h2.6v-1c0-2.1-1.7-3.8-3.8-3.8h-7.5
					c-2.1,0-3.8,1.7-3.8,3.8v1h5.5C1455.5,222.8,1456.2,222.5,1457,222.5z M1460,220.7c0-0.2,0.2-0.4,0.4-0.4h1.3
					c0.2,0,0.4,0.2,0.4,0.4v1.3c0,0.2-0.2,0.4-0.4,0.4h-1.3c-0.2,0-0.4-0.2-0.4-0.4V220.7z"/>
				<path id="XMLID_441_" class="st3" d="M1460.5,226.1c0,2-1.6,3.6-3.6,3.6c-2,0-3.6-1.6-3.6-3.6c0-0.5,0.1-1.1,0.3-1.5h-4.4v5.1
					c0,2.1,1.7,3.8,3.8,3.8h7.5c2.1,0,3.8-1.7,3.8-3.8v-5.1h-4.2C1460.4,225.1,1460.5,225.6,1460.5,226.1z"/>
			</g>
		</g>
	</g>
	<g id="XMLID_407_">
		<path id="XMLID_476_" class="st3" d="M1551.5,52.4c-2.3,0-3.7-0.6-5.3-2.1l3.2-3.1c0.6,0.6,1.1,1,2.2,1c1.5,0,2.6-0.8,2.6-2.7
			V32.7h4.8v12.8C1558.9,50.1,1555.2,52.4,1551.5,52.4z"/>
		<path id="XMLID_474_" class="st3" d="M1569.6,52.4c-4.1,0-7.4-2.7-7.4-7v-8.5l4.8-4.1v12.6c0,1.8,1,2.9,2.6,2.9
			c1.6,0,2.6-1,2.6-2.9V32.7h4.8v12.7C1577,49.6,1573.6,52.4,1569.6,52.4z"/>
		<path id="XMLID_472_" class="st3" d="M1586.2,52.4c-3,0-5.4-0.6-7.4-2.6l3.1-3.1c1,1,2.8,1.4,4.4,1.4c1.9,0,2.8-0.6,2.8-1.8
			c0-0.5-0.1-0.8-0.4-1.1c-0.2-0.3-0.7-0.4-1.3-0.5l-2.4-0.3c-1.7-0.2-3-0.8-3.9-1.7c-0.9-0.9-1.3-2.2-1.3-3.9
			c0-3.6,2.7-6.2,7.1-6.2c2.8,0,4.9,0.7,6.6,2.3l-3,3c-1.2-1.2-2.8-1.1-3.7-1.1c-1.7,0-2.4,1-2.4,1.8c0,0.2,0.1,0.6,0.4,0.9
			c0.2,0.3,0.7,0.5,1.3,0.6l2.4,0.3c1.8,0.2,3,0.8,3.8,1.6c1,1,1.5,2.5,1.5,4.3C1593.7,50.2,1590.3,52.4,1586.2,52.4z"/>
		<path id="XMLID_470_" class="st3" d="M1605.3,37v12.2l-4.8,3.1V37h-4.8v-4.3h14.4V37H1605.3z"/>
		<path id="XMLID_467_" class="st3" d="M1622.4,43.9h-5.7v8.3h-1.5V32.7h7.2c3.4,0,5.9,2.1,5.9,5.6
			C1628.3,41.9,1625.8,43.9,1622.4,43.9z M1622.2,34h-5.5v8.6h5.5c2.7,0,4.6-1.4,4.6-4.3C1626.8,35.4,1624.9,34,1622.2,34z"/>
		<path id="XMLID_463_" class="st3" d="M1643.2,52.2l-4.6-9h-5.4v9h-1.5V32.7h7.4c3.2,0,5.6,1.8,5.6,5.2c0,2.9-1.8,4.8-4.5,5.3
			l4.7,9H1643.2z M1638.9,34h-5.8v7.9h5.8c2.5,0,4.3-1.3,4.3-3.9C1643.3,35.3,1641.4,34,1638.9,34z"/>
		<path id="XMLID_457_" class="st3" d="M1660.1,50.4c-1.3,1.3-3,2-4.9,2c-1.8,0-3.6-0.7-4.9-2c-1.8-1.8-1.8-3.5-1.8-7.9
			c0-4.4,0-6.1,1.8-7.9c1.3-1.3,3-2,4.9-2c1.8,0,3.6,0.7,4.9,2c1.8,1.8,1.8,3.5,1.8,7.9C1661.9,46.9,1661.9,48.6,1660.1,50.4z
			 M1658.9,35.3c-1-1-2.3-1.5-3.7-1.5c-1.4,0-2.7,0.5-3.7,1.5c-1.4,1.4-1.5,2.9-1.5,7.1c0,4.2,0.1,5.7,1.5,7.1c1,1,2.3,1.5,3.7,1.5
			c1.4,0,2.7-0.5,3.7-1.5c1.4-1.4,1.5-2.9,1.5-7.1C1660.4,38.2,1660.3,36.7,1658.9,35.3z"/>
		<path id="XMLID_437_" class="st3" d="M1668.2,52.4c-1.8,0-3.1-0.6-4.3-1.7l1-1c0.7,0.7,1.5,1.4,3.3,1.4c2.8,0,4.3-1.8,4.3-4.9
			V32.7h1.5v13.8C1674,50,1671.7,52.4,1668.2,52.4z"/>
		<path id="XMLID_412_" class="st3" d="M1678.9,52.2V32.7h11.8V34h-10.4v7.7h8.8V43h-8.8v7.9h10.4v1.3H1678.9z"/>
		<path id="XMLID_410_" class="st3" d="M1700.8,52.4c-1.8,0-3.6-0.7-4.9-2c-1.8-1.8-1.8-3.5-1.8-7.9c0-4.4,0-6.1,1.8-7.9
			c1.3-1.3,3-2,4.9-2c2.3,0,4,1,5.5,2.4l-1,1c-1.3-1.3-2.5-2.1-4.5-2.1c-1.4,0-2.7,0.5-3.7,1.5c-1.4,1.4-1.5,2.9-1.5,7.1
			c0,4.2,0.1,5.7,1.5,7.1c0.9,1,2.3,1.5,3.7,1.5c2,0,3.2-0.8,4.5-2.1l1,1C1704.7,51.4,1703.1,52.4,1700.8,52.4z"/>
		<path id="XMLID_408_" class="st3" d="M1716.2,34v18.2h-1.5V34h-5.8v-1.3h13.1V34H1716.2z"/>
	</g>
</g>
<g id="XMLID_512_">
	<rect id="XMLID_712_" x="1893.5" y="3.6" class="st0" width="425.2" height="255.1"/>
	<rect id="XMLID_711_" x="1921.9" y="24.9" class="st0" width="368.5" height="212.6"/>
	<line id="XMLID_710_" class="st1" x1="1921.9" y1="80.3" x2="2290.4" y2="80.3"/>
	<g id="XMLID_705_">
		<rect id="XMLID_401_" x="1921.9" y="106.6" class="st2" width="368.5" height="106.5"/>
		<text id="XMLID_400_" transform="matrix(1 0 0 1 1921.866 115.6117)"><tspan x="0" y="0" class="st3 st4 st8">소각대신 소생하는 두번째 쓸모</tspan><tspan x="0" y="13.6" class="st3 st6 st8">버려지는</tspan><tspan x="41.5" y="13.6" class="st3 st6 st8 st9"> </tspan><tspan x="49.4" y="13.6" class="st3 st6 st8">자원들을</tspan><tspan x="90.9" y="13.6" class="st3 st6 st8 st9"> </tspan><tspan x="98.8" y="13.6" class="st3 st6 st8">재해석하여</tspan><tspan x="150.7" y="13.6" class="st3 st6 st8 st9"> </tspan><tspan x="158.6" y="13.6" class="st3 st6 st8">새로운</tspan><tspan x="189.7" y="13.6" class="st3 st6 st8 st9"> </tspan><tspan x="197.6" y="13.6" class="st3 st6 st8">제품을</tspan><tspan x="228.7" y="13.6" class="st3 st6 st8 st9"> </tspan><tspan x="236.6" y="13.6" class="st3 st6 st8">만드는</tspan><tspan x="267.7" y="13.6" class="st3 st6 st8 st9"> </tspan><tspan x="275.6" y="13.6" class="st3 st6 st8">것처럼,UPCYCLE의 </tspan><tspan x="0" y="27.2" class="st3 st6 st8">스펠링을</tspan><tspan x="41.5" y="27.2" class="st3 st6 st8 st10"> </tspan><tspan x="45.3" y="27.2" class="st3 st6 st8">재배열하여</tspan><tspan x="97.2" y="27.2" class="st3 st6 st8 st10"> </tspan><tspan x="101" y="27.2" class="st3 st6 st8">CUECLYP라는</tspan><tspan x="170" y="27.2" class="st3 st6 st8 st10"> </tspan><tspan x="173.8" y="27.2" class="st3 st6 st8">새로운</tspan><tspan x="204.9" y="27.2" class="st3 st6 st8 st10"> </tspan><tspan x="208.7" y="27.2" class="st3 st6 st8">단어를</tspan><tspan x="239.8" y="27.2" class="st3 st6 st8 st10"> </tspan><tspan x="243.6" y="27.2" class="st3 st6 st8">만들었습니다.</tspan><tspan x="309" y="27.2" class="st3 st6 st8 st10"> </tspan><tspan x="312.8" y="27.2" class="st3 st6 st8">로고의</tspan><tspan x="343.9" y="27.2" class="st3 st6 st8 st10"> </tspan><tspan x="347.7" y="27.2" class="st3 st6 st8">우산 </tspan><tspan x="0" y="40.8" class="st3 st6 st8">픽토그램은</tspan><tspan x="51.9" y="40.8" class="st3 st6 st8 st10"> </tspan><tspan x="55.5" y="40.8" class="st3 st6 st8">버려지는</tspan><tspan x="97" y="40.8" class="st3 st6 st8 st10"> </tspan><tspan x="100.7" y="40.8" class="st3 st6 st8">우산의</tspan><tspan x="131.8" y="40.8" class="st3 st6 st8 st10"> </tspan><tspan x="135.4" y="40.8" class="st3 st6 st8">희망을</tspan><tspan x="166.6" y="40.8" class="st3 st6 st8 st10"> </tspan><tspan x="170.2" y="40.8" class="st3 st6 st8">표현하는</tspan><tspan x="211.7" y="40.8" class="st3 st6 st8 st10"> </tspan><tspan x="215.4" y="40.8" class="st3 st6 st8">동시에</tspan><tspan x="246.5" y="40.8" class="st3 st6 st8 st10"> </tspan><tspan x="250.1" y="40.8" class="st3 st6 st8">구름</tspan><tspan x="270.9" y="40.8" class="st3 st6 st8 st10"> </tspan><tspan x="274.5" y="40.8" class="st3 st6 st8">위로</tspan><tspan x="295.3" y="40.8" class="st3 st6 st8 st10"> </tspan><tspan x="298.9" y="40.8" class="st3 st6 st8">해가</tspan><tspan x="319.7" y="40.8" class="st3 st6 st8 st10"> </tspan><tspan x="323.3" y="40.8" class="st3 st6 st8">뜨는</tspan><tspan x="344.1" y="40.8" class="st3 st6 st8 st10"> </tspan><tspan x="347.7" y="40.8" class="st3 st6 st8">형상 </tspan><tspan x="0" y="54.4" class="st3 st6 st8">이며</tspan><tspan x="20.8" y="54.4" class="st3 st6 st8 st12"> </tspan><tspan x="28.3" y="54.4" class="st3 st6 st8">버려지는</tspan><tspan x="69.8" y="54.4" class="st3 st6 st8 st12"> </tspan><tspan x="77.3" y="54.4" class="st3 st6 st8">다양한</tspan><tspan x="108.4" y="54.4" class="st3 st6 st8 st12"> </tspan><tspan x="115.9" y="54.4" class="st3 st6 st8">자원들이</tspan><tspan x="157.4" y="54.4" class="st3 st6 st8 st12"> </tspan><tspan x="164.9" y="54.4" class="st3 st6 st8">다시</tspan><tspan x="185.7" y="54.4" class="st3 st6 st8 st12"> </tspan><tspan x="193.2" y="54.4" class="st3 st6 st8">부활한다는</tspan><tspan x="245" y="54.4" class="st3 st6 st8 st12"> </tspan><tspan x="252.6" y="54.4" class="st3 st6 st8">두</tspan><tspan x="262.9" y="54.4" class="st3 st6 st8 st12"> </tspan><tspan x="270.4" y="54.4" class="st3 st6 st8">가지</tspan><tspan x="291.2" y="54.4" class="st3 st6 st8 st12"> </tspan><tspan x="298.7" y="54.4" class="st3 st6 st8">의미를</tspan><tspan x="329.8" y="54.4" class="st3 st6 st8 st12"> </tspan><tspan x="337.3" y="54.4" class="st3 st6 st8">가지고 </tspan><tspan x="0" y="68" class="st3 st6 st8">있습니다.각기</tspan><tspan x="65.3" y="68" class="st3 st6 st8"> </tspan><tspan x="67.6" y="68" class="st3 st6 st8">다른</tspan><tspan x="88.3" y="68" class="st3 st6 st8"> </tspan><tspan x="90.5" y="68" class="st3 st6 st8">패턴과</tspan><tspan x="121.6" y="68" class="st3 st6 st8"> </tspan><tspan x="123.9" y="68" class="st3 st6 st8">색상,</tspan><tspan x="147.7" y="68" class="st3 st6 st8"> </tspan><tspan x="149.9" y="68" class="st3 st6 st8">시간의</tspan><tspan x="181" y="68" class="st3 st6 st8"> </tspan><tspan x="183.2" y="68" class="st3 st6 st8">흔적이</tspan><tspan x="214.4" y="68" class="st3 st6 st8"> </tspan><tspan x="216.6" y="68" class="st3 st6 st8">만든</tspan><tspan x="237.3" y="68" class="st3 st6 st8"> </tspan><tspan x="239.5" y="68" class="st3 st6 st8">빈티지한</tspan><tspan x="281" y="68" class="st3 st6 st8"> </tspan><tspan x="283.2" y="68" class="st3 st6 st8">무늬까지</tspan><tspan x="324.7" y="68" class="st3 st6 st8"> </tspan><tspan x="327" y="68" class="st3 st6 st8">어느하나 </tspan><tspan x="0" y="81.6" class="st3 st6 st8">같은 디자인이 없기에 나만의 아이템을 찾는 재미있는 시간이 될 것입니다.</tspan></text>
	</g>
	<g id="XMLID_700_">
		<text id="XMLID_376_" transform="matrix(1 0 0 1 1947.1084 232.8441)" class="st3 st6 st8">cueclyp.com</text>
	</g>
	<g id="XMLID_697_">
		<text id="XMLID_374_" transform="matrix(1 0 0 1 2097.6123 232.293)" class="st3 st6 st8">@cueclyp</text>
	</g>
	<g id="XMLID_464_">
		<path id="XMLID_494_" class="st3" d="M1935.8,218.2h-12.9c-0.6,0-1.1,0.5-1.1,1.1v12.9c0,0.6,0.5,1.1,1.1,1.1h3.5l-1.8-12.1h1.8
			l0.9,7.7h0l1.4-7.7h1.3l1.4,7.9h0l0.8-7.9h1.8l-1.8,12.1h3.5c0.6,0,1.1-0.5,1.1-1.1v-12.9C1936.9,218.7,1936.4,218.2,1935.8,218.2
			z"/>
		<polygon id="XMLID_493_" class="st3" points="1929.4,225.4 1928,233.2 1930.7,233.2 1929.4,225.4 		"/>
	</g>
	<g id="XMLID_97_">
		<polygon id="XMLID_217_" class="st3" points="2124.4,48.9 2118.4,48.9 2118.4,29 2114.8,29 2114.8,52.2 2124.4,52.2 		"/>
		<polygon id="XMLID_216_" class="st3" points="2099.8,48.9 2093.5,48.9 2093.5,42.1 2098.5,42.1 2098.5,38.8 2093.5,38.8 
			2093.5,32.3 2099.8,32.3 2099.8,29 2089.9,29 2089.9,52.2 2099.8,52.2 		"/>
		<polygon id="XMLID_177_" class="st3" points="2127.4,52.2 2131,52.2 2131,44.5 2135.6,29 2132.1,29 2129.4,39.6 2129.3,39.6 
			2126.6,29 2122.8,29 2127.4,44.5 		"/>
		<path id="XMLID_173_" class="st3" d="M2140.7,43.5h1.7c3.6,0,5.4-2,5.4-5.7v-3c0-3.7-1.8-5.7-5.4-5.7h-5.4v23.2h3.6V43.5z
			 M2140.7,32.3h1.7c1.2,0,1.8,0.5,1.8,2.2V38c0,1.7-0.6,2.2-1.8,2.2h-1.7V32.3z"/>
		<path id="XMLID_172_" class="st3" d="M2107.2,52.4c3.6,0,5.4-2.1,5.4-5.8v-3.1h-3.4v3.3c0,1.7-0.7,2.2-1.9,2.2
			c-1.2,0-1.9-0.6-1.9-2.2V34.3c0-1.7,0.7-2.3,1.9-2.3c1.2,0,1.9,0.6,1.9,2.3v2.5h3.4v-2.3c0-3.7-1.9-5.8-5.4-5.8
			c-3.6,0-5.4,2.1-5.4,5.8v12C2101.7,50.3,2103.6,52.4,2107.2,52.4z"/>
		<path id="XMLID_171_" class="st3" d="M2081.9,52.5c3.6,0,5.4-2.1,5.4-5.8V29h-3.4v17.9c0,1.7-0.7,2.2-1.9,2.2
			c-1.2,0-1.9-0.6-1.9-2.2V29h-3.6v17.6C2076.5,50.3,2078.4,52.5,2081.9,52.5z"/>
		<path id="XMLID_170_" class="st3" d="M2069,52.4c3.6,0,5.4-2.1,5.4-5.8v-3.1h-3.4v3.3c0,1.7-0.7,2.2-1.9,2.2
			c-1.2,0-1.9-0.6-1.9-2.2V34.3c0-1.7,0.7-2.3,1.9-2.3c1.2,0,1.9,0.6,1.9,2.3v2.5h3.4v-2.3c0-3.7-1.9-5.8-5.4-5.8
			c-3.6,0-5.4,2.1-5.4,5.8v12C2063.6,50.3,2065.5,52.4,2069,52.4z"/>
	</g>
	<g id="XMLID_16_">
		<g id="XMLID_413_">
			<circle id="XMLID_428_" class="st3" cx="2079" cy="225.8" r="1.5"/>
			<g id="XMLID_416_">
				<path id="XMLID_419_" class="st3" d="M2079,222.2c0.8,0,1.5,0.2,2.1,0.7h2.8h2.6v-1c0-2.1-1.7-3.8-3.8-3.8h-7.5
					c-2.1,0-3.8,1.7-3.8,3.8v1h5.5C2077.6,222.5,2078.3,222.2,2079,222.2z M2082.1,220.4c0-0.2,0.2-0.4,0.4-0.4h1.3
					c0.2,0,0.4,0.2,0.4,0.4v1.3c0,0.2-0.2,0.4-0.4,0.4h-1.3c-0.2,0-0.4-0.2-0.4-0.4V220.4z"/>
				<path id="XMLID_418_" class="st3" d="M2082.6,225.8c0,2-1.6,3.6-3.6,3.6s-3.6-1.6-3.6-3.6c0-0.5,0.1-1.1,0.3-1.5h-4.4v5.1
					c0,2.1,1.7,3.8,3.8,3.8h7.5c2.1,0,3.8-1.7,3.8-3.8v-5.1h-4.2C2082.5,224.7,2082.6,225.2,2082.6,225.8z"/>
			</g>
		</g>
	</g>
</g>
<g id="XMLID_73_">
	<rect id="XMLID_770_" x="1893.5" y="312.5" class="st0" width="425.2" height="255.1"/>
	<rect id="XMLID_769_" x="1921.9" y="333.8" class="st0" width="368.5" height="212.6"/>
	<line id="XMLID_768_" class="st1" x1="1921.9" y1="389.2" x2="2290.4" y2="389.2"/>
	<g id="XMLID_763_">
		<rect id="XMLID_395_" x="1921.9" y="415.5" class="st2" width="368.5" height="106.5"/>
		<text id="XMLID_394_" transform="matrix(1 0 0 1 1921.866 424.7409)"><tspan x="0" y="0" class="st3 st6 st5">‘자연,</tspan><tspan x="27.8" y="0" class="st3 st6 st5 st11"> </tspan><tspan x="33.3" y="0" class="st3 st6 st5">스러웠어’는</tspan><tspan x="90" y="0" class="st3 st6 st5 st11"> </tspan><tspan x="95.4" y="0" class="st3 st6 st5">생활</tspan><tspan x="116.8" y="0" class="st3 st6 st5 st11"> </tspan><tspan x="122.2" y="0" class="st3 st6 st5">속</tspan><tspan x="132.9" y="0" class="st3 st6 st5 st11"> </tspan><tspan x="138.3" y="0" class="st3 st6 st5">자연스러운</tspan><tspan x="191.7" y="0" class="st3 st6 st5 st11"> </tspan><tspan x="197.2" y="0" class="st3 st6 st5">환경</tspan><tspan x="218.5" y="0" class="st3 st6 st5 st11"> </tspan><tspan x="224" y="0" class="st3 st6 st5">가치</tspan><tspan x="245.3" y="0" class="st3 st6 st5 st11"> </tspan><tspan x="250.8" y="0" class="st3 st6 st5">인식을</tspan><tspan x="282.8" y="0" class="st3 st6 st5 st11"> </tspan><tspan x="288.2" y="0" class="st3 st6 st5">확산시키기</tspan><tspan x="341.7" y="0" class="st3 st6 st5 st11"> </tspan><tspan x="347.1" y="0" class="st3 st6 st5">위해 </tspan><tspan x="0" y="13.9" class="st3 st6 st5">노력하고</tspan><tspan x="42.8" y="13.9" class="st3 st6 st5 st12"> </tspan><tspan x="49.7" y="13.9" class="st3 st6 st5">있습니다.</tspan><tspan x="95.7" y="13.9" class="st3 st6 st5 st12"> </tspan><tspan x="102.6" y="13.9" class="st3 st6 st5">바다에</tspan><tspan x="134.6" y="13.9" class="st3 st6 st5 st12"> </tspan><tspan x="141.5" y="13.9" class="st3 st6 st5">버려진</tspan><tspan x="173.6" y="13.9" class="st3 st6 st5 st12"> </tspan><tspan x="180.5" y="13.9" class="st3 st6 st5">유리조각이</tspan><tspan x="234" y="13.9" class="st3 st6 st5 st12"> </tspan><tspan x="240.9" y="13.9" class="st3 st6 st5">파도와</tspan><tspan x="273" y="13.9" class="st3 st6 st5 st12"> </tspan><tspan x="279.9" y="13.9" class="st3 st6 st5">모래에</tspan><tspan x="311.9" y="13.9" class="st3 st6 st5 st12"> </tspan><tspan x="318.8" y="13.9" class="st3 st6 st5">수십년</tspan><tspan x="350.9" y="13.9" class="st3 st6 st5 st12"> </tspan><tspan x="357.8" y="13.9" class="st3 st6 st5">간 </tspan><tspan x="0" y="27.9" class="st3 st6 st5">마모되어</tspan><tspan x="42.8" y="27.9" class="st3 st6 st5 st14"> </tspan><tspan x="48.5" y="27.9" class="st3 st6 st5">생겨난</tspan><tspan x="80.5" y="27.9" class="st3 st6 st5 st14"> </tspan><tspan x="86.2" y="27.9" class="st3 st6 st5">‘바다유리’에</tspan><tspan x="146.1" y="27.9" class="st3 st6 st5 st14"> </tspan><tspan x="151.8" y="27.9" class="st3 st6 st5">전통매듭의</tspan><tspan x="205.3" y="27.9" class="st3 st6 st5 st14"> </tspan><tspan x="211" y="27.9" class="st3 st6 st5">‘미’를</tspan><tspan x="238.8" y="27.9" class="st3 st6 st5 st14"> </tspan><tspan x="244.5" y="27.9" class="st3 st6 st5">더해</tspan><tspan x="265.9" y="27.9" class="st3 st6 st5 st14"> </tspan><tspan x="271.6" y="27.9" class="st3 st6 st5">환경과</tspan><tspan x="303.7" y="27.9" class="st3 st6 st5 st14"> </tspan><tspan x="309.4" y="27.9" class="st3 st6 st5">전통의</tspan><tspan x="341.4" y="27.9" class="st3 st6 st5 st14"> </tspan><tspan x="347.1" y="27.9" class="st3 st6 st5">미가 </tspan><tspan x="0" y="41.8" class="st3 st6 st5">잊혀지지 않고 함께 이어나갈 수 있는 기회를 마련하고자 하였습니다.</tspan></text>
	</g>
	<g id="XMLID_219_">
		<text id="XMLID_373_" transform="matrix(1 0 0 1 2029.3364 359.4572)"><tspan x="0" y="0" class="st3 st15 st16">자연</tspan><tspan x="45.4" y="0" class="st3 st15 st17">, </tspan><tspan x="62.4" y="0" class="st3 st15 st16">스러웠어</tspan></text>
	</g>
</g>
<g id="XMLID_235_">
	<rect id="XMLID_960_" x="15" y="312.5" class="st0" width="425.2" height="255.1"/>
	<rect id="XMLID_959_" x="43.3" y="333.8" class="st0" width="368.5" height="212.6"/>
	<line id="XMLID_958_" class="st1" x1="43.3" y1="390.2" x2="411.8" y2="390.2"/>
	<g id="XMLID_953_">
		<rect id="XMLID_391_" x="43.3" y="414.5" class="st2" width="368.5" height="93.3"/>
		<text id="XMLID_390_" transform="matrix(1 0 0 1 43.3332 423.7643)"><tspan x="0" y="0" class="st3 st4 st5">CLOUDJAM은 생명의 희생 없이 만들어지는 리얼 가죽 제품입니다.</tspan><tspan x="0" y="21" class="st3 st6 st5">가죽은</tspan><tspan x="32.1" y="21" class="st3 st6 st5 st14"> </tspan><tspan x="38.2" y="21" class="st3 st6 st5">생명의</tspan><tspan x="70.3" y="21" class="st3 st6 st5 st14"> </tspan><tspan x="76.4" y="21" class="st3 st6 st5">희생으로</tspan><tspan x="119.2" y="21" class="st3 st6 st5 st14"> </tspan><tspan x="125.3" y="21" class="st3 st6 st5">얻어지는</tspan><tspan x="168.1" y="21" class="st3 st6 st5 st14"> </tspan><tspan x="174.2" y="21" class="st3 st6 st5">소재입니다.</tspan><tspan x="230.9" y="21" class="st3 st6 st5 st14"> </tspan><tspan x="237.1" y="21" class="st3 st6 st5">당신의</tspan><tspan x="269.1" y="21" class="st3 st6 st5 st14"> </tspan><tspan x="275.3" y="21" class="st3 st6 st5">손을</tspan><tspan x="296.6" y="21" class="st3 st6 st5 st14"> </tspan><tspan x="302.8" y="21" class="st3 st6 st5">거쳐</tspan><tspan x="324.2" y="21" class="st3 st6 st5 st14"> </tspan><tspan x="330.3" y="21" class="st3 st6 st5">간</tspan><tspan x="341" y="21" class="st3 st6 st5 st14"> </tspan><tspan x="347.1" y="21" class="st3 st6 st5">많은 </tspan><tspan x="0" y="35" class="st3 st6 st5">가죽제품들은</tspan><tspan x="64.2" y="35" class="st3 st6 st5 st11"> </tspan><tspan x="69" y="35" class="st3 st6 st5">어떤</tspan><tspan x="90.4" y="35" class="st3 st6 st5 st11"> </tspan><tspan x="95.2" y="35" class="st3 st6 st5">생명의</tspan><tspan x="127.3" y="35" class="st3 st6 st5 st11"> </tspan><tspan x="132.1" y="35" class="st3 st6 st5">피부였습니다.</tspan><tspan x="199.5" y="35" class="st3 st6 st5 st11"> </tspan><tspan x="204.3" y="35" class="st3 st6 st5">살아있는</tspan><tspan x="247.1" y="35" class="st3 st6 st5 st11"> </tspan><tspan x="251.9" y="35" class="st3 st6 st5">동물의</tspan><tspan x="284" y="35" class="st3 st6 st5 st11"> </tspan><tspan x="288.8" y="35" class="st3 st6 st5">피부였기</tspan><tspan x="331.6" y="35" class="st3 st6 st5 st11"> </tspan><tspan x="336.4" y="35" class="st3 st6 st5">때문에 </tspan><tspan x="0" y="48.9" class="st3 st6 st5">불특정한</tspan><tspan x="42.8" y="48.9" class="st3 st6 st5"> </tspan><tspan x="45.3" y="48.9" class="st3 st6 st5">형태이고,</tspan><tspan x="91.3" y="48.9" class="st3 st6 st5"> </tspan><tspan x="93.7" y="48.9" class="st3 st6 st5">자투리가</tspan><tspan x="136.5" y="48.9" class="st3 st6 st5"> </tspan><tspan x="139" y="48.9" class="st3 st6 st5">나올</tspan><tspan x="160.4" y="48.9" class="st3 st6 st5"> </tspan><tspan x="162.9" y="48.9" class="st3 st6 st5">수밖에</tspan><tspan x="194.9" y="48.9" class="st3 st6 st5"> </tspan><tspan x="197.4" y="48.9" class="st3 st6 st5">없습니다.</tspan><tspan x="243.4" y="48.9" class="st3 st6 st5"> </tspan><tspan x="245.9" y="48.9" class="st3 st6 st5">이렇게</tspan><tspan x="278" y="48.9" class="st3 st6 st5"> </tspan><tspan x="280.5" y="48.9" class="st3 st6 st5">생긴</tspan><tspan x="301.9" y="48.9" class="st3 st6 st5"> </tspan><tspan x="304.4" y="48.9" class="st3 st6 st5">자투리가죽은 </tspan><tspan x="0" y="62.9" class="st3 st6 st5">산업</tspan><tspan x="21.4" y="62.9" class="st3 st6 st5"> </tspan><tspan x="24.6" y="62.9" class="st3 st6 st5">폐기물로</tspan><tspan x="67.4" y="62.9" class="st3 st6 st5"> </tspan><tspan x="70.6" y="62.9" class="st3 st6 st5">버려지게</tspan><tspan x="113.4" y="62.9" class="st3 st6 st5"> </tspan><tspan x="116.6" y="62.9" class="st3 st6 st5">됩니다.</tspan><tspan x="151.9" y="62.9" class="st3 st6 st5"> </tspan><tspan x="155.2" y="62.9" class="st3 st6 st5">CLOUDJAM은</tspan><tspan x="227.3" y="62.9" class="st3 st6 st5"> </tspan><tspan x="230.5" y="62.9" class="st3 st6 st5">그</tspan><tspan x="241.2" y="62.9" class="st3 st6 st5"> </tspan><tspan x="244.4" y="62.9" class="st3 st6 st5">자투리를</tspan><tspan x="287.2" y="62.9" class="st3 st6 st5"> </tspan><tspan x="290.4" y="62.9" class="st3 st6 st5">공방과</tspan><tspan x="322.5" y="62.9" class="st3 st6 st5"> </tspan><tspan x="325.7" y="62.9" class="st3 st6 st5">공장에서 </tspan><tspan x="0" y="76.8" class="st3 st6 st5">수거해 새로운 가치를 만들어 냅니다. </tspan></text>
	</g>
	<g id="XMLID_948_">
		<text id="XMLID_358_" transform="matrix(1 0 0 1 68.5763 541.7701)" class="st3 st6 st8">cloudjam.kr</text>
	</g>
	<g id="XMLID_945_">
		<text id="XMLID_350_" transform="matrix(1 0 0 1 217.0801 540.219)" class="st3 st6 st8">@ cloudjam.kr</text>
	</g>
	<g id="XMLID_853_">
		<path id="XMLID_855_" class="st3" d="M57.3,527.4H44.4c-0.6,0-1.1,0.5-1.1,1.1v12.9c0,0.6,0.5,1.1,1.1,1.1h3.5l-1.8-12.1h1.8
			l0.9,7.7h0l1.4-7.7h1.3l1.4,7.9h0l0.8-7.9h1.8l-1.8,12.1h3.5c0.6,0,1.1-0.5,1.1-1.1v-12.9C58.4,527.9,57.9,527.4,57.3,527.4z"/>
		<polygon id="XMLID_854_" class="st3" points="50.8,534.5 49.5,542.4 52.2,542.4 50.9,534.5 		"/>
	</g>
	<g id="XMLID_729_">
		<g id="XMLID_362_">
			<circle id="XMLID_369_" class="st3" cx="198.5" cy="534.8" r="1.5"/>
			<g id="XMLID_363_">
				<path id="XMLID_365_" class="st3" d="M198.5,531.2c0.8,0,1.5,0.2,2.1,0.7h2.8h2.6v-1c0-2.1-1.7-3.8-3.8-3.8h-7.5
					c-2.1,0-3.8,1.7-3.8,3.8v1h5.5C197,531.4,197.7,531.2,198.5,531.2z M201.6,529.3c0-0.2,0.2-0.4,0.4-0.4h1.3
					c0.2,0,0.4,0.2,0.4,0.4v1.3c0,0.2-0.2,0.4-0.4,0.4H202c-0.2,0-0.4-0.2-0.4-0.4V529.3z"/>
				<path id="XMLID_364_" class="st3" d="M202.1,534.8c0,2-1.6,3.6-3.6,3.6c-2,0-3.6-1.6-3.6-3.6c0-0.5,0.1-1.1,0.3-1.5h-4.4v5.1
					c0,2.1,1.7,3.8,3.8,3.8h7.5c2.1,0,3.8-1.7,3.8-3.8v-5.1h-4.2C202,533.7,202.1,534.2,202.1,534.8z"/>
			</g>
		</g>
	</g>
	<g id="XMLID_357_">
		<g id="XMLID_628_">
			<path id="XMLID_708_" class="st3" d="M187.4,358.3h-9.4v-20.1h-2.5v22.4h11.9V358.3z"/>
			<path id="XMLID_704_" class="st3" d="M191.9,340.7c-1.3,2-1.9,4.9-1.9,8.6c0,3.8,0.6,6.7,1.9,8.6c1.3,2,3.1,3,5.6,3
				c2.5,0,4.3-1,5.6-3c1.3-2,1.9-4.9,1.9-8.6c0-3.8-0.6-6.7-1.9-8.7c-1.3-2-3.2-3-5.6-3C195,337.7,193.1,338.7,191.9,340.7z
				 M193.8,356.3c-0.8-1.6-1.2-3.9-1.2-6.9c0-3,0.4-5.3,1.2-6.9c0.8-1.6,2-2.4,3.6-2.4c3.2,0,4.8,3.1,4.8,9.3c0,6.2-1.6,9.3-4.8,9.3
				C195.9,358.7,194.7,357.9,193.8,356.3z"/>
			<path id="XMLID_696_" class="st3" d="M222.8,338.2h-2.5v15.1c0,3.3-1.1,5.4-3.7,5.4c-2.5,0-3.8-2.3-3.8-5.4v-15.2h-2.5v15.4
				c0,4.3,2.1,7.4,6.3,7.4c4.2,0,6.2-2.8,6.2-7.5V338.2z"/>
			<path id="XMLID_693_" class="st3" d="M228.1,360.5h4.4c2.7,0,5-1,6.7-2.9c1.7-2,2.6-4.7,2.6-8.3c0-3.5-0.9-6.2-2.6-8.2
				c-1.7-2-4-3-6.9-3h-4.3V360.5z M230.6,340.4h1.8c2.1,0,3.7,0.8,4.9,2.4c1.2,1.6,1.8,3.8,1.8,6.5c0,2.8-0.6,5-1.8,6.6
				c-1.2,1.6-2.9,2.4-4.9,2.4h-1.8V340.4z"/>
			<path id="XMLID_691_" class="st3" d="M255.6,338.2h-4.1l1.6,2.3v14c0,1.5-0.3,2.6-0.9,3.2c-0.6,0.7-1.5,1-2.8,1
				c-1.5,0-2.8-0.3-4.1-0.9l-0.8,2.1c1.5,0.8,3.1,1.1,4.8,1.1c2,0,3.6-0.6,4.6-1.7c1.1-1.1,1.6-2.7,1.6-4.7V338.2z"/>
			<path id="XMLID_688_" class="st3" d="M271.1,338.2H268l-7.1,22.4h2.6l2.5-7.8h7.2l2.4,7.8h2.7L271.1,338.2z M266.7,350.4l2.8-9.3
				l2.9,9.3H266.7z"/>
			<path id="XMLID_686_" class="st3" d="M296.8,338.2h-3.3l-3.6,10.2l-3.7-10.2h-3.3v22.4h2.5v-19.2l3.3,9.2l1.1,3.1l1.3-3.1
				l3.3-9.2v19.2h2.4V338.2z"/>
			<path id="XMLID_632_" class="st18" d="M171.6,338.2c0,0-2.9,0-4.8,0c-4.5,0-9.8,3.3-9.8,11.3c0,8.1,5.1,11.1,11.4,11.1h1.7l0-2.3
				c0,0-0.8,0-1.3,0c-5.5,0-9.2-3.1-9.2-9.3c0-4.3,3.3-8.5,8-8.5c3.1,0,2.5,0,2.5,0L171.6,338.2z"/>
		</g>
	</g>
</g>
<g id="XMLID_29_">
	<rect id="XMLID_1342_" x="482.6" y="312.5" class="st0" width="425.2" height="255.1"/>
	<rect id="XMLID_1183_" x="511" y="333.8" class="st0" width="368.5" height="212.6"/>
	<line id="XMLID_1182_" class="st1" x1="511" y1="390.2" x2="879.5" y2="390.2"/>
	<g id="XMLID_1177_">
		<rect id="XMLID_383_" x="511" y="414.5" class="st2" width="368.5" height="93.3"/>
		<text id="XMLID_382_" transform="matrix(1 0 0 1 510.9608 423.7643)"><tspan x="0" y="0" class="st3 st4 st5">버려지는 자원과 버리는 마음을 터치하는 터치포굿입니다.</tspan><tspan x="0" y="19.6" class="st3 st6 st5">현수막</tspan><tspan x="32.1" y="19.6" class="st3 st6 st5"> </tspan><tspan x="35" y="19.6" class="st3 st6 st5">광고판</tspan><tspan x="67.1" y="19.6" class="st3 st6 st5"> </tspan><tspan x="70" y="19.6" class="st3 st6 st5">등</tspan><tspan x="80.7" y="19.6" class="st3 st6 st5"> </tspan><tspan x="83.6" y="19.6" class="st3 st6 st5">짧게</tspan><tspan x="105" y="19.6" class="st3 st6 st5"> </tspan><tspan x="107.9" y="19.6" class="st3 st6 st5">쓰이고</tspan><tspan x="140" y="19.6" class="st3 st6 st5"> </tspan><tspan x="142.9" y="19.6" class="st3 st6 st5">버려지는</tspan><tspan x="185.7" y="19.6" class="st3 st6 st5"> </tspan><tspan x="188.6" y="19.6" class="st3 st6 st5">자원들을</tspan><tspan x="231.4" y="19.6" class="st3 st6 st5"> </tspan><tspan x="234.3" y="19.6" class="st3 st6 st5">재활용하여</tspan><tspan x="287.8" y="19.6" class="st3 st6 st5"> </tspan><tspan x="290.7" y="19.6" class="st3 st6 st5">세상에</tspan><tspan x="322.8" y="19.6" class="st3 st6 st5"> </tspan><tspan x="325.7" y="19.6" class="st3 st6 st5">하나뿐인 </tspan><tspan x="0" y="33.6" class="st3 st6 st5">상품과 환경교육프로그램으로 만들어내는 일을 하고 있습니다.</tspan><tspan x="0" y="47.5" class="st3 st6 st5">제작과정에서는 저소득이웃과 장애인 작업장과 함께합니다. </tspan><tspan x="0" y="61.5" class="st3 st6 st5">수익금의 5%는 환경성 피부질환 아동의 습관개선을 위해 쓰입니다.</tspan></text>
	</g>
	<g id="XMLID_1169_">
		<text id="XMLID_321_" transform="matrix(1 0 0 1 536.2038 541.7701)" class="st3 st6 st8">www.touch4good.com</text>
	</g>
	<g id="XMLID_1088_">
		<text id="XMLID_316_" transform="matrix(1 0 0 1 734.7076 541.219)" class="st3 st6 st8">touch4good.blog.me</text>
	</g>
	<g id="XMLID_986_">
		<path id="XMLID_1008_" class="st3" d="M524.9,527.4H512c-0.6,0-1.1,0.5-1.1,1.1v12.9c0,0.6,0.5,1.1,1.1,1.1h3.5l-1.8-12.1h1.8
			l0.9,7.7h0l1.4-7.7h1.3l1.4,7.9h0l0.8-7.9h1.8l-1.8,12.1h3.5c0.6,0,1.1-0.5,1.1-1.1v-12.9C526,527.9,525.5,527.4,524.9,527.4z"/>
		<polygon id="XMLID_991_" class="st3" points="518.4,534.5 517.1,542.4 519.8,542.4 518.5,534.5 		"/>
	</g>
	<g id="XMLID_36_">
		<g id="XMLID_972_">
			<g id="XMLID_983_">
				<polygon id="XMLID_142_" class="st3" points="657.9,351.8 653.6,351.8 653.6,367 657.9,367 657.9,351.8 657.9,351.8 				"/>
			</g>
			<polygon id="XMLID_982_" class="st3" points="657.8,367.4 653.6,367.4 653.6,367.4 657.8,371.7 657.8,371.7 664.5,371.7 
				664.5,367.4 			"/>
			<polygon id="XMLID_981_" class="st3" points="669.3,340 664.3,333.7 659.7,333.7 663,337.9 648.6,337.9 648.6,337.9 644.2,342.1 
				648.6,342.1 663,342.1 659.7,346.3 659.7,346.3 664.3,346.3 669.3,340 669.3,340 			"/>
			<polygon id="XMLID_978_" class="st3" points="653.6,347.2 653.6,347.2 648.6,347.2 644.2,347.2 648.6,351.4 648.6,351.4 
				653.6,351.4 657.9,351.4 			"/>
			<g id="XMLID_974_">
				<rect id="XMLID_136_" x="644.2" y="342.5" class="st3" width="4.4" height="4.3"/>
			</g>
		</g>
		<g id="XMLID_802_">
			<polygon id="XMLID_971_" class="st3" points="732.6,353.7 732.6,356.8 737.7,356.8 737.7,360.5 741.1,360.5 741.1,356.8 
				746.2,356.8 746.2,353.7 			"/>
			<path id="XMLID_966_" class="st3" d="M723.3,354.2h6.2v-3.1h-3.3v-5.3h3.3v-3.1h-15.6v3.1h3.1v5.3h-3.1v3.1h6.2v3.1h-6.4v3.2
				h15.7v-3.2h-6.2V354.2z M723.1,345.7v5.3h-3v-5.3H723.1z"/>
			<polygon id="XMLID_822_" class="st3" points="704,348.1 704,345 699.4,345 699.4,342.5 696.3,342.5 696.3,345 691.6,345 
				691.6,348.1 695.3,348.1 691.3,356.8 694.7,356.8 698,349.7 701.6,356.8 705.1,356.8 700.6,348.1 			"/>
			<polygon id="XMLID_812_" class="st3" points="685.9,348.4 681.7,348.4 681.7,351.5 685.9,351.5 685.9,360.5 689,360.5 689,351.5 
				689,348.4 689,342.5 685.9,342.5 			"/>
			<rect id="XMLID_811_" x="707.2" y="342.5" class="st3" width="3.1" height="18"/>
			<path id="XMLID_810_" class="st3" d="M740.4,363C740.4,363,740.3,363,740.4,363c-0.2-0.2-0.3-0.3-0.5-0.3c0,0,0,0,0,0
				c-0.3-0.1-0.5-0.1-0.8,0c-0.1,0-0.2,0.1-0.3,0.2l-0.2,0.2l-6.4,6.7l2.1,2l5.2-5.5l5.2,5.4l2.2-2L740.4,363
				C740.4,363.1,740.4,363,740.4,363z"/>
			<path id="XMLID_809_" class="st3" d="M743.2,351.5h3.1v-5.8V344c0-0.2-0.1-0.4-0.1-0.6c0,0,0-0.1-0.1-0.1
				c-0.1-0.2-0.3-0.4-0.6-0.5c-0.2-0.1-0.4-0.1-0.6-0.1h-12.3v3.1h10.6V351.5z"/>
			<path id="XMLID_805_" class="st3" d="M670.9,343.2v2.9v2.3v3.1v2.2v1.7c0,0.2,0.1,0.4,0.1,0.6c0.2,0.5,0.7,0.8,1.2,0.8h8.2v-3.1
				H674v-2.2h6.5v-3.1H674v-2.3h6.5V343h-9.6V343.2z"/>
		</g>
		<g id="XMLID_38_">
			<path id="XMLID_795_" class="st3" d="M674.4,370.6C674.4,370.5,674.5,370.5,674.4,370.6l0.1,0.4c-0.1,0.1-0.3,0.2-0.4,0.3
				c-0.2,0.1-0.3,0.1-0.5,0.1c-0.3,0-0.5,0-0.7-0.1c-0.2-0.1-0.4-0.2-0.5-0.3c-0.2-0.1-0.3-0.3-0.3-0.5c-0.1-0.2-0.1-0.5-0.1-0.7
				c0-0.3,0-0.5,0.1-0.7c0.1-0.2,0.2-0.4,0.3-0.5c0.1-0.2,0.3-0.3,0.5-0.4c0.2-0.1,0.4-0.1,0.7-0.1c0.2,0,0.3,0,0.5,0.1
				c0.2,0,0.3,0.1,0.4,0.2v0.4c0,0.1,0,0.1-0.1,0c-0.1-0.1-0.3-0.2-0.4-0.2c-0.1,0-0.3-0.1-0.5-0.1c-0.2,0-0.4,0-0.5,0.1
				c-0.1,0.1-0.3,0.2-0.4,0.3c-0.1,0.1-0.2,0.3-0.2,0.4c0,0.2-0.1,0.3-0.1,0.5c0,0.2,0,0.4,0.1,0.5c0,0.2,0.1,0.3,0.2,0.4
				c0.1,0.1,0.2,0.2,0.4,0.3c0.1,0.1,0.3,0.1,0.5,0.1c0.2,0,0.3,0,0.5-0.1C674.1,370.8,674.3,370.7,674.4,370.6z"/>
			<path id="XMLID_783_" class="st3" d="M676.1,371.3c-0.3,0-0.5,0-0.7-0.1c-0.2-0.1-0.4-0.2-0.5-0.4c-0.1-0.2-0.2-0.3-0.3-0.5
				c-0.1-0.2-0.1-0.4-0.1-0.7c0-0.2,0-0.5,0.1-0.7c0.1-0.2,0.2-0.4,0.3-0.5c0.1-0.1,0.3-0.3,0.5-0.4c0.2-0.1,0.4-0.1,0.7-0.1
				c0.3,0,0.5,0,0.7,0.1c0.2,0.1,0.4,0.2,0.5,0.4c0.1,0.1,0.2,0.3,0.3,0.5c0.1,0.2,0.1,0.4,0.1,0.7c0,0.2,0,0.4-0.1,0.7
				c-0.1,0.2-0.2,0.4-0.3,0.5c-0.1,0.2-0.3,0.3-0.5,0.4C676.6,371.2,676.4,371.3,676.1,371.3z M676.1,370.9c0.3,0,0.6-0.1,0.7-0.3
				c0.2-0.2,0.3-0.5,0.3-1c0-0.4-0.1-0.8-0.3-1c-0.2-0.2-0.4-0.3-0.7-0.3c-0.3,0-0.6,0.1-0.7,0.3c-0.2,0.2-0.3,0.5-0.3,1
				c0,0.4,0.1,0.7,0.3,1C675.5,370.8,675.8,370.9,676.1,370.9z"/>
			<path id="XMLID_781_" class="st3" d="M678.7,366.4v4.9h-0.5v-4.9H678.7z"/>
			<path id="XMLID_772_" class="st3" d="M680.8,371.3c-0.3,0-0.5,0-0.7-0.1c-0.2-0.1-0.4-0.2-0.5-0.4c-0.1-0.2-0.2-0.3-0.3-0.5
				c-0.1-0.2-0.1-0.4-0.1-0.7c0-0.2,0-0.5,0.1-0.7c0.1-0.2,0.2-0.4,0.3-0.5c0.1-0.1,0.3-0.3,0.5-0.4c0.2-0.1,0.4-0.1,0.7-0.1
				c0.3,0,0.5,0,0.7,0.1c0.2,0.1,0.4,0.2,0.5,0.4c0.1,0.1,0.2,0.3,0.3,0.5c0.1,0.2,0.1,0.4,0.1,0.7c0,0.2,0,0.4-0.1,0.7
				c-0.1,0.2-0.2,0.4-0.3,0.5c-0.1,0.2-0.3,0.3-0.5,0.4C681.3,371.2,681.1,371.3,680.8,371.3z M680.8,370.9c0.3,0,0.6-0.1,0.7-0.3
				c0.2-0.2,0.3-0.5,0.3-1c0-0.4-0.1-0.8-0.3-1c-0.2-0.2-0.4-0.3-0.7-0.3c-0.3,0-0.6,0.1-0.7,0.3c-0.2,0.2-0.3,0.5-0.3,1
				c0,0.4,0.1,0.7,0.3,1C680.2,370.8,680.5,370.9,680.8,370.9z"/>
			<path id="XMLID_649_" class="st3" d="M684.7,368.4c-0.1,0-0.1-0.1-0.2-0.1c-0.1,0-0.1,0-0.2,0c-0.1,0-0.2,0-0.3,0.1
				c-0.1,0.1-0.2,0.1-0.3,0.2c-0.1,0.1-0.1,0.2-0.2,0.3c0,0.1-0.1,0.3-0.1,0.4v1.8h-0.5l0-3.3h0.5l0,0.5c0.1-0.2,0.2-0.3,0.4-0.4
				c0.2-0.1,0.3-0.1,0.5-0.1c0.1,0,0.2,0,0.2,0c0.1,0,0.1,0,0.2,0.1L684.7,368.4C684.7,368.5,684.7,368.5,684.7,368.4z"/>
			<path id="XMLID_647_" class="st3" d="M686.8,366.8c-0.1,0-0.1,0-0.1,0c0,0-0.1,0-0.2,0c-0.2,0-0.3,0-0.4,0.1
				c-0.1,0.1-0.1,0.3-0.1,0.5v0.6h0.8v0.4h-0.8v2.9h-0.5v-2.9h-0.6V368h0.6v-0.6c0-0.2,0-0.3,0.1-0.5c0.1-0.1,0.1-0.2,0.2-0.3
				c0.1-0.1,0.2-0.1,0.3-0.2c0.1,0,0.3-0.1,0.4-0.1c0.1,0,0.2,0,0.2,0c0.1,0,0.1,0,0.2,0.1L686.8,366.8
				C686.8,366.8,686.8,366.8,686.8,366.8z"/>
			<path id="XMLID_642_" class="st3" d="M687.1,369.9V368h0.5v1.9c0,0.3,0.1,0.6,0.2,0.7c0.1,0.2,0.3,0.2,0.6,0.2
				c0.1,0,0.3,0,0.4-0.1c0.1-0.1,0.2-0.1,0.3-0.2c0.1-0.1,0.2-0.2,0.2-0.3c0.1-0.1,0.1-0.3,0.1-0.4V368h0.5v3.3h-0.5l0-0.5h0
				c-0.1,0.2-0.3,0.3-0.4,0.4c-0.2,0.1-0.4,0.1-0.6,0.1c-0.2,0-0.4,0-0.5-0.1c-0.2-0.1-0.3-0.2-0.4-0.3c-0.1-0.1-0.2-0.3-0.2-0.4
				C687.1,370.3,687.1,370.1,687.1,369.9z"/>
			<path id="XMLID_640_" class="st3" d="M691.2,366.4v4.9h-0.5v-4.9H691.2z"/>
			<path id="XMLID_607_" class="st3" d="M694.3,372.3c0.4,0,0.7-0.1,0.9-0.3c0.2-0.2,0.3-0.5,0.3-1v-0.3c-0.1,0.2-0.3,0.3-0.4,0.4
				c-0.2,0.1-0.4,0.1-0.6,0.1c-0.2,0-0.4,0-0.6-0.1c-0.2-0.1-0.3-0.2-0.4-0.3c-0.1-0.1-0.2-0.3-0.3-0.5c-0.1-0.2-0.1-0.4-0.1-0.6
				c0-0.5,0.1-1,0.4-1.3c0.2-0.3,0.6-0.5,1-0.5c0.2,0,0.4,0,0.6,0.1c0.2,0.1,0.3,0.2,0.4,0.4h0l0-0.4h0.5v3c0,0.3,0,0.6-0.1,0.8
				c-0.1,0.2-0.2,0.4-0.3,0.6c-0.1,0.1-0.3,0.3-0.5,0.3c-0.2,0.1-0.5,0.1-0.7,0.1c-0.2,0-0.4,0-0.6-0.1c-0.2,0-0.3-0.1-0.5-0.2V372
				c0-0.1,0-0.1,0.1,0c0.2,0.1,0.4,0.2,0.5,0.2C694,372.3,694.1,372.3,694.3,372.3z M695.4,369.7v-0.4c0-0.1,0-0.3-0.1-0.4
				c-0.1-0.1-0.1-0.2-0.2-0.3c-0.1-0.1-0.2-0.2-0.3-0.2c-0.1-0.1-0.2-0.1-0.4-0.1c-0.3,0-0.5,0.1-0.7,0.3c-0.2,0.2-0.2,0.5-0.2,1
				c0,0.4,0.1,0.7,0.2,0.9c0.2,0.2,0.4,0.3,0.7,0.3c0.3,0,0.6-0.1,0.7-0.3C695.3,370.3,695.4,370,695.4,369.7z"/>
			<path id="XMLID_541_" class="st3" d="M698.5,368.4c-0.1,0-0.1-0.1-0.2-0.1c-0.1,0-0.1,0-0.2,0c-0.1,0-0.2,0-0.3,0.1
				c-0.1,0.1-0.2,0.1-0.3,0.2c-0.1,0.1-0.1,0.2-0.2,0.3c0,0.1-0.1,0.3-0.1,0.4v1.8h-0.5l0-3.3h0.5l0,0.5c0.1-0.2,0.2-0.3,0.4-0.4
				c0.2-0.1,0.3-0.1,0.5-0.1c0.1,0,0.2,0,0.2,0c0.1,0,0.1,0,0.2,0.1L698.5,368.4C698.6,368.5,698.6,368.5,698.5,368.4z"/>
			<path id="XMLID_538_" class="st3" d="M700.2,367.9c0.4,0,0.8,0.1,1,0.4c0.2,0.3,0.4,0.6,0.4,1.1v0.2h-2.4v0.1
				c0,0.4,0.1,0.7,0.3,0.9c0.2,0.2,0.5,0.3,0.8,0.3c0.2,0,0.4,0,0.5-0.1c0.2-0.1,0.4-0.1,0.5-0.3c0,0,0.1,0,0.1,0v0.4
				c-0.2,0.1-0.4,0.2-0.6,0.3c-0.2,0-0.4,0.1-0.7,0.1c-0.2,0-0.5,0-0.7-0.1s-0.4-0.2-0.5-0.3c-0.1-0.1-0.3-0.3-0.3-0.5
				c-0.1-0.2-0.1-0.5-0.1-0.7c0-0.3,0-0.5,0.1-0.7c0.1-0.2,0.2-0.4,0.3-0.5c0.1-0.2,0.3-0.3,0.5-0.4
				C699.7,367.9,699.9,367.9,700.2,367.9z M699.2,369.3h1.9v0c0-0.3-0.1-0.6-0.2-0.7c-0.2-0.2-0.4-0.2-0.6-0.2c-0.1,0-0.2,0-0.4,0.1
				c-0.1,0-0.2,0.1-0.3,0.2c-0.1,0.1-0.2,0.2-0.2,0.3C699.2,369,699.2,369.1,699.2,369.3L699.2,369.3z"/>
			<path id="XMLID_427_" class="st3" d="M703.5,367.9c0.4,0,0.8,0.1,1,0.4c0.2,0.3,0.4,0.6,0.4,1.1v0.2h-2.4v0.1
				c0,0.4,0.1,0.7,0.3,0.9c0.2,0.2,0.5,0.3,0.8,0.3c0.2,0,0.4,0,0.5-0.1c0.2-0.1,0.4-0.1,0.5-0.3c0,0,0.1,0,0.1,0v0.4
				c-0.2,0.1-0.4,0.2-0.6,0.3c-0.2,0-0.4,0.1-0.7,0.1c-0.2,0-0.5,0-0.7-0.1c-0.2-0.1-0.4-0.2-0.5-0.3c-0.1-0.1-0.3-0.3-0.3-0.5
				c-0.1-0.2-0.1-0.5-0.1-0.7c0-0.3,0-0.5,0.1-0.7c0.1-0.2,0.2-0.4,0.3-0.5c0.1-0.2,0.3-0.3,0.5-0.4
				C703,367.9,703.3,367.9,703.5,367.9z M702.5,369.3h1.9v0c0-0.3-0.1-0.6-0.2-0.7c-0.2-0.2-0.4-0.2-0.6-0.2c-0.1,0-0.2,0-0.4,0.1
				c-0.1,0-0.2,0.1-0.3,0.2c-0.1,0.1-0.2,0.2-0.2,0.3C702.5,369,702.5,369.1,702.5,369.3L702.5,369.3z"/>
			<path id="XMLID_425_" class="st3" d="M708.2,369.3v1.9h-0.5v-1.9c0-0.3,0-0.6-0.1-0.7c-0.1-0.2-0.3-0.2-0.5-0.2
				c-0.1,0-0.3,0-0.4,0.1c-0.1,0.1-0.2,0.1-0.3,0.2c-0.1,0.1-0.2,0.2-0.2,0.4c-0.1,0.1-0.1,0.3-0.1,0.5v1.8h-0.5V368h0.5l0,0.5h0
				c0-0.1,0.1-0.2,0.2-0.2c0.1-0.1,0.2-0.1,0.3-0.2c0.1,0,0.2-0.1,0.3-0.1c0.1,0,0.2,0,0.3,0c0.4,0,0.7,0.1,0.9,0.4
				C708.1,368.5,708.2,368.8,708.2,369.3z"/>
			<path id="XMLID_403_" class="st3" d="M710.7,368l0,0.5c0.1-0.2,0.3-0.3,0.4-0.4c0.2-0.1,0.4-0.1,0.6-0.1c0.5,0,0.8,0.1,1,0.4
				c0.2,0.3,0.3,0.7,0.3,1.2c0,0.3,0,0.5-0.1,0.7c-0.1,0.2-0.1,0.4-0.3,0.6c-0.1,0.2-0.3,0.3-0.5,0.4c-0.2,0.1-0.4,0.1-0.7,0.1
				c-0.2,0-0.4,0-0.6-0.1c-0.2-0.1-0.3-0.2-0.4-0.3h0v1.8h-0.5V368H710.7z M710.7,369.4v0.5c0,0.1,0,0.3,0.1,0.4
				c0,0.1,0.1,0.2,0.2,0.3c0.1,0.1,0.2,0.1,0.3,0.2c0.1,0,0.2,0.1,0.4,0.1c0.3,0,0.5-0.1,0.7-0.3c0.2-0.2,0.3-0.6,0.3-1
				c0-0.4-0.1-0.7-0.3-0.9c-0.2-0.2-0.4-0.3-0.7-0.3c-0.2,0-0.3,0-0.4,0.1c-0.1,0.1-0.2,0.2-0.3,0.3c-0.1,0.1-0.1,0.2-0.2,0.4
				C710.7,369.2,710.7,369.3,710.7,369.4z"/>
			<path id="XMLID_291_" class="st3" d="M713.8,368.7C713.8,368.7,713.8,368.7,713.8,368.7C713.8,368.7,713.7,368.6,713.8,368.7
				l-0.1-0.5c0.2-0.1,0.4-0.2,0.6-0.3c0.2-0.1,0.4-0.1,0.7-0.1c0.4,0,0.7,0.1,0.9,0.3c0.2,0.2,0.3,0.5,0.3,0.9v2.2h-0.5l0-0.5h0
				c-0.1,0.1-0.1,0.2-0.2,0.2c-0.1,0.1-0.2,0.1-0.3,0.2c-0.1,0-0.2,0.1-0.3,0.1c-0.1,0-0.2,0-0.3,0c-0.2,0-0.3,0-0.4-0.1
				c-0.1,0-0.3-0.1-0.3-0.2c-0.1-0.1-0.2-0.2-0.2-0.3c-0.1-0.1-0.1-0.3-0.1-0.4c0-0.3,0.1-0.6,0.3-0.8c0.2-0.2,0.5-0.3,0.9-0.4
				l1-0.1V369c0-0.1,0-0.3,0-0.4c0-0.1-0.1-0.2-0.1-0.2c-0.1-0.1-0.1-0.1-0.2-0.1c-0.1,0-0.2,0-0.3,0c-0.2,0-0.4,0-0.6,0.1
				C714.2,368.4,714,368.5,713.8,368.7z M715.6,369.9v-0.4l-0.9,0.1c-0.2,0-0.4,0.1-0.6,0.2c-0.1,0.1-0.2,0.3-0.2,0.5
				c0,0.2,0.1,0.3,0.2,0.4c0.1,0.1,0.3,0.1,0.5,0.1c0.1,0,0.3,0,0.4-0.1c0.1-0.1,0.2-0.1,0.3-0.2c0.1-0.1,0.2-0.2,0.2-0.3
				C715.6,370.1,715.6,370,715.6,369.9z"/>
			<path id="XMLID_247_" class="st3" d="M718.8,368.4c-0.1,0-0.1-0.1-0.2-0.1c-0.1,0-0.1,0-0.2,0c-0.1,0-0.2,0-0.3,0.1
				c-0.1,0.1-0.2,0.1-0.3,0.2c-0.1,0.1-0.1,0.2-0.2,0.3c0,0.1-0.1,0.3-0.1,0.4v1.8H717l0-3.3h0.5l0,0.5c0.1-0.2,0.2-0.3,0.4-0.4
				c0.2-0.1,0.3-0.1,0.5-0.1c0.1,0,0.2,0,0.2,0c0.1,0,0.1,0,0.2,0.1L718.8,368.4C718.8,368.5,718.8,368.5,718.8,368.4z"/>
			<path id="XMLID_198_" class="st3" d="M720.9,370.7C721,370.7,721,370.7,720.9,370.7l0.1,0.4c-0.1,0.1-0.2,0.1-0.3,0.1
				c-0.1,0-0.2,0-0.3,0c-0.3,0-0.5-0.1-0.7-0.2c-0.1-0.1-0.2-0.3-0.2-0.6v-2.1h-0.6V368h0.6v-0.8h0.5v0.8h0.9v0.4H720v2
				c0,0.1,0,0.2,0,0.2c0,0.1,0,0.1,0.1,0.1c0,0,0.1,0.1,0.1,0.1c0.1,0,0.1,0,0.2,0c0.1,0,0.1,0,0.2,0
				C720.8,370.8,720.9,370.8,720.9,370.7z"/>
			<path id="XMLID_149_" class="st3" d="M724.2,369.3v1.9h-0.5v-1.9c0-0.3,0-0.6-0.1-0.7c-0.1-0.2-0.3-0.2-0.5-0.2
				c-0.1,0-0.3,0-0.4,0.1c-0.1,0.1-0.2,0.1-0.3,0.2c-0.1,0.1-0.2,0.2-0.2,0.4c-0.1,0.1-0.1,0.3-0.1,0.5v1.8h-0.5V368h0.5l0,0.5h0
				c0-0.1,0.1-0.2,0.2-0.2c0.1-0.1,0.2-0.1,0.3-0.2c0.1,0,0.2-0.1,0.3-0.1c0.1,0,0.2,0,0.3,0c0.4,0,0.7,0.1,0.9,0.4
				C724.1,368.5,724.2,368.8,724.2,369.3z"/>
			<path id="XMLID_43_" class="st3" d="M726.3,367.9c0.4,0,0.8,0.1,1,0.4c0.2,0.3,0.4,0.6,0.4,1.1v0.2h-2.4v0.1
				c0,0.4,0.1,0.7,0.3,0.9c0.2,0.2,0.5,0.3,0.8,0.3c0.2,0,0.4,0,0.5-0.1c0.2-0.1,0.4-0.1,0.5-0.3c0,0,0.1,0,0.1,0v0.4
				c-0.2,0.1-0.4,0.2-0.6,0.3c-0.2,0-0.4,0.1-0.7,0.1c-0.2,0-0.5,0-0.7-0.1c-0.2-0.1-0.4-0.2-0.5-0.3c-0.1-0.1-0.3-0.3-0.3-0.5
				c-0.1-0.2-0.1-0.5-0.1-0.7c0-0.3,0-0.5,0.1-0.7c0.1-0.2,0.2-0.4,0.3-0.5c0.1-0.2,0.3-0.3,0.5-0.4
				C725.8,367.9,726.1,367.9,726.3,367.9z M725.3,369.3h1.9v0c0-0.3-0.1-0.6-0.2-0.7c-0.2-0.2-0.4-0.2-0.6-0.2c-0.1,0-0.2,0-0.4,0.1
				c-0.1,0-0.2,0.1-0.3,0.2c-0.1,0.1-0.2,0.2-0.2,0.3C725.3,369,725.3,369.1,725.3,369.3L725.3,369.3z"/>
			<path id="XMLID_39_" class="st3" d="M730,368.4c-0.1,0-0.1-0.1-0.2-0.1c-0.1,0-0.1,0-0.2,0c-0.1,0-0.2,0-0.3,0.1
				c-0.1,0.1-0.2,0.1-0.3,0.2c-0.1,0.1-0.1,0.2-0.2,0.3c0,0.1-0.1,0.3-0.1,0.4v1.8h-0.5l0-3.3h0.5l0,0.5c0.1-0.2,0.2-0.3,0.4-0.4
				c0.2-0.1,0.3-0.1,0.5-0.1c0.1,0,0.2,0,0.2,0c0.1,0,0.1,0,0.2,0.1L730,368.4C730.1,368.5,730.1,368.5,730,368.4z"/>
		</g>
	</g>
	<g id="XMLID_30_">
		<path id="XMLID_35_" class="st3" d="M712.4,531.7h-0.7v3.3h0.8c0.6,0,1-0.1,1.2-0.4c0.2-0.3,0.3-0.7,0.3-1.3c0-0.5-0.1-1-0.3-1.2
			C713.3,531.8,712.9,531.7,712.4,531.7z"/>
		<path id="XMLID_34_" class="st3" d="M719.2,527.1h-12.9c-0.6,0-1.1,0.5-1.1,1.1v12.9c0,0.6,0.5,1.1,1.1,1.1h0.8v0h2.8V530h2.5
			c0.6,0,1,0.1,1.4,0.3c0.4,0.2,0.7,0.4,1,0.7c0.2,0.3,0.4,0.6,0.5,1c0.1,0.4,0.2,0.8,0.2,1.1v0.4c0,0.3,0,0.6-0.1,0.8
			c-0.1,0.2-0.1,0.4-0.2,0.6c-0.2,0.3-0.5,0.6-0.9,0.8c0.4,0.2,0.7,0.5,0.9,0.9c0.2,0.4,0.3,0.9,0.3,1.5v0.7c0,1.1-0.3,1.9-0.8,2.4
			c-0.5,0.6-1.3,0.9-2.5,0.9h5.6v0h1.3c0.6,0,1.1-0.5,1.1-1.1v-12.9C720.2,527.6,719.8,527.1,719.2,527.1z"/>
		<path id="XMLID_33_" class="st3" d="M713.6,537c-0.1-0.2-0.3-0.3-0.5-0.3c-0.2-0.1-0.4-0.1-0.8-0.1h-0.8v3.9h0.7
			c0.4,0,0.6-0.1,0.8-0.2c0.2-0.1,0.3-0.2,0.5-0.4c0.1-0.2,0.2-0.4,0.2-0.6c0-0.2,0-0.5,0-0.8c0-0.3,0-0.6-0.1-0.8
			C713.8,537.3,713.7,537.1,713.6,537z"/>
	</g>
</g>
<g id="XMLID_4_">
	<rect id="XMLID_352_" x="1421" y="312.5" class="st0" width="425.2" height="255.1"/>
	<rect id="XMLID_351_" x="1449.4" y="333.8" class="st0" width="368.5" height="212.6"/>
	<line id="XMLID_348_" class="st1" x1="1449.4" y1="390.2" x2="1817.9" y2="390.2"/>
	<g id="XMLID_330_">
		<rect id="XMLID_366_" x="1449.4" y="413.5" class="st2" width="368.5" height="93.3"/>
		<text id="XMLID_359_" transform="matrix(1 0 0 1 1449.376 422.7409)"><tspan x="0" y="0" class="st3 st6 st5">HAE</tspan><tspan x="22.3" y="0" class="st3 st6 st5 st10"> </tspan><tspan x="26.2" y="0" class="st3 st6 st5">[혜]</tspan><tspan x="44.7" y="0" class="st3 st6 st5 st10"> </tspan><tspan x="48.5" y="0" class="st3 st6 st5">는</tspan><tspan x="59.2" y="0" class="st3 st6 st5 st10"> </tspan><tspan x="63" y="0" class="st3 st6 st5">Handmade,</tspan><tspan x="126.6" y="0" class="st3 st6 st5 st10"> </tspan><tspan x="130.4" y="0" class="st3 st6 st5">Art,</tspan><tspan x="149.6" y="0" class="st3 st6 st5 st10"> </tspan><tspan x="153.4" y="0" class="st3 st6 st5">Emotion</tspan><tspan x="199.7" y="0" class="st3 st6 st5 st10"> </tspan><tspan x="203.5" y="0" class="st3 st6 st5">의</tspan><tspan x="214.2" y="0" class="st3 st6 st5 st10"> </tspan><tspan x="218.1" y="0" class="st3 st6 st5">함축어로</tspan><tspan x="260.8" y="0" class="st3 st6 st5 st10"> </tspan><tspan x="264.6" y="0" class="st3 st6 st5">자투리</tspan><tspan x="296.7" y="0" class="st3 st6 st5 st10"> </tspan><tspan x="300.5" y="0" class="st3 st6 st5">가죽과</tspan><tspan x="332.6" y="0" class="st3 st6 st5 st10"> </tspan><tspan x="336.4" y="0" class="st3 st6 st5">섬유를 </tspan><tspan x="0" y="13.9" class="st3 st6 st5">이용하여</tspan><tspan x="42.8" y="13.9" class="st3 st6 st5 st10"> </tspan><tspan x="46.5" y="13.9" class="st3 st6 st5">장인정신을</tspan><tspan x="100" y="13.9" class="st3 st6 st5 st10"> </tspan><tspan x="103.7" y="13.9" class="st3 st6 st5">담아</tspan><tspan x="125.1" y="13.9" class="st3 st6 st5 st10"> </tspan><tspan x="128.9" y="13.9" class="st3 st6 st5">제품을</tspan><tspan x="161" y="13.9" class="st3 st6 st5 st10"> </tspan><tspan x="164.7" y="13.9" class="st3 st6 st5">제작하고</tspan><tspan x="207.5" y="13.9" class="st3 st6 st5 st10"> </tspan><tspan x="211.2" y="13.9" class="st3 st6 st5">있습니다.</tspan><tspan x="257.2" y="13.9" class="st3 st6 st5 st10"> </tspan><tspan x="261" y="13.9" class="st3 st6 st5">자연에서</tspan><tspan x="303.8" y="13.9" class="st3 st6 st5 st10"> </tspan><tspan x="307.5" y="13.9" class="st3 st6 st5">얻을</tspan><tspan x="328.9" y="13.9" class="st3 st6 st5 st10"> </tspan><tspan x="332.7" y="13.9" class="st3 st6 st5">수</tspan><tspan x="343.4" y="13.9" class="st3 st6 st5 st10"> </tspan><tspan x="347.1" y="13.9" class="st3 st6 st5">있는 </tspan><tspan x="0" y="27.9" class="st3 st6 st5">유기적인</tspan><tspan x="42.8" y="27.9" class="st3 st6 st5 st11"> </tspan><tspan x="48" y="27.9" class="st3 st6 st5">선의</tspan><tspan x="69.4" y="27.9" class="st3 st6 st5 st11"> </tspan><tspan x="74.7" y="27.9" class="st3 st6 st5">겹과</tspan><tspan x="96" y="27.9" class="st3 st6 st5 st11"> </tspan><tspan x="101.3" y="27.9" class="st3 st6 st5">결,</tspan><tspan x="115.2" y="27.9" class="st3 st6 st5 st11"> </tspan><tspan x="120.5" y="27.9" class="st3 st6 st5">한국적인</tspan><tspan x="163.3" y="27.9" class="st3 st6 st5 st11"> </tspan><tspan x="168.5" y="27.9" class="st3 st6 st5">모티브로</tspan><tspan x="211.3" y="27.9" class="st3 st6 st5 st11"> </tspan><tspan x="216.5" y="27.9" class="st3 st6 st5">패션액세서리</tspan><tspan x="280.7" y="27.9" class="st3 st6 st5 st11"> </tspan><tspan x="285.9" y="27.9" class="st3 st6 st5">소품</tspan><tspan x="307.3" y="27.9" class="st3 st6 st5 st11"> </tspan><tspan x="312.6" y="27.9" class="st3 st6 st5">&amp;</tspan><tspan x="320.5" y="27.9" class="st3 st6 st5 st11"> </tspan><tspan x="325.7" y="27.9" class="st3 st6 st5">인테리어 </tspan><tspan x="0" y="41.8" class="st3 st6 st5">소품을</tspan><tspan x="32.1" y="41.8" class="st3 st6 st5 st14"> </tspan><tspan x="38" y="41.8" class="st3 st6 st5">만들고</tspan><tspan x="70.1" y="41.8" class="st3 st6 st5 st14"> </tspan><tspan x="76.1" y="41.8" class="st3 st6 st5">있으며</tspan><tspan x="108.2" y="41.8" class="st3 st6 st5 st14"> </tspan><tspan x="114.1" y="41.8" class="st3 st6 st5">버려지는</tspan><tspan x="156.9" y="41.8" class="st3 st6 st5 st14"> </tspan><tspan x="162.9" y="41.8" class="st3 st6 st5">소재로</tspan><tspan x="194.9" y="41.8" class="st3 st6 st5 st14"> </tspan><tspan x="200.9" y="41.8" class="st3 st6 st5">고급스러운</tspan><tspan x="254.4" y="41.8" class="st3 st6 st5 st14"> </tspan><tspan x="260.3" y="41.8" class="st3 st6 st5">제품으로</tspan><tspan x="303.1" y="41.8" class="st3 st6 st5 st14"> </tspan><tspan x="309.1" y="41.8" class="st3 st6 st5">재탄생될</tspan><tspan x="351.9" y="41.8" class="st3 st6 st5 st14"> </tspan><tspan x="357.8" y="41.8" class="st3 st6 st5">수 </tspan><tspan x="0" y="55.8" class="st3 st6 st5">있음을 보여주고자 합니다.</tspan></text>
	</g>
	<g id="XMLID_327_">
		<text id="XMLID_300_" transform="matrix(1 0 0 1 1478.619 539.7701)" class="st3 st6 st13">jihaehan.com</text>
	</g>
	<g id="XMLID_324_">
		<text id="XMLID_297_" transform="matrix(1 0 0 1 1635.1229 540.219)" class="st3 st6 st13">@ thejihaehan</text>
	</g>
	<g id="XMLID_317_">
		<polygon id="XMLID_323_" class="st3" points="1456.9,534.5 1455.6,542.4 1458.2,542.4 1456.9,534.5 		"/>
	</g>
	<g id="XMLID_309_">
		<path id="XMLID_314_" class="st3" d="M1463.3,527.1h-12.9c-0.6,0-1.1,0.5-1.1,1.1v12.9c0,0.6,0.5,1.1,1.1,1.1h3.5l-1.8-12.1h1.8
			l0.9,7.7h0l1.4-7.7h1.3l1.4,7.9h0l0.8-7.9h1.8l-1.8,12.1h3.5c0.6,0,1.1-0.5,1.1-1.1v-12.9C1464.4,527.6,1463.9,527.1,1463.3,527.1
			z"/>
		<polygon id="XMLID_310_" class="st3" points="1456.9,534.3 1455.6,542.1 1458.2,542.1 1456.9,534.3 		"/>
	</g>
	<g id="XMLID_201_">
		<g id="XMLID_231_">
			<circle id="XMLID_320_" class="st3" cx="1611.3" cy="534.7" r="1.5"/>
			<g id="XMLID_232_">
				<path id="XMLID_306_" class="st3" d="M1611.3,531.1c0.8,0,1.5,0.2,2.1,0.7h2.8h2.6v-1c0-2.1-1.7-3.8-3.8-3.8h-7.5
					c-2.1,0-3.8,1.7-3.8,3.8v1h5.5C1609.9,531.4,1610.6,531.1,1611.3,531.1z M1614.4,529.3c0-0.2,0.2-0.4,0.4-0.4h1.3
					c0.2,0,0.4,0.2,0.4,0.4v1.3c0,0.2-0.2,0.4-0.4,0.4h-1.3c-0.2,0-0.4-0.2-0.4-0.4V529.3z"/>
				<path id="XMLID_233_" class="st3" d="M1614.9,534.7c0,2-1.6,3.6-3.6,3.6s-3.6-1.6-3.6-3.6c0-0.5,0.1-1.1,0.3-1.5h-4.4v5.1
					c0,2.1,1.7,3.8,3.8,3.8h7.5c2.1,0,3.8-1.7,3.8-3.8v-5.1h-4.2C1614.8,533.7,1614.9,534.2,1614.9,534.7z"/>
			</g>
		</g>
	</g>
	<g id="XMLID_12_">
		<g id="XMLID_121_">
			<path id="XMLID_196_" class="st3" d="M1587,357.4c0,0.8,0.1,1.4,0.4,1.6l0.3,0.2c0.4,0.3,0.6,0.6,0.6,0.9c0,0.7-0.4,1-1.2,1h-4.6
				c-0.8,0-1.2-0.3-1.2-1c0-0.2,0-0.4,0.1-0.5c0.1-0.1,0.2-0.2,0.4-0.4l0.3-0.2c0.3-0.2,0.5-0.8,0.5-1.6V343c0-0.9-0.2-1.4-0.5-1.7
				l-0.3-0.1c-0.4-0.3-0.6-0.6-0.6-1c0-0.7,0.4-1,1.2-1h4.6c0.8,0,1.2,0.3,1.2,1c0,0.4-0.2,0.7-0.6,1l-0.3,0.1
				c-0.3,0.2-0.4,0.8-0.4,1.7v5.1h7.4V343c0-0.9-0.1-1.4-0.4-1.7l-0.3-0.1c-0.4-0.3-0.6-0.6-0.6-1c0-0.4,0.1-0.6,0.4-0.8
				c0.2-0.2,0.5-0.3,0.8-0.3h4.7c0.8,0,1.2,0.3,1.2,1c0,0.4-0.2,0.7-0.6,1l-0.2,0.1c-0.3,0.2-0.4,0.7-0.4,1.7v14.4
				c0,0.9,0.1,1.4,0.4,1.6l0.2,0.2c0.4,0.3,0.6,0.6,0.6,0.9c0,0.7-0.4,1-1.2,1h-4.7c-0.8,0-1.2-0.3-1.2-1c0-0.2,0-0.4,0.1-0.5
				c0.1-0.1,0.2-0.2,0.5-0.4l0.3-0.2c0.3-0.2,0.4-0.8,0.4-1.6v-7h-7.4V357.4z"/>
			<path id="XMLID_180_" class="st3" d="M1611.3,361.2c-0.6,0-1-0.1-1.3-0.2c-0.3-0.1-0.4-0.4-0.4-0.8c0-0.3,0.2-0.6,0.5-0.9
				c0.4-0.3,0.6-0.6,0.8-1l0.9-3.3c0.6-2.3,1.8-5.8,3.5-10.4c0.5-1.5,1.1-3,1.8-4.5c0.2-0.5,0.4-0.8,0.7-0.9
				c0.2-0.1,0.6-0.2,1.1-0.2c0.7,0,1.2,0.1,1.4,0.3c0.3,0.2,0.5,0.7,0.8,1.5l5,14.4l0.8,3.1c0.1,0.3,0.2,0.4,0.2,0.5
				c0.1,0.1,0.2,0.2,0.5,0.5c0.3,0.2,0.5,0.5,0.5,0.8c0,0.7-0.4,1-1.3,1h-4.2c-1,0-1.5-0.3-1.5-1c0-0.3,0.2-0.6,0.5-0.9
				c0.4-0.2,0.5-0.5,0.5-0.7c0-0.5-0.3-1.9-1-4.1l-0.1-0.5h-6.9c0,0.1-0.1,0.5-0.3,1.2c-0.2,0.7-0.3,1.2-0.4,1.7
				c-0.1,0.5-0.2,0.8-0.2,1.1c0,0.3,0.1,0.5,0.2,0.7c0.1,0.2,0.3,0.3,0.5,0.5c0.2,0.1,0.4,0.3,0.5,0.4c0.1,0.1,0.2,0.3,0.2,0.6
				c0,0.4-0.2,0.7-0.5,0.8c-0.3,0.1-0.8,0.2-1.4,0.2H1611.3z M1620.4,351.6l-0.1-0.4l-2.6-7.5l-2.8,8H1620.4z"/>
			<path id="XMLID_150_" class="st3" d="M1643.3,355.6c0,1.1,0.1,1.9,0.2,2.3c0.1,0.4,0.5,0.7,0.9,0.8c0.5,0.1,1.3,0.2,2.5,0.2
				c0.9,0,1.5-0.1,2-0.3c0.5-0.2,1-0.6,1.5-1.2c0.3-0.5,0.6-0.8,0.8-1.1c0.2-0.3,0.5-0.4,0.8-0.4c0.2,0,0.4,0.1,0.6,0.3
				c0.2,0.2,0.3,0.4,0.3,0.7c0,0.5-0.2,1.5-0.5,2.8c-0.2,0.6-0.3,1-0.5,1.2c-0.2,0.2-0.6,0.2-1.1,0.2h-12.1c-0.8,0-1.2-0.3-1.2-1
				c0-0.2,0-0.4,0.1-0.5c0.1-0.1,0.2-0.2,0.5-0.4l0.3-0.2c0.3-0.2,0.4-0.8,0.4-1.6V343c0-0.9-0.1-1.4-0.4-1.7l-0.3-0.1
				c-0.4-0.3-0.6-0.6-0.6-1c0-0.4,0.1-0.6,0.4-0.8c0.2-0.2,0.5-0.3,0.8-0.3h11.5c0.7,0,1.2,0.1,1.4,0.4c0.3,0.4,0.4,1.4,0.4,2.8
				c0,0.9-0.3,1.3-0.9,1.3c-0.3,0-0.7-0.3-1.1-0.9c-0.5-0.7-1-1.1-1.5-1.2c-0.5-0.2-1.3-0.3-2.5-0.3c-1.1,0-1.8,0.1-2.1,0.3
				c-0.4,0.2-0.6,0.5-0.6,0.9v5.6h3.7c0.5,0,0.8-0.1,1-0.2c0.2-0.1,0.4-0.3,0.6-0.5c0.2-0.2,0.4-0.4,0.6-0.4c0.6,0,0.9,0.7,0.9,2.1
				c0,0.8-0.1,1.5-0.2,1.9c-0.1,0.4-0.4,0.6-0.7,0.6c-0.2,0-0.5-0.1-0.7-0.3c-0.2-0.2-0.4-0.4-0.6-0.5c-0.2-0.1-0.5-0.2-1-0.2h-3.7
				V355.6z"/>
		</g>
		<g id="XMLID_44_">
			<path id="XMLID_87_" class="st3" d="M1663.4,361.2v-22.1h4.2v1.4h-3v19.4h3.1v1.3H1663.4z"/>
			<path id="XMLID_45_" class="st3" d="M1683.2,361.2v-1.3h3.1v-19.4h-3.1v-1.4h4.3v22.1H1683.2z"/>
		</g>
		<g id="XMLID_13_">
			<path id="XMLID_14_" class="st3" d="M1680.8,348.6c0.1,0.1,0.2,0.2,0.2,0.3c0,0.1-0.1,0.4-0.5,0.9c-0.2,0.3-0.4,0.7-0.8,1.5
				c-0.3,0.7-0.6,1.5-1,2.3c-0.3,0.8-0.6,1.6-0.9,2.3c-0.3,0.7-0.5,1.2-0.5,1.4c-0.3,0.6-0.4,0.9-0.5,0.7c-0.1-0.2-0.1-0.6,0.1-1.2
				c0-0.1,0.1-0.3,0.2-0.7c0.1-0.3,0.2-0.7,0.3-1c-0.5,0.2-1.2,0.3-1.9,0.4c-0.7,0.1-1.3,0.1-1.8,0.1c-0.3,0.4-0.5,0.7-0.9,0.9
				c-0.3,0.3-0.6,0.5-0.9,0.6c-0.3,0.2-0.6,0.3-0.9,0.4c-0.4,0.1-0.7,0.2-1.1,0.1c-0.3,0-0.6-0.2-0.7-0.4c-0.2-0.3-0.1-0.7,0-1.3
				c0.2-0.6,0.5-1.2,0.9-1.8c0.4-0.6,0.8-1.2,1.3-1.8c-0.2,0-0.4-0.1-0.4-0.3c-0.1-0.2,0.1-0.4,0.4-0.6c0.1-0.1,0.3-0.2,0.4-0.2
				c0.2-0.1,0.4-0.1,0.6-0.2c0.3-0.4,0.6-0.9,0.9-1.2c0.2-0.4,0.3-0.7,0.3-1c0-0.5-0.2-0.9-0.6-1.2c-0.4-0.3-0.8-0.5-1.2-0.7
				c-0.5-0.1-0.9-0.3-1.3-0.3c-0.4-0.1-0.7-0.1-0.9-0.1c-0.2,0-0.3-0.1-0.4-0.2c-0.1-0.1-0.1-0.3-0.1-0.5c0-0.2,0.1-0.3,0.2-0.5
				c0.1-0.2,0.3-0.3,0.6-0.3c0.2,0,0.5,0,0.8,0.1c0.3,0.1,0.7,0.2,1,0.3c0.4,0.1,0.7,0.3,1,0.5c0.3,0.2,0.6,0.5,0.9,0.7
				c0.1-0.6,0.3-1.3,0.7-2c0.4-0.7,0.9-1.5,1.5-2.5c0.2-0.3,0.4-0.5,0.6-0.8c0.2-0.3,0.5-0.6,0.7-0.9c0.3-0.3,0.5-0.6,0.7-0.8
				c0.2-0.2,0.4-0.4,0.6-0.5c0.2-0.1,0.3,0,0.5,0.2c0.1,0.2,0.1,0.4,0,0.7c-0.1,0.1-0.2,0.3-0.6,0.6c-0.3,0.4-0.7,0.8-1.1,1.3
				c-0.4,0.5-0.9,1.1-1.3,1.7c-0.5,0.6-0.9,1.2-1.2,1.8c-0.2,0.3-0.3,0.6-0.5,1c-0.1,0.4-0.2,0.7-0.1,1c0.4,0.6,0.6,1.2,0.4,1.9
				c-0.2,0.7-0.5,1.3-0.9,1.9c0.4,0.1,0.7,0.2,1,0.4c0.3,0.2,0.4,0.5,0.5,0.8c0,0.4,0,0.7,0,1c-0.1,0.3-0.2,0.6-0.3,0.9
				c0.4,0,0.9,0,1.5,0c0.6,0,1.2-0.1,1.6-0.1c0.1-0.2,0.1-0.4,0.2-0.6c0.1-0.2,0.2-0.4,0.2-0.6c0.1-0.2,0.2-0.4,0.3-0.6
				c0.1-0.2,0.2-0.4,0.3-0.6c-0.6,0.1-1.2,0.2-1.8,0.3c-0.6,0-1.1,0-1.5-0.1c-0.2,0-0.3-0.1-0.3-0.2c0-0.1,0-0.2,0.1-0.3
				c0.1-0.1,0.1-0.2,0.2-0.4c0.1-0.1,0.2-0.2,0.2-0.2c0,0,0.2,0,0.4,0.1c0.2,0,0.5,0,0.9,0.1c0.3,0,0.7,0,1.1,0c0.4,0,0.7,0,1-0.1
				c0.2-0.4,0.3-0.7,0.5-1.1c0.1-0.3,0.3-0.6,0.4-0.8c0.1-0.3,0.3-0.5,0.4-0.6c0.1-0.1,0.2-0.2,0.2-0.2c0.1,0,0.1,0,0.2,0
				C1680.7,348.5,1680.8,348.6,1680.8,348.6z M1672.6,352.3l-0.9,1c-0.2,0.2-0.4,0.5-0.6,0.8c-0.2,0.3-0.4,0.6-0.6,0.9
				c-0.1,0.3-0.2,0.6-0.3,0.8c-0.1,0.3,0,0.5,0.1,0.7c0.2,0.2,0.4,0.3,0.8,0.1c0.4-0.1,0.8-0.4,1.2-0.7c0.4-0.3,0.8-0.8,1.1-1.2
				c0.3-0.5,0.5-1,0.6-1.5c0-0.3-0.1-0.5-0.5-0.6C1673.2,352.5,1672.9,352.4,1672.6,352.3z M1682.9,349.6c0.1,0.1,0.2,0.2,0.2,0.3
				c0,0.2-0.1,0.5-0.4,0.9c-0.2,0.3-0.4,0.7-0.6,1.2c-0.3,0.6-0.5,1.1-0.8,1.7c-0.2,0.6-0.5,1.2-0.7,1.8c-0.2,0.6-0.4,1-0.4,1.3
				c-0.2,0.6-0.3,0.9-0.5,0.7c-0.1-0.2-0.2-0.5,0-1c0.1-0.3,0.2-0.7,0.4-1.3c0.2-0.6,0.4-1.1,0.6-1.8c0.2-0.6,0.4-1.2,0.7-1.8
				c0.2-0.6,0.5-1.1,0.7-1.5c0.1-0.3,0.2-0.4,0.3-0.6c0.1-0.1,0.2-0.2,0.2-0.3c0.1,0,0.1,0,0.2,0
				C1682.8,349.5,1682.8,349.6,1682.9,349.6z"/>
		</g>
	</g>
</g>
<g id="XMLID_17_">
	<rect id="XMLID_808_" x="946.8" y="312.5" class="st0" width="425.2" height="255.1"/>
	<rect id="XMLID_807_" x="975.2" y="333.8" class="st0" width="368.5" height="212.6"/>
	<line id="XMLID_806_" class="st1" x1="975.2" y1="390.2" x2="1343.7" y2="390.2"/>
	<g id="XMLID_529_">
		<rect id="XMLID_331_" x="975.2" y="413.5" class="st2" width="368.5" height="93.3"/>
		<text id="XMLID_322_" transform="matrix(1 0 0 1 975.1683 422.7409)"><tspan x="0" y="0" class="st3 st6 st5">파이어마커스는</tspan><tspan x="74.8" y="0" class="st3 st6 st5"> </tspan><tspan x="78.1" y="0" class="st3 st6 st5">소방에서</tspan><tspan x="120.9" y="0" class="st3 st6 st5"> </tspan><tspan x="124.2" y="0" class="st3 st6 st5">나오는</tspan><tspan x="156.3" y="0" class="st3 st6 st5"> </tspan><tspan x="159.6" y="0" class="st3 st6 st5">다양한</tspan><tspan x="191.7" y="0" class="st3 st6 st5"> </tspan><tspan x="194.9" y="0" class="st3 st6 st5">흔적들로</tspan><tspan x="237.7" y="0" class="st3 st6 st5"> </tspan><tspan x="241" y="0" class="st3 st6 st5">제품을</tspan><tspan x="273.1" y="0" class="st3 st6 st5"> </tspan><tspan x="276.4" y="0" class="st3 st6 st5">만들고</tspan><tspan x="308.5" y="0" class="st3 st6 st5"> </tspan><tspan x="311.8" y="0" class="st3 st6 st5">소방에</tspan><tspan x="343.8" y="0" class="st3 st6 st5"> </tspan><tspan x="347.1" y="0" class="st3 st6 st5">관한 </tspan><tspan x="0" y="13.9" class="st3 st6 st5">생각과</tspan><tspan x="32.1" y="13.9" class="st3 st6 st5"> </tspan><tspan x="35.2" y="13.9" class="st3 st6 st5">이야기를</tspan><tspan x="77.9" y="13.9" class="st3 st6 st5"> </tspan><tspan x="81" y="13.9" class="st3 st6 st5">담아</tspan><tspan x="102.4" y="13.9" class="st3 st6 st5"> </tspan><tspan x="105.5" y="13.9" class="st3 st6 st5">낼</tspan><tspan x="116.1" y="13.9" class="st3 st6 st5"> </tspan><tspan x="119.2" y="13.9" class="st3 st6 st5">수</tspan><tspan x="129.9" y="13.9" class="st3 st6 st5"> </tspan><tspan x="133" y="13.9" class="st3 st6 st5">있는</tspan><tspan x="154.4" y="13.9" class="st3 st6 st5"> </tspan><tspan x="157.4" y="13.9" class="st3 st6 st5">제품을</tspan><tspan x="189.5" y="13.9" class="st3 st6 st5"> </tspan><tspan x="192.6" y="13.9" class="st3 st6 st5">통하여</tspan><tspan x="224.7" y="13.9" class="st3 st6 st5"> </tspan><tspan x="227.7" y="13.9" class="st3 st6 st5">소방관에</tspan><tspan x="270.5" y="13.9" class="st3 st6 st5"> </tspan><tspan x="273.6" y="13.9" class="st3 st6 st5">대한</tspan><tspan x="295" y="13.9" class="st3 st6 st5"> </tspan><tspan x="298.1" y="13.9" class="st3 st6 st5">희생,</tspan><tspan x="322.7" y="13.9" class="st3 st6 st5"> </tspan><tspan x="325.7" y="13.9" class="st3 st6 st5">헌신등을 </tspan><tspan x="0" y="27.9" class="st3 st6 st5">공유하는</tspan><tspan x="42.8" y="27.9" class="st3 st6 st5"> </tspan><tspan x="45.7" y="27.9" class="st3 st6 st5">것,</tspan><tspan x="59.6" y="27.9" class="st3 st6 st5"> </tspan><tspan x="62.5" y="27.9" class="st3 st6 st5">그리고</tspan><tspan x="94.6" y="27.9" class="st3 st6 st5"> </tspan><tspan x="97.4" y="27.9" class="st3 st6 st5">일상생활에서</tspan><tspan x="161.6" y="27.9" class="st3 st6 st5"> </tspan><tspan x="164.5" y="27.9" class="st3 st6 st5">소방부터</tspan><tspan x="207.3" y="27.9" class="st3 st6 st5"> </tspan><tspan x="210.1" y="27.9" class="st3 st6 st5">안전까지</tspan><tspan x="252.9" y="27.9" class="st3 st6 st5"> </tspan><tspan x="255.8" y="27.9" class="st3 st6 st5">하나의</tspan><tspan x="287.9" y="27.9" class="st3 st6 st5"> </tspan><tspan x="290.8" y="27.9" class="st3 st6 st5">문화로</tspan><tspan x="322.9" y="27.9" class="st3 st6 st5"> </tspan><tspan x="325.7" y="27.9" class="st3 st6 st5">적용시켜 </tspan><tspan x="0" y="41.8" class="st3 st6 st5">모든 것을 효율적으로 담을 수 있는 제품을 제작하는 것이 우리의 목표 입니다. </tspan></text>
	</g>
	<g id="XMLID_526_">
		<text id="XMLID_293_" transform="matrix(1 0 0 1 1004.4114 540.7701)" class="st3 st6 st8">firemarkers.co.kr</text>
	</g>
	<g id="XMLID_519_">
		<text id="XMLID_286_" transform="matrix(1 0 0 1 1176.0383 540.7701)" class="st3 st6 st8">fb.com/firemarkers</text>
	</g>
	<g id="XMLID_507_">
		<polygon id="XMLID_517_" class="st3" points="982.7,534.5 981.3,542.4 984,542.4 982.7,534.5 		"/>
	</g>
	<g id="XMLID_500_">
		<path id="XMLID_501_" class="st3" d="M1161.7,527.4h-12.9c-0.6,0-1.1,0.5-1.1,1.1v12.9c0,0.6,0.5,1.1,1.1,1.1h4.8v-7.3h-1.3v-1.4
			l1.3-0.1v-1.1c0-1.8,0.9-3,2.9-3c0.6,0,1.2,0.1,1.6,0.3l-0.4,1.4c-0.3-0.1-0.7-0.2-1-0.2c-0.8,0-1.2,0.5-1.2,1.6v1.1h1.9v1.5h-1.9
			v7.3h6.1c0.6,0,1.1-0.5,1.1-1.1v-12.9C1162.7,527.9,1162.2,527.4,1161.7,527.4z"/>
	</g>
	<g id="XMLID_336_">
		<g id="XMLID_191_">
			<circle id="XMLID_205_" class="st3" cx="982.8" cy="535" r="1.5"/>
			<g id="XMLID_192_">
				<path id="XMLID_199_" class="st3" d="M982.8,531.5c0.8,0,1.5,0.2,2.1,0.7h2.8h2.6v-1c0-2.1-1.7-3.8-3.8-3.8h-7.5
					c-2.1,0-3.8,1.7-3.8,3.8v1h5.5C981.3,531.7,982,531.5,982.8,531.5z M985.8,529.6c0-0.2,0.2-0.4,0.4-0.4h1.3
					c0.2,0,0.4,0.2,0.4,0.4v1.3c0,0.2-0.2,0.4-0.4,0.4h-1.3c-0.2,0-0.4-0.2-0.4-0.4V529.6z"/>
				<path id="XMLID_193_" class="st3" d="M986.3,535c0,2-1.6,3.6-3.6,3.6s-3.6-1.6-3.6-3.6c0-0.5,0.1-1.1,0.3-1.5h-4.4v5.1
					c0,2.1,1.7,3.8,3.8,3.8h7.5c2.1,0,3.8-1.7,3.8-3.8v-5.1H986C986.2,534,986.3,534.5,986.3,535z"/>
			</g>
		</g>
	</g>
	<g id="XMLID_18_">
		<path id="XMLID_334_" class="st3" d="M1073.7,344.2h5.5l7.4,9.4h0.1l7.3-9.4h5.6v17.7h-5.7v-10.8h-0.1l-5.7,7.6h-2.9l-5.6-7.6
			h-0.1v10.8h-5.7V344.2z"/>
		<path id="XMLID_298_" class="st3" d="M1111.3,344.2h4.8l8.9,17.7h-5.7l-1.7-3.8h-7.8l-1.7,3.8h-5.7L1111.3,344.2z M1113.8,349.3
			h-0.1l-2.8,6.4h5.7L1113.8,349.3z"/>
		<path id="XMLID_258_" class="st3" d="M1127.9,344.2h9.2c6.7,0,10.1,1.7,10.1,5.2c0,1-0.4,1.9-1.1,2.7c-0.7,0.7-2,1.3-3.9,1.8
			l6.2,8.1h-6.1l-5.3-7.6h-3.4v7.6h-5.7V344.2z M1133.6,352.1h3.3c1,0,1.8-0.1,2.4-0.2c0.6-0.1,1.1-0.3,1.4-0.5
			c0.3-0.2,0.5-0.5,0.6-0.9c0.1-0.3,0.2-0.7,0.2-1.2c0-0.4-0.1-0.8-0.2-1.2c-0.1-0.3-0.3-0.6-0.7-0.9c-0.4-0.2-0.9-0.4-1.5-0.5
			c-0.6-0.1-1.5-0.2-2.5-0.2h-3V352.1z"/>
		<path id="XMLID_242_" class="st3" d="M1151.4,344.2h5.7v8.1h0.1l8.4-8.1h5.7l-7.8,7.1l9.3,10.6h-6.1l-6.5-7.9l-3.1,2.6v5.3h-5.7
			V344.2z"/>
		<path id="XMLID_211_" class="st3" d="M1175.7,344.2h15.6v2.4h-9.9v3.8h9.9v3.8h-9.9v5.2h11.4v2.5h-17.1V344.2z"/>
		<path id="XMLID_207_" class="st3" d="M1195.6,344.2h9.2c6.7,0,10.1,1.7,10.1,5.2c0,1-0.4,1.9-1.1,2.7c-0.7,0.7-2,1.3-3.8,1.8
			l6.2,8.1h-6.1l-5.3-7.6h-3.4v7.6h-5.7V344.2z M1201.3,352.1h3.3c1,0,1.8-0.1,2.4-0.2c0.6-0.1,1.1-0.3,1.4-0.5
			c0.3-0.2,0.5-0.5,0.6-0.9c0.1-0.3,0.2-0.7,0.2-1.2c0-0.4-0.1-0.8-0.2-1.2c-0.1-0.3-0.3-0.6-0.7-0.9c-0.4-0.2-0.9-0.4-1.5-0.5
			c-0.6-0.1-1.5-0.2-2.5-0.2h-3V352.1z"/>
		<path id="XMLID_195_" class="st3" d="M1238.5,349.4h-5.7v-0.6c0-0.6-0.3-1.1-0.9-1.5c-0.6-0.4-1.7-0.6-3.1-0.6
			c-0.8,0-1.4,0.1-1.9,0.2c-0.5,0.1-0.9,0.3-1.2,0.5c-0.3,0.2-0.5,0.4-0.6,0.7c-0.1,0.3-0.2,0.6-0.2,0.9c0,0.3,0,0.6,0.1,0.9
			c0.1,0.2,0.2,0.4,0.4,0.6c0.2,0.2,0.6,0.3,1,0.5c0.4,0.1,1,0.3,1.8,0.4l4.4,0.8c1.3,0.2,2.3,0.5,3.1,0.8c0.8,0.3,1.4,0.6,1.8,1
			c0.4,0.4,0.7,0.8,0.9,1.3c0.1,0.5,0.2,1.1,0.2,1.7c0,0.7-0.2,1.4-0.5,2.1c-0.3,0.6-0.9,1.2-1.7,1.6c-0.8,0.5-1.8,0.8-3.1,1.1
			c-1.3,0.3-2.8,0.4-4.7,0.4c-1.4,0-2.7-0.1-3.9-0.3c-1.2-0.2-2.2-0.5-3.1-0.9c-0.9-0.4-1.5-0.8-2.1-1.3c-0.5-0.5-0.8-1.1-0.8-1.7
			v-0.9h5.7v0.8c0,0.5,0.3,0.9,0.9,1.2c0.6,0.4,1.7,0.6,3.1,0.6c1,0,1.7-0.1,2.3-0.2c0.5-0.1,1-0.3,1.2-0.5c0.3-0.2,0.5-0.5,0.5-0.8
			c0.1-0.3,0.1-0.7,0.1-1.1c0-0.5,0-0.8-0.1-1.1c-0.1-0.3-0.2-0.5-0.5-0.7c-0.2-0.2-0.6-0.3-1-0.4c-0.4-0.1-1-0.2-1.7-0.4l-4.1-0.7
			c-2.5-0.4-4.1-1-5-1.8c-0.8-0.7-1.3-1.6-1.3-2.8c0-0.7,0.2-1.3,0.6-1.9c0.4-0.6,1-1.1,1.8-1.5c0.8-0.4,1.8-0.8,3.1-1
			c1.2-0.3,2.7-0.4,4.3-0.4c1.4,0,2.7,0.1,3.9,0.3c1.2,0.2,2.2,0.5,3,0.9c0.8,0.4,1.5,0.8,1.9,1.3c0.5,0.5,0.7,1,0.7,1.4V349.4z"/>
		<path id="XMLID_190_" class="st3" d="M1074.9,341h-1.2v-6.3h5.8v0.7h-4.6v2h3.8v0.6h-3.8V341z"/>
		<path id="XMLID_139_" class="st3" d="M1082.3,341h-1.2v-6.3h1.2V341z"/>
		<path id="XMLID_96_" class="st3" d="M1091.4,341h-1.3l-1.8-2.7h-2.7v2.7h-1.1v-6.3h3.8c1,0,1.8,0.2,2.3,0.6
			c0.5,0.4,0.7,0.8,0.7,1.2c0,0.3-0.1,0.7-0.4,1c-0.3,0.3-0.7,0.5-1.4,0.7L1091.4,341z M1085.7,337.6h2.5c0.7,0,1.1-0.1,1.5-0.3
			c0.3-0.2,0.5-0.5,0.5-0.8c0-0.3-0.2-0.6-0.5-0.8c-0.3-0.2-0.8-0.3-1.3-0.3h-2.6V337.6z"/>
		<path id="XMLID_91_" class="st3" d="M1099.6,340.3v0.7h-6.3v-6.3h5.3v0.7h-4.1v1.9h4.1v1.2h-4.1v1.8H1099.6z"/>
		<g id="XMLID_20_">
			<g id="XMLID_27_">
				<path id="XMLID_28_" class="st3" d="M1242.1,344c-1.1,0-1.9-0.9-1.9-1.9c0-1.1,0.9-1.9,1.9-1.9c1.1,0,1.9,0.9,1.9,1.9
					C1244.1,343.2,1243.2,344,1242.1,344z M1242.1,340.7c-0.8,0-1.4,0.6-1.4,1.4c0,0.8,0.6,1.4,1.4,1.4s1.4-0.6,1.4-1.4
					C1243.5,341.3,1242.9,340.7,1242.1,340.7z"/>
			</g>
			<g id="XMLID_22_">
				<g id="XMLID_23_">
					<path id="XMLID_24_" class="st3" d="M1242.9,343h-0.2l-0.3-0.7h-0.5v0.7h-0.2v-1.7h0.7c0.2,0,0.3,0,0.4,0.1
						c0.1,0.1,0.1,0.2,0.1,0.3c0,0.1,0,0.2-0.1,0.3c0,0.1-0.1,0.1-0.2,0.2L1242.9,343z M1241.9,342.1h0.4c0.1,0,0.2,0,0.3-0.1
						c0.1-0.1,0.1-0.1,0.1-0.2c0-0.1,0-0.2-0.1-0.2c-0.1,0-0.1-0.1-0.2-0.1h-0.5V342.1z"/>
				</g>
			</g>
		</g>
	</g>
</g>
</svg>
