<?xml version="1.0" encoding="utf-8"?>
<!-- Generator: Adobe Illustrator 19.0.0, SVG Export Plug-In . SVG Version: 6.00 Build 0)  -->
<svg version="1.1" id="Layer_1" xmlns="http://www.w3.org/2000/svg" xmlns:xlink="http://www.w3.org/1999/xlink" x="0px" y="0px"
	 viewBox="721 96.2 2461.8 636.7" style="enable-background:new 721 96.2 2461.8 636.7;" xml:space="preserve">
<style type="text/css">
	.st0{fill:#5A5B5B;}
	.st1{fill:#FFFFFF;}
	.st2{enable-background:new    ;}
</style>
<g id="XMLID_677_">
	<rect id="XMLID_680_" x="720.5" y="96.2" class="st0" width="475.2" height="307.5"/>
	<rect id="XMLID_679_" x="734.4" y="172.1" class="st0" width="447.2" height="167.7"/>
	<g id="XMLID_678_">
		<g id="XMLID_2673_">
			<g id="XMLID_2705_">
				<path id="XMLID_2714_" class="st1" d="M847.1,262.8c0,0-0.3,6.7,5.4,6.7h3.6v15.8h-6.3c-10.3,0-18.5-8.3-18.5-18.5v-28.1v-28.1
					c0-10.3,8.3-18.5,18.5-18.5h6.4v15.8h-3.6c-5.7,0-5.4,6.7-5.4,6.7L847.1,262.8L847.1,262.8z"/>
				<path id="XMLID_2713_" class="st1" d="M873.2,262.8c0,0,0.3,6.7-5.4,6.7h-3.6v15.8h6.4c10.3,0,18.5-8.3,18.5-18.5v-28.1v-28.1
					c0-10.3-8.3-18.5-18.5-18.5h-6.4v15.8h3.6c5.7,0,5.4,6.7,5.4,6.7V262.8z"/>
				<path id="XMLID_2712_" class="st1" d="M911.2,262.8c0,0-0.3,6.7,5.4,6.7h3.7v15.8H914c-10.3,0-18.5-8.3-18.5-18.5v-28.1v-28.1
					c0-10.3,8.3-18.5,18.5-18.5h6.4v15.8h-3.7c-5.7,0-5.4,6.7-5.4,6.7V262.8z"/>
				<path id="XMLID_2711_" class="st1" d="M937.3,262.8c0,0,0.3,6.7-5.4,6.7h-3.7v15.8h6.4c10.3,0,18.5-8.3,18.5-18.5v-28.1v-28.1
					c0-10.3-8.3-18.5-18.5-18.5h-6.4v15.8h3.7c5.7,0,5.4,6.7,5.4,6.7V262.8z"/>
				<path id="XMLID_2710_" class="st1" d="M975.3,262.8c0,0-0.3,6.7,5.4,6.7h3.7v15.8h-6.4c-10.3,0-18.5-8.3-18.5-18.5v-28.1v-28.1
					c0-10.3,8.3-18.5,18.5-18.5h6.4v15.8h-3.7c-5.7,0-5.4,6.7-5.4,6.7V262.8z"/>
				<path id="XMLID_2709_" class="st1" d="M1001.4,262.8c0,0,0.3,6.7-5.4,6.7h-3.7v15.8h6.4c10.3,0,18.5-8.3,18.5-18.5v-28.1v-28.1
					c0-10.3-8.3-18.5-18.5-18.5h-6.4v15.8h3.7c5.7,0,5.4,6.7,5.4,6.7V262.8z"/>
				<path id="XMLID_2708_" class="st1" d="M1052.9,234.8v-24.3c0-10.3-8.3-18.5-18.5-18.5h-11.3v15.8h8.7c5.7,0,5.4,6.7,5.4,6.7
					v20.3H1052.9z"/>
				<path id="XMLID_2707_" class="st1" d="M1037.1,242.6v24.3c0,10.3,8.3,18.5,18.5,18.5h14.5v-15.8h-11.7c-5.7,0-5.4-6.7-5.4-6.7
					v-20.3L1037.1,242.6L1037.1,242.6z"/>
				<path id="XMLID_2706_" class="st1" d="M1074.4,192.1v20.3c0,0-0.3,6.7,5.4,6.7h4.9v15.8h-7.7c-10.3,0-18.5-8.3-18.5-18.5v-24.3
					H1074.4z"/>
			</g>
			<g id="XMLID_2674_">
				<path id="XMLID_2703_" class="st1" d="M838,322.9v-3.8l7.6-11.9h-7.3v-4.4h13.2v3.8l-7.7,11.9h7.7v4.4H838z"/>
				<path id="XMLID_2701_" class="st1" d="M856.5,322.9v-20.3H870v4.4h-8.7v3.4h7.4v4.4h-7.4v3.6h8.7v4.4L856.5,322.9L856.5,322.9z"
					/>
				<path id="XMLID_2698_" class="st1" d="M885.8,322.9l-3.6-7.6h-1.7v7.6h-4.9v-20.3h7.9c4.4,0,6.8,3.2,6.8,6.5
					c0,2.8-1.7,4.5-3.3,5.3l4.3,8.5H885.8z M883.4,307.1h-2.8v4.1h2.8c1.4,0,2.2-1,2.2-2.1C885.5,308.1,884.7,307.1,883.4,307.1z"/>
				<path id="XMLID_2695_" class="st1" d="M908.1,320.8c-1.5,1.5-3.2,2.3-5.5,2.3c-2.5,0-4.1-0.8-5.5-2.3c-2.1-2.2-2-5-2-8
					c0-3.1-0.1-5.9,2-8.1c1.5-1.5,3.2-2.3,5.5-2.3c2.5,0,4.1,0.8,5.5,2.3c2.1,2.2,2,5,2,8.1C910.1,315.8,910.2,318.6,908.1,320.8z
					 M904.5,307.8c-0.4-0.5-1.1-0.9-2-0.9s-1.6,0.4-2,0.9c-0.5,0.6-0.7,1.3-0.7,5s0.3,4.3,0.7,4.9c0.4,0.5,1.1,0.9,2,0.9
					s1.6-0.4,2-0.9c0.5-0.6,0.7-1.3,0.7-4.9C905.2,309,904.9,308.3,904.5,307.8z"/>
				<path id="XMLID_2693_" class="st1" d="M929.9,323c-3.1,0-5.5-0.6-7.6-2.7l3.2-3.2c1,1.1,2.9,1.5,4.4,1.5c2,0,2.9-0.7,2.9-1.9
					c0-0.5-0.1-0.9-0.4-1.2c-0.3-0.3-0.7-0.5-1.3-0.6l-2.4-0.3c-1.8-0.3-3.1-0.9-4-1.8c-0.9-1-1.4-2.4-1.4-4c0-3.7,2.8-6.4,7.3-6.4
					c2.9,0,5,0.7,6.7,2.5l-3.1,3.2c-1.3-1.3-3-1.2-3.7-1.2c-1.7,0-2.4,1-2.4,1.9c0,0.3,0.1,0.6,0.4,1c0.3,0.3,0.7,0.5,1.4,0.6
					l2.4,0.3c1.8,0.3,3.1,0.8,3.9,1.7c1.1,1.1,1.5,2.6,1.5,4.4C937.6,320.8,934,323,929.9,323z"/>
				<path id="XMLID_2690_" class="st1" d="M950.9,315.6h-3v7.2H943v-20.3h7.9c4.4,0,6.8,3.2,6.8,6.5
					C957.7,312.5,955.3,315.6,950.9,315.6z M950.6,307.1h-2.8v4.1h2.8c1.4,0,2.2-1,2.2-2.1S952,307.1,950.6,307.1z"/>
				<path id="XMLID_2687_" class="st1" d="M972.5,322.9l-0.9-3.1h-6.1l-1,3.1h-5.1l7.2-20.3h3.7l7.2,20.3H972.5z M968.5,310.3
					l-1.8,5.4h3.5L968.5,310.3z"/>
				<path id="XMLID_2685_" class="st1" d="M988.4,323c-2.4,0-4-0.8-5.5-2.3c-2.1-2.2-2-5-2-8c0-3.1-0.1-5.9,2-8.1
					c1.5-1.5,3.3-2.3,5.5-2.3c3.7,0,6.8,2.2,7.6,6.6h-4.9c-0.3-1.2-0.9-2.2-2.6-2.2c-0.9,0-1.6,0.4-2,0.9c-0.5,0.6-0.8,1.3-0.8,5
					s0.3,4.4,0.8,5c0.4,0.5,1,0.9,2,0.9c1.6,0,2.3-1,2.6-2.2h4.9C995.3,321,992.2,323,988.4,323z"/>
				<path id="XMLID_2683_" class="st1" d="M1000.8,322.9v-20.3h13.5v4.4h-8.7v3.4h7.4v4.4h-7.4v3.6h8.7v4.4L1000.8,322.9
					L1000.8,322.9z"/>
				<path id="XMLID_2681_" class="st1" d="M1028.4,322.9v-20.3h4.9v20.3H1028.4z"/>
				<path id="XMLID_2679_" class="st1" d="M1050.8,322.9l-6.4-10.2v10.2h-4.9v-20.3h4.2l6.4,10.2v-10.2h4.8v20.3H1050.8z"/>
				<path id="XMLID_2677_" class="st1" d="M1067.6,323c-2.4,0-4-0.8-5.5-2.3c-2.1-2.2-2-5-2-8c0-3.1-0.1-5.9,2-8.1
					c1.5-1.5,3.3-2.3,5.5-2.3c3.7,0,6.8,2.2,7.6,6.6h-5c-0.3-1.2-0.9-2.2-2.6-2.2c-0.9,0-1.6,0.4-2,0.9c-0.5,0.6-0.8,1.3-0.8,5
					s0.3,4.4,0.8,5c0.4,0.5,1.1,0.9,2,0.9c1.6,0,2.3-1,2.6-2.2h5C1074.5,321,1071.5,323,1067.6,323z"/>
				<path id="XMLID_2675_" class="st1" d="M1079.6,322.9v-5.1h5v5.1H1079.6z"/>
			</g>
		</g>
	</g>
</g>
<g id="XMLID_676_">
	<rect id="XMLID_963_" x="1219.9" y="96.2" class="st0" width="475.2" height="307.5"/>
	<rect id="XMLID_954_" x="1233.8" y="172.1" class="st0" width="447.2" height="167.7"/>
	<g id="XMLID_861_">
		<g id="XMLID_886_">
			<path id="XMLID_892_" class="st1" d="M1461.4,255.6V250h19c1.7,0,3-1.4,3-3c0-1.7-1.4-3-3-3h-19v-14.1h18.7c1.7,0,3-1.4,3-3
				c0-1.7-1.4-3-3-3h-18.7v-14.1h19c1.7,0,3-1.4,3-3c0-1.7-1.4-3-3-3h-19v-5.6c11.9-0.8,22.1-9.5,23.9-20.9c0.3-1.7-0.9-3.2-2.5-3.5
				s-3.2,0.9-3.5,2.5c-1.5,9.1-10,16-19.8,16h-2.5c-9.9,0-18.3-6.9-19.7-16c-0.3-1.7-1.8-2.8-3.5-2.5c-1.7,0.3-2.8,1.8-2.5,3.5
				c1.8,11.4,11.9,20.1,24,20.9v5.6h-3.1c-12.8,0-23.2,9.9-23.2,22v2.1c0,12.1,10.5,22,23.2,22h3.1v5.6c-12,0.8-22.1,9.5-24,20.9
				c-0.3,1.6,0.9,3.2,2.5,3.5c1.7,0.3,3.2-0.9,3.5-2.5c1.5-9.1,10-16,19.7-16h2.5c9.9,0,18.3,6.9,19.8,16c0.2,1.5,1.5,2.6,3,2.6
				c0.2,0,0.3,0,0.5,0c1.7-0.3,2.8-1.8,2.5-3.5C1483.5,265.2,1473.4,256.4,1461.4,255.6 M1455.5,244h-3.1c-8.8,0-16.1-6.1-17.1-14.1
				h20.2L1455.5,244L1455.5,244z M1455.5,224h-20.2c1.1-7.9,8.3-14.1,17.1-14.1h3.1L1455.5,224L1455.5,224z"/>
			<path id="XMLID_891_" class="st1" d="M1450.4,240.8C1450.4,240.8,1450.5,240.8,1450.4,240.8c0.5,0,0.8-0.1,1.1-0.4
				c0.3-0.3,0.5-0.7,0.5-1.1v-4.6c0-0.8-0.7-1.5-1.5-1.5h-7.9c-0.5,0-1,0.3-1.3,0.8c-0.3,0.5-0.3,1,0,1.5
				C1443.1,238.6,1446.6,240.6,1450.4,240.8"/>
			<path id="XMLID_890_" class="st1" d="M1450.4,213.5c-3.8,0.2-7.4,2.3-9.2,5.3c-0.3,0.5-0.3,1,0,1.5c0.3,0.5,0.8,0.8,1.3,0.8h7.9
				c0.8,0,1.5-0.7,1.5-1.5V215c0-0.4-0.2-0.8-0.5-1.1C1451.2,213.6,1450.8,213.4,1450.4,213.5"/>
			<path id="XMLID_887_" class="st1" d="M1491.5,275.5c-1.3-7.8-5.9-15.2-12.4-19.8h1.4c5.2,0,9.3-3.7,9.3-8.7
				c0-5.1-4.1-9.3-9.3-9.3h-10.8c-0.4,0-0.8-0.4-0.8-0.8s0.3-0.8,0.8-0.8h10.7c5.1,0,9.3-4.1,9.3-9.3s-4.1-9.3-9.3-9.3l-10.7,0.1
				c-0.4,0-0.8-0.4-0.8-0.8c0-0.4,0.3-0.8,0.8-0.8h11c5.1,0,9.3-4.1,9.3-9.3c0-5-4-9-9.3-9h-1.3c6.6-4.6,11.1-11.6,12.3-19.5
				c0.8-5-2.7-9.8-7.7-10.6c-5-0.8-9.8,2.7-10.6,7.7c-1,6.1-6.8,10.7-13.6,10.7h-2.5c-6.8,0-12.6-4.6-13.6-10.7
				c-0.4-2.5-1.7-4.6-3.7-6c-2-1.5-4.4-2.1-6.9-1.7c-2.5,0.4-4.5,1.7-6,3.7c-1.5,2-2.1,4.4-1.7,6.9c1.4,9,7.1,16.9,14.9,21.1
				c-10.3,4.6-17.7,15.1-17.7,26.4v2.1c0,11.4,7.2,21.7,17.8,26.2c-8,4.6-13.5,12.4-14.9,21.3c-0.8,5,2.7,9.8,7.7,10.6
				c5,0.8,9.8-2.7,10.6-7.7c1-6.1,6.8-10.7,13.6-10.7h2.5c6.8,0,12.6,4.5,13.6,10.7c0.4,2.5,1.7,4.5,3.6,6c1.6,1.2,3.5,1.8,5.4,1.8
				c0.5,0,1,0,1.5-0.1C1488.9,285.4,1492.3,280.6,1491.5,275.5 M1483.3,282.6c-1.6,0.2-3.1-0.1-4.2-1c-1.2-0.9-2-2.2-2.3-3.7
				c-1.3-7.8-8.6-13.7-17.2-13.7h-2.5c-8.5,0-15.9,5.9-17.2,13.7c-0.5,3.1-3.5,5.2-6.5,4.7c-3.1-0.5-5.2-3.4-4.7-6.5
				c1.5-9.1,7.7-16.8,16.7-20.5c0.7-0.3,1.2-1,1.1-1.8c-0.1-0.8-0.6-1.4-1.3-1.6c-11.1-3-19.1-12.9-19.1-24.2V226
				c0-11.2,8.3-21.6,19.3-24.5c0.8-0.2,1.3-0.9,1.3-1.7c0-0.8-0.5-1.5-1.2-1.8c-8.7-3.1-15.2-10.9-16.7-20.2c-0.5-3.1,1.6-6,4.7-6.5
				c1.5-0.2,3,0.1,4.2,1c1.3,0.9,2.1,2.2,2.3,3.7c1.3,7.8,8.6,13.7,17.2,13.7h2.5c8.6,0,15.9-5.9,17.2-13.7c0.5-3.1,3.4-5.2,6.5-4.7
				c3.1,0.5,5.2,3.4,4.7,6.5c-1.5,9.1-7.8,16.8-16.5,20.2c-0.8,0.3-1.3,1.2-1.1,2c0.2,0.9,0.9,1.5,1.8,1.5h8.3
				c3.3,0,5.7,2.3,5.7,5.4c0,3.2-2.6,5.7-5.7,5.7h-11c-2.4,0-4.3,2-4.3,4.3s2,4.3,4.3,4.3l10.7-0.1c3.2,0,5.7,2.6,5.7,5.6
				c0,3.2-2.6,5.7-5.6,5.7h-10.7c-2.4,0-4.3,2-4.3,4.3c0,2.5,2,4.3,4.3,4.3h10.9c3.2,0,5.7,2.6,5.7,5.7c0,3-2.4,5.1-5.7,5.1h-8.4
				c-0.9,0-1.6,0.6-1.8,1.5c-0.2,0.9,0.3,1.7,1.1,2c8.3,3.3,15.1,11.6,16.5,20.5C1488.5,279.2,1486.3,282.1,1483.3,282.6"/>
		</g>
		<g id="XMLID_862_">
			<path id="XMLID_884_" class="st1" d="M1313.7,319v5.8h9.7v2.3h-9.7v6.4h10.1v2.4h-12.6v-19.1h12.6v2.4L1313.7,319L1313.7,319
				L1313.7,319z"/>
			<path id="XMLID_881_" class="st1" d="M1354,331.9h-9.2l-1.5,3.9h-2.7l7-19.1h3.2l7.2,19.1h-2.7L1354,331.9z M1353.1,329.7
				l-3.7-10.3l-3.7,10.3H1353.1z"/>
			<path id="XMLID_879_" class="st1" d="M1389,322.3h-2.6c0-0.9,0-1.6-0.1-1.9c-0.1-0.7-0.6-1.2-1.3-1.4c-0.5-0.1-1.3-0.2-2.5-0.2
				c-1.7,0-2.8,0-3.3,0.1c-0.9,0.2-1.5,0.6-1.8,1.3c-0.1,0.4-0.2,1-0.2,1.7c0,0.9,0.1,1.5,0.3,2c0.2,0.5,0.8,0.8,1.8,1
				c0.3,0,1.4,0.1,3,0.2c1.9,0.1,3.1,0.2,3.7,0.3c1.3,0.3,2.3,1,2.8,2c0.3,0.7,0.5,1.7,0.5,3.2c0,2.1-0.3,3.5-1,4.2
				c-0.7,0.8-1.7,1.3-2.9,1.4c-1,0.1-2.3,0.1-3.9,0.1c-2,0-3.4-0.1-4-0.3c-1.6-0.5-2.5-1.8-2.8-3.7c-0.1-0.4-0.1-1.2-0.1-2.5h2.6
				c0,0.4,0,0.6,0,0.7c0,1,0.1,1.7,0.2,2.1s0.4,0.8,0.7,1c0.3,0.2,0.8,0.3,1.5,0.4c0.7,0,1.6,0,2.6,0c1.4,0,2.4-0.1,3-0.2
				c0.6-0.1,1-0.3,1.2-0.6c0.3-0.4,0.5-1.4,0.5-2.9c0-0.8-0.1-1.3-0.2-1.7c-0.2-0.5-0.7-0.8-1.6-0.9c-0.4-0.1-1.5-0.1-3.2-0.2
				c-1.7-0.1-2.7-0.1-3.2-0.2c-1.4-0.2-2.4-0.8-3.1-1.7c-0.6-0.7-0.9-1.9-0.9-3.5c0-2.3,0.5-3.7,1.5-4.4c0.7-0.6,1.7-1,2.9-1.1
				c0.8-0.1,1.8-0.1,2.9-0.1c2.1,0,3.6,0.1,4.3,0.4c1.6,0.6,2.5,1.9,2.6,3.9C1389,321,1389,321.5,1389,322.3z"/>
			<path id="XMLID_877_" class="st1" d="M1414.9,319.2v16.7h-2.6v-16.7h-6.1v-2.5h14.7v2.5H1414.9z"/>
			<path id="XMLID_875_" class="st1" d="M1441.4,316.7v19.1h-2.6v-19.1H1441.4z"/>
			<path id="XMLID_873_" class="st1" d="M1477.3,316.7v19.1h-3.7l-10.2-16.8v16.8h-2.6v-19.1h3.7l10.2,16.8v-16.8H1477.3z"/>
			<path id="XMLID_870_" class="st1" d="M1496.8,335.9v-19.1h9.1c1.2,0,2.2,0.1,3.1,0.3c1.3,0.3,2.3,1.1,3,2.5c0.6,1.2,1,3.2,1,5.9
				c0,2.3,0,3.8-0.1,4.7c-0.3,2.5-1.2,4.1-2.7,4.9c-0.6,0.3-1.5,0.6-2.7,0.7c-0.3,0-0.6,0.1-0.8,0.1H1496.8L1496.8,335.9z
				 M1499.3,333.5h6.1c2,0,3.3-0.4,3.8-1.1c0.5-0.6,0.8-1.6,0.9-3.1c0.1-0.6,0.1-1.6,0.1-2.8c0-2.2-0.1-3.6-0.2-4.5
				c-0.2-1.5-0.8-2.4-1.9-2.8c-0.6-0.2-1.4-0.3-2.4-0.3h-6.5V333.5z"/>
			<path id="XMLID_868_" class="st1" d="M1534,316.7v19.1h-2.6v-19.1H1534z"/>
			<path id="XMLID_866_" class="st1" d="M1560.4,326.1h8.2c0.1,0.6,0.1,1.4,0.1,2.1c0,1.4,0,2.4,0,3.1c-0.1,2.3-1,3.7-2.6,4.4
				c-0.8,0.3-2.7,0.5-5.4,0.5c-1.9,0-3.3-0.1-4.1-0.3c-0.9-0.2-1.6-0.6-2.2-1.2c-0.9-0.9-1.5-2.2-1.6-3.9c0-0.7-0.1-1.6,0-2.7
				c0-0.2,0-0.9,0-2.1c0-0.3,0-0.5,0-0.8c0-1.7,0.1-3.1,0.2-3.9c0.1-0.9,0.4-1.7,0.7-2.4c0.6-1.3,1.7-2.1,3.3-2.4
				c0.6-0.1,1.8-0.2,3.5-0.2c1.9,0,3.2,0,3.8,0.1c0.7,0,1.2,0.2,1.7,0.3c1.6,0.6,2.5,1.9,2.6,3.7c0,0.3,0.1,1,0.1,2.1h-2.5
				c0-1.5-0.1-2.4-0.3-2.9c-0.2-0.5-0.8-0.8-1.8-0.9c-0.7-0.1-2-0.1-3.8-0.1c-1.5,0-2.7,0.1-3.3,0.3c-0.8,0.2-1.2,0.9-1.5,2
				c-0.1,0.6-0.2,2.3-0.2,5.2c0,2.3,0,3.6,0,4c0,1,0.2,1.7,0.5,2.3c0.3,0.5,0.7,0.8,1.2,1c0.7,0.2,2.3,0.3,4.6,0.3
				c1.3,0,2.2-0.1,2.8-0.2s1-0.3,1.3-0.7c0.4-0.5,0.5-1.7,0.5-3.6c0-0.2,0-0.6,0-1h-5.7V326.1L1560.4,326.1z"/>
			<path id="XMLID_863_" class="st1" d="M1595,316.4c1.4,0,2.5,0,3.2,0.1c0.7,0.1,1.4,0.3,1.9,0.5c1.6,0.7,2.5,2.3,2.8,4.6
				c0.1,0.7,0.1,1.9,0.1,3.6c0,3,0,4.8-0.1,5.5c-0.2,1.3-0.4,2.2-0.8,2.9c-0.4,0.7-1,1.2-1.8,1.6c-0.8,0.4-1.8,0.6-3.1,0.7
				c-0.7,0-1.5,0-2.5,0c-1.7,0-2.9,0-3.6-0.1c-0.7-0.1-1.4-0.3-2-0.6c-1.1-0.6-1.9-1.5-2.3-2.9c-0.3-1-0.4-2.1-0.4-3.4
				c0-0.8,0-2.1,0-3.7c0-1.8,0-3,0.1-3.6c0.3-2.4,1.2-3.9,2.8-4.6c0.7-0.3,1.6-0.5,2.8-0.6C1592.9,316.4,1593.9,316.4,1595,316.4z
				 M1594.5,318.8c-1.2,0-2.1,0-2.6,0.1c-0.5,0-1,0.2-1.3,0.3c-0.6,0.3-1.1,0.9-1.3,1.8c-0.2,0.7-0.2,1.4-0.2,2.3v3
				c0,2.3,0,3.6,0.1,4.1c0.1,0.9,0.2,1.6,0.5,2c0.2,0.5,0.6,0.8,1,1c0.4,0.2,1,0.3,1.8,0.3c0.6,0,1.4,0.1,2.4,0.1
				c1.3,0,2.3,0,2.8-0.1c0.6,0,1-0.1,1.4-0.3c0.6-0.3,1.1-0.9,1.3-1.9c0.2-0.7,0.2-1.4,0.2-2.3v-3c0-2.3,0-3.6-0.1-4.1
				c-0.1-0.9-0.2-1.6-0.5-2c-0.2-0.5-0.6-0.8-1-1c-0.4-0.2-1-0.3-1.8-0.3C1596.5,318.9,1595.6,318.8,1594.5,318.8z"/>
		</g>
	</g>
</g>
<g id="XMLID_675_">
	<rect id="XMLID_1004_" x="1715.5" y="96.2" class="st0" width="475.2" height="307.5"/>
	<rect id="XMLID_1003_" x="1729.4" y="172.1" class="st0" width="447.2" height="167.7"/>
	<g id="XMLID_987_">
		<g id="XMLID_1041_">
			<path id="XMLID_1052_" class="st1" d="M1864.9,230h-15.8c-4.2,0-7.7-3.5-7.7-7.7s3.5-7.7,7.7-7.7h26.2v-6.3h-26.2
				c-7.7,0-13.9,6.2-13.9,13.9c0,7.7,6.2,13.9,13.9,13.9h15.8c4.2,0,7.7,3.5,7.7,7.7s-3.5,7.7-7.7,7.7h-28.4v6.3h28.4
				c7.7,0,13.9-6.2,13.9-13.9C1878.8,236.3,1872.5,230,1864.9,230z"/>
			<path id="XMLID_1051_" class="st1" d="M1985.4,207.6c-12.6,0-22.9,10.3-22.9,22.9v27.4h6.3v-27.4c0-9.2,7.5-16.7,16.7-16.7
				c9.2,0,16.7,7.5,16.7,16.7v27.4h6.3v-27.4C2008.3,217.8,1998.1,207.6,1985.4,207.6z"/>
			<path id="XMLID_1050_" class="st1" d="M1787.4,222.4v21.6c0,7.7,6.2,13.9,13.9,13.9h26.2v-6.3h-26.2c-4.2,0-7.7-3.5-7.7-7.7v-7.5
				h33.9V230h-33.9v-7.7c0-4.2,3.5-7.7,7.7-7.7h26.2v-6.3h-26.2C1793.6,208.4,1787.4,214.8,1787.4,222.4z"/>
			<rect id="XMLID_1049_" x="1888.1" y="208.4" class="st1" width="6.3" height="36.2"/>
			<path id="XMLID_1048_" class="st1" d="M1891.2,249.4c-2.6,0-4.7,2.1-4.7,4.7c0,2.6,2.1,4.7,4.7,4.7c2.6,0,4.7-2.1,4.7-4.7
				C1895.9,251.5,1893.8,249.4,1891.2,249.4z"/>
			<path id="XMLID_1047_" class="st1" d="M1955.6,230h-32.3v6.3h25.9l-0.1,0.4c-1.7,9.2-9.7,15.8-19,15.8
				c-10.7,0-19.3-8.7-19.3-19.3s8.7-19.3,19.3-19.3c6.5,0,12.6,3.3,16.2,8.8h7.1c-4.1-9.2-13.2-15.1-23.4-15.1
				c-14.1,0-25.6,11.4-25.6,25.6c0,14.1,11.4,25.6,25.6,25.6c14.1,0,25.6-11.4,25.6-25.6C1955.8,232.2,1955.7,231.1,1955.6,230z"/>
			<g id="XMLID_1044_">
				<path id="XMLID_1046_" class="st1" d="M2033.2,208.7c-1.2-0.5-2.6-0.2-3.5,0.7l-11.6,11.6l4.4,4.4l6.3-6.3v38.7h6.3v-46.3
					C2035.1,210.3,2034.4,209.2,2033.2,208.7z"/>
				<path id="XMLID_1045_" class="st1" d="M2124.7,221.1l-11.6-11.6c-0.9-0.9-2.3-1.2-3.5-0.7c-1.2,0.5-2,1.6-2,2.9v46.3h6.3v-38.7
					l6.3,6.3L2124.7,221.1z"/>
			</g>
			<path id="XMLID_1043_" class="st1" d="M2100,228.8l-3.3,3.3l-0.1-0.7c-1-13.3-12.1-23.8-25.5-23.8c-10.3,0-19.2,6.1-23.3,14.9
				l5.5,3c3-6.8,9.8-11.5,17.7-11.5l0,0c9.9,0,18.1,7.4,19.2,17.3l0.1,0.9l-3.3-3.3l-2,2l8.4,8.4l8.4-8.4L2100,228.8z"/>
			<path id="XMLID_1042_" class="st1" d="M2042.3,237.6l3.3-3.3l0.1,0.7c1,13.3,12.1,23.8,25.5,23.8c10.3,0,19.2-6.1,23.3-14.9
				l-5.5-3c-3,6.8-9.8,11.5-17.7,11.5l0,0c-9.9,0-18.1-7.4-19.2-17.3l-0.1-0.9l3.3,3.3l2-2l-8.4-8.4l-8.4,8.4L2042.3,237.6z"/>
		</g>
		<g id="XMLID_1036_">
			<rect id="XMLID_1040_" x="1802.1" y="280.2" class="st1" width="2.3" height="19.3"/>
			<path id="XMLID_1037_" class="st1" d="M1793.7,279.8c-3.1,0-5.6,2.5-5.6,5.6c0,3.1,2.5,5.6,5.6,5.6c3.1,0,5.6-2.6,5.6-5.6
				C1799.4,282.4,1796.8,279.8,1793.7,279.8z M1793.7,288.8c-1.9,0-3.4-1.5-3.4-3.4c0-1.9,1.5-3.4,3.4-3.4s3.4,1.5,3.4,3.4
				C1797.1,287.3,1795.6,288.8,1793.7,288.8z"/>
		</g>
		<g id="XMLID_1022_">
			<path id="XMLID_1033_" class="st1" d="M1915.9,291.1c3.1,0,5.6-2.6,5.6-5.6c0-3.1-2.5-5.6-5.6-5.6c-3.1,0-5.6,2.5-5.6,5.6
				C1910.3,288.5,1912.9,291.1,1915.9,291.1z M1915.9,282.1c1.9,0,3.4,1.5,3.4,3.4c0,1.9-1.5,3.4-3.4,3.4s-3.4-1.5-3.4-3.4
				C1912.6,283.6,1914,282.1,1915.9,282.1z"/>
			<rect id="XMLID_1032_" x="1925.2" y="280.2" class="st1" width="2.3" height="15"/>
			<path id="XMLID_1023_" class="st1" d="M1917.1,295.1h-2.3v4.7c0,0.6,0.5,1.1,1.1,1.1h12v-2.3H1917L1917.1,295.1L1917.1,295.1z"/>
		</g>
		<g id="XMLID_1013_">
			<path id="XMLID_1019_" class="st1" d="M1975.4,295.1h-2.3v4.7c0,0.6,0.5,1.1,1.1,1.1h12.8v-2.3h-11.7L1975.4,295.1L1975.4,295.1z
				"/>
			<path id="XMLID_1015_" class="st1" d="M1973.5,293.3h2.3v-2.8h5.7v-2.3h-2.9l0.3-0.4c0.6-0.9,0.9-1.8,0.9-2.9
				c0-2.9-2.3-5.1-5.1-5.1s-5.1,2.3-5.1,5.1c0,1,0.3,2,0.9,2.9l0.3,0.4h-1.5v2.3h4.4v2.8H1973.5z M1971.7,285c0-1.6,1.3-2.9,2.9-2.9
				c1.6,0,2.9,1.3,2.9,2.9c0,1.6-1.3,2.9-2.9,2.9C1973,287.8,1971.7,286.6,1971.7,285z"/>
			<polygon id="XMLID_1014_" class="st1" points="1984.2,296.6 1986.4,296.6 1986.4,280.2 1984.2,280.2 1984.2,292.8 1980.4,292.8 
				1980.4,295 1984.2,295 			"/>
		</g>
		<g id="XMLID_1000_">
			<path id="XMLID_1012_" class="st1" d="M2100.8,295.1h-2.3v4.7c0,0.6,0.5,1.1,1.1,1.1h12.8v-2.3h-11.6V295.1z"/>
			<path id="XMLID_1005_" class="st1" d="M2099,293.3h2.3v-2.8h5.7v-2.3h-2.9l0.3-0.4c0.6-0.9,0.9-1.8,0.9-2.9
				c0-2.9-2.3-5.1-5.1-5.1s-5.1,2.3-5.1,5.1c0,1,0.3,2,0.9,2.9l0.3,0.4h-1.5v2.3h4.4v2.8H2099z M2097.2,285c0-1.6,1.3-2.9,2.9-2.9
				c1.6,0,2.9,1.3,2.9,2.9c0,1.6-1.3,2.9-2.9,2.9C2098.5,287.8,2097.2,286.6,2097.2,285z"/>
			<polygon id="XMLID_1001_" class="st1" points="2109.6,296.6 2111.9,296.6 2111.9,280.2 2109.6,280.2 2109.6,292.8 2105.8,292.8 
				2105.8,295 2109.6,295 			"/>
		</g>
		<g id="XMLID_995_">
			<path id="XMLID_999_" class="st1" d="M1864.3,281.7v17.8h2.3v-16.8h4v-2.3h-5.1C1864.8,280.6,1864.3,281.1,1864.3,281.7z"/>
			<polygon id="XMLID_996_" class="st1" points="1860.9,283.1 1860.9,280.8 1850,280.8 1850,283.1 1853.6,283.1 1849.8,291.1 
				1852.3,291.1 1855.5,284.3 1858.6,291.1 1861.1,291.1 1857.4,283.1 			"/>
		</g>
		<g id="XMLID_988_">
			<path id="XMLID_989_" class="st1" d="M2040.7,291.8h0.2c2.8-0.6,4.7-3.1,4.7-5.9c0-3.4-2.7-6-6-6c-3.4,0-6,2.7-6,6
				c0,2.8,2,5.2,4.7,5.9h0.2v4.8h-6.7v2.3h15.7v-2.3h-6.7L2040.7,291.8L2040.7,291.8z M2035.7,285.9c0-2.1,1.7-3.8,3.8-3.8
				c2.1,0,3.7,1.7,3.7,3.8c0,2.1-1.7,3.8-3.7,3.8C2037.5,289.7,2035.7,287.9,2035.7,285.9z"/>
		</g>
	</g>
</g>
<g id="XMLID_674_">
	<rect id="XMLID_1124_" x="2211.5" y="96.2" class="st0" width="475.2" height="307.5"/>
	<rect id="XMLID_1123_" x="2225.4" y="172.1" class="st0" width="447.2" height="167.7"/>
	<g id="XMLID_1094_">
		<path id="XMLID_1118_" class="st1" d="M2265.2,272.4c-5,0-8.3-1.3-11.8-4.7l7-6.9c1.4,1.3,2.5,2.2,4.8,2.2c3.4,0,5.7-1.9,5.7-6
			v-28.3h10.7v28.6C2281.6,267.5,2273.4,272.4,2265.2,272.4z"/>
		<path id="XMLID_1116_" class="st1" d="M2305.4,272.4c-9.1,0-16.4-6.1-16.4-15.6v-19l10.7-9.3v27.9c0,4,2.2,6.3,5.7,6.3
			c3.6,0,5.8-2.3,5.8-6.3v-27.9h10.7v28.2C2321.9,266.3,2314.4,272.4,2305.4,272.4z"/>
		<path id="XMLID_1114_" class="st1" d="M2342.4,272.4c-6.7,0-12.1-1.3-16.5-5.7l6.8-6.9c2.3,2.3,6.2,3.1,9.7,3.1
			c4.2,0,6.2-1.4,6.2-3.9c0-1.1-0.2-1.9-0.9-2.6c-0.6-0.6-1.5-1-2.9-1.2l-5.2-0.8c-3.8-0.5-6.8-1.8-8.7-3.8c-2.1-2.1-3-5-3-8.7
			c0-8,6-13.7,15.9-13.7c6.2,0,10.9,1.5,14.6,5.2l-6.7,6.7c-2.8-2.8-6.3-2.6-8.2-2.6c-3.7,0-5.2,2.2-5.2,4c0,0.6,0.2,1.4,0.9,2
			c0.5,0.6,1.5,1.1,3,1.3l5.2,0.8c3.9,0.5,6.7,1.8,8.6,3.6c2.3,2.3,3.3,5.5,3.3,9.6C2359.2,267.6,2351.6,272.4,2342.4,272.4z"/>
		<path id="XMLID_1112_" class="st1" d="M2385,238.1v27l-10.7,6.9v-33.9h-10.7v-9.6h32.1v9.6H2385L2385,238.1z"/>
		<path id="XMLID_1109_" class="st1" d="M2423,253.7h-12.6v18.4h-3.3v-43.5h16c7.5,0,13.1,4.5,13.1,12.5
			C2436.1,249.1,2430.5,253.7,2423,253.7z M2422.6,231.5h-12.2v19.1h12.2c6,0,10.3-3.1,10.3-9.6
			C2432.9,234.6,2428.6,231.5,2422.6,231.5z"/>
		<path id="XMLID_1106_" class="st1" d="M2469.3,272.1l-10.4-20h-12v20h-3.3v-43.5h16.6c7.1,0,12.4,4.1,12.4,11.6
			c0,6.5-3.9,10.7-10.1,11.7l10.5,20.1H2469.3z M2459.8,231.5H2447v17.7h12.8c5.5,0,9.6-2.9,9.6-8.8
			C2469.4,234.4,2465.4,231.5,2459.8,231.5z"/>
		<path id="XMLID_1103_" class="st1" d="M2506.9,268c-2.9,2.9-6.8,4.4-10.8,4.4c-4.1,0-8-1.6-10.8-4.4c-3.9-3.9-4-7.8-4-17.7
			c0-9.8,0.1-13.7,4-17.7c2.9-2.9,6.8-4.4,10.8-4.4s8,1.6,10.8,4.4c3.9,3.9,4,7.8,4,17.7S2510.9,264.1,2506.9,268z M2504.3,234.6
			c-2.2-2.2-5.1-3.4-8.3-3.4s-6,1.2-8.2,3.4c-3.2,3.2-3.4,6.5-3.4,15.8c0,9.4,0.2,12.7,3.4,15.8c2.2,2.2,5.1,3.4,8.2,3.4
			c3.2,0,6-1.2,8.3-3.4c3.1-3.2,3.4-6.5,3.4-15.8C2507.6,241,2507.4,237.6,2504.3,234.6z"/>
		<path id="XMLID_1101_" class="st1" d="M2524.9,272.4c-3.9,0-7-1.3-9.6-3.7l2.3-2.3c1.7,1.7,3.5,3.1,7.3,3.1
			c6.2,0,9.7-3.9,9.7-10.9v-30h3.3v30.7C2537.8,267.2,2532.8,272.4,2524.9,272.4z"/>
		<path id="XMLID_1099_" class="st1" d="M2548.7,272.1v-43.5h26.3v3H2552v17.2h19.6v3H2552v17.6h23.1v3L2548.7,272.1L2548.7,272.1z"
			/>
		<path id="XMLID_1097_" class="st1" d="M2597.4,272.4c-4,0-8-1.6-10.8-4.4c-3.9-3.9-4-7.8-4-17.7c0-9.8,0.1-13.7,4-17.7
			c2.9-2.9,6.8-4.4,10.8-4.4c5.2,0,8.8,2.2,12.2,5.4l-2.2,2.2c-3-3-5.5-4.7-10.1-4.7c-3.2,0-6.1,1.2-8.2,3.4
			c-3.2,3.2-3.4,6.5-3.4,15.8c0,9.4,0.3,12.7,3.4,15.8c2.1,2.2,5.1,3.4,8.2,3.4c4.5,0,7.1-1.8,10.1-4.7l2.2,2.2
			C2606.2,270.4,2602.6,272.4,2597.4,272.4z"/>
		<path id="XMLID_1095_" class="st1" d="M2631.8,231.5v40.5h-3.4v-40.5h-12.9v-3h29.3v3H2631.8z"/>
	</g>
</g>
<g id="XMLID_392_">
	<rect id="XMLID_1174_" x="2707.5" y="96.2" class="st0" width="475.2" height="307.5"/>
	<rect id="XMLID_1173_" x="2721.5" y="172.1" class="st0" width="447.2" height="167.7"/>
	<g id="XMLID_389_">
		<polygon id="XMLID_659_" class="st1" points="2972.3,236.7 2963.6,236.7 2963.6,207.9 2958.3,207.9 2958.3,241.5 2972.3,241.5 		
			"/>
		<polygon id="XMLID_658_" class="st1" points="2936.5,236.7 2927.4,236.7 2927.4,226.8 2934.7,226.8 2934.7,222.1 2927.4,222.1 
			2927.4,212.7 2936.5,212.7 2936.5,207.9 2922.1,207.9 2922.1,241.5 2936.5,241.5 		"/>
		<polygon id="XMLID_657_" class="st1" points="2976.6,241.5 2981.9,241.5 2981.9,230.3 2988.6,207.9 2983.6,207.9 2979.5,223.1 
			2979.4,223.1 2975.5,207.9 2970,207.9 2976.6,230.3 		"/>
		<path id="XMLID_656_" class="st1" d="M2996,228.9h2.5c5.3,0,7.9-3,7.9-8.3v-4.3c0-5.4-2.6-8.3-7.9-8.3h-7.8v33.6h5.3V228.9z
			 M2996,212.7h2.5c1.7,0,2.6,0.8,2.6,3.2v5c0,2.4-0.9,3.2-2.6,3.2h-2.5V212.7z"/>
		<path id="XMLID_655_" class="st1" d="M2947.3,241.9c5.2,0,7.9-3.1,7.9-8.5V229h-5v4.8c0,2.4-1.1,3.3-2.8,3.3s-2.8-0.9-2.8-3.3
			v-18.1c0-2.4,1.1-3.4,2.8-3.4s2.8,0.9,2.8,3.4v3.6h5V216c0-5.4-2.7-8.5-7.9-8.5s-7.9,3.1-7.9,8.5v17.4
			C2939.4,238.8,2942.1,241.9,2947.3,241.9z"/>
		<path id="XMLID_654_" class="st1" d="M2846.1,169.2v171.5h198.2V169.2H2846.1z M3020.7,307.3L3020.7,307.3
			c-0.2,1.3-1.3,2.3-2.6,2.3c-0.4,0-0.7-0.1-1.1-0.2c-0.5-0.2-0.9-0.4-1.4-0.7c-1.7-0.8-3.2-1.5-4.7-1.9c-2.1-0.5-4.1-0.7-6.1-0.7
			c-6.8,0-12.4,3-17.3,8.9c-0.4,0.5-1.4,1.8-3.1,1.8c-1.5,0-2.5-1.1-3.1-1.7c-4.4-4.8-10.3-7.5-16.5-7.5c-6.6,0-12.6,3-17.2,8.4
			c-0.4,0.5-1.4,1.7-3,1.7c-1.6,0-2.6-1.2-3.1-1.8c-4.3-5.2-10.6-8.2-17.1-8.2c-6.6,0-12.8,3-17.2,8.3l-0.1,0.1
			c-0.5,0.6-1.4,1.7-3,1.7c-1.6,0-2.6-1.1-2.9-1.5c-4.8-5.5-10.7-8.5-16.9-8.5c-3.6,0-7.2,0.9-10.9,2.8c-0.3,0.1-0.5,0.2-0.8,0.3
			c-0.1,0-0.2,0.1-0.3,0.1c-0.9,0.3-1.8,0.1-2.5-0.5c-0.5-0.4-0.8-1-0.8-1.7l0,0V192.5h151.1L3020.7,307.3L3020.7,307.3z"/>
		<path id="XMLID_653_" class="st1" d="M2910.6,241.9c5.2,0,7.9-3.1,7.9-8.5v-25.6h-5v25.9c0,2.4-1.1,3.3-2.8,3.3
			c-1.7,0-2.8-0.9-2.8-3.3v-25.9h-5.3v25.6C2902.7,238.8,2905.5,241.9,2910.6,241.9z"/>
		<path id="XMLID_625_" class="st1" d="M2891.9,241.9c5.2,0,7.9-3.1,7.9-8.5V229h-5v4.8c0,2.4-1.1,3.3-2.8,3.3s-2.8-0.9-2.8-3.3
			v-18.1c0-2.4,1.1-3.4,2.8-3.4s2.8,0.9,2.8,3.4v3.6h5V216c0-5.4-2.7-8.5-7.9-8.5s-7.9,3.1-7.9,8.5v17.4
			C2884,238.8,2886.7,241.9,2891.9,241.9z"/>
		<path id="XMLID_617_" class="st1" d="M2904.7,311.6c5.2-5.8,12.5-9.1,20.2-9.1c7.6,0,14.9,3.3,20.1,9.1c5.3-5.8,12.6-9.1,20.1-9.1
			c7.3,0,14.1,3,19.4,8.4c5.6-6.5,12.4-9.9,20.3-9.9c2.4,0,4.7,0.3,7.2,0.9c0.8,0.2,1.5,0.4,2.3,0.7c-3.8-12-11.6-23.7-21.8-32.4
			c-9.3-7.9-25-17.4-47.3-17.4c-1.9,0-3.8,0.1-5.8,0.2c-16.2,1.2-31.2,7.7-43.3,18.8c-9.9,9.1-17.1,20.4-20.4,32.3
			c3.2-1.1,6.2-1.6,9.3-1.6C2892.3,302.5,2899.1,305.6,2904.7,311.6z"/>
		<path id="XMLID_520_" class="st0" d="M3001,220.9v-5c0-2.4-0.9-3.2-2.6-3.2h-2.5V224h2.5C3000.1,224,3001,223.2,3001,220.9z"/>
		<path id="XMLID_449_" class="st0" d="M2869.7,308.5L2869.7,308.5c0.1,0.6,0.4,1.2,0.9,1.7c0.7,0.6,1.6,0.8,2.5,0.5
			c0.1,0,0.2-0.1,0.3-0.1c0.2-0.1,0.5-0.2,0.8-0.3c3.7-1.8,7.4-2.8,10.9-2.8c6.2,0,12.1,3,16.9,8.5c0.3,0.4,1.3,1.5,2.9,1.5
			c1.6,0,2.4-1.1,3-1.7l0.1-0.1c4.3-5.2,10.6-8.3,17.2-8.3c6.5,0,12.7,3,17.1,8.2c0.5,0.6,1.5,1.8,3.1,1.8c1.6,0,2.6-1.2,3-1.7
			c4.5-5.4,10.6-8.4,17.2-8.4c6.2,0,12,2.7,16.5,7.5c0.6,0.6,1.5,1.7,3.1,1.7c1.7,0,2.7-1.3,3.1-1.8c4.8-6,10.5-8.9,17.3-8.9
			c2,0,4,0.2,6.1,0.7c1.6,0.4,3.2,1.1,4.7,1.9c0.5,0.2,0.9,0.4,1.4,0.7c0.3,0.2,0.7,0.2,1.1,0.2c1.3,0,2.3-1,2.5-2.3h0.1V192.5
			h-151.1v116.1L2869.7,308.5L2869.7,308.5z M2990.7,207.9h7.8c5.3,0,7.9,3,7.9,8.3v4.3c0,5.4-2.6,8.3-7.9,8.3h-2.5v12.6h-5.3V207.9
			z M2975.5,207.9l3.9,15.3h0.1l3.9-15.3h5l-6.7,22.5v11.1h-5.3v-11.1l-6.7-22.5H2975.5z M2958.3,207.9h5.3v28.8h8.7v4.8h-14V207.9z
			 M2939.4,215.9c0-5.4,2.7-8.5,7.9-8.5s7.9,3.1,7.9,8.5v3.3h-5v-3.6c0-2.4-1.1-3.4-2.8-3.4s-2.8,0.9-2.8,3.4v18.1
			c0,2.4,1.1,3.3,2.8,3.3s2.8-0.9,2.8-3.3v-4.8h5v4.4c0,5.4-2.7,8.5-7.9,8.5s-7.9-3.1-7.9-8.5V215.9z M2922.1,207.9h14.4v4.8h-9.2
			v9.4h7.3v4.8h-7.3v9.9h9.2v4.8h-14.4V207.9z M2902.7,207.9h5.3v25.9c0,2.4,1.1,3.3,2.8,3.3s2.8-0.9,2.8-3.3v-25.9h5v25.6
			c0,5.4-2.7,8.5-7.9,8.5s-7.9-3.1-7.9-8.5L2902.7,207.9L2902.7,207.9z M2884,215.9c0-5.4,2.7-8.5,7.9-8.5s7.9,3.1,7.9,8.5v3.3h-5
			v-3.6c0-2.4-1.1-3.4-2.8-3.4s-2.8,0.9-2.8,3.4v18.1c0,2.4,1.1,3.3,2.8,3.3s2.8-0.9,2.8-3.3v-4.8h5v4.4c0,5.4-2.7,8.5-7.9,8.5
			s-7.9-3.1-7.9-8.5V215.9z M2896.2,271.8c12.1-11.1,27.1-17.7,43.3-18.8c2-0.1,3.8-0.2,5.8-0.2c22.4,0,38.1,9.5,47.3,17.4
			c10.2,8.7,17.9,20.3,21.8,32.4c-0.7-0.3-1.5-0.5-2.3-0.7c-2.5-0.6-4.9-0.9-7.2-0.9c-7.9,0-14.8,3.4-20.3,9.9
			c-5.3-5.4-12.1-8.4-19.4-8.4c-7.5,0-14.8,3.4-20.1,9.1c-5.2-5.8-12.4-9.1-20.1-9.1c-7.7,0-14.9,3.3-20.2,9.1
			c-5.6-5.9-12.3-9.1-19.6-9.1c-3.1,0-6.1,0.6-9.3,1.6C2879.1,292.2,2886.2,280.8,2896.2,271.8z"/>
	</g>
</g>
<g id="XMLID_397_">
	<rect id="XMLID_1397_" x="721.3" y="424.3" class="st0" width="475.2" height="307.5"/>
	<rect id="XMLID_1396_" x="735.3" y="500.1" class="st0" width="447.2" height="167.7"/>
	<g id="XMLID_522_">
		<g id="XMLID_638_">
			<path id="XMLID_639_" class="st1" d="M1076.1,522.5c0,0-2.7-9.1-13.2-12.8c-7.8-2.8-16.9,0.9-18.1,3.6
				c-1.3-21.8-30.7-36.1-55.5-26.3c-29.9,11.7-23.8,46.1-23.8,46.1s-23.3,0.3-25,22.1c-1.6,19.9,18.9,23.9,18.9,23.9
				s-1.2,23.5,20.1,33.5c39.4,18.6,62-8.4,62-8.4s4.2,6.2,12.5,8.8c2.6,0.8,4.5,2,5,5.7c2.8,19.5-2.7,29.4-1.3,43.6
				c0.5,4.6,3,7.9,7,7.8c3.1,0,6-2.1,7-7.2c2.5-13-5-31.2-2.6-45.5c0.7-4,4.8-5.1,7.7-6.5c20.4-9.6,15.9-28.8,15.9-28.8
				s30.4-9.7,21.8-38.8C1107.4,518.6,1076,522.5,1076.1,522.5z"/>
		</g>
		<path id="XMLID_635_" class="st1" d="M861.6,660.3h-14.9v-32h-4v35.5h18.8L861.6,660.3L861.6,660.3z"/>
		<path id="XMLID_555_" class="st1" d="M868.6,632.5c-2.1,3.2-3.1,7.7-3.1,13.7c0,6,1,10.6,3.1,13.7c2.1,3.2,5,4.7,8.9,4.7
			c3.9,0,6.9-1.6,8.9-4.7c2.1-3.2,3.1-7.7,3.1-13.7c0-6-1-10.6-3.1-13.7c-2.1-3.2-5-4.7-8.9-4.7
			C873.7,627.7,870.7,629.3,868.6,632.5z M871.8,657.2c-1.3-2.6-2-6.2-2-11c0-4.7,0.7-8.5,2-10.9c1.3-2.6,3.2-3.8,5.7-3.8
			c5.1,0,7.7,4.9,7.7,14.8c0,9.9-2.6,14.8-7.7,14.8C875,661,873.1,659.7,871.8,657.2z"/>
		<path id="XMLID_553_" class="st1" d="M917.7,628.4h-4v24.1c0,5.2-1.8,8.6-5.8,8.6s-6-3.6-6-8.5v-24.1h-4v24.5
			c0,6.9,3.4,11.7,10.1,11.7c6.6,0,9.9-4.4,9.9-11.8L917.7,628.4L917.7,628.4z"/>
		<path id="XMLID_550_" class="st1" d="M926.1,664h7c4.3,0,7.9-1.6,10.7-4.6c2.8-3.1,4.1-7.5,4.1-13.1c0-5.5-1.4-9.9-4.1-13
			c-2.8-3.2-6.4-4.7-10.9-4.7H926L926.1,664L926.1,664z M930.2,632h2.9c3.3,0,5.9,1.3,7.8,3.7c2,2.6,2.9,6,2.9,10.4
			c0,4.4-1,7.9-2.9,10.5c-1.9,2.5-4.5,3.7-7.8,3.7h-2.9V632z"/>
		<path id="XMLID_548_" class="st1" d="M969.8,628.4h-6.6l2.6,3.6v22.2c0,2.4-0.5,4-1.4,5.1c-0.9,1.1-2.4,1.7-4.4,1.7
			c-2.4,0-4.5-0.5-6.4-1.5l-1.2,3.3c2.3,1.2,4.8,1.8,7.7,1.8c3.3,0,5.6-0.9,7.3-2.7c1.7-1.8,2.5-4.2,2.5-7.5L969.8,628.4
			L969.8,628.4z"/>
		<path id="XMLID_545_" class="st1" d="M994.5,628.4h-4.8l-11.3,35.5h4.1l3.8-12.4h11.3l3.8,12.4h4.2L994.5,628.4z M987.5,647.9
			l4.5-14.7l4.5,14.7H987.5z"/>
		<path id="XMLID_543_" class="st1" d="M1035.3,628.4h-5.2l-5.8,16.2l-5.8-16.2h-5.2v35.5h3.8v-30.4l5.2,14.6l1.8,4.9l2.1-4.9
			l5.2-14.6V664h3.8L1035.3,628.4L1035.3,628.4z"/>
		<path id="XMLID_523_" class="st1" d="M836.6,628.4c0,0-4.5,0-7.6,0c-7.2,0-15.5,5.3-15.5,17.9c0,12.8,8.1,17.6,18,17.6h2.8v-3.6
			c0,0-1.3,0-2.1,0c-8.7,0-14.7-4.9-14.7-14.8c0-6.8,5.2-13.4,12.8-13.4c4.9,0,4,0,4,0L836.6,628.4z"/>
	</g>
</g>
<g id="XMLID_396_">
	<rect id="XMLID_1268_" x="1219.6" y="424.3" class="st0" width="475.2" height="307.5"/>
	<rect id="XMLID_1267_" x="1233.5" y="500.1" class="st0" width="447.2" height="167.7"/>
	<g id="XMLID_1233_">
		<g id="XMLID_1334_">
			<g id="XMLID_1388_">
				<g id="XMLID_1221_">
					<polygon id="XMLID_1630_" class="st1" points="1351.6,575.4 1337.2,575.4 1337.2,640.7 1351.6,640.7 					"/>
				</g>
				<polygon id="XMLID_1220_" class="st1" points="1351.4,642 1336.9,642 1336.9,642 1351.4,656.5 1351.4,656.5 1374.1,656.5 
					1374.1,642 				"/>
				<polygon id="XMLID_1219_" class="st1" points="1390.4,535.3 1373.5,513.8 1357.8,513.8 1369.1,528.1 1320,528.1 1320,528.1 
					1305.1,542.6 1320,542.6 1369,542.6 1357.8,556.8 1357.9,556.9 1373.4,556.9 				"/>
				<polygon id="XMLID_1218_" class="st1" points="1337.2,559.6 1337.2,559.6 1320,559.6 1305.1,559.6 1320,574.1 1320,574.1 
					1337.2,574.1 1351.6,574.1 				"/>
				<g id="XMLID_1217_">
					<rect id="XMLID_1622_" x="1305" y="543.8" class="st1" width="15" height="14.5"/>
				</g>
			</g>
			<g id="XMLID_1335_">
				<g id="XMLID_2420_">
					<path id="XMLID_2444_" class="st1" d="M1440,536.3h-11.9v32.7h-10.5v-32.7h-11.9v-9.5h34.3L1440,536.3L1440,536.3z"/>
					<path id="XMLID_2441_" class="st1" d="M1443.8,539.4c0.9-2.7,2.2-5,3.8-7c1.7-2,3.7-3.6,6.2-4.7c2.5-1.1,5.2-1.7,8.3-1.7
						s5.8,0.6,8.3,1.7c2.5,1.1,4.5,2.7,6.2,4.7c1.7,2,3,4.3,3.8,7c0.9,2.7,1.3,5.5,1.3,8.6c0,3.1-0.4,5.9-1.3,8.6
						c-0.9,2.7-2.2,5-3.8,7c-1.7,2-3.7,3.6-6.2,4.7c-2.5,1.1-5.2,1.7-8.3,1.7s-5.8-0.6-8.3-1.7c-2.5-1.1-4.5-2.7-6.2-4.7
						c-1.7-2-3-4.3-3.8-7c-0.9-2.7-1.3-5.5-1.3-8.6S1443,542.1,1443.8,539.4z M1453.5,552.6c0.4,1.5,0.9,2.9,1.7,4
						c0.8,1.2,1.7,2.1,3,2.8c1.2,0.7,2.6,1.1,4.2,1.1c1.6,0,3.1-0.4,4.2-1.1c1.2-0.7,2.2-1.6,3-2.8s1.3-2.6,1.7-4
						c0.4-1.5,0.5-3.1,0.5-4.6c0-1.6-0.2-3.2-0.5-4.6c-0.4-1.5-0.9-2.9-1.7-4c-0.8-1.2-1.7-2.1-3-2.8c-1.2-0.7-2.6-1-4.2-1
						c-1.6,0-3.1,0.4-4.2,1c-1.2,0.7-2.2,1.6-3,2.8c-0.8,1.2-1.3,2.6-1.7,4c-0.4,1.5-0.5,3.1-0.5,4.6
						C1453,549.6,1453.2,551.1,1453.5,552.6z"/>
					<path id="XMLID_2439_" class="st1" d="M1521.8,551.6c0,6.2-1.4,10.7-4.2,13.8c-2.9,3.1-7.2,4.5-13.2,4.5
						c-6,0-10.4-1.5-13.2-4.5s-4.2-7.6-4.2-13.8v-24.8h10.5v25.4c0,2.8,0.6,4.8,1.7,6.2c1.1,1.4,2.9,2,5.4,2c2.5,0,4.3-0.7,5.4-2
						c1.1-1.4,1.7-3.5,1.7-6.2v-25.4h10.5v24.8H1521.8z"/>
					<path id="XMLID_2437_" class="st1" d="M1554.9,542c-0.3-2.1-1.1-3.6-2.6-4.8c-1.5-1.1-3.3-1.7-5.5-1.7c-1.6,0-3.1,0.4-4.2,1
						c-1.2,0.7-2.2,1.6-3,2.8c-0.8,1.2-1.3,2.6-1.7,4c-0.4,1.5-0.5,3.1-0.5,4.6c0,1.6,0.2,3.2,0.5,4.6c0.4,1.5,0.9,2.9,1.7,4
						c0.8,1.2,1.7,2.1,3,2.8c1.2,0.7,2.6,1.1,4.2,1.1c2.5,0,4.3-0.7,5.7-2.1c1.4-1.4,2.2-3.3,2.4-5.7h10.5c-0.2,2.7-0.7,5.1-1.7,7.2
						c-1,2.2-2.3,3.9-3.8,5.4c-1.7,1.5-3.6,2.6-5.7,3.4c-2.2,0.8-4.5,1.2-7.1,1.2c-3,0-5.7-0.6-8.2-1.7c-2.5-1.1-4.6-2.7-6.4-4.7
						c-1.8-2-3.2-4.3-4-7c-1-2.7-1.4-5.5-1.4-8.6c0-3.1,0.5-5.9,1.4-8.6s2.3-5,4-7c1.8-2,3.9-3.6,6.4-4.7c2.5-1.1,5.2-1.7,8.2-1.7
						c2.2,0,4.3,0.4,6.5,1.1c2.2,0.7,4,1.8,5.8,3.2c1.8,1.4,3.2,3.1,4.2,5.1c1.1,2,1.7,4.2,1.7,6.6h-10.4L1554.9,542L1554.9,542z"/>
					<path id="XMLID_2435_" class="st1" d="M1570.2,526.9h10.5v15.4h13.8v-15.4h10.5v42.2h-10.5v-17.4h-13.8v17.4h-10.5V526.9z"/>
					<path id="XMLID_2432_" class="st1" d="M1438.1,604.6v8.5h-5.1v9.2h-9.6v-9.2h-17.2v-9.4l17.6-22.7h9.2v23.6H1438.1z
						 M1423.8,604.6v-13.3h-0.1l-9.9,13.3H1423.8z"/>
					<path id="XMLID_2430_" class="st1" d="M1480,622.2h-6.7l-0.6-4.6c-1.3,1.9-3,3.3-4.9,4.1c-2.1,0.9-4.1,1.3-6.2,1.3
						c-3,0-5.7-0.6-8.2-1.7c-2.5-1.1-4.6-2.7-6.4-4.7c-1.8-2-3.2-4.3-4-7c-1-2.7-1.4-5.5-1.4-8.6c0-3.1,0.5-5.9,1.4-8.6s2.3-5,4-7
						c1.8-2,3.9-3.6,6.4-4.7c2.5-1.1,5.2-1.7,8.2-1.7c2.2,0,4.2,0.3,6.3,0.9c2.1,0.6,3.9,1.6,5.6,2.8c1.7,1.3,3.1,2.9,4.2,4.8
						c1.1,2,1.8,4.1,2,6.7h-10.5c-0.2-1.8-1-3.2-2.5-4.2s-3.4-1.6-5.5-1.6c-1.6,0-3.1,0.4-4.2,1c-1.2,0.7-2.2,1.6-3,2.8
						c-0.8,1.2-1.3,2.6-1.7,4c-0.4,1.5-0.5,3.1-0.5,4.6c0,1.6,0.2,3.2,0.5,4.6c0.4,1.5,0.9,2.9,1.7,4c0.8,1.2,1.7,2.1,3,2.8
						c1.2,0.7,2.6,1.1,4.2,1.1c2.6,0,4.7-0.6,6.3-1.8c1.7-1.2,2.6-2.7,2.9-4.6h-7.3v-8.2h16.9V622.2L1480,622.2z"/>
					<path id="XMLID_2427_" class="st1" d="M1486,592.6c0.9-2.7,2.2-5,3.8-7c1.7-2,3.7-3.6,6.3-4.7c2.5-1.1,5.2-1.7,8.3-1.7
						s5.8,0.6,8.3,1.7c2.5,1.1,4.5,2.7,6.2,4.7c1.7,2,3,4.3,3.8,7c0.9,2.7,1.3,5.5,1.3,8.6c0,3.1-0.4,5.9-1.3,8.6s-2.2,5-3.8,7
						c-1.7,2-3.7,3.6-6.2,4.7c-2.5,1.1-5.2,1.7-8.3,1.7s-5.8-0.6-8.3-1.7c-2.5-1.1-4.5-2.7-6.3-4.7c-1.7-2-3-4.3-3.8-7
						c-0.9-2.7-1.3-5.5-1.3-8.6S1485.1,595.2,1486,592.6z M1495.6,605.9c0.4,1.5,0.9,2.9,1.7,4c0.8,1.2,1.7,2.1,3,2.8
						c1.2,0.7,2.6,1.1,4.2,1.1c1.6,0,3.1-0.4,4.2-1.1c1.2-0.7,2.2-1.6,3-2.8c0.8-1.2,1.3-2.6,1.7-4c0.4-1.5,0.5-3.1,0.5-4.6
						c0-1.6-0.2-3.2-0.5-4.6c-0.4-1.5-0.9-2.9-1.7-4c-0.8-1.2-1.7-2.1-3-2.8c-1.2-0.7-2.6-1-4.2-1c-1.6,0-3.1,0.4-4.2,1
						c-1.2,0.7-2.2,1.6-3,2.8c-0.8,1.2-1.3,2.6-1.7,4c-0.4,1.5-0.5,3.1-0.5,4.6S1495.3,604.4,1495.6,605.9z"/>
					<path id="XMLID_2424_" class="st1" d="M1529.1,592.6c0.9-2.7,2.2-5,3.8-7c1.7-2,3.7-3.6,6.3-4.7c2.5-1.1,5.2-1.7,8.3-1.7
						s5.8,0.6,8.3,1.7c2.5,1.1,4.5,2.7,6.3,4.7c1.7,2,3,4.3,3.8,7c0.9,2.7,1.3,5.5,1.3,8.6c0,3.1-0.4,5.9-1.3,8.6s-2.2,5-3.8,7
						c-1.7,2-3.7,3.6-6.3,4.7c-2.5,1.1-5.2,1.7-8.3,1.7s-5.8-0.6-8.3-1.7c-2.5-1.1-4.5-2.7-6.3-4.7c-1.7-2-3-4.3-3.8-7
						c-0.9-2.7-1.3-5.5-1.3-8.6C1527.8,598.1,1528.3,595.2,1529.1,592.6z M1538.8,605.9c0.4,1.5,0.9,2.9,1.7,4
						c0.8,1.2,1.7,2.1,3,2.8c1.2,0.7,2.6,1.1,4.2,1.1c1.6,0,3.1-0.4,4.2-1.1s2.2-1.6,3-2.8c0.8-1.2,1.3-2.6,1.7-4
						c0.4-1.5,0.5-3.1,0.5-4.6c0-1.6-0.2-3.2-0.5-4.6c-0.4-1.5-0.9-2.9-1.7-4c-0.8-1.2-1.7-2.1-3-2.8c-1.2-0.7-2.6-1-4.2-1
						c-1.6,0-3.1,0.4-4.2,1c-1.2,0.7-2.2,1.6-3,2.8c-0.8,1.2-1.3,2.6-1.7,4c-0.4,1.5-0.5,3.1-0.5,4.6
						C1538.2,602.8,1538.4,604.4,1538.8,605.9z"/>
					<path id="XMLID_2421_" class="st1" d="M1572.4,580h17.3c6.1,0,10.9,1.9,14.4,5.5c3.5,3.7,5.2,8.9,5.2,15.4
						c0,6.9-1.8,12.1-5.2,15.8c-3.5,3.6-8.3,5.5-14.5,5.5h-17.3L1572.4,580L1572.4,580L1572.4,580z M1582.9,612.8h4.9
						c3.9-0.1,6.8-1,8.5-2.9c1.7-1.8,2.6-4.8,2.6-9.1c0-3.7-1-6.6-2.9-8.6c-1.9-1.9-4.6-2.9-8.2-2.9h-4.9L1582.9,612.8L1582.9,612.8
						z"/>
				</g>
			</g>
		</g>
		<g id="XMLID_1239_">
			<path id="XMLID_1332_" class="st1" d="M1413,652.5c0.2-0.2,0.2-0.1,0.2,0.1v1.4c-0.5,0.4-1,0.7-1.6,0.9c-0.6,0.2-1.2,0.3-1.9,0.3
				c-0.9,0-1.7-0.1-2.5-0.4c-0.7-0.3-1.4-0.6-1.9-1.1c-0.5-0.5-0.9-1.1-1.2-1.9c-0.3-0.8-0.4-1.6-0.4-2.6c0-0.9,0.1-1.8,0.4-2.5
				c0.3-0.8,0.7-1.4,1.2-1.9s1.2-1,1.9-1.2c0.7-0.3,1.6-0.4,2.5-0.4c0.6,0,1.2,0.1,1.8,0.3c0.6,0.2,1.1,0.4,1.6,0.8v1.5
				c0,0.2-0.1,0.3-0.2,0.1c-0.5-0.4-1-0.7-1.5-0.9c-0.5-0.2-1.1-0.2-1.7-0.2c-0.7,0-1.3,0.1-1.8,0.4c-0.5,0.2-0.9,0.6-1.3,1
				c-0.3,0.4-0.6,0.9-0.8,1.5c-0.2,0.6-0.3,1.2-0.3,1.8c0,0.7,0.1,1.3,0.3,1.8c0.2,0.6,0.4,1,0.8,1.4c0.3,0.4,0.8,0.7,1.3,0.9
				c0.5,0.2,1.1,0.3,1.8,0.3c0.6,0,1.2-0.1,1.6-0.3C1412,653.2,1412.5,652.9,1413,652.5z"/>
			<path id="XMLID_1329_" class="st1" d="M1418.9,655.1c-1,0-1.8-0.2-2.5-0.5c-0.7-0.3-1.3-0.8-1.7-1.3c-0.5-0.6-0.8-1.2-1-1.9
				c-0.2-0.7-0.3-1.5-0.3-2.3c0-0.9,0.1-1.7,0.3-2.4c0.2-0.7,0.6-1.4,1-1.9c0.5-0.5,1-1,1.7-1.3c0.7-0.3,1.5-0.5,2.4-0.5
				c0.9,0,1.7,0.2,2.4,0.5c0.7,0.3,1.3,0.7,1.7,1.3c0.5,0.5,0.8,1.2,1,1.9c0.2,0.7,0.3,1.6,0.3,2.4c0,0.8-0.1,1.6-0.3,2.3
				c-0.2,0.7-0.6,1.4-1,1.9c-0.5,0.6-1,1-1.7,1.3C1420.7,654.9,1419.9,655.1,1418.9,655.1z M1418.9,653.6c1.2,0,2-0.4,2.6-1.2
				s0.9-1.9,0.9-3.4c0-1.6-0.3-2.7-0.9-3.5s-1.5-1.1-2.6-1.1c-1.2,0-2,0.4-2.6,1.1c-0.6,0.8-0.9,1.9-0.9,3.5c0,1.5,0.3,2.7,0.9,3.4
				C1416.9,653.2,1417.8,653.6,1418.9,653.6z"/>
			<path id="XMLID_1327_" class="st1" d="M1428.2,637.8v17.1h-1.9v-17.1H1428.2z"/>
			<path id="XMLID_1324_" class="st1" d="M1435.4,655.1c-1,0-1.8-0.2-2.5-0.5c-0.7-0.3-1.3-0.8-1.7-1.3c-0.5-0.6-0.8-1.2-1-1.9
				c-0.2-0.7-0.3-1.5-0.3-2.3c0-0.9,0.1-1.7,0.3-2.4c0.2-0.7,0.6-1.4,1-1.9c0.5-0.5,1-1,1.7-1.3c0.7-0.3,1.5-0.5,2.4-0.5
				s1.7,0.2,2.4,0.5c0.7,0.3,1.3,0.7,1.7,1.3c0.5,0.5,0.8,1.2,1,1.9c0.2,0.7,0.3,1.6,0.3,2.4c0,0.8-0.1,1.6-0.3,2.3
				c-0.2,0.7-0.6,1.4-1,1.9c-0.5,0.6-1,1-1.7,1.3C1437.1,654.9,1436.3,655.1,1435.4,655.1z M1435.4,653.6c1.2,0,2-0.4,2.6-1.2
				c0.6-0.8,0.9-1.9,0.9-3.4c0-1.6-0.3-2.7-0.9-3.5c-0.6-0.8-1.5-1.1-2.6-1.1c-1.2,0-2,0.4-2.6,1.1c-0.6,0.8-0.9,1.9-0.9,3.5
				c0,1.5,0.3,2.7,0.9,3.4C1433.4,653.2,1434.3,653.6,1435.4,653.6z"/>
			<path id="XMLID_1322_" class="st1" d="M1449,645c-0.2-0.1-0.4-0.2-0.6-0.2c-0.2-0.1-0.5-0.1-0.8-0.1c-0.4,0-0.7,0.1-1.1,0.3
				c-0.4,0.2-0.7,0.4-1,0.8c-0.3,0.3-0.5,0.7-0.7,1.2c-0.2,0.5-0.3,1-0.3,1.5v6.5h-1.9v-11.4h1.9l0.1,1.7c0.3-0.6,0.7-1.1,1.3-1.4
				c0.6-0.3,1.2-0.5,1.8-0.5c0.3,0,0.6,0,0.8,0.1c0.2,0,0.4,0.1,0.7,0.2v1.6C1449.3,645.1,1449.2,645.2,1449,645z"/>
			<path id="XMLID_1278_" class="st1" d="M1456.3,639.2c-0.2-0.1-0.3-0.1-0.5-0.1c-0.2,0-0.4,0-0.6,0c-0.7,0-1.2,0.2-1.5,0.5
				c-0.3,0.3-0.5,1-0.5,1.9v2h2.8v1.4h-2.8v10.1h-1.8v-10.1h-2.1v-1.4h2.1v-2.2c0-0.7,0.1-1.2,0.3-1.7c0.2-0.5,0.4-0.9,0.8-1.2
				c0.3-0.3,0.7-0.5,1.2-0.7c0.5-0.1,1-0.2,1.5-0.2c0.3,0,0.6,0,0.8,0.1c0.2,0,0.4,0.1,0.6,0.2v1.2
				C1456.5,639.2,1456.5,639.3,1456.3,639.2z"/>
			<path id="XMLID_1276_" class="st1" d="M1457.4,650.1v-6.8h1.9v6.8c0,1.2,0.2,2.1,0.6,2.6c0.4,0.6,1.1,0.9,2,0.9
				c0.5,0,0.9-0.1,1.4-0.3c0.4-0.2,0.8-0.5,1.1-0.8c0.3-0.3,0.6-0.8,0.8-1.2c0.2-0.5,0.3-1,0.3-1.6v-6.4h1.8v11.4h-1.9l-0.1-1.7l0,0
				c-0.4,0.6-0.9,1.1-1.5,1.4c-0.7,0.3-1.4,0.5-2.1,0.5s-1.4-0.1-1.9-0.3s-1-0.6-1.3-1c-0.3-0.4-0.6-1-0.7-1.6
				C1457.5,651.6,1457.4,650.9,1457.4,650.1z"/>
			<path id="XMLID_1274_" class="st1" d="M1471.7,637.8v17.1h-1.9v-17.1H1471.7z"/>
			<path id="XMLID_1271_" class="st1" d="M1482.7,658.5c1.5,0,2.5-0.4,3.1-1.1s0.9-1.9,0.9-3.5v-1.2c-0.4,0.7-1,1.2-1.6,1.4
				c-0.6,0.3-1.3,0.4-2.1,0.4c-0.8,0-1.5-0.1-2.2-0.4c-0.6-0.3-1.1-0.6-1.6-1.1c-0.4-0.5-0.7-1.1-0.9-1.8c-0.2-0.7-0.3-1.4-0.3-2.3
				c0-1.9,0.4-3.5,1.3-4.4c0.9-1.1,2.1-1.6,3.6-1.6c0.8,0,1.5,0.2,2.2,0.5c0.6,0.3,1.1,0.8,1.4,1.4l0,0l0.1-1.6h1.9v10.5
				c0,1.1-0.1,2-0.3,2.8s-0.6,1.5-1,2c-0.5,0.5-1.1,0.9-1.8,1.2c-0.7,0.2-1.6,0.4-2.7,0.4c-0.8,0-1.4-0.1-2-0.2
				c-0.6-0.1-1.2-0.4-1.7-0.6v-1.6c0-0.2,0.1-0.2,0.2-0.1c0.6,0.4,1.2,0.6,1.8,0.8C1481.6,658.5,1482.2,658.5,1482.7,658.5z
				 M1486.6,649.7v-1.4c0-0.5-0.1-1-0.3-1.5c-0.2-0.4-0.4-0.8-0.7-1.2c-0.3-0.3-0.7-0.6-1.1-0.8c-0.4-0.2-0.9-0.3-1.4-0.3
				c-1,0-1.8,0.4-2.4,1.2s-0.9,1.9-0.9,3.4c0,1.3,0.3,2.3,0.9,3.1c0.6,0.7,1.4,1.1,2.4,1.1c1.1,0,2-0.3,2.6-1
				C1486.3,651.6,1486.6,650.7,1486.6,649.7z"/>
			<path id="XMLID_1269_" class="st1" d="M1497.6,645c-0.2-0.1-0.4-0.2-0.6-0.2c-0.2-0.1-0.5-0.1-0.8-0.1c-0.4,0-0.7,0.1-1.1,0.3
				c-0.4,0.2-0.7,0.4-1,0.8c-0.3,0.3-0.5,0.7-0.7,1.2c-0.2,0.5-0.3,1-0.3,1.5v6.5h-1.9v-11.4h1.9l0.1,1.7c0.3-0.6,0.7-1.1,1.3-1.4
				c0.6-0.3,1.2-0.5,1.8-0.5c0.3,0,0.6,0,0.8,0.1c0.2,0,0.4,0.1,0.7,0.2v1.6C1497.9,645.1,1497.8,645.2,1497.6,645z"/>
			<path id="XMLID_1264_" class="st1" d="M1503.4,643.1c1.6,0,2.8,0.5,3.6,1.4c0.9,0.9,1.3,2.3,1.3,4v0.9h-8.6v0.2
				c0,1.4,0.4,2.4,1.1,3.1s1.7,1,2.9,1c0.6,0,1.3-0.1,1.9-0.3c0.6-0.2,1.3-0.5,1.9-1c0.2-0.1,0.2-0.1,0.2,0.1v1.5
				c-0.6,0.5-1.3,0.8-2,0.9c-0.7,0.2-1.5,0.2-2.4,0.2s-1.6-0.1-2.3-0.4c-0.7-0.3-1.3-0.7-1.8-1.2c-0.5-0.5-0.9-1.1-1.2-1.9
				c-0.3-0.7-0.4-1.6-0.4-2.6c0-0.9,0.1-1.8,0.4-2.5c0.3-0.8,0.7-1.4,1.2-1.9c0.5-0.5,1.1-1,1.8-1.2
				C1501.8,643.2,1502.5,643.1,1503.4,643.1z M1499.8,648h6.6v-0.1c0-1.1-0.3-2-0.8-2.6c-0.6-0.6-1.3-0.9-2.3-0.9
				c-0.4,0-0.9,0.1-1.3,0.2c-0.4,0.2-0.8,0.4-1.1,0.7s-0.6,0.7-0.8,1.1c-0.2,0.4-0.4,0.9-0.5,1.4L1499.8,648L1499.8,648z"/>
			<path id="XMLID_1261_" class="st1" d="M1514.9,643.1c1.6,0,2.8,0.5,3.6,1.4c0.9,0.9,1.3,2.3,1.3,4v0.9h-8.5v0.2
				c0,1.4,0.4,2.4,1.1,3.1s1.7,1,2.9,1c0.6,0,1.3-0.1,1.9-0.3c0.6-0.2,1.3-0.5,1.9-1c0.2-0.1,0.2-0.1,0.2,0.1v1.5
				c-0.6,0.5-1.3,0.8-2,0.9c-0.7,0.2-1.5,0.2-2.4,0.2c-0.8,0-1.6-0.1-2.3-0.4c-0.7-0.3-1.3-0.7-1.8-1.2c-0.5-0.5-0.9-1.1-1.2-1.9
				c-0.3-0.7-0.4-1.6-0.4-2.6c0-0.9,0.1-1.8,0.4-2.5c0.3-0.8,0.7-1.4,1.2-1.9c0.5-0.5,1.1-1,1.8-1.2
				C1513.4,643.2,1514.2,643.1,1514.9,643.1z M1511.4,648h6.6v-0.1c0-1.1-0.3-2-0.8-2.6c-0.6-0.6-1.3-0.9-2.3-0.9
				c-0.4,0-0.9,0.1-1.3,0.2c-0.4,0.2-0.8,0.4-1.1,0.7c-0.3,0.3-0.6,0.7-0.8,1.1c-0.2,0.4-0.4,0.9-0.5,1.4L1511.4,648L1511.4,648z"/>
			<path id="XMLID_1259_" class="st1" d="M1531.4,648.1v6.8h-1.9v-6.8c0-1.2-0.2-2.1-0.5-2.7c-0.3-0.6-1-0.9-1.9-0.9
				c-0.5,0-0.9,0.1-1.4,0.3c-0.4,0.2-0.8,0.5-1.2,0.9c-0.3,0.4-0.6,0.8-0.8,1.3c-0.2,0.5-0.3,1-0.3,1.6v6.3h-1.8v-11.4h1.9l0.1,1.7
				l0,0c0.2-0.3,0.4-0.6,0.7-0.8c0.3-0.2,0.6-0.4,0.9-0.6c0.3-0.2,0.7-0.3,1-0.4c0.4-0.1,0.7-0.1,1.1-0.1c1.5,0,2.6,0.4,3.2,1.3
				C1531.1,645.2,1531.4,646.5,1531.4,648.1z"/>
			<path id="XMLID_1256_" class="st1" d="M1540.4,643.4l0.1,1.6c0.5-0.6,1-1.1,1.6-1.4s1.3-0.5,2.1-0.5c1.7,0,2.9,0.5,3.6,1.5
				c0.8,1,1.2,2.4,1.2,4.1c0,0.9-0.1,1.8-0.3,2.5c-0.2,0.8-0.5,1.4-1,2c-0.4,0.6-1,1-1.6,1.3c-0.7,0.3-1.4,0.5-2.3,0.5
				c-0.8,0-1.4-0.1-2-0.4c-0.5-0.3-1-0.6-1.4-1.1l0,0v6.5h-1.9v-16.6H1540.4L1540.4,643.4z M1540.4,648.7v1.7c0,0.5,0.1,0.9,0.2,1.3
				c0.2,0.4,0.4,0.7,0.7,1c0.3,0.3,0.6,0.5,1,0.7c0.4,0.2,0.8,0.2,1.3,0.2c1.1,0,1.9-0.4,2.5-1.2c0.6-0.8,0.9-2,0.9-3.6
				c0-1.4-0.3-2.4-0.9-3.2c-0.6-0.8-1.4-1.2-2.4-1.2c-0.5,0-1,0.1-1.5,0.4c-0.4,0.2-0.8,0.5-1.1,0.9c-0.3,0.4-0.5,0.8-0.7,1.3
				C1540.4,647.6,1540.4,648.2,1540.4,648.7z"/>
			<path id="XMLID_1253_" class="st1" d="M1551.2,645.9c-0.1,0.1-0.1,0.1-0.2,0.1c-0.1,0-0.1-0.1-0.1-0.2v-1.6
				c0.6-0.4,1.3-0.7,2-0.9c0.7-0.2,1.5-0.3,2.3-0.3c1.4,0,2.4,0.3,3.1,1c0.7,0.6,1,1.7,1,3.2v7.9h-1.8l-0.1-1.7l0,0
				c-0.2,0.3-0.4,0.6-0.7,0.8c-0.3,0.2-0.6,0.4-0.9,0.6c-0.3,0.2-0.7,0.3-1.1,0.4c-0.4,0.1-0.7,0.1-1.1,0.1c-0.6,0-1.1,0-1.6-0.2
				c-0.5-0.1-0.9-0.4-1.2-0.6c-0.3-0.3-0.6-0.6-0.8-1.1c-0.2-0.4-0.3-0.9-0.3-1.5c0-1.1,0.3-2,1-2.7c0.7-0.7,1.7-1.2,3-1.4l3.6-0.5
				v-0.2c0-0.5-0.1-0.9-0.2-1.3c-0.1-0.3-0.3-0.6-0.5-0.8s-0.5-0.3-0.8-0.4c-0.3-0.1-0.7-0.1-1.1-0.1c-0.7,0-1.3,0.1-2,0.3
				C1552.5,645.1,1551.8,645.4,1551.2,645.9z M1557.5,650.2v-1.5l-3.1,0.4c-0.8,0.1-1.5,0.4-2,0.8c-0.5,0.4-0.8,1-0.8,1.8
				c0,0.6,0.2,1.1,0.7,1.5c0.4,0.3,1,0.5,1.7,0.5c0.5,0,0.9-0.1,1.3-0.3c0.4-0.2,0.8-0.5,1.1-0.8c0.3-0.3,0.6-0.7,0.8-1.1
				C1557.4,651,1557.5,650.6,1557.5,650.2z"/>
			<path id="XMLID_1251_" class="st1" d="M1568.6,645c-0.2-0.1-0.4-0.2-0.6-0.2c-0.2-0.1-0.5-0.1-0.8-0.1c-0.4,0-0.7,0.1-1.1,0.3
				c-0.4,0.2-0.7,0.4-1,0.8c-0.3,0.3-0.5,0.7-0.7,1.2c-0.2,0.5-0.3,1-0.3,1.5v6.5h-1.9v-11.4h1.9l0.1,1.7c0.3-0.6,0.7-1.1,1.3-1.4
				c0.6-0.3,1.2-0.5,1.8-0.5c0.3,0,0.6,0,0.8,0.1c0.2,0,0.4,0.1,0.7,0.2v1.6C1568.8,645.1,1568.7,645.2,1568.6,645z"/>
			<path id="XMLID_1249_" class="st1" d="M1576.2,653.1c0.2-0.1,0.2-0.1,0.2,0.1v1.3c-0.3,0.2-0.6,0.4-1,0.4
				c-0.4,0.1-0.8,0.1-1.2,0.1c-1.1,0-1.9-0.2-2.4-0.6c-0.5-0.4-0.7-1.2-0.7-2.3v-7.4h-2.1v-1.4h2.1v-2.9h1.9v2.9h3.1v1.4h-3.1v7.2
				c0,0.3,0,0.6,0,0.8c0,0.2,0.1,0.4,0.2,0.5c0.1,0.1,0.3,0.2,0.5,0.3c0.2,0.1,0.5,0.1,0.8,0.1c0.2,0,0.5,0,0.8-0.1
				C1575.6,653.4,1575.9,653.3,1576.2,653.1z"/>
			<path id="XMLID_1247_" class="st1" d="M1587.5,648.1v6.8h-1.9v-6.8c0-1.2-0.2-2.1-0.5-2.7c-0.3-0.6-1-0.9-1.9-0.9
				c-0.5,0-0.9,0.1-1.4,0.3c-0.4,0.2-0.8,0.5-1.2,0.9c-0.3,0.4-0.6,0.8-0.8,1.3s-0.3,1-0.3,1.6v6.3h-1.8v-11.4h1.9l0.1,1.7l0,0
				c0.2-0.3,0.4-0.6,0.7-0.8c0.3-0.2,0.6-0.4,0.9-0.6c0.3-0.2,0.7-0.3,1-0.4c0.4-0.1,0.7-0.1,1.1-0.1c1.5,0,2.6,0.4,3.2,1.3
				C1587.2,645.2,1587.5,646.5,1587.5,648.1z"/>
			<path id="XMLID_1244_" class="st1" d="M1594.9,643.1c1.6,0,2.8,0.5,3.6,1.4c0.9,0.9,1.3,2.3,1.3,4v0.9h-8.6v0.2
				c0,1.4,0.4,2.4,1.1,3.1c0.7,0.7,1.7,1,2.9,1c0.6,0,1.3-0.1,1.9-0.3c0.6-0.2,1.3-0.5,1.9-1c0.2-0.1,0.2-0.1,0.2,0.1v1.5
				c-0.6,0.5-1.3,0.8-2,0.9c-0.7,0.2-1.5,0.2-2.4,0.2c-0.8,0-1.6-0.1-2.3-0.4c-0.7-0.3-1.3-0.7-1.8-1.2c-0.5-0.5-0.9-1.1-1.2-1.9
				c-0.3-0.7-0.4-1.6-0.4-2.6c0-0.9,0.1-1.8,0.4-2.5c0.3-0.8,0.7-1.4,1.2-1.9c0.5-0.5,1.1-1,1.8-1.2
				C1593.3,643.2,1594.1,643.1,1594.9,643.1z M1591.4,648h6.6v-0.1c0-1.1-0.3-2-0.8-2.6c-0.6-0.6-1.3-0.9-2.3-0.9
				c-0.4,0-0.9,0.1-1.3,0.2c-0.4,0.2-0.8,0.4-1.1,0.7c-0.3,0.3-0.6,0.7-0.8,1.1c-0.2,0.4-0.4,0.9-0.5,1.4L1591.4,648L1591.4,648z"/>
			<path id="XMLID_1240_" class="st1" d="M1607.9,645c-0.2-0.1-0.4-0.2-0.6-0.2c-0.2-0.1-0.5-0.1-0.8-0.1c-0.4,0-0.7,0.1-1.1,0.3
				c-0.4,0.2-0.7,0.4-1,0.8c-0.3,0.3-0.5,0.7-0.7,1.2c-0.2,0.5-0.3,1-0.3,1.5v6.5h-1.9v-11.4h1.9l0.1,1.7c0.3-0.6,0.7-1.1,1.3-1.4
				c0.6-0.3,1.2-0.5,1.8-0.5c0.3,0,0.6,0,0.8,0.1c0.2,0,0.4,0.1,0.7,0.2v1.6C1608.2,645.1,1608.1,645.2,1607.9,645z"/>
		</g>
	</g>
</g>
<g id="XMLID_386_">
	<rect id="XMLID_1230_" x="1715.6" y="425.4" class="st0" width="475.2" height="307.5"/>
	<rect id="XMLID_1229_" x="1729.6" y="501.2" class="st0" width="447.2" height="167.7"/>
	<g id="XMLID_1282_">
		<path id="XMLID_1317_" class="st1" d="M1770.6,577h12.1l16.2,20.7h0.2l16.1-20.7h12.2V616h-12.6v-23.8h-0.3l-12.5,16.8h-6.3
			l-12.4-16.8h-0.3V616h-12.6V577H1770.6z"/>
		<path id="XMLID_1314_" class="st1" d="M1853.4,577h10.6l19.7,39.1h-12.6l-3.7-8.4h-17.2l-3.7,8.4h-12.6L1853.4,577z M1858.7,588.2
			h-0.3l-6.2,14.1h12.6L1858.7,588.2z"/>
		<path id="XMLID_1311_" class="st1" d="M1889.8,577h20.3c14.9,0,22.3,3.8,22.3,11.4c0,2.3-0.8,4.2-2.4,5.8c-1.6,1.6-4.4,3-8.5,3.9
			l13.6,17.8h-13.4l-11.7-16.7h-7.6V616h-12.6V577z M1902.4,594.4h7.2c2.3,0,4-0.1,5.3-0.4c1.3-0.3,2.4-0.7,3.1-1.2
			c0.7-0.5,1.2-1.2,1.4-1.9c0.3-0.8,0.4-1.6,0.4-2.6c0-1-0.1-1.9-0.4-2.6c-0.3-0.8-0.8-1.4-1.6-1.9s-1.9-0.9-3.3-1.2
			c-1.4-0.3-3.3-0.4-5.5-0.4h-6.6L1902.4,594.4L1902.4,594.4z"/>
		<path id="XMLID_1309_" class="st1" d="M1941.7,577h12.6v17.8h0.3L1973,577h12.6l-17.2,15.6l20.4,23.4h-13.4l-14.4-17.4l-6.8,5.6
			v11.6h-12.6L1941.7,577L1941.7,577z"/>
		<path id="XMLID_1307_" class="st1" d="M1995.2,577h34.3v5.2h-21.7v8.4h21.8v8.3h-21.8v11.4h25v5.6h-37.7V577L1995.2,577z"/>
		<path id="XMLID_1304_" class="st1" d="M2039,577h20.3c14.9,0,22.3,3.8,22.3,11.4c0,2.3-0.8,4.2-2.4,5.8c-1.6,1.6-4.4,3-8.5,3.9
			l13.6,17.8H2071l-11.7-16.7h-7.6V616H2039L2039,577L2039,577z M2051.6,594.4h7.2c2.3,0,4-0.1,5.3-0.4c1.3-0.3,2.4-0.7,3.1-1.2
			c0.7-0.5,1.2-1.2,1.4-1.9c0.3-0.8,0.4-1.6,0.4-2.6c0-1-0.1-1.9-0.4-2.6c-0.2-0.8-0.8-1.4-1.6-1.9s-1.9-0.9-3.3-1.2
			c-1.4-0.3-3.3-0.4-5.5-0.4h-6.6L2051.6,594.4L2051.6,594.4z"/>
		<path id="XMLID_1302_" class="st1" d="M2133.4,588.4h-12.6v-1.3c0-1.3-0.7-2.4-2.1-3.3c-1.4-0.9-3.6-1.4-6.9-1.4
			c-1.8,0-3.2,0.2-4.2,0.4c-1.1,0.3-2,0.7-2.6,1.1c-0.6,0.5-1.1,1-1.3,1.6c-0.3,0.6-0.4,1.2-0.4,1.9c0,0.8,0.1,1.4,0.2,2
			c0.1,0.5,0.4,1,0.9,1.4c0.5,0.4,1.2,0.7,2.2,1c1,0.3,2.3,0.6,3.9,0.9l9.7,1.7c2.8,0.5,5,1,6.8,1.7c1.8,0.6,3.1,1.4,4,2.3
			c1,0.9,1.6,1.9,1.9,3s0.5,2.4,0.5,3.7c0,1.7-0.4,3.2-1.1,4.5c-0.8,1.4-2,2.6-3.6,3.6c-1.7,1-3.9,1.8-6.7,2.4
			c-2.8,0.6-6.2,0.9-10.3,0.9c-3.1,0-5.9-0.2-8.6-0.7c-2.7-0.5-4.9-1.1-6.8-2c-1.9-0.8-3.4-1.8-4.5-2.9c-1.1-1.1-1.7-2.4-1.7-3.6
			v-2.1h12.6v1.8c0,1,0.7,2,2.1,2.8s3.6,1.2,6.9,1.2c2.2,0,3.8-0.1,5-0.4c1.2-0.3,2.1-0.7,2.8-1.2c0.6-0.5,1-1.1,1.2-1.8
			c0.2-0.7,0.3-1.5,0.3-2.4c0-1-0.1-1.9-0.3-2.5c-0.2-0.7-0.5-1.2-1.1-1.6c-0.5-0.4-1.3-0.7-2.3-1c-1-0.3-2.2-0.5-3.7-0.8l-9.1-1.7
			c-5.4-1-9.1-2.3-10.9-3.8c-1.9-1.6-2.8-3.6-2.8-6c0-1.5,0.5-2.9,1.4-4.1c0.9-1.3,2.3-2.5,4-3.4c1.8-1,4-1.7,6.7-2.3
			c2.8-0.6,5.9-0.9,9.6-0.9c3.2,0,6,0.3,8.6,0.8c2.6,0.5,4.8,1.2,6.7,2c1.9,0.8,3.3,1.8,4.2,2.8c1,1,1.5,2.1,1.5,3.2L2133.4,588.4
			L2133.4,588.4z"/>
		<path id="XMLID_1300_" class="st1" d="M1773.2,569.9h-2.7V556h12.8v1.5h-10.3v4.3h8.5v1.4h-8.5L1773.2,569.9L1773.2,569.9z"/>
		<path id="XMLID_1298_" class="st1" d="M1789.6,569.9h-2.7V556h2.7V569.9z"/>
		<path id="XMLID_1295_" class="st1" d="M1809.5,569.9h-2.8l-3.8-6h-6v6h-2.5V556h8.3c2.3,0,3.9,0.4,5,1.2c1.1,0.8,1.6,1.7,1.6,2.7
			c0,0.8-0.3,1.5-0.9,2.2c-0.6,0.7-1.6,1.2-3,1.5L1809.5,569.9z M1796.9,562.5h5.5c1.5,0,2.6-0.3,3.3-0.8c0.7-0.5,1.1-1.1,1.1-1.9
			c0-0.7-0.4-1.3-1.1-1.7c-0.8-0.4-1.7-0.6-2.9-0.6h-5.8L1796.9,562.5L1796.9,562.5z"/>
		<path id="XMLID_1293_" class="st1" d="M1827.6,568.4v1.5h-13.8V556h11.6v1.5h-9.1v4.1h9.1v2.6h-9.1v4h11.2L1827.6,568.4
			L1827.6,568.4z"/>
		<g id="XMLID_1283_">
			<g id="XMLID_1289_">
				<path id="XMLID_1290_" class="st1" d="M2141.5,576.7c-2.4,0-4.2-1.9-4.2-4.2c0-2.4,1.9-4.2,4.2-4.2c2.4,0,4.2,1.9,4.2,4.2
					C2145.7,574.8,2143.8,576.7,2141.5,576.7z M2141.5,569.4c-1.7,0-3.1,1.4-3.1,3.1c0,1.7,1.4,3.1,3.1,3.1s3.1-1.4,3.1-3.1
					C2144.5,570.8,2143.1,569.4,2141.5,569.4z"/>
			</g>
			<g id="XMLID_1284_">
				<g id="XMLID_1285_">
					<path id="XMLID_1286_" class="st1" d="M2143,574.3h-0.5l-0.7-1.6h-1.1v1.6h-0.4v-3.6h1.5c0.4,0,0.7,0.1,0.9,0.3
						c0.2,0.2,0.3,0.4,0.3,0.7c0,0.2-0.1,0.4-0.2,0.6c-0.1,0.2-0.3,0.3-0.5,0.4L2143,574.3z M2140.9,572.3h1c0.3,0,0.4-0.1,0.6-0.2
						c0.1-0.1,0.2-0.3,0.2-0.5s-0.1-0.3-0.2-0.5c-0.1-0.1-0.3-0.2-0.5-0.2h-1L2140.9,572.3L2140.9,572.3z"/>
				</g>
			</g>
		</g>
	</g>
</g>
<g id="XMLID_353_">
	<rect id="XMLID_651_" x="2707.6" y="425.4" class="st0" width="475.2" height="307.5"/>
	<rect id="XMLID_650_" x="2721.6" y="501.2" class="st0" width="447.2" height="167.7"/>
	<g id="XMLID_1340_">
		<g class="st2">
			<path class="st1" d="M2802,566.3c-1,1.9-1.9,3.6-2.9,4.9c-1,1.4-2.1,2.9-3.5,4.4c0,0.2,0.7,0.8,2,1.9c0.7,0.6,1.4,1.1,2.2,1.5
				c0.7,0.4,1.5,0.8,2.4,1.2c1.2,0.8,2.3,2.1,3.2,3.7c0.4,0.7,0.5,1.3,0.5,1.8c0,0.7-0.3,1-0.8,1c-0.4,0-0.8-0.2-1.1-0.5
				s-1.3-1.3-3-2.9c-1.5-1.5-2.9-2.9-4.2-4.2c-0.8-0.7-1.5-1.5-2.2-2.2c-1.6,1.7-4.1,4-7.7,7c-4.3,3.6-7.1,5.3-8.4,5.3l-0.1-0.1
				c0.1-0.1,0.1-0.2,0.1-0.2c0.1-0.2,0.3-0.3,0.5-0.4c4.6-3.4,8.6-7,11.9-10.9c2.4-2.8,4.3-5.6,5.9-8.5c0.6-1.2,1.1-2.3,1.7-3.5
				c-1.8,0.1-3.2,0.2-4.1,0.2c-2.9,0.2-4.5,0.3-5,0.4c-0.5,0.1-1.1,0.2-1.8,0.5c-0.4,0.1-0.7,0.2-1,0.2c-0.7,0-1.8-0.3-3.1-0.8
				c-1.4-0.6-2-1.1-2-1.6c0-0.2,0.2-0.3,0.6-0.3c0.8,0,1.8,0,3.1,0.1c1.3,0.1,2.1,0.1,2.4,0.1c0.5,0,0.9,0,1.2,0c0.5,0,0.8,0,1,0
				c2.5,0,4.8-0.1,7.1-0.3c1.1-0.2,2.1-0.3,3.2-0.5h0.6c0.8,0,1.5,0,1.9,0.1c0.5,0.1,0.7,0.4,0.7,0.8c0,0.4-0.2,0.8-0.5,1.2
				C2802.5,565.9,2802.3,566.1,2802,566.3z M2810.5,559.2c-0.2-0.5-0.9-1.1-2.1-1.8c-2.4-1.3-3.5-2-3.5-2.1c0-0.2,0.2-0.4,0.5-0.6
				s0.7-0.3,1.3-0.3c1.3,0,2.7,0.3,4.3,1c2,0.8,3,1.7,3,2.8l-0.3,3.1v15.8c1.2,0,2.7-0.4,4.3-1.1c0.9-0.4,1.7-0.6,2.5-0.6
				s1.5,0.1,2,0.3c0.5,0.2,0.8,0.6,0.8,1.3c0,0.3,0,0.5-0.1,0.7c-0.2,0.5-0.6,0.7-1,0.7l-8.4,0.3v5.2c0,3.8-0.1,7-0.3,9.3
				c-0.3,3.8-0.9,5.8-1.8,5.8c-0.7,0-1-1-1-3v-36.8H2810.5z"/>
			<path class="st1" d="M2841.5,561.2c0-0.5-0.1-0.9-0.4-1c-0.3-0.2-0.4-0.3-0.4-0.5c0-0.4,0.3-0.6,0.9-0.6c0.6,0,1.2,0.2,1.8,0.6
				c0.6,0.4,0.9,0.9,0.9,1.4c0,0.2,0,0.4-0.1,0.5l-0.1,0.1c0,0.2,0.2,0.3,0.6,0.4c2.2,0.4,3.8,1.2,5.1,2.5c1.4,1.4,2.2,3.1,2.2,5.2
				c0,2.5-0.8,4.4-2.5,5.9c-1.9,1.8-4.5,2.7-7.9,2.7c-3.2,0-5.6-0.9-7.4-2.7c-1.6-1.6-2.5-3.6-2.5-5.9c0-2.2,0.7-3.9,2.2-5.4
				c1.6-1.7,3.7-2.5,6.5-2.5c0.3,0,0.5-0.1,0.8-0.2C2841.3,561.5,2841.5,561.4,2841.5,561.2z M2834.5,569.7v0.2
				c0,1.8,0.7,3.3,2.2,4.4c1.4,1.2,3.1,1.8,4.8,1.8c2.6,0,4.4-0.7,5.8-2.1c1.1-1.1,1.6-2.4,1.6-3.9c0-2-0.7-3.5-2.1-4.6
				c-1.4-1.1-3.1-1.7-5.1-1.7c-2,0-3.6,0.5-4.9,1.4C2835.2,566.2,2834.5,567.7,2834.5,569.7z M2840.6,584.9h0.3
				c1.4,0,2.5,0.1,3.3,0.3c1.5,0.4,2.3,1,2.3,1.9l-0.2,2.5v5.2c0,0.5,0.1,0.8,0.3,0.9c0.2,0.1,0.5,0.2,0.9,0.2h11.7
				c0.4,0,1.5-0.3,3.5-0.9c1.1-0.3,2-0.5,2.7-0.5c1,0,1.6,0.1,2.1,0.2c0.8,0.3,1.2,0.8,1.2,1.5c0,0.9-0.4,1.3-1.3,1.3h-19.6
				c-2.9,0-4.3-1.4-4.3-4.1v-5c-0.2-0.7-1.1-1.2-2.6-1.5c-1.5-0.4-2.3-0.6-2.3-0.8s0.2-0.4,0.5-0.6
				C2839.2,585.2,2839.9,584.9,2840.6,584.9z M2861.9,576.5c-0.7,0-1.4,0.1-2.2,0.1c-0.8,0-1.7,0.1-2.5,0.2c-0.5,0-0.9,0.1-1.4,0.3
				c-0.5,0.2-0.8,0.3-1,0.3c-0.6,0-1.4-0.2-2.5-0.7c-1-0.5-1.5-0.9-1.5-1.4c0-0.2,0.1-0.3,0.4-0.3l3.1,0.1c2.2,0,3.7,0,4.8-0.1
				s2-0.1,2.8-0.2v-9h-0.6c-0.5,0-1,0-1.5,0s-1.1,0-1.9,0.1c-0.7,0.1-1.4,0.2-1.9,0.4c-0.5,0.2-0.9,0.3-1.1,0.3
				c-0.6,0-1.4-0.2-2.5-0.7s-1.6-0.9-1.6-1.4c0-0.2,0.2-0.3,0.5-0.3l3.6,0.1c3.6,0,6,0,6.9-0.1V559c-0.3-0.6-1-1.2-2.1-1.8
				s-2.2-1.3-3.2-1.9c0-0.6,0.5-0.8,1.5-0.8c1.3,0,2.8,0.3,4.2,0.9c1.9,0.8,2.9,1.7,2.9,2.8l-0.3,3.4v11.3c0,4-0.1,7.2-0.3,9.7
				c-0.3,3.5-0.9,5.1-1.7,5.1c-0.7,0-1.1-1.2-1.1-3.6L2861.9,576.5L2861.9,576.5z"/>
		</g>
		<g class="st2">
			<path class="st1" d="M2882.7,598.6v-0.7c2.3-1.5,3.4-3.2,3.4-5.1c0-0.7-0.2-1-0.5-1c-0.1,0-0.3,0.1-0.5,0.3
				c-0.3,0.2-0.5,0.3-0.9,0.3c-0.5,0-0.9-0.2-1.3-0.7c-0.3-0.4-0.5-1-0.5-1.6c0-0.7,0.2-1.3,0.6-1.7c0.4-0.5,0.9-0.7,1.5-0.7
				c0.8,0,1.5,0.4,2,1.1c0.5,0.8,0.8,1.7,0.8,2.9C2887.2,594.9,2885.8,597.2,2882.7,598.6z"/>
		</g>
		<g class="st2">
			<path class="st1" d="M2952.4,589c1.6-0.4,3.2-0.7,4.7-1.1c1.7,0,3.1,0.2,3.9,0.5c0.9,0.4,1.4,0.9,1.4,1.6c0,0.9-0.5,1.3-1.4,1.3
				s-2.2-0.1-3.9-0.2c-1.8-0.1-3.2-0.2-3.9-0.2h-0.7c-4.4,0-9.2,0.2-14.2,0.5s-8.1,0.6-9.1,0.8c-0.6,0.1-1.2,0.3-1.8,0.6
				c-0.6,0.2-1.1,0.4-1.4,0.4c-0.9,0-2.2-0.4-3.9-1.3c-1.8-0.9-2.7-1.6-2.7-2.2c0-0.3,0.2-0.4,0.5-0.4c0.1,0,0.4,0,0.7,0.1
				c0.3,0.1,0.8,0.1,1.2,0.2c0.4,0,1.3,0.1,2.6,0.2c1.3,0.1,2.4,0.1,3.3,0.1c5.5,0,10.8-0.1,15.9-0.3
				C2948.6,589.4,2951.4,589.2,2952.4,589z M2937.4,557.8h0.2c1.1,0,2.6,0.4,4.4,1.1c1.9,0.7,2.8,1.6,2.8,2.4c0,0.9-0.7,2-2.1,3.5
				c-0.9,1-1.4,1.6-1.5,1.8c0.1,0.1,0.8,0.4,2.1,0.9c3,1.2,4.8,1.9,5.7,2.2c1.2,0.1,2.1,0.2,2.7,0.3c2.1,0.2,4,1.2,6.1,2.8
				c0.8,0.6,1.2,1.2,1.2,1.8s-0.4,0.9-1.1,0.9c-0.4,0-0.9-0.1-1.4-0.3l-16.4-7.2c-1.4,1.6-3.3,3.2-5.5,4.7
				c-3.4,2.3-7.2,4.2-11.5,5.8c-0.8,0.3-1.3,0.4-1.6,0.4c-0.1,0-0.1,0-0.2-0.1l-0.1-0.1c0-0.2,0.4-0.5,1.1-0.9
				c4.1-2.2,7.8-4.6,11.1-7.5c3.4-2.9,5.6-5.6,6.9-8.3c-0.1-0.5-0.6-1.1-1.5-1.7s-1.8-1.2-2.7-1.8
				C2936.1,558.1,2936.5,557.8,2937.4,557.8z"/>
			<path class="st1" d="M2994.6,583.5c-2.7,1.2-5.3,2.2-8.2,3.1c-3.6,1.2-6.5,1.8-8.6,1.8c-1,0-1.6-0.5-2.1-1.5
				c-0.4-1-0.6-2.2-0.6-3.6v-7.5c0-0.5-0.4-0.9-1.1-1.2c-0.7-0.3-1.5-0.6-2.3-1c0-0.3,0.2-0.5,0.7-0.7c0.5-0.1,1.1-0.2,1.9-0.2
				c1.1,0,2.1,0.1,3.1,0.4c1,0.2,1.7,0.4,2,0.4l7.8-0.7l0.8-8.9c-1.1,0-2.2,0.1-3.5,0.1c-1.2,0.1-2.7,0.2-4.4,0.3
				c-0.4,0-0.9,0.1-1.3,0.3c-0.9,0.3-1.5,0.4-1.7,0.4c-0.7,0-1.5-0.3-2.6-0.8c-1.1-0.6-1.6-1.1-1.6-1.6c0-0.2,0.1-0.3,0.4-0.3
				l1.7,0.2h11.1c0.1,0,0.6-0.1,1.7-0.2s1.8-0.2,2.2-0.2c0.6,0,1,0.1,1.3,0.2c0.3,0.1,0.5,0.4,0.5,0.8c0,0.2-0.1,0.4-0.2,0.6
				c-0.4,0.7-0.7,1-0.7,1.1c-0.3,0.8-0.7,2.3-1.3,4.4c-0.2,0.8-0.5,1.8-0.8,3.3c0.5,0.1,0.9,0.3,1.2,0.4c0.6,0.3,0.8,0.6,0.8,0.9
				c0,0.5-0.3,0.7-1,0.7l-11.7,0.5v9.4c0,0.3,0,0.6,0.1,0.9c0.1,0.3,0.3,0.4,0.5,0.4c3.5,0,7.1-0.5,11-1.6c1.3-0.4,3-0.9,4.9-1.7
				l1.1-0.3c0.1,0,0.2,0,0.2,0.1l0.1,0.1C2996.3,582.6,2995.7,583.1,2994.6,583.5z M2999,574.8c-0.8,0.1-1.5,0.2-2,0.4
				s-0.9,0.3-1.1,0.3c-0.6,0-1.4-0.3-2.4-0.8s-1.5-1-1.5-1.5c0-0.2,0.1-0.3,0.4-0.3c0.5,0,1.3,0,2.2,0.1s1.5,0.1,1.8,0.1
				c2.9,0,4.8-0.1,6-0.4v-13.6c-0.3-0.5-1-1-2.1-1.7c-1.1-0.7-2.2-1.3-3.4-2c0-0.2,0.1-0.4,0.4-0.6c0.3-0.2,0.7-0.3,1.2-0.3
				c1.2,0,2.7,0.3,4.2,0.9c1.9,0.8,2.9,1.6,2.9,2.7l-0.3,3.4v15.7c0,4.6,0,8.4-0.1,11.2c-0.1,2.9-0.2,5.3-0.5,7.4
				c-0.3,2.1-0.8,3.1-1.5,3.1c-0.7,0-1-1.2-1-3.6v-20.8c-0.4,0-0.8,0.1-1.3,0.1C3000.6,574.6,3000,574.7,2999,574.8z"/>
			<path class="st1" d="M3033.6,577c-1,0.1-1.7,0.2-2.3,0.3c-1.6,0.2-2.6,0.4-2.9,0.5c-0.3,0.1-0.7,0.3-1.2,0.5
				c-0.5,0.2-0.8,0.3-1.1,0.3c-0.8,0-2.1-0.4-3.7-1.1c-1.9-0.8-2.9-1.5-2.9-2.1c0-0.2,0.2-0.3,0.5-0.3c0.2,0,0.6,0,1.1,0.1
				c0.5,0.1,0.9,0.1,1,0.1h5.6c4.6,0,8.8-0.3,12.5-0.9c3.3-0.7,5.2-1.2,6-1.3l0.8-0.1c0.2,0,0.4,0,0.5,0.1l0.1,0.1
				c0,0.3-0.4,0.6-1.2,0.8c-2.1,0.7-4.3,1.3-6.9,1.8c-0.9,0.2-1.9,0.4-3.2,0.6c0,2.1-0.2,3.6-0.5,4.8s-0.8,1.8-1.4,1.8
				c-0.8,0-1.2-1.1-1.2-3.3V577H3033.6z M3033.3,583.2c0.9,0,2,0.3,3.3,0.8c1.3,0.5,1.9,1.2,1.9,1.9c0,0.3-0.2,0.7-0.5,1.4l-0.8,1.3
				c0.2,0.4,1.3,1.1,3.2,2.2c1.5,0.9,2.2,2.1,2.2,3.6c0,0.4-0.1,0.7-0.2,1s-0.4,0.4-0.7,0.4s-0.6-0.1-0.9-0.4
				c-0.3-0.3-0.8-0.8-1.4-1.6l-3.2-3.9c-1.3,1.7-3.3,3.5-6.1,5.4c-3.1,2.2-5.5,3.3-7.2,3.3c-0.1,0-0.2,0-0.2,0l-0.1-0.1
				c0.2-0.2,0.3-0.3,0.4-0.4c2.8-1.4,5.1-3.2,7.2-5.2c2.8-2.8,4.2-4.7,4.4-6.1c0-0.4-0.3-0.9-0.9-1.3c-0.6-0.4-1.2-0.9-1.8-1.4
				C3032.2,583.4,3032.6,583.2,3033.3,583.2z M3033.3,558.7c0.4,0,0.7-0.1,0.9-0.2c0.2-0.1,0.3-0.4,0.3-0.8c0-0.3-0.1-0.5-0.2-0.6
				c-0.2-0.1-0.2-0.2-0.2-0.3c0-0.4,0.2-0.5,0.7-0.5c0.5,0,1,0.1,1.5,0.4c0.5,0.3,0.7,0.7,0.7,1.2c0,0.2,0,0.3-0.1,0.5
				c-0.1,0.1-0.1,0.2-0.2,0.3h0.1c2,0.2,3.5,0.9,4.7,1.9c1.4,1.2,2.1,2.7,2.1,4.5c0,2.5-0.9,4.3-2.8,5.5c-1.6,1.1-3.6,1.7-6.2,1.7
				c-2.1,0-4-0.6-5.7-1.9c-1.9-1.4-2.9-3.1-2.9-5.2c0-2,0.7-3.6,2.1-4.7C3029.5,559.3,3031.2,558.7,3033.3,558.7z M3028.9,564.9v0.5
				c0,1.4,0.6,2.6,1.9,3.6c1.1,0.9,2.4,1.3,3.8,1.3c1.8,0,3.3-0.4,4.2-1.1c1.2-0.9,1.8-2.2,1.8-3.8c0-1.6-0.7-2.8-2-3.6
				c-1.2-0.8-2.5-1.1-4.1-1.1c-1.6,0-2.9,0.3-3.8,1C3029.4,562.3,3028.9,563.4,3028.9,564.9z M3049.3,582.2c0.8,0,1.8,0.3,2.9,0.9
				s1.8,1.2,1.8,1.9c0,0.4-0.2,1-0.7,1.9c-0.1,0.2-0.4,0.8-1,2c0.5,0.7,1.5,1.6,3.1,3c2.4,2.1,3.6,3.9,3.6,5.6c0,0.4-0.1,0.8-0.2,1
				c-0.1,0.3-0.4,0.4-0.7,0.4c-0.5,0-1-0.4-1.6-1.2c-0.4-0.5-1.4-1.9-2.9-4.1c-0.5-0.8-1.2-1.9-2.2-3.4c-1.1,1.6-2.8,3.5-5.2,5.4
				c-2.8,2.3-4.8,3.5-6.2,3.5l-0.1-0.1c0-0.1,0.8-0.9,2.5-2.3c2.1-1.8,3.6-3.4,4.8-4.7c1.9-2.2,3-4.2,3.3-6.2c0-0.7-0.4-1.2-1.1-1.8
				c-0.7-0.5-1.1-0.8-1.1-0.9C3048.1,582.4,3048.5,582.2,3049.3,582.2z M3048.2,579.2c-0.8,0.1-1.4,0.2-1.9,0.4s-0.8,0.3-1,0.3
				c-0.4,0-0.9-0.1-1.6-0.3c-1.5-0.5-2.3-1.1-2.3-1.6c0-0.2,0.2-0.3,0.5-0.3h1.3c1.7,0,3.5-0.1,5.3-0.2c1.9-0.1,3.1-0.2,3.6-0.4v-18
				c-0.4-0.6-1.1-1.3-2.2-2c-1.1-0.7-2.1-1.1-2.8-1.3c-0.1,0-0.2-0.1-0.2-0.2v-0.1c0-0.6,0.5-0.8,1.6-0.8c1.4,0,2.8,0.3,4.1,0.8
				c1.9,0.7,2.8,1.6,2.8,2.6l-0.3,3.6v7c0,3.3-0.1,5.9-0.3,8c-0.3,3.6-0.9,5.3-1.8,5.3c-0.6,0-0.9-0.9-0.9-2.7v-0.5L3048.2,579.2z"
				/>
			<path class="st1" d="M3091.8,575.8c-0.4,2.6-1.7,4.5-3.8,5.9c-2,1.3-4.3,1.9-7.1,1.9c-2.6,0-4.8-0.8-6.8-2.5
				c-2.2-1.9-3.3-4.1-3.3-7c0-2.6,0.9-4.6,2.6-6.3c1.8-1.7,3.8-2.5,6.4-2.5c0.4,0,0.7-0.1,0.9-0.3c0.3-0.2,0.4-0.5,0.4-0.9
				c0-0.5-0.2-0.9-0.5-1.2s-0.5-0.4-0.5-0.5c0-0.2,0.1-0.4,0.4-0.5c0.3-0.1,0.5-0.2,0.7-0.2c0.6,0,1.2,0.2,1.9,0.7
				c0.6,0.5,0.9,1.1,0.9,1.7c0,0.2-0.1,0.4-0.2,0.6c-0.1,0.1-0.2,0.2-0.2,0.3c0.1,0.1,0.2,0.2,0.3,0.2c2.2,0.3,4,1.2,5.7,2.9
				c1.7,1.6,2.5,3.6,2.5,5.6c2-0.1,3.6-0.1,4.5-0.1c3.2-0.1,4.9-0.2,5.4-0.3v-14.2c-0.3-0.5-1.1-1.1-2.3-1.8c-1.3-0.7-2.5-1.3-3.6-2
				c0-0.6,0.5-0.8,1.6-0.8c1.4,0,2.9,0.3,4.6,0.9c2.1,0.8,3.2,1.7,3.2,2.7l-0.3,3.4v14.8c0,4.9,0,9-0.1,12c0,3.1-0.2,5.3-0.3,6.7
				c-0.2,1.4-0.4,2.5-0.7,3.1c-0.3,0.6-0.6,1-0.9,1c-0.7,0-1-1.2-1-3.6v-20.4l-5.5,0.4c-0.6,0.1-1.3,0.2-1.9,0.4
				c-0.6,0.2-1.1,0.3-1.3,0.3C3093,576.2,3092.4,576,3091.8,575.8z M3073.8,573.7v0.5c0,1.9,0.7,3.6,2.2,4.9
				c1.5,1.4,3.1,2.1,4.9,2.1c2.9,0,4.9-0.8,6.4-2.5c1.1-1.3,1.7-2.8,1.7-4.4c0-2.2-0.7-3.8-2.2-5.1c-1.5-1.2-3.4-1.9-5.5-1.9
				c-2.1,0-3.7,0.5-5,1.5C3074.6,570,3073.8,571.6,3073.8,573.7z"/>
		</g>
	</g>
</g>
<g id="XMLID_349_">
	<rect id="XMLID_1172_" x="2211.3" y="425.4" class="st0" width="475.2" height="307.5"/>
	<rect id="XMLID_1171_" x="2225.3" y="501.2" class="st0" width="447.2" height="167.7"/>
	<g id="XMLID_1545_">
		<g id="XMLID_1702_">
			<path id="XMLID_1708_" class="st1" d="M2322.1,584.3c0,2.3,0.4,3.7,1.2,4.3l0.8,0.5c1,0.8,1.5,1.6,1.5,2.5c0,1.9-1.1,2.8-3.3,2.8
				h-12.4c-2.2,0-3.3-0.9-3.3-2.8c0-0.7,0.1-1.2,0.3-1.4c0.2-0.3,0.6-0.7,1.2-1.1l0.7-0.5c0.8-0.6,1.2-2.1,1.2-4.3v-38.4
				c0-2.4-0.4-3.8-1.2-4.5l-0.7-0.4c-1-0.8-1.5-1.6-1.5-2.7c0-1.9,1.1-2.8,3.3-2.8h12.4c2.2,0,3.3,0.9,3.3,2.8c0,1-0.5,1.9-1.5,2.7
				l-0.8,0.4c-0.8,0.6-1.2,2.1-1.2,4.5v13.7h19.6v-13.7c0-2.4-0.4-3.8-1.2-4.5l-0.8-0.4c-1.1-0.8-1.7-1.7-1.7-2.7c0-1,0.3-1.7,1-2.1
				c0.7-0.5,1.4-0.7,2.3-0.7h12.5c2.2,0,3.3,0.9,3.3,2.8c0,1-0.5,1.9-1.6,2.7l-0.7,0.4c-0.8,0.5-1.2,2-1.2,4.5v38.4
				c0,2.4,0.4,3.8,1.2,4.3l0.7,0.5c1.1,0.8,1.6,1.7,1.6,2.5c0,1.9-1.1,2.8-3.3,2.8h-12.5c-2.2,0-3.3-0.9-3.3-2.8
				c0-0.7,0.1-1.1,0.4-1.4c0.2-0.3,0.7-0.6,1.3-1.1l0.8-0.5c0.8-0.6,1.2-2.1,1.2-4.3v-18.8h-19.6V584.3L2322.1,584.3z"/>
			<path id="XMLID_1705_" class="st1" d="M2387.1,594.4c-1.6,0-2.8-0.2-3.6-0.5c-0.7-0.4-1.1-1.1-1.1-2.3c0-0.7,0.4-1.5,1.3-2.4
				c1-0.7,1.7-1.6,2.1-2.7l2.4-9c1.6-6.2,4.7-15.4,9.3-27.7c1.4-3.9,3.1-8,4.8-12.1c0.6-1.3,1.2-2,1.8-2.3s1.6-0.5,3-0.5
				c1.8,0,3.1,0.3,3.7,0.9c0.7,0.6,1.5,1.9,2.2,3.9l13.5,38.6l2.3,8.3c0.2,0.7,0.4,1.2,0.6,1.4s0.6,0.7,1.3,1.2
				c0.9,0.6,1.3,1.3,1.3,2.3c0,1.9-1.1,2.8-3.4,2.8h-11.1c-2.8,0-4.1-0.9-4.1-2.7c0-0.9,0.5-1.7,1.5-2.3c1-0.6,1.5-1.2,1.5-1.8
				c0-1.4-0.9-5-2.8-11l-0.3-1.3h-18.4c-0.1,0.3-0.4,1.4-0.9,3.3c-0.5,1.8-0.9,3.4-1.2,4.6s-0.4,2.3-0.4,3c0,0.8,0.1,1.4,0.4,1.8
				c0.3,0.4,0.7,0.8,1.3,1.2c0.6,0.4,1,0.8,1.3,1.1s0.5,0.9,0.5,1.5c0,1.1-0.4,1.8-1.3,2.1c-0.8,0.3-2.1,0.5-3.8,0.5h-3.5
				L2387.1,594.4L2387.1,594.4z M2411.4,568.8l-0.3-1.2l-7-20.1l-7.5,21.3L2411.4,568.8L2411.4,568.8z"/>
			<path id="XMLID_1703_" class="st1" d="M2472.6,579.7c0,3,0.2,5,0.6,6.1c0.4,1.2,1.2,1.9,2.5,2.3c1.3,0.4,3.5,0.6,6.7,0.6
				c2.3,0,4-0.2,5.4-0.7c1.3-0.5,2.7-1.6,3.9-3.3c0.9-1.3,1.6-2.3,2.2-3c0.6-0.7,1.3-1,2.1-1c0.6,0,1.2,0.3,1.7,0.8
				c0.5,0.5,0.7,1.2,0.7,1.9c0,1.5-0.5,3.8-1.4,7.4c-0.4,1.7-0.9,2.7-1.4,3.1c-0.5,0.4-1.5,0.6-3,0.6h-32.2c-2.2,0-3.3-0.9-3.3-2.8
				c0-0.7,0.1-1.1,0.4-1.4c0.2-0.3,0.7-0.6,1.3-1.1l0.7-0.5c0.8-0.6,1.2-2.1,1.2-4.3v-38.4c0-2.4-0.4-3.8-1.2-4.5l-0.7-0.4
				c-1.1-0.8-1.7-1.7-1.7-2.7c0-1,0.3-1.7,1-2.1c0.7-0.5,1.4-0.7,2.3-0.7h30.8c1.9,0,3.2,0.4,3.6,1.1c0.7,1.1,1.1,3.6,1.1,7.6
				c0,2.3-0.8,3.5-2.4,3.5c-0.9,0-1.9-0.8-3.1-2.4c-1.3-1.8-2.7-2.9-4.1-3.3c-1.4-0.5-3.6-0.7-6.6-0.7c-2.9,0-4.7,0.2-5.5,0.7
				c-1.1,0.4-1.7,1.2-1.7,2.4v14.8h10c1.3,0,2.3-0.2,2.8-0.5s1.1-0.8,1.7-1.5c0.6-0.6,1.2-1,1.8-1c1.6,0,2.4,1.9,2.4,5.5
				c0,2.3-0.2,3.9-0.5,5s-1,1.7-2,1.7c-0.6,0-1.2-0.3-1.9-0.9c-0.6-0.6-1.2-1.1-1.7-1.4c-0.5-0.3-1.4-0.5-2.7-0.5h-10v13.8
				L2472.6,579.7L2472.6,579.7z"/>
		</g>
		<g id="XMLID_1697_">
			<path id="XMLID_1700_" class="st1" d="M2526.2,594.5v-59.1h11.3v3.7h-8.1V591h8.3v3.6L2526.2,594.5L2526.2,594.5z"/>
			<path id="XMLID_1698_" class="st1" d="M2579.3,594.5V591h8.3v-51.8h-8.2v-3.7h11.4v59.1L2579.3,594.5L2579.3,594.5z"/>
		</g>
		<g id="XMLID_1692_">
			<path id="XMLID_1693_" class="st1" d="M2572.8,560.9c0.3,0.2,0.4,0.4,0.5,0.8c0,0.3-0.4,1.1-1.2,2.3c-0.5,0.7-1.2,2-2,3.9
				c-0.9,2-1.8,4-2.6,6.2c-0.9,2.2-1.7,4.2-2.5,6.1c-0.7,2-1.2,3.2-1.5,3.7c-0.7,1.7-1.2,2.3-1.5,1.9c-0.3-0.5-0.2-1.6,0.2-3.2
				c0.1-0.3,0.2-0.9,0.5-1.8c0.3-0.8,0.6-1.8,0.9-2.8c-1.5,0.5-3.2,0.9-5.1,1.2c-2,0.3-3.6,0.4-4.7,0.3c-0.7,1-1.5,1.8-2.3,2.5
				c-0.8,0.7-1.6,1.3-2.3,1.7c-0.7,0.5-1.5,0.8-2.5,1.2c-1,0.3-2,0.4-2.8,0.3c-0.9-0.1-1.5-0.5-2-1.2c-0.4-0.7-0.4-1.8,0.1-3.4
				c0.5-1.6,1.3-3.2,2.4-4.7c1.1-1.7,2.2-3.3,3.4-4.7c-0.6,0-1-0.2-1.1-0.7c-0.2-0.5,0.2-1,1-1.6c0.3-0.2,0.7-0.4,1.2-0.6
				c0.5-0.2,1-0.3,1.5-0.4c0.9-1.2,1.7-2.3,2.3-3.4c0.6-1,0.9-2,0.9-2.8c-0.1-1.3-0.6-2.4-1.6-3.2c-1-0.8-2.1-1.5-3.3-1.9
				c-1.2-0.4-2.4-0.7-3.6-0.9c-1.2-0.2-2-0.3-2.5-0.3c-0.4,0-0.8-0.2-1-0.6c-0.2-0.4-0.4-0.8-0.4-1.2c0-0.5,0.2-0.9,0.5-1.3
				s0.8-0.7,1.6-0.8c0.5-0.1,1.2,0,2.1,0.2c0.9,0.2,1.8,0.4,2.8,0.8c1,0.4,1.9,0.9,2.8,1.5c0.9,0.6,1.7,1.2,2.3,2
				c0.3-1.7,0.9-3.5,1.9-5.3s2.4-4,4-6.6c0.4-0.7,1-1.4,1.6-2.3c0.6-0.8,1.3-1.7,1.9-2.5c0.7-0.8,1.3-1.5,1.9-2.2
				c0.6-0.6,1.1-1.1,1.5-1.4c0.5-0.2,0.9,0,1.3,0.6c0.4,0.5,0.4,1.1,0,1.8c-0.2,0.2-0.7,0.7-1.5,1.7c-0.8,1-1.8,2.2-3,3.5
				c-1.2,1.4-2.4,2.9-3.6,4.4c-1.3,1.6-2.4,3.2-3.3,4.7c-0.5,0.7-0.9,1.7-1.2,2.7c-0.3,1.1-0.5,1.9-0.4,2.6c1.2,1.6,1.5,3.3,1,5.1
				c-0.5,1.8-1.4,3.6-2.5,5.2c1,0.2,1.8,0.5,2.6,1.1c0.8,0.5,1.2,1.3,1.4,2.3c0.1,1,0,1.9-0.1,2.8c-0.2,0.9-0.4,1.7-0.8,2.5
				c1,0,2.4,0,4,0s3.2-0.2,4.3-0.4c0.2-0.5,0.3-1,0.6-1.6c0.2-0.5,0.4-1.1,0.6-1.7c0.2-0.5,0.5-1.1,0.7-1.6c0.2-0.6,0.5-1.1,0.7-1.7
				c-1.5,0.4-3.1,0.7-4.8,0.8c-1.7,0.1-3.1,0.1-3.9-0.2c-0.4-0.1-0.7-0.2-0.7-0.5s0-0.6,0.2-0.9c0.2-0.3,0.4-0.7,0.6-1
				c0.2-0.3,0.4-0.5,0.5-0.6c0.1,0.1,0.4,0.1,1.1,0.2c0.7,0.1,1.4,0.1,2.4,0.2c0.9,0.1,1.9,0.1,2.9,0.1c1,0,1.9-0.1,2.8-0.2
				c0.4-1,0.9-2,1.3-2.9c0.4-0.9,0.8-1.6,1.1-2.1c0.4-0.7,0.7-1.3,1-1.6s0.5-0.5,0.6-0.5c0.2-0.1,0.3,0,0.5,0.1
				C2572.6,560.7,2572.7,560.8,2572.8,560.9z M2550.9,570.9l-2.3,2.7c-0.6,0.6-1.1,1.4-1.7,2.2c-0.6,0.8-1.1,1.6-1.5,2.4
				c-0.4,0.8-0.7,1.6-0.8,2.3c-0.1,0.7,0,1.3,0.3,1.8c0.4,0.6,1.2,0.8,2.2,0.4c1-0.4,2.1-1,3.2-2c1.1-0.9,2.1-2,3-3.4
				c0.9-1.3,1.4-2.6,1.6-3.9c0.1-0.7-0.4-1.2-1.3-1.6C2552.6,571.2,2551.7,571,2550.9,570.9z M2578.5,563.6c0.3,0.2,0.5,0.5,0.5,0.9
				c0.1,0.5-0.3,1.3-1.1,2.5c-0.5,0.7-1.1,1.8-1.7,3.3c-0.7,1.5-1.4,3.1-2,4.6c-0.6,1.7-1.2,3.4-1.8,4.8c-0.6,1.6-1,2.7-1.2,3.5
				c-0.5,1.7-0.9,2.4-1.3,1.9c-0.4-0.4-0.4-1.3-0.1-2.7c0.2-0.7,0.5-1.9,1-3.4c0.5-1.5,1-3.1,1.6-4.7s1.2-3.3,1.9-4.8
				c0.6-1.6,1.2-2.9,1.8-3.9c0.4-0.7,0.7-1.2,0.9-1.6c0.2-0.4,0.4-0.6,0.6-0.7c0.2-0.1,0.4-0.1,0.5,0
				C2578.1,563.4,2578.3,563.5,2578.5,563.6z"/>
		</g>
		<rect id="XMLID_1534_" x="2289.5" y="602" class="st1" width="318.9" height="2.8"/>
		<g id="XMLID_1623_">
			<path id="XMLID_1688_" class="st1" d="M2522.7,630.7c0-0.3,0-0.5-0.1-0.6c-0.1-0.1-0.2-0.1-0.4-0.1h-0.4v-0.3
				c0.7-0.2,1.1-0.3,1.1-0.3l0.8-0.3v3.9c0.2-0.3,0.5-0.6,0.8-0.8s0.7-0.3,1.1-0.3c0.5,0,0.9,0.1,1.2,0.4c0.3,0.3,0.6,0.6,0.8,1.1
				c0.2,0.4,0.3,0.9,0.3,1.4c0,0.6-0.1,1.1-0.4,1.6s-0.6,0.9-1.1,1.2c-0.5,0.3-1,0.5-1.5,0.5c-0.9,0-1.5-0.2-2-0.6
				c-0.1-0.1-0.2-0.3-0.2-0.4L2522.7,630.7L2522.7,630.7z M2523.8,636.8c0,0.2,0,0.3,0.1,0.4c0,0.1,0.2,0.1,0.4,0.3
				c0.3,0.1,0.5,0.2,0.8,0.2c0.6,0,1-0.2,1.3-0.7s0.4-1,0.4-1.6c0-0.7-0.1-1.3-0.4-1.8s-0.7-0.8-1.3-0.8c-0.4,0-0.8,0.1-1,0.3
				c-0.2,0.2-0.3,0.5-0.3,0.8V636.8z"/>
			<path id="XMLID_1686_" class="st1" d="M2533.2,632.9c0-0.1,0-0.1,0-0.2c0-0.2-0.2-0.3-0.6-0.4v-0.2h1.7v0.2
				c-0.1,0-0.2,0.1-0.4,0.3c-0.1,0.2-0.2,0.3-0.3,0.5l-1.9,4.9c-0.2,0.5-0.4,1-0.6,1.3c-0.2,0.3-0.4,0.7-0.7,1s-0.6,0.4-1,0.4
				c-0.4,0-0.7-0.1-0.9-0.4c0-0.1-0.1-0.2-0.1-0.3c0-0.1,0-0.2,0.1-0.3c0.1-0.2,0.3-0.3,0.6-0.3c0.1,0,0.2,0,0.4,0.1
				c0.2,0.1,0.3,0.1,0.4,0.1c0.2,0,0.4-0.1,0.6-0.3c0.2-0.2,0.4-0.6,0.6-1.1c0.1-0.2,0.2-0.4,0.2-0.6l-2.2-4.7
				c-0.2-0.3-0.4-0.5-0.7-0.6v-0.2h2.7v0.2c-0.5,0-0.8,0.1-0.8,0.4c0,0.1,0,0.3,0.1,0.5l1.5,3.3L2533.2,632.9z"/>
			<path id="XMLID_1642_" class="st1" d="M2542.4,635.4c0,0.9-0.2,1.6-0.6,2c-0.4,0.5-0.9,0.7-1.6,0.7c-0.3,0-0.5-0.1-0.8-0.2
				c-0.3-0.1-0.4-0.3-0.5-0.6V637c0-0.2,0.1-0.3,0.2-0.4c0.1-0.1,0.3-0.2,0.5-0.2s0.3,0,0.4,0.1c0.1,0.1,0.2,0.2,0.2,0.3
				c0,0.2,0,0.3,0.1,0.5c0.1,0.1,0.2,0.2,0.3,0.2c0.2,0,0.3-0.1,0.4-0.3s0.1-0.5,0.1-0.8v-6c0-0.5-0.4-0.8-1.3-0.8v-0.2h3.8v0.2
				c-0.8,0-1.3,0.3-1.3,0.8L2542.4,635.4L2542.4,635.4z"/>
			<path id="XMLID_1639_" class="st1" d="M2545.1,633.8c0-0.4,0-0.7-0.1-0.8c-0.1-0.1-0.2-0.2-0.4-0.2c-0.1,0-0.3,0-0.6,0.1v-0.2
				l2.1-0.7v4.8c0,0.3,0.1,0.5,0.2,0.6c0.1,0.1,0.4,0.2,0.8,0.2v0.2h-3.1v-0.2c0.4,0,0.7-0.1,0.8-0.2s0.2-0.3,0.2-0.6L2545.1,633.8
				L2545.1,633.8z M2544.9,629.8c0-0.2,0.1-0.3,0.2-0.5c0.1-0.1,0.3-0.2,0.5-0.2c0.2,0,0.4,0.1,0.5,0.2c0.1,0.1,0.2,0.3,0.2,0.5
				s-0.1,0.3-0.2,0.5c-0.1,0.1-0.3,0.2-0.5,0.2c-0.2,0-0.3-0.1-0.5-0.2C2544.9,630.1,2544.9,629.9,2544.9,629.8z"/>
			<path id="XMLID_1637_" class="st1" d="M2548.4,630.7c0-0.3,0-0.6-0.1-0.6c-0.1-0.1-0.3-0.1-0.7-0.1v-0.3c0.1,0,0.2-0.1,0.5-0.1
				c0.3-0.1,0.5-0.1,0.6-0.2l0.8-0.3v3.9c0.5-0.7,1.2-1.1,1.9-1.1c0.6,0,1.1,0.2,1.3,0.5c0.2,0.3,0.4,0.9,0.4,1.7v2.7
				c0,0.3,0.1,0.5,0.2,0.6c0.1,0.1,0.3,0.2,0.6,0.2v0.2h-2.8v-0.2c0.3,0,0.5-0.1,0.7-0.2c0.1-0.1,0.2-0.3,0.2-0.6v-2.7
				c0-0.5-0.1-0.9-0.2-1.1c-0.1-0.3-0.4-0.4-0.8-0.4c-0.3,0-0.6,0.1-0.8,0.2c-0.2,0.1-0.4,0.3-0.7,0.6v3.5c0,0.3,0.1,0.5,0.2,0.6
				s0.3,0.2,0.6,0.2v0.2h-2.8v-0.2c0.3,0,0.5-0.1,0.6-0.2c0.1-0.1,0.2-0.3,0.2-0.6L2548.4,630.7L2548.4,630.7L2548.4,630.7z"/>
			<path id="XMLID_1634_" class="st1" d="M2558.6,636.9c0,0.3,0.1,0.4,0.3,0.4c0.2,0,0.4-0.1,0.7-0.3v0.3c-0.1,0.1-0.3,0.3-0.5,0.4
				c-0.2,0.2-0.4,0.2-0.6,0.2c-0.3,0-0.6-0.1-0.7-0.3c-0.2-0.2-0.2-0.4-0.2-0.7c-0.7,0.7-1.4,1-1.9,1c-0.4,0-0.7-0.1-1-0.4
				c-0.3-0.3-0.4-0.6-0.4-1c0-0.4,0.1-0.7,0.3-1s0.5-0.5,0.8-0.7c0.3-0.2,0.7-0.4,1-0.5c0.3-0.1,0.7-0.3,1.1-0.4
				c0-0.5,0-0.9-0.1-1.1c0-0.3-0.1-0.5-0.3-0.6c-0.1-0.1-0.3-0.2-0.6-0.2c-0.2,0-0.3,0-0.5,0.1c-0.2,0.1-0.3,0.2-0.3,0.3
				c0,0,0,0.1,0,0.2c0,0,0,0.1,0,0.2c0,0.1,0,0.2,0,0.3c0,0.1-0.1,0.3-0.2,0.4c-0.1,0.1-0.3,0.2-0.4,0.2c-0.4,0-0.6-0.2-0.6-0.5
				c0-0.1,0-0.3,0.1-0.5c0.4-0.7,1.1-1,2.1-1c0.7,0,1.2,0.2,1.5,0.5s0.4,0.9,0.4,1.7L2558.6,636.9L2558.6,636.9z M2557.6,634.5
				c-0.3,0.1-0.5,0.2-0.8,0.3s-0.4,0.2-0.6,0.3s-0.4,0.3-0.5,0.5c-0.1,0.2-0.2,0.4-0.2,0.7s0.1,0.5,0.2,0.7c0.2,0.2,0.4,0.3,0.7,0.3
				c0.2,0,0.4-0.1,0.6-0.2c0.3-0.1,0.4-0.2,0.5-0.4L2557.6,634.5L2557.6,634.5L2557.6,634.5z"/>
			<path id="XMLID_1631_" class="st1" d="M2560.8,634.4c0,0.4,0.1,0.9,0.2,1.3c0.2,0.4,0.4,0.8,0.7,1.1s0.7,0.4,1.2,0.4
				c0.4,0,0.8-0.1,1.1-0.4c0.3-0.3,0.6-0.6,0.9-1l0.2,0.1c-0.2,0.6-0.6,1.1-1.1,1.6c-0.5,0.4-1,0.6-1.7,0.6c-0.5,0-0.9-0.1-1.3-0.4
				c-0.4-0.3-0.7-0.6-0.9-1.1c-0.2-0.4-0.3-0.9-0.3-1.4c0-0.6,0.1-1.2,0.3-1.7c0.2-0.5,0.5-0.9,0.9-1.1c0.4-0.3,0.9-0.4,1.4-0.4
				c0.7,0,1.2,0.2,1.7,0.7c0.4,0.4,0.6,1,0.6,1.7L2560.8,634.4L2560.8,634.4z M2563.5,634c0-0.4-0.1-0.8-0.3-1.1s-0.5-0.4-0.9-0.4
				c-0.8,0-1.3,0.5-1.5,1.5H2563.5z"/>
			<path id="XMLID_1629_" class="st1" d="M2576.1,633.3v-2.9c0-0.5-0.4-0.8-1.2-0.8v-0.2h3.6v0.2c-0.8,0-1.2,0.3-1.2,0.8v6.5
				c0,0.5,0.4,0.8,1.2,0.8v0.2h-3.6v-0.2c0.8,0,1.2-0.3,1.2-0.8v-3.1h-3.9v3.1c0,0.5,0.4,0.8,1.2,0.8v0.2h-3.6v-0.2
				c0.8,0,1.1-0.3,1.1-0.8v-6.5c0-0.5-0.4-0.8-1.1-0.8v-0.2h3.6v0.2c-0.8,0-1.2,0.3-1.2,0.8v2.9H2576.1z"/>
			<path id="XMLID_1626_" class="st1" d="M2583.5,636.9c0,0.3,0.1,0.4,0.3,0.4c0.2,0,0.4-0.1,0.7-0.3v0.3c-0.1,0.1-0.3,0.3-0.5,0.4
				c-0.2,0.2-0.4,0.2-0.6,0.2c-0.3,0-0.6-0.1-0.7-0.3c-0.2-0.2-0.2-0.4-0.2-0.7c-0.7,0.7-1.4,1-1.9,1c-0.4,0-0.7-0.1-1-0.4
				s-0.4-0.6-0.4-1c0-0.4,0.1-0.7,0.3-1c0.2-0.3,0.5-0.5,0.8-0.7c0.3-0.2,0.7-0.4,1-0.5c0.3-0.1,0.7-0.3,1.1-0.4
				c0-0.5,0-0.9-0.1-1.1c0-0.3-0.1-0.5-0.3-0.6c-0.1-0.1-0.3-0.2-0.6-0.2c-0.2,0-0.3,0-0.5,0.1c-0.2,0.1-0.3,0.2-0.3,0.3
				c0,0,0,0.1,0,0.2c0,0,0,0.1,0,0.2c0,0.1,0,0.2,0,0.3c0,0.1-0.1,0.3-0.2,0.4c-0.1,0.1-0.3,0.2-0.4,0.2c-0.4,0-0.6-0.2-0.6-0.5
				c0-0.1,0-0.3,0.1-0.5c0.4-0.7,1.1-1,2.1-1c0.7,0,1.2,0.2,1.5,0.5s0.4,0.9,0.4,1.7L2583.5,636.9L2583.5,636.9z M2582.4,634.5
				c-0.3,0.1-0.5,0.2-0.8,0.3c-0.2,0.1-0.4,0.2-0.6,0.3c-0.2,0.1-0.4,0.3-0.5,0.5s-0.2,0.4-0.2,0.7s0.1,0.5,0.2,0.7
				c0.2,0.2,0.4,0.3,0.7,0.3c0.2,0,0.4-0.1,0.6-0.2c0.3-0.1,0.4-0.2,0.5-0.4L2582.4,634.5L2582.4,634.5L2582.4,634.5z"/>
			<path id="XMLID_1624_" class="st1" d="M2585.4,633.8c0-0.3,0-0.5-0.1-0.6c0-0.1-0.1-0.2-0.2-0.3c-0.1,0-0.3-0.1-0.6-0.1v-0.2
				l1.9-0.6v1.1c0.6-0.7,1.3-1.1,2-1.1c1,0,1.6,0.7,1.6,2.1v2.8c0,0.3,0.1,0.5,0.2,0.6c0.1,0.1,0.3,0.2,0.6,0.2v0.2h-2.8v-0.2
				c0.3,0,0.5-0.1,0.7-0.2c0.1-0.1,0.2-0.3,0.2-0.6v-2.8c0-0.5-0.1-0.8-0.2-1.1c-0.1-0.2-0.4-0.4-0.8-0.4c-0.5,0-0.9,0.2-1.4,0.7
				v3.5c0,0.3,0.1,0.5,0.2,0.6c0.1,0.1,0.3,0.2,0.6,0.2v0.2h-2.8v-0.2c0.3,0,0.5-0.1,0.6-0.2c0.1-0.1,0.2-0.3,0.2-0.6L2585.4,633.8
				L2585.4,633.8z"/>
		</g>
		<g id="XMLID_1546_">
			<path id="XMLID_1621_" class="st1" d="M2463.4,619.4v-3c0-0.6-0.4-0.8-1.2-0.8v-0.2h3.7v0.2c-0.8,0-1.2,0.3-1.2,0.8v6.8
				c0,0.6,0.4,0.8,1.2,0.8v0.3h-3.7V624c0.8,0,1.2-0.3,1.2-0.8V620h-4.1v3.3c0,0.6,0.4,0.8,1.2,0.8v0.3h-3.7V624
				c0.8,0,1.2-0.3,1.2-0.8v-6.8c0-0.6-0.4-0.8-1.2-0.8v-0.2h3.7v0.2c-0.8,0-1.2,0.3-1.2,0.8v3H2463.4z"/>
			<path id="XMLID_1618_" class="st1" d="M2471.4,623c-0.6,0.9-1.1,1.3-1.6,1.3c-0.4,0-0.6-0.2-0.6-0.7v-0.4c-0.6,0.7-1.3,1-2,1
				c-0.5,0-0.8-0.2-1.2-0.5c-0.3-0.3-0.5-0.8-0.5-1.3c0-0.8,0.3-1.4,0.9-2c0.6-0.6,1.3-0.9,2.1-0.9c0.4,0,0.9,0.2,1.3,0.6l0.1-0.5
				l0.7-0.1l-0.9,3.4c-0.1,0.2-0.1,0.5-0.1,0.6c0,0.1,0,0.1,0.1,0.2c0,0.1,0.1,0.1,0.2,0.1c0.3,0,0.7-0.4,1.2-1.1L2471.4,623z
				 M2469.9,620.7c-0.4-0.5-0.8-0.7-1.2-0.7c-0.6,0-1.2,0.3-1.7,0.8c-0.5,0.6-0.8,1.2-0.8,1.9c0,0.4,0.1,0.7,0.3,1
				c0.2,0.3,0.5,0.4,0.8,0.4s0.6-0.1,0.9-0.3c0.3-0.2,0.6-0.5,0.9-0.9L2469.9,620.7z"/>
			<path id="XMLID_1616_" class="st1" d="M2478.4,623c-0.6,0.9-1.1,1.3-1.6,1.3c-0.4,0-0.6-0.2-0.6-0.7c0-0.1,0-0.3,0-0.4
				s0.1-0.3,0.1-0.5l0.5-1.9c0.1-0.3,0.1-0.4,0.1-0.5c0-0.2-0.1-0.4-0.3-0.4c-0.6,0-1.7,1.4-3.3,4.1l-0.6,0.1
				c0.6-2.5,0.9-3.7,0.9-3.8c0-0.2-0.1-0.3-0.2-0.3c-0.2,0-0.6,0.3-1.1,1l-0.2-0.2c0.7-0.9,1.3-1.4,1.6-1.4c0.3,0,0.4,0.2,0.4,0.6
				c0,0.3-0.2,1.2-0.6,2.9c1.4-2.3,2.4-3.5,3.2-3.5c0.5,0,0.7,0.3,0.7,0.8c0,0.2,0,0.5-0.1,0.7l-0.5,1.9c0,0.1-0.1,0.2-0.1,0.3
				c0,0.1,0,0.2,0,0.3c0,0.1,0,0.1,0.1,0.2c0,0.1,0.1,0.1,0.2,0.1c0.3,0,0.7-0.4,1.2-1.1L2478.4,623z"/>
			<path id="XMLID_1613_" class="st1" d="M2485.8,612.4v0.3l-2.3,10.4l-0.1,0.7c0,0.2,0.1,0.3,0.2,0.3c0.3,0,0.7-0.4,1.2-1.1
				l0.2,0.2c-0.6,0.9-1.1,1.3-1.6,1.3c-0.4,0-0.6-0.2-0.6-0.7v-0.4c-0.6,0.7-1.3,1-2,1c-0.5,0-0.8-0.2-1.2-0.5
				c-0.3-0.3-0.5-0.7-0.5-1.3c0-0.7,0.3-1.4,0.9-2c0.6-0.6,1.3-0.9,2.1-0.9c0.4,0,0.9,0.2,1.2,0.5l1.6-7.4l0.1-0.4
				c0-0.1,0-0.1-0.1-0.2l0,0c-0.2,0-0.5,0.3-1,0.8l-0.2-0.2c0.6-0.7,1.2-1.1,1.6-1.1C2485.6,611.8,2485.8,612,2485.8,612.4z
				 M2483.4,620.6c-0.3-0.4-0.7-0.6-1.1-0.6c-0.6,0-1.2,0.3-1.7,0.8c-0.5,0.6-0.8,1.2-0.8,1.9c0,0.4,0.1,0.7,0.3,1
				c0.2,0.3,0.5,0.4,0.8,0.4s0.6-0.1,0.9-0.3c0.3-0.2,0.6-0.5,0.9-0.9L2483.4,620.6z"/>
			<path id="XMLID_1611_" class="st1" d="M2495.2,623c-0.6,0.9-1.1,1.3-1.6,1.3c-0.4,0-0.6-0.2-0.6-0.7c0-0.1,0-0.3,0-0.4
				s0.1-0.3,0.1-0.5l0.5-1.9c0.1-0.3,0.1-0.4,0.1-0.5c0-0.2-0.1-0.4-0.3-0.4c-0.6,0-1.8,1.4-3.5,4.1l-0.6,0.1l0.9-3.3l0.1-0.7
				c0-0.2-0.1-0.3-0.3-0.3c-0.6,0-1.7,1.4-3.3,4.1l-0.6,0.1c0.6-2.5,0.9-3.7,0.9-3.8c0-0.2-0.1-0.3-0.2-0.3c-0.2,0-0.6,0.3-1.1,1
				l-0.2-0.2c0.7-0.9,1.3-1.4,1.6-1.4s0.4,0.2,0.4,0.6c0,0.3-0.2,1.2-0.6,2.9c1.4-2.3,2.4-3.5,3.2-3.5c0.5,0,0.7,0.3,0.7,0.8
				c0,0.2,0,0.4-0.1,0.7l-0.5,2.1c1.5-2.3,2.6-3.5,3.3-3.5c0.5,0,0.7,0.3,0.7,0.8c0,0.1,0,0.2,0,0.3c0,0.1-0.1,0.3-0.1,0.4l-0.5,1.9
				c0,0.1-0.1,0.2-0.1,0.3c0,0.1,0,0.2,0,0.3c0,0.2,0.1,0.3,0.2,0.3c0.3,0,0.6-0.4,1.1-1.1L2495.2,623z"/>
			<path id="XMLID_1608_" class="st1" d="M2501.8,623c-0.6,0.9-1.1,1.3-1.6,1.3c-0.4,0-0.6-0.2-0.6-0.7v-0.4c-0.6,0.7-1.3,1-2,1
				c-0.5,0-0.8-0.2-1.2-0.5c-0.3-0.3-0.5-0.8-0.5-1.3c0-0.8,0.3-1.4,0.9-2c0.6-0.6,1.3-0.9,2.1-0.9c0.4,0,0.9,0.2,1.3,0.6l0.1-0.5
				l0.7-0.1l-0.9,3.4c-0.1,0.2-0.1,0.5-0.1,0.6c0,0.1,0,0.1,0.1,0.2c0,0.1,0.1,0.1,0.2,0.1c0.3,0,0.7-0.4,1.2-1.1L2501.8,623z
				 M2500.4,620.7c-0.4-0.5-0.8-0.7-1.2-0.7c-0.6,0-1.2,0.3-1.7,0.8c-0.5,0.6-0.8,1.2-0.8,1.9c0,0.4,0.1,0.7,0.3,1
				c0.2,0.3,0.5,0.4,0.8,0.4c0.3,0,0.6-0.1,0.9-0.3c0.3-0.2,0.6-0.5,0.9-0.9L2500.4,620.7z"/>
			<path id="XMLID_1605_" class="st1" d="M2509.1,612.4v0.3l-2.3,10.4l-0.1,0.7c0,0.2,0.1,0.3,0.2,0.3c0.3,0,0.7-0.4,1.2-1.1
				l0.2,0.2c-0.6,0.9-1.1,1.3-1.6,1.3c-0.4,0-0.6-0.2-0.6-0.7v-0.4c-0.6,0.7-1.3,1-2,1c-0.5,0-0.8-0.2-1.2-0.5
				c-0.3-0.3-0.5-0.7-0.5-1.3c0-0.7,0.3-1.4,0.9-2c0.6-0.6,1.3-0.9,2.1-0.9c0.4,0,0.9,0.2,1.2,0.5l1.6-7.4l0.1-0.4
				c0-0.1,0-0.1-0.1-0.2l0,0c-0.2,0-0.5,0.3-1,0.8l-0.2-0.2c0.6-0.7,1.2-1.1,1.6-1.1C2509,611.8,2509.1,612,2509.1,612.4z
				 M2506.8,620.6c-0.3-0.4-0.7-0.6-1.1-0.6c-0.6,0-1.2,0.3-1.7,0.8c-0.5,0.6-0.8,1.2-0.8,1.9c0,0.4,0.1,0.7,0.3,1
				c0.2,0.3,0.5,0.4,0.8,0.4s0.6-0.1,0.9-0.3c0.3-0.2,0.6-0.5,0.9-0.9L2506.8,620.6z"/>
			<path id="XMLID_1602_" class="st1" d="M2513.2,620.7c0,0.5-0.3,0.8-0.8,1.2c-0.6,0.3-1.4,0.6-2.4,0.7l-0.1,0.2v0.2
				c0,0.8,0.4,1.2,1.1,1.2c0.5,0,1.1-0.3,1.8-0.8l0.2,0.2c-0.7,0.6-1.5,1-2.2,1c-0.5,0-0.9-0.1-1.2-0.4c-0.3-0.3-0.4-0.7-0.4-1.2
				c0-0.7,0.3-1.4,0.9-2c0.6-0.7,1.3-1,2.1-1c0.3,0,0.6,0.1,0.7,0.3C2513.1,620.2,2513.2,620.4,2513.2,620.7z M2512.7,620.7
				c0-0.4-0.2-0.6-0.6-0.6c-0.5,0-0.9,0.2-1.3,0.6c-0.4,0.4-0.7,0.9-0.8,1.6c0.8,0,1.5-0.2,2-0.5
				C2512.4,621.5,2512.7,621.1,2512.7,620.7z"/>
			<path id="XMLID_1599_" class="st1" d="M2516,623.2l-1.4,2.9l-0.2-0.1l0.6-2.4L2516,623.2z"/>
			<path id="XMLID_1596_" class="st1" d="M2530.1,622.6c0.2,0.5,0.4,0.8,0.5,1c0.2,0.2,0.4,0.3,0.8,0.3v0.3h-3.5v-0.3
				c0.4,0,0.6-0.1,0.7-0.1c0.1-0.1,0.2-0.2,0.2-0.3c0-0.1-0.1-0.5-0.3-1.1l-0.5-1.2h-3.6c0,0-0.1,0.3-0.4,0.9
				c-0.2,0.6-0.4,1-0.4,1.2c0,0.4,0.3,0.6,0.9,0.6v0.3h-2.7v-0.3c0.4,0,0.7-0.2,0.9-0.6c0.2-0.3,0.5-0.9,0.9-1.8l2.8-6.5h0.3
				L2530.1,622.6z M2524.8,620.8h3.2l-1.6-3.7L2524.8,620.8z"/>
			<path id="XMLID_1594_" class="st1" d="M2536.1,620.4c0,0.1,0,0.3-0.1,0.4c-0.1,0.1-0.2,0.2-0.3,0.2c-0.1,0-0.2,0-0.3-0.1
				c0.2-0.1,0.3-0.2,0.3-0.3c0-0.2-0.1-0.3-0.3-0.3c-0.5,0-1.5,1.4-2.9,4.1l-0.7,0.1c0.6-2.5,0.9-3.7,0.9-3.8c0-0.2-0.1-0.3-0.2-0.3
				c-0.2,0-0.6,0.3-1.1,1l-0.2-0.2c0.7-0.9,1.3-1.4,1.6-1.4s0.4,0.2,0.4,0.6c0,0.3-0.2,1.2-0.6,2.9c1.3-2.3,2.2-3.5,2.8-3.5
				C2535.9,619.8,2536.1,620,2536.1,620.4z"/>
			<path id="XMLID_1592_" class="st1" d="M2539,620.1h-1.1l-0.9,3c-0.1,0.3-0.2,0.5-0.2,0.6c0,0.2,0.1,0.3,0.4,0.3
				c0.1,0,0.3-0.1,0.5-0.2c0.2-0.2,0.5-0.4,0.7-0.8l0.2,0.2c-0.7,0.8-1.3,1.2-1.7,1.2c-0.4,0-0.7-0.3-0.7-0.8c0-0.1,0-0.3,0.1-0.4
				c0-0.2,0.1-0.3,0.1-0.4l0.8-2.7h-1v-0.3h1.1l0.5-1.9l0.1-0.5c0,0,0-0.1-0.1-0.1l0,0c-0.3,0-0.6,0.3-0.9,0.9l-0.3-0.1
				c0.6-0.8,1-1.2,1.4-1.2c0.3,0,0.5,0.2,0.5,0.6l-0.1,0.4l-0.6,1.9h1v0.3L2539,620.1L2539,620.1z"/>
			<path id="XMLID_1590_" class="st1" d="M2541.3,623.2l-1.4,2.9l-0.2-0.1l0.6-2.4L2541.3,623.2z"/>
			<path id="XMLID_1588_" class="st1" d="M2547.3,624.2v-0.3c0.8,0,1.2-0.3,1.2-0.8v-6.8c0-0.6-0.4-0.8-1.2-0.8v-0.2h7.2v1.9h-0.3
				c-0.2-0.9-0.7-1.4-1.6-1.4h-2.2c-0.4,0-0.6,0.2-0.6,0.5v2.9h1.9c0.5,0,0.9-0.1,1.3-0.3c0.3-0.2,0.5-0.5,0.5-1h0.3v3.2h-0.3
				c0-0.9-0.6-1.3-1.7-1.3h-1.9v3.4c0,0.4,0.1,0.5,0.3,0.5h1.8c0.5,0,0.9,0,1.2-0.1c0.3-0.1,0.6-0.2,0.9-0.5s0.6-0.7,0.8-1.2h0.4
				l-0.6,2.3L2547.3,624.2L2547.3,624.2z"/>
			<path id="XMLID_1586_" class="st1" d="M2564.4,623c-0.6,0.9-1.1,1.3-1.6,1.3c-0.4,0-0.6-0.2-0.6-0.7c0-0.1,0-0.3,0-0.4
				s0.1-0.3,0.1-0.5l0.5-1.9c0.1-0.3,0.1-0.4,0.1-0.5c0-0.2-0.1-0.4-0.3-0.4c-0.6,0-1.8,1.4-3.5,4.1l-0.6,0.1l0.9-3.3l0.1-0.7
				c0-0.2-0.1-0.3-0.3-0.3c-0.6,0-1.7,1.4-3.3,4.1l-0.6,0.1c0.6-2.5,0.9-3.7,0.9-3.8c0-0.2-0.1-0.3-0.2-0.3c-0.2,0-0.6,0.3-1.1,1
				l-0.2-0.2c0.7-0.9,1.3-1.4,1.6-1.4s0.4,0.2,0.4,0.6c0,0.3-0.2,1.2-0.6,2.9c1.4-2.3,2.4-3.5,3.2-3.5c0.5,0,0.7,0.3,0.7,0.8
				c0,0.2,0,0.4-0.1,0.7l-0.5,2.1c1.5-2.3,2.6-3.5,3.3-3.5c0.5,0,0.7,0.3,0.7,0.8c0,0.1,0,0.2,0,0.3c0,0.1-0.1,0.3-0.1,0.4l-0.5,1.9
				c0,0.1-0.1,0.2-0.1,0.3c0,0.1,0,0.2,0,0.3c0,0.2,0.1,0.3,0.2,0.3c0.3,0,0.6-0.4,1.1-1.1L2564.4,623z"/>
			<path id="XMLID_1583_" class="st1" d="M2570.2,621.5c0,0.7-0.3,1.4-0.9,2.1c-0.6,0.6-1.3,0.9-2.1,0.9c-0.6,0-1.1-0.2-1.4-0.5
				s-0.5-0.8-0.5-1.3c0-0.8,0.3-1.4,1-2c0.7-0.6,1.4-0.9,2.3-0.9c0.5,0,1,0.1,1.3,0.4C2570.1,620.5,2570.2,620.9,2570.2,621.5z
				 M2569.6,621.3c0-0.4-0.1-0.7-0.3-0.9c-0.2-0.2-0.5-0.3-0.9-0.3c-0.6,0-1.2,0.3-1.8,0.9c-0.5,0.6-0.8,1.2-0.8,1.9
				c0,0.9,0.4,1.3,1.3,1.3c0.6,0,1.2-0.3,1.7-0.9C2569.3,622.6,2569.6,621.9,2569.6,621.3z"/>
			<path id="XMLID_1581_" class="st1" d="M2574,620.1h-1.1l-0.9,3c-0.1,0.3-0.2,0.5-0.2,0.6c0,0.2,0.1,0.3,0.4,0.3
				c0.1,0,0.3-0.1,0.5-0.2c0.2-0.1,0.5-0.4,0.7-0.8l0.2,0.2c-0.7,0.8-1.3,1.2-1.7,1.2c-0.4,0-0.7-0.3-0.7-0.8c0-0.1,0-0.3,0.1-0.4
				c0-0.2,0.1-0.3,0.1-0.4l0.8-2.7h-1v-0.3h1.1l0.5-1.9l0.1-0.5c0,0,0-0.1-0.1-0.1l0,0c-0.3,0-0.6,0.3-0.9,0.9l-0.3-0.1
				c0.6-0.8,1-1.2,1.4-1.2c0.3,0,0.5,0.2,0.5,0.6l-0.1,0.4l-0.6,1.9h1v0.3L2574,620.1L2574,620.1z"/>
			<path id="XMLID_1578_" class="st1" d="M2578,623.1c-0.7,0.8-1.3,1.2-1.7,1.2c-0.2,0-0.4-0.1-0.5-0.2c-0.1-0.1-0.2-0.3-0.2-0.5
				c0-0.1,0-0.2,0.1-0.4c0-0.2,0.1-0.3,0.1-0.5l0.4-1.7c0-0.1,0.1-0.2,0.1-0.3c0-0.1,0-0.2,0-0.3c0-0.2-0.1-0.3-0.2-0.3
				c-0.3,0-0.6,0.4-1.1,1.1l-0.2-0.2c0.6-0.9,1.1-1.3,1.6-1.3c0.4,0,0.6,0.2,0.6,0.7c0,0.1,0,0.3-0.1,0.5c0,0.2-0.1,0.3-0.1,0.4
				l-0.5,1.8c-0.1,0.3-0.1,0.6-0.1,0.7c0,0.2,0.1,0.3,0.3,0.3c0.1,0,0.3-0.1,0.5-0.2c0.2-0.2,0.5-0.4,0.7-0.8H2578z M2578,615.8
				c0,0.3-0.2,0.5-0.5,0.5c-0.1,0-0.2,0-0.3-0.1c-0.1-0.1-0.1-0.2-0.1-0.3s0-0.2,0.1-0.3c0.1-0.1,0.2-0.2,0.3-0.2
				C2577.8,615.3,2578,615.5,2578,615.8z"/>
			<path id="XMLID_1575_" class="st1" d="M2583.7,621.5c0,0.7-0.3,1.4-0.9,2.1c-0.6,0.6-1.3,0.9-2.1,0.9c-0.6,0-1.1-0.2-1.4-0.5
				s-0.5-0.8-0.5-1.3c0-0.8,0.3-1.4,1-2c0.7-0.6,1.4-0.9,2.3-0.9c0.5,0,1,0.1,1.3,0.4C2583.5,620.5,2583.7,620.9,2583.7,621.5z
				 M2583.1,621.3c0-0.4-0.1-0.7-0.3-0.9c-0.2-0.2-0.5-0.3-0.9-0.3c-0.6,0-1.2,0.3-1.8,0.9c-0.5,0.6-0.8,1.2-0.8,1.9
				c0,0.9,0.4,1.3,1.3,1.3c0.6,0,1.2-0.3,1.7-0.9C2582.8,622.6,2583.1,621.9,2583.1,621.3z"/>
			<path id="XMLID_1573_" class="st1" d="M2590.9,623c-0.6,0.9-1.1,1.3-1.6,1.3c-0.4,0-0.6-0.2-0.6-0.7c0-0.1,0-0.3,0-0.4
				s0.1-0.3,0.1-0.5l0.5-1.9c0.1-0.3,0.1-0.4,0.1-0.5c0-0.2-0.1-0.4-0.3-0.4c-0.6,0-1.7,1.4-3.3,4.1l-0.6,0.1
				c0.6-2.5,0.9-3.7,0.9-3.8c0-0.2-0.1-0.3-0.2-0.3c-0.2,0-0.6,0.3-1.1,1l-0.2-0.2c0.7-0.9,1.3-1.4,1.6-1.4s0.4,0.2,0.4,0.6
				c0,0.3-0.2,1.2-0.6,2.9c1.4-2.3,2.4-3.5,3.2-3.5c0.5,0,0.7,0.3,0.7,0.8c0,0.2,0,0.5-0.1,0.7l-0.5,1.9c0,0.1-0.1,0.2-0.1,0.3
				c0,0.1,0,0.2,0,0.3c0,0.1,0,0.1,0.1,0.2c0,0.1,0.1,0.1,0.2,0.1c0.3,0,0.7-0.4,1.2-1.1L2590.9,623z"/>
		</g>
	</g>
</g>
</svg>
