<?xml version="1.0" encoding="utf-8"?>
<!-- Generator: Adobe Illustrator 19.0.0, SVG Export Plug-In . SVG Version: 6.00 Build 0)  -->
<svg version="1.1" id="Layer_1" xmlns="http://www.w3.org/2000/svg" xmlns:xlink="http://www.w3.org/1999/xlink" x="0px" y="0px"
	 viewBox="0 0 2627.5 710" style="enable-background:new 0 0 2627.5 710;" xml:space="preserve">
<style type="text/css">
	.st0{fill:#5A5B5B;}
	.st1{fill:#FFFFFF;}
	.st2{fill-rule:evenodd;clip-rule:evenodd;fill:#FFFFFF;}
	.st3{font-family:'JCsmPC';}
	.st4{font-size:50.4973px;}
	.st5{font-size:41.3225px;}
</style>
<g id="XMLID_677_">
	<rect id="XMLID_680_" x="21.8" y="19.9" class="st0" width="481.9" height="311.8"/>
	<rect id="XMLID_679_" x="35.9" y="96.8" class="st0" width="453.5" height="170.1"/>
	<g id="XMLID_678_">
		<g id="XMLID_2673_">
			<g id="XMLID_2705_">
				<path id="XMLID_2714_" class="st1" d="M150.2,188.8c0,0-0.3,6.8,5.5,6.8h3.7v16H153c-10.4,0-18.8-8.4-18.8-18.8v-28.5v-28.5
					c0-10.4,8.4-18.8,18.8-18.8h6.5v16h-3.7c-5.8,0-5.5,6.8-5.5,6.8V188.8z"/>
				<path id="XMLID_2713_" class="st1" d="M176.6,188.8c0,0,0.3,6.8-5.5,6.8h-3.7v16h6.5c10.4,0,18.8-8.4,18.8-18.8v-28.5v-28.5
					c0-10.4-8.4-18.8-18.8-18.8h-6.5v16h3.7c5.8,0,5.5,6.8,5.5,6.8V188.8z"/>
				<path id="XMLID_2712_" class="st1" d="M215.2,188.8c0,0-0.3,6.8,5.5,6.8h3.8v16H218c-10.4,0-18.8-8.4-18.8-18.8v-28.5v-28.5
					c0-10.4,8.4-18.8,18.8-18.8h6.5v16h-3.8c-5.8,0-5.5,6.8-5.5,6.8V188.8z"/>
				<path id="XMLID_2711_" class="st1" d="M241.6,188.8c0,0,0.3,6.8-5.5,6.8h-3.8v16h6.5c10.4,0,18.8-8.4,18.8-18.8v-28.5v-28.5
					c0-10.4-8.4-18.8-18.8-18.8h-6.5v16h3.8c5.8,0,5.5,6.8,5.5,6.8V188.8z"/>
				<path id="XMLID_2710_" class="st1" d="M280.2,188.8c0,0-0.3,6.8,5.5,6.8h3.8v16h-6.5c-10.4,0-18.8-8.4-18.8-18.8v-28.5v-28.5
					c0-10.4,8.4-18.8,18.8-18.8h6.5v16h-3.8c-5.8,0-5.5,6.8-5.5,6.8V188.8z"/>
				<path id="XMLID_2709_" class="st1" d="M306.6,188.8c0,0,0.3,6.8-5.5,6.8h-3.8v16h6.5c10.4,0,18.8-8.4,18.8-18.8v-28.5v-28.5
					c0-10.4-8.4-18.8-18.8-18.8h-6.5v16h3.8c5.8,0,5.5,6.8,5.5,6.8V188.8z"/>
				<path id="XMLID_2708_" class="st1" d="M358.9,160.4v-24.6c0-10.4-8.4-18.8-18.8-18.8h-11.5v16h8.8c5.8,0,5.5,6.8,5.5,6.8v20.6
					H358.9z"/>
				<path id="XMLID_2707_" class="st1" d="M342.8,168.3v24.6c0,10.4,8.4,18.8,18.8,18.8h14.7v-16h-11.9c-5.8,0-5.5-6.8-5.5-6.8
					v-20.6H342.8z"/>
				<path id="XMLID_2706_" class="st1" d="M380.7,117.1v20.6c0,0-0.3,6.8,5.5,6.8h5v16h-7.8c-10.4,0-18.8-8.4-18.8-18.8v-24.6H380.7
					z"/>
			</g>
			<g id="XMLID_2674_">
				<path id="XMLID_2703_" class="st1" d="M140.9,249.8v-3.9l7.7-12.1h-7.4v-4.5h13.4v3.9l-7.8,12.1h7.8v4.5H140.9z"/>
				<path id="XMLID_2701_" class="st1" d="M159.7,249.8v-20.6h13.7v4.5h-8.8v3.4h7.5v4.5h-7.5v3.6h8.8v4.5H159.7z"/>
				<path id="XMLID_2698_" class="st1" d="M189.4,249.8l-3.6-7.7h-1.7v7.7h-5v-20.6h8c4.5,0,6.9,3.2,6.9,6.6c0,2.8-1.7,4.6-3.3,5.4
					l4.4,8.6H189.4z M187,233.7h-2.8v4.2h2.8c1.4,0,2.2-1,2.2-2.1C189.1,234.7,188.3,233.7,187,233.7z"/>
				<path id="XMLID_2695_" class="st1" d="M212,247.6c-1.5,1.5-3.2,2.3-5.6,2.3c-2.5,0-4.2-0.8-5.6-2.3c-2.1-2.2-2-5.1-2-8.1
					c0-3.1-0.1-6,2-8.2c1.5-1.5,3.2-2.3,5.6-2.3c2.5,0,4.2,0.8,5.6,2.3c2.1,2.2,2,5.1,2,8.2C214.1,242.6,214.2,245.4,212,247.6z
					 M208.4,234.4c-0.4-0.5-1.1-0.9-2-0.9c-0.9,0-1.6,0.4-2,0.9c-0.5,0.6-0.7,1.3-0.7,5.1c0,3.8,0.3,4.4,0.7,5
					c0.4,0.5,1.1,0.9,2,0.9c0.9,0,1.6-0.4,2-0.9c0.5-0.6,0.7-1.3,0.7-5C209.1,235.7,208.8,235,208.4,234.4z"/>
				<path id="XMLID_2693_" class="st1" d="M234.1,249.9c-3.1,0-5.6-0.6-7.7-2.7l3.2-3.2c1,1.1,2.9,1.5,4.5,1.5c2,0,2.9-0.7,2.9-1.9
					c0-0.5-0.1-0.9-0.4-1.2c-0.3-0.3-0.7-0.5-1.3-0.6l-2.4-0.3c-1.8-0.3-3.1-0.9-4.1-1.8c-0.9-1-1.4-2.4-1.4-4.1
					c0-3.8,2.8-6.5,7.4-6.5c2.9,0,5.1,0.7,6.8,2.5l-3.1,3.2c-1.3-1.3-3-1.2-3.8-1.2c-1.7,0-2.4,1-2.4,1.9c0,0.3,0.1,0.6,0.4,1
					c0.3,0.3,0.7,0.5,1.4,0.6l2.4,0.3c1.8,0.3,3.1,0.8,4,1.7c1.1,1.1,1.5,2.6,1.5,4.5C241.9,247.6,238.3,249.9,234.1,249.9z"/>
				<path id="XMLID_2690_" class="st1" d="M255.4,242.4h-3v7.3h-5v-20.6h8c4.5,0,6.9,3.2,6.9,6.6
					C262.3,239.2,259.9,242.4,255.4,242.4z M255.1,233.7h-2.8v4.2h2.8c1.4,0,2.2-1,2.2-2.1C257.3,234.7,256.5,233.7,255.1,233.7z"/>
				<path id="XMLID_2687_" class="st1" d="M277.3,249.8l-0.9-3.1h-6.2l-1,3.1h-5.2l7.3-20.6h3.8l7.3,20.6H277.3z M273.3,237
					l-1.8,5.5h3.5L273.3,237z"/>
				<path id="XMLID_2685_" class="st1" d="M293.5,249.9c-2.4,0-4.1-0.8-5.6-2.3c-2.1-2.2-2-5.1-2-8.1c0-3.1-0.1-6,2-8.2
					c1.5-1.5,3.3-2.3,5.6-2.3c3.8,0,6.9,2.2,7.7,6.7h-5c-0.3-1.2-0.9-2.2-2.6-2.2c-0.9,0-1.6,0.4-2,0.9c-0.5,0.6-0.8,1.3-0.8,5.1
					c0,3.8,0.3,4.5,0.8,5.1c0.4,0.5,1,0.9,2,0.9c1.6,0,2.3-1,2.6-2.2h5C300.4,247.8,297.3,249.9,293.5,249.9z"/>
				<path id="XMLID_2683_" class="st1" d="M306,249.8v-20.6h13.7v4.5h-8.8v3.4h7.5v4.5h-7.5v3.6h8.8v4.5H306z"/>
				<path id="XMLID_2681_" class="st1" d="M334,249.8v-20.6h5v20.6H334z"/>
				<path id="XMLID_2679_" class="st1" d="M356.7,249.8l-6.5-10.3v10.3h-5v-20.6h4.3l6.5,10.3v-10.3h4.9v20.6H356.7z"/>
				<path id="XMLID_2677_" class="st1" d="M373.8,249.9c-2.4,0-4.1-0.8-5.6-2.3c-2.1-2.2-2-5.1-2-8.1c0-3.1-0.1-6,2-8.2
					c1.5-1.5,3.3-2.3,5.6-2.3c3.8,0,6.9,2.2,7.7,6.7h-5.1c-0.3-1.2-0.9-2.2-2.6-2.2c-0.9,0-1.6,0.4-2,0.9c-0.5,0.6-0.8,1.3-0.8,5.1
					c0,3.8,0.3,4.5,0.8,5.1c0.4,0.5,1.1,0.9,2,0.9c1.6,0,2.3-1,2.6-2.2h5.1C380.8,247.8,377.7,249.9,373.8,249.9z"/>
				<path id="XMLID_2675_" class="st1" d="M385.9,249.8v-5.2h5.1v5.2H385.9z"/>
			</g>
		</g>
	</g>
</g>
<g id="XMLID_676_">
	<rect id="XMLID_963_" x="546.4" y="19.9" class="st0" width="481.9" height="311.8"/>
	<rect id="XMLID_954_" x="560.5" y="96.8" class="st0" width="453.5" height="170.1"/>
	<g id="XMLID_861_">
		<g id="XMLID_886_">
			<path id="XMLID_892_" class="st1" d="M791.3,181.5v-5.7h19.3c1.7,0,3-1.4,3-3c0-1.7-1.4-3-3-3h-19.3v-14.3h19c1.7,0,3-1.4,3-3
				c0-1.7-1.4-3-3-3h-19v-14.3h19.3c1.7,0,3-1.4,3-3c0-1.7-1.4-3-3-3h-19.3v-5.7c12.1-0.8,22.4-9.6,24.2-21.2
				c0.3-1.7-0.9-3.2-2.5-3.5c-1.6-0.3-3.2,0.9-3.5,2.5c-1.5,9.2-10.1,16.2-20.1,16.2h-2.5c-10,0-18.6-7-20-16.2
				c-0.3-1.7-1.8-2.8-3.5-2.5c-1.7,0.3-2.8,1.8-2.5,3.5c1.8,11.6,12.1,20.4,24.3,21.2v5.7h-3.1c-13,0-23.5,10-23.5,22.3v2.1
				c0,12.3,10.6,22.3,23.5,22.3h3.1v5.7c-12.2,0.8-22.4,9.6-24.3,21.2c-0.3,1.6,0.9,3.2,2.5,3.5c1.7,0.3,3.2-0.9,3.5-2.5
				c1.5-9.2,10.1-16.2,20-16.2h2.5c10,0,18.6,7,20.1,16.2c0.2,1.5,1.5,2.6,3,2.6c0.2,0,0.3,0,0.5,0c1.7-0.3,2.8-1.8,2.5-3.5
				C813.7,191.2,803.5,182.3,791.3,181.5 M785.3,169.8h-3.1c-8.9,0-16.3-6.2-17.3-14.3h20.5V169.8z M785.3,149.5h-20.5
				c1.1-8,8.4-14.3,17.3-14.3h3.1V149.5z"/>
			<path id="XMLID_891_" class="st1" d="M780.2,166.5C780.2,166.5,780.3,166.5,780.2,166.5c0.5,0,0.8-0.1,1.1-0.4
				c0.3-0.3,0.5-0.7,0.5-1.1v-4.7c0-0.8-0.7-1.5-1.5-1.5h-8c-0.5,0-1,0.3-1.3,0.8c-0.3,0.5-0.3,1,0,1.5
				C772.8,164.3,776.3,166.3,780.2,166.5"/>
			<path id="XMLID_890_" class="st1" d="M780.2,138.8c-3.9,0.2-7.5,2.3-9.3,5.4c-0.3,0.5-0.3,1,0,1.5c0.3,0.5,0.8,0.8,1.3,0.8h8
				c0.8,0,1.5-0.7,1.5-1.5v-4.7c0-0.4-0.2-0.8-0.5-1.1C781,138.9,780.6,138.7,780.2,138.8"/>
			<path id="XMLID_887_" class="st1" d="M821.9,201.7c-1.3-7.9-6-15.4-12.6-20.1h1.4c5.3,0,9.4-3.8,9.4-8.8c0-5.2-4.2-9.4-9.4-9.4
				l-11,0c-0.4,0-0.8-0.4-0.8-0.8c0-0.4,0.3-0.8,0.8-0.8l10.8,0c5.2,0,9.4-4.2,9.4-9.4c0-5.2-4.2-9.4-9.4-9.4l-10.9,0.1
				c-0.4,0-0.8-0.4-0.8-0.8c0-0.4,0.3-0.8,0.8-0.8l11.2,0c5.2,0,9.4-4.2,9.4-9.4c0-5.1-4.1-9.1-9.4-9.1l-1.3,0
				c6.7-4.7,11.3-11.8,12.5-19.8c0.8-5.1-2.7-9.9-7.8-10.7c-5.1-0.8-9.9,2.7-10.7,7.8c-1,6.2-6.9,10.8-13.8,10.8h-2.5
				c-6.9,0-12.8-4.7-13.8-10.8c-0.4-2.5-1.7-4.7-3.8-6.1c-2-1.5-4.5-2.1-7-1.7c-2.5,0.4-4.6,1.7-6.1,3.8c-1.5,2-2.1,4.5-1.7,7
				c1.4,9.1,7.2,17.1,15.1,21.4c-10.4,4.7-17.9,15.3-17.9,26.8v2.1c0,11.6,7.3,22,18,26.6c-8.1,4.7-13.7,12.6-15.1,21.6
				c-0.8,5.1,2.7,9.9,7.8,10.7c5.1,0.8,9.9-2.7,10.7-7.8c1-6.2,6.9-10.8,13.8-10.8h2.5c6.9,0,12.8,4.6,13.8,10.8
				c0.4,2.5,1.7,4.6,3.7,6.1c1.6,1.2,3.5,1.8,5.5,1.8c0.5,0,1,0,1.5-0.1C819.2,211.7,822.7,206.9,821.9,201.7 M813.5,208.9
				c-1.6,0.2-3.1-0.1-4.3-1c-1.2-0.9-2-2.2-2.3-3.8c-1.3-7.9-8.7-13.9-17.4-13.9h-2.5c-8.6,0-16.1,6-17.4,13.9
				c-0.5,3.1-3.5,5.3-6.6,4.8c-3.1-0.5-5.3-3.4-4.8-6.6c1.5-9.2,7.8-17,16.9-20.8c0.7-0.3,1.2-1,1.1-1.8c-0.1-0.8-0.6-1.4-1.3-1.6
				c-11.3-3-19.4-13.1-19.4-24.5v-2.1c0-11.4,8.4-21.9,19.6-24.8c0.8-0.2,1.3-0.9,1.3-1.7c0-0.8-0.5-1.5-1.2-1.8
				c-8.8-3.1-15.4-11.1-16.9-20.5c-0.5-3.1,1.6-6.1,4.8-6.6c1.5-0.2,3,0.1,4.3,1c1.3,0.9,2.1,2.2,2.3,3.8
				c1.3,7.9,8.7,13.9,17.4,13.9h2.5c8.7,0,16.1-6,17.4-13.9c0.5-3.1,3.4-5.3,6.6-4.8c3.1,0.5,5.3,3.4,4.8,6.6
				c-1.5,9.2-7.9,17-16.7,20.5c-0.8,0.3-1.3,1.2-1.1,2c0.2,0.9,0.9,1.5,1.8,1.5l8.4,0c3.3,0,5.8,2.3,5.8,5.5c0,3.2-2.6,5.8-5.8,5.8
				l-11.2,0c-2.4,0-4.4,2-4.4,4.4c0,2.4,2,4.4,4.4,4.4l10.9-0.1c3.2,0,5.8,2.6,5.8,5.7c0,3.2-2.6,5.8-5.7,5.8l-10.8,0
				c-2.4,0-4.4,2-4.4,4.4c0,2.5,2,4.4,4.4,4.4l11.1,0c3.2,0,5.8,2.6,5.8,5.8c0,3-2.4,5.2-5.8,5.2h-8.5c-0.9,0-1.6,0.6-1.8,1.5
				c-0.2,0.9,0.3,1.7,1.1,2c8.4,3.3,15.3,11.8,16.7,20.8C818.8,205.4,816.6,208.4,813.5,208.9"/>
		</g>
		<g id="XMLID_862_">
			<path id="XMLID_884_" class="st1" d="M641.6,245.8v5.9h9.8v2.3h-9.8v6.5h10.2v2.4h-12.8v-19.4h12.8v2.4H641.6z"/>
			<path id="XMLID_881_" class="st1" d="M682.4,258.9h-9.3l-1.5,4h-2.7l7.1-19.4h3.2l7.3,19.4h-2.7L682.4,258.9z M681.5,256.7
				l-3.8-10.4l-3.8,10.4H681.5z"/>
			<path id="XMLID_879_" class="st1" d="M717.9,249.1h-2.6c0-0.9,0-1.6-0.1-1.9c-0.1-0.7-0.6-1.2-1.3-1.4c-0.5-0.1-1.3-0.2-2.5-0.2
				c-1.7,0-2.8,0-3.3,0.1c-0.9,0.2-1.5,0.6-1.8,1.3c-0.1,0.4-0.2,1-0.2,1.7c0,0.9,0.1,1.5,0.3,2c0.2,0.5,0.8,0.8,1.8,1
				c0.3,0,1.4,0.1,3,0.2c1.9,0.1,3.1,0.2,3.8,0.3c1.3,0.3,2.3,1,2.8,2c0.3,0.7,0.5,1.7,0.5,3.2c0,2.1-0.3,3.5-1,4.3
				c-0.7,0.8-1.7,1.3-2.9,1.4c-1,0.1-2.3,0.1-4,0.1c-2,0-3.4-0.1-4.1-0.3c-1.6-0.5-2.5-1.8-2.8-3.8c-0.1-0.4-0.1-1.2-0.1-2.5h2.6
				c0,0.4,0,0.6,0,0.7c0,1,0.1,1.7,0.2,2.1c0.1,0.4,0.4,0.8,0.7,1c0.3,0.2,0.8,0.3,1.5,0.4c0.7,0,1.6,0,2.6,0c1.4,0,2.4-0.1,3-0.2
				c0.6-0.1,1-0.3,1.2-0.6c0.3-0.4,0.5-1.4,0.5-2.9c0-0.8-0.1-1.3-0.2-1.7c-0.2-0.5-0.7-0.8-1.6-0.9c-0.4-0.1-1.5-0.1-3.2-0.2
				c-1.7-0.1-2.7-0.1-3.2-0.2c-1.4-0.2-2.4-0.8-3.1-1.7c-0.6-0.7-0.9-1.9-0.9-3.5c0-2.3,0.5-3.8,1.5-4.5c0.7-0.6,1.7-1,2.9-1.1
				c0.8-0.1,1.8-0.1,2.9-0.1c2.1,0,3.6,0.1,4.4,0.4c1.6,0.6,2.5,1.9,2.6,4C717.9,247.8,717.9,248.3,717.9,249.1z"/>
			<path id="XMLID_877_" class="st1" d="M744.2,246v16.9h-2.6V246h-6.2v-2.5h14.9v2.5H744.2z"/>
			<path id="XMLID_875_" class="st1" d="M771.1,243.5v19.4h-2.6v-19.4H771.1z"/>
			<path id="XMLID_873_" class="st1" d="M807.5,243.5v19.4h-3.8l-10.3-17v17h-2.6v-19.4h3.8l10.3,17v-17H807.5z"/>
			<path id="XMLID_870_" class="st1" d="M827.2,262.9v-19.4h9.2c1.2,0,2.2,0.1,3.1,0.3c1.3,0.3,2.3,1.1,3,2.5c0.6,1.2,1,3.2,1,6
				c0,2.3,0,3.9-0.1,4.8c-0.3,2.5-1.2,4.2-2.7,5c-0.6,0.3-1.5,0.6-2.7,0.7c-0.3,0-0.6,0.1-0.8,0.1H827.2z M829.8,260.5h6.2
				c2,0,3.3-0.4,3.9-1.1c0.5-0.6,0.8-1.6,0.9-3.1c0.1-0.6,0.1-1.6,0.1-2.8c0-2.2-0.1-3.7-0.2-4.6c-0.2-1.5-0.8-2.4-1.9-2.8
				c-0.6-0.2-1.4-0.3-2.4-0.3h-6.6V260.5z"/>
			<path id="XMLID_868_" class="st1" d="M864.9,243.5v19.4h-2.6v-19.4H864.9z"/>
			<path id="XMLID_866_" class="st1" d="M891.7,253h8.3c0.1,0.6,0.1,1.4,0.1,2.1c0,1.4,0,2.4,0,3.1c-0.1,2.3-1,3.8-2.6,4.5
				c-0.8,0.3-2.7,0.5-5.5,0.5c-1.9,0-3.3-0.1-4.2-0.3c-0.9-0.2-1.6-0.6-2.2-1.2c-0.9-0.9-1.5-2.2-1.6-4c0-0.7-0.1-1.6,0-2.7
				c0-0.2,0-0.9,0-2.1c0-0.3,0-0.5,0-0.8c0-1.7,0.1-3.1,0.2-4c0.1-0.9,0.4-1.7,0.7-2.4c0.6-1.3,1.7-2.1,3.3-2.4
				c0.6-0.1,1.8-0.2,3.5-0.2c1.9,0,3.2,0,3.9,0.1c0.7,0,1.2,0.2,1.7,0.3c1.6,0.6,2.5,1.9,2.6,3.8c0,0.3,0.1,1,0.1,2.1h-2.5
				c0-1.5-0.1-2.4-0.3-2.9c-0.2-0.5-0.8-0.8-1.8-0.9c-0.7-0.1-2-0.1-3.9-0.1c-1.5,0-2.7,0.1-3.3,0.3c-0.8,0.2-1.2,0.9-1.5,2
				c-0.1,0.6-0.2,2.3-0.2,5.3c0,2.3,0,3.7,0,4.1c0,1,0.2,1.7,0.5,2.3c0.3,0.5,0.7,0.8,1.2,1c0.7,0.2,2.3,0.3,4.7,0.3
				c1.3,0,2.2-0.1,2.8-0.2c0.6-0.1,1-0.3,1.3-0.7c0.4-0.5,0.5-1.7,0.5-3.7c0-0.2,0-0.6,0-1h-5.8V253z"/>
			<path id="XMLID_863_" class="st1" d="M926.8,243.2c1.4,0,2.5,0,3.2,0.1c0.7,0.1,1.4,0.3,1.9,0.5c1.6,0.7,2.5,2.3,2.8,4.7
				c0.1,0.7,0.1,1.9,0.1,3.6c0,3,0,4.9-0.1,5.6c-0.2,1.3-0.4,2.2-0.8,2.9c-0.4,0.7-1,1.2-1.8,1.6c-0.8,0.4-1.8,0.6-3.1,0.7
				c-0.7,0-1.5,0-2.5,0c-1.7,0-2.9,0-3.6-0.1c-0.7-0.1-1.4-0.3-2-0.6c-1.1-0.6-1.9-1.5-2.3-2.9c-0.3-1-0.4-2.1-0.4-3.4
				c0-0.8,0-2.1,0-3.8c0-1.8,0-3,0.1-3.7c0.3-2.4,1.2-4,2.8-4.7c0.7-0.3,1.6-0.5,2.8-0.6C924.7,243.2,925.7,243.2,926.8,243.2z
				 M926.3,245.6c-1.2,0-2.1,0-2.6,0.1c-0.5,0-1,0.2-1.3,0.3c-0.6,0.3-1.1,0.9-1.3,1.8c-0.2,0.7-0.2,1.4-0.2,2.3v3
				c0,2.3,0,3.7,0.1,4.2c0.1,0.9,0.2,1.6,0.5,2c0.2,0.5,0.6,0.8,1,1c0.4,0.2,1,0.3,1.8,0.3c0.6,0,1.4,0.1,2.4,0.1
				c1.3,0,2.3,0,2.8-0.1c0.6,0,1-0.1,1.4-0.3c0.6-0.3,1.1-0.9,1.3-1.9c0.2-0.7,0.2-1.4,0.2-2.3v-3c0-2.3,0-3.7-0.1-4.2
				c-0.1-0.9-0.2-1.6-0.5-2c-0.2-0.5-0.6-0.8-1-1c-0.4-0.2-1-0.3-1.8-0.3C928.3,245.7,927.4,245.6,926.3,245.6z"/>
		</g>
	</g>
</g>
<g id="XMLID_675_">
	<rect id="XMLID_1004_" x="1069.3" y="19.9" class="st0" width="481.9" height="311.8"/>
	<rect id="XMLID_1003_" x="1083.4" y="96.8" class="st0" width="453.5" height="170.1"/>
	<g id="XMLID_987_">
		<g id="XMLID_1041_">
			<path id="XMLID_1052_" class="st1" d="M1220.8,155.6h-16c-4.3,0-7.8-3.5-7.8-7.8c0-4.3,3.5-7.8,7.8-7.8h26.6v-6.4h-26.6
				c-7.8,0-14.1,6.3-14.1,14.1c0,7.8,6.3,14.1,14.1,14.1h16c4.3,0,7.8,3.5,7.8,7.8c0,4.3-3.5,7.8-7.8,7.8h-28.8v6.4h28.8
				c7.8,0,14.1-6.3,14.1-14.1C1234.9,161.9,1228.5,155.6,1220.8,155.6z"/>
			<path id="XMLID_1051_" class="st1" d="M1343,132.8c-12.8,0-23.2,10.4-23.2,23.2v27.8h6.4V156c0-9.3,7.6-16.9,16.9-16.9
				c9.3,0,16.9,7.6,16.9,16.9v27.8h6.4V156C1366.2,143.2,1355.8,132.8,1343,132.8z"/>
			<path id="XMLID_1050_" class="st1" d="M1142.2,147.8v21.9c0,7.8,6.3,14.1,14.1,14.1h26.6v-6.4h-26.6c-4.3,0-7.8-3.5-7.8-7.8V162
				h34.4v-6.4h-34.4v-7.8c0-4.3,3.5-7.8,7.8-7.8h26.6v-6.4h-26.6C1148.5,133.7,1142.2,140.1,1142.2,147.8z"/>
			<rect id="XMLID_1049_" x="1244.3" y="133.7" class="st1" width="6.4" height="36.7"/>
			<path id="XMLID_1048_" class="st1" d="M1247.4,175.2c-2.6,0-4.8,2.1-4.8,4.8c0,2.6,2.1,4.8,4.8,4.8c2.6,0,4.8-2.1,4.8-4.8
				C1252.2,177.4,1250.1,175.2,1247.4,175.2z"/>
			<path id="XMLID_1047_" class="st1" d="M1312.7,155.6h-32.8v6.4h26.3l-0.1,0.4c-1.7,9.3-9.8,16-19.3,16
				c-10.8,0-19.6-8.8-19.6-19.6c0-10.8,8.8-19.6,19.6-19.6c6.6,0,12.8,3.3,16.4,8.9h7.2c-4.2-9.3-13.4-15.3-23.7-15.3
				c-14.3,0-26,11.6-26,26c0,14.3,11.6,26,26,26c14.3,0,26-11.6,26-26C1312.9,157.8,1312.8,156.7,1312.7,155.6z"/>
			<g id="XMLID_1044_">
				<path id="XMLID_1046_" class="st1" d="M1391.4,134c-1.2-0.5-2.6-0.2-3.5,0.7l-11.8,11.8l4.5,4.5l6.4-6.4v39.2h6.4v-46.9
					C1393.4,135.6,1392.6,134.5,1391.4,134z"/>
				<path id="XMLID_1045_" class="st1" d="M1484.2,146.5l-11.8-11.8c-0.9-0.9-2.3-1.2-3.5-0.7c-1.2,0.5-2,1.6-2,2.9v46.9h6.4v-39.2
					l6.4,6.4L1484.2,146.5z"/>
			</g>
			<path id="XMLID_1043_" class="st1" d="M1459.2,154.3l-3.3,3.3l-0.1-0.7c-1-13.5-12.3-24.1-25.9-24.1c-10.4,0-19.5,6.2-23.6,15.1
				l5.6,3c3-6.9,9.9-11.7,17.9-11.7l0,0c10,0,18.4,7.5,19.5,17.5l0.1,0.9l-3.3-3.3l-2,2l8.5,8.5l8.5-8.5L1459.2,154.3z"/>
			<path id="XMLID_1042_" class="st1" d="M1400.7,163.3l3.3-3.3l0.1,0.7c1,13.5,12.3,24.1,25.9,24.1c10.4,0,19.5-6.2,23.6-15.1
				l-5.6-3c-3,6.9-9.9,11.7-17.9,11.7l0,0c-10,0-18.4-7.5-19.5-17.5l-0.1-0.9l3.3,3.3l2-2l-8.5-8.5l-8.5,8.5L1400.7,163.3z"/>
		</g>
		<g id="XMLID_1036_">
			<rect id="XMLID_1040_" x="1157.1" y="206.5" class="st1" width="2.3" height="19.6"/>
			<path id="XMLID_1037_" class="st1" d="M1148.6,206.1c-3.1,0-5.7,2.5-5.7,5.7c0,3.1,2.5,5.7,5.7,5.7c3.1,0,5.7-2.6,5.7-5.7
				C1154.3,208.7,1151.7,206.1,1148.6,206.1z M1148.6,215.2c-1.9,0-3.4-1.5-3.4-3.4c0-1.9,1.5-3.4,3.4-3.4s3.4,1.5,3.4,3.4
				C1152,213.7,1150.5,215.2,1148.6,215.2z"/>
		</g>
		<g id="XMLID_1022_">
			<path id="XMLID_1033_" class="st1" d="M1272.5,217.5c3.1,0,5.7-2.6,5.7-5.7c0-3.1-2.5-5.7-5.7-5.7c-3.1,0-5.7,2.5-5.7,5.7
				C1266.8,214.9,1269.4,217.5,1272.5,217.5z M1272.5,208.4c1.9,0,3.4,1.5,3.4,3.4c0,1.9-1.5,3.4-3.4,3.4c-1.9,0-3.4-1.5-3.4-3.4
				C1269.1,209.9,1270.6,208.4,1272.5,208.4z"/>
			<rect id="XMLID_1032_" x="1281.9" y="206.5" class="st1" width="2.3" height="15.2"/>
			<path id="XMLID_1023_" class="st1" d="M1273.7,221.6h-2.3v4.8c0,0.6,0.5,1.1,1.1,1.1h12.2v-2.3h-11.1V221.6z"/>
		</g>
		<g id="XMLID_1013_">
			<path id="XMLID_1019_" class="st1" d="M1332.8,221.6h-2.3v4.8c0,0.6,0.5,1.1,1.1,1.1h13v-2.3h-11.9V221.6z"/>
			<path id="XMLID_1015_" class="st1" d="M1330.9,219.7h2.3v-2.8h5.8v-2.3h-2.9l0.3-0.4c0.6-0.9,0.9-1.8,0.9-2.9
				c0-2.9-2.3-5.2-5.2-5.2c-2.9,0-5.2,2.3-5.2,5.2c0,1,0.3,2,0.9,2.9l0.3,0.4h-1.5v2.3h4.5V219.7z M1329.1,211.3
				c0-1.6,1.3-2.9,2.9-2.9c1.6,0,2.9,1.3,2.9,2.9c0,1.6-1.3,2.9-2.9,2.9C1330.4,214.2,1329.1,212.9,1329.1,211.3z"/>
			<polygon id="XMLID_1014_" class="st1" points="1341.7,223.1 1344,223.1 1344,206.5 1341.7,206.5 1341.7,219.2 1337.9,219.2 
				1337.9,221.5 1341.7,221.5 			"/>
		</g>
		<g id="XMLID_1000_">
			<path id="XMLID_1012_" class="st1" d="M1460,221.6h-2.3v4.8c0,0.6,0.5,1.1,1.1,1.1h13v-2.3H1460V221.6z"/>
			<path id="XMLID_1005_" class="st1" d="M1458.1,219.7h2.3v-2.8h5.8v-2.3h-2.9l0.3-0.4c0.6-0.9,0.9-1.8,0.9-2.9
				c0-2.9-2.3-5.2-5.2-5.2c-2.9,0-5.2,2.3-5.2,5.2c0,1,0.3,2,0.9,2.9l0.3,0.4h-1.5v2.3h4.5V219.7z M1456.3,211.3
				c0-1.6,1.3-2.9,2.9-2.9c1.6,0,2.9,1.3,2.9,2.9c0,1.6-1.3,2.9-2.9,2.9C1457.6,214.2,1456.3,212.9,1456.3,211.3z"/>
			<polygon id="XMLID_1001_" class="st1" points="1468.9,223.1 1471.2,223.1 1471.2,206.5 1468.9,206.5 1468.9,219.2 1465,219.2 
				1465,221.5 1468.9,221.5 			"/>
		</g>
		<g id="XMLID_995_">
			<path id="XMLID_999_" class="st1" d="M1220.2,208v18.1h2.3v-17h4.1v-2.3h-5.2C1220.7,206.9,1220.2,207.4,1220.2,208z"/>
			<polygon id="XMLID_996_" class="st1" points="1216.7,209.4 1216.7,207.1 1205.7,207.1 1205.7,209.4 1209.3,209.4 1205.5,217.5 
				1208,217.5 1211.2,210.6 1214.4,217.5 1216.9,217.5 1213.2,209.4 			"/>
		</g>
		<g id="XMLID_988_">
			<path id="XMLID_989_" class="st1" d="M1399,218.2l0.2,0c2.8-0.6,4.8-3.1,4.8-6c0-3.4-2.7-6.1-6.1-6.1c-3.4,0-6.1,2.7-6.1,6.1
				c0,2.8,2,5.3,4.8,6l0.2,0v4.9h-6.8v2.3h15.9v-2.3h-6.8V218.2z M1394,212.2c0-2.1,1.7-3.9,3.9-3.9c2.1,0,3.8,1.7,3.8,3.9
				c0,2.1-1.7,3.9-3.8,3.9C1395.8,216.1,1394,214.3,1394,212.2z"/>
		</g>
	</g>
</g>
<g id="XMLID_674_">
	<rect id="XMLID_1124_" x="1588.4" y="19.9" class="st0" width="481.9" height="311.8"/>
	<rect id="XMLID_1123_" x="1602.5" y="96.8" class="st0" width="453.5" height="170.1"/>
	<g id="XMLID_1094_">
		<path id="XMLID_1118_" class="st1" d="M1642.9,198.6c-5.1,0-8.4-1.3-12-4.8l7.1-7c1.4,1.3,2.5,2.2,4.9,2.2c3.4,0,5.8-1.9,5.8-6.1
			v-28.7h10.8v29C1659.5,193.6,1651.2,198.6,1642.9,198.6z"/>
		<path id="XMLID_1116_" class="st1" d="M1683.7,198.6c-9.2,0-16.6-6.2-16.6-15.8v-19.3l10.8-9.4v28.3c0,4.1,2.2,6.4,5.8,6.4
			c3.6,0,5.9-2.3,5.9-6.4v-28.3h10.8v28.6C1700.4,192.4,1692.8,198.6,1683.7,198.6z"/>
		<path id="XMLID_1114_" class="st1" d="M1721.2,198.6c-6.8,0-12.3-1.3-16.7-5.8l6.9-7c2.3,2.3,6.3,3.1,9.8,3.1c4.3,0,6.3-1.4,6.3-4
			c0-1.1-0.2-1.9-0.9-2.6c-0.6-0.6-1.5-1-2.9-1.2l-5.3-0.8c-3.9-0.5-6.9-1.8-8.8-3.9c-2.1-2.1-3-5.1-3-8.8c0-8.1,6.1-13.9,16.1-13.9
			c6.3,0,11.1,1.5,14.8,5.3l-6.8,6.8c-2.8-2.8-6.4-2.6-8.3-2.6c-3.8,0-5.3,2.2-5.3,4.1c0,0.6,0.2,1.4,0.9,2c0.5,0.6,1.5,1.1,3,1.3
			l5.3,0.8c4,0.5,6.8,1.8,8.7,3.7c2.3,2.3,3.3,5.6,3.3,9.7C1738.2,193.7,1730.5,198.6,1721.2,198.6z"/>
		<path id="XMLID_1112_" class="st1" d="M1764.4,163.8v27.4l-10.9,7v-34.4h-10.8v-9.7h32.5v9.7H1764.4z"/>
		<path id="XMLID_1109_" class="st1" d="M1802.9,179.6h-12.8v18.7h-3.3v-44.1h16.2c7.6,0,13.3,4.6,13.3,12.7
			C1816.2,174.9,1810.5,179.6,1802.9,179.6z M1802.5,157.1h-12.4v19.4h12.4c6.1,0,10.4-3.1,10.4-9.7
			C1812.9,160.2,1808.6,157.1,1802.5,157.1z"/>
		<path id="XMLID_1106_" class="st1" d="M1849.9,198.2l-10.5-20.3h-12.2v20.3h-3.3v-44.1h16.8c7.2,0,12.6,4.2,12.6,11.8
			c0,6.6-4,10.9-10.2,11.9l10.6,20.4H1849.9z M1840.2,157.1h-13V175h13c5.6,0,9.7-2.9,9.7-8.9C1850,160,1845.9,157.1,1840.2,157.1z"
			/>
		<path id="XMLID_1103_" class="st1" d="M1888,194.1c-2.9,2.9-6.9,4.5-11,4.5c-4.2,0-8.1-1.6-11-4.5c-4-4-4.1-7.9-4.1-17.9
			c0-9.9,0.1-13.9,4.1-17.9c2.9-2.9,6.9-4.5,11-4.5c4.1,0,8.1,1.6,11,4.5c4,4,4.1,7.9,4.1,17.9C1892.1,186.2,1892,190.1,1888,194.1z
			 M1885.3,160.2c-2.2-2.2-5.2-3.4-8.4-3.4c-3.2,0-6.1,1.2-8.3,3.4c-3.2,3.2-3.4,6.6-3.4,16c0,9.5,0.2,12.9,3.4,16
			c2.2,2.2,5.2,3.4,8.3,3.4c3.2,0,6.1-1.2,8.4-3.4c3.1-3.2,3.4-6.6,3.4-16C1888.7,166.7,1888.5,163.3,1885.3,160.2z"/>
		<path id="XMLID_1101_" class="st1" d="M1906.2,198.6c-4,0-7.1-1.3-9.7-3.8l2.3-2.3c1.7,1.7,3.5,3.1,7.4,3.1c6.3,0,9.8-4,9.8-11.1
			v-30.4h3.3v31.1C1919.3,193.3,1914.2,198.6,1906.2,198.6z"/>
		<path id="XMLID_1099_" class="st1" d="M1930.4,198.2v-44.1h26.7v3h-23.4v17.4h19.9v3h-19.9v17.8h23.4v3H1930.4z"/>
		<path id="XMLID_1097_" class="st1" d="M1979.8,198.6c-4.1,0-8.1-1.6-11-4.5c-4-4-4.1-7.9-4.1-17.9c0-9.9,0.1-13.9,4.1-17.9
			c2.9-2.9,6.9-4.5,11-4.5c5.3,0,8.9,2.2,12.4,5.5l-2.2,2.2c-3-3-5.6-4.8-10.2-4.8c-3.2,0-6.2,1.2-8.3,3.4c-3.2,3.2-3.4,6.6-3.4,16
			c0,9.5,0.3,12.9,3.4,16c2.1,2.2,5.2,3.4,8.3,3.4c4.6,0,7.2-1.8,10.2-4.8l2.2,2.2C1988.7,196.5,1985,198.6,1979.8,198.6z"/>
		<path id="XMLID_1095_" class="st1" d="M2014.6,157.1v41.1h-3.4v-41.1h-13.1v-3h29.7v3H2014.6z"/>
	</g>
</g>
<g id="XMLID_392_">
	<rect id="XMLID_1174_" x="2117.8" y="19.9" class="st0" width="481.9" height="311.8"/>
	<rect id="XMLID_1173_" x="2132" y="96.8" class="st0" width="453.5" height="170.1"/>
	<g id="XMLID_389_">
		<polygon id="XMLID_659_" class="st1" points="2386.3,162.3 2377.5,162.3 2377.5,133.1 2372.1,133.1 2372.1,167.2 2386.3,167.2 		
			"/>
		<polygon id="XMLID_658_" class="st1" points="2350,162.3 2340.7,162.3 2340.7,152.3 2348.1,152.3 2348.1,147.5 2340.7,147.5 
			2340.7,138 2350,138 2350,133.1 2335.4,133.1 2335.4,167.2 2350,167.2 		"/>
		<polygon id="XMLID_657_" class="st1" points="2390.6,167.2 2396,167.2 2396,155.9 2402.8,133.1 2397.7,133.1 2393.6,148.6 
			2393.5,148.6 2389.5,133.1 2383.9,133.1 2390.6,155.9 		"/>
		<path id="XMLID_656_" class="st1" d="M2410.3,154.4h2.5c5.4,0,8-3,8-8.4v-4.4c0-5.5-2.6-8.4-8-8.4h-7.9v34.1h5.4V154.4z
			 M2410.3,138h2.5c1.7,0,2.6,0.8,2.6,3.2v5.1c0,2.4-0.9,3.2-2.6,3.2h-2.5V138z"/>
		<path id="XMLID_655_" class="st1" d="M2360.9,167.6c5.3,0,8-3.1,8-8.6v-4.5h-5.1v4.9c0,2.4-1.1,3.3-2.8,3.3
			c-1.7,0-2.8-0.9-2.8-3.3v-18.4c0-2.4,1.1-3.4,2.8-3.4c1.7,0,2.8,0.9,2.8,3.4v3.7h5.1v-3.3c0-5.5-2.7-8.6-8-8.6c-5.3,0-8,3.1-8,8.6
			V159C2352.9,164.5,2355.6,167.6,2360.9,167.6z"/>
		<path id="XMLID_654_" class="st1" d="M2258.3,93.9v173.9h201V93.9H2258.3z M2435.4,233.9L2435.4,233.9c-0.2,1.3-1.3,2.3-2.6,2.3
			c-0.4,0-0.7-0.1-1.1-0.2c-0.5-0.2-0.9-0.4-1.4-0.7c-1.7-0.8-3.2-1.5-4.8-1.9c-2.1-0.5-4.2-0.7-6.2-0.7c-6.9,0-12.6,3-17.5,9
			c-0.4,0.5-1.4,1.8-3.1,1.8c-1.5,0-2.5-1.1-3.1-1.7c-4.5-4.9-10.4-7.6-16.7-7.6c-6.7,0-12.8,3-17.4,8.5c-0.4,0.5-1.4,1.7-3,1.7
			c-1.6,0-2.6-1.2-3.1-1.8c-4.4-5.3-10.7-8.3-17.3-8.3c-6.7,0-13,3-17.4,8.4l-0.1,0.1c-0.5,0.6-1.4,1.7-3,1.7
			c-1.6,0-2.6-1.1-2.9-1.5c-4.9-5.6-10.8-8.6-17.1-8.6c-3.6,0-7.3,0.9-11.1,2.8c-0.3,0.1-0.5,0.2-0.8,0.3c-0.1,0-0.2,0.1-0.3,0.1
			c-0.9,0.3-1.8,0.1-2.5-0.5c-0.5-0.4-0.8-1-0.8-1.7l0,0V117.5h153.2V233.9z"/>
		<path id="XMLID_653_" class="st1" d="M2323.7,167.6c5.3,0,8-3.1,8-8.6v-26h-5.1v26.3c0,2.4-1.1,3.3-2.8,3.3
			c-1.7,0-2.8-0.9-2.8-3.3v-26.3h-5.4v26C2315.7,164.5,2318.5,167.6,2323.7,167.6z"/>
		<path id="XMLID_625_" class="st1" d="M2304.7,167.6c5.3,0,8-3.1,8-8.6v-4.5h-5.1v4.9c0,2.4-1.1,3.3-2.8,3.3
			c-1.7,0-2.8-0.9-2.8-3.3v-18.4c0-2.4,1.1-3.4,2.8-3.4c1.7,0,2.8,0.9,2.8,3.4v3.7h5.1v-3.3c0-5.5-2.7-8.6-8-8.6c-5.3,0-8,3.1-8,8.6
			V159C2296.7,164.5,2299.5,167.6,2304.7,167.6z"/>
		<path id="XMLID_617_" class="st1" d="M2317.7,238.3c5.3-5.9,12.7-9.2,20.5-9.2c7.7,0,15.1,3.3,20.4,9.2c5.4-5.9,12.8-9.2,20.4-9.2
			c7.4,0,14.3,3,19.7,8.5c5.7-6.6,12.6-10,20.6-10c2.4,0,4.8,0.3,7.3,0.9c0.8,0.2,1.5,0.4,2.3,0.7c-3.9-12.2-11.8-24-22.1-32.9
			c-9.4-8-25.3-17.6-48-17.6c-1.9,0-3.9,0.1-5.9,0.2c-16.4,1.2-31.6,7.8-43.9,19.1c-10,9.2-17.3,20.7-20.7,32.8
			c3.2-1.1,6.3-1.6,9.4-1.6C2305.1,229.1,2312,232.2,2317.7,238.3z"/>
		<path id="XMLID_520_" class="st0" d="M2415.4,146.3v-5.1c0-2.4-0.9-3.2-2.6-3.2h-2.5v11.5h2.5
			C2414.5,149.5,2415.4,148.7,2415.4,146.3z"/>
		<path id="XMLID_449_" class="st0" d="M2282.2,235.2L2282.2,235.2c0.1,0.6,0.4,1.2,0.9,1.7c0.7,0.6,1.6,0.8,2.5,0.5
			c0.1,0,0.2-0.1,0.3-0.1c0.2-0.1,0.5-0.2,0.8-0.3c3.8-1.8,7.5-2.8,11.1-2.8c6.3,0,12.3,3,17.1,8.6c0.3,0.4,1.3,1.5,2.9,1.5
			c1.6,0,2.4-1.1,3-1.7l0.1-0.1c4.4-5.3,10.7-8.4,17.4-8.4c6.6,0,12.9,3,17.3,8.3c0.5,0.6,1.5,1.8,3.1,1.8c1.6,0,2.6-1.2,3-1.7
			c4.6-5.5,10.7-8.5,17.4-8.5c6.3,0,12.2,2.7,16.7,7.6c0.6,0.6,1.5,1.7,3.1,1.7c1.7,0,2.7-1.3,3.1-1.8c4.9-6.1,10.6-9,17.5-9
			c2,0,4.1,0.2,6.2,0.7c1.6,0.4,3.2,1.1,4.8,1.9c0.5,0.2,0.9,0.4,1.4,0.7c0.3,0.2,0.7,0.2,1.1,0.2c1.3,0,2.3-1,2.5-2.3l0.1,0V117.5
			h-153.2V235.2z M2404.9,133.1h7.9c5.4,0,8,3,8,8.4v4.4c0,5.5-2.6,8.4-8,8.4h-2.5v12.8h-5.4V133.1z M2389.5,133.1l4,15.5h0.1
			l4-15.5h5.1l-6.8,22.8v11.3h-5.4v-11.3l-6.8-22.8H2389.5z M2372.1,133.1h5.4v29.2h8.8v4.9h-14.2V133.1z M2352.9,141.3
			c0-5.5,2.7-8.6,8-8.6c5.3,0,8,3.1,8,8.6v3.3h-5.1v-3.7c0-2.4-1.1-3.4-2.8-3.4c-1.7,0-2.8,0.9-2.8,3.4v18.4c0,2.4,1.1,3.3,2.8,3.3
			c1.7,0,2.8-0.9,2.8-3.3v-4.9h5.1v4.5c0,5.5-2.7,8.6-8,8.6c-5.3,0-8-3.1-8-8.6V141.3z M2335.4,133.1h14.6v4.9h-9.3v9.5h7.4v4.9
			h-7.4v10h9.3v4.9h-14.6V133.1z M2315.7,133.1h5.4v26.3c0,2.4,1.1,3.3,2.8,3.3c1.7,0,2.8-0.9,2.8-3.3v-26.3h5.1v26
			c0,5.5-2.7,8.6-8,8.6c-5.3,0-8-3.1-8-8.6V133.1z M2296.7,141.3c0-5.5,2.7-8.6,8-8.6c5.3,0,8,3.1,8,8.6v3.3h-5.1v-3.7
			c0-2.4-1.1-3.4-2.8-3.4c-1.7,0-2.8,0.9-2.8,3.4v18.4c0,2.4,1.1,3.3,2.8,3.3c1.7,0,2.8-0.9,2.8-3.3v-4.9h5.1v4.5
			c0,5.5-2.7,8.6-8,8.6c-5.3,0-8-3.1-8-8.6V141.3z M2309.1,197.9c12.3-11.3,27.5-17.9,43.9-19.1c2-0.1,3.9-0.2,5.9-0.2
			c22.7,0,38.6,9.6,48,17.6c10.3,8.8,18.2,20.6,22.1,32.9c-0.7-0.3-1.5-0.5-2.3-0.7c-2.5-0.6-5-0.9-7.3-0.9c-8,0-15,3.4-20.6,10
			c-5.4-5.5-12.3-8.5-19.7-8.5c-7.6,0-15,3.4-20.4,9.2c-5.3-5.9-12.6-9.2-20.4-9.2c-7.8,0-15.1,3.3-20.5,9.2
			c-5.7-6-12.5-9.2-19.9-9.2c-3.1,0-6.2,0.6-9.4,1.6C2291.8,218.6,2299,207.1,2309.1,197.9z"/>
	</g>
</g>
<g id="XMLID_397_">
	<rect id="XMLID_1397_" x="22.6" y="374.9" class="st0" width="481.9" height="311.8"/>
	<rect id="XMLID_1396_" x="36.8" y="451.7" class="st0" width="453.5" height="170.1"/>
	<g id="XMLID_522_">
		<g id="XMLID_638_">
			<path id="XMLID_639_" class="st2" d="M382.4,474.5c0,0-2.7-9.2-13.4-13c-7.9-2.8-17.1,0.9-18.4,3.7
				c-1.3-22.1-31.1-36.6-56.3-26.7c-30.3,11.9-24.1,46.7-24.1,46.7s-23.6,0.3-25.3,22.4c-1.6,20.2,19.2,24.2,19.2,24.2
				s-1.2,23.8,20.4,34c40,18.9,62.9-8.5,62.9-8.5s4.3,6.3,12.7,8.9c2.6,0.8,4.6,2,5.1,5.8c2.8,19.8-2.7,29.8-1.3,44.2
				c0.5,4.7,3,8,7.1,7.9c3.1,0,6.1-2.1,7.1-7.3c2.5-13.2-5.1-31.6-2.6-46.1c0.7-4.1,4.9-5.2,7.8-6.6c20.7-9.7,16.1-29.2,16.1-29.2
				s30.8-9.8,22.1-39.3C414.1,470.5,382.3,474.5,382.4,474.5z"/>
		</g>
		<path id="XMLID_635_" class="st1" d="M164.9,614.2h-15.1v-32.4h-4.1v36h19.1V614.2z"/>
		<path id="XMLID_555_" class="st1" d="M172,586c-2.1,3.2-3.1,7.8-3.1,13.9c0,6.1,1,10.7,3.1,13.9c2.1,3.2,5.1,4.8,9,4.8
			c4,0,7-1.6,9-4.8c2.1-3.2,3.1-7.8,3.1-13.9c0-6.1-1-10.7-3.1-13.9c-2.1-3.2-5.1-4.8-9-4.8C177.1,581.1,174.1,582.8,172,586z
			 M175.2,611c-1.3-2.6-2-6.3-2-11.2c0-4.8,0.7-8.6,2-11.1c1.3-2.6,3.2-3.9,5.8-3.9c5.2,0,7.8,5,7.8,15c0,10-2.6,15-7.8,15
			C178.5,614.9,176.5,613.6,175.2,611z"/>
		<path id="XMLID_553_" class="st1" d="M221.8,581.8h-4.1v24.4c0,5.3-1.8,8.7-5.9,8.7c-4.1,0-6.1-3.7-6.1-8.6v-24.4h-4.1v24.8
			c0,7,3.4,11.9,10.2,11.9c6.7,0,10-4.5,10-12V581.8z"/>
		<path id="XMLID_550_" class="st1" d="M230.3,617.9h7.1c4.4,0,8-1.6,10.8-4.7c2.8-3.1,4.2-7.6,4.2-13.3c0-5.6-1.4-10-4.2-13.2
			c-2.8-3.2-6.5-4.8-11.1-4.8h-6.9V617.9z M234.4,585.5h2.9c3.3,0,6,1.3,7.9,3.8c2,2.6,2.9,6.1,2.9,10.5c0,4.5-1,8-2.9,10.6
			c-1.9,2.5-4.6,3.8-7.9,3.8h-2.9V585.5z"/>
		<path id="XMLID_548_" class="st1" d="M274.6,581.8h-6.7l2.6,3.7V608c0,2.4-0.5,4.1-1.4,5.2c-0.9,1.1-2.4,1.7-4.5,1.7
			c-2.4,0-4.6-0.5-6.5-1.5l-1.2,3.3c2.3,1.2,4.9,1.8,7.8,1.8c3.3,0,5.7-0.9,7.4-2.7c1.7-1.8,2.5-4.3,2.5-7.6V581.8z"/>
		<path id="XMLID_545_" class="st1" d="M299.6,581.8h-4.9l-11.5,36h4.2l3.9-12.6h11.5l3.9,12.6h4.3L299.6,581.8z M292.5,601.6
			l4.6-14.9l4.6,14.9H292.5z"/>
		<path id="XMLID_543_" class="st1" d="M341,581.8h-5.3l-5.9,16.4l-5.9-16.4h-5.3v36h3.9V587l5.3,14.8l1.8,5l2.1-5L337,587v30.9h3.9
			V581.8z"/>
		<path id="XMLID_523_" class="st2" d="M139.5,581.8c0,0-4.6,0-7.7,0c-7.3,0-15.7,5.4-15.7,18.2c0,13,8.2,17.8,18.3,17.8h2.8l0-3.7
			c0,0-1.3,0-2.1,0c-8.8,0-14.9-5-14.9-15c0-6.9,5.3-13.6,13-13.6c5,0,4.1,0,4.1,0L139.5,581.8z"/>
	</g>
</g>
<g id="XMLID_396_">
	<rect id="XMLID_1268_" x="544.1" y="374.9" class="st0" width="481.9" height="311.8"/>
	<rect id="XMLID_1267_" x="558.2" y="451.7" class="st0" width="453.5" height="170.1"/>
	<g id="XMLID_1233_">
		<g id="XMLID_1334_">
			<g id="XMLID_1388_">
				<g id="XMLID_1221_">
					<polygon id="XMLID_1630_" class="st1" points="678,528.1 663.4,528.1 663.4,594.3 678,594.3 678,528.1 678,528.1 					"/>
				</g>
				<polygon id="XMLID_1220_" class="st1" points="677.8,595.6 663.1,595.6 663.1,595.6 677.8,610.3 677.8,610.3 700.8,610.3 
					700.8,595.6 				"/>
				<polygon id="XMLID_1219_" class="st1" points="717.3,487.4 700.2,465.6 684.3,465.6 695.7,480.1 645.9,480.1 645.9,480.1 
					630.8,494.8 645.9,494.8 695.6,494.8 684.3,509.2 684.4,509.3 700.1,509.3 717.3,487.4 717.3,487.4 				"/>
				<polygon id="XMLID_1218_" class="st1" points="663.4,512.1 663.4,512.1 645.9,512.1 630.8,512.1 645.9,526.8 645.9,526.8 
					663.4,526.8 678,526.8 				"/>
				<g id="XMLID_1217_">
					<rect id="XMLID_1622_" x="630.7" y="496.1" class="st1" width="15.2" height="14.7"/>
				</g>
			</g>
			<g id="XMLID_1335_">
				<g id="XMLID_2420_">
					<path id="XMLID_2444_" class="st1" d="M767.6,488.5h-12.1v33.2h-10.6v-33.2h-12.1v-9.6h34.8V488.5z"/>
					<path id="XMLID_2441_" class="st1" d="M771.5,491.6c0.9-2.7,2.2-5.1,3.9-7.1c1.7-2,3.8-3.6,6.3-4.8c2.5-1.1,5.3-1.7,8.4-1.7
						c3.1,0,5.9,0.6,8.4,1.7c2.5,1.1,4.6,2.7,6.3,4.8c1.7,2,3,4.4,3.9,7.1c0.9,2.7,1.3,5.6,1.3,8.7c0,3.1-0.4,6-1.3,8.7
						c-0.9,2.7-2.2,5.1-3.9,7.1c-1.7,2-3.8,3.6-6.3,4.8c-2.5,1.1-5.3,1.7-8.4,1.7c-3.1,0-5.9-0.6-8.4-1.7c-2.5-1.1-4.6-2.7-6.3-4.8
						c-1.7-2-3-4.4-3.9-7.1c-0.9-2.7-1.3-5.6-1.3-8.7C770.2,497.2,770.6,494.3,771.5,491.6z M781.3,505c0.4,1.5,0.9,2.9,1.7,4.1
						c0.8,1.2,1.7,2.1,3,2.8c1.2,0.7,2.6,1.1,4.3,1.1c1.6,0,3.1-0.4,4.3-1.1c1.2-0.7,2.2-1.6,3-2.8c0.8-1.2,1.3-2.6,1.7-4.1
						c0.4-1.5,0.5-3.1,0.5-4.7c0-1.6-0.2-3.2-0.5-4.7c-0.4-1.5-0.9-2.9-1.7-4.1c-0.8-1.2-1.7-2.1-3-2.8c-1.2-0.7-2.6-1-4.3-1
						c-1.6,0-3.1,0.4-4.3,1c-1.2,0.7-2.2,1.6-3,2.8c-0.8,1.2-1.3,2.6-1.7,4.1c-0.4,1.5-0.5,3.1-0.5,4.7
						C780.8,501.9,781,503.5,781.3,505z"/>
					<path id="XMLID_2439_" class="st1" d="M850.6,504c0,6.3-1.4,10.9-4.3,14c-2.9,3.1-7.3,4.6-13.4,4.6c-6.1,0-10.5-1.5-13.4-4.6
						c-2.9-3.1-4.3-7.7-4.3-14v-25.1h10.6v25.8c0,2.8,0.6,4.9,1.7,6.3c1.1,1.4,2.9,2,5.5,2c2.5,0,4.4-0.7,5.5-2
						c1.1-1.4,1.7-3.5,1.7-6.3v-25.8h10.6V504z"/>
					<path id="XMLID_2437_" class="st1" d="M884.1,494.2c-0.3-2.1-1.1-3.7-2.6-4.9c-1.5-1.1-3.3-1.7-5.6-1.7c-1.6,0-3.1,0.4-4.3,1
						c-1.2,0.7-2.2,1.6-3,2.8c-0.8,1.2-1.3,2.6-1.7,4.1c-0.4,1.5-0.5,3.1-0.5,4.7c0,1.6,0.2,3.2,0.5,4.7c0.4,1.5,0.9,2.9,1.7,4.1
						c0.8,1.2,1.7,2.1,3,2.8c1.2,0.7,2.6,1.1,4.3,1.1c2.5,0,4.4-0.7,5.8-2.1c1.4-1.4,2.2-3.3,2.4-5.8h10.6c-0.2,2.7-0.7,5.2-1.7,7.3
						c-1,2.2-2.3,4-3.9,5.5c-1.7,1.5-3.6,2.6-5.8,3.4c-2.2,0.8-4.6,1.2-7.2,1.2c-3,0-5.8-0.6-8.3-1.7c-2.5-1.1-4.7-2.7-6.5-4.8
						c-1.8-2-3.2-4.4-4.1-7.1c-1-2.7-1.4-5.6-1.4-8.7c0-3.1,0.5-6,1.4-8.7c0.9-2.7,2.3-5.1,4.1-7.1c1.8-2,4-3.6,6.5-4.8
						c2.5-1.1,5.3-1.7,8.3-1.7c2.2,0,4.4,0.4,6.6,1.1c2.2,0.7,4.1,1.8,5.9,3.2c1.8,1.4,3.2,3.1,4.3,5.2c1.1,2,1.7,4.3,1.7,6.7H884.1
						z"/>
					<path id="XMLID_2435_" class="st1" d="M899.6,478.9h10.6v15.6h14v-15.6h10.6v42.8h-10.6v-17.6h-14v17.6h-10.6V478.9z"/>
					<path id="XMLID_2432_" class="st1" d="M765.7,557.7v8.6h-5.2v9.3h-9.7v-9.3h-17.4v-9.5l17.8-23h9.3v23.9H765.7z M751.2,557.7
						v-13.5h-0.1l-10,13.5H751.2z"/>
					<path id="XMLID_2430_" class="st1" d="M808.2,575.6h-6.8l-0.6-4.7c-1.3,1.9-3,3.3-5,4.2c-2.1,0.9-4.2,1.3-6.3,1.3
						c-3,0-5.8-0.6-8.3-1.7c-2.5-1.1-4.7-2.7-6.5-4.8c-1.8-2-3.2-4.4-4.1-7.1c-1-2.7-1.4-5.6-1.4-8.7c0-3.1,0.5-6,1.4-8.7
						c0.9-2.7,2.3-5.1,4.1-7.1c1.8-2,4-3.6,6.5-4.8c2.5-1.1,5.3-1.7,8.3-1.7c2.2,0,4.3,0.3,6.4,0.9c2.1,0.6,4,1.6,5.7,2.8
						c1.7,1.3,3.1,2.9,4.3,4.9c1.1,2,1.8,4.2,2,6.8h-10.6c-0.2-1.8-1-3.2-2.5-4.3c-1.5-1.1-3.4-1.6-5.6-1.6c-1.6,0-3.1,0.4-4.3,1
						c-1.2,0.7-2.2,1.6-3,2.8c-0.8,1.2-1.3,2.6-1.7,4.1c-0.4,1.5-0.5,3.1-0.5,4.7c0,1.6,0.2,3.2,0.5,4.7c0.4,1.5,0.9,2.9,1.7,4.1
						c0.8,1.2,1.7,2.1,3,2.8c1.2,0.7,2.6,1.1,4.3,1.1c2.6,0,4.8-0.6,6.4-1.8c1.7-1.2,2.6-2.7,2.9-4.7h-7.4v-8.3h17.1V575.6z"/>
					<path id="XMLID_2427_" class="st1" d="M814.2,545.5c0.9-2.7,2.2-5.1,3.9-7.1c1.7-2,3.8-3.6,6.4-4.8c2.5-1.1,5.3-1.7,8.4-1.7
						c3.1,0,5.9,0.6,8.4,1.7c2.5,1.1,4.6,2.7,6.3,4.8c1.7,2,3,4.4,3.9,7.1c0.9,2.7,1.3,5.6,1.3,8.7c0,3.1-0.4,6-1.3,8.7
						c-0.9,2.7-2.2,5.1-3.9,7.1c-1.7,2-3.8,3.6-6.3,4.8c-2.5,1.1-5.3,1.7-8.4,1.7c-3.1,0-5.9-0.6-8.4-1.7c-2.5-1.1-4.6-2.7-6.4-4.8
						c-1.7-2-3-4.4-3.9-7.1c-0.9-2.7-1.3-5.6-1.3-8.7C812.9,551.1,813.3,548.2,814.2,545.5z M824,559c0.4,1.5,0.9,2.9,1.7,4.1
						c0.8,1.2,1.7,2.1,3,2.8c1.2,0.7,2.6,1.1,4.3,1.1c1.6,0,3.1-0.4,4.3-1.1c1.2-0.7,2.2-1.6,3-2.8c0.8-1.2,1.3-2.6,1.7-4.1
						c0.4-1.5,0.5-3.1,0.5-4.7c0-1.6-0.2-3.2-0.5-4.7c-0.4-1.5-0.9-2.9-1.7-4.1c-0.8-1.2-1.7-2.1-3-2.8c-1.2-0.7-2.6-1-4.3-1
						c-1.6,0-3.1,0.4-4.3,1c-1.2,0.7-2.2,1.6-3,2.8c-0.8,1.2-1.3,2.6-1.7,4.1c-0.4,1.5-0.5,3.1-0.5,4.7
						C823.5,555.9,823.7,557.5,824,559z"/>
					<path id="XMLID_2424_" class="st1" d="M858,545.5c0.9-2.7,2.2-5.1,3.9-7.1c1.7-2,3.8-3.6,6.4-4.8c2.5-1.1,5.3-1.7,8.4-1.7
						s5.9,0.6,8.4,1.7c2.5,1.1,4.6,2.7,6.4,4.8c1.7,2,3,4.4,3.9,7.1c0.9,2.7,1.3,5.6,1.3,8.7c0,3.1-0.4,6-1.3,8.7
						c-0.9,2.7-2.2,5.1-3.9,7.1c-1.7,2-3.8,3.6-6.4,4.8c-2.5,1.1-5.3,1.7-8.4,1.7s-5.9-0.6-8.4-1.7c-2.5-1.1-4.6-2.7-6.4-4.8
						c-1.7-2-3-4.4-3.9-7.1c-0.9-2.7-1.3-5.6-1.3-8.7C856.6,551.1,857.1,548.2,858,545.5z M867.8,559c0.4,1.5,0.9,2.9,1.7,4.1
						c0.8,1.2,1.7,2.1,3,2.8c1.2,0.7,2.6,1.1,4.3,1.1c1.6,0,3.1-0.4,4.3-1.1c1.2-0.7,2.2-1.6,3-2.8c0.8-1.2,1.3-2.6,1.7-4.1
						c0.4-1.5,0.5-3.1,0.5-4.7c0-1.6-0.2-3.2-0.5-4.7c-0.4-1.5-0.9-2.9-1.7-4.1c-0.8-1.2-1.7-2.1-3-2.8c-1.2-0.7-2.6-1-4.3-1
						c-1.6,0-3.1,0.4-4.3,1c-1.2,0.7-2.2,1.6-3,2.8c-0.8,1.2-1.3,2.6-1.7,4.1c-0.4,1.5-0.5,3.1-0.5,4.7
						C867.2,555.9,867.4,557.5,867.8,559z"/>
					<path id="XMLID_2421_" class="st1" d="M901.9,532.8h17.5c6.2,0,11.1,1.9,14.6,5.6c3.5,3.8,5.3,9,5.3,15.6c0,7-1.8,12.3-5.3,16
						c-3.5,3.7-8.4,5.6-14.7,5.6h-17.5V532.8z M912.5,566h5c4-0.1,6.9-1,8.6-2.9c1.7-1.8,2.6-4.9,2.6-9.2c0-3.8-1-6.7-2.9-8.7
						c-1.9-1.9-4.7-2.9-8.3-2.9h-5V566z"/>
				</g>
			</g>
		</g>
		<g id="XMLID_1239_">
			<path id="XMLID_1332_" class="st1" d="M740.2,606.3c0.2-0.2,0.2-0.1,0.2,0.1v1.4c-0.5,0.4-1,0.7-1.6,0.9
				c-0.6,0.2-1.2,0.3-1.9,0.3c-0.9,0-1.7-0.1-2.5-0.4c-0.7-0.3-1.4-0.6-1.9-1.1c-0.5-0.5-0.9-1.1-1.2-1.9c-0.3-0.8-0.4-1.6-0.4-2.6
				c0-0.9,0.1-1.8,0.4-2.5c0.3-0.8,0.7-1.4,1.2-1.9c0.5-0.5,1.2-1,1.9-1.2c0.7-0.3,1.6-0.4,2.5-0.4c0.6,0,1.2,0.1,1.8,0.3
				c0.6,0.2,1.1,0.4,1.6,0.8v1.5c0,0.2-0.1,0.3-0.2,0.1c-0.5-0.4-1-0.7-1.5-0.9c-0.5-0.2-1.1-0.2-1.7-0.2c-0.7,0-1.3,0.1-1.8,0.4
				c-0.5,0.2-0.9,0.6-1.3,1c-0.3,0.4-0.6,0.9-0.8,1.5c-0.2,0.6-0.3,1.2-0.3,1.8c0,0.7,0.1,1.3,0.3,1.8c0.2,0.6,0.4,1,0.8,1.4
				c0.3,0.4,0.8,0.7,1.3,0.9c0.5,0.2,1.1,0.3,1.8,0.3c0.6,0,1.2-0.1,1.6-0.3C739.2,607,739.7,606.7,740.2,606.3z"/>
			<path id="XMLID_1329_" class="st1" d="M746.2,608.9c-1,0-1.8-0.2-2.5-0.5c-0.7-0.3-1.3-0.8-1.7-1.3c-0.5-0.6-0.8-1.2-1-1.9
				c-0.2-0.7-0.3-1.5-0.3-2.3c0-0.9,0.1-1.7,0.3-2.4c0.2-0.7,0.6-1.4,1-1.9c0.5-0.5,1-1,1.7-1.3c0.7-0.3,1.5-0.5,2.4-0.5
				c0.9,0,1.7,0.2,2.4,0.5c0.7,0.3,1.3,0.7,1.7,1.3c0.5,0.5,0.8,1.2,1,1.9c0.2,0.7,0.3,1.6,0.3,2.4c0,0.8-0.1,1.6-0.3,2.3
				c-0.2,0.7-0.6,1.4-1,1.9c-0.5,0.6-1,1-1.7,1.3C748,608.7,747.2,608.9,746.2,608.9z M746.2,607.4c1.2,0,2-0.4,2.6-1.2
				c0.6-0.8,0.9-1.9,0.9-3.4c0-1.6-0.3-2.7-0.9-3.5c-0.6-0.8-1.5-1.1-2.6-1.1c-1.2,0-2,0.4-2.6,1.1c-0.6,0.8-0.9,1.9-0.9,3.5
				c0,1.5,0.3,2.7,0.9,3.4C744.2,607,745.1,607.4,746.2,607.4z"/>
			<path id="XMLID_1327_" class="st1" d="M755.6,591.4v17.3h-1.9v-17.3H755.6z"/>
			<path id="XMLID_1324_" class="st1" d="M762.9,608.9c-1,0-1.8-0.2-2.5-0.5c-0.7-0.3-1.3-0.8-1.7-1.3c-0.5-0.6-0.8-1.2-1-1.9
				c-0.2-0.7-0.3-1.5-0.3-2.3c0-0.9,0.1-1.7,0.3-2.4c0.2-0.7,0.6-1.4,1-1.9c0.5-0.5,1-1,1.7-1.3c0.7-0.3,1.5-0.5,2.4-0.5
				c0.9,0,1.7,0.2,2.4,0.5c0.7,0.3,1.3,0.7,1.7,1.3c0.5,0.5,0.8,1.2,1,1.9c0.2,0.7,0.3,1.6,0.3,2.4c0,0.8-0.1,1.6-0.3,2.3
				c-0.2,0.7-0.6,1.4-1,1.9c-0.5,0.6-1,1-1.7,1.3C764.7,608.7,763.9,608.9,762.9,608.9z M762.9,607.4c1.2,0,2-0.4,2.6-1.2
				c0.6-0.8,0.9-1.9,0.9-3.4c0-1.6-0.3-2.7-0.9-3.5c-0.6-0.8-1.5-1.1-2.6-1.1c-1.2,0-2,0.4-2.6,1.1c-0.6,0.8-0.9,1.9-0.9,3.5
				c0,1.5,0.3,2.7,0.9,3.4C760.9,607,761.8,607.4,762.9,607.4z"/>
			<path id="XMLID_1322_" class="st1" d="M776.7,598.7c-0.2-0.1-0.4-0.2-0.6-0.2c-0.2-0.1-0.5-0.1-0.8-0.1c-0.4,0-0.7,0.1-1.1,0.3
				c-0.4,0.2-0.7,0.4-1,0.8c-0.3,0.3-0.5,0.7-0.7,1.2c-0.2,0.5-0.3,1-0.3,1.5v6.6h-1.9l0-11.6h1.9l0.1,1.7c0.3-0.6,0.7-1.1,1.3-1.4
				c0.6-0.3,1.2-0.5,1.8-0.5c0.3,0,0.6,0,0.8,0.1c0.2,0,0.4,0.1,0.7,0.2v1.6C777,598.8,776.9,598.9,776.7,598.7z"/>
			<path id="XMLID_1278_" class="st1" d="M784.1,592.8c-0.2-0.1-0.3-0.1-0.5-0.1c-0.2,0-0.4,0-0.6,0c-0.7,0-1.2,0.2-1.5,0.5
				c-0.3,0.3-0.5,1-0.5,1.9v2h2.8v1.4H781v10.2h-1.8v-10.2h-2.1v-1.4h2.1v-2.2c0-0.7,0.1-1.2,0.3-1.7c0.2-0.5,0.4-0.9,0.8-1.2
				c0.3-0.3,0.7-0.5,1.2-0.7c0.5-0.1,1-0.2,1.5-0.2c0.3,0,0.6,0,0.8,0.1c0.2,0,0.4,0.1,0.6,0.2v1.2
				C784.3,592.8,784.3,592.9,784.1,592.8z"/>
			<path id="XMLID_1276_" class="st1" d="M785.2,603.9v-6.9h1.9v6.9c0,1.2,0.2,2.1,0.6,2.6c0.4,0.6,1.1,0.9,2,0.9
				c0.5,0,0.9-0.1,1.4-0.3c0.4-0.2,0.8-0.5,1.1-0.8c0.3-0.3,0.6-0.8,0.8-1.2c0.2-0.5,0.3-1,0.3-1.6v-6.5h1.8v11.6h-1.9l-0.1-1.7h0
				c-0.4,0.6-0.9,1.1-1.5,1.4c-0.7,0.3-1.4,0.5-2.1,0.5c-0.7,0-1.4-0.1-1.9-0.3c-0.5-0.2-1-0.6-1.3-1c-0.3-0.4-0.6-1-0.7-1.6
				C785.3,605.4,785.2,604.7,785.2,603.9z"/>
			<path id="XMLID_1274_" class="st1" d="M799.8,591.4v17.3h-1.9v-17.3H799.8z"/>
			<path id="XMLID_1271_" class="st1" d="M810.9,612.4c1.5,0,2.5-0.4,3.1-1.1c0.6-0.7,0.9-1.9,0.9-3.5v-1.2c-0.4,0.7-1,1.2-1.6,1.4
				c-0.6,0.3-1.3,0.4-2.1,0.4c-0.8,0-1.5-0.1-2.2-0.4c-0.6-0.3-1.1-0.6-1.6-1.1c-0.4-0.5-0.7-1.1-0.9-1.8c-0.2-0.7-0.3-1.4-0.3-2.3
				c0-1.9,0.4-3.5,1.3-4.5c0.9-1.1,2.1-1.6,3.7-1.6c0.8,0,1.5,0.2,2.2,0.5c0.6,0.3,1.1,0.8,1.4,1.4h0l0.1-1.6h1.9v10.6
				c0,1.1-0.1,2-0.3,2.8c-0.2,0.8-0.6,1.5-1,2c-0.5,0.5-1.1,0.9-1.8,1.2c-0.7,0.2-1.6,0.4-2.7,0.4c-0.8,0-1.4-0.1-2-0.2
				c-0.6-0.1-1.2-0.4-1.7-0.6v-1.6c0-0.2,0.1-0.2,0.2-0.1c0.6,0.4,1.2,0.6,1.8,0.8C809.8,612.4,810.4,612.4,810.9,612.4z
				 M814.9,603.4V602c0-0.5-0.1-1-0.3-1.5c-0.2-0.4-0.4-0.8-0.7-1.2c-0.3-0.3-0.7-0.6-1.1-0.8c-0.4-0.2-0.9-0.3-1.4-0.3
				c-1,0-1.8,0.4-2.4,1.2c-0.6,0.8-0.9,1.9-0.9,3.4c0,1.3,0.3,2.3,0.9,3.1c0.6,0.7,1.4,1.1,2.4,1.1c1.1,0,2-0.3,2.6-1
				C814.6,605.4,814.9,604.5,814.9,603.4z"/>
			<path id="XMLID_1269_" class="st1" d="M826,598.7c-0.2-0.1-0.4-0.2-0.6-0.2c-0.2-0.1-0.5-0.1-0.8-0.1c-0.4,0-0.7,0.1-1.1,0.3
				c-0.4,0.2-0.7,0.4-1,0.8c-0.3,0.3-0.5,0.7-0.7,1.2c-0.2,0.5-0.3,1-0.3,1.5v6.6h-1.9l0-11.6h1.9l0.1,1.7c0.3-0.6,0.7-1.1,1.3-1.4
				c0.6-0.3,1.2-0.5,1.8-0.5c0.3,0,0.6,0,0.8,0.1c0.2,0,0.4,0.1,0.7,0.2v1.6C826.3,598.8,826.2,598.9,826,598.7z"/>
			<path id="XMLID_1264_" class="st1" d="M831.9,596.8c1.6,0,2.8,0.5,3.7,1.4c0.9,0.9,1.3,2.3,1.3,4.1v0.9h-8.7v0.2
				c0,1.4,0.4,2.4,1.1,3.1c0.7,0.7,1.7,1,2.9,1c0.6,0,1.3-0.1,1.9-0.3c0.6-0.2,1.3-0.5,1.9-1c0.2-0.1,0.2-0.1,0.2,0.1v1.5
				c-0.6,0.5-1.3,0.8-2,0.9c-0.7,0.2-1.5,0.2-2.4,0.2c-0.9,0-1.6-0.1-2.3-0.4c-0.7-0.3-1.3-0.7-1.8-1.2c-0.5-0.5-0.9-1.1-1.2-1.9
				c-0.3-0.7-0.4-1.6-0.4-2.6c0-0.9,0.1-1.8,0.4-2.5c0.3-0.8,0.7-1.4,1.2-1.9c0.5-0.5,1.1-1,1.8-1.2
				C830.3,596.9,831,596.8,831.9,596.8z M828.2,601.7h6.7v-0.1c0-1.1-0.3-2-0.8-2.6c-0.6-0.6-1.3-0.9-2.3-0.9
				c-0.4,0-0.9,0.1-1.3,0.2c-0.4,0.2-0.8,0.4-1.1,0.7c-0.3,0.3-0.6,0.7-0.8,1.1c-0.2,0.4-0.4,0.9-0.5,1.4V601.7z"/>
			<path id="XMLID_1261_" class="st1" d="M843.6,596.8c1.6,0,2.8,0.5,3.7,1.4c0.9,0.9,1.3,2.3,1.3,4.1v0.9H840v0.2
				c0,1.4,0.4,2.4,1.1,3.1c0.7,0.7,1.7,1,2.9,1c0.6,0,1.3-0.1,1.9-0.3c0.6-0.2,1.3-0.5,1.9-1c0.2-0.1,0.2-0.1,0.2,0.1v1.5
				c-0.6,0.5-1.3,0.8-2,0.9c-0.7,0.2-1.5,0.2-2.4,0.2c-0.8,0-1.6-0.1-2.3-0.4c-0.7-0.3-1.3-0.7-1.8-1.2c-0.5-0.5-0.9-1.1-1.2-1.9
				c-0.3-0.7-0.4-1.6-0.4-2.6c0-0.9,0.1-1.8,0.4-2.5c0.3-0.8,0.7-1.4,1.2-1.9c0.5-0.5,1.1-1,1.8-1.2
				C842,596.9,842.8,596.8,843.6,596.8z M840,601.7h6.7v-0.1c0-1.1-0.3-2-0.8-2.6c-0.6-0.6-1.3-0.9-2.3-0.9c-0.4,0-0.9,0.1-1.3,0.2
				c-0.4,0.2-0.8,0.4-1.1,0.7c-0.3,0.3-0.6,0.7-0.8,1.1c-0.2,0.4-0.4,0.9-0.5,1.4V601.7z"/>
			<path id="XMLID_1259_" class="st1" d="M860.3,601.8v6.9h-1.9v-6.9c0-1.2-0.2-2.1-0.5-2.7c-0.3-0.6-1-0.9-1.9-0.9
				c-0.5,0-0.9,0.1-1.4,0.3c-0.4,0.2-0.8,0.5-1.2,0.9c-0.3,0.4-0.6,0.8-0.8,1.3c-0.2,0.5-0.3,1-0.3,1.6v6.4h-1.8v-11.6h1.9l0.1,1.7
				h0c0.2-0.3,0.4-0.6,0.7-0.8c0.3-0.2,0.6-0.4,0.9-0.6c0.3-0.2,0.7-0.3,1-0.4c0.4-0.1,0.7-0.1,1.1-0.1c1.5,0,2.6,0.4,3.2,1.3
				C860,598.9,860.3,600.2,860.3,601.8z"/>
			<path id="XMLID_1256_" class="st1" d="M869.4,597.1l0.1,1.6c0.5-0.6,1-1.1,1.6-1.4c0.6-0.3,1.3-0.5,2.1-0.5
				c1.7,0,2.9,0.5,3.7,1.5c0.8,1,1.2,2.4,1.2,4.2c0,0.9-0.1,1.8-0.3,2.5c-0.2,0.8-0.5,1.4-1,2c-0.4,0.6-1,1-1.6,1.3
				c-0.7,0.3-1.4,0.5-2.3,0.5c-0.8,0-1.4-0.1-2-0.4c-0.5-0.3-1-0.6-1.4-1.1h0v6.6h-1.9v-16.8H869.4z M869.4,602.4v1.7
				c0,0.5,0.1,0.9,0.2,1.3c0.2,0.4,0.4,0.7,0.7,1c0.3,0.3,0.6,0.5,1,0.7c0.4,0.2,0.8,0.2,1.3,0.2c1.1,0,1.9-0.4,2.5-1.2
				c0.6-0.8,0.9-2,0.9-3.6c0-1.4-0.3-2.4-0.9-3.2c-0.6-0.8-1.4-1.2-2.4-1.2c-0.5,0-1,0.1-1.5,0.4c-0.4,0.2-0.8,0.5-1.1,0.9
				c-0.3,0.4-0.5,0.8-0.7,1.3C869.4,601.3,869.4,601.9,869.4,602.4z"/>
			<path id="XMLID_1253_" class="st1" d="M880.4,599.6c-0.1,0.1-0.1,0.1-0.2,0.1c-0.1,0-0.1-0.1-0.1-0.2v-1.6c0.6-0.4,1.3-0.7,2-0.9
				c0.7-0.2,1.5-0.3,2.3-0.3c1.4,0,2.4,0.3,3.1,1c0.7,0.6,1,1.7,1,3.2v8h-1.8l-0.1-1.7h0c-0.2,0.3-0.4,0.6-0.7,0.8
				c-0.3,0.2-0.6,0.4-0.9,0.6c-0.3,0.2-0.7,0.3-1.1,0.4c-0.4,0.1-0.7,0.1-1.1,0.1c-0.6,0-1.1,0-1.6-0.2c-0.5-0.1-0.9-0.4-1.2-0.6
				c-0.3-0.3-0.6-0.6-0.8-1.1c-0.2-0.4-0.3-0.9-0.3-1.5c0-1.1,0.3-2,1-2.7c0.7-0.7,1.7-1.2,3-1.4l3.7-0.5v-0.2
				c0-0.5-0.1-0.9-0.2-1.3c-0.1-0.3-0.3-0.6-0.5-0.8c-0.2-0.2-0.5-0.3-0.8-0.4c-0.3-0.1-0.7-0.1-1.1-0.1c-0.7,0-1.3,0.1-2,0.3
				C881.7,598.8,881,599.1,880.4,599.6z M886.8,604v-1.5l-3.1,0.4c-0.8,0.1-1.5,0.4-2,0.8c-0.5,0.4-0.8,1-0.8,1.8
				c0,0.6,0.2,1.1,0.7,1.5c0.4,0.3,1,0.5,1.7,0.5c0.5,0,0.9-0.1,1.3-0.3c0.4-0.2,0.8-0.5,1.1-0.8c0.3-0.3,0.6-0.7,0.8-1.1
				C886.7,604.8,886.8,604.4,886.8,604z"/>
			<path id="XMLID_1251_" class="st1" d="M898,598.7c-0.2-0.1-0.4-0.2-0.6-0.2c-0.2-0.1-0.5-0.1-0.8-0.1c-0.4,0-0.7,0.1-1.1,0.3
				c-0.4,0.2-0.7,0.4-1,0.8c-0.3,0.3-0.5,0.7-0.7,1.2c-0.2,0.5-0.3,1-0.3,1.5v6.6h-1.9l0-11.6h1.9l0.1,1.7c0.3-0.6,0.7-1.1,1.3-1.4
				c0.6-0.3,1.2-0.5,1.8-0.5c0.3,0,0.6,0,0.8,0.1c0.2,0,0.4,0.1,0.7,0.2v1.6C898.2,598.8,898.1,598.9,898,598.7z"/>
			<path id="XMLID_1249_" class="st1" d="M905.7,606.9c0.2-0.1,0.2-0.1,0.2,0.1v1.3c-0.3,0.2-0.6,0.4-1,0.4
				c-0.4,0.1-0.8,0.1-1.2,0.1c-1.1,0-1.9-0.2-2.4-0.6c-0.5-0.4-0.7-1.2-0.7-2.3v-7.5h-2.1v-1.4h2.1v-2.9h1.9v2.9h3.1v1.4h-3.1v7.3
				c0,0.3,0,0.6,0,0.8c0,0.2,0.1,0.4,0.2,0.5c0.1,0.1,0.3,0.2,0.5,0.3c0.2,0.1,0.5,0.1,0.8,0.1c0.2,0,0.5,0,0.8-0.1
				C905.1,607.2,905.4,607.1,905.7,606.9z"/>
			<path id="XMLID_1247_" class="st1" d="M917.2,601.8v6.9h-1.9v-6.9c0-1.2-0.2-2.1-0.5-2.7c-0.3-0.6-1-0.9-1.9-0.9
				c-0.5,0-0.9,0.1-1.4,0.3c-0.4,0.2-0.8,0.5-1.2,0.9c-0.3,0.4-0.6,0.8-0.8,1.3c-0.2,0.5-0.3,1-0.3,1.6v6.4h-1.8v-11.6h1.9l0.1,1.7
				h0c0.2-0.3,0.4-0.6,0.7-0.8c0.3-0.2,0.6-0.4,0.9-0.6c0.3-0.2,0.7-0.3,1-0.4c0.4-0.1,0.7-0.1,1.1-0.1c1.5,0,2.6,0.4,3.2,1.3
				C916.9,598.9,917.2,600.2,917.2,601.8z"/>
			<path id="XMLID_1244_" class="st1" d="M924.7,596.8c1.6,0,2.8,0.5,3.7,1.4c0.9,0.9,1.3,2.3,1.3,4.1v0.9h-8.7v0.2
				c0,1.4,0.4,2.4,1.1,3.1c0.7,0.7,1.7,1,2.9,1c0.6,0,1.3-0.1,1.9-0.3c0.6-0.2,1.3-0.5,1.9-1c0.2-0.1,0.2-0.1,0.2,0.1v1.5
				c-0.6,0.5-1.3,0.8-2,0.9c-0.7,0.2-1.5,0.2-2.4,0.2c-0.8,0-1.6-0.1-2.3-0.4c-0.7-0.3-1.3-0.7-1.8-1.2c-0.5-0.5-0.9-1.1-1.2-1.9
				c-0.3-0.7-0.4-1.6-0.4-2.6c0-0.9,0.1-1.8,0.4-2.5c0.3-0.8,0.7-1.4,1.2-1.9c0.5-0.5,1.1-1,1.8-1.2
				C923.1,596.9,923.9,596.8,924.7,596.8z M921.1,601.7h6.7v-0.1c0-1.1-0.3-2-0.8-2.6c-0.6-0.6-1.3-0.9-2.3-0.9
				c-0.4,0-0.9,0.1-1.3,0.2c-0.4,0.2-0.8,0.4-1.1,0.7c-0.3,0.3-0.6,0.7-0.8,1.1c-0.2,0.4-0.4,0.9-0.5,1.4V601.7z"/>
			<path id="XMLID_1240_" class="st1" d="M937.9,598.7c-0.2-0.1-0.4-0.2-0.6-0.2c-0.2-0.1-0.5-0.1-0.8-0.1c-0.4,0-0.7,0.1-1.1,0.3
				c-0.4,0.2-0.7,0.4-1,0.8c-0.3,0.3-0.5,0.7-0.7,1.2c-0.2,0.5-0.3,1-0.3,1.5v6.6h-1.9l0-11.6h1.9l0.1,1.7c0.3-0.6,0.7-1.1,1.3-1.4
				c0.6-0.3,1.2-0.5,1.8-0.5c0.3,0,0.6,0,0.8,0.1c0.2,0,0.4,0.1,0.7,0.2v1.6C938.2,598.8,938.1,598.9,937.9,598.7z"/>
		</g>
	</g>
</g>
<g id="XMLID_386_">
	<rect id="XMLID_1230_" x="1068.4" y="376" class="st0" width="481.9" height="311.8"/>
	<rect id="XMLID_1229_" x="1082.6" y="452.9" class="st0" width="453.5" height="170.1"/>
	<g id="XMLID_1282_">
		<path id="XMLID_1317_" class="st1" d="M1124.1,529.7h12.3l16.4,21h0.2l16.3-21h12.4v39.6h-12.8v-24.1h-0.3l-12.7,17h-6.4l-12.6-17
			h-0.3v24.1h-12.8V529.7z"/>
		<path id="XMLID_1314_" class="st1" d="M1208.1,529.7h10.7l20,39.6h-12.8l-3.8-8.5h-17.4l-3.8,8.5h-12.8L1208.1,529.7z
			 M1213.5,541.1h-0.3l-6.3,14.3h12.8L1213.5,541.1z"/>
		<path id="XMLID_1311_" class="st1" d="M1245,529.7h20.6c15.1,0,22.6,3.9,22.6,11.6c0,2.3-0.8,4.3-2.4,5.9c-1.6,1.6-4.5,3-8.6,4
			l13.8,18.1h-13.6l-11.9-16.9h-7.7v16.9H1245V529.7z M1257.8,547.4h7.3c2.3,0,4.1-0.1,5.4-0.4c1.3-0.3,2.4-0.7,3.1-1.2
			c0.7-0.5,1.2-1.2,1.4-1.9c0.3-0.8,0.4-1.6,0.4-2.6c0-1-0.1-1.9-0.4-2.6c-0.3-0.8-0.8-1.4-1.6-1.9c-0.8-0.5-1.9-0.9-3.3-1.2
			c-1.4-0.3-3.3-0.4-5.6-0.4h-6.7V547.4z"/>
		<path id="XMLID_1309_" class="st1" d="M1297.6,529.7h12.8v18.1h0.3l18.7-18.1h12.8l-17.4,15.8l20.7,23.7h-13.6l-14.6-17.6
			l-6.9,5.7v11.8h-12.8V529.7z"/>
		<path id="XMLID_1307_" class="st1" d="M1351.9,529.7h34.8v5.3h-22v8.5h22.1v8.4h-22.1v11.6h25.4v5.7h-38.2V529.7z"/>
		<path id="XMLID_1304_" class="st1" d="M1396.3,529.7h20.6c15.1,0,22.6,3.9,22.6,11.6c0,2.3-0.8,4.3-2.4,5.9c-1.6,1.6-4.5,3-8.6,4
			l13.8,18.1h-13.6l-11.9-16.9h-7.7v16.9h-12.8V529.7z M1409.1,547.4h7.3c2.3,0,4.1-0.1,5.4-0.4c1.3-0.3,2.4-0.7,3.1-1.2
			c0.7-0.5,1.2-1.2,1.4-1.9c0.3-0.8,0.4-1.6,0.4-2.6c0-1-0.1-1.9-0.4-2.6c-0.2-0.8-0.8-1.4-1.6-1.9c-0.8-0.5-1.9-0.9-3.3-1.2
			c-1.4-0.3-3.3-0.4-5.6-0.4h-6.7V547.4z"/>
		<path id="XMLID_1302_" class="st1" d="M1492,541.3h-12.8V540c0-1.3-0.7-2.4-2.1-3.3c-1.4-0.9-3.7-1.4-7-1.4
			c-1.8,0-3.2,0.2-4.3,0.4c-1.1,0.3-2,0.7-2.6,1.1c-0.6,0.5-1.1,1-1.3,1.6c-0.3,0.6-0.4,1.2-0.4,1.9c0,0.8,0.1,1.4,0.2,2
			c0.1,0.5,0.4,1,0.9,1.4c0.5,0.4,1.2,0.7,2.2,1c1,0.3,2.3,0.6,4,0.9l9.8,1.7c2.8,0.5,5.1,1,6.9,1.7c1.8,0.6,3.1,1.4,4.1,2.3
			c1,0.9,1.6,1.9,1.9,3c0.3,1.1,0.5,2.4,0.5,3.8c0,1.7-0.4,3.2-1.1,4.6c-0.8,1.4-2,2.6-3.7,3.6c-1.7,1-4,1.8-6.8,2.4
			c-2.8,0.6-6.3,0.9-10.4,0.9c-3.1,0-6-0.2-8.7-0.7c-2.7-0.5-5-1.1-6.9-2c-1.9-0.8-3.4-1.8-4.6-2.9c-1.1-1.1-1.7-2.4-1.7-3.7v-2.1
			h12.8v1.8c0,1,0.7,2,2.1,2.8c1.4,0.8,3.7,1.2,7,1.2c2.2,0,3.9-0.1,5.1-0.4c1.2-0.3,2.1-0.7,2.8-1.2c0.6-0.5,1-1.1,1.2-1.8
			c0.2-0.7,0.3-1.5,0.3-2.4c0-1-0.1-1.9-0.3-2.5c-0.2-0.7-0.5-1.2-1.1-1.6c-0.5-0.4-1.3-0.7-2.3-1c-1-0.3-2.2-0.5-3.8-0.8l-9.2-1.7
			c-5.5-1-9.2-2.3-11.1-3.9c-1.9-1.6-2.8-3.7-2.8-6.1c0-1.5,0.5-2.9,1.4-4.2c0.9-1.3,2.3-2.5,4.1-3.4c1.8-1,4.1-1.7,6.8-2.3
			c2.8-0.6,6-0.9,9.7-0.9c3.2,0,6.1,0.3,8.7,0.8c2.6,0.5,4.9,1.2,6.8,2c1.9,0.8,3.3,1.8,4.3,2.8c1,1,1.5,2.1,1.5,3.2V541.3z"/>
		<path id="XMLID_1300_" class="st1" d="M1126.8,522.5h-2.7v-14.1h13v1.5h-10.4v4.4h8.6v1.4h-8.6V522.5z"/>
		<path id="XMLID_1298_" class="st1" d="M1143.4,522.5h-2.7v-14.1h2.7V522.5z"/>
		<path id="XMLID_1295_" class="st1" d="M1163.6,522.5h-2.8l-3.9-6.1h-6.1v6.1h-2.5v-14.1h8.4c2.3,0,4,0.4,5.1,1.2
			c1.1,0.8,1.6,1.7,1.6,2.7c0,0.8-0.3,1.5-0.9,2.2c-0.6,0.7-1.6,1.2-3,1.5L1163.6,522.5z M1150.8,515h5.6c1.5,0,2.6-0.3,3.3-0.8
			c0.7-0.5,1.1-1.1,1.1-1.9c0-0.7-0.4-1.3-1.1-1.7c-0.8-0.4-1.7-0.6-2.9-0.6h-5.9V515z"/>
		<path id="XMLID_1293_" class="st1" d="M1181.9,521v1.5h-14v-14.1h11.8v1.5h-9.2v4.2h9.2v2.6h-9.2v4.1H1181.9z"/>
		<g id="XMLID_1283_">
			<g id="XMLID_1289_">
				<path id="XMLID_1290_" class="st1" d="M1500.2,529.4c-2.4,0-4.3-1.9-4.3-4.3c0-2.4,1.9-4.3,4.3-4.3c2.4,0,4.3,1.9,4.3,4.3
					C1504.5,527.5,1502.6,529.4,1500.2,529.4z M1500.2,522c-1.7,0-3.1,1.4-3.1,3.1c0,1.7,1.4,3.1,3.1,3.1c1.7,0,3.1-1.4,3.1-3.1
					C1503.3,523.4,1501.9,522,1500.2,522z"/>
			</g>
			<g id="XMLID_1284_">
				<g id="XMLID_1285_">
					<path id="XMLID_1286_" class="st1" d="M1501.8,527h-0.5l-0.7-1.6h-1.1v1.6h-0.4v-3.7h1.5c0.4,0,0.7,0.1,0.9,0.3
						c0.2,0.2,0.3,0.4,0.3,0.7c0,0.2-0.1,0.4-0.2,0.6c-0.1,0.2-0.3,0.3-0.5,0.4L1501.8,527z M1499.6,525h1c0.3,0,0.4-0.1,0.6-0.2
						c0.1-0.1,0.2-0.3,0.2-0.5c0-0.2-0.1-0.3-0.2-0.5c-0.1-0.1-0.3-0.2-0.5-0.2h-1V525z"/>
				</g>
			</g>
		</g>
	</g>
</g>
<g id="XMLID_353_">
	<rect id="XMLID_651_" x="2116.8" y="376" class="st0" width="481.9" height="311.8"/>
	<rect id="XMLID_650_" x="2131" y="452.9" class="st0" width="453.5" height="170.1"/>
	<g id="XMLID_1340_">
		<text id="XMLID_277_" transform="matrix(1 0 0 1 2185.6174 544.6939)"><tspan x="0" y="0" class="st1 st3 st4">자연</tspan><tspan x="101" y="0" class="st1 st3 st5">, </tspan><tspan x="142.3" y="0" class="st1 st3 st4">스러웠어</tspan></text>
	</g>
</g>
<g id="XMLID_349_">
	<rect id="XMLID_1172_" x="1591.3" y="376" class="st0" width="481.9" height="311.8"/>
	<rect id="XMLID_1171_" x="1605.5" y="452.9" class="st0" width="453.5" height="170.1"/>
	<g id="XMLID_1545_">
		<g id="XMLID_1702_">
			<path id="XMLID_1708_" class="st1" d="M1703.6,537.1c0,2.3,0.4,3.8,1.2,4.4l0.8,0.5c1,0.8,1.5,1.6,1.5,2.5c0,1.9-1.1,2.8-3.3,2.8
				h-12.6c-2.2,0-3.3-0.9-3.3-2.8c0-0.7,0.1-1.2,0.3-1.4c0.2-0.3,0.6-0.7,1.2-1.1l0.7-0.5c0.8-0.6,1.2-2.1,1.2-4.4v-38.9
				c0-2.4-0.4-3.9-1.2-4.6l-0.7-0.4c-1-0.8-1.5-1.6-1.5-2.7c0-1.9,1.1-2.8,3.3-2.8h12.6c2.2,0,3.3,0.9,3.3,2.8c0,1-0.5,1.9-1.5,2.7
				l-0.8,0.4c-0.8,0.6-1.2,2.1-1.2,4.6v13.9h19.9v-13.9c0-2.4-0.4-3.9-1.2-4.6l-0.8-0.4c-1.1-0.8-1.7-1.7-1.7-2.7c0-1,0.3-1.7,1-2.1
				c0.7-0.5,1.4-0.7,2.3-0.7h12.7c2.2,0,3.3,0.9,3.3,2.8c0,1-0.5,1.9-1.6,2.7l-0.7,0.4c-0.8,0.5-1.2,2-1.2,4.6v38.9
				c0,2.4,0.4,3.9,1.2,4.4l0.7,0.5c1.1,0.8,1.6,1.7,1.6,2.5c0,1.9-1.1,2.8-3.3,2.8h-12.7c-2.2,0-3.3-0.9-3.3-2.8
				c0-0.7,0.1-1.1,0.4-1.4c0.2-0.3,0.7-0.6,1.3-1.1l0.8-0.5c0.8-0.6,1.2-2.1,1.2-4.4v-19.1h-19.9V537.1z"/>
			<path id="XMLID_1705_" class="st1" d="M1769.5,547.4c-1.6,0-2.8-0.2-3.6-0.5c-0.7-0.4-1.1-1.1-1.1-2.3c0-0.7,0.4-1.5,1.3-2.4
				c1-0.7,1.7-1.6,2.1-2.7l2.4-9.1c1.6-6.3,4.8-15.6,9.4-28.1c1.4-4,3.1-8.1,4.9-12.3c0.6-1.3,1.2-2,1.8-2.3c0.6-0.3,1.6-0.5,3-0.5
				c1.8,0,3.1,0.3,3.8,0.9c0.7,0.6,1.5,1.9,2.2,4l13.7,39.1l2.3,8.4c0.2,0.7,0.4,1.2,0.6,1.4c0.2,0.2,0.6,0.7,1.3,1.2
				c0.9,0.6,1.3,1.3,1.3,2.3c0,1.9-1.1,2.8-3.4,2.8h-11.3c-2.8,0-4.2-0.9-4.2-2.7c0-0.9,0.5-1.7,1.5-2.3c1-0.6,1.5-1.2,1.5-1.8
				c0-1.4-0.9-5.1-2.8-11.2l-0.3-1.3h-18.7c-0.1,0.3-0.4,1.4-0.9,3.3c-0.5,1.8-0.9,3.4-1.2,4.7c-0.3,1.3-0.4,2.3-0.4,3
				c0,0.8,0.1,1.4,0.4,1.8c0.3,0.4,0.7,0.8,1.3,1.2c0.6,0.4,1,0.8,1.3,1.1c0.3,0.3,0.5,0.9,0.5,1.5c0,1.1-0.4,1.8-1.3,2.1
				c-0.8,0.3-2.1,0.5-3.9,0.5H1769.5z M1794.2,521.4l-0.3-1.2l-7.1-20.4l-7.6,21.6H1794.2z"/>
			<path id="XMLID_1703_" class="st1" d="M1856.2,532.5c0,3,0.2,5.1,0.6,6.2c0.4,1.2,1.2,1.9,2.5,2.3c1.3,0.4,3.5,0.6,6.8,0.6
				c2.3,0,4.1-0.2,5.5-0.7c1.3-0.5,2.7-1.6,4-3.3c0.9-1.3,1.6-2.3,2.2-3c0.6-0.7,1.3-1,2.1-1c0.6,0,1.2,0.3,1.7,0.8
				c0.5,0.5,0.7,1.2,0.7,1.9c0,1.5-0.5,3.9-1.4,7.5c-0.4,1.7-0.9,2.7-1.4,3.1c-0.5,0.4-1.5,0.6-3,0.6h-32.7c-2.2,0-3.3-0.9-3.3-2.8
				c0-0.7,0.1-1.1,0.4-1.4c0.2-0.3,0.7-0.6,1.3-1.1l0.7-0.5c0.8-0.6,1.2-2.1,1.2-4.4v-38.9c0-2.4-0.4-3.9-1.2-4.6l-0.7-0.4
				c-1.1-0.8-1.7-1.7-1.7-2.7c0-1,0.3-1.7,1-2.1c0.7-0.5,1.4-0.7,2.3-0.7h31.2c1.9,0,3.2,0.4,3.7,1.1c0.7,1.1,1.1,3.7,1.1,7.7
				c0,2.3-0.8,3.5-2.4,3.5c-0.9,0-1.9-0.8-3.1-2.4c-1.3-1.8-2.7-2.9-4.2-3.3c-1.4-0.5-3.7-0.7-6.7-0.7c-2.9,0-4.8,0.2-5.6,0.7
				c-1.1,0.4-1.7,1.2-1.7,2.4v15h10.1c1.3,0,2.3-0.2,2.8-0.5c0.5-0.3,1.1-0.8,1.7-1.5c0.6-0.6,1.2-1,1.8-1c1.6,0,2.4,1.9,2.4,5.6
				c0,2.3-0.2,4-0.5,5.1c-0.3,1.1-1,1.7-2,1.7c-0.6,0-1.2-0.3-1.9-0.9c-0.6-0.6-1.2-1.1-1.7-1.4c-0.5-0.3-1.4-0.5-2.7-0.5h-10.1
				V532.5z"/>
		</g>
		<g id="XMLID_1697_">
			<path id="XMLID_1700_" class="st1" d="M1910.6,547.5v-59.9h11.5v3.8h-8.2v52.5h8.4v3.6H1910.6z"/>
			<path id="XMLID_1698_" class="st1" d="M1964.4,547.5v-3.6h8.4v-52.5h-8.3v-3.8h11.6v59.9H1964.4z"/>
		</g>
		<g id="XMLID_1692_">
			<path id="XMLID_1693_" class="st1" d="M1957.9,513.4c0.3,0.2,0.4,0.4,0.5,0.8c0,0.3-0.4,1.1-1.2,2.3c-0.5,0.7-1.2,2-2,4
				c-0.9,2-1.8,4.1-2.6,6.3c-0.9,2.2-1.7,4.3-2.5,6.2c-0.7,2-1.2,3.2-1.5,3.8c-0.7,1.7-1.2,2.3-1.5,1.9c-0.3-0.5-0.2-1.6,0.2-3.2
				c0.1-0.3,0.2-0.9,0.5-1.8c0.3-0.8,0.6-1.8,0.9-2.8c-1.5,0.5-3.2,0.9-5.2,1.2c-2,0.3-3.6,0.4-4.8,0.3c-0.7,1-1.5,1.8-2.3,2.5
				c-0.8,0.7-1.6,1.3-2.3,1.7c-0.7,0.5-1.5,0.8-2.5,1.2c-1,0.3-2,0.4-2.8,0.3c-0.9-0.1-1.5-0.5-2-1.2c-0.4-0.7-0.4-1.8,0.1-3.4
				c0.5-1.6,1.3-3.2,2.4-4.8c1.1-1.7,2.2-3.3,3.4-4.8c-0.6,0-1-0.2-1.1-0.7c-0.2-0.5,0.2-1,1-1.6c0.3-0.2,0.7-0.4,1.2-0.6
				c0.5-0.2,1-0.3,1.5-0.4c0.9-1.2,1.7-2.3,2.3-3.4c0.6-1,0.9-2,0.9-2.8c-0.1-1.3-0.6-2.4-1.6-3.2c-1-0.8-2.1-1.5-3.3-1.9
				c-1.2-0.4-2.4-0.7-3.6-0.9c-1.2-0.2-2-0.3-2.5-0.3c-0.4,0-0.8-0.2-1-0.6c-0.2-0.4-0.4-0.8-0.4-1.2c0-0.5,0.2-0.9,0.5-1.3
				c0.3-0.4,0.8-0.7,1.6-0.8c0.5-0.1,1.2,0,2.1,0.2c0.9,0.2,1.8,0.4,2.8,0.8c1,0.4,1.9,0.9,2.8,1.5c0.9,0.6,1.7,1.2,2.3,2
				c0.3-1.7,0.9-3.5,1.9-5.4c1-1.9,2.4-4.1,4.1-6.7c0.4-0.7,1-1.4,1.6-2.3c0.6-0.8,1.3-1.7,1.9-2.5c0.7-0.8,1.3-1.5,1.9-2.2
				c0.6-0.6,1.1-1.1,1.5-1.4c0.5-0.2,0.9,0,1.3,0.6c0.4,0.5,0.4,1.1,0,1.8c-0.2,0.2-0.7,0.7-1.5,1.7c-0.8,1-1.8,2.2-3,3.5
				c-1.2,1.4-2.4,2.9-3.6,4.5c-1.3,1.6-2.4,3.2-3.3,4.8c-0.5,0.7-0.9,1.7-1.2,2.7c-0.3,1.1-0.5,1.9-0.4,2.6c1.2,1.6,1.5,3.3,1,5.2
				c-0.5,1.8-1.4,3.6-2.5,5.3c1,0.2,1.8,0.5,2.6,1.1c0.8,0.5,1.2,1.3,1.4,2.3c0.1,1,0,1.9-0.1,2.8c-0.2,0.9-0.4,1.7-0.8,2.5
				c1,0,2.4,0,4.1,0c1.7,0,3.2-0.2,4.4-0.4c0.2-0.5,0.3-1,0.6-1.6c0.2-0.5,0.4-1.1,0.6-1.7c0.2-0.5,0.5-1.1,0.7-1.6
				c0.2-0.6,0.5-1.1,0.7-1.7c-1.5,0.4-3.1,0.7-4.9,0.8c-1.7,0.1-3.1,0.1-4-0.2c-0.4-0.1-0.7-0.2-0.7-0.5c0-0.3,0-0.6,0.2-0.9
				c0.2-0.3,0.4-0.7,0.6-1c0.2-0.3,0.4-0.5,0.5-0.6c0.1,0.1,0.4,0.1,1.1,0.2c0.7,0.1,1.4,0.1,2.4,0.2c0.9,0.1,1.9,0.1,2.9,0.1
				c1,0,1.9-0.1,2.8-0.2c0.4-1,0.9-2,1.3-2.9c0.4-0.9,0.8-1.6,1.1-2.1c0.4-0.7,0.7-1.3,1-1.6c0.3-0.3,0.5-0.5,0.6-0.5
				c0.2-0.1,0.3,0,0.5,0.1C1957.6,513.2,1957.7,513.3,1957.9,513.4z M1935.6,523.5l-2.3,2.7c-0.6,0.6-1.1,1.4-1.7,2.2
				c-0.6,0.8-1.1,1.6-1.5,2.4c-0.4,0.8-0.7,1.6-0.8,2.3c-0.1,0.7,0,1.3,0.3,1.8c0.4,0.6,1.2,0.8,2.2,0.4c1-0.4,2.1-1,3.2-2
				c1.1-0.9,2.1-2,3-3.4c0.9-1.3,1.4-2.6,1.6-4c0.1-0.7-0.4-1.2-1.3-1.6C1937.4,523.8,1936.5,523.6,1935.6,523.5z M1963.6,516.1
				c0.3,0.2,0.5,0.5,0.5,0.9c0.1,0.5-0.3,1.3-1.1,2.5c-0.5,0.7-1.1,1.8-1.7,3.3c-0.7,1.5-1.4,3.1-2,4.7c-0.6,1.7-1.2,3.4-1.8,4.9
				c-0.6,1.6-1,2.7-1.2,3.5c-0.5,1.7-0.9,2.4-1.3,1.9c-0.4-0.4-0.4-1.3-0.1-2.7c0.2-0.7,0.5-1.9,1-3.4c0.5-1.5,1-3.1,1.6-4.8
				c0.6-1.7,1.2-3.3,1.9-4.9c0.6-1.6,1.2-2.9,1.8-4c0.4-0.7,0.7-1.2,0.9-1.6c0.2-0.4,0.4-0.6,0.6-0.7c0.2-0.1,0.4-0.1,0.5,0
				C1963.2,515.9,1963.4,516,1963.6,516.1z"/>
		</g>
		<rect id="XMLID_1534_" x="1670.6" y="555.1" class="st1" width="323.4" height="2.8"/>
		<g id="XMLID_1623_">
			<path id="XMLID_1688_" class="st1" d="M1907.1,584.2c0-0.3,0-0.5-0.1-0.6c-0.1-0.1-0.2-0.1-0.4-0.1h-0.4v-0.3
				c0.7-0.2,1.1-0.3,1.1-0.3l0.8-0.3v4c0.2-0.3,0.5-0.6,0.8-0.8c0.3-0.2,0.7-0.3,1.1-0.3c0.5,0,0.9,0.1,1.2,0.4
				c0.3,0.3,0.6,0.6,0.8,1.1c0.2,0.4,0.3,0.9,0.3,1.4c0,0.6-0.1,1.1-0.4,1.6c-0.3,0.5-0.6,0.9-1.1,1.2c-0.5,0.3-1,0.5-1.5,0.5
				c-0.9,0-1.5-0.2-2-0.6c-0.1-0.1-0.2-0.3-0.2-0.4V584.2z M1908.2,590.4c0,0.2,0,0.3,0.1,0.4c0,0.1,0.2,0.1,0.4,0.3
				c0.3,0.1,0.5,0.2,0.8,0.2c0.6,0,1-0.2,1.3-0.7c0.3-0.5,0.4-1,0.4-1.6c0-0.7-0.1-1.3-0.4-1.8c-0.3-0.5-0.7-0.8-1.3-0.8
				c-0.4,0-0.8,0.1-1,0.3c-0.2,0.2-0.3,0.5-0.3,0.8V590.4z"/>
			<path id="XMLID_1686_" class="st1" d="M1917.7,586.4c0-0.1,0-0.1,0-0.2c0-0.2-0.2-0.3-0.6-0.4v-0.2h1.7v0.2
				c-0.1,0-0.2,0.1-0.4,0.3c-0.1,0.2-0.2,0.3-0.3,0.5l-1.9,5c-0.2,0.5-0.4,1-0.6,1.3c-0.2,0.3-0.4,0.7-0.7,1c-0.3,0.3-0.6,0.4-1,0.4
				s-0.7-0.1-0.9-0.4c0-0.1-0.1-0.2-0.1-0.3c0-0.1,0-0.2,0.1-0.3c0.1-0.2,0.3-0.3,0.6-0.3c0.1,0,0.2,0,0.4,0.1
				c0.2,0.1,0.3,0.1,0.4,0.1c0.2,0,0.4-0.1,0.6-0.3c0.2-0.2,0.4-0.6,0.6-1.1c0.1-0.2,0.2-0.4,0.2-0.6l-2.2-4.8
				c-0.2-0.3-0.4-0.5-0.7-0.6v-0.2h2.7v0.2c-0.5,0-0.8,0.1-0.8,0.4c0,0.1,0,0.3,0.1,0.5l1.5,3.3L1917.7,586.4z"/>
			<path id="XMLID_1642_" class="st1" d="M1927,588.9c0,0.9-0.2,1.6-0.6,2c-0.4,0.5-0.9,0.7-1.6,0.7c-0.3,0-0.5-0.1-0.8-0.2
				c-0.3-0.1-0.4-0.3-0.5-0.6l0-0.2c0-0.2,0.1-0.3,0.2-0.4c0.1-0.1,0.3-0.2,0.5-0.2c0.2,0,0.3,0,0.4,0.1c0.1,0.1,0.2,0.2,0.2,0.3
				c0,0.2,0,0.3,0.1,0.5c0.1,0.1,0.2,0.2,0.3,0.2c0.2,0,0.3-0.1,0.4-0.3c0.1-0.2,0.1-0.5,0.1-0.8v-6.1c0-0.5-0.4-0.8-1.3-0.8v-0.2
				h3.9v0.2c-0.8,0-1.3,0.3-1.3,0.8V588.9z"/>
			<path id="XMLID_1639_" class="st1" d="M1929.8,587.3c0-0.4,0-0.7-0.1-0.8c-0.1-0.1-0.2-0.2-0.4-0.2c-0.1,0-0.3,0-0.6,0.1v-0.2
				l2.1-0.7v4.9c0,0.3,0.1,0.5,0.2,0.6c0.1,0.1,0.4,0.2,0.8,0.2v0.2h-3.1v-0.2c0.4,0,0.7-0.1,0.8-0.2c0.1-0.1,0.2-0.3,0.2-0.6V587.3
				z M1929.6,583.3c0-0.2,0.1-0.3,0.2-0.5c0.1-0.1,0.3-0.2,0.5-0.2c0.2,0,0.4,0.1,0.5,0.2c0.1,0.1,0.2,0.3,0.2,0.5
				c0,0.2-0.1,0.3-0.2,0.5c-0.1,0.1-0.3,0.2-0.5,0.2c-0.2,0-0.3-0.1-0.5-0.2C1929.6,583.6,1929.6,583.4,1929.6,583.3z"/>
			<path id="XMLID_1637_" class="st1" d="M1933.1,584.2c0-0.3,0-0.6-0.1-0.6c-0.1-0.1-0.3-0.1-0.7-0.1v-0.3c0.1,0,0.2-0.1,0.5-0.1
				c0.3-0.1,0.5-0.1,0.6-0.2l0.8-0.3v4c0.5-0.7,1.2-1.1,1.9-1.1c0.6,0,1.1,0.2,1.3,0.5s0.4,0.9,0.4,1.7v2.7c0,0.3,0.1,0.5,0.2,0.6
				c0.1,0.1,0.3,0.2,0.6,0.2v0.2h-2.8v-0.2c0.3,0,0.5-0.1,0.7-0.2c0.1-0.1,0.2-0.3,0.2-0.6v-2.7c0-0.5-0.1-0.9-0.2-1.1
				c-0.1-0.3-0.4-0.4-0.8-0.4c-0.3,0-0.6,0.1-0.8,0.2c-0.2,0.1-0.4,0.3-0.7,0.6v3.5c0,0.3,0.1,0.5,0.2,0.6c0.1,0.1,0.3,0.2,0.6,0.2
				v0.2h-2.8v-0.2c0.3,0,0.5-0.1,0.6-0.2c0.1-0.1,0.2-0.3,0.2-0.6V584.2z"/>
			<path id="XMLID_1634_" class="st1" d="M1943.5,590.5c0,0.3,0.1,0.4,0.3,0.4c0.2,0,0.4-0.1,0.7-0.3v0.3c-0.1,0.1-0.3,0.3-0.5,0.4
				c-0.2,0.2-0.4,0.2-0.6,0.2c-0.3,0-0.6-0.1-0.7-0.3c-0.2-0.2-0.2-0.4-0.2-0.7c-0.7,0.7-1.4,1-1.9,1c-0.4,0-0.7-0.1-1-0.4
				c-0.3-0.3-0.4-0.6-0.4-1c0-0.4,0.1-0.7,0.3-1c0.2-0.3,0.5-0.5,0.8-0.7c0.3-0.2,0.7-0.4,1-0.5c0.3-0.1,0.7-0.3,1.1-0.4
				c0-0.5,0-0.9-0.1-1.1c0-0.3-0.1-0.5-0.3-0.6c-0.1-0.1-0.3-0.2-0.6-0.2c-0.2,0-0.3,0-0.5,0.1c-0.2,0.1-0.3,0.2-0.3,0.3
				c0,0,0,0.1,0,0.2c0,0,0,0.1,0,0.2c0,0.1,0,0.2,0,0.3c0,0.1-0.1,0.3-0.2,0.4c-0.1,0.1-0.3,0.2-0.4,0.2c-0.4,0-0.6-0.2-0.6-0.5
				c0-0.1,0-0.3,0.1-0.5c0.4-0.7,1.1-1,2.1-1c0.7,0,1.2,0.2,1.5,0.5c0.3,0.3,0.4,0.9,0.4,1.7V590.5z M1942.4,588
				c-0.3,0.1-0.5,0.2-0.8,0.3s-0.4,0.2-0.6,0.3c-0.2,0.1-0.4,0.3-0.5,0.5c-0.1,0.2-0.2,0.4-0.2,0.7c0,0.3,0.1,0.5,0.2,0.7
				c0.2,0.2,0.4,0.3,0.7,0.3c0.2,0,0.4-0.1,0.6-0.2c0.3-0.1,0.4-0.2,0.5-0.4V588z"/>
			<path id="XMLID_1631_" class="st1" d="M1945.7,587.9c0,0.4,0.1,0.9,0.2,1.3c0.2,0.4,0.4,0.8,0.7,1.1c0.3,0.3,0.7,0.4,1.2,0.4
				c0.4,0,0.8-0.1,1.1-0.4c0.3-0.3,0.6-0.6,0.9-1l0.2,0.1c-0.2,0.6-0.6,1.1-1.1,1.6c-0.5,0.4-1,0.6-1.7,0.6c-0.5,0-0.9-0.1-1.3-0.4
				c-0.4-0.3-0.7-0.6-0.9-1.1c-0.2-0.4-0.3-0.9-0.3-1.4c0-0.6,0.1-1.2,0.3-1.7c0.2-0.5,0.5-0.9,0.9-1.1c0.4-0.3,0.9-0.4,1.4-0.4
				c0.7,0,1.2,0.2,1.7,0.7c0.4,0.4,0.6,1,0.6,1.7H1945.7z M1948.4,587.5c0-0.4-0.1-0.8-0.3-1.1c-0.2-0.3-0.5-0.4-0.9-0.4
				c-0.8,0-1.3,0.5-1.5,1.5H1948.4z"/>
			<path id="XMLID_1629_" class="st1" d="M1961.2,586.8v-2.9c0-0.5-0.4-0.8-1.2-0.8v-0.2h3.6v0.2c-0.8,0-1.2,0.3-1.2,0.8v6.6
				c0,0.5,0.4,0.8,1.2,0.8v0.2h-3.6v-0.2c0.8,0,1.2-0.3,1.2-0.8v-3.1h-4v3.1c0,0.5,0.4,0.8,1.2,0.8v0.2h-3.6v-0.2
				c0.8,0,1.1-0.3,1.1-0.8v-6.6c0-0.5-0.4-0.8-1.1-0.8v-0.2h3.6v0.2c-0.8,0-1.2,0.3-1.2,0.8v2.9H1961.2z"/>
			<path id="XMLID_1626_" class="st1" d="M1968.7,590.5c0,0.3,0.1,0.4,0.3,0.4c0.2,0,0.4-0.1,0.7-0.3v0.3c-0.1,0.1-0.3,0.3-0.5,0.4
				c-0.2,0.2-0.4,0.2-0.6,0.2c-0.3,0-0.6-0.1-0.7-0.3c-0.2-0.2-0.2-0.4-0.2-0.7c-0.7,0.7-1.4,1-1.9,1c-0.4,0-0.7-0.1-1-0.4
				s-0.4-0.6-0.4-1c0-0.4,0.1-0.7,0.3-1c0.2-0.3,0.5-0.5,0.8-0.7c0.3-0.2,0.7-0.4,1-0.5c0.3-0.1,0.7-0.3,1.1-0.4
				c0-0.5,0-0.9-0.1-1.1c0-0.3-0.1-0.5-0.3-0.6c-0.1-0.1-0.3-0.2-0.6-0.2c-0.2,0-0.3,0-0.5,0.1c-0.2,0.1-0.3,0.2-0.3,0.3
				c0,0,0,0.1,0,0.2c0,0,0,0.1,0,0.2c0,0.1,0,0.2,0,0.3c0,0.1-0.1,0.3-0.2,0.4c-0.1,0.1-0.3,0.2-0.4,0.2c-0.4,0-0.6-0.2-0.6-0.5
				c0-0.1,0-0.3,0.1-0.5c0.4-0.7,1.1-1,2.1-1c0.7,0,1.2,0.2,1.5,0.5c0.3,0.3,0.4,0.9,0.4,1.7V590.5z M1967.6,588
				c-0.3,0.1-0.5,0.2-0.8,0.3c-0.2,0.1-0.4,0.2-0.6,0.3c-0.2,0.1-0.4,0.3-0.5,0.5c-0.1,0.2-0.2,0.4-0.2,0.7c0,0.3,0.1,0.5,0.2,0.7
				c0.2,0.2,0.4,0.3,0.7,0.3c0.2,0,0.4-0.1,0.6-0.2c0.3-0.1,0.4-0.2,0.5-0.4V588z"/>
			<path id="XMLID_1624_" class="st1" d="M1970.6,587.3c0-0.3,0-0.5-0.1-0.6c0-0.1-0.1-0.2-0.2-0.3c-0.1,0-0.3-0.1-0.6-0.1v-0.2
				l1.9-0.6v1.1c0.6-0.7,1.3-1.1,2-1.1c1,0,1.6,0.7,1.6,2.1v2.8c0,0.3,0.1,0.5,0.2,0.6c0.1,0.1,0.3,0.2,0.6,0.2v0.2h-2.8v-0.2
				c0.3,0,0.5-0.1,0.7-0.2c0.1-0.1,0.2-0.3,0.2-0.6v-2.8c0-0.5-0.1-0.8-0.2-1.1c-0.1-0.2-0.4-0.4-0.8-0.4c-0.5,0-0.9,0.2-1.4,0.7
				v3.5c0,0.3,0.1,0.5,0.2,0.6c0.1,0.1,0.3,0.2,0.6,0.2v0.2h-2.8v-0.2c0.3,0,0.5-0.1,0.6-0.2c0.1-0.1,0.2-0.3,0.2-0.6V587.3z"/>
		</g>
		<g id="XMLID_1546_">
			<path id="XMLID_1621_" class="st1" d="M1846.9,572.7v-3c0-0.6-0.4-0.8-1.2-0.8v-0.2h3.8v0.2c-0.8,0-1.2,0.3-1.2,0.8v6.9
				c0,0.6,0.4,0.8,1.2,0.8v0.3h-3.8v-0.3c0.8,0,1.2-0.3,1.2-0.8v-3.3h-4.2v3.3c0,0.6,0.4,0.8,1.2,0.8v0.3h-3.8v-0.3
				c0.8,0,1.2-0.3,1.2-0.8v-6.9c0-0.6-0.4-0.8-1.2-0.8v-0.2h3.8v0.2c-0.8,0-1.2,0.3-1.2,0.8v3H1846.9z"/>
			<path id="XMLID_1618_" class="st1" d="M1855,576.4c-0.6,0.9-1.1,1.3-1.6,1.3c-0.4,0-0.6-0.2-0.6-0.7v-0.4c-0.6,0.7-1.3,1-2,1
				c-0.5,0-0.8-0.2-1.2-0.5c-0.3-0.3-0.5-0.8-0.5-1.3c0-0.8,0.3-1.4,0.9-2c0.6-0.6,1.3-0.9,2.1-0.9c0.4,0,0.9,0.2,1.3,0.6l0.1-0.5
				l0.7-0.1l-0.9,3.4c-0.1,0.2-0.1,0.5-0.1,0.6c0,0.1,0,0.1,0.1,0.2c0,0.1,0.1,0.1,0.2,0.1c0.3,0,0.7-0.4,1.2-1.1L1855,576.4z
				 M1853.5,574c-0.4-0.5-0.8-0.7-1.2-0.7c-0.6,0-1.2,0.3-1.7,0.8c-0.5,0.6-0.8,1.2-0.8,1.9c0,0.4,0.1,0.7,0.3,1
				c0.2,0.3,0.5,0.4,0.8,0.4c0.3,0,0.6-0.1,0.9-0.3c0.3-0.2,0.6-0.5,0.9-0.9L1853.5,574z"/>
			<path id="XMLID_1616_" class="st1" d="M1862.1,576.4c-0.6,0.9-1.1,1.3-1.6,1.3c-0.4,0-0.6-0.2-0.6-0.7c0-0.1,0-0.3,0-0.4
				c0-0.1,0.1-0.3,0.1-0.5l0.5-1.9c0.1-0.3,0.1-0.4,0.1-0.5c0-0.2-0.1-0.4-0.3-0.4c-0.6,0-1.7,1.4-3.3,4.2l-0.6,0.1
				c0.6-2.5,0.9-3.8,0.9-3.9c0-0.2-0.1-0.3-0.2-0.3c-0.2,0-0.6,0.3-1.1,1l-0.2-0.2c0.7-0.9,1.3-1.4,1.6-1.4c0.3,0,0.4,0.2,0.4,0.6
				c0,0.3-0.2,1.2-0.6,2.9c1.4-2.3,2.4-3.5,3.2-3.5c0.5,0,0.7,0.3,0.7,0.8c0,0.2,0,0.5-0.1,0.7l-0.5,1.9c0,0.1-0.1,0.2-0.1,0.3
				c0,0.1,0,0.2,0,0.3c0,0.1,0,0.1,0.1,0.2c0,0.1,0.1,0.1,0.2,0.1c0.3,0,0.7-0.4,1.2-1.1L1862.1,576.4z"/>
			<path id="XMLID_1613_" class="st1" d="M1869.6,565.6l0,0.3l-2.3,10.5l-0.1,0.7c0,0.2,0.1,0.3,0.2,0.3c0.3,0,0.7-0.4,1.2-1.1
				l0.2,0.2c-0.6,0.9-1.1,1.3-1.6,1.3c-0.4,0-0.6-0.2-0.6-0.7v-0.4c-0.6,0.7-1.3,1-2,1c-0.5,0-0.8-0.2-1.2-0.5
				c-0.3-0.3-0.5-0.7-0.5-1.3c0-0.7,0.3-1.4,0.9-2c0.6-0.6,1.3-0.9,2.1-0.9c0.4,0,0.9,0.2,1.2,0.5l1.6-7.5l0.1-0.4
				c0-0.1,0-0.1-0.1-0.2c0,0,0,0,0,0c-0.2,0-0.5,0.3-1,0.8l-0.2-0.2c0.6-0.7,1.2-1.1,1.6-1.1C1869.4,565,1869.6,565.2,1869.6,565.6z
				 M1867.2,573.9c-0.3-0.4-0.7-0.6-1.1-0.6c-0.6,0-1.2,0.3-1.7,0.8c-0.5,0.6-0.8,1.2-0.8,1.9c0,0.4,0.1,0.7,0.3,1
				c0.2,0.3,0.5,0.4,0.8,0.4c0.3,0,0.6-0.1,0.9-0.3c0.3-0.2,0.6-0.5,0.9-0.9L1867.2,573.9z"/>
			<path id="XMLID_1611_" class="st1" d="M1879.2,576.4c-0.6,0.9-1.1,1.3-1.6,1.3c-0.4,0-0.6-0.2-0.6-0.7c0-0.1,0-0.3,0-0.4
				c0-0.1,0.1-0.3,0.1-0.5l0.5-1.9c0.1-0.3,0.1-0.4,0.1-0.5c0-0.2-0.1-0.4-0.3-0.4c-0.6,0-1.8,1.4-3.5,4.2l-0.6,0.1l0.9-3.3l0.1-0.7
				c0-0.2-0.1-0.3-0.3-0.3c-0.6,0-1.7,1.4-3.3,4.2l-0.6,0.1c0.6-2.5,0.9-3.8,0.9-3.9c0-0.2-0.1-0.3-0.2-0.3c-0.2,0-0.6,0.3-1.1,1
				l-0.2-0.2c0.7-0.9,1.3-1.4,1.6-1.4c0.3,0,0.4,0.2,0.4,0.6c0,0.3-0.2,1.2-0.6,2.9c1.4-2.3,2.4-3.5,3.2-3.5c0.5,0,0.7,0.3,0.7,0.8
				c0,0.2,0,0.4-0.1,0.7l-0.5,2.1c1.5-2.3,2.6-3.5,3.3-3.5c0.5,0,0.7,0.3,0.7,0.8c0,0.1,0,0.2,0,0.3c0,0.1-0.1,0.3-0.1,0.4l-0.5,1.9
				c0,0.1-0.1,0.2-0.1,0.3c0,0.1,0,0.2,0,0.3c0,0.2,0.1,0.3,0.2,0.3c0.3,0,0.6-0.4,1.1-1.1L1879.2,576.4z"/>
			<path id="XMLID_1608_" class="st1" d="M1885.9,576.4c-0.6,0.9-1.1,1.3-1.6,1.3c-0.4,0-0.6-0.2-0.6-0.7v-0.4c-0.6,0.7-1.3,1-2,1
				c-0.5,0-0.8-0.2-1.2-0.5c-0.3-0.3-0.5-0.8-0.5-1.3c0-0.8,0.3-1.4,0.9-2c0.6-0.6,1.3-0.9,2.1-0.9c0.4,0,0.9,0.2,1.3,0.6l0.1-0.5
				l0.7-0.1l-0.9,3.4c-0.1,0.2-0.1,0.5-0.1,0.6c0,0.1,0,0.1,0.1,0.2c0,0.1,0.1,0.1,0.2,0.1c0.3,0,0.7-0.4,1.2-1.1L1885.9,576.4z
				 M1884.4,574c-0.4-0.5-0.8-0.7-1.2-0.7c-0.6,0-1.2,0.3-1.7,0.8c-0.5,0.6-0.8,1.2-0.8,1.9c0,0.4,0.1,0.7,0.3,1
				c0.2,0.3,0.5,0.4,0.8,0.4c0.3,0,0.6-0.1,0.9-0.3c0.3-0.2,0.6-0.5,0.9-0.9L1884.4,574z"/>
			<path id="XMLID_1605_" class="st1" d="M1893.3,565.6l0,0.3l-2.3,10.5l-0.1,0.7c0,0.2,0.1,0.3,0.2,0.3c0.3,0,0.7-0.4,1.2-1.1
				l0.2,0.2c-0.6,0.9-1.1,1.3-1.6,1.3c-0.4,0-0.6-0.2-0.6-0.7v-0.4c-0.6,0.7-1.3,1-2,1c-0.5,0-0.8-0.2-1.2-0.5
				c-0.3-0.3-0.5-0.7-0.5-1.3c0-0.7,0.3-1.4,0.9-2c0.6-0.6,1.3-0.9,2.1-0.9c0.4,0,0.9,0.2,1.2,0.5l1.6-7.5l0.1-0.4
				c0-0.1,0-0.1-0.1-0.2c0,0,0,0,0,0c-0.2,0-0.5,0.3-1,0.8l-0.2-0.2c0.6-0.7,1.2-1.1,1.6-1.1C1893.2,565,1893.3,565.2,1893.3,565.6z
				 M1890.9,573.9c-0.3-0.4-0.7-0.6-1.1-0.6c-0.6,0-1.2,0.3-1.7,0.8c-0.5,0.6-0.8,1.2-0.8,1.9c0,0.4,0.1,0.7,0.3,1
				c0.2,0.3,0.5,0.4,0.8,0.4c0.3,0,0.6-0.1,0.9-0.3c0.3-0.2,0.6-0.5,0.9-0.9L1890.9,573.9z"/>
			<path id="XMLID_1602_" class="st1" d="M1897.4,574c0,0.5-0.3,0.8-0.8,1.2c-0.6,0.3-1.4,0.6-2.4,0.7l-0.1,0.2v0.2
				c0,0.8,0.4,1.2,1.1,1.2c0.5,0,1.1-0.3,1.8-0.8l0.2,0.2c-0.7,0.6-1.5,1-2.2,1c-0.5,0-0.9-0.1-1.2-0.4c-0.3-0.3-0.4-0.7-0.4-1.2
				c0-0.7,0.3-1.4,0.9-2c0.6-0.7,1.3-1,2.1-1c0.3,0,0.6,0.1,0.7,0.3C1897.3,573.5,1897.4,573.7,1897.4,574z M1896.9,574
				c0-0.4-0.2-0.6-0.6-0.6c-0.5,0-0.9,0.2-1.3,0.6c-0.4,0.4-0.7,0.9-0.8,1.6c0.8,0,1.5-0.2,2-0.5
				C1896.6,574.8,1896.9,574.4,1896.9,574z"/>
			<path id="XMLID_1599_" class="st1" d="M1900.3,576.6l-1.4,2.9l-0.2-0.1l0.6-2.4L1900.3,576.6z"/>
			<path id="XMLID_1596_" class="st1" d="M1914.6,576c0.2,0.5,0.4,0.8,0.5,1c0.2,0.2,0.4,0.3,0.8,0.3v0.3h-3.5v-0.3
				c0.4,0,0.6-0.1,0.7-0.1c0.1-0.1,0.2-0.2,0.2-0.3c0-0.1-0.1-0.5-0.3-1.1l-0.5-1.2h-3.6c0,0-0.1,0.3-0.4,0.9
				c-0.2,0.6-0.4,1-0.4,1.2c0,0.4,0.3,0.6,0.9,0.6v0.3h-2.7v-0.3c0.4,0,0.7-0.2,0.9-0.6c0.2-0.3,0.5-0.9,0.9-1.8l2.8-6.6h0.3
				L1914.6,576z M1909.2,574.1h3.2l-1.6-3.8L1909.2,574.1z"/>
			<path id="XMLID_1594_" class="st1" d="M1920.6,573.7c0,0.1,0,0.3-0.1,0.4c-0.1,0.1-0.2,0.2-0.3,0.2c-0.1,0-0.2,0-0.3-0.1
				c0.2-0.1,0.3-0.2,0.3-0.3c0-0.2-0.1-0.3-0.3-0.3c-0.5,0-1.5,1.4-2.9,4.2l-0.7,0.1c0.6-2.5,0.9-3.8,0.9-3.9c0-0.2-0.1-0.3-0.2-0.3
				c-0.2,0-0.6,0.3-1.1,1l-0.2-0.2c0.7-0.9,1.3-1.4,1.6-1.4c0.3,0,0.4,0.2,0.4,0.6c0,0.3-0.2,1.2-0.6,2.9c1.3-2.3,2.2-3.5,2.8-3.5
				C1920.4,573.1,1920.6,573.3,1920.6,573.7z"/>
			<path id="XMLID_1592_" class="st1" d="M1923.6,573.4l-1.1,0l-0.9,3c-0.1,0.3-0.2,0.5-0.2,0.6c0,0.2,0.1,0.3,0.4,0.3
				c0.1,0,0.3-0.1,0.5-0.2c0.2-0.2,0.5-0.4,0.7-0.8l0.2,0.2c-0.7,0.8-1.3,1.2-1.7,1.2c-0.4,0-0.7-0.3-0.7-0.8c0-0.1,0-0.3,0.1-0.4
				c0-0.2,0.1-0.3,0.1-0.4l0.8-2.7l-1,0v-0.3l1.1,0l0.5-1.9l0.1-0.5c0,0,0-0.1-0.1-0.1c0,0,0,0,0,0c-0.3,0-0.6,0.3-0.9,0.9l-0.3-0.1
				c0.6-0.8,1-1.2,1.4-1.2c0.3,0,0.5,0.2,0.5,0.6l-0.1,0.4l-0.6,1.9l1,0V573.4z"/>
			<path id="XMLID_1590_" class="st1" d="M1925.9,576.6l-1.4,2.9l-0.2-0.1l0.6-2.4L1925.9,576.6z"/>
			<path id="XMLID_1588_" class="st1" d="M1932,577.6v-0.3c0.8,0,1.2-0.3,1.2-0.8v-6.9c0-0.6-0.4-0.8-1.2-0.8v-0.2h7.3v1.9h-0.3
				c-0.2-0.9-0.7-1.4-1.6-1.4h-2.2c-0.4,0-0.6,0.2-0.6,0.5v2.9h1.9c0.5,0,0.9-0.1,1.3-0.3c0.3-0.2,0.5-0.5,0.5-1h0.3v3.2h-0.3
				c0-0.9-0.6-1.3-1.7-1.3h-1.9v3.4c0,0.4,0.1,0.5,0.3,0.5h1.8c0.5,0,0.9,0,1.2-0.1c0.3-0.1,0.6-0.2,0.9-0.5
				c0.3-0.3,0.6-0.7,0.8-1.2h0.4l-0.6,2.3H1932z"/>
			<path id="XMLID_1586_" class="st1" d="M1949.3,576.4c-0.6,0.9-1.1,1.3-1.6,1.3c-0.4,0-0.6-0.2-0.6-0.7c0-0.1,0-0.3,0-0.4
				c0-0.1,0.1-0.3,0.1-0.5l0.5-1.9c0.1-0.3,0.1-0.4,0.1-0.5c0-0.2-0.1-0.4-0.3-0.4c-0.6,0-1.8,1.4-3.5,4.2l-0.6,0.1l0.9-3.3l0.1-0.7
				c0-0.2-0.1-0.3-0.3-0.3c-0.6,0-1.7,1.4-3.3,4.2l-0.6,0.1c0.6-2.5,0.9-3.8,0.9-3.9c0-0.2-0.1-0.3-0.2-0.3c-0.2,0-0.6,0.3-1.1,1
				l-0.2-0.2c0.7-0.9,1.3-1.4,1.6-1.4c0.3,0,0.4,0.2,0.4,0.6c0,0.3-0.2,1.2-0.6,2.9c1.4-2.3,2.4-3.5,3.2-3.5c0.5,0,0.7,0.3,0.7,0.8
				c0,0.2,0,0.4-0.1,0.7l-0.5,2.1c1.5-2.3,2.6-3.5,3.3-3.5c0.5,0,0.7,0.3,0.7,0.8c0,0.1,0,0.2,0,0.3c0,0.1-0.1,0.3-0.1,0.4l-0.5,1.9
				c0,0.1-0.1,0.2-0.1,0.3c0,0.1,0,0.2,0,0.3c0,0.2,0.1,0.3,0.2,0.3c0.3,0,0.6-0.4,1.1-1.1L1949.3,576.4z"/>
			<path id="XMLID_1583_" class="st1" d="M1955.2,574.8c0,0.7-0.3,1.4-0.9,2.1c-0.6,0.6-1.3,0.9-2.1,0.9c-0.6,0-1.1-0.2-1.4-0.5
				c-0.3-0.3-0.5-0.8-0.5-1.3c0-0.8,0.3-1.4,1-2c0.7-0.6,1.4-0.9,2.3-0.9c0.5,0,1,0.1,1.3,0.4
				C1955.1,573.8,1955.2,574.2,1955.2,574.8z M1954.6,574.6c0-0.4-0.1-0.7-0.3-0.9c-0.2-0.2-0.5-0.3-0.9-0.3c-0.6,0-1.2,0.3-1.8,0.9
				c-0.5,0.6-0.8,1.2-0.8,1.9c0,0.9,0.4,1.3,1.3,1.3c0.6,0,1.2-0.3,1.7-0.9C1954.3,576,1954.6,575.3,1954.6,574.6z"/>
			<path id="XMLID_1581_" class="st1" d="M1959.1,573.4l-1.1,0l-0.9,3c-0.1,0.3-0.2,0.5-0.2,0.6c0,0.2,0.1,0.3,0.4,0.3
				c0.1,0,0.3-0.1,0.5-0.2s0.5-0.4,0.7-0.8l0.2,0.2c-0.7,0.8-1.3,1.2-1.7,1.2c-0.4,0-0.7-0.3-0.7-0.8c0-0.1,0-0.3,0.1-0.4
				c0-0.2,0.1-0.3,0.1-0.4l0.8-2.7l-1,0v-0.3l1.1,0l0.5-1.9l0.1-0.5c0,0,0-0.1-0.1-0.1c0,0,0,0,0,0c-0.3,0-0.6,0.3-0.9,0.9l-0.3-0.1
				c0.6-0.8,1-1.2,1.4-1.2c0.3,0,0.5,0.2,0.5,0.6l-0.1,0.4l-0.6,1.9l1,0V573.4z"/>
			<path id="XMLID_1578_" class="st1" d="M1963.1,576.5c-0.7,0.8-1.3,1.2-1.7,1.2c-0.2,0-0.4-0.1-0.5-0.2c-0.1-0.1-0.2-0.3-0.2-0.5
				c0-0.1,0-0.2,0.1-0.4c0-0.2,0.1-0.3,0.1-0.5l0.4-1.7c0-0.1,0.1-0.2,0.1-0.3c0-0.1,0-0.2,0-0.3c0-0.2-0.1-0.3-0.2-0.3
				c-0.3,0-0.6,0.4-1.1,1.1l-0.2-0.2c0.6-0.9,1.1-1.3,1.6-1.3c0.4,0,0.6,0.2,0.6,0.7c0,0.1,0,0.3-0.1,0.5c0,0.2-0.1,0.3-0.1,0.4
				l-0.5,1.8c-0.1,0.3-0.1,0.6-0.1,0.7c0,0.2,0.1,0.3,0.3,0.3c0.1,0,0.3-0.1,0.5-0.2c0.2-0.2,0.5-0.4,0.7-0.8L1963.1,576.5z
				 M1963.1,569.1c0,0.3-0.2,0.5-0.5,0.5c-0.1,0-0.2,0-0.3-0.1c-0.1-0.1-0.1-0.2-0.1-0.3c0-0.1,0-0.2,0.1-0.3
				c0.1-0.1,0.2-0.2,0.3-0.2C1962.9,568.6,1963.1,568.8,1963.1,569.1z"/>
			<path id="XMLID_1575_" class="st1" d="M1968.9,574.8c0,0.7-0.3,1.4-0.9,2.1c-0.6,0.6-1.3,0.9-2.1,0.9c-0.6,0-1.1-0.2-1.4-0.5
				c-0.3-0.3-0.5-0.8-0.5-1.3c0-0.8,0.3-1.4,1-2c0.7-0.6,1.4-0.9,2.3-0.9c0.5,0,1,0.1,1.3,0.4
				C1968.7,573.8,1968.9,574.2,1968.9,574.8z M1968.3,574.6c0-0.4-0.1-0.7-0.3-0.9c-0.2-0.2-0.5-0.3-0.9-0.3c-0.6,0-1.2,0.3-1.8,0.9
				c-0.5,0.6-0.8,1.2-0.8,1.9c0,0.9,0.4,1.3,1.3,1.3c0.6,0,1.2-0.3,1.7-0.9C1968,576,1968.3,575.3,1968.3,574.6z"/>
			<path id="XMLID_1573_" class="st1" d="M1976.2,576.4c-0.6,0.9-1.1,1.3-1.6,1.3c-0.4,0-0.6-0.2-0.6-0.7c0-0.1,0-0.3,0-0.4
				c0-0.1,0.1-0.3,0.1-0.5l0.5-1.9c0.1-0.3,0.1-0.4,0.1-0.5c0-0.2-0.1-0.4-0.3-0.4c-0.6,0-1.7,1.4-3.3,4.2l-0.6,0.1
				c0.6-2.5,0.9-3.8,0.9-3.9c0-0.2-0.1-0.3-0.2-0.3c-0.2,0-0.6,0.3-1.1,1l-0.2-0.2c0.7-0.9,1.3-1.4,1.6-1.4c0.3,0,0.4,0.2,0.4,0.6
				c0,0.3-0.2,1.2-0.6,2.9c1.4-2.3,2.4-3.5,3.2-3.5c0.5,0,0.7,0.3,0.7,0.8c0,0.2,0,0.5-0.1,0.7l-0.5,1.9c0,0.1-0.1,0.2-0.1,0.3
				c0,0.1,0,0.2,0,0.3c0,0.1,0,0.1,0.1,0.2c0,0.1,0.1,0.1,0.2,0.1c0.3,0,0.7-0.4,1.2-1.1L1976.2,576.4z"/>
		</g>
	</g>
</g>
</svg>
