<?xml version="1.0" encoding="utf-8"?>
<!-- Generator: Adobe Illustrator 19.0.0, SVG Export Plug-In . SVG Version: 6.00 Build 0)  -->
<svg version="1.1" id="Layer_1" xmlns="http://www.w3.org/2000/svg" xmlns:xlink="http://www.w3.org/1999/xlink" x="0px" y="0px"
	 viewBox="0 0 566.9 70.9" style="enable-background:new 0 0 566.9 70.9;" xml:space="preserve">
<style type="text/css">
	.st0{fill: rgb(235,215,215);}
</style>
<g id="XMLID_379_">
	<path id="XMLID_979_" class="st0" d="M1164.9,851.9h-2.9v-2.1h-4.4c0.7,0.3,1.3,0.7,1.8,1.3c0.5,0.7,0.9,1.7,1.1,3
		c0.2,1.2,0.3,3,0.3,5.3c0,3.3-0.4,5.6-1.1,7c-0.5,0.9-1.1,1.5-2,1.8h7.1V851.9z"/>
	<path id="XMLID_980_" class="st0" d="M1154.3,853.2c-0.3,1-0.4,2.9-0.4,5.9c0,2.7,0.2,4.6,0.5,5.6c0.3,1,0.9,1.5,1.8,1.5
		c0.8,0,1.4-0.5,1.7-1.4c0.3-0.9,0.5-2.6,0.5-5.1c0-3.2-0.1-5.3-0.4-6.4c-0.3-1.1-0.9-1.6-1.8-1.6
		C1155.2,851.8,1154.6,852.3,1154.3,853.2z"/>
	<path id="XMLID_981_" class="st0" d="M1172.4,866.3c-0.7-1.4-1.1-4-1.1-7.7c0-3.3,0.4-5.6,1.1-7c0.5-0.9,1.1-1.5,2-1.8h-4.2v2.1
		h-2.8v16.3h7.2C1173.6,867.9,1172.9,867.2,1172.4,866.3z"/>
	<path id="XMLID_982_" class="st0" d="M1184.2,866.3c-0.7-1.4-1.1-3.9-1.1-7.3c0-3.9,0.4-6.5,1.2-7.8c0.5-0.8,1.1-1.2,1.9-1.5h-8.5
		c0.7,0.3,1.3,0.7,1.8,1.3c0.5,0.7,0.9,1.7,1.1,3c0.2,1.2,0.3,3,0.3,5.3c0,3.3-0.4,5.6-1.1,7c-0.5,0.9-1.1,1.5-2,1.8h8.3
		C1185.4,867.9,1184.7,867.3,1184.2,866.3z"/>
	<path id="XMLID_983_" class="st0" d="M1174.4,853.2c-0.3,1-0.4,2.9-0.4,5.9c0,2.7,0.2,4.6,0.5,5.6c0.3,1,0.9,1.5,1.8,1.5
		c0.8,0,1.4-0.5,1.7-1.4c0.3-0.9,0.5-2.6,0.5-5.1c0-3.2-0.1-5.3-0.4-6.4c-0.3-1.1-0.9-1.6-1.8-1.6
		C1175.3,851.8,1174.7,852.3,1174.4,853.2z"/>
	<rect id="XMLID_984_" x="1142.6" y="849.8" class="st0" width="3.7" height="7.2"/>
	<path id="XMLID_985_" class="st0" d="M1152.3,866.3c-0.7-1.4-1.1-4-1.1-7.7c0-3.3,0.4-5.6,1.1-7c0.5-0.9,1.1-1.5,2-1.8h-5.5v18.4
		h5.7C1153.5,867.9,1152.8,867.2,1152.3,866.3z"/>
	<path id="XMLID_986_" class="st0" d="M1140.1,868.2v-18.4h-5.8c1.2,0.1,2.2,0.5,2.8,1.2c0.7,0.8,1.1,2.1,1.1,3.8
		c0,2.5-0.7,4.1-2.2,4.8c-0.7,0.3-1.8,0.5-3.2,0.5v8.2H1140.1z"/>
	<path id="XMLID_987_" class="st0" d="M1135,857.3c0.4-0.4,0.6-1.2,0.6-2.3c0-1.1-0.2-1.9-0.6-2.4c-0.4-0.5-1-0.8-1.8-0.8h-0.3v6.1
		C1133.9,857.9,1134.6,857.7,1135,857.3z"/>
	<rect id="XMLID_988_" x="1142.6" y="859.1" class="st0" width="3.7" height="9.1"/>
	<path id="XMLID_989_" class="st0" d="M1191.5,866.6c-0.4,0.8-1,1.4-1.8,1.7h5.2v-18.4h-5.3c0.4,0.1,0.8,0.3,1.1,0.6
		c0.7,0.6,1.2,1.6,1.6,2.9l-2.3,1c-0.1-0.5-0.2-0.9-0.3-1.2c-0.1-0.3-0.3-0.6-0.4-0.8c-0.3-0.4-0.8-0.6-1.4-0.6
		c-0.8,0-1.4,0.5-1.7,1.5c-0.3,1.1-0.5,3-0.5,5.8c0,2.8,0.2,4.7,0.5,5.7c0.3,1,0.9,1.5,1.8,1.5c0.8,0,1.3-0.4,1.7-1.1
		c0.3-0.8,0.5-2,0.5-3.6V861v-0.4h-2.2v-2.1h4.5v0.7C1192.4,862.9,1192.1,865.3,1191.5,866.6z"/>
	<path id="XMLID_990_" class="st0" d="M1219.9,857.3c0.4-0.4,0.6-1.2,0.6-2.3c0-1.1-0.2-1.9-0.6-2.4c-0.4-0.5-1-0.8-1.8-0.8h-0.3
		v6.1C1218.8,857.9,1219.5,857.7,1219.9,857.3z"/>
	<rect id="XMLID_991_" x="1227.5" y="859.1" class="st0" width="3.7" height="9.1"/>
	<path id="XMLID_992_" class="st0" d="M1197.4,858c1,0,1.7-0.2,2.1-0.7s0.6-1.2,0.6-2.3c0-0.6,0-1.1-0.1-1.5c-0.1-0.4-0.2-0.7-0.4-1
		c-0.2-0.3-0.4-0.4-0.7-0.6s-0.6-0.2-1-0.2h-0.4V858z"/>
	<rect id="XMLID_993_" x="898.5" y="849.8" class="st0" width="231.8" height="18.4"/>
	<path id="XMLID_994_" class="st0" d="M1225,849.8h-5.8c1.2,0.1,2.2,0.5,2.8,1.2c0.7,0.8,1.1,2.1,1.1,3.8c0,2.5-0.7,4.1-2.2,4.8
		c-0.7,0.3-1.8,0.5-3.2,0.5v8.2h7.2V849.8z"/>
	<rect id="XMLID_995_" x="1233.7" y="849.8" class="st0" width="231.8" height="18.4"/>
	<rect id="XMLID_996_" x="1227.5" y="849.8" class="st0" width="3.7" height="7.2"/>
	<path id="XMLID_997_" class="st0" d="M1207.9,849.8h-9c1,0.1,1.8,0.4,2.4,0.9c0.8,0.8,1.3,2.1,1.3,3.9c0,1.3-0.2,2.4-0.7,3.2
		c-0.4,0.8-1.1,1.3-1.9,1.5l3.4,9h0.6L1207.9,849.8z"/>
	<polygon id="XMLID_998_" class="st0" points="1197.4,859.2 1197.4,868.2 1200.8,868.2 	"/>
	<polygon id="XMLID_999_" class="st0" points="1210.7,864.7 1207,864.7 1206.3,868.2 1211.3,868.2 	"/>
	<polygon id="XMLID_1000_" class="st0" points="1215.3,849.8 1209.9,849.8 1213.8,868.2 1215.3,868.2 	"/>
	<path id="XMLID_1001_" class="st0" d="M1207.8,860.4l-0.5,2.4h3l-0.6-3c-0.4-2-0.7-4.2-0.9-6.4c-0.1,1.1-0.3,2.2-0.4,3.4
		C1208.2,857.9,1208,859.1,1207.8,860.4z"/>
</g>
<g id="XMLID_138_">
	<path id="XMLID_139_" class="st0" d="M271.2,39.4h-5.7c0.7,0.3,1.4,0.7,1.8,1.3c0.5,0.7,0.9,1.7,1.1,3c0.2,1.2,0.3,3,0.3,5.3
		c0,3.3-0.4,5.6-1.1,7c-0.5,0.9-1.1,1.5-2,1.8h5.5V39.4z"/>
	<path id="XMLID_153_" class="st0" d="M273.6,39.4l2.5,7.4c0.7,2.1,1.4,4.3,1.9,6.7c-0.2-1.4-0.3-2.7-0.4-3.9
		c-0.1-1.2-0.1-2.3-0.1-3.3v-6.9H273.6z"/>
	<path id="XMLID_155_" class="st0" d="M262.2,42.9c-0.3,1-0.4,2.9-0.4,5.9c0,2.7,0.2,4.6,0.5,5.6c0.3,1,0.9,1.5,1.8,1.5
		c0.8,0,1.4-0.5,1.7-1.4c0.3-0.9,0.5-2.6,0.5-5.1c0-3.2-0.1-5.3-0.4-6.4c-0.3-1.1-0.9-1.6-1.8-1.6S262.5,41.9,262.2,42.9z"/>
	<path id="XMLID_156_" class="st0" d="M257.1,57.9h5.2c-0.9-0.3-1.6-1-2.1-1.9c-0.7-1.4-1.1-4-1.1-7.7c0-3.3,0.4-5.6,1.1-7
		c0.5-0.9,1.1-1.5,2-1.8H257c0.2,0.1,0.4,0.2,0.6,0.3v2.2c-0.6-0.3-1.2-0.5-1.6-0.5c-0.6,0-1.1,0.1-1.5,0.4s-0.8,0.7-1,1.3
		c-0.3,0.6-0.5,1.4-0.6,2.3c-0.1,0.9-0.2,2-0.2,3.3c0,4.6,1.2,6.9,3.5,6.9c0.4,0,0.9-0.1,1.5-0.4v2.3
		C257.4,57.7,257.2,57.8,257.1,57.9z"/>
	<path id="XMLID_159_" class="st0" d="M274.7,49.6c-0.3-0.8-0.5-1.6-0.7-2.4c-0.2-0.8-0.4-1.7-0.6-2.6c0-0.1,0-0.2-0.1-0.4
		c0-0.2-0.1-0.3-0.1-0.6c0,0.2,0,0.4,0.1,0.5c0,0.1,0,0.3,0,0.4l0.1,1.9l0.1,2.3c0,0.1,0,0.3,0,0.5c0,0.2,0,0.4,0,0.6l0.1,8h3.8
		L274.7,49.6z"/>
	<path id="XMLID_160_" class="st0" d="M304.7,39.4c1.3,0.1,2.3,0.5,3,1.2c0.7,0.8,1.1,2.1,1.1,3.8c0,2.5-0.7,4.1-2.2,4.8
		c-0.7,0.3-1.8,0.5-3.2,0.5v8.2h8.6V41.6h-2.9v-2.2H304.7z"/>
	<polygon id="XMLID_161_" class="st0" points="317.4,39.4 317.4,41.6 314.6,41.6 314.6,57.9 567.1,57.9 567.1,39.4 	"/>
	<path id="XMLID_163_" class="st0" d="M249.9,49c0-3.3,0.5-5.8,1.4-7.4c0.6-1.1,1.4-1.8,2.5-2.1H0.2v18.4h253.6
		C251.2,57,249.9,54,249.9,49z"/>
	<path id="XMLID_164_" class="st0" d="M305.6,46.9c0.4-0.4,0.6-1.2,0.6-2.3c0-1.1-0.2-1.9-0.6-2.4c-0.4-0.5-1-0.8-1.8-0.8h-0.3v6.1
		C304.5,47.6,305.2,47.4,305.6,46.9z"/>
	<polygon id="XMLID_165_" class="st0" points="301,57.9 301,39.4 298.7,39.4 298.7,41.5 294.6,41.5 294.6,47.4 298.2,47.4
		298.2,49.5 294.6,49.5 294.6,55.8 298.7,55.8 298.7,57.9 	"/>
	<path id="XMLID_166_" class="st0" d="M282.3,49c0-3.3,0.5-5.8,1.4-7.4c0.6-1.1,1.4-1.8,2.5-2.1h-6.3v18.4h6.3
		C283.6,57,282.3,54,282.3,49z"/>
	<path id="XMLID_168_" class="st0" d="M289.5,57.9h2.6V39.4h-2.7c0.2,0.1,0.4,0.2,0.6,0.3v2.2c-0.6-0.3-1.2-0.5-1.6-0.5
		c-0.6,0-1.1,0.1-1.5,0.4s-0.8,0.7-1,1.3s-0.5,1.4-0.6,2.3c-0.1,0.9-0.2,2-0.2,3.3c0,4.6,1.2,6.9,3.5,6.9c0.4,0,0.9-0.1,1.5-0.4v2.3
		C289.8,57.7,289.7,57.8,289.5,57.9z"/>
</g>
</svg>
