<?xml version="1.0" encoding="utf-8"?>
<!-- Generator: Adobe Illustrator 19.0.0, SVG Export Plug-In . SVG Version: 6.00 Build 0)  -->
<svg version="1.1" id="Layer_1" xmlns="http://www.w3.org/2000/svg" xmlns:xlink="http://www.w3.org/1999/xlink" x="0px" y="0px"
	 viewBox="0 0 566.9 90" style="enable-background:new 0 0 566.9 90;" xml:space="preserve">
<style type="text/css">
	.st0{fill: rgb(230,210,210);}
</style>
<g id="XMLID_379_">
	<path id="XMLID_979_" class="st0" d="M1164.9,859h-2.9v-2.1h-4.4c0.7,0.3,1.3,0.7,1.8,1.3c0.5,0.7,0.9,1.7,1.1,3
		c0.2,1.2,0.3,3,0.3,5.3c0,3.3-0.4,5.6-1.1,7c-0.5,0.9-1.1,1.5-2,1.8h7.1V859z"/>
	<path id="XMLID_980_" class="st0" d="M1154.3,860.3c-0.3,1-0.4,2.9-0.4,5.9c0,2.7,0.2,4.6,0.5,5.6c0.3,1,0.9,1.5,1.8,1.5
		c0.8,0,1.4-0.5,1.7-1.4c0.3-0.9,0.5-2.6,0.5-5.1c0-3.2-0.1-5.3-0.4-6.4c-0.3-1.1-0.9-1.6-1.8-1.6
		C1155.2,858.9,1154.6,859.3,1154.3,860.3z"/>
	<path id="XMLID_981_" class="st0" d="M1172.4,873.4c-0.7-1.4-1.1-4-1.1-7.7c0-3.3,0.4-5.6,1.1-7c0.5-0.9,1.1-1.5,2-1.8h-4.2v2.1
		h-2.8v16.3h7.2C1173.6,875,1172.9,874.3,1172.4,873.4z"/>
	<path id="XMLID_982_" class="st0" d="M1184.2,873.4c-0.7-1.4-1.1-3.9-1.1-7.3c0-3.9,0.4-6.5,1.2-7.8c0.5-0.8,1.1-1.2,1.9-1.5h-8.5
		c0.7,0.3,1.3,0.7,1.8,1.3c0.5,0.7,0.9,1.7,1.1,3c0.2,1.2,0.3,3,0.3,5.3c0,3.3-0.4,5.6-1.1,7c-0.5,0.9-1.1,1.5-2,1.8h8.3
		C1185.4,875,1184.7,874.4,1184.2,873.4z"/>
	<path id="XMLID_983_" class="st0" d="M1174.4,860.3c-0.3,1-0.4,2.9-0.4,5.9c0,2.7,0.2,4.6,0.5,5.6c0.3,1,0.9,1.5,1.8,1.5
		c0.8,0,1.4-0.5,1.7-1.4c0.3-0.9,0.5-2.6,0.5-5.1c0-3.2-0.1-5.3-0.4-6.4c-0.3-1.1-0.9-1.6-1.8-1.6
		C1175.3,858.9,1174.7,859.3,1174.4,860.3z"/>
	<rect id="XMLID_984_" x="1142.6" y="856.9" class="st0" width="3.7" height="7.2"/>
	<path id="XMLID_985_" class="st0" d="M1152.3,873.4c-0.7-1.4-1.1-4-1.1-7.7c0-3.3,0.4-5.6,1.1-7c0.5-0.9,1.1-1.5,2-1.8h-5.5v18.4
		h5.7C1153.5,875,1152.8,874.3,1152.3,873.4z"/>
	<path id="XMLID_986_" class="st0" d="M1140.1,875.3v-18.4h-5.8c1.2,0.1,2.2,0.5,2.8,1.2c0.7,0.8,1.1,2.1,1.1,3.8
		c0,2.5-0.7,4.1-2.2,4.8c-0.7,0.3-1.8,0.5-3.2,0.5v8.2H1140.1z"/>
	<path id="XMLID_987_" class="st0" d="M1135,864.4c0.4-0.4,0.6-1.2,0.6-2.3c0-1.1-0.2-1.9-0.6-2.4c-0.4-0.5-1-0.8-1.8-0.8h-0.3v6.1
		C1133.9,865,1134.6,864.8,1135,864.4z"/>
	<rect id="XMLID_988_" x="1142.6" y="866.2" class="st0" width="3.7" height="9.1"/>
	<path id="XMLID_989_" class="st0" d="M1191.5,873.7c-0.4,0.8-1,1.4-1.8,1.7h5.2v-18.4h-5.3c0.4,0.1,0.8,0.3,1.1,0.6
		c0.7,0.6,1.2,1.6,1.6,2.9l-2.3,1c-0.1-0.5-0.2-0.9-0.3-1.2c-0.1-0.3-0.3-0.6-0.4-0.8c-0.3-0.4-0.8-0.6-1.4-0.6
		c-0.8,0-1.4,0.5-1.7,1.5c-0.3,1.1-0.5,3-0.5,5.8c0,2.8,0.2,4.7,0.5,5.7c0.3,1,0.9,1.5,1.8,1.5c0.8,0,1.3-0.4,1.7-1.1
		c0.3-0.8,0.5-2,0.5-3.6v-0.5v-0.4h-2.2v-2.1h4.5v0.7C1192.4,870,1192.1,872.4,1191.5,873.7z"/>
	<path id="XMLID_990_" class="st0" d="M1219.9,864.4c0.4-0.4,0.6-1.2,0.6-2.3c0-1.1-0.2-1.9-0.6-2.4c-0.4-0.5-1-0.8-1.8-0.8h-0.3
		v6.1C1218.8,865,1219.5,864.8,1219.9,864.4z"/>
	<rect id="XMLID_991_" x="1227.5" y="866.2" class="st0" width="3.7" height="9.1"/>
	<path id="XMLID_992_" class="st0" d="M1197.4,865c1,0,1.7-0.2,2.1-0.7s0.6-1.2,0.6-2.3c0-0.6,0-1.1-0.1-1.5c-0.1-0.4-0.2-0.7-0.4-1
		c-0.2-0.3-0.4-0.4-0.7-0.6s-0.6-0.2-1-0.2h-0.4V865z"/>
	<rect id="XMLID_993_" x="898.5" y="856.9" class="st0" width="231.8" height="18.4"/>
	<path id="XMLID_994_" class="st0" d="M1225,856.9h-5.8c1.2,0.1,2.2,0.5,2.8,1.2c0.7,0.8,1.1,2.1,1.1,3.8c0,2.5-0.7,4.1-2.2,4.8
		c-0.7,0.3-1.8,0.5-3.2,0.5v8.2h7.2V856.9z"/>
	<rect id="XMLID_995_" x="1233.7" y="856.9" class="st0" width="231.8" height="18.4"/>
	<rect id="XMLID_996_" x="1227.5" y="856.9" class="st0" width="3.7" height="7.2"/>
	<path id="XMLID_997_" class="st0" d="M1207.9,856.9h-9c1,0.1,1.8,0.4,2.4,0.9c0.8,0.8,1.3,2.1,1.3,3.9c0,1.3-0.2,2.4-0.7,3.2
		c-0.4,0.8-1.1,1.3-1.9,1.5l3.4,9h0.6L1207.9,856.9z"/>
	<polygon id="XMLID_998_" class="st0" points="1197.4,866.3 1197.4,875.3 1200.8,875.3 	"/>
	<polygon id="XMLID_999_" class="st0" points="1210.7,871.8 1207,871.8 1206.3,875.3 1211.3,875.3 	"/>
	<polygon id="XMLID_1000_" class="st0" points="1215.3,856.9 1209.9,856.9 1213.8,875.3 1215.3,875.3 	"/>
	<path id="XMLID_1001_" class="st0" d="M1207.8,867.4l-0.5,2.4h3l-0.6-3c-0.4-2-0.7-4.2-0.9-6.4c-0.1,1.1-0.3,2.2-0.4,3.4
		C1208.2,865,1208,866.2,1207.8,867.4z"/>
</g>
<g id="XMLID_81_">
	<path id="XMLID_83_" class="st0" d="M284.6,66.7c0-0.2-0.1-0.6-0.1-1l-0.3-1.8c0-0.1,0-0.4-0.1-0.6c0-0.3-0.1-0.6-0.1-1.1l-0.1-0.8
		c0,0.2,0,0.3,0,0.5c0,0.1,0,0.2,0,0.3c0,0.5-0.1,0.9-0.1,1.2c0,0.3,0,0.5-0.1,0.5l-0.3,1.8c-0.1,0.4-0.1,0.7-0.1,1
		c0,0.2-0.1,0.4-0.1,0.4L282,75h4l-1.3-7.9C284.7,67,284.7,66.9,284.6,66.7z"/>
	<path id="XMLID_82_" class="st0" d="M301.5,66.7c-0.3-0.8-0.5-1.6-0.7-2.4c-0.2-0.8-0.4-1.7-0.6-2.6c0-0.1,0-0.2-0.1-0.4
		c0-0.2-0.1-0.3-0.1-0.5c0,0.2,0,0.4,0.1,0.5c0,0.1,0,0.3,0,0.4l0.1,1.9l0.1,2.3c0,0.1,0,0.3,0,0.5c0,0.2,0,0.4,0,0.6l0.1,8h3.8
		L301.5,66.7z"/>
	<path id="XMLID_238_" class="st0" d="M246.9,56.6h3.1c0.9,0,1.7,0.1,2.4,0.3c0.6,0.2,1.1,0.6,1.6,1.1c0.7,0.8,1.2,1.8,1.5,3
		c0.3,1.2,0.4,2.9,0.4,5.1c0,2-0.2,3.7-0.5,5c-0.3,1.2-0.8,2.2-1.6,2.8c-0.7,0.6-1.9,1-3.5,1.1h8V56.6h3.3c1.4,0,2.4,0.3,3,1
		c0.8,0.8,1.3,2.1,1.3,3.8c0,1.3-0.2,2.4-0.7,3.2c-0.4,0.8-1.1,1.3-1.9,1.5l3.4,8.9h0.6l4-18.4h1.9l3.9,18.4h2.9l-3.2-18.4h2.4
		l1.3,8.6l0.2,1.3c0.1,0.7,0.2,1.3,0.2,1.9l0.1,1.6c0,0,0,0.1,0,0.2c0,0.1,0,0.2,0,0.4l0.1-0.6c0.1-1,0.2-2,0.3-2.9
		c0.1-0.9,0.2-1.7,0.4-2.4l1.3-8h1.9l1.2,7.7c0.2,1.1,0.3,2.2,0.5,3.2c0.1,1,0.2,1.9,0.3,2.8c0.1-0.9,0.2-1.8,0.3-2.7
		c0.1-0.9,0.2-1.7,0.3-2.6l0.2-1.2l1.1-7.2h2.4L287.9,75h4.7V56.6h2.5V75h2.8V56.6h2.3l2.5,7.4c0.7,2.1,1.3,4.3,1.9,6.6
		c-0.2-1.4-0.3-2.7-0.4-3.9c-0.1-1.2-0.1-2.2-0.1-3.3v-6.9h2.5V75h5.6c-0.9-0.3-1.6-0.9-2.1-1.9c-0.7-1.4-1.1-3.8-1.1-7.2
		c0-3.9,0.4-6.4,1.2-7.7c0.5-0.8,1.2-1.4,2.2-1.6H0V75h246.9V56.6z"/>
	<polygon id="XMLID_397_" class="st0" points="269.6,75 274.6,75 273.9,71.4 270.3,71.4 	"/>
	<path id="XMLID_398_" class="st0" d="M315.2,56.5c0.5,0.1,1,0.4,1.4,0.7c0.7,0.6,1.2,1.6,1.6,2.9l-2.3,1c-0.1-0.5-0.2-0.9-0.3-1.2
		c-0.1-0.3-0.3-0.6-0.4-0.8c-0.3-0.4-0.8-0.6-1.4-0.6c-0.8,0-1.4,0.5-1.7,1.5c-0.3,1.1-0.5,3-0.5,5.7c0,2.8,0.2,4.7,0.5,5.7
		c0.3,1,0.9,1.5,1.8,1.5c0.8,0,1.3-0.4,1.7-1.1c0.3-0.7,0.5-1.9,0.5-3.6v-0.5v-0.4h-2.2v-2.1h4.5V66c0,3.6-0.3,6-0.9,7.3
		c-0.4,0.8-1,1.3-1.8,1.7h251.3V56.5H315.2z"/>
	<path id="XMLID_399_" class="st0" d="M272.1,60.2c-0.1,1.1-0.3,2.2-0.4,3.4c-0.2,1.1-0.4,2.3-0.6,3.6l-0.5,2.4h2.9l-0.5-2.9
		C272.7,64.6,272.4,62.4,272.1,60.2z"/>
	<path id="XMLID_400_" class="st0" d="M263.3,60.4c-0.1-0.4-0.2-0.7-0.4-1c-0.2-0.3-0.4-0.4-0.7-0.6c-0.3-0.1-0.6-0.2-1-0.2h-0.4
		v6.1c1,0,1.6-0.2,2-0.7c0.4-0.4,0.6-1.2,0.6-2.3C263.4,61.3,263.3,60.8,263.3,60.4z"/>
	<path id="XMLID_401_" class="st0" d="M253.2,66.1c0-2.8-0.3-4.8-0.8-5.9c-0.5-1.1-1.4-1.6-2.8-1.6h-0.3v14.2c1.5,0,2.5-0.5,3-1.4
		C252.9,70.6,253.2,68.8,253.2,66.1z"/>
	<polygon id="XMLID_402_" class="st0" points="260.8,75 264.1,75 260.8,66 	"/>
</g>
</svg>
