<?xml version="1.0" encoding="utf-8"?>
<!-- Generator: Adobe Illustrator 19.0.0, SVG Export Plug-In . SVG Version: 6.00 Build 0)  -->
<svg version="1.1" id="Layer_1" xmlns="http://www.w3.org/2000/svg" xmlns:xlink="http://www.w3.org/1999/xlink" x="0px" y="0px"
	 viewBox="0 0 566.9 100.1" style="enable-background:new 0 0 566.9 170.1;" xml:space="preserve">
<style type="text/css">
	.st0{fill:rgb(230,210,210);}
</style>
<g id="XMLID_379_">
	<path id="XMLID_979_" class="st0" d="M1164.9,878.3h-2.9v-2.1h-4.4c0.7,0.3,1.3,0.7,1.8,1.3c0.5,0.7,0.9,1.7,1.1,3
		c0.2,1.2,0.3,3,0.3,5.3c0,3.3-0.4,5.6-1.1,7c-0.5,0.9-1.1,1.5-2,1.8h7.1V878.3z"/>
	<path id="XMLID_980_" class="st0" d="M1154.3,879.6c-0.3,1-0.4,2.9-0.4,5.9c0,2.7,0.2,4.6,0.5,5.6c0.3,1,0.9,1.5,1.8,1.5
		c0.8,0,1.4-0.5,1.7-1.4c0.3-0.9,0.5-2.6,0.5-5.1c0-3.2-0.1-5.3-0.4-6.4c-0.3-1.1-0.9-1.6-1.8-1.6
		C1155.2,878.2,1154.6,878.6,1154.3,879.6z"/>
	<path id="XMLID_981_" class="st0" d="M1172.4,892.7c-0.7-1.4-1.1-4-1.1-7.7c0-3.3,0.4-5.6,1.1-7c0.5-0.9,1.1-1.5,2-1.8h-4.2v2.1
		h-2.8v16.3h7.2C1173.6,894.3,1172.9,893.6,1172.4,892.7z"/>
	<path id="XMLID_982_" class="st0" d="M1184.2,892.7c-0.7-1.4-1.1-3.9-1.1-7.3c0-3.9,0.4-6.5,1.2-7.8c0.5-0.8,1.1-1.2,1.9-1.5h-8.5
		c0.7,0.3,1.3,0.7,1.8,1.3c0.5,0.7,0.9,1.7,1.1,3c0.2,1.2,0.3,3,0.3,5.3c0,3.3-0.4,5.6-1.1,7c-0.5,0.9-1.1,1.5-2,1.8h8.3
		C1185.4,894.3,1184.7,893.7,1184.2,892.7z"/>
	<path id="XMLID_983_" class="st0" d="M1174.4,879.6c-0.3,1-0.4,2.9-0.4,5.9c0,2.7,0.2,4.6,0.5,5.6c0.3,1,0.9,1.5,1.8,1.5
		c0.8,0,1.4-0.5,1.7-1.4c0.3-0.9,0.5-2.6,0.5-5.1c0-3.2-0.1-5.3-0.4-6.4c-0.3-1.1-0.9-1.6-1.8-1.6
		C1175.3,878.2,1174.7,878.6,1174.4,879.6z"/>
	<rect id="XMLID_984_" x="1142.6" y="876.2" class="st0" width="3.7" height="7.2"/>
	<path id="XMLID_985_" class="st0" d="M1152.3,892.7c-0.7-1.4-1.1-4-1.1-7.7c0-3.3,0.4-5.6,1.1-7c0.5-0.9,1.1-1.5,2-1.8h-5.5v18.4
		h5.7C1153.5,894.3,1152.8,893.6,1152.3,892.7z"/>
	<path id="XMLID_986_" class="st0" d="M1140.1,894.6v-18.4h-5.8c1.2,0.1,2.2,0.5,2.8,1.2c0.7,0.8,1.1,2.1,1.1,3.8
		c0,2.5-0.7,4.1-2.2,4.8c-0.7,0.3-1.8,0.5-3.2,0.5v8.2H1140.1z"/>
	<path id="XMLID_987_" class="st0" d="M1135,883.7c0.4-0.4,0.6-1.2,0.6-2.3c0-1.1-0.2-1.9-0.6-2.4c-0.4-0.5-1-0.8-1.8-0.8h-0.3v6.1
		C1133.9,884.3,1134.6,884.1,1135,883.7z"/>
	<rect id="XMLID_988_" x="1142.6" y="885.5" class="st0" width="3.7" height="9.1"/>
	<path id="XMLID_989_" class="st0" d="M1191.5,892.9c-0.4,0.8-1,1.4-1.8,1.7h5.2v-18.4h-5.3c0.4,0.1,0.8,0.3,1.1,0.6
		c0.7,0.6,1.2,1.6,1.6,2.9l-2.3,1c-0.1-0.5-0.2-0.9-0.3-1.2c-0.1-0.3-0.3-0.6-0.4-0.8c-0.3-0.4-0.8-0.6-1.4-0.6
		c-0.8,0-1.4,0.5-1.7,1.5c-0.3,1.1-0.5,3-0.5,5.8c0,2.8,0.2,4.7,0.5,5.7c0.3,1,0.9,1.5,1.8,1.5c0.8,0,1.3-0.4,1.7-1.1
		c0.3-0.8,0.5-2,0.5-3.6v-0.5V887h-2.2v-2.1h4.5v0.7C1192.4,889.2,1192.1,891.7,1191.5,892.9z"/>
	<path id="XMLID_990_" class="st0" d="M1219.9,883.7c0.4-0.4,0.6-1.2,0.6-2.3c0-1.1-0.2-1.9-0.6-2.4c-0.4-0.5-1-0.8-1.8-0.8h-0.3
		v6.1C1218.8,884.3,1219.5,884.1,1219.9,883.7z"/>
	<rect id="XMLID_991_" x="1227.5" y="885.5" class="st0" width="3.7" height="9.1"/>
	<path id="XMLID_992_" class="st0" d="M1197.4,884.3c1,0,1.7-0.2,2.1-0.7s0.6-1.2,0.6-2.3c0-0.6,0-1.1-0.1-1.5
		c-0.1-0.4-0.2-0.7-0.4-1c-0.2-0.3-0.4-0.4-0.7-0.6s-0.6-0.2-1-0.2h-0.4V884.3z"/>
	<rect id="XMLID_993_" x="898.5" y="876.2" class="st0" width="231.8" height="18.4"/>
	<path id="XMLID_994_" class="st0" d="M1225,876.2h-5.8c1.2,0.1,2.2,0.5,2.8,1.2c0.7,0.8,1.1,2.1,1.1,3.8c0,2.5-0.7,4.1-2.2,4.8
		c-0.7,0.3-1.8,0.5-3.2,0.5v8.2h7.2V876.2z"/>
	<rect id="XMLID_995_" x="1233.7" y="876.2" class="st0" width="231.8" height="18.4"/>
	<rect id="XMLID_996_" x="1227.5" y="876.2" class="st0" width="3.7" height="7.2"/>
	<path id="XMLID_997_" class="st0" d="M1207.9,876.2h-9c1,0.1,1.8,0.4,2.4,0.9c0.8,0.8,1.3,2.1,1.3,3.9c0,1.3-0.2,2.4-0.7,3.2
		c-0.4,0.8-1.1,1.3-1.9,1.5l3.4,9h0.6L1207.9,876.2z"/>
	<polygon id="XMLID_998_" class="st0" points="1197.4,885.6 1197.4,894.6 1200.8,894.6 	"/>
	<polygon id="XMLID_999_" class="st0" points="1210.7,891.1 1207,891.1 1206.3,894.6 1211.3,894.6 	"/>
	<polygon id="XMLID_1000_" class="st0" points="1215.3,876.2 1209.9,876.2 1213.8,894.6 1215.3,894.6 	"/>
	<path id="XMLID_1001_" class="st0" d="M1207.8,886.7l-0.5,2.4h3l-0.6-3c-0.4-2-0.7-4.2-0.9-6.4c-0.1,1.1-0.3,2.2-0.4,3.4
		C1208.2,884.3,1208,885.5,1207.8,886.7z"/>
</g>
<g id="XMLID_50_">
	<polygon id="XMLID_51_" class="st0" points="269.5,88.7 265.8,88.7 265.1,92.2 270.2,92.2 	"/>
	<polygon id="XMLID_52_" class="st0" points="274.1,73.8 268.7,73.8 272.7,92.2 274.1,92.2 	"/>
	<path id="XMLID_68_" class="st0" d="M266.8,73.8h-9.1c2.4,0.2,3.6,1.8,3.6,4.9c0,1.3-0.2,2.2-0.5,2.8c-0.3,0.6-1,1.1-1.8,1.4
		c1,0.4,1.7,0.9,2.1,1.5c0.4,0.6,0.6,1.5,0.6,2.8c0,3.1-1.2,4.8-3.6,5h4.8L266.8,73.8z"/>
	<path id="XMLID_72_" class="st0" d="M256.7,75.8h-0.2h-0.1c-0.1,0-0.1,0-0.1,0v6.1c1,0,1.6-0.2,2-0.7c0.4-0.5,0.6-1.3,0.6-2.5
		C258.9,76.8,258.2,75.8,256.7,75.8z"/>
	<path id="XMLID_74_" class="st0" d="M266.6,84.4l-0.5,2.4h3l-0.6-2.9c-0.4-2-0.7-4.1-0.9-6.4c-0.1,1.1-0.3,2.2-0.4,3.4
		C267.1,81.9,266.9,83.1,266.6,84.4z"/>
	<path id="XMLID_75_" class="st0" d="M256.3,90.2c1,0,1.7-0.2,2.1-0.7c0.4-0.4,0.6-1.2,0.6-2.4c0-1.2-0.2-2-0.6-2.5
		c-0.4-0.5-1.1-0.7-2.1-0.7V90.2z"/>
	<path id="XMLID_76_" class="st0" d="M236.5,90.2c0.7,0,1.2-0.2,1.4-0.6c0.2-0.4,0.4-1.2,0.4-2.4V73.8h-3.6v13
		c0,1.3,0.1,2.2,0.4,2.7C235.3,90,235.8,90.2,236.5,90.2z"/>
	<path id="XMLID_77_" class="st0" d="M243.6,73.8h-2.9v13.4c0,2-0.3,3.4-0.9,4.1c-0.4,0.4-0.9,0.7-1.5,0.9h5.2V73.8z"/>
	<path id="XMLID_78_" class="st0" d="M254,73.8h-6.6c1.1,0.1,2,0.4,2.5,0.9c0.8,0.8,1.3,2.1,1.3,3.8c0,1.3-0.2,2.4-0.7,3.2
		c-0.4,0.8-1.1,1.3-1.9,1.5l3.4,8.9h2V73.8z"/>
	<path id="XMLID_79_" class="st0" d="M248.1,81.3c0.4-0.4,0.6-1.2,0.6-2.3c0-0.6,0-1.1-0.1-1.5c-0.1-0.4-0.2-0.7-0.4-1
		c-0.2-0.3-0.4-0.4-0.7-0.6c-0.3-0.1-0.6-0.2-1-0.2h-0.4V82C247.1,82,247.7,81.8,248.1,81.3z"/>
	<polygon id="XMLID_80_" class="st0" points="246.1,83.2 246.1,92.2 249.5,92.2 	"/>
	<polygon id="XMLID_81_" class="st0" points="328.1,92.2 328.1,73.8 322.4,73.8 322.4,90.2 326.5,90.2 326.5,92.2 	"/>
	<path id="XMLID_82_" class="st0" d="M312.4,84.4l-0.5,2.4h3l-0.6-2.9c-0.4-2-0.7-4.1-0.9-6.4c-0.1,1.1-0.3,2.2-0.4,3.4
		C312.9,81.9,312.7,83.1,312.4,84.4z"/>
	<polygon id="XMLID_83_" class="st0" points="319.9,73.8 314.5,73.8 318.5,92.2 319.9,92.2 	"/>
	<polygon id="XMLID_84_" class="st0" points="315.3,88.7 311.6,88.7 310.9,92.2 316,92.2 	"/>
	<polygon id="XMLID_85_" class="st0" points="334.7,73.8 334.7,75.9 330.6,75.9 330.6,81.8 334.2,81.8 334.2,83.9 330.6,83.9
		330.6,90.2 334.7,90.2 334.7,92.2 566.9,92.2 566.9,73.8 	"/>
	<path id="XMLID_86_" class="st0" d="M232.9,91c-0.5-0.7-0.7-2.1-0.7-4.1v-13H0v18.4h234.7C233.9,92,233.3,91.6,232.9,91z"/>
	<path id="XMLID_87_" class="st0" d="M276.5,73.8l2.5,7.4c0.7,2.1,1.4,4.3,1.9,6.7c-0.2-1.4-0.3-2.7-0.4-3.9
		c-0.1-1.2-0.1-2.3-0.1-3.3v-6.9H276.5z"/>
	<path id="XMLID_88_" class="st0" d="M290.7,91.6v-2.5c0.9,0.6,1.7,1,2.4,1c0.7,0,1.2-0.2,1.6-0.7c0.4-0.5,0.6-1.1,0.6-1.8
		c0-0.7-0.1-1.3-0.4-1.8c-0.2-0.3-0.4-0.5-0.6-0.9c-0.3-0.3-0.6-0.7-1-1.1c-0.6-0.6-1.2-1.2-1.6-1.7c-0.4-0.5-0.7-0.9-0.9-1.3
		c-0.4-0.7-0.6-1.6-0.6-2.7c0-1.4,0.4-2.6,1.1-3.4c0.4-0.5,0.9-0.8,1.5-1h-10v18.4h9.1C291.4,92.1,291.1,91.9,290.7,91.6z"/>
	<path id="XMLID_89_" class="st0" d="M277.6,84c-0.3-0.8-0.5-1.6-0.7-2.4c-0.2-0.8-0.4-1.7-0.6-2.6c0-0.1,0-0.2-0.1-0.4
		c0-0.2-0.1-0.3-0.1-0.6c0,0.2,0,0.4,0.1,0.5c0,0.1,0,0.3,0,0.4l0.1,1.9l0.1,2.3c0,0.1,0,0.3,0,0.5c0,0.2,0,0.4,0,0.6l0.1,8h3.8
		L277.6,84z"/>
	<path id="XMLID_90_" class="st0" d="M306.7,92.2h1.9l4-18.4h-6c0.2,0.1,0.4,0.2,0.6,0.3v2.2c-0.6-0.3-1.2-0.5-1.6-0.5
		c-0.6,0-1.1,0.1-1.5,0.4s-0.8,0.7-1,1.3c-0.3,0.6-0.5,1.4-0.6,2.3c-0.1,0.9-0.2,2-0.2,3.3c0,4.6,1.2,6.9,3.5,6.9
		c0.4,0,0.9-0.1,1.5-0.4V92C307,92.1,306.8,92.2,306.7,92.2z"/>
	<path id="XMLID_91_" class="st0" d="M299.5,83.3c0-3.3,0.5-5.8,1.4-7.4c0.6-1.1,1.4-1.8,2.5-2.1H296c0.3,0.1,0.6,0.2,0.8,0.4v2.4
		c-0.8-0.5-1.4-0.8-2.1-0.8c-0.7,0-1.2,0.2-1.6,0.7c-0.4,0.4-0.6,1-0.6,1.8c0,0.6,0.1,1.2,0.4,1.7c0.2,0.2,0.4,0.6,0.7,1
		c0.3,0.4,0.8,0.9,1.3,1.4c1,1,1.7,1.9,2.1,2.7c0.4,0.7,0.6,1.6,0.6,2.7c0,1.4-0.4,2.6-1.2,3.5c-0.4,0.5-1,0.8-1.6,1.1h8.3
		C300.8,91.4,299.5,88.4,299.5,83.3z"/>
</g>
</svg>
