<?xml version="1.0" encoding="utf-8"?>
<!-- Generator: Adobe Illustrator 19.0.0, SVG Export Plug-In . SVG Version: 6.00 Build 0)  -->
<svg version="1.1" id="Layer_1" xmlns="http://www.w3.org/2000/svg" xmlns:xlink="http://www.w3.org/1999/xlink" x="0px" y="0px"
	 viewBox="0 0 566.9 150.1" style="enable-background:new 0 0 566.9 170.1;" xml:space="preserve">
<style type="text/css">
	.st0{fill: rgb(230,210,210);}
</style>
<g id="XMLID_42_">
	<polygon id="XMLID_43_" class="st0" points="288.3,95.3 293.3,95.3 292.6,91.7 289,91.7 	"/>
	<path id="XMLID_396_" class="st0" d="M300,76.8h-29.9c0.5,0.1,0.9,0.4,1.2,0.6c0.7,0.6,1.2,1.6,1.6,2.9l-2.3,1
		c-0.1-0.5-0.2-0.9-0.3-1.2c-0.1-0.3-0.3-0.6-0.4-0.8c-0.3-0.4-0.8-0.6-1.4-0.6c-0.8,0-1.4,0.5-1.7,1.5c-0.3,1.1-0.5,3-0.5,5.7
		c0,2.8,0.2,4.7,0.5,5.7c0.3,1,0.9,1.5,1.8,1.5c0.8,0,1.3-0.4,1.7-1c0.3-0.7,0.5-1.9,0.5-3.6V88v-0.4h-2.2v-2.1h4.5v0.7
		c0,3.6-0.3,6-0.9,7.3c-0.4,0.8-1.1,1.4-1.9,1.7h5.3V76.8h2.3l2.5,7.3c0.7,2.1,1.3,4.3,1.9,6.6c-0.2-1.4-0.3-2.7-0.4-3.9
		c-0.1-1.2-0.1-2.2-0.1-3.3v-6.9h2.5v18.4h1.8l4-18.4h1.9l3.9,18.4h4.3c-1-0.3-1.7-0.9-2.2-1.9c-0.7-1.4-1.1-3.8-1.1-7.2
		c0-3.9,0.4-6.4,1.2-7.7C298.5,77.6,299.2,77.1,300,76.8z"/>
	<path id="XMLID_412_" class="st0" d="M290.8,80.4c-0.1,1.1-0.3,2.2-0.4,3.4c-0.2,1.1-0.4,2.3-0.6,3.6l-0.5,2.4h2.9l-0.5-2.9
		C291.3,84.8,291,82.7,290.8,80.4z"/>
	<path id="XMLID_413_" class="st0" d="M267,95.3c-1-0.3-1.7-0.9-2.2-1.9c-0.7-1.4-1.1-3.8-1.1-7.2c0-3.9,0.4-6.4,1.2-7.7
		c0.5-0.8,1.2-1.3,2-1.6h-12.2c0.3,0.1,0.7,0.2,1,0.4v2.4c-0.8-0.5-1.4-0.8-2-0.8c-0.7,0-1.2,0.2-1.6,0.7c-0.4,0.4-0.6,1-0.6,1.8
		c0,0.6,0.1,1.2,0.4,1.7c0.2,0.2,0.4,0.6,0.7,1c0.3,0.4,0.8,0.9,1.3,1.4c1,1,1.7,1.9,2.1,2.7c0.4,0.7,0.5,1.6,0.5,2.7
		c0,1.4-0.4,2.6-1.2,3.5c-0.5,0.5-1.1,0.9-1.7,1.1h5V76.8h2.5v18.4H267z"/>
	<path id="XMLID_414_" class="st0" d="M279,87c-0.3-0.8-0.5-1.6-0.7-2.4c-0.2-0.8-0.4-1.7-0.6-2.6c0-0.1,0-0.2-0.1-0.4
		c0-0.2-0.1-0.3-0.1-0.5c0,0.2,0,0.4,0.1,0.5c0,0.1,0,0.3,0,0.4l0.1,1.9l0.1,2.3c0,0.1,0,0.3,0,0.5c0,0.2,0,0.4,0,0.6l0.1,8h3.8
		L279,87z"/>
	<path id="XMLID_416_" class="st0" d="M303.1,76.8c0.5,0.1,0.9,0.4,1.2,0.6c0.7,0.6,1.2,1.6,1.6,2.9l-2.3,1
		c-0.1-0.5-0.2-0.9-0.3-1.2c-0.1-0.3-0.3-0.6-0.4-0.8c-0.3-0.4-0.8-0.6-1.4-0.6c-0.8,0-1.4,0.5-1.7,1.5c-0.3,1.1-0.5,3-0.5,5.7
		c0,2.8,0.2,4.7,0.5,5.7c0.3,1,0.9,1.5,1.8,1.5c0.8,0,1.3-0.4,1.7-1c0.3-0.7,0.5-1.9,0.5-3.6V88v-0.4h-2.2v-2.1h4.5v0.7
		c0,3.6-0.3,6-0.9,7.3c-0.4,0.8-1.1,1.4-1.9,1.7h5.3V76.8h6.6v2.1H311v5.8h3.6v2.1H311v6.3h4.1v2.1h252.3V76.8H303.1z"/>
	<path id="XMLID_417_" class="st0" d="M249.7,94.6v-2.5c0.9,0.6,1.7,1,2.4,1c0.7,0,1.2-0.2,1.6-0.7c0.4-0.4,0.6-1.1,0.6-1.8
		c0-0.7-0.1-1.3-0.4-1.8c-0.2-0.3-0.4-0.5-0.6-0.9c-0.3-0.3-0.6-0.7-1-1.1c-0.6-0.6-1.1-1.2-1.6-1.6c-0.4-0.5-0.7-0.9-0.9-1.3
		c-0.4-0.7-0.6-1.6-0.6-2.6c0-1.4,0.4-2.6,1.1-3.4c0.4-0.5,1-0.8,1.6-1H-0.5v18.4h251.4C250.4,95.1,250,94.9,249.7,94.6z"/>
</g>
</svg>
