<?xml version="1.0" encoding="utf-8"?>
<!-- Generator: Adobe Illustrator 19.0.0, SVG Export Plug-In . SVG Version: 6.00 Build 0)  -->
<svg version="1.1" id="Layer_1" xmlns="http://www.w3.org/2000/svg" xmlns:xlink="http://www.w3.org/1999/xlink" x="0px" y="0px"
	 viewBox="0 0 117.5 39.7" style="enable-background:new 0 0 117.5 39.7;" xml:space="preserve">
<style type="text/css">
	.st0{fill:#D9CCCC;}
</style>
<g id="XMLID_1_">
	<path id="XMLID_2_" class="st0" d="M96,0v31.4c0,1.4-0.2,2.6-0.7,3.8c-0.5,1.2-1.2,2.2-2.1,3.1c-0.6,0.6-1.2,1-1.9,1.5h14.3V4.6
		h-6.9V0H96z"/>
	<polygon id="XMLID_5_" class="st0" points="6.2,39.7 17.5,39.7 15.9,31.8 7.8,31.8 	"/>
	<path id="XMLID_11_" class="st0" d="M39.2,6c-0.8-0.9-2.1-1.4-4.1-1.4h-2.5v11.5h2.7c2,0,3.3-0.5,4-1.5c0.7-1,1-2.5,1-4.4
		C40.3,8.3,40,6.9,39.2,6z"/>
	<polygon id="XMLID_22_" class="st0" points="26.6,0 14.6,0 23.4,39.7 26.6,39.7 	"/>
	<path id="XMLID_23_" class="st0" d="M37.9,21.8c-0.7-0.3-1.5-0.4-2.6-0.4h-2.6v13.4h2.6c1.2,0,2.2-0.2,2.8-0.5
		c0.7-0.4,1.2-0.8,1.6-1.5c0.4-0.6,0.6-1.4,0.6-2.2c0.1-0.9,0.1-1.8,0.1-2.8c0-1.1-0.1-2-0.2-2.8c-0.1-0.8-0.4-1.4-0.7-2
		C39.1,22.4,38.5,22,37.9,21.8z"/>
	<polygon id="XMLID_24_" class="st0" points="14.8,26.1 11.9,11 11.7,11 8.8,26.1 	"/>
	<polygon id="XMLID_25_" class="st0" points="9.1,0 0,0 0,39.7 0.2,39.7 	"/>
	<rect id="XMLID_26_" x="111.6" y="4.6" class="st0" width="5.9" height="35.1"/>
	<path id="XMLID_27_" class="st0" d="M86.3,35.1c1.1,0,1.9-0.4,2.6-1.1c0.7-0.7,1.1-1.8,1.1-3.3V0h-7.4v30.8c0,1.5,0.4,2.6,1.1,3.3
		C84.4,34.8,85.3,35.1,86.3,35.1z"/>
	<path id="XMLID_28_" class="st0" d="M43.3,37.8c-0.7,0.8-1.6,1.4-2.7,1.9h15.4c-0.6-0.3-1.1-0.7-1.6-1.2c-1-0.8-1.8-1.9-2.3-3.1
		c-0.6-1.3-0.9-2.8-0.9-4.5V8.8c0-1.7,0.3-3.2,0.9-4.5C52.7,3,53.5,2,54.5,1.1C55,0.7,55.5,0.3,56,0H40.6c1.2,0.6,2.2,1.3,2.9,2.2
		c0.9,1,1.5,2.1,1.8,3.4c0.4,1.3,0.6,2.6,0.6,4V11c0,1.1-0.1,2.1-0.3,2.9c-0.2,0.8-0.4,1.5-0.8,2.1c-0.7,1.1-1.7,2-3.1,2.8
		c1.4,0.7,2.4,1.6,3.1,2.9c0.7,1.3,1,3.1,1,5.3v2.3C46,33,45.1,35.9,43.3,37.8z"/>
	<path id="XMLID_29_" class="st0" d="M58.5,5.6c-0.8,0.7-1.2,1.8-1.2,3.2v22.1c0,1.4,0.4,2.5,1.2,3.2c0.8,0.7,1.8,1,2.8,1
		c1.1,0,2-0.3,2.8-1c0.8-0.7,1.2-1.8,1.2-3.2V8.8c0-1.4-0.4-2.5-1.2-3.2c-0.8-0.7-1.8-1-2.8-1C60.2,4.6,59.3,4.9,58.5,5.6z"/>
	<path id="XMLID_30_" class="st0" d="M70.5,35.4c-0.6,1.3-1.4,2.3-2.3,3.1c-0.5,0.4-1,0.8-1.6,1.2h14.8c-0.7-0.4-1.3-0.9-1.9-1.5
		c-0.9-0.9-1.6-1.9-2.1-3.1c-0.5-1.2-0.8-2.4-0.8-3.8V0h-10c0.6,0.3,1.1,0.7,1.6,1.1C69.1,2,69.9,3,70.5,4.3
		c0.6,1.3,0.9,2.8,0.9,4.5v22.1C71.4,32.6,71.1,34.2,70.5,35.4z"/>
</g>
</svg>
