<?xml version="1.0" encoding="utf-8"?>
<!-- Generator: Adobe Illustrator 19.0.0, SVG Export Plug-In . SVG Version: 6.00 Build 0)  -->
<svg version="1.1" id="Layer_1" xmlns="http://www.w3.org/2000/svg" xmlns:xlink="http://www.w3.org/1999/xlink" x="0px" y="0px"
	 viewBox="-297.4 143.9 456 555" style="enable-background:new -297.4 143.9 456 555;" xml:space="preserve">
<style type="text/css">
	.st0{fill:#FEEBEB;}
	.st1{fill:none;stroke:#FEEBEB;stroke-miterlimit:10;}
</style>
<polygon id="XMLID_64_" class="st0" points="-66.4,438.7 -96.9,517.9 -35.9,517.9 "/>
<g id="XMLID_36_">
	<g id="XMLID_1_">
		<polygon id="XMLID_62_" class="st1" points="-133,256.9 -180.1,384.2 -86,384.2 		"/>
		<polygon id="XMLID_61_" class="st1" points="-82.5,394.6 -183.8,394.6 -228.8,517.9 -95.4,517.9 -66.4,438.7 		"/>
	</g>
	<g id="XMLID_3_">
		<polygon id="XMLID_39_" class="st1" points="0.5,256.9 -46.6,384.2 47.5,384.2 		"/>
		<polygon id="XMLID_38_" class="st1" points="51,394.6 -50.3,394.6 -66.4,438.7 -37.2,517.9 96.1,517.9 		"/>
	</g>
	<polygon id="XMLID_37_" class="st1" points="-95.4,517.9 -37.2,517.9 -66.4,438.7 	"/>
</g>
<g id="XMLID_2_">
	<polygon id="XMLID_103_" class="st0" points="-23.8,298.3 -88.2,353.5 -86.7,357.5 -26.5,306 	"/>
	<polygon id="XMLID_105_" class="st0" points="-15.6,276.5 -92.4,341.9 -90.9,345.8 -18.6,284.2 	"/>
	<polygon id="XMLID_106_" class="st0" points="-92.6,252.2 -117.4,273.5 -116.2,277.5 -86.7,252.2 	"/>
	<polygon id="XMLID_107_" class="st0" points="-31.7,320.1 -84,364.9 -82.5,368.9 -34.4,327.8 	"/>
	<polygon id="XMLID_110_" class="st0" points="-110.2,252.2 -121.6,262.1 -120.1,266.1 -104.3,252.2 	"/>
	<polygon id="XMLID_117_" class="st0" points="-57.7,252.2 -109.2,296.3 -107.7,300.3 -51.5,252.2 	"/>
	<polygon id="XMLID_118_" class="st0" points="-40.1,252.2 -105,307.7 -103.5,311.7 -34,252.2 	"/>
	<polygon id="XMLID_119_" class="st0" points="-75.1,252.2 -113.4,284.9 -112,288.9 -69.1,252.2 	"/>
	<polygon id="XMLID_120_" class="st0" points="-7.7,254.7 -96.6,330.5 -95.1,334.4 -10.4,262.1 	"/>
	<polygon id="XMLID_122_" class="st0" points="-22.6,252.2 -100.8,319.1 -99.3,323 -16.4,252.2 	"/>
	<polygon id="XMLID_126_" class="st0" points="-66.1,413.7 -63.9,407.5 -67.1,410.5 	"/>
	<polygon id="XMLID_127_" class="st0" points="-47.8,363.9 -75.6,387.7 -74.1,391.6 -50.5,371.6 	"/>
	<polygon id="XMLID_128_" class="st0" points="-55.7,385.7 -71.3,399.1 -69.9,403 -58.7,393.4 	"/>
	<polygon id="XMLID_129_" class="st0" points="-125.3,252.2 -124.3,254.7 -121.6,252.2 	"/>
	<polygon id="XMLID_130_" class="st0" points="-39.9,342.1 -79.8,376.3 -78.3,380.3 -42.6,349.5 	"/>
</g>
<g id="XMLID_530_">
	<path id="XMLID_531_" class="st0" d="M-236.3,596.2v-24.8c0-0.3,0.1-0.6,0.4-0.8c0.3-0.2,0.6-0.3,1-0.3h6.3c2.3,0,4.1,0.5,5.5,1.4
		c1.3,0.9,2,2.6,2,4.9c0,1.5-0.3,2.8-0.8,3.9c-0.5,1.1-1.3,1.8-2.3,2.2c1.3,0.5,2.2,1.2,2.8,2.2s1,2.3,1,4.1v0.7
		c0,2.7-0.7,4.6-2,5.8s-3.1,1.8-5.3,1.8h-7.2c-0.4,0-0.8-0.1-1-0.3C-236.2,596.8-236.3,596.5-236.3,596.2z M-233.2,581.4h4.6
		c1.5,0,2.6-0.3,3.4-1c0.7-0.7,1.1-1.8,1.1-3.3c0-2.6-1.5-3.9-4.5-3.9h-4.5L-233.2,581.4L-233.2,581.4z M-233.2,594.5h5
		c3.1,0,4.7-1.7,4.7-5v-0.6c0-1.7-0.4-2.9-1.2-3.7s-2-1.1-3.5-1.1h-5V594.5z"/>
	<path id="XMLID_535_" class="st0" d="M-208.9,596.2v-24.8c0-0.3,0.1-0.5,0.3-0.7s0.5-0.3,0.8-0.3h6.7c2.5,0,4.4,0.6,5.9,1.7
		c1.5,1.1,2.2,3,2.2,5.7c0,4.1-1.8,6.4-5.5,7.2l5.5,10.4c0.1,0.2,0.1,0.3,0.1,0.5c0,0.4-0.2,0.8-0.6,1.1c-0.4,0.3-0.8,0.5-1.3,0.5
		s-1-0.4-1.4-1.2l-5.6-10.8h-4.2v10.8c0,0.3-0.2,0.6-0.5,0.8s-0.7,0.3-1.1,0.3c-0.4,0-0.8-0.1-1.1-0.3
		C-208.7,596.8-208.9,596.5-208.9,596.2z M-205.8,582.8h4.8c3.4,0,5.1-1.6,5.1-4.8s-1.7-4.8-5.1-4.8h-4.8V582.8z"/>
	<path id="XMLID_538_" class="st0" d="M-183.5,596c0,0,0-0.1,0.1-0.3l7.5-24.5c0.2-0.7,0.8-1.1,1.9-1.1c1,0,1.7,0.4,1.9,1.1
		l7.6,24.6v0.1v0.1c0,0.3-0.2,0.6-0.6,0.9c-0.4,0.3-0.8,0.4-1.3,0.4c-0.6,0-1-0.2-1.1-0.7l-1.6-5.5h-9.8l-1.6,5.4
		c-0.1,0.5-0.5,0.7-1.1,0.7c-0.4,0-0.9-0.1-1.2-0.4C-183.3,596.7-183.5,596.4-183.5,596z M-178.1,588.5h8.2l-4.1-13.9L-178.1,588.5z
		"/>
	<path id="XMLID_541_" class="st0" d="M-153.9,596.2v-24.8c0-0.7,0.5-1.1,1.5-1.1c0.5,0,1,0.2,1.3,0.5c0.4,0.3,0.7,0.8,1.1,1.5
		l9.2,17.9v-18.8c0-0.3,0.2-0.6,0.5-0.8s0.7-0.3,1.1-0.3c0.4,0,0.8,0.1,1.1,0.3c0.3,0.2,0.5,0.4,0.5,0.8v24.8c0,0.3-0.2,0.6-0.5,0.8
		s-0.7,0.3-1.1,0.3c-0.8,0-1.4-0.5-2-1.4l-9.6-18.5v18.8c0,0.3-0.2,0.6-0.5,0.8s-0.7,0.3-1.1,0.3c-0.4,0-0.8-0.1-1.1-0.3
		C-153.7,596.8-153.9,596.5-153.9,596.2z"/>
	<path id="XMLID_543_" class="st0" d="M-125.1,596.2v-24.8c0-0.3,0.1-0.5,0.4-0.8c0.3-0.2,0.6-0.3,1-0.3h6.5c2.4,0,4.3,0.6,5.8,1.9
		c1.4,1.3,2.2,3.3,2.2,6.1v10.9c0,2.8-0.7,4.8-2.2,6.1c-1.4,1.3-3.4,1.9-5.8,1.9h-6.5c-0.4,0-0.8-0.1-1-0.3
		C-125,596.8-125.1,596.5-125.1,596.2z M-122,594.5h4.8c1.5,0,2.7-0.4,3.6-1.3c0.8-0.9,1.3-2.2,1.3-3.9v-10.9c0-1.7-0.4-3.1-1.3-3.9
		c-0.8-0.9-2-1.3-3.6-1.3h-4.8V594.5z"/>
	<path id="XMLID_546_" class="st0" d="M-82.1,596.2v-24.8c0-0.3,0.2-0.6,0.5-0.8c0.3-0.2,0.7-0.3,1.1-0.3s0.8,0.1,1.1,0.3
		s0.5,0.4,0.5,0.8v24.8c0,0.3-0.2,0.6-0.5,0.8c-0.3,0.2-0.7,0.3-1.1,0.3s-0.8-0.1-1.1-0.3C-82,596.8-82.1,596.5-82.1,596.2z"/>
	<path id="XMLID_548_" class="st0" d="M-66.4,596.2v-24.8c0-0.3,0.1-0.5,0.4-0.8c0.3-0.3,0.6-0.3,1-0.3h6.5c2.4,0,4.3,0.6,5.8,1.9
		s2.2,3.3,2.2,6.1v10.9c0,2.8-0.7,4.8-2.2,6.1s-3.4,1.9-5.8,1.9H-65c-0.4,0-0.8-0.1-1-0.3C-66.3,596.8-66.4,596.5-66.4,596.2z
		 M-63.3,594.5h4.8c1.5,0,2.7-0.4,3.6-1.3c0.9-0.9,1.3-2.2,1.3-3.9v-10.9c0-1.7-0.4-3.1-1.3-3.9c-0.8-0.9-2-1.3-3.6-1.3h-4.8V594.5z
		"/>
	<path id="XMLID_551_" class="st0" d="M-38.2,596.2v-24.7c0-0.3,0.1-0.6,0.4-0.8s0.6-0.3,1-0.3h13.1c0.3,0,0.6,0.1,0.8,0.4
		s0.3,0.6,0.3,1s-0.1,0.7-0.3,1s-0.5,0.4-0.8,0.4h-11.4v9.4h5.7c0.3,0,0.6,0.1,0.8,0.4c0.2,0.3,0.3,0.6,0.3,0.9s-0.1,0.6-0.3,0.9
		c-0.2,0.3-0.4,0.4-0.8,0.4h-5.7v9.4h11.4c0.3,0,0.6,0.1,0.8,0.4c0.2,0.3,0.3,0.6,0.3,1s-0.1,0.7-0.3,1s-0.4,0.4-0.8,0.4h-13.1
		c-0.4,0-0.7-0.1-1-0.3C-38,596.8-38.2,596.5-38.2,596.2z"/>
	<path id="XMLID_553_" class="st0" d="M-11.9,596.2v-24.8c0-0.7,0.5-1.1,1.5-1.1c0.5,0,1,0.2,1.3,0.5c0.4,0.3,0.7,0.8,1,1.5
		l9.2,17.9v-18.8c0-0.3,0.2-0.6,0.5-0.8s0.7-0.3,1.1-0.3s0.8,0.1,1.1,0.3s0.5,0.4,0.5,0.8v24.8c0,0.3-0.2,0.6-0.5,0.8
		s-0.7,0.3-1.1,0.3c-0.8,0-1.4-0.5-2-1.4l-9.6-18.5v18.8c0,0.3-0.2,0.6-0.5,0.8s-0.7,0.3-1.1,0.3s-0.8-0.1-1.1-0.3
		C-11.7,596.8-11.9,596.5-11.9,596.2z"/>
	<path id="XMLID_555_" class="st0" d="M14.8,571.7c0-0.4,0.1-0.7,0.3-1c0.2-0.3,0.5-0.4,0.8-0.4h15c0.3,0,0.6,0.1,0.8,0.4
		c0.2,0.3,0.3,0.6,0.3,1s-0.1,0.7-0.3,1c-0.2,0.3-0.5,0.4-0.8,0.4H25v23c0,0.3-0.2,0.6-0.5,0.8s-0.7,0.3-1.1,0.3s-0.8-0.1-1.1-0.3
		c-0.3-0.2-0.5-0.5-0.5-0.8v-23h-6c-0.3,0-0.6-0.1-0.8-0.4S14.8,572.1,14.8,571.7z"/>
	<path id="XMLID_557_" class="st0" d="M42.5,596.2v-24.8c0-0.3,0.2-0.6,0.5-0.8s0.7-0.3,1.1-0.3s0.8,0.1,1.1,0.3
		c0.3,0.2,0.5,0.4,0.5,0.8v24.8c0,0.3-0.2,0.6-0.5,0.8s-0.7,0.3-1.1,0.3s-0.8-0.1-1.1-0.3C42.6,596.8,42.5,596.5,42.5,596.2z"/>
	<path id="XMLID_559_" class="st0" d="M56,571.7c0-0.4,0.1-0.7,0.3-1c0.2-0.3,0.5-0.4,0.8-0.4h15c0.3,0,0.6,0.1,0.8,0.4
		c0.2,0.3,0.3,0.6,0.3,1s-0.1,0.7-0.3,1s-0.5,0.4-0.8,0.4h-5.9v23c0,0.3-0.2,0.6-0.5,0.8s-0.7,0.3-1.1,0.3s-0.8-0.1-1.1-0.3
		c-0.3-0.2-0.5-0.5-0.5-0.8v-23h-6c-0.3,0-0.6-0.1-0.8-0.4S56,572.1,56,571.7z"/>
	<path id="XMLID_561_" class="st0" d="M81.8,571.6c0-0.4,0.2-0.7,0.6-0.9c0.4-0.2,0.8-0.4,1.2-0.4s0.8,0.3,1.1,0.8l6.5,12.6
		l6.4-12.6c0.3-0.5,0.7-0.8,1.1-0.8s0.9,0.1,1.3,0.4c0.4,0.2,0.6,0.6,0.6,0.9c0,0.2,0,0.4-0.1,0.6l-7.6,14.2c0,0.1-0.1,0.2-0.1,0.4
		v9.3c0,0.3-0.2,0.6-0.5,0.8s-0.7,0.3-1.1,0.3s-0.8-0.1-1.1-0.3s-0.5-0.5-0.5-0.8v-9.3c0-0.1,0-0.2-0.1-0.4l-7.6-14.2
		C81.8,572,81.8,571.8,81.8,571.6z"/>
</g>
</svg>
