<?xml version="1.0" encoding="UTF-8" standalone="no"?><!DOCTYPE svg PUBLIC "-//W3C//DTD SVG 1.1//EN" "http://www.w3.org/Graphics/SVG/1.1/DTD/svg11.dtd"><svg width="100%" height="100%" viewBox="0 0 284 284" version="1.1" xmlns="http://www.w3.org/2000/svg" xmlns:xlink="http://www.w3.org/1999/xlink" xml:space="preserve" xmlns:serif="http://www.serif.com/" style="fill-rule:evenodd;clip-rule:evenodd;stroke-linejoin:round;stroke-miterlimit:1.41421;"><path d="M283.4,0l0.2,283.2l-283.6,0.2l0,-283.4l283.4,0Zm-208.899,253.718l0,-158.024l-37.997,0l0,158.024l37.997,0Zm176.62,0l0,-98.765c0,-8.121 -1.113,-16.022 -3.339,-23.703c-2.226,-7.682 -5.732,-14.486 -10.518,-20.412c-4.785,-5.926 -10.907,-10.7 -18.364,-14.321c-7.457,-3.621 -16.416,-5.432 -26.878,-5.432c-12.021,0 -21.947,3.246 -31.472,8.043c-12.307,6.198 -18.947,14.525 -18.947,14.525l0,-17.959l-38.064,0l0,158.024l40.068,0l0,-86.913c0,-5.267 0.779,-10.48 2.337,-15.638c1.558,-5.158 3.84,-9.712 6.845,-13.662c3.005,-3.951 6.845,-7.188 11.519,-9.712c4.675,-2.524 10.24,-3.786 16.695,-3.786c6.455,0 11.631,1.317 15.526,3.95c3.896,2.634 6.956,5.981 9.182,10.041c2.226,4.061 3.673,8.615 4.341,13.663c0.668,5.048 1.002,9.877 1.002,14.486l0,87.571l40.067,0Zm-220,-201.707c0,-6.365 2.269,-11.907 6.808,-16.626c4.538,-4.718 10.291,-7.078 17.257,-7.078c6.966,0 12.824,2.25 17.573,6.749c4.75,4.499 7.125,10.151 7.125,16.955c0,6.804 -2.375,12.455 -7.125,16.954c-4.749,4.5 -10.607,6.749 -17.573,6.749c-6.966,0 -12.719,-2.359 -17.257,-7.078c-4.539,-4.719 -6.808,-10.26 -6.808,-16.625Z" style="fill:#ff9696;"/></svg>