<svg viewBox="0 0 284 284" xmlns="http://www.w3.org/2000/svg" fill-rule="evenodd" clip-rule="evenodd" stroke-linejoin="round" stroke-miterlimit="1.414"><path d="M283.4 0l.2 283.2-283.6.2V0h283.4zM74.501 253.718V95.694H36.504v158.024h37.997zm176.62 0v-98.765c0-8.121-1.113-16.022-3.339-23.703-2.226-7.682-5.732-14.486-10.518-20.412-4.785-5.926-10.907-10.7-18.364-14.321-7.457-3.621-16.416-5.432-26.878-5.432-12.021 0-21.947 3.246-31.472 8.043-12.307 6.198-18.947 14.525-18.947 14.525V95.694h-38.064v158.024h40.068v-86.913c0-5.267.779-10.48 2.337-15.638 1.558-5.158 3.84-9.712 6.845-13.662 3.005-3.951 6.845-7.188 11.519-9.712 4.675-2.524 10.24-3.786 16.695-3.786s11.631 1.317 15.526 3.95c3.896 2.634 6.956 5.981 9.182 10.041 2.226 4.061 3.673 8.615 4.341 13.663.668 5.048 1.002 9.877 1.002 14.486v87.571h40.067zm-220-201.707c0-6.365 2.269-11.907 6.808-16.626 4.538-4.718 10.291-7.078 17.257-7.078 6.966 0 12.824 2.25 17.573 6.749 4.75 4.499 7.125 10.151 7.125 16.955 0 6.804-2.375 12.455-7.125 16.954-4.749 4.5-10.607 6.749-17.573 6.749-6.966 0-12.719-2.359-17.257-7.078-4.539-4.719-6.808-10.26-6.808-16.625z" fill="#ff9696"/></svg>