<svg id="Layer_1" xmlns="http://www.w3.org/2000/svg" viewBox="-436.8 352 141.7 141.7">
  <style>
    .st0{fill:#ff9696}
  </style>
  <g id="XMLID_144_">
    <circle id="XMLID_23_" class="st0" cx="-366" cy="423.5" r="15.4"/>
    <path class="st0" d="M-334.7 423.5c0 17.2-14 31.2-31.2 31.2s-31.2-14-31.2-31.2c0-1.8.2-3.6.5-5.3h-40.2v75.5h141.7v-75.5h-40.1c.3 1.7.5 3.5.5 5.3zM-436.8 352v49.3h48.9c5.6-5.5 13.4-9 21.9-9s16.3 3.4 21.9 9h49V352h-141.7zm115.3 34.3c-5.4 0-9.7-4.3-9.7-9.7 0-5.4 4.3-9.7 9.7-9.7 5.4 0 9.7 4.3 9.7 9.7 0 5.4-4.4 9.7-9.7 9.7z"/>
  </g>
</svg>
