<?xml version="1.0" encoding="utf-8"?>
<!-- Generator: Adobe Illustrator 19.0.0, SVG Export Plug-In . SVG Version: 6.00 Build 0)  -->
<svg version="1.1" id="Layer_1" xmlns="http://www.w3.org/2000/svg" xmlns:xlink="http://www.w3.org/1999/xlink" x="0px" y="0px"
	 viewBox="0 0 140.5 117.6" style="enable-background:new 0 0 140.5 117.6;" xml:space="preserve">
<style type="text/css">
	.st0{fill:rgba(255,130,120,0.4);}
	.st1{fill:none;stroke:rgba(255,255,255,1);stroke-miterlimit:10;}
	.st2{fill:rgba(255,130,120,0.4);}
</style>
<polygon id="XMLID_64_" class="st0" points="71.3,81 59,113 83.6,113 71.3,81 "/>
<g id="XMLID_36_">
	<polygon id="XMLID_62_" class="st1" points="44.4,7.6 25.4,59.4 63.4,59.4 	"/>
	<polygon id="XMLID_61_" class="st1" points="64.8,63.2 23.9,63.2 5.7,113 59.6,113 71.3,81 	"/>
	<polygon id="XMLID_39_" class="st1" points="98.3,7.6 79.3,59.4 117.3,59.4 	"/>
	<polygon id="XMLID_38_" class="st1" points="118.7,63.2 77.8,63.2 71.3,81 83.1,113 136.9,113 	"/>
	<polygon id="XMLID_37_" class="st1" points="59.6,113 83.1,113 71.3,81 	"/>
</g>
<g id="XMLID_2_">
	<polygon id="XMLID_102_" class="st2" points="90.1,19.9 61.6,44.3 62.2,45.9 89,23 	"/>
	<polygon id="XMLID_103_" class="st2" points="88.5,24.3 62.5,46.6 63.1,48.2 87.4,27.4 	"/>
	<polygon id="XMLID_104_" class="st2" points="57.1,5.7 49.8,12 50.4,13.6 59.6,5.7 	"/>
	<polygon id="XMLID_105_" class="st2" points="91.8,15.5 60.8,41.9 61.4,43.5 90.6,18.6 	"/>
	<polygon id="XMLID_106_" class="st2" points="60.7,5.7 50.7,14.3 51.2,15.9 63.1,5.7 	"/>
	<polygon id="XMLID_107_" class="st2" points="85.3,33.1 64.2,51.2 64.8,52.8 84.2,36.2 	"/>
	<polygon id="XMLID_108_" class="st2" points="50,5.7 48.1,7.4 48.7,9 52.5,5.7 	"/>
	<polygon id="XMLID_109_" class="st2" points="93.4,11.1 60,39.6 60.5,41.2 92.2,14.2 	"/>
	<polygon id="XMLID_110_" class="st2" points="53.6,5.7 49,9.7 49.6,11.3 56,5.7 	"/>
	<polygon id="XMLID_111_" class="st2" points="86.9,28.7 63.3,48.9 63.9,50.5 85.8,31.8 	"/>
	<polygon id="XMLID_112_" class="st2" points="78.4,5.7 54.9,25.8 55.5,27.4 80.9,5.7 	"/>
	<polygon id="XMLID_113_" class="st2" points="85.5,5.7 56.6,30.4 57.2,32 87.9,5.7 	"/>
	<polygon id="XMLID_114_" class="st2" points="71.3,5.7 53.2,21.2 53.8,22.8 73.8,5.7 	"/>
	<polygon id="XMLID_115_" class="st2" points="64.2,5.7 51.5,16.6 52.1,18.2 66.7,5.7 	"/>
	<polygon id="XMLID_116_" class="st2" points="83.7,37.6 65,53.5 65.6,55.1 82.5,40.6 	"/>
	<polygon id="XMLID_117_" class="st2" points="74.8,5.7 54,23.5 54.6,25.1 77.3,5.7 	"/>
	<polygon id="XMLID_118_" class="st2" points="81.9,5.7 55.7,28.1 56.3,29.7 84.4,5.7 	"/>
	<polygon id="XMLID_119_" class="st2" points="67.8,5.7 52.3,18.9 52.9,20.5 70.2,5.7 	"/>
	<polygon id="XMLID_120_" class="st2" points="95,6.7 59.1,37.3 59.7,38.9 93.9,9.7 	"/>
	<polygon id="XMLID_121_" class="st2" points="92.6,5.7 58.3,35 58.9,36.6 95,5.7 	"/>
	<polygon id="XMLID_122_" class="st2" points="89,5.7 57.4,32.7 58,34.3 91.5,5.7 	"/>
	<polygon id="XMLID_123_" class="st2" points="73.9,64 70.1,67.3 70.7,68.9 72.8,67.1 	"/>
	<polygon id="XMLID_124_" class="st2" points="77.2,55.2 68.4,62.7 69,64.3 76.1,58.3 	"/>
	<polygon id="XMLID_125_" class="st2" points="80.4,46.4 66.7,58.1 67.3,59.7 79.3,49.4 	"/>
	<polygon id="XMLID_126_" class="st2" points="71.4,70.9 72.3,68.4 71,69.6 	"/>
	<polygon id="XMLID_127_" class="st2" points="78.8,50.8 67.6,60.4 68.2,62 77.7,53.9 	"/>
	<polygon id="XMLID_128_" class="st2" points="75.6,59.6 69.3,65 69.9,66.6 74.4,62.7 	"/>
	<polygon id="XMLID_129_" class="st2" points="47.5,5.7 47.9,6.7 49,5.7 	"/>
	<polygon id="XMLID_130_" class="st2" points="82,42 65.9,55.8 66.5,57.4 80.9,45 	"/>
</g>
</svg>
