<svg id="Layer_1" xmlns="http://www.w3.org/2000/svg" viewBox="0 0 140.5 117.6"><style>.st1{fill:none;stroke:#fff;stroke-miterlimit:10}.st2{fill:rgba(255,130,120,.4)}</style><path id="XMLID_64_" fill="rgba(255,130,120,.4)" d="M71.3 81L59 113h24.6L71.3 81z"/><g id="XMLID_36_"><path id="XMLID_62_" class="st1" d="M44.4 7.6l-19 51.8h38z"/><path id="XMLID_61_" class="st1" d="M64.8 63.2H23.9L5.7 113h53.9l11.7-32z"/><path id="XMLID_39_" class="st1" d="M98.3 7.6l-19 51.8h38z"/><path id="XMLID_38_" class="st1" d="M118.7 63.2H77.8L71.3 81l11.8 32h53.8z"/><path id="XMLID_37_" class="st1" d="M59.6 113h23.5L71.3 81z"/></g><g id="XMLID_2_"><path id="XMLID_102_" class="st2" d="M90.1 19.9L61.6 44.3l.6 1.6L89 23z"/><path id="XMLID_103_" class="st2" d="M88.5 24.3l-26 22.3.6 1.6 24.3-20.8z"/><path id="XMLID_104_" class="st2" d="M57.1 5.7L49.8 12l.6 1.6 9.2-7.9z"/><path id="XMLID_105_" class="st2" d="M91.8 15.5l-31 26.4.6 1.6 29.2-24.9z"/><path id="XMLID_106_" class="st2" d="M60.7 5.7l-10 8.6.5 1.6L63.1 5.7z"/><path id="XMLID_107_" class="st2" d="M85.3 33.1L64.2 51.2l.6 1.6 19.4-16.6z"/><path id="XMLID_108_" class="st2" d="M50 5.7l-1.9 1.7.6 1.6 3.8-3.3z"/><path id="XMLID_109_" class="st2" d="M93.4 11.1L60 39.6l.5 1.6 31.7-27z"/><path id="XMLID_110_" class="st2" d="M53.6 5.7l-4.6 4 .6 1.6L56 5.7z"/><path id="XMLID_111_" class="st2" d="M86.9 28.7L63.3 48.9l.6 1.6 21.9-18.7z"/><path id="XMLID_112_" class="st2" d="M78.4 5.7L54.9 25.8l.6 1.6L80.9 5.7z"/><path id="XMLID_113_" class="st2" d="M85.5 5.7L56.6 30.4l.6 1.6L87.9 5.7z"/><path id="XMLID_114_" class="st2" d="M71.3 5.7L53.2 21.2l.6 1.6 20-17.1z"/><path id="XMLID_115_" class="st2" d="M64.2 5.7L51.5 16.6l.6 1.6L66.7 5.7z"/><path id="XMLID_116_" class="st2" d="M83.7 37.6L65 53.5l.6 1.6 16.9-14.5z"/><path id="XMLID_117_" class="st2" d="M74.8 5.7L54 23.5l.6 1.6L77.3 5.7z"/><path id="XMLID_118_" class="st2" d="M81.9 5.7L55.7 28.1l.6 1.6 28.1-24z"/><path id="XMLID_119_" class="st2" d="M67.8 5.7L52.3 18.9l.6 1.6L70.2 5.7z"/><path id="XMLID_120_" class="st2" d="M95 6.7L59.1 37.3l.6 1.6L93.9 9.7z"/><path id="XMLID_121_" class="st2" d="M92.6 5.7L58.3 35l.6 1.6L95 5.7z"/><path id="XMLID_122_" class="st2" d="M89 5.7l-31.6 27 .6 1.6L91.5 5.7z"/><path id="XMLID_123_" class="st2" d="M73.9 64l-3.8 3.3.6 1.6 2.1-1.8z"/><path id="XMLID_124_" class="st2" d="M77.2 55.2l-8.8 7.5.6 1.6 7.1-6z"/><path id="XMLID_125_" class="st2" d="M80.4 46.4L66.7 58.1l.6 1.6 12-10.3z"/><path id="XMLID_126_" class="st2" d="M71.4 70.9l.9-2.5-1.3 1.2z"/><path id="XMLID_127_" class="st2" d="M78.8 50.8l-11.2 9.6.6 1.6 9.5-8.1z"/><path id="XMLID_128_" class="st2" d="M75.6 59.6L69.3 65l.6 1.6 4.5-3.9z"/><path id="XMLID_129_" class="st2" d="M47.5 5.7l.4 1 1.1-1z"/><path id="XMLID_130_" class="st2" d="M82 42L65.9 55.8l.6 1.6L80.9 45z"/></g></svg>