<?xml version="1.0" encoding="utf-8"?>
<!-- Generator: Adobe Illustrator 19.0.0, SVG Export Plug-In . SVG Version: 6.00 Build 0)  -->
<svg version="1.1" id="Layer_1" xmlns="http://www.w3.org/2000/svg" xmlns:xlink="http://www.w3.org/1999/xlink" x="0px" y="0px"
	 viewBox="-283 399.3 566.9 42.5" style="enable-background:new -283 399.3 566.9 42.5;" xml:space="preserve">
<style type="text/css">
	.st0{fill:#F5EBE6;}
</style>
<g>
	<path class="st0" d="M-14.5,429.7c-0.5-0.2-1-0.5-1.4-0.9s-0.8-0.8-1-1.4c-0.3-0.6-0.4-1.2-0.4-2v-9.9c0-0.8,0.1-1.4,0.4-2
		s0.6-1.1,1-1.4c0.4-0.4,0.9-0.6,1.4-0.8l0,0h-8l0,0c0.5,0.2,1,0.5,1.5,0.8c0.4,0.4,0.8,0.9,1,1.4c0.3,0.6,0.4,1.2,0.4,2v9.9
		c0,0.8-0.1,1.5-0.4,2c-0.3,0.6-0.6,1-1,1.4s-0.9,0.7-1.5,0.9l0,0H-14.5C-14.4,429.8-14.5,429.7-14.5,429.7z"/>
	<path class="st0" d="M-14.7,415.6v9.9c0,0.6,0.2,1.1,0.5,1.4c0.4,0.3,0.8,0.5,1.3,0.5s0.9-0.2,1.3-0.5c0.4-0.3,0.5-0.8,0.5-1.4
		v-9.9c0-0.6-0.2-1.1-0.5-1.4c-0.4-0.3-0.8-0.5-1.3-0.5s-0.9,0.2-1.3,0.5C-14.5,414.5-14.7,415-14.7,415.6z"/>
	<path class="st0" d="M-25.6,429.7c-0.5-0.2-1-0.5-1.4-0.9s-0.8-0.8-1-1.4c-0.3-0.6-0.4-1.2-0.4-2v-9.9c0-0.8,0.1-1.4,0.4-2
		s0.6-1.1,1-1.4c0.4-0.4,0.9-0.6,1.4-0.8l0,0h-8.7c0.3,0.1,0.6,0.1,0.9,0.3c0.6,0.3,1.1,0.6,1.5,1s0.7,0.9,0.8,1.5
		c0.2,0.6,0.2,1.2,0.2,1.8v0.7c0,0.5,0,0.9-0.1,1.3c-0.1,0.3-0.2,0.7-0.4,0.9c-0.3,0.5-0.8,0.9-1.4,1.3c0.6,0.3,1.1,0.7,1.4,1.3
		c0.3,0.6,0.4,1.4,0.4,2.4v1c0,1.6-0.4,2.9-1.2,3.8c-0.6,0.6-1.4,1-2.4,1.2L-25.6,429.7C-25.6,429.8-25.6,429.7-25.6,429.7z"/>
	<path class="st0" d="M-25.8,415.6v9.9c0,0.6,0.2,1.1,0.5,1.4c0.4,0.3,0.8,0.5,1.3,0.5s0.9-0.2,1.3-0.5s0.5-0.8,0.5-1.4v-9.9
		c0-0.6-0.2-1.1-0.5-1.4c-0.4-0.3-0.8-0.5-1.3-0.5s-0.9,0.2-1.3,0.5S-25.8,415-25.8,415.6z"/>
	<path class="st0" d="M34.1,412.5c0.4-0.5,0.8-0.8,1.4-1.1c0.1-0.1,0.3-0.1,0.4-0.1h-3.7v2.4h-3.1v16h6.7c-0.1,0-0.1,0-0.2-0.1
		c-0.6-0.2-1-0.5-1.4-0.9s-0.7-0.9-1-1.4c-0.2-0.5-0.4-1.1-0.4-1.7v-1h2.6v0.8c0,0.5,0.1,0.9,0.4,1.3c0.3,0.4,0.8,0.6,1.5,0.6
		c0.5,0,0.8-0.1,1.1-0.2s0.5-0.3,0.6-0.6c0.1-0.2,0.2-0.5,0.2-0.9c0-0.3,0-0.7,0-1.1c0-0.5,0-0.9-0.1-1.2c0-0.3-0.1-0.6-0.2-0.8
		c-0.1-0.2-0.3-0.3-0.5-0.5c-0.2-0.1-0.5-0.3-0.8-0.4l-1.9-0.8c-1.2-0.5-1.9-1.1-2.3-1.9c-0.4-0.8-0.6-1.8-0.6-2.9
		c0-0.7,0.1-1.4,0.3-2C33.4,413.5,33.7,413,34.1,412.5z"/>
	<path class="st0" d="M-34.4,427c0.3-0.2,0.5-0.4,0.7-0.7c0.2-0.3,0.3-0.6,0.3-1s0.1-0.8,0.1-1.3s0-0.9-0.1-1.2
		c-0.1-0.3-0.2-0.6-0.3-0.9c-0.2-0.2-0.4-0.4-0.7-0.5s-0.7-0.2-1.2-0.2h-1.2v6h1.2C-35.2,427.2-34.7,427.1-34.4,427z"/>
	<path class="st0" d="M-35.6,418.9c0.9,0,1.5-0.2,1.8-0.7c0.3-0.4,0.5-1.1,0.5-2c0-0.8-0.2-1.5-0.5-1.9s-1-0.6-1.8-0.6h-1.1v5.1h1.1
		V418.9z"/>
	<path class="st0" d="M-6,411.3h-5.3l0,0c0.5,0.2,1,0.5,1.5,0.8c0.4,0.4,0.8,0.9,1,1.4c0.3,0.6,0.4,1.2,0.4,2v9.9
		c0,0.8-0.1,1.5-0.4,2c-0.3,0.6-0.6,1-1,1.4s-0.9,0.7-1.5,0.9l0,0H-6C-6,429.7-6,411.3-6,411.3z"/>
	<rect x="-284.2" y="411.3" class="st0" width="244.7" height="18.4"/>
	<polygon class="st0" points="26.3,429.8 26.3,413.7 23.2,413.7 23.2,411.3 22.9,411.3 22.9,413.7 17.6,413.7 17.6,419.2 
		22.2,419.2 22.2,421.7 17.6,421.7 17.6,427.2 22.9,427.2 22.9,429.8 	"/>
	<path class="st0" d="M39.1,411.3c0.1,0,0.2,0,0.3,0.1c0.6,0.2,1,0.6,1.4,1c0.8,0.8,1.2,1.8,1.2,2.9v1.3h-2.7V416
		c0-0.6-0.1-1.1-0.4-1.6c-0.3-0.4-0.8-0.7-1.5-0.7c-0.4,0-0.7,0.1-0.9,0.2s-0.4,0.3-0.6,0.5c-0.1,0.2-0.2,0.5-0.3,0.8
		s-0.1,0.6-0.1,0.9c0,0.4,0,0.7,0,0.9c0,0.2,0.1,0.5,0.2,0.7c0.1,0.2,0.3,0.4,0.5,0.5s0.5,0.3,0.8,0.4l2,0.8
		c0.6,0.2,1.1,0.5,1.4,0.8c0.4,0.3,0.7,0.7,0.9,1.1s0.3,0.9,0.4,1.4c0.1,0.5,0.1,1.1,0.1,1.8c0,0.8-0.1,1.5-0.2,2.2
		c-0.2,0.7-0.4,1.2-0.8,1.7c-0.4,0.5-0.8,0.9-1.4,1.2c-0.1,0.1-0.3,0.1-0.4,0.1h245.6v-18.4H39.1z"/>
	<polygon class="st0" points="0.6,411.3 -3.3,411.3 -3.3,419.7 -3.3,419.7 	"/>
	<polygon class="st0" points="-1.9,421.6 -3.3,424.3 -3.3,429.8 1.1,429.8 	"/>
	<polygon class="st0" points="5.2,411.3 3.3,411.3 -0.3,418.7 3.9,429.8 5.2,429.8 	"/>
	<polygon class="st0" points="14.9,429.8 14.9,411.3 7.9,411.3 7.9,427.2 13.2,427.2 13.2,429.8 	"/>
</g>
</svg>
