<svg id="Layer_1" xmlns="http://www.w3.org/2000/svg" viewBox="-283 399.3 566.9 42.5">
  <style>
    .st0{fill:#f5ebe6}
  </style>
  <path class="st0" d="M-9.1 412.2h-5.4l4.1 18.4h1.3zM-20.9 430.6l4.1-18.4h-10v15.9h5.3v2.5zM-14.3 424.2l-1.3-6.7h-.1l-1.3 6.7zM-13.8 426.7h-3.7l-.7 3.9h5.1zM-29.4 412.2H-36v2.4h-5.3v5.7h4.6v2.5h-4.6v7.8h11.9zM-49.5 430.6V428h-5.3v-2.5l3.8-13.3h-12.3c.1.1.3.1.4.1.5.3.8.6 1.1.9.2.2.3.4.5.6.1.2.2.5.3.8.2.6.2 1.4.2 2.6v1.6c0 .4-.1.7-.2 1-.1.3-.3.5-.5.7s-.5.4-.9.6c.4.3.7.5 1 .7.2.2.4.5.5.8.1.3.2.7.2 1.1v3.1c0 .4-.1.7-.1 1-.1.3-.1.5-.2.7l-.3.6c-.3.5-.8.9-1.3 1.2-.1.1-.3.1-.4.2h4.4V428h2.7v2.5h6.4zM6.7 419.6c.2-.2.4-.4.5-.7.2-.2.3-.5.4-.8.1-.3.2-.6.2-.9 0-.3-.1-.6-.3-.9-.2-.3-.5-.4-.9-.4s-.7.2-1 .5c-.2.3-.4.7-.4 1.1 0 .4.1.8.3 1.3.2.5.4.9.7 1.4.1-.2.3-.4.5-.6zM4.2 426.4c0 .6.2 1.2.6 1.7s.9.7 1.4.7c.4 0 .8-.1 1.2-.4.4-.3.6-.5.8-.7l-2.6-4.1c-.4.4-.7.8-1 1.3-.3.5-.4 1-.4 1.5z"/>
  <path class="st0" d="M17.5 430.6c-.5-.2-1-.5-1.4-.9-.4-.4-.8-.8-1.1-1.4-.3-.6-.4-1.2-.4-2v-9.9c0-.8.1-1.4.4-2 .3-.6.6-1.1 1.1-1.4.4-.4.9-.6 1.4-.8H-3.9c.3.1.6.1.9.3.6.3 1.1.6 1.5 1 .4.4.7.9.8 1.5.2.6.2 1.2.2 1.8v.7c0 .5 0 .9-.1 1.3-.1.3-.2.7-.4.9-.3.5-.8.9-1.4 1.3.6.3 1.1.7 1.4 1.3.3.6.4 1.4.4 2.4v1c0 1.6-.4 2.9-1.2 3.8-.6.6-1.4 1-2.4 1.2H4c-.5-.2-.9-.5-1.2-.9-.4-.4-.6-.8-.8-1.4-.2-.5-.3-1.1-.3-1.8 0-1 .2-1.9.7-2.7.5-.8 1.1-1.5 1.8-2.2-.5-.7-.9-1.4-1.2-2.1-.3-.7-.5-1.5-.5-2.2 0-.5.1-1 .2-1.4.2-.4.4-.8.7-1.2.3-.3.7-.6 1.1-.8.5-.2 1-.3 1.6-.3.6 0 1.1.1 1.5.3.4.2.8.4 1.1.7.6.6.9 1.4.9 2.4 0 .9-.3 1.7-.8 2.5s-1.2 1.5-1.9 2.2c.2.2.4.5.5.8.2.3.4.6.6 1 .4.8.9 1.4 1.3 2.1l1.4-2 1.7 1.2-2 2.6 1.9 3.1h5.2z"/>
  <path class="st0" d="M9.2 429.3c-.5.5-1.1.9-1.6 1.2-.1 0-.2.1-.3.1H10l-.8-1.3zM-46.8 428v2.6h2.8v-18.4h-4.2l-3.9 13.3h2.6v-5.4h2.7v5.4h1.3v2.5zM-3.4 415.2c-.3-.4-1-.6-1.8-.6h-1.1v5.1h1.2c.9 0 1.5-.2 1.8-.7.3-.4.5-1.1.5-2-.1-.7-.3-1.4-.6-1.8zM58.8 428.2c-.2.5-.5 1-.9 1.4-.4.4-.8.7-1.4 1-.1 0-.1 0-.2.1h5v-18.4h-4.9c.5.2 1 .5 1.4.9.4.4.7.9.9 1.4.2.6.3 1.2.3 1.8v1h-2.7v-.9c0-.5-.2-1-.4-1.4-.3-.4-.7-.6-1.2-.6-.7 0-1.1.2-1.3.6-.2.4-.3.9-.3 1.6v9.5c0 .5.1 1 .4 1.4.2.4.7.6 1.3.6.2 0 .4 0 .6-.1l.6-.3c.2-.1.3-.3.4-.6.1-.2.2-.6.2-.9v-.9h2.7v1.2c-.1.6-.2 1.1-.5 1.6zM45.4 412.2h-1.8v2.4h-5.3v5.7h4.6v2.5h-4.6v7.8h7.1zM-67.4 430c-.4-.3-.7-.7-1-1.2-.3-.5-.4-1.1-.4-1.9v-1.5h2.7v1.4c0 .4.1.8.4 1 .2.3.6.4 1 .4s.7-.1 1-.4c.2-.3.4-.6.4-1.1V424c0-.7-.1-1.2-.4-1.4l-.6-.3c-.3 0-.6-.1-1.1-.1v-2.4c.8 0 1.4-.1 1.7-.3.3-.2.5-.6.5-1.3v-2.4c0-.4-.1-.7-.4-.9-.2-.2-.6-.4-1-.4-.5 0-.8.1-1 .4-.2.3-.3.6-.3.9v1.5h-2.7v-1.5c0-.5.1-1.1.3-1.5.2-.5.5-.9.9-1.3.4-.3.8-.6 1.3-.8h.1-218v18.4h217.9c-.6-.1-1-.3-1.3-.6zM69.3 412.2v2.4H64v5.5h4.6v2.5H64v5.5h5.3v2.5h215.4v-18.4z"/>
  <path class="st0" d="M52 430c-.4-.3-.8-.8-1-1.4-.3-.6-.4-1.3-.4-2.1v-10.3c0-.6.1-1.2.3-1.7.2-.5.5-1 .9-1.4.4-.4.8-.7 1.4-.9h.2-5.2v18.4h5.1c-.6-.1-1-.3-1.3-.6zM17.3 416.5v9.9c0 .6.2 1.1.5 1.4.4.3.8.5 1.3.5s.9-.2 1.3-.5.5-.8.5-1.4v-9.9c0-.6-.2-1.1-.5-1.4-.4-.3-.8-.5-1.3-.5s-.9.2-1.3.5-.5.7-.5 1.4zM-4 422.3c-.3-.1-.7-.2-1.2-.2h-1.2v6h1.2c.5 0 1-.1 1.3-.2.3-.2.5-.4.7-.7.2-.3.3-.6.3-1s.1-.8.1-1.3 0-.9-.1-1.2l-.3-.9c-.3-.2-.5-.4-.8-.5z"/>
  <path class="st0" d="M25.9 412.2h-5.3c.5.2 1 .5 1.5.8.4.4.8.9 1 1.4.3.6.4 1.2.4 2v9.9c0 .8-.1 1.5-.4 2-.3.6-.6 1-1 1.4-.4.4-.9.7-1.5.9h5.3v-18.4zM35.6 412.2h-1.7v2.4h-5.3v5.7h4.6v2.5h-4.6v7.8h7z"/>
  <g>
    <path class="st0" d="M14.6 334.7h-3.7l-.7 3.9h5.1zM14.1 332.2l-1.3-6.8h-.1l-1.3 6.8zM19.7 322.5h-3.1v-2.4h-2.7l4.1 18.5h1.7zM7.5 338.6l4.1-18.5H6.9v2.4H1.6v5.5h4.7v2.5H1.6v5.5h5.3v2.6zM26.7 320.1h-1.3v2.4h-3.1v16.1h4.4zM-40 336.5c-.2.5-.5.9-.9 1.3-.4.3-.8.6-1.3.8h4.6v-18.4h-2.2v2.4h-5.3v5c.2-.2.6-.5.9-.6.4-.2.8-.2 1.3-.2.9 0 1.6.3 2.2.8.6.6.9 1.4.9 2.5v4.8c.2.6.1 1.1-.2 1.6zM-1 320.1h-5.6c2.3.5 3.5 2.2 3.5 5.4 0 1.1-.2 2-.5 2.8-.3.8-.9 1.4-1.8 1.9l2.8 8.4H-1v-18.5zM31.1 320.1h-1.7v18.5h5.4zM-14.7 336.2c-.2.5-.5 1-.9 1.4-.4.4-.8.7-1.4 1-.1 0-.1 0-.2.1h5v-18.4h-4.9c.5.2 1 .5 1.4.9.4.4.7.9.9 1.4.2.6.3 1.2.3 1.8v1h-2.7v-.9c0-.5-.2-1-.4-1.4-.3-.4-.7-.6-1.2-.6-.7 0-1.1.2-1.3.6-.2.4-.3.9-.3 1.6v9.5c0 .5.1 1 .4 1.4.2.4.7.6 1.3.6.2 0 .4 0 .6-.1l.6-.3c.2-.1.3-.3.4-.6.1-.2.2-.6.2-.9v-.9h2.7v1.2c-.2.5-.3 1-.5 1.6zM-7.9 330.7h-1.6v7.9h4z"/>
    <path class="st0" d="M-8 328.4c.5 0 .8-.1 1.1-.2s.5-.3.7-.6c.1-.2.2-.5.3-.9.1-.4.1-.8.1-1.2 0-.5 0-.9-.1-1.2-.1-.4-.2-.7-.3-.9-.3-.5-1-.7-1.9-.7h-1.4v5.8H-8zM-21.6 337.9c-.4-.3-.8-.8-1-1.4-.3-.6-.4-1.3-.4-2.1v-10.3c0-.6.1-1.2.3-1.7.2-.5.5-1 .9-1.4.4-.4.8-.7 1.4-.9h.2-9.2v2.4h-5.3v5.7h4.6v2.5h-4.6v7.8h14.4c-.5-.1-.9-.3-1.3-.6zM87.9 320.1h-1.8v2.4h-5.3v5.7h4.6v2.5h-4.6v7.9h7.1zM94.4 337.9c-.4-.3-.8-.8-1-1.4-.3-.6-.4-1.3-.4-2.1v-10.3c0-.6.1-1.2.3-1.7.2-.5.5-1 .9-1.4.4-.4.8-.7 1.4-.9h.2-5.2v18.4h5.1c-.5-.1-.9-.3-1.3-.6zM101.3 336.2c-.2.5-.5 1-.9 1.4s-.8.7-1.4 1c-.1 0-.1 0-.2.1h5v-18.4H99c.5.2 1 .5 1.4.9.4.4.7.9.9 1.4.2.6.3 1.2.3 1.8v1H99v-.9c0-.5-.2-1-.4-1.4-.3-.4-.7-.6-1.2-.6-.7 0-1.1.2-1.3.6-.2.4-.3.9-.3 1.6v9.5c0 .5.1 1 .4 1.4.2.4.7.6 1.3.6.2 0 .4 0 .6-.1l.6-.3c.2-.1.3-.3.4-.6.1-.2.2-.6.2-.9v-.9h2.7v1.2c-.3.5-.5 1-.7 1.6zM111.8 320.1v2.4h-5.3v5.5h4.6v2.5h-4.6v5.5h5.3v2.6h204.8v-18.5zM-46.4 337.8c-.4-.3-.7-.8-.9-1.3-.2-.5-.3-1-.3-1.7v-.8h2.7v.7c0 .5.1.8.4 1.1.3.3.6.4 1 .4s.7-.1.9-.4c.2-.2.3-.6.3-1v-4.4c0-.4-.1-.7-.4-.9-.2-.3-.5-.4-.9-.4-.2 0-.4 0-.6.1-.2.1-.3.2-.4.3-.1.1-.2.2-.2.3-.1.2-.1.3-.2.3h-2.4v-9.9h-205.1v18.4h207.2c-.3-.2-.7-.5-1.1-.8zM60 338.6c-.1 0-.1 0 0 0-.6-.2-1-.5-1.4-.9-.4-.4-.8-.8-1.1-1.4-.3-.6-.4-1.2-.4-2v-9.9c0-.8.1-1.4.4-2 .3-.6.6-1.1 1.1-1.4.4-.4.9-.6 1.4-.8h-9.3v2.4h-5.3v5.5H50v2.5h-4.6v5.5h5.3v2.5H60zM38.2 320.1h-4.3l2.1 13h.1zM42.6 320.1H41l-3.8 18.5h5.4zM68.4 320.1h-5.3c.5.2 1 .5 1.5.8.4.4.8.9 1 1.4.3.6.4 1.2.4 2v9.9c0 .8-.1 1.5-.4 2-.3.6-.6 1-1 1.4-.4.4-.9.7-1.5.9h5.3v-18.4zM78.1 320.1h-1.7v2.4h-5.3v5.7h4.6v2.5h-4.6v7.9h7z"/>
    <path class="st0" d="M59.7 324.4v9.9c0 .6.2 1.1.5 1.4.4.3.8.5 1.3.5s.9-.2 1.3-.5.5-.8.5-1.4v-9.9c0-.6-.2-1.1-.5-1.4-.4-.3-.8-.5-1.3-.5s-.9.2-1.3.5c-.3.3-.5.8-.5 1.4z"/>
  </g>
  <g>
    <path class="st0" d="M7.6 361.8v9.9c0 .6.2 1.1.5 1.4.4.3.8.5 1.3.5s.9-.2 1.3-.5.5-.8.5-1.4v-9.9c0-.6-.2-1.1-.5-1.4-.4-.3-.8-.5-1.3-.5s-.9.2-1.3.5c-.3.3-.5.8-.5 1.4z"/>
    <path class="st0" d="M7.8 376c-.5-.2-1-.5-1.4-.9-.4-.4-.8-.8-1.1-1.4-.3-.6-.4-1.2-.4-2v-9.9c0-.8.1-1.4.4-2 .3-.6.6-1.1 1.1-1.4.4-.4.9-.6 1.4-.8H-.5c2.3.5 3.5 2.2 3.5 5.4 0 1.1-.2 2-.5 2.8-.3.8-.9 1.4-1.8 1.9l2.8 8.4 4.3-.1zM19 376c-.5-.2-1-.5-1.4-.9-.4-.4-.8-.8-1.1-1.4-.3-.6-.4-1.2-.4-2v-9.9c0-.8.1-1.4.4-2 .3-.6.6-1.1 1.1-1.4.4-.4.9-.6 1.4-.8h-8c.5.2 1 .5 1.5.8.4.4.8.9 1 1.4.3.6.4 1.2.4 2v9.9c0 .8-.1 1.5-.4 2-.3.6-.6 1-1 1.4-.4.4-.9.7-1.5.9h8zM66.9 357.5c.2 0 .5.1.7.2.6.2 1.1.5 1.5 1 .5.5.8 1.1.9 1.7.2.7.3 1.5.3 2.7 0 .8 0 1.5-.1 2.1-.1.6-.3 1.1-.6 1.6-.4.6-.9 1.1-1.5 1.4-.6.3-1.4.5-2.4.5h-1.4v7.2h252.3v-18.4H66.9z"/>
    <path class="st0" d="M18.8 361.8v9.9c0 .6.2 1.1.5 1.4.4.3.8.5 1.3.5s.9-.2 1.3-.5.5-.8.5-1.4v-9.9c0-.6-.2-1.1-.5-1.4-.4-.3-.8-.5-1.3-.5s-.9.2-1.3.5c-.3.3-.5.8-.5 1.4zM.7 376l-2.5-7.9h-1.6v7.9zM-1.9 365.7c.5 0 .8-.1 1.1-.2.3-.1.5-.3.7-.6.1-.2.2-.5.3-.9.1-.4.1-.8.1-1.2 0-.5 0-.9-.1-1.2-.1-.4-.2-.7-.3-.9-.3-.5-1-.7-1.9-.7h-1.4v5.8h1.5zM64.3 366.3h1.3c.5 0 1-.1 1.3-.2.3-.2.5-.4.7-.7.1-.3.2-.6.2-1v-1.3-1.2c0-.4-.1-.7-.2-1-.1-.3-.4-.5-.6-.7-.3-.2-.7-.2-1.2-.2h-1.4v6.3zM61.6 357.5h-5.3c.5.2 1 .5 1.5.8.4.4.8.9 1 1.4.3.6.4 1.2.4 2v9.9c0 .8-.1 1.5-.4 2-.3.6-.6 1-1 1.4-.4.4-.9.7-1.5.9h5.3v-18.4z"/>
    <path class="st0" d="M27.4 357.5h-5.3c.5.2 1 .5 1.5.8.4.4.8.9 1 1.4.3.6.4 1.2.4 2v9.9c0 .8-.1 1.5-.4 2-.3.6-.6 1-1 1.4-.4.4-.9.7-1.5.9h5.3v-18.4zM52.9 361.8v9.9c0 .6.2 1.1.5 1.4.4.3.8.5 1.3.5s.9-.2 1.3-.5.5-.8.5-1.4v-9.9c0-.6-.2-1.1-.5-1.4-.4-.3-.8-.5-1.3-.5s-.9.2-1.3.5c-.3.3-.5.8-.5 1.4zM-252.4 357.5H-6.1v18.4h-246.3zM43.8 359.9h-3.1v-2.4h-5.3v2.4h-5.3v5.7h4.6v2.5h-4.6v7.9h13.7z"/>
    <path class="st0" d="M53.1 376c-.5-.2-1-.5-1.4-.9-.4-.4-.8-.8-1.1-1.4-.3-.6-.4-1.2-.4-2v-9.9c0-.8.1-1.4.4-2 .3-.6.6-1.1 1.1-1.4.4-.4.9-.6 1.4-.8h-3.6v2.4h-3.1v16h6.7c.1 0 0 0 0 0z"/>
  </g>
</svg>
