<svg id="Layer_1" xmlns="http://www.w3.org/2000/svg" viewBox="-283 399.3 566.9 42.5"><style>.st0{fill:#f5ebe6}</style><g id="XMLID_379_"><path id="XMLID_979_" class="st0" d="M881.9 1115.1H879v-2.1h-4.4c.7.3 1.3.7 1.8 1.3.5.7.9 1.7 1.1 3 .2 1.2.3 3 .3 5.3 0 3.3-.4 5.6-1.1 7-.5.9-1.1 1.5-2 1.8h7.1l.1-16.3z"/><path id="XMLID_980_" class="st0" d="M871.3 1116.3c-.3 1-.4 2.9-.4 5.9 0 2.7.2 4.6.5 5.6s.9 1.5 1.8 1.5c.8 0 1.4-.5 1.7-1.4.3-.9.5-2.6.5-5.1 0-3.2-.1-5.3-.4-6.4s-.9-1.6-1.8-1.6c-1 .1-1.6.6-1.9 1.5z"/><path id="XMLID_981_" class="st0" d="M889.4 1129.4c-.7-1.4-1.1-4-1.1-7.7 0-3.3.4-5.6 1.1-7 .5-.9 1.1-1.5 2-1.8h-4.2v2.1h-2.8v16.3h7.2c-1-.3-1.7-.9-2.2-1.9z"/><path id="XMLID_982_" class="st0" d="M901.2 1129.5c-.7-1.4-1.1-3.9-1.1-7.3 0-3.9.4-6.5 1.2-7.8.5-.8 1.1-1.2 1.9-1.5h-8.5c.7.3 1.3.7 1.8 1.3.5.7.9 1.7 1.1 3 .2 1.2.3 3 .3 5.3 0 3.3-.4 5.6-1.1 7-.5.9-1.1 1.5-2 1.8h8.3c-.7-.3-1.4-.9-1.9-1.8z"/><path id="XMLID_983_" class="st0" d="M891.4 1116.3c-.3 1-.4 2.9-.4 5.9 0 2.7.2 4.6.5 5.6s.9 1.5 1.8 1.5c.8 0 1.4-.5 1.7-1.4.3-.9.5-2.6.5-5.1 0-3.2-.1-5.3-.4-6.4s-.9-1.6-1.8-1.6c-1 .1-1.6.6-1.9 1.5z"/><path id="XMLID_984_" class="st0" d="M859.6 1112.9h3.7v7.2h-3.7z"/><path id="XMLID_985_" class="st0" d="M869.3 1129.4c-.7-1.4-1.1-4-1.1-7.7 0-3.3.4-5.6 1.1-7 .5-.9 1.1-1.5 2-1.8h-5.5v18.4h5.7c-1-.3-1.7-.9-2.2-1.9z"/><path id="XMLID_986_" class="st0" d="M857.1 1131.3v-18.4h-5.8c1.2.1 2.2.5 2.8 1.2.7.8 1.1 2.1 1.1 3.8 0 2.5-.7 4.1-2.2 4.8-.7.3-1.8.5-3.2.5v8.2l7.3-.1z"/><path id="XMLID_987_" class="st0" d="M852 1120.4c.4-.4.6-1.2.6-2.3s-.2-1.9-.6-2.4-1-.8-1.8-.8h-.3v6.1c1 0 1.7-.2 2.1-.6z"/><path id="XMLID_988_" class="st0" d="M859.6 1122.2h3.7v9.1h-3.7z"/><path id="XMLID_989_" class="st0" d="M908.5 1129.7c-.4.8-1 1.4-1.8 1.7h5.2V1113h-5.3c.4.1.8.3 1.1.6.7.6 1.2 1.6 1.6 2.9l-2.3 1c-.1-.5-.2-.9-.3-1.2-.1-.3-.3-.6-.4-.8-.3-.4-.8-.6-1.4-.6-.8 0-1.4.5-1.7 1.5-.3 1.1-.5 3-.5 5.8s.2 4.7.5 5.7.9 1.5 1.8 1.5c.8 0 1.3-.4 1.7-1.1.3-.8.5-2 .5-3.6v-.9H905v-2.1h4.5v.7c-.1 3.6-.4 6-1 7.3z"/><path id="XMLID_990_" class="st0" d="M936.9 1120.4c.4-.4.6-1.2.6-2.3s-.2-1.9-.6-2.4-1-.8-1.8-.8h-.3v6.1c1 0 1.7-.2 2.1-.6z"/><path id="XMLID_991_" class="st0" d="M944.5 1122.2h3.7v9.1h-3.7z"/><path id="XMLID_992_" class="st0" d="M914.4 1121.1c1 0 1.7-.2 2.1-.7s.6-1.2.6-2.3c0-.6 0-1.1-.1-1.5s-.2-.7-.4-1c-.2-.3-.4-.4-.7-.6s-.6-.2-1-.2h-.4l-.1 6.3z"/><path id="XMLID_993_" class="st0" d="M615.5 1112.9h231.8v18.4H615.5z"/><path id="XMLID_994_" class="st0" d="M942 1112.9h-5.8c1.2.1 2.2.5 2.8 1.2.7.8 1.1 2.1 1.1 3.8 0 2.5-.7 4.1-2.2 4.8-.7.3-1.8.5-3.2.5v8.2h7.2l.1-18.5z"/><path id="XMLID_995_" class="st0" d="M950.7 1112.9h231.8v18.4H950.7z"/><path id="XMLID_996_" class="st0" d="M944.5 1112.9h3.7v7.2h-3.7z"/><path id="XMLID_997_" class="st0" d="M924.9 1112.9h-9c1 .1 1.8.4 2.4.9.8.8 1.3 2.1 1.3 3.9 0 1.3-.2 2.4-.7 3.2-.4.8-1.1 1.3-1.9 1.5l3.4 9h.6l3.9-18.5z"/><path id="XMLID_998_" class="st0" d="M914.4 1122.3v9h3.4z"/><path id="XMLID_999_" class="st0" d="M927.7 1127.8H924l-.7 3.5h5z"/><path id="XMLID_1000_" class="st0" d="M932.3 1112.9h-5.4l3.9 18.4h1.5z"/><path id="XMLID_1001_" class="st0" d="M924.8 1123.5l-.5 2.4h3l-.6-3c-.4-2-.7-4.2-.9-6.4-.1 1.1-.3 2.2-.4 3.4-.2 1.1-.4 2.3-.6 3.6z"/></g><g id="XMLID_136_"><path id="XMLID_140_" class="st0" d="M2.9 421.5c0-.2-.1-.6-.1-1l-.3-1.8c0-.1 0-.4-.1-.6 0-.3-.1-.6-.1-1.1l-.1-.8v.8c0 .5-.1.9-.1 1.2 0 .3 0 .5-.1.5l-.3 1.8c-.1.4-.1.7-.1 1 0 .2-.1.4-.1.4l-1.3 7.9h4l-1.3-7.9v-.4z"/><path id="XMLID_137_" class="st0" d="M19.7 421.5c-.3-.8-.5-1.6-.7-2.4-.2-.8-.4-1.7-.6-2.6 0-.1 0-.2-.1-.4 0-.2-.1-.3-.1-.5 0 .2 0 .4.1.5v.4l.1 1.9.1 2.3v1.1l.1 8h3.8l-2.7-8.3z"/><path id="XMLID_238_" class="st0" d="M-34.9 411.4h3.1c.9 0 1.7.1 2.4.3.6.2 1.1.6 1.6 1.1.7.8 1.2 1.8 1.5 3s.4 2.9.4 5.1c0 2-.2 3.7-.5 5-.3 1.2-.8 2.2-1.6 2.8-.7.6-1.9 1-3.5 1.1h8v-18.4h3.3c1.4 0 2.4.3 3 1 .8.8 1.3 2.1 1.3 3.8 0 1.3-.2 2.4-.7 3.2-.4.8-1.1 1.3-1.9 1.5l3.4 8.9h.6l4-18.4h1.9l3.9 18.4h2.9L-5 411.4h2.4l1.3 8.6.2 1.3c.1.7.2 1.3.2 1.9l.1 1.6v.6l.1-.6c.1-1 .2-2 .3-2.9.1-.9.2-1.7.4-2.4l1.3-8h1.9l1.2 7.7c.2 1.1.3 2.2.5 3.2.1 1 .2 1.9.3 2.8l.3-2.7c.1-.9.2-1.7.3-2.6l.2-1.2 1.1-7.2h2.4l-3.2 18.4H11v-18.5h2.5v18.4h2.8v-18.4h2.3l2.5 7.4c.7 2.1 1.3 4.3 1.9 6.6-.2-1.4-.3-2.7-.4-3.9-.1-1.2-.1-2.2-.1-3.3v-6.9H25v18.4h5.6c-.9-.3-1.6-.9-2.1-1.9-.7-1.4-1.1-3.8-1.1-7.2 0-3.9.4-6.4 1.2-7.7.5-.8 1.2-1.4 2.2-1.6h-312.6v18.4h246.9v-18.3z"/><path id="XMLID_397_" class="st0" d="M-12.2 429.8h5l-.6-3.6h-3.7z"/><path id="XMLID_398_" class="st0" d="M33.5 411.3c.5.1 1 .4 1.4.7.7.6 1.2 1.6 1.6 2.9l-2.3 1c-.1-.5-.2-.9-.3-1.2-.1-.3-.3-.6-.4-.8-.3-.4-.8-.6-1.4-.6-.8 0-1.4.5-1.7 1.5-.3 1.1-.5 3-.5 5.7 0 2.8.2 4.7.5 5.7s.9 1.5 1.8 1.5c.8 0 1.3-.4 1.7-1.1.3-.7.5-1.9.5-3.6v-.8h-2.2v-2.1h4.5v.7c0 3.6-.3 6-.9 7.3-.4.8-1 1.3-1.8 1.7h250v-18.5H33.5z"/><path id="XMLID_399_" class="st0" d="M-9.6 415c-.1 1.1-.3 2.2-.4 3.4-.2 1.1-.4 2.3-.6 3.6l-.5 2.4h2.9l-.5-2.9c-.4-2.1-.7-4.3-.9-6.5z"/><path id="XMLID_400_" class="st0" d="M-18.5 415.2c-.1-.4-.2-.7-.4-1-.2-.3-.4-.4-.7-.6-.3-.1-.6-.2-1-.2h-.4v6.1c1 0 1.6-.2 2-.7.4-.4.6-1.2.6-2.3 0-.4 0-.9-.1-1.3z"/><path id="XMLID_401_" class="st0" d="M-28.6 420.9c0-2.8-.3-4.8-.8-5.9-.5-1.1-1.4-1.6-2.8-1.6h-.3v14.2c1.5 0 2.5-.5 3-1.4.7-.8.9-2.6.9-5.3z"/><path id="XMLID_402_" class="st0" d="M-21 429.8h3.3l-3.3-9z"/></g></svg>