<svg version="1.1" id="Layer_1" xmlns="http://www.w3.org/2000/svg" x="0" y="0" viewBox="0 0 566.9 42.5" xml:space="preserve"><style>.st0{fill:#f5ebe6}</style><g id="XMLID_379_"><path id="XMLID_979_" class="st0" d="M1164.9 814.5h-2.9v-2.1h-4.4c.7.3 1.3.7 1.8 1.3.5.7.9 1.7 1.1 3 .2 1.2.3 3 .3 5.3 0 3.3-.4 5.6-1.1 7-.5.9-1.1 1.5-2 1.8h7.1v-16.3z"/><path id="XMLID_980_" class="st0" d="M1154.3 815.8c-.3 1-.4 2.9-.4 5.9 0 2.7.2 4.6.5 5.6s.9 1.5 1.8 1.5c.8 0 1.4-.5 1.7-1.4.3-.9.5-2.6.5-5.1 0-3.2-.1-5.3-.4-6.4-.3-1.1-.9-1.6-1.8-1.6-1 .1-1.6.6-1.9 1.5z"/><path id="XMLID_981_" class="st0" d="M1172.4 828.9c-.7-1.4-1.1-4-1.1-7.7 0-3.3.4-5.6 1.1-7 .5-.9 1.1-1.5 2-1.8h-4.2v2.1h-2.8v16.3h7.2c-1-.3-1.7-1-2.2-1.9z"/><path id="XMLID_982_" class="st0" d="M1184.2 829c-.7-1.4-1.1-3.9-1.1-7.3 0-3.9.4-6.5 1.2-7.8.5-.8 1.1-1.2 1.9-1.5h-8.5c.7.3 1.3.7 1.8 1.3.5.7.9 1.7 1.1 3 .2 1.2.3 3 .3 5.3 0 3.3-.4 5.6-1.1 7-.5.9-1.1 1.5-2 1.8h8.3c-.7-.3-1.4-.9-1.9-1.8z"/><path id="XMLID_983_" class="st0" d="M1174.4 815.8c-.3 1-.4 2.9-.4 5.9 0 2.7.2 4.6.5 5.6s.9 1.5 1.8 1.5c.8 0 1.4-.5 1.7-1.4.3-.9.5-2.6.5-5.1 0-3.2-.1-5.3-.4-6.4-.3-1.1-.9-1.6-1.8-1.6-1 .1-1.6.6-1.9 1.5z"/><path id="XMLID_984_" class="st0" d="M1142.6 812.4h3.7v7.2h-3.7z"/><path id="XMLID_985_" class="st0" d="M1152.3 828.9c-.7-1.4-1.1-4-1.1-7.7 0-3.3.4-5.6 1.1-7 .5-.9 1.1-1.5 2-1.8h-5.5v18.4h5.7c-1-.3-1.7-1-2.2-1.9z"/><path id="XMLID_986_" class="st0" d="M1140.1 830.8v-18.4h-5.8c1.2.1 2.2.5 2.8 1.2.7.8 1.1 2.1 1.1 3.8 0 2.5-.7 4.1-2.2 4.8-.7.3-1.8.5-3.2.5v8.2h7.3z"/><path id="XMLID_987_" class="st0" d="M1135 819.9c.4-.4.6-1.2.6-2.3 0-1.1-.2-1.9-.6-2.4-.4-.5-1-.8-1.8-.8h-.3v6.1c1 0 1.7-.2 2.1-.6z"/><path id="XMLID_988_" class="st0" d="M1142.6 821.7h3.7v9.1h-3.7z"/><path id="XMLID_989_" class="st0" d="M1191.5 829.2c-.4.8-1 1.4-1.8 1.7h5.2v-18.4h-5.3c.4.1.8.3 1.1.6.7.6 1.2 1.6 1.6 2.9l-2.3 1c-.1-.5-.2-.9-.3-1.2-.1-.3-.3-.6-.4-.8-.3-.4-.8-.6-1.4-.6-.8 0-1.4.5-1.7 1.5-.3 1.1-.5 3-.5 5.8s.2 4.7.5 5.7.9 1.5 1.8 1.5c.8 0 1.3-.4 1.7-1.1.3-.8.5-2 .5-3.6v-.9h-2.2v-2.1h4.5v.7c-.1 3.6-.4 6-1 7.3z"/><path id="XMLID_990_" class="st0" d="M1219.9 819.9c.4-.4.6-1.2.6-2.3 0-1.1-.2-1.9-.6-2.4-.4-.5-1-.8-1.8-.8h-.3v6.1c1 0 1.7-.2 2.1-.6z"/><path id="XMLID_991_" class="st0" d="M1227.5 821.7h3.7v9.1h-3.7z"/><path id="XMLID_992_" class="st0" d="M1197.4 820.6c1 0 1.7-.2 2.1-.7s.6-1.2.6-2.3c0-.6 0-1.1-.1-1.5-.1-.4-.2-.7-.4-1-.2-.3-.4-.4-.7-.6s-.6-.2-1-.2h-.4v6.3z"/><path id="XMLID_993_" class="st0" d="M898.5 812.4h231.8v18.4H898.5z"/><path id="XMLID_994_" class="st0" d="M1225 812.4h-5.8c1.2.1 2.2.5 2.8 1.2.7.8 1.1 2.1 1.1 3.8 0 2.5-.7 4.1-2.2 4.8-.7.3-1.8.5-3.2.5v8.2h7.2v-18.5z"/><path id="XMLID_995_" class="st0" d="M1233.7 812.4h231.8v18.4h-231.8z"/><path id="XMLID_996_" class="st0" d="M1227.5 812.4h3.7v7.2h-3.7z"/><path id="XMLID_997_" class="st0" d="M1207.9 812.4h-9c1 .1 1.8.4 2.4.9.8.8 1.3 2.1 1.3 3.9 0 1.3-.2 2.4-.7 3.2-.4.8-1.1 1.3-1.9 1.5l3.4 9h.6l3.9-18.5z"/><path id="XMLID_998_" class="st0" d="M1197.4 821.8v9h3.4z"/><path id="XMLID_999_" class="st0" d="M1210.7 827.3h-3.7l-.7 3.5h5z"/><path id="XMLID_1000_" class="st0" d="M1215.3 812.4h-5.4l3.9 18.4h1.5z"/><path id="XMLID_1001_" class="st0" d="M1207.8 823l-.5 2.4h3l-.6-3c-.4-2-.7-4.2-.9-6.4-.1 1.1-.3 2.2-.4 3.4-.2 1.1-.4 2.3-.6 3.6z"/></g><g id="XMLID_81_"><path id="XMLID_82_" class="st0" d="M265.9 14.7H263v-2.1h-4.4c.7.3 1.3.7 1.8 1.3.5.7.9 1.7 1.1 3 .2 1.2.3 3 .3 5.3 0 3.3-.4 5.6-1.1 7-.5.9-1.1 1.5-2 1.8h7.1V14.7z"/><path id="XMLID_107_" class="st0" d="M292.5 29.4c-.4.8-1 1.4-1.8 1.7h5.2V12.6h-5.3c.4.1.8.3 1.1.6.7.6 1.2 1.6 1.6 2.9l-2.3 1c-.1-.5-.2-.9-.3-1.2-.1-.3-.3-.6-.4-.8-.3-.4-.8-.6-1.4-.6-.8 0-1.4.5-1.7 1.5-.3 1.1-.5 3-.5 5.8s.2 4.7.5 5.7.9 1.5 1.8 1.5c.8 0 1.3-.4 1.7-1.1.3-.8.5-2 .5-3.6v-.9H289v-2.1h4.5v.7c-.1 3.7-.4 6.1-1 7.4z"/><path id="XMLID_111_" class="st0" d="M273.4 29.1c-.7-1.4-1.1-4-1.1-7.7 0-3.3.4-5.6 1.1-7 .5-.9 1.1-1.5 2-1.8h-4.2v2.1h-2.8V31h7.2c-1-.3-1.7-1-2.2-1.9z"/><path id="XMLID_112_" class="st0" d="M275.4 16c-.3 1-.4 2.9-.4 5.9 0 2.7.2 4.6.5 5.6s.9 1.5 1.8 1.5c.8 0 1.4-.5 1.7-1.4.3-.9.5-2.6.5-5.1 0-3.2-.1-5.3-.4-6.4-.3-1.1-.9-1.6-1.8-1.6-1 .1-1.6.6-1.9 1.5z"/><path id="XMLID_113_" class="st0" d="M285.2 29.2c-.7-1.4-1.1-3.9-1.1-7.3 0-3.9.4-6.5 1.2-7.8.5-.8 1.1-1.2 1.9-1.5h-8.5c.7.3 1.3.7 1.8 1.3.5.7.9 1.7 1.1 3 .2 1.2.3 3 .3 5.3 0 3.3-.4 5.6-1.1 7-.5.9-1.1 1.5-2 1.8h8.3c-.7-.3-1.4-.9-1.9-1.8z"/><path id="XMLID_114_" class="st0" d="M255.3 16c-.3 1-.4 2.9-.4 5.9 0 2.7.2 4.6.5 5.6s.9 1.5 1.8 1.5c.8 0 1.4-.5 1.7-1.4.3-.9.5-2.6.5-5.1 0-3.2-.1-5.3-.4-6.4-.3-1.1-.9-1.6-1.8-1.6s-1.6.6-1.9 1.5z"/><path id="XMLID_115_" class="st0" d="M241.1 31V12.6h-5.8c1.2.1 2.2.5 2.8 1.2.7.8 1.1 2.1 1.1 3.8 0 2.5-.7 4.1-2.2 4.8-.7.3-1.8.5-3.2.5V31h7.3z"/><path id="XMLID_116_" class="st0" d="M236 20.1c.4-.4.6-1.2.6-2.3 0-1.1-.2-1.9-.6-2.4-.4-.5-1-.8-1.8-.8h-.3v6.1c1 0 1.7-.2 2.1-.6z"/><path id="XMLID_117_" class="st0" d="M253.3 29.1c-.7-1.4-1.1-4-1.1-7.7 0-3.3.4-5.6 1.1-7 .5-.9 1.1-1.5 2-1.8h-5.5V31h5.7c-1-.3-1.7-1-2.2-1.9z"/><path id="XMLID_118_" class="st0" d="M243.6 12.6h3.7v7.2h-3.7z"/><path id="XMLID_119_" class="st0" d="M243.6 21.9h3.7V31h-3.7z"/><path id="XMLID_120_" class="st0" d="M326 12.6h-5.8c1.2.1 2.2.5 2.8 1.2.7.8 1.1 2.1 1.1 3.8 0 2.5-.7 4.1-2.2 4.8-.7.3-1.8.5-3.2.5V31h7.2V12.6z"/><path id="XMLID_121_" class="st0" d="M328.5 12.6h3.7v7.2h-3.7z"/><path id="XMLID_122_" class="st0" d="M328.5 21.9h3.7V31h-3.7z"/><path id="XMLID_123_" class="st0" d="M298.4 20.8c1 0 1.7-.2 2.1-.7.4-.4.6-1.2.6-2.3 0-.6 0-1.1-.1-1.5-.1-.4-.2-.7-.4-1-.2-.3-.4-.4-.7-.6s-.6-.2-1-.2h-.4v6.3z"/><path id="XMLID_124_" class="st0" d="M320.9 20.1c.4-.4.6-1.2.6-2.3 0-1.1-.2-1.9-.6-2.4-.4-.5-1-.8-1.8-.8h-.3v6.1c1 0 1.7-.2 2.1-.6z"/><path id="XMLID_125_" class="st0" d="M-.4 12.6h231.8V31H-.4z"/><path id="XMLID_126_" class="st0" d="M334.7 12.6h231.8V31H334.7z"/><path id="XMLID_127_" class="st0" d="M316.3 12.6h-5.4l3.9 18.4h1.5z"/><path id="XMLID_128_" class="st0" d="M308.9 12.6h-9c1 .1 1.8.4 2.4.9.8.8 1.3 2.1 1.3 3.9 0 1.3-.2 2.4-.7 3.2-.4.8-1.1 1.3-1.9 1.5l3.4 9h.6l3.9-18.5z"/><path id="XMLID_129_" class="st0" d="M298.4 22v9h3.4z"/><path id="XMLID_130_" class="st0" d="M311.7 27.5H308l-.7 3.5h5.1z"/><path id="XMLID_131_" class="st0" d="M308.8 23.2l-.5 2.4h3l-.6-3c-.4-2-.7-4.2-.9-6.4-.1 1.1-.3 2.2-.4 3.4-.1 1.1-.4 2.3-.6 3.6z"/></g></svg>