<?xml version="1.0" encoding="utf-8"?>
<!-- Generator: Adobe Illustrator 19.0.0, SVG Export Plug-In . SVG Version: 6.00 Build 0)  -->
<svg version="1.1" id="Layer_1" xmlns="http://www.w3.org/2000/svg" xmlns:xlink="http://www.w3.org/1999/xlink" x="0px" y="0px"
	 viewBox="-283 400.2 566.9 56.7" style="enable-background:new -283 400.2 566.9 56.7;" xml:space="preserve">
<style type="text/css">
	.st0{fill:#F5EBE6;}
</style>
<g id="XMLID_379_">
	<path id="XMLID_979_" class="st0" d="M881.9,1237.9H879v-2.1h-4.4c0.7,0.3,1.3,0.7,1.8,1.3c0.5,0.7,0.9,1.7,1.1,3
		c0.2,1.2,0.3,3,0.3,5.3c0,3.3-0.4,5.6-1.1,7c-0.5,0.9-1.1,1.5-2,1.8h7.1L881.9,1237.9L881.9,1237.9z"/>
	<path id="XMLID_980_" class="st0" d="M871.3,1239.2c-0.3,1-0.4,2.9-0.4,5.9c0,2.7,0.2,4.6,0.5,5.6s0.9,1.5,1.8,1.5
		c0.8,0,1.4-0.5,1.7-1.4c0.3-0.9,0.5-2.6,0.5-5.1c0-3.2-0.1-5.3-0.4-6.4s-0.9-1.6-1.8-1.6C872.2,1237.8,871.6,1238.3,871.3,1239.2z"
		/>
	<path id="XMLID_981_" class="st0" d="M889.4,1252.3c-0.7-1.4-1.1-4-1.1-7.7c0-3.3,0.4-5.6,1.1-7c0.5-0.9,1.1-1.5,2-1.8h-4.2v2.1
		h-2.8v16.3h7.2C890.6,1253.9,889.9,1253.2,889.4,1252.3z"/>
	<path id="XMLID_982_" class="st0" d="M901.2,1252.3c-0.7-1.4-1.1-3.9-1.1-7.3c0-3.9,0.4-6.5,1.2-7.8c0.5-0.8,1.1-1.2,1.9-1.5h-8.5
		c0.7,0.3,1.3,0.7,1.8,1.3c0.5,0.7,0.9,1.7,1.1,3c0.2,1.2,0.3,3,0.3,5.3c0,3.3-0.4,5.6-1.1,7c-0.5,0.9-1.1,1.5-2,1.8h8.3
		C902.4,1253.9,901.7,1253.3,901.2,1252.3z"/>
	<path id="XMLID_983_" class="st0" d="M891.4,1239.2c-0.3,1-0.4,2.9-0.4,5.9c0,2.7,0.2,4.6,0.5,5.6s0.9,1.5,1.8,1.5
		c0.8,0,1.4-0.5,1.7-1.4c0.3-0.9,0.5-2.6,0.5-5.1c0-3.2-0.1-5.3-0.4-6.4s-0.9-1.6-1.8-1.6C892.3,1237.8,891.7,1238.3,891.4,1239.2z"
		/>
	<rect id="XMLID_984_" x="859.6" y="1235.8" class="st0" width="3.7" height="7.2"/>
	<path id="XMLID_985_" class="st0" d="M869.3,1252.3c-0.7-1.4-1.1-4-1.1-7.7c0-3.3,0.4-5.6,1.1-7c0.5-0.9,1.1-1.5,2-1.8h-5.5v18.4
		h5.7C870.5,1253.9,869.8,1253.2,869.3,1252.3z"/>
	<path id="XMLID_986_" class="st0" d="M857.1,1254.2v-18.4h-5.8c1.2,0.1,2.2,0.5,2.8,1.2c0.7,0.8,1.1,2.1,1.1,3.8
		c0,2.5-0.7,4.1-2.2,4.8c-0.7,0.3-1.8,0.5-3.2,0.5v8.2L857.1,1254.2L857.1,1254.2z"/>
	<path id="XMLID_987_" class="st0" d="M852,1243.3c0.4-0.4,0.6-1.2,0.6-2.3s-0.2-1.9-0.6-2.4s-1-0.8-1.8-0.8h-0.3v6.1
		C850.9,1243.9,851.6,1243.7,852,1243.3z"/>
	<rect id="XMLID_988_" x="859.6" y="1245.1" class="st0" width="3.7" height="9.1"/>
	<path id="XMLID_989_" class="st0" d="M908.5,1252.6c-0.4,0.8-1,1.4-1.8,1.7h5.2v-18.4h-5.3c0.4,0.1,0.8,0.3,1.1,0.6
		c0.7,0.6,1.2,1.6,1.6,2.9l-2.3,1c-0.1-0.5-0.2-0.9-0.3-1.2c-0.1-0.3-0.3-0.6-0.4-0.8c-0.3-0.4-0.8-0.6-1.4-0.6
		c-0.8,0-1.4,0.5-1.7,1.5c-0.3,1.1-0.5,3-0.5,5.8c0,2.8,0.2,4.7,0.5,5.7s0.9,1.5,1.8,1.5c0.8,0,1.3-0.4,1.7-1.1
		c0.3-0.8,0.5-2,0.5-3.6v-0.6v-0.4H905v-2.1h4.5v0.7C909.4,1248.9,909.1,1251.3,908.5,1252.6z"/>
	<path id="XMLID_990_" class="st0" d="M936.9,1243.3c0.4-0.4,0.6-1.2,0.6-2.3s-0.2-1.9-0.6-2.4s-1-0.8-1.8-0.8h-0.3v6.1
		C935.8,1243.9,936.5,1243.7,936.9,1243.3z"/>
	<rect id="XMLID_991_" x="944.5" y="1245.1" class="st0" width="3.7" height="9.1"/>
	<path id="XMLID_992_" class="st0" d="M914.4,1244c1,0,1.7-0.2,2.1-0.7s0.6-1.2,0.6-2.3c0-0.6,0-1.1-0.1-1.5s-0.2-0.7-0.4-1
		c-0.2-0.3-0.4-0.4-0.7-0.6s-0.6-0.2-1-0.2h-0.4L914.4,1244L914.4,1244z"/>
	<rect id="XMLID_993_" x="615.5" y="1235.8" class="st0" width="231.8" height="18.4"/>
	<path id="XMLID_994_" class="st0" d="M942,1235.8h-5.8c1.2,0.1,2.2,0.5,2.8,1.2c0.7,0.8,1.1,2.1,1.1,3.8c0,2.5-0.7,4.1-2.2,4.8
		c-0.7,0.3-1.8,0.5-3.2,0.5v8.2h7.2L942,1235.8L942,1235.8z"/>
	<rect id="XMLID_995_" x="950.7" y="1235.8" class="st0" width="231.8" height="18.4"/>
	<rect id="XMLID_996_" x="944.5" y="1235.8" class="st0" width="3.7" height="7.2"/>
	<path id="XMLID_997_" class="st0" d="M924.9,1235.8h-9c1,0.1,1.8,0.4,2.4,0.9c0.8,0.8,1.3,2.1,1.3,3.9c0,1.3-0.2,2.4-0.7,3.2
		c-0.4,0.8-1.1,1.3-1.9,1.5l3.4,9h0.6L924.9,1235.8z"/>
	<polygon id="XMLID_998_" class="st0" points="914.4,1245.2 914.4,1254.2 917.8,1254.2 	"/>
	<polygon id="XMLID_999_" class="st0" points="927.7,1250.7 924,1250.7 923.3,1254.2 928.3,1254.2 	"/>
	<polygon id="XMLID_1000_" class="st0" points="932.3,1235.8 926.9,1235.8 930.8,1254.2 932.3,1254.2 	"/>
	<path id="XMLID_1001_" class="st0" d="M924.8,1246.4l-0.5,2.4h3l-0.6-3c-0.4-2-0.7-4.2-0.9-6.4c-0.1,1.1-0.3,2.2-0.4,3.4
		C925.2,1243.9,925,1245.1,924.8,1246.4z"/>
</g>
<g id="XMLID_138_">
	<path id="XMLID_139_" class="st0" d="M-11.8,425.4h-5.7c0.7,0.3,1.4,0.7,1.8,1.3c0.5,0.7,0.9,1.7,1.1,3c0.2,1.2,0.3,3,0.3,5.3
		c0,3.3-0.4,5.6-1.1,7c-0.5,0.9-1.1,1.5-2,1.8h5.5v-18.4H-11.8z"/>
	<path id="XMLID_153_" class="st0" d="M-9.4,425.4l2.5,7.4c0.7,2.1,1.4,4.3,1.9,6.7c-0.2-1.4-0.3-2.7-0.4-3.9
		c-0.1-1.2-0.1-2.3-0.1-3.3v-6.9H-9.4z"/>
	<path id="XMLID_155_" class="st0" d="M-20.8,428.9c-0.3,1-0.4,2.9-0.4,5.9c0,2.7,0.2,4.6,0.5,5.6s0.9,1.5,1.8,1.5
		c0.8,0,1.4-0.5,1.7-1.4c0.3-0.9,0.5-2.6,0.5-5.1c0-3.2-0.1-5.3-0.4-6.4s-0.9-1.6-1.8-1.6S-20.5,427.9-20.8,428.9z"/>
	<path id="XMLID_156_" class="st0" d="M-25.9,443.9h5.2c-0.9-0.3-1.6-1-2.1-1.9c-0.7-1.4-1.1-4-1.1-7.7c0-3.3,0.4-5.6,1.1-7
		c0.5-0.9,1.1-1.5,2-1.8H-26c0.2,0.1,0.4,0.2,0.6,0.3v2.2c-0.6-0.3-1.2-0.5-1.6-0.5c-0.6,0-1.1,0.1-1.5,0.4c-0.4,0.3-0.8,0.7-1,1.3
		c-0.3,0.6-0.5,1.4-0.6,2.3s-0.2,2-0.2,3.3c0,4.6,1.2,6.9,3.5,6.9c0.4,0,0.9-0.1,1.5-0.4v2.3C-25.6,443.7-25.8,443.8-25.9,443.9z"/>
	<path id="XMLID_159_" class="st0" d="M-8.3,435.6c-0.3-0.8-0.5-1.6-0.7-2.4c-0.2-0.8-0.4-1.7-0.6-2.6c0-0.1,0-0.2-0.1-0.4
		c0-0.2-0.1-0.3-0.1-0.6c0,0.2,0,0.4,0.1,0.5c0,0.1,0,0.3,0,0.4l0.1,1.9l0.1,2.3c0,0.1,0,0.3,0,0.5c0,0.2,0,0.4,0,0.6l0.1,8h3.8
		L-8.3,435.6z"/>
	<path id="XMLID_160_" class="st0" d="M21.7,425.4c1.3,0.1,2.3,0.5,3,1.2c0.7,0.8,1.1,2.1,1.1,3.8c0,2.5-0.7,4.1-2.2,4.8
		c-0.7,0.3-1.8,0.5-3.2,0.5v8.2H29v-16.3h-2.9v-2.2C26.1,425.4,21.7,425.4,21.7,425.4z"/>
	<polygon id="XMLID_161_" class="st0" points="34.4,425.4 34.4,427.6 31.6,427.6 31.6,443.9 284.1,443.9 284.1,425.4 	"/>
	<path id="XMLID_163_" class="st0" d="M-33.1,435c0-3.3,0.5-5.8,1.4-7.4c0.6-1.1,1.4-1.8,2.5-2.1h-253.6v18.4h253.6
		C-31.8,443-33.1,440-33.1,435z"/>
	<path id="XMLID_164_" class="st0" d="M22.6,432.9c0.4-0.4,0.6-1.2,0.6-2.3c0-1.1-0.2-1.9-0.6-2.4s-1-0.8-1.8-0.8h-0.3v6.1
		C21.5,433.6,22.2,433.4,22.6,432.9z"/>
	<polygon id="XMLID_165_" class="st0" points="18,443.9 18,425.4 15.7,425.4 15.7,427.5 11.6,427.5 11.6,433.4 15.2,433.4 
		15.2,435.5 11.6,435.5 11.6,441.8 15.7,441.8 15.7,443.9 	"/>
	<path id="XMLID_166_" class="st0" d="M-0.7,435c0-3.3,0.5-5.8,1.4-7.4c0.6-1.1,1.4-1.8,2.5-2.1h-6.3v18.4h6.3
		C0.6,443-0.7,440-0.7,435z"/>
	<path id="XMLID_168_" class="st0" d="M6.5,443.9h2.6v-18.5H6.4c0.2,0.1,0.4,0.2,0.6,0.3v2.2c-0.6-0.3-1.2-0.5-1.6-0.5
		c-0.6,0-1.1,0.1-1.5,0.4c-0.4,0.3-0.8,0.7-1,1.3c-0.2,0.6-0.5,1.4-0.6,2.3s-0.2,2-0.2,3.3c0,4.6,1.2,6.9,3.5,6.9
		c0.4,0,0.9-0.1,1.5-0.4v2.3C6.8,443.7,6.7,443.8,6.5,443.9z"/>
</g>
</svg>
