<svg version="1.1" id="Layer_1" xmlns="http://www.w3.org/2000/svg" x="0" y="0" viewBox="-283 399.3 566.9 42.5" xml:space="preserve"><style>.st0{fill:#f5ebe6}</style><path class="st0" d="M-14.5 429.7c-.5-.2-1-.5-1.4-.9s-.8-.8-1-1.4c-.3-.6-.4-1.2-.4-2v-9.9c0-.8.1-1.4.4-2s.6-1.1 1-1.4c.4-.4.9-.6 1.4-.8h-8c.5.2 1 .5 1.5.8.4.4.8.9 1 1.4.3.6.4 1.2.4 2v9.9c0 .8-.1 1.5-.4 2-.3.6-.6 1-1 1.4s-.9.7-1.5.9h8c.1.1 0 0 0 0z"/><path class="st0" d="M-14.7 415.6v9.9c0 .6.2 1.1.5 1.4.4.3.8.5 1.3.5s.9-.2 1.3-.5.5-.8.5-1.4v-9.9c0-.6-.2-1.1-.5-1.4-.4-.3-.8-.5-1.3-.5s-.9.2-1.3.5c-.3.3-.5.8-.5 1.4zm-10.9 14.1c-.5-.2-1-.5-1.4-.9s-.8-.8-1-1.4c-.3-.6-.4-1.2-.4-2v-9.9c0-.8.1-1.4.4-2s.6-1.1 1-1.4c.4-.4.9-.6 1.4-.8h-8.7c.3.1.6.1.9.3.6.3 1.1.6 1.5 1s.7.9.8 1.5c.2.6.2 1.2.2 1.8v.7c0 .5 0 .9-.1 1.3-.1.3-.2.7-.4.9-.3.5-.8.9-1.4 1.3.6.3 1.1.7 1.4 1.3.3.6.4 1.4.4 2.4v1c0 1.6-.4 2.9-1.2 3.8-.6.6-1.4 1-2.4 1.2l9-.1c0 .1 0 0 0 0z"/><path class="st0" d="M-25.8 415.6v9.9c0 .6.2 1.1.5 1.4.4.3.8.5 1.3.5s.9-.2 1.3-.5.5-.8.5-1.4v-9.9c0-.6-.2-1.1-.5-1.4-.4-.3-.8-.5-1.3-.5s-.9.2-1.3.5-.5.8-.5 1.4zm59.9-3.1c.4-.5.8-.8 1.4-1.1.1-.1.3-.1.4-.1h-3.7v2.4h-3.1v16h6.7c-.1 0-.1 0-.2-.1-.6-.2-1-.5-1.4-.9s-.7-.9-1-1.4c-.2-.5-.4-1.1-.4-1.7v-1h2.6v.8c0 .5.1.9.4 1.3.3.4.8.6 1.5.6.5 0 .8-.1 1.1-.2s.5-.3.6-.6c.1-.2.2-.5.2-.9v-1.1c0-.5 0-.9-.1-1.2 0-.3-.1-.6-.2-.8-.1-.2-.3-.3-.5-.5-.2-.1-.5-.3-.8-.4l-1.9-.8c-1.2-.5-1.9-1.1-2.3-1.9-.4-.8-.6-1.8-.6-2.9 0-.7.1-1.4.3-2 .3-.5.6-1 1-1.5zM-34.4 427c.3-.2.5-.4.7-.7.2-.3.3-.6.3-1s.1-.8.1-1.3 0-.9-.1-1.2l-.3-.9c-.2-.2-.4-.4-.7-.5s-.7-.2-1.2-.2h-1.2v6h1.2c.4 0 .9-.1 1.2-.2zm-1.2-8.1c.9 0 1.5-.2 1.8-.7.3-.4.5-1.1.5-2 0-.8-.2-1.5-.5-1.9s-1-.6-1.8-.6h-1.1v5.1h1.1v.1zm29.6-7.6h-5.3c.5.2 1 .5 1.5.8.4.4.8.9 1 1.4.3.6.4 1.2.4 2v9.9c0 .8-.1 1.5-.4 2-.3.6-.6 1-1 1.4s-.9.7-1.5.9H-6v-18.4zm-278.2 0h244.7v18.4h-244.7zm310.5 18.5v-16.1h-3.1v-2.4h-.3v2.4h-5.3v5.5h4.6v2.5h-4.6v5.5h5.3v2.6z"/><path class="st0" d="M39.1 411.3c.1 0 .2 0 .3.1.6.2 1 .6 1.4 1 .8.8 1.2 1.8 1.2 2.9v1.3h-2.7v-.6c0-.6-.1-1.1-.4-1.6-.3-.4-.8-.7-1.5-.7-.4 0-.7.1-.9.2s-.4.3-.6.5c-.1.2-.2.5-.3.8s-.1.6-.1.9v.9c0 .2.1.5.2.7.1.2.3.4.5.5s.5.3.8.4l2 .8c.6.2 1.1.5 1.4.8.4.3.7.7.9 1.1s.3.9.4 1.4c.1.5.1 1.1.1 1.8 0 .8-.1 1.5-.2 2.2-.2.7-.4 1.2-.8 1.7s-.8.9-1.4 1.2c-.1.1-.3.1-.4.1h245.6v-18.4H39.1zm-38.5 0h-3.9v8.4zm-2.5 10.3l-1.4 2.7v5.5h4.4zm7.1-10.3H3.3l-3.6 7.4 4.2 11.1h1.3zm9.7 18.5v-18.5h-7v15.9h5.3v2.6z"/></svg>