<?xml version="1.0" encoding="utf-8"?>
<!-- Generator: Adobe Illustrator 19.0.0, SVG Export Plug-In . SVG Version: 6.00 Build 0)  -->
<svg version="1.1" id="Layer_1" xmlns="http://www.w3.org/2000/svg" xmlns:xlink="http://www.w3.org/1999/xlink" x="0px" y="0px"
	 viewBox="-283 399.4 566.9 42.5" style="enable-background:new -283 399.4 566.9 42.5;" xml:space="preserve">
<style type="text/css">
	.st0{fill:rgb(245,235,230);}
	.st1{fill: rgb(245,235,230);}


</style>
<g id="XMLID_379_">
	<path id="XMLID_979_" class="st0" d="M881.9,1213.9H879v-2.1h-4.4c0.7,0.3,1.3,0.7,1.8,1.3c0.5,0.7,0.9,1.7,1.1,3
		c0.2,1.2,0.3,3,0.3,5.3c0,3.3-0.4,5.6-1.1,7c-0.5,0.9-1.1,1.5-2,1.8h7.1L881.9,1213.9L881.9,1213.9z"/>
	<path id="XMLID_980_" class="st0" d="M871.3,1215.2c-0.3,1-0.4,2.9-0.4,5.9c0,2.7,0.2,4.6,0.5,5.6s0.9,1.5,1.8,1.5
		c0.8,0,1.4-0.5,1.7-1.4c0.3-0.9,0.5-2.6,0.5-5.1c0-3.2-0.1-5.3-0.4-6.4c-0.3-1.1-0.9-1.6-1.8-1.6
		C872.2,1213.8,871.6,1214.3,871.3,1215.2z"/>
	<path id="XMLID_981_" class="st0" d="M889.4,1228.3c-0.7-1.4-1.1-4-1.1-7.7c0-3.3,0.4-5.6,1.1-7c0.5-0.9,1.1-1.5,2-1.8h-4.2v2.1
		h-2.8v16.3h7.2C890.6,1229.9,889.9,1229.2,889.4,1228.3z"/>
	<path id="XMLID_982_" class="st0" d="M901.2,1228.4c-0.7-1.4-1.1-3.9-1.1-7.3c0-3.9,0.4-6.5,1.2-7.8c0.5-0.8,1.1-1.2,1.9-1.5h-8.5
		c0.7,0.3,1.3,0.7,1.8,1.3c0.5,0.7,0.9,1.7,1.1,3c0.2,1.2,0.3,3,0.3,5.3c0,3.3-0.4,5.6-1.1,7c-0.5,0.9-1.1,1.5-2,1.8h8.3
		C902.4,1229.9,901.7,1229.3,901.2,1228.4z"/>
	<path id="XMLID_983_" class="st0" d="M891.4,1215.2c-0.3,1-0.4,2.9-0.4,5.9c0,2.7,0.2,4.6,0.5,5.6s0.9,1.5,1.8,1.5
		c0.8,0,1.4-0.5,1.7-1.4c0.3-0.9,0.5-2.6,0.5-5.1c0-3.2-0.1-5.3-0.4-6.4c-0.3-1.1-0.9-1.6-1.8-1.6
		C892.3,1213.8,891.7,1214.3,891.4,1215.2z"/>
	<rect id="XMLID_984_" x="859.6" y="1211.8" class="st0" width="3.7" height="7.2"/>
	<path id="XMLID_985_" class="st0" d="M869.3,1228.3c-0.7-1.4-1.1-4-1.1-7.7c0-3.3,0.4-5.6,1.1-7c0.5-0.9,1.1-1.5,2-1.8h-5.5v18.4
		h5.7C870.5,1229.9,869.8,1229.2,869.3,1228.3z"/>
	<path id="XMLID_986_" class="st0" d="M857.1,1230.2v-18.4h-5.8c1.2,0.1,2.2,0.5,2.8,1.2c0.7,0.8,1.1,2.1,1.1,3.8
		c0,2.5-0.7,4.1-2.2,4.8c-0.7,0.3-1.8,0.5-3.2,0.5v8.2L857.1,1230.2L857.1,1230.2z"/>
	<path id="XMLID_987_" class="st0" d="M852,1219.3c0.4-0.4,0.6-1.2,0.6-2.3s-0.2-1.9-0.6-2.4s-1-0.8-1.8-0.8h-0.3v6.1
		C850.9,1219.9,851.6,1219.7,852,1219.3z"/>
	<rect id="XMLID_988_" x="859.6" y="1221.1" class="st0" width="3.7" height="9.1"/>
	<path id="XMLID_989_" class="st0" d="M908.5,1228.6c-0.4,0.8-1,1.4-1.8,1.7h5.2v-18.4h-5.3c0.4,0.1,0.8,0.3,1.1,0.6
		c0.7,0.6,1.2,1.6,1.6,2.9l-2.3,1c-0.1-0.5-0.2-0.9-0.3-1.2c-0.1-0.3-0.3-0.6-0.4-0.8c-0.3-0.4-0.8-0.6-1.4-0.6
		c-0.8,0-1.4,0.5-1.7,1.5c-0.3,1.1-0.5,3-0.5,5.8c0,2.8,0.2,4.7,0.5,5.7s0.9,1.5,1.8,1.5c0.8,0,1.3-0.4,1.7-1.1
		c0.3-0.8,0.5-2,0.5-3.6v-0.5v-0.4H905v-2.1h4.5v0.7C909.4,1224.9,909.1,1227.3,908.5,1228.6z"/>
	<path id="XMLID_990_" class="st0" d="M936.9,1219.3c0.4-0.4,0.6-1.2,0.6-2.3s-0.2-1.9-0.6-2.4s-1-0.8-1.8-0.8h-0.3v6.1
		C935.8,1219.9,936.5,1219.7,936.9,1219.3z"/>
	<rect id="XMLID_991_" x="944.5" y="1221.1" class="st0" width="3.7" height="9.1"/>
	<path id="XMLID_992_" class="st0" d="M914.4,1220c1,0,1.7-0.2,2.1-0.7s0.6-1.2,0.6-2.3c0-0.6,0-1.1-0.1-1.5s-0.2-0.7-0.4-1
		c-0.2-0.3-0.4-0.4-0.7-0.6s-0.6-0.2-1-0.2h-0.4L914.4,1220L914.4,1220z"/>
	<rect id="XMLID_993_" x="615.5" y="1211.8" class="st0" width="231.8" height="18.4"/>
	<path id="XMLID_994_" class="st0" d="M942,1211.8h-5.8c1.2,0.1,2.2,0.5,2.8,1.2c0.7,0.8,1.1,2.1,1.1,3.8c0,2.5-0.7,4.1-2.2,4.8
		c-0.7,0.3-1.8,0.5-3.2,0.5v8.2h7.2L942,1211.8L942,1211.8z"/>
	<rect id="XMLID_995_" x="950.7" y="1211.8" class="st0" width="231.8" height="18.4"/>
	<rect id="XMLID_996_" x="944.5" y="1211.8" class="st0" width="3.7" height="7.2"/>
	<path id="XMLID_997_" class="st0" d="M924.9,1211.8h-9c1,0.1,1.8,0.4,2.4,0.9c0.8,0.8,1.3,2.1,1.3,3.9c0,1.3-0.2,2.4-0.7,3.2
		c-0.4,0.8-1.1,1.3-1.9,1.5l3.4,9h0.6L924.9,1211.8z"/>
	<polygon id="XMLID_998_" class="st0" points="914.4,1221.2 914.4,1230.2 917.8,1230.2 	"/>
	<polygon id="XMLID_999_" class="st0" points="927.7,1226.7 924,1226.7 923.3,1230.2 928.3,1230.2 	"/>
	<polygon id="XMLID_1000_" class="st0" points="932.3,1211.8 926.9,1211.8 930.8,1230.2 932.3,1230.2 	"/>
	<path id="XMLID_1001_" class="st0" d="M924.8,1222.4l-0.5,2.4h3l-0.6-3c-0.4-2-0.7-4.2-0.9-6.4c-0.1,1.1-0.3,2.2-0.4,3.4
		C925.2,1219.9,925,1221.1,924.8,1222.4z"/>
</g>
<g id="XMLID_828_">
	<rect id="XMLID_1181_" x="-21.7" y="411.1" class="st1" width="3.7" height="7.2"/>
	<path id="XMLID_1182_" class="st1" d="M-26.8,429.5h2.6v-18.4h-2.7c0.2,0.1,0.4,0.2,0.6,0.3v2.2c-0.6-0.3-1.2-0.5-1.6-0.5
		c-0.6,0-1.1,0.1-1.5,0.4c-0.4,0.3-0.8,0.7-1,1.3c-0.3,0.6-0.5,1.4-0.6,2.3c-0.1,0.9-0.2,2-0.2,3.3c0,4.6,1.2,6.9,3.5,6.9
		c0.4,0,0.9-0.1,1.5-0.4v2.3C-26.5,429.4-26.6,429.5-26.8,429.5z"/>
	<rect id="XMLID_1184_" x="-15.6" y="411.1" class="st1" width="2.9" height="18.4"/>
	<path id="XMLID_1186_" class="st1" d="M-34,420.6c0-3.3,0.5-5.8,1.4-7.4c0.6-1.1,1.4-1.8,2.5-2.1h-9.8c1.1,0.1,2,0.4,2.5,0.9
		c0.8,0.8,1.3,2.1,1.3,3.8c0,1.3-0.2,2.4-0.7,3.2c-0.4,0.8-1.1,1.3-1.9,1.5l3.4,8.9h5.1C-32.7,428.6-34,425.7-34,420.6z"/>
	<rect id="XMLID_1187_" x="-21.7" y="420.4" class="st1" width="3.7" height="9.1"/>
	<polygon id="XMLID_1188_" class="st1" points="-52.7,429.5 -47.6,429.5 -48.3,426 -52,426 	"/>
	<polygon id="XMLID_1189_" class="st1" points="-6,413.2 -8.9,413.2 -8.9,411.1 -10.2,411.1 -10.2,429.5 -6,429.5 	"/>
	<path id="XMLID_1190_" class="st1" d="M-51.6,424h3l-0.6-2.9c-0.4-2-0.7-4.1-0.9-6.4c-0.1,1.1-0.3,2.2-0.4,3.4
		c-0.2,1.1-0.4,2.3-0.6,3.6L-51.6,424z"/>
	<path id="XMLID_1191_" class="st1" d="M-39.1,418.6c0.4-0.4,0.6-1.2,0.6-2.3c0-0.6,0-1.1-0.1-1.5s-0.2-0.7-0.4-1
		c-0.2-0.3-0.4-0.4-0.7-0.6c-0.3-0.1-0.6-0.2-1-0.2h-0.4v6.2C-40.2,419.3-39.5,419-39.1,418.6z"/>
	<polygon id="XMLID_1192_" class="st1" points="-43.7,411.1 -49.1,411.1 -45.1,429.5 -43.7,429.5 	"/>
	<polygon id="XMLID_1196_" class="st1" points="-41.2,420.5 -41.2,429.5 -37.8,429.5 	"/>
	<polygon id="XMLID_1197_" class="st1" points="-51.1,411.1 -283.4,411.1 -283.4,429.5 -55.1,429.5 	"/>
	<path id="XMLID_1198_" class="st1" d="M42.8,418.6c0.4-0.4,0.6-1.2,0.6-2.3c0-0.6,0-1.1-0.1-1.5s-0.2-0.7-0.4-1
		c-0.2-0.3-0.4-0.4-0.7-0.6c-0.3-0.1-0.6-0.2-1-0.2h-0.4v6.2C41.8,419.3,42.4,419,42.8,418.6z"/>
	<path id="XMLID_1200_" class="st1" d="M38.3,411.1h-2.9v13.4c0,2-0.3,3.4-0.9,4.1c-0.4,0.4-0.9,0.7-1.5,0.9h5.2V411.1z"/>
	<polygon id="XMLID_1204_" class="st1" points="0.6,411.1 -0.7,411.1 -0.7,413.2 -3.5,413.2 -3.5,429.5 0.6,429.5 	"/>
	<polygon id="XMLID_1205_" class="st1" points="55.3,411.1 55.3,413.2 51.1,413.2 51.1,419 54.8,419 54.8,421.1 51.1,421.1
		51.1,427.5 55.3,427.5 55.3,429.5 283.6,429.5 283.6,411.1 	"/>
	<path id="XMLID_1206_" class="st1" d="M48.6,411.1h-6.6c1.1,0.1,2,0.4,2.5,0.9c0.8,0.8,1.3,2.1,1.3,3.8c0,1.3-0.2,2.4-0.7,3.2
		c-0.4,0.8-1.1,1.3-1.9,1.5l3.4,8.9h2V411.1z"/>
	<polygon id="XMLID_1207_" class="st1" points="40.8,420.5 40.8,429.5 44.2,429.5 	"/>
	<path id="XMLID_1211_" class="st1" d="M31.2,427.5c0.7,0,1.2-0.2,1.4-0.6c0.2-0.4,0.4-1.2,0.4-2.4v-13.4h-3.6v13.1
		c0,1.3,0.1,2.2,0.4,2.7C30,427.2,30.5,427.5,31.2,427.5z"/>
	<path id="XMLID_1212_" class="st1" d="M13,429.5c-2.6-0.9-3.8-3.8-3.8-8.9c0-3.3,0.5-5.8,1.4-7.4c0.6-1.1,1.4-1.8,2.5-2.1H7.3v2.1
		H3.1v5.9h3.7v2.1H3.1v6.3h4.1v2.1H13z"/>
	<path id="XMLID_1238_" class="st1" d="M16.4,429.5h4v-16.3h-2.9v-2.2h-1.2c0.2,0.1,0.4,0.2,0.6,0.3v2.2c-0.6-0.3-1.2-0.5-1.6-0.5
		c-0.6,0-1.1,0.1-1.5,0.4c-0.4,0.3-0.8,0.7-1,1.3c-0.3,0.6-0.5,1.4-0.6,2.3c-0.1,0.9-0.2,2-0.2,3.3c0,4.6,1.2,6.9,3.5,6.9
		c0.4,0,0.9-0.1,1.5-0.4v2.3C16.7,429.4,16.5,429.5,16.4,429.5z"/>
	<path id="XMLID_1239_" class="st1" d="M27.6,428.2c-0.5-0.7-0.7-2.1-0.7-4.1v-13.1h-1.4v2.2h-2.8v16.3h6.6
		C28.6,429.3,28,428.9,27.6,428.2z"/>
</g>
</svg>
