<svg id="Layer_1" xmlns="http://www.w3.org/2000/svg" viewBox="-283 399.3 566.9 42.5">
  <style>
    .st0{fill:#f5ebe6}
  </style>
  <path class="st0" d="M5 415.6v9.9c0 .6.2 1.1.5 1.4.4.3.8.5 1.3.5s.9-.2 1.3-.5.5-.8.5-1.4v-9.9c0-.6-.2-1.1-.5-1.4-.4-.3-.8-.5-1.3-.5s-.9.2-1.3.5c-.3.3-.5.8-.5 1.4z"/>
  <path class="st0" d="M13.7 411.3H8.5c.5.2 1 .5 1.5.8.4.4.8.9 1 1.4.3.6.4 1.2.4 2v9.9c0 .8-.1 1.5-.4 2-.3.6-.6 1-1 1.4-.4.4-.9.7-1.5.9h5.3v-18.4zM19.3 414.3c-.3-.4-1-.6-1.8-.6h-1.1v5.1h1.2c.9 0 1.5-.2 1.8-.7.3-.4.5-1.1.5-2-.1-.7-.2-1.3-.6-1.8zM-7.2 411.3h-6.6v2.4h-5.3v5.7h4.6v2.5h-4.6v7.9h11.9zM5.3 429.8s0-.1 0 0c-.6-.2-1-.5-1.4-.9-.4-.4-.8-.8-1.1-1.4-.3-.6-.4-1.2-.4-2v-9.9c0-.8.1-1.4.4-2 .3-.6.6-1.1 1.1-1.4.4-.4.9-.6 1.4-.8h-9.8v15.9H.8v2.5h4.5zM-31.9 429.8v-2.4l4.8-9.1c.2-.5.4-.9.4-1.2 0-.3.1-.8.1-1.3v-.7c0-.3-.1-.5-.1-.7-.1-.2-.2-.4-.4-.5-.2-.1-.4-.2-.8-.2s-.7.1-1 .3c-.2.2-.4.6-.4 1v1.5H-32V415c0-.6.1-1.1.3-1.6.2-.5.5-.9.9-1.3.3-.4.8-.7 1.3-.9h.1-11.4v18.4h4.1v-2.5h2.7v2.5h2.1z"/>
  <path class="st0" d="M-21.8 429.8v-18.4h-4.6c.1 0 .2.1.3.1.5.3.9.6 1.2 1 .3.4.5.9.7 1.5.1.6.2 1.2.2 1.8v1.1c0 .3-.1.6-.1.9-.1.3-.1.6-.3.8-.1.3-.3.6-.5 1l-3.9 7.6h4.8v2.5h2.2zM18.7 421.4c-.3-.1-.7-.2-1.2-.2h-1.2v6h1.2c.5 0 1-.1 1.3-.2.3-.2.5-.4.7-.7.2-.3.3-.6.3-1s.1-.8.1-1.3 0-.9-.1-1.2l-.3-.9c-.2-.2-.5-.4-.8-.5z"/>
  <path class="st0" d="M24.9 411.3h-6c.3.1.6.1.9.3.6.3 1.1.6 1.5 1 .4.4.7.9.8 1.5.2.6.2 1.2.2 1.8v.7c0 .5 0 .9-.1 1.3-.1.3-.2.7-.4.9-.3.5-.8.9-1.4 1.3.6.3 1.1.7 1.4 1.3.3.6.4 1.4.4 2.4v1c0 1.6-.4 2.9-1.2 3.8-.6.6-1.4 1-2.4 1.2h6.1v-18.5zM37.7 411.3l2.2 7.3 2.1-7.3zM44.9 411.3L41.2 422v7.8h242.7v-18.5zM-43.3 414l-2.7 2v-2.8l2.5-1.9H-285v18.5h241.7zM30.5 414.3c-.3-.4-1-.6-1.8-.6h-1.1v5.1h1.2c.9 0 1.5-.2 1.8-.7.3-.4.5-1.1.5-2-.1-.7-.3-1.3-.6-1.8zM29.9 421.4c-.3-.1-.7-.2-1.2-.2h-1.2v6h1.2c.5 0 1-.1 1.3-.2.3-.2.5-.4.7-.7.2-.3.3-.6.3-1s.1-.8.1-1.3 0-.9-.1-1.2l-.3-.9c-.3-.2-.5-.4-.8-.5z"/>
  <path class="st0" d="M38.5 422l-3.6-10.7h-4.8c.3.1.6.1.9.3.6.3 1.1.6 1.5 1 .4.4.7.9.8 1.5.2.6.2 1.2.2 1.8v.7c0 .5 0 .9-.1 1.3-.1.3-.2.7-.4.9-.3.5-.8.9-1.4 1.3.6.3 1.1.7 1.4 1.3.3.6.4 1.4.4 2.4v1c0 1.6-.4 2.9-1.2 3.8-.6.6-1.4 1-2.4 1.2h8.6V422z"/>
</svg>
