<svg id="Layer_1" xmlns="http://www.w3.org/2000/svg" viewBox="0 0 566.9 70.9"><style>.st0,.st1{fill:#f5ebe6}</style><g id="XMLID_379_"><path id="XMLID_979_" class="st0" d="M1164.9 851.9h-2.9v-2.1h-4.4c.7.3 1.3.7 1.8 1.3.5.7.9 1.7 1.1 3 .2 1.2.3 3 .3 5.3 0 3.3-.4 5.6-1.1 7-.5.9-1.1 1.5-2 1.8h7.1v-16.3z"/><path id="XMLID_980_" class="st0" d="M1154.3 853.2c-.3 1-.4 2.9-.4 5.9 0 2.7.2 4.6.5 5.6s.9 1.5 1.8 1.5c.8 0 1.4-.5 1.7-1.4.3-.9.5-2.6.5-5.1 0-3.2-.1-5.3-.4-6.4-.3-1.1-.9-1.6-1.8-1.6-1 .1-1.6.6-1.9 1.5z"/><path id="XMLID_981_" class="st0" d="M1172.4 866.3c-.7-1.4-1.1-4-1.1-7.7 0-3.3.4-5.6 1.1-7 .5-.9 1.1-1.5 2-1.8h-4.2v2.1h-2.8v16.3h7.2c-1-.3-1.7-1-2.2-1.9z"/><path id="XMLID_982_" class="st0" d="M1184.2 866.3c-.7-1.4-1.1-3.9-1.1-7.3 0-3.9.4-6.5 1.2-7.8.5-.8 1.1-1.2 1.9-1.5h-8.5c.7.3 1.3.7 1.8 1.3.5.7.9 1.7 1.1 3 .2 1.2.3 3 .3 5.3 0 3.3-.4 5.6-1.1 7-.5.9-1.1 1.5-2 1.8h8.3c-.7-.2-1.4-.8-1.9-1.8z"/><path id="XMLID_983_" class="st0" d="M1174.4 853.2c-.3 1-.4 2.9-.4 5.9 0 2.7.2 4.6.5 5.6s.9 1.5 1.8 1.5c.8 0 1.4-.5 1.7-1.4.3-.9.5-2.6.5-5.1 0-3.2-.1-5.3-.4-6.4-.3-1.1-.9-1.6-1.8-1.6-1 .1-1.6.6-1.9 1.5z"/><path id="XMLID_984_" class="st0" d="M1142.6 849.8h3.7v7.2h-3.7z"/><path id="XMLID_985_" class="st0" d="M1152.3 866.3c-.7-1.4-1.1-4-1.1-7.7 0-3.3.4-5.6 1.1-7 .5-.9 1.1-1.5 2-1.8h-5.5v18.4h5.7c-1-.3-1.7-1-2.2-1.9z"/><path id="XMLID_986_" class="st0" d="M1140.1 868.2v-18.4h-5.8c1.2.1 2.2.5 2.8 1.2.7.8 1.1 2.1 1.1 3.8 0 2.5-.7 4.1-2.2 4.8-.7.3-1.8.5-3.2.5v8.2h7.3z"/><path id="XMLID_987_" class="st0" d="M1135 857.3c.4-.4.6-1.2.6-2.3 0-1.1-.2-1.9-.6-2.4-.4-.5-1-.8-1.8-.8h-.3v6.1c1 0 1.7-.2 2.1-.6z"/><path id="XMLID_988_" class="st0" d="M1142.6 859.1h3.7v9.1h-3.7z"/><path id="XMLID_989_" class="st0" d="M1191.5 866.6c-.4.8-1 1.4-1.8 1.7h5.2v-18.4h-5.3c.4.1.8.3 1.1.6.7.6 1.2 1.6 1.6 2.9l-2.3 1c-.1-.5-.2-.9-.3-1.2-.1-.3-.3-.6-.4-.8-.3-.4-.8-.6-1.4-.6-.8 0-1.4.5-1.7 1.5-.3 1.1-.5 3-.5 5.8s.2 4.7.5 5.7.9 1.5 1.8 1.5c.8 0 1.3-.4 1.7-1.1.3-.8.5-2 .5-3.6v-1h-2.2v-2.1h4.5v.7c-.1 3.7-.4 6.1-1 7.4z"/><path id="XMLID_990_" class="st0" d="M1219.9 857.3c.4-.4.6-1.2.6-2.3 0-1.1-.2-1.9-.6-2.4-.4-.5-1-.8-1.8-.8h-.3v6.1c1 0 1.7-.2 2.1-.6z"/><path id="XMLID_991_" class="st0" d="M1227.5 859.1h3.7v9.1h-3.7z"/><path id="XMLID_992_" class="st0" d="M1197.4 858c1 0 1.7-.2 2.1-.7s.6-1.2.6-2.3c0-.6 0-1.1-.1-1.5-.1-.4-.2-.7-.4-1-.2-.3-.4-.4-.7-.6s-.6-.2-1-.2h-.4v6.3z"/><path id="XMLID_993_" class="st0" d="M898.5 849.8h231.8v18.4H898.5z"/><path id="XMLID_994_" class="st0" d="M1225 849.8h-5.8c1.2.1 2.2.5 2.8 1.2.7.8 1.1 2.1 1.1 3.8 0 2.5-.7 4.1-2.2 4.8-.7.3-1.8.5-3.2.5v8.2h7.2v-18.5z"/><path id="XMLID_995_" class="st0" d="M1233.7 849.8h231.8v18.4h-231.8z"/><path id="XMLID_996_" class="st0" d="M1227.5 849.8h3.7v7.2h-3.7z"/><path id="XMLID_997_" class="st0" d="M1207.9 849.8h-9c1 .1 1.8.4 2.4.9.8.8 1.3 2.1 1.3 3.9 0 1.3-.2 2.4-.7 3.2-.4.8-1.1 1.3-1.9 1.5l3.4 9h.6l3.9-18.5z"/><path id="XMLID_998_" class="st0" d="M1197.4 859.2v9h3.4z"/><path id="XMLID_999_" class="st0" d="M1210.7 864.7h-3.7l-.7 3.5h5z"/><path id="XMLID_1000_" class="st0" d="M1215.3 849.8h-5.4l3.9 18.4h1.5z"/><path id="XMLID_1001_" class="st0" d="M1207.8 860.4l-.5 2.4h3l-.6-3c-.4-2-.7-4.2-.9-6.4-.1 1.1-.3 2.2-.4 3.4-.2 1.1-.4 2.3-.6 3.6z"/></g><g id="XMLID_81_"><path id="XMLID_1040_" class="st1" d="M269.5 54.3h-3.7l-.7 3.6h5.1z"/><path id="XMLID_1039_" class="st1" d="M274.1 39.4h-5.4l4 18.5h1.4z"/><path id="XMLID_1038_" class="st1" d="M266.8 39.4h-9.1c2.4.2 3.6 1.8 3.6 4.9 0 1.3-.2 2.2-.5 2.8-.3.6-1 1.1-1.8 1.4 1 .4 1.7.9 2.1 1.5.4.6.6 1.5.6 2.8 0 3.1-1.2 4.8-3.6 5h4.8l3.9-18.4z"/><path id="XMLID_1037_" class="st1" d="M256.7 41.4h-.4v6.1c1 0 1.6-.2 2-.7.4-.5.6-1.3.6-2.5 0-1.9-.7-2.9-2.2-2.9z"/><path id="XMLID_1036_" class="st1" d="M266.6 50l-.5 2.4h3l-.6-2.9c-.4-2-.7-4.1-.9-6.4-.1 1.1-.3 2.2-.4 3.4-.1 1-.3 2.2-.6 3.5z"/><path id="XMLID_1035_" class="st1" d="M256.3 55.8c1 0 1.7-.2 2.1-.7.4-.4.6-1.2.6-2.4s-.2-2-.6-2.5c-.4-.5-1.1-.7-2.1-.7v6.3z"/><path id="XMLID_1034_" class="st1" d="M236.5 55.8c.7 0 1.2-.2 1.4-.6.2-.4.4-1.2.4-2.4V39.4h-3.6v13c0 1.3.1 2.2.4 2.7.2.5.7.7 1.4.7z"/><path id="XMLID_1033_" class="st1" d="M243.6 39.4h-2.9v13.4c0 2-.3 3.4-.9 4.1-.4.4-.9.7-1.5.9h5.2V39.4z"/><path id="XMLID_1032_" class="st1" d="M254 39.4h-6.6c1.1.1 2 .4 2.5.9.8.8 1.3 2.1 1.3 3.8 0 1.3-.2 2.4-.7 3.2-.4.8-1.1 1.3-1.9 1.5l3.4 8.9h2V39.4z"/><path id="XMLID_1031_" class="st1" d="M248.1 46.9c.4-.4.6-1.2.6-2.3 0-.6 0-1.1-.1-1.5-.1-.4-.2-.7-.4-1-.2-.3-.4-.4-.7-.6-.3-.1-.6-.2-1-.2h-.4v6.2c1 .1 1.6-.1 2-.6z"/><path id="XMLID_1030_" class="st1" d="M246.1 48.8v9.1h3.4z"/><path id="XMLID_1029_" class="st1" d="M328.1 57.9V39.4h-5.7v16.4h4.1v2.1z"/><path id="XMLID_1028_" class="st1" d="M312.4 50l-.5 2.4h3l-.6-2.9c-.4-2-.7-4.1-.9-6.4-.1 1.1-.3 2.2-.4 3.4-.1 1-.3 2.2-.6 3.5z"/><path id="XMLID_1027_" class="st1" d="M319.9 39.4h-5.4l4 18.5h1.4z"/><path id="XMLID_1026_" class="st1" d="M315.3 54.3h-3.7l-.7 3.6h5.1z"/><path id="XMLID_1025_" class="st1" d="M334.7 39.4v2.1h-4.1v5.9h3.6v2.1h-3.6v6.3h4.1v2.1h232.2V39.4z"/><path id="XMLID_1024_" class="st1" d="M232.9 56.6c-.5-.7-.7-2.1-.7-4.1v-13H0v18.4h234.7c-.8-.3-1.4-.7-1.8-1.3z"/><path id="XMLID_1023_" class="st1" d="M276.5 39.4l2.5 7.4c.7 2.1 1.4 4.3 1.9 6.7-.2-1.4-.3-2.7-.4-3.9-.1-1.2-.1-2.3-.1-3.3v-6.9h-3.9z"/><path id="XMLID_1022_" class="st1" d="M290.7 57.3v-2.5c.9.6 1.7 1 2.4 1s1.2-.2 1.6-.7c.4-.5.6-1.1.6-1.8s-.1-1.3-.4-1.8c-.2-.3-.4-.5-.6-.9-.3-.3-.6-.7-1-1.1-.6-.6-1.2-1.2-1.6-1.7-.4-.5-.7-.9-.9-1.3-.4-.7-.6-1.6-.6-2.7 0-1.4.4-2.6 1.1-3.4.4-.5.9-.8 1.5-1h-10v18.4h9.1c-.5-.1-.8-.3-1.2-.5z"/><path id="XMLID_1021_" class="st1" d="M277.6 49.6c-.3-.8-.5-1.6-.7-2.4-.2-.8-.4-1.7-.6-2.6 0-.1 0-.2-.1-.4 0-.2-.1-.3-.1-.6 0 .2 0 .4.1.5v.4l.1 1.9.1 2.3v1.1l.1 8h3.8l-2.7-8.2z"/><path id="XMLID_1020_" class="st1" d="M306.7 57.9h1.9l4-18.4h-6l.6.3V42c-.6-.3-1.2-.5-1.6-.5-.6 0-1.1.1-1.5.4s-.8.7-1 1.3c-.3.6-.5 1.4-.6 2.3-.1.9-.2 2-.2 3.3 0 4.6 1.2 6.9 3.5 6.9.4 0 .9-.1 1.5-.4v2.3c-.3.1-.5.2-.6.3z"/><path id="XMLID_1019_" class="st1" d="M299.5 49c0-3.3.5-5.8 1.4-7.4.6-1.1 1.4-1.8 2.5-2.1H296c.3.1.6.2.8.4v2.4c-.8-.5-1.4-.8-2.1-.8-.7 0-1.2.2-1.6.7-.4.4-.6 1-.6 1.8 0 .6.1 1.2.4 1.7.2.2.4.6.7 1 .3.4.8.9 1.3 1.4 1 1 1.7 1.9 2.1 2.7.4.7.6 1.6.6 2.7 0 1.4-.4 2.6-1.2 3.5-.4.5-1 .8-1.6 1.1h8.3c-2.3-1.1-3.6-4.1-3.6-9.1z"/></g></svg>