<?xml version="1.0" encoding="utf-8"?>
<!-- Generator: Adobe Illustrator 19.0.0, SVG Export Plug-In . SVG Version: 6.00 Build 0)  -->
<svg version="1.1" id="Layer_1" xmlns="http://www.w3.org/2000/svg" xmlns:xlink="http://www.w3.org/1999/xlink" x="0px" y="0px"
	 viewBox="-283 399.3 566.9 42.5" style="enable-background:new -283 399.3 566.9 42.5;" xml:space="preserve">
<style type="text/css">
	.st0{fill:#F5EBE6;}
</style>
<g>
	<path class="st0" d="M5,415.6v9.9c0,0.6,0.2,1.1,0.5,1.4c0.4,0.3,0.8,0.5,1.3,0.5c0.5,0,0.9-0.2,1.3-0.5c0.4-0.3,0.5-0.8,0.5-1.4
		v-9.9c0-0.6-0.2-1.1-0.5-1.4c-0.4-0.3-0.8-0.5-1.3-0.5c-0.5,0-0.9,0.2-1.3,0.5C5.2,414.5,5,415,5,415.6z"/>
	<path class="st0" d="M13.7,411.3H8.5c0,0,0,0,0,0c0.5,0.2,1,0.5,1.5,0.8c0.4,0.4,0.8,0.9,1,1.4c0.3,0.6,0.4,1.2,0.4,2v9.9
		c0,0.8-0.1,1.5-0.4,2c-0.3,0.6-0.6,1-1,1.4c-0.4,0.4-0.9,0.7-1.5,0.9c0,0,0,0,0,0h5.3V411.3z"/>
	<path class="st0" d="M19.3,414.3c-0.3-0.4-1-0.6-1.8-0.6h-1.1v5.1h1.2c0.9,0,1.5-0.2,1.8-0.7c0.3-0.4,0.5-1.1,0.5-2
		C19.8,415.4,19.7,414.8,19.3,414.3z"/>
	<polygon class="st0" points="-7.2,411.3 -13.8,411.3 -13.8,413.7 -19.1,413.7 -19.1,419.4 -14.5,419.4 -14.5,421.9 -19.1,421.9 
		-19.1,429.8 -7.2,429.8 	"/>
	<path class="st0" d="M5.3,429.8C5.3,429.8,5.3,429.7,5.3,429.8c-0.6-0.2-1-0.5-1.4-0.9c-0.4-0.4-0.8-0.8-1.1-1.4
		c-0.3-0.6-0.4-1.2-0.4-2v-9.9c0-0.8,0.1-1.4,0.4-2c0.3-0.6,0.6-1.1,1.1-1.4c0.4-0.4,0.9-0.6,1.4-0.8c0,0,0,0,0,0h-9.8v15.9h5.3v2.5
		H5.3z"/>
	<path class="st0" d="M-31.9,429.8v-2.4l4.8-9.1c0.2-0.5,0.4-0.9,0.4-1.2c0-0.3,0.1-0.8,0.1-1.3c0-0.2,0-0.5,0-0.7
		c0-0.3-0.1-0.5-0.1-0.7c-0.1-0.2-0.2-0.4-0.4-0.5c-0.2-0.1-0.4-0.2-0.8-0.2c-0.4,0-0.7,0.1-1,0.3c-0.2,0.2-0.4,0.6-0.4,1v1.5h-2.7
		v-1.5c0-0.6,0.1-1.1,0.3-1.6c0.2-0.5,0.5-0.9,0.9-1.3c0.3-0.4,0.8-0.7,1.3-0.9c0,0,0.1,0,0.1,0h-11.4v18.4h4.1v-2.5h2.7v2.5H-31.9z
		"/>
	<path class="st0" d="M-21.8,429.8v-18.4h-4.6c0.1,0,0.2,0.1,0.3,0.1c0.5,0.3,0.9,0.6,1.2,1c0.3,0.4,0.5,0.9,0.7,1.5
		c0.1,0.6,0.2,1.2,0.2,1.8c0,0.5,0,0.8,0,1.1c0,0.3-0.1,0.6-0.1,0.9c-0.1,0.3-0.1,0.6-0.3,0.8c-0.1,0.3-0.3,0.6-0.5,1l-3.9,7.6h4.8
		v2.5H-21.8z"/>
	<path class="st0" d="M18.7,421.4c-0.3-0.1-0.7-0.2-1.2-0.2h-1.2v6h1.2c0.5,0,1-0.1,1.3-0.2c0.3-0.2,0.5-0.4,0.7-0.7
		c0.2-0.3,0.3-0.6,0.3-1c0-0.4,0.1-0.8,0.1-1.3c0-0.5,0-0.9-0.1-1.2c-0.1-0.3-0.2-0.6-0.3-0.9C19.3,421.7,19,421.5,18.7,421.4z"/>
	<path class="st0" d="M24.9,411.3h-6c0.3,0.1,0.6,0.1,0.9,0.3c0.6,0.3,1.1,0.6,1.5,1c0.4,0.4,0.7,0.9,0.8,1.5
		c0.2,0.6,0.2,1.2,0.2,1.8v0.7c0,0.5,0,0.9-0.1,1.3c-0.1,0.3-0.2,0.7-0.4,0.9c-0.3,0.5-0.8,0.9-1.4,1.3c0.6,0.3,1.1,0.7,1.4,1.3
		c0.3,0.6,0.4,1.4,0.4,2.4v1c0,1.6-0.4,2.9-1.2,3.8c-0.6,0.6-1.4,1-2.4,1.2h6.1V411.3z"/>
	<polygon class="st0" points="37.7,411.3 39.9,418.6 39.9,418.6 42,411.3 	"/>
	<polygon class="st0" points="44.9,411.3 41.2,422 41.2,429.8 283.9,429.8 283.9,411.3 	"/>
	<polygon class="st0" points="-43.3,414 -46,416 -46,413.2 -43.5,411.3 -285,411.3 -285,429.8 -43.3,429.8 	"/>
	<path class="st0" d="M30.5,414.3c-0.3-0.4-1-0.6-1.8-0.6h-1.1v5.1h1.2c0.9,0,1.5-0.2,1.8-0.7c0.3-0.4,0.5-1.1,0.5-2
		C31,415.4,30.8,414.8,30.5,414.3z"/>
	<path class="st0" d="M29.9,421.4c-0.3-0.1-0.7-0.2-1.2-0.2h-1.2v6h1.2c0.5,0,1-0.1,1.3-0.2c0.3-0.2,0.5-0.4,0.7-0.7
		c0.2-0.3,0.3-0.6,0.3-1c0-0.4,0.1-0.8,0.1-1.3c0-0.5,0-0.9-0.1-1.2s-0.2-0.6-0.3-0.9C30.4,421.7,30.2,421.5,29.9,421.4z"/>
	<path class="st0" d="M38.5,422l-3.6-10.7h-4.8c0.3,0.1,0.6,0.1,0.9,0.3c0.6,0.3,1.1,0.6,1.5,1c0.4,0.4,0.7,0.9,0.8,1.5
		c0.2,0.6,0.2,1.2,0.2,1.8v0.7c0,0.5,0,0.9-0.1,1.3c-0.1,0.3-0.2,0.7-0.4,0.9c-0.3,0.5-0.8,0.9-1.4,1.3c0.6,0.3,1.1,0.7,1.4,1.3
		c0.3,0.6,0.4,1.4,0.4,2.4v1c0,1.6-0.4,2.9-1.2,3.8c-0.6,0.6-1.4,1-2.4,1.2h8.6V422z"/>
</g>
</svg>
