<svg id="Layer_1" xmlns="http://www.w3.org/2000/svg" viewBox="-283 399.3 566.9 42.5"><style>.st0{fill:#f5ebe6}</style><path class="st0" d="M287.1 430.8v-18.5m-312.2 4.3v9.9c0 .6.2 1.1.5 1.4.4.3.8.5 1.3.5s.9-.2 1.3-.5.5-.8.5-1.4v-9.9c0-.6-.2-1.1-.5-1.4-.4-.3-.8-.5-1.3-.5s-.9.2-1.3.5c-.3.3-.5.8-.5 1.4z"/><path class="st0" d="M-24.9 430.7c-.5-.2-1-.5-1.4-.9-.4-.4-.8-.8-1.1-1.4-.3-.6-.4-1.2-.4-2v-9.9c0-.8.1-1.4.4-2 .3-.6.6-1.1 1.1-1.4.4-.4.9-.6 1.4-.8h-8.3c2.3.5 3.5 2.2 3.5 5.4 0 1.1-.2 2-.5 2.8-.3.8-.9 1.4-1.8 1.9l2.8 8.4 4.3-.1c.1.1.1 0 0 0zm11.2 0c-.5-.2-1-.5-1.4-.9-.4-.4-.8-.8-1.1-1.4-.3-.6-.4-1.2-.4-2v-9.9c0-.8.1-1.4.4-2 .3-.6.6-1.1 1.1-1.4.4-.4.9-.6 1.4-.8h-8c.5.2 1 .5 1.5.8.4.4.8.9 1 1.4.3.6.4 1.2.4 2v9.9c0 .8-.1 1.5-.4 2-.3.6-.6 1-1 1.4-.4.4-.9.7-1.5.9h8c0 .1 0 0 0 0zm47.9-18.4c.2 0 .5.1.7.2.6.2 1.1.5 1.5 1 .5.5.8 1.1.9 1.7.2.7.3 1.5.3 2.7 0 .8 0 1.5-.1 2.1-.1.6-.3 1.1-.6 1.6-.4.6-.9 1.1-1.5 1.4-.6.3-1.4.5-2.4.5h-1.4v7.2h253.3v-18.4H34.2z"/><path class="st0" d="M-13.9 416.6v9.9c0 .6.2 1.1.5 1.4.4.3.8.5 1.3.5s.9-.2 1.3-.5.5-.8.5-1.4v-9.9c0-.6-.2-1.1-.5-1.4-.4-.3-.8-.5-1.3-.5s-.9.2-1.3.5c-.3.3-.5.8-.5 1.4zM-32 430.8l-2.5-7.9h-1.6v7.9zm-2.5-10.3c.5 0 .8-.1 1.1-.2.3-.1.5-.3.7-.6.1-.2.2-.5.3-.9.1-.4.1-.8.1-1.2 0-.5 0-.9-.1-1.2-.1-.4-.2-.7-.3-.9-.3-.5-1-.7-1.9-.7H-36v5.8h1.5zm66.1.6h1.3c.5 0 1-.1 1.3-.2.3-.2.5-.4.7-.7.1-.3.2-.6.2-1v-2.5c0-.4-.1-.7-.2-1-.1-.3-.4-.5-.6-.7-.3-.2-.7-.2-1.2-.2h-1.4v6.3zm-2.7-8.8h-5.3c.5.2 1 .5 1.5.8.4.4.8.9 1 1.4.3.6.4 1.2.4 2v9.9c0 .8-.1 1.5-.4 2-.3.6-.6 1-1 1.4-.4.4-.9.7-1.5.9h5.3v-18.4z"/><path class="st0" d="M-5.2 412.3h-5.3c.5.2 1 .5 1.5.8.4.4.8.9 1 1.4.3.6.4 1.2.4 2v9.9c0 .8-.1 1.5-.4 2-.3.6-.6 1-1 1.4-.4.4-.9.7-1.5.9h5.3v-18.4zm25.5 4.3v9.9c0 .6.2 1.1.5 1.4.4.3.8.5 1.3.5s.9-.2 1.3-.5.5-.8.5-1.4v-9.9c0-.6-.2-1.1-.5-1.4-.4-.3-.8-.5-1.3-.5s-.9.2-1.3.5c-.3.3-.5.8-.5 1.4zm-305.3-4.3h246.3v18.4H-285zm296.1 2.4H8v-2.4H2.8v2.4h-5.3v5.7h4.6v2.5h-4.6v7.9h13.6z"/><path class="st0" d="M20.5 430.7c-.5-.2-1-.5-1.4-.9-.4-.4-.8-.8-1.1-1.4-.3-.6-.4-1.2-.4-2v-9.9c0-.8.1-1.4.4-2 .3-.6.6-1.1 1.1-1.4.4-.4.9-.6 1.4-.8h-3.6v2.4h-3.1v16h6.7c0 .1 0 0 0 0z"/></svg>