<?xml version="1.0" encoding="utf-8"?>
<!-- Generator: Adobe Illustrator 19.0.0, SVG Export Plug-In . SVG Version: 6.00 Build 0)  -->
<svg version="1.1" id="Layer_1" xmlns="http://www.w3.org/2000/svg" xmlns:xlink="http://www.w3.org/1999/xlink" x="0px" y="0px"
	 viewBox="0 0 566.9 42.5" style="enable-background:new 0 0 566.9 42.5;" xml:space="preserve">
<style type="text/css">
	.st0{fill:rgb(235,215,215);}
</style>
<g id="XMLID_379_">
	<path id="XMLID_979_" class="st0" d="M1164.9,814.5h-2.9v-2.1h-4.4c0.7,0.3,1.3,0.7,1.8,1.3c0.5,0.7,0.9,1.7,1.1,3
		c0.2,1.2,0.3,3,0.3,5.3c0,3.3-0.4,5.6-1.1,7c-0.5,0.9-1.1,1.5-2,1.8h7.1V814.5z"/>
	<path id="XMLID_980_" class="st0" d="M1154.3,815.8c-0.3,1-0.4,2.9-0.4,5.9c0,2.7,0.2,4.6,0.5,5.6c0.3,1,0.9,1.5,1.8,1.5
		c0.8,0,1.4-0.5,1.7-1.4c0.3-0.9,0.5-2.6,0.5-5.1c0-3.2-0.1-5.3-0.4-6.4c-0.3-1.1-0.9-1.6-1.8-1.6
		C1155.2,814.4,1154.6,814.9,1154.3,815.8z"/>
	<path id="XMLID_981_" class="st0" d="M1172.4,828.9c-0.7-1.4-1.1-4-1.1-7.7c0-3.3,0.4-5.6,1.1-7c0.5-0.9,1.1-1.5,2-1.8h-4.2v2.1
		h-2.8v16.3h7.2C1173.6,830.5,1172.9,829.8,1172.4,828.9z"/>
	<path id="XMLID_982_" class="st0" d="M1184.2,829c-0.7-1.4-1.1-3.9-1.1-7.3c0-3.9,0.4-6.5,1.2-7.8c0.5-0.8,1.1-1.2,1.9-1.5h-8.5
		c0.7,0.3,1.3,0.7,1.8,1.3c0.5,0.7,0.9,1.7,1.1,3c0.2,1.2,0.3,3,0.3,5.3c0,3.3-0.4,5.6-1.1,7c-0.5,0.9-1.1,1.5-2,1.8h8.3
		C1185.4,830.5,1184.7,829.9,1184.2,829z"/>
	<path id="XMLID_983_" class="st0" d="M1174.4,815.8c-0.3,1-0.4,2.9-0.4,5.9c0,2.7,0.2,4.6,0.5,5.6c0.3,1,0.9,1.5,1.8,1.5
		c0.8,0,1.4-0.5,1.7-1.4c0.3-0.9,0.5-2.6,0.5-5.1c0-3.2-0.1-5.3-0.4-6.4c-0.3-1.1-0.9-1.6-1.8-1.6
		C1175.3,814.4,1174.7,814.9,1174.4,815.8z"/>
	<rect id="XMLID_984_" x="1142.6" y="812.4" class="st0" width="3.7" height="7.2"/>
	<path id="XMLID_985_" class="st0" d="M1152.3,828.9c-0.7-1.4-1.1-4-1.1-7.7c0-3.3,0.4-5.6,1.1-7c0.5-0.9,1.1-1.5,2-1.8h-5.5v18.4
		h5.7C1153.5,830.5,1152.8,829.8,1152.3,828.9z"/>
	<path id="XMLID_986_" class="st0" d="M1140.1,830.8v-18.4h-5.8c1.2,0.1,2.2,0.5,2.8,1.2c0.7,0.8,1.1,2.1,1.1,3.8
		c0,2.5-0.7,4.1-2.2,4.8c-0.7,0.3-1.8,0.5-3.2,0.5v8.2H1140.1z"/>
	<path id="XMLID_987_" class="st0" d="M1135,819.9c0.4-0.4,0.6-1.2,0.6-2.3c0-1.1-0.2-1.9-0.6-2.4c-0.4-0.5-1-0.8-1.8-0.8h-0.3v6.1
		C1133.9,820.5,1134.6,820.3,1135,819.9z"/>
	<rect id="XMLID_988_" x="1142.6" y="821.7" class="st0" width="3.7" height="9.1"/>
	<path id="XMLID_989_" class="st0" d="M1191.5,829.2c-0.4,0.8-1,1.4-1.8,1.7h5.2v-18.4h-5.3c0.4,0.1,0.8,0.3,1.1,0.6
		c0.7,0.6,1.2,1.6,1.6,2.9l-2.3,1c-0.1-0.5-0.2-0.9-0.3-1.2c-0.1-0.3-0.3-0.6-0.4-0.8c-0.3-0.4-0.8-0.6-1.4-0.6
		c-0.8,0-1.4,0.5-1.7,1.5c-0.3,1.1-0.5,3-0.5,5.8c0,2.8,0.2,4.7,0.5,5.7c0.3,1,0.9,1.5,1.8,1.5c0.8,0,1.3-0.4,1.7-1.1
		c0.3-0.8,0.5-2,0.5-3.6v-0.5v-0.4h-2.2v-2.1h4.5v0.7C1192.4,825.5,1192.1,827.9,1191.5,829.2z"/>
	<path id="XMLID_990_" class="st0" d="M1219.9,819.9c0.4-0.4,0.6-1.2,0.6-2.3c0-1.1-0.2-1.9-0.6-2.4c-0.4-0.5-1-0.8-1.8-0.8h-0.3
		v6.1C1218.8,820.5,1219.5,820.3,1219.9,819.9z"/>
	<rect id="XMLID_991_" x="1227.5" y="821.7" class="st0" width="3.7" height="9.1"/>
	<path id="XMLID_992_" class="st0" d="M1197.4,820.6c1,0,1.7-0.2,2.1-0.7s0.6-1.2,0.6-2.3c0-0.6,0-1.1-0.1-1.5
		c-0.1-0.4-0.2-0.7-0.4-1c-0.2-0.3-0.4-0.4-0.7-0.6s-0.6-0.2-1-0.2h-0.4V820.6z"/>
	<rect id="XMLID_993_" x="898.5" y="812.4" class="st0" width="231.8" height="18.4"/>
	<path id="XMLID_994_" class="st0" d="M1225,812.4h-5.8c1.2,0.1,2.2,0.5,2.8,1.2c0.7,0.8,1.1,2.1,1.1,3.8c0,2.5-0.7,4.1-2.2,4.8
		c-0.7,0.3-1.8,0.5-3.2,0.5v8.2h7.2V812.4z"/>
	<rect id="XMLID_995_" x="1233.7" y="812.4" class="st0" width="231.8" height="18.4"/>
	<rect id="XMLID_996_" x="1227.5" y="812.4" class="st0" width="3.7" height="7.2"/>
	<path id="XMLID_997_" class="st0" d="M1207.9,812.4h-9c1,0.1,1.8,0.4,2.4,0.9c0.8,0.8,1.3,2.1,1.3,3.9c0,1.3-0.2,2.4-0.7,3.2
		c-0.4,0.8-1.1,1.3-1.9,1.5l3.4,9h0.6L1207.9,812.4z"/>
	<polygon id="XMLID_998_" class="st0" points="1197.4,821.8 1197.4,830.8 1200.8,830.8 	"/>
	<polygon id="XMLID_999_" class="st0" points="1210.7,827.3 1207,827.3 1206.3,830.8 1211.3,830.8 	"/>
	<polygon id="XMLID_1000_" class="st0" points="1215.3,812.4 1209.9,812.4 1213.8,830.8 1215.3,830.8 	"/>
	<path id="XMLID_1001_" class="st0" d="M1207.8,823l-0.5,2.4h3l-0.6-3c-0.4-2-0.7-4.2-0.9-6.4c-0.1,1.1-0.3,2.2-0.4,3.4
		C1208.2,820.5,1208,821.7,1207.8,823z"/>
</g>
<g id="XMLID_81_">
	<path id="XMLID_82_" class="st0" d="M265.9,14.7h-2.9v-2.1h-4.4c0.7,0.3,1.3,0.7,1.8,1.3c0.5,0.7,0.9,1.7,1.1,3
		c0.2,1.2,0.3,3,0.3,5.3c0,3.3-0.4,5.6-1.1,7c-0.5,0.9-1.1,1.5-2,1.8h7.1V14.7z"/>
	<path id="XMLID_107_" class="st0" d="M292.5,29.4c-0.4,0.8-1,1.4-1.8,1.7h5.2V12.6h-5.3c0.4,0.1,0.8,0.3,1.1,0.6
		c0.7,0.6,1.2,1.6,1.6,2.9l-2.3,1c-0.1-0.5-0.2-0.9-0.3-1.2c-0.1-0.3-0.3-0.6-0.4-0.8c-0.3-0.4-0.8-0.6-1.4-0.6
		c-0.8,0-1.4,0.5-1.7,1.5c-0.3,1.1-0.5,3-0.5,5.8c0,2.8,0.2,4.7,0.5,5.7c0.3,1,0.9,1.5,1.8,1.5c0.8,0,1.3-0.4,1.7-1.1
		c0.3-0.8,0.5-2,0.5-3.6v-0.5v-0.4h-2.2v-2.1h4.5v0.7C293.4,25.7,293.1,28.1,292.5,29.4z"/>
	<path id="XMLID_111_" class="st0" d="M273.4,29.1c-0.7-1.4-1.1-4-1.1-7.7c0-3.3,0.4-5.6,1.1-7c0.5-0.9,1.1-1.5,2-1.8h-4.2v2.1h-2.8
		V31h7.2C274.6,30.7,273.9,30,273.4,29.1z"/>
	<path id="XMLID_112_" class="st0" d="M275.4,16c-0.3,1-0.4,2.9-0.4,5.9c0,2.7,0.2,4.6,0.5,5.6c0.3,1,0.9,1.5,1.8,1.5
		c0.8,0,1.4-0.5,1.7-1.4c0.3-0.9,0.5-2.6,0.5-5.1c0-3.2-0.1-5.3-0.4-6.4c-0.3-1.1-0.9-1.6-1.8-1.6C276.3,14.6,275.7,15.1,275.4,16z"
		/>
	<path id="XMLID_113_" class="st0" d="M285.2,29.2c-0.7-1.4-1.1-3.9-1.1-7.3c0-3.9,0.4-6.5,1.2-7.8c0.5-0.8,1.1-1.2,1.9-1.5h-8.5
		c0.7,0.3,1.3,0.7,1.8,1.3c0.5,0.7,0.9,1.7,1.1,3c0.2,1.2,0.3,3,0.3,5.3c0,3.3-0.4,5.6-1.1,7c-0.5,0.9-1.1,1.5-2,1.8h8.3
		C286.4,30.7,285.7,30.1,285.2,29.2z"/>
	<path id="XMLID_114_" class="st0" d="M255.3,16c-0.3,1-0.4,2.9-0.4,5.9c0,2.7,0.2,4.6,0.5,5.6c0.3,1,0.9,1.5,1.8,1.5
		c0.8,0,1.4-0.5,1.7-1.4c0.3-0.9,0.5-2.6,0.5-5.1c0-3.2-0.1-5.3-0.4-6.4c-0.3-1.1-0.9-1.6-1.8-1.6S255.6,15.1,255.3,16z"/>
	<path id="XMLID_115_" class="st0" d="M241.1,31V12.6h-5.8c1.2,0.1,2.2,0.5,2.8,1.2c0.7,0.8,1.1,2.1,1.1,3.8c0,2.5-0.7,4.1-2.2,4.8
		c-0.7,0.3-1.8,0.5-3.2,0.5V31H241.1z"/>
	<path id="XMLID_116_" class="st0" d="M236,20.1c0.4-0.4,0.6-1.2,0.6-2.3c0-1.1-0.2-1.9-0.6-2.4c-0.4-0.5-1-0.8-1.8-0.8h-0.3v6.1
		C234.9,20.7,235.6,20.5,236,20.1z"/>
	<path id="XMLID_117_" class="st0" d="M253.3,29.1c-0.7-1.4-1.1-4-1.1-7.7c0-3.3,0.4-5.6,1.1-7c0.5-0.9,1.1-1.5,2-1.8h-5.5V31h5.7
		C254.5,30.7,253.8,30,253.3,29.1z"/>
	<rect id="XMLID_118_" x="243.6" y="12.6" class="st0" width="3.7" height="7.2"/>
	<rect id="XMLID_119_" x="243.6" y="21.9" class="st0" width="3.7" height="9.1"/>
	<path id="XMLID_120_" class="st0" d="M326,12.6h-5.8c1.2,0.1,2.2,0.5,2.8,1.2c0.7,0.8,1.1,2.1,1.1,3.8c0,2.5-0.7,4.1-2.2,4.8
		c-0.7,0.3-1.8,0.5-3.2,0.5V31h7.2V12.6z"/>
	<rect id="XMLID_121_" x="328.5" y="12.6" class="st0" width="3.7" height="7.2"/>
	<rect id="XMLID_122_" x="328.5" y="21.9" class="st0" width="3.7" height="9.1"/>
	<path id="XMLID_123_" class="st0" d="M298.4,20.8c1,0,1.7-0.2,2.1-0.7c0.4-0.4,0.6-1.2,0.6-2.3c0-0.6,0-1.1-0.1-1.5
		c-0.1-0.4-0.2-0.7-0.4-1c-0.2-0.3-0.4-0.4-0.7-0.6s-0.6-0.2-1-0.2h-0.4V20.8z"/>
	<path id="XMLID_124_" class="st0" d="M320.9,20.1c0.4-0.4,0.6-1.2,0.6-2.3c0-1.1-0.2-1.9-0.6-2.4c-0.4-0.5-1-0.8-1.8-0.8h-0.3v6.1
		C319.8,20.7,320.5,20.5,320.9,20.1z"/>
	<rect id="XMLID_125_" x="-0.4" y="12.6" class="st0" width="231.8" height="18.4"/>
	<rect id="XMLID_126_" x="334.7" y="12.6" class="st0" width="231.8" height="18.4"/>
	<polygon id="XMLID_127_" class="st0" points="316.3,12.6 310.9,12.6 314.8,31 316.3,31 	"/>
	<path id="XMLID_128_" class="st0" d="M308.9,12.6h-9c1,0.1,1.8,0.4,2.4,0.9c0.8,0.8,1.3,2.1,1.3,3.9c0,1.3-0.2,2.4-0.7,3.2
		c-0.4,0.8-1.1,1.3-1.9,1.5l3.4,9h0.6L308.9,12.6z"/>
	<polygon id="XMLID_129_" class="st0" points="298.4,22 298.4,31 301.8,31 	"/>
	<polygon id="XMLID_130_" class="st0" points="311.7,27.5 308,27.5 307.3,31 312.4,31 	"/>
	<path id="XMLID_131_" class="st0" d="M308.8,23.2l-0.5,2.4h3l-0.6-3c-0.4-2-0.7-4.2-0.9-6.4c-0.1,1.1-0.3,2.2-0.4,3.4
		C309.3,20.7,309,21.9,308.8,23.2z"/>
</g>
</svg>
