<?xml version="1.0" encoding="utf-8"?>
<!-- Generator: Adobe Illustrator 19.0.0, SVG Export Plug-In . SVG Version: 6.00 Build 0)  -->
<svg version="1.1" id="Layer_1" xmlns="http://www.w3.org/2000/svg" xmlns:xlink="http://www.w3.org/1999/xlink" x="0px" y="0px"
	 viewBox="-283 400.2 566.9 56.7" style="enable-background:new -283 400.2 566.9 56.7;" xml:space="preserve">
<style type="text/css">
	.st0{fill:#F5EBE6;}
</style>
<g id="XMLID_379_">
	<path id="XMLID_979_" class="st0" d="M881.9,1237.9H879v-2.1h-4.4c0.7,0.3,1.3,0.7,1.8,1.3c0.5,0.7,0.9,1.7,1.1,3
		c0.2,1.2,0.3,3,0.3,5.3c0,3.3-0.4,5.6-1.1,7c-0.5,0.9-1.1,1.5-2,1.8h7.1L881.9,1237.9L881.9,1237.9z"/>
	<path id="XMLID_980_" class="st0" d="M871.3,1239.2c-0.3,1-0.4,2.9-0.4,5.9c0,2.7,0.2,4.6,0.5,5.6s0.9,1.5,1.8,1.5
		c0.8,0,1.4-0.5,1.7-1.4c0.3-0.9,0.5-2.6,0.5-5.1c0-3.2-0.1-5.3-0.4-6.4s-0.9-1.6-1.8-1.6C872.2,1237.8,871.6,1238.3,871.3,1239.2z"
		/>
	<path id="XMLID_981_" class="st0" d="M889.4,1252.3c-0.7-1.4-1.1-4-1.1-7.7c0-3.3,0.4-5.6,1.1-7c0.5-0.9,1.1-1.5,2-1.8h-4.2v2.1
		h-2.8v16.3h7.2C890.6,1253.9,889.9,1253.2,889.4,1252.3z"/>
	<path id="XMLID_982_" class="st0" d="M901.2,1252.3c-0.7-1.4-1.1-3.9-1.1-7.3c0-3.9,0.4-6.5,1.2-7.8c0.5-0.8,1.1-1.2,1.9-1.5h-8.5
		c0.7,0.3,1.3,0.7,1.8,1.3c0.5,0.7,0.9,1.7,1.1,3c0.2,1.2,0.3,3,0.3,5.3c0,3.3-0.4,5.6-1.1,7c-0.5,0.9-1.1,1.5-2,1.8h8.3
		C902.4,1253.9,901.7,1253.3,901.2,1252.3z"/>
	<path id="XMLID_983_" class="st0" d="M891.4,1239.2c-0.3,1-0.4,2.9-0.4,5.9c0,2.7,0.2,4.6,0.5,5.6s0.9,1.5,1.8,1.5
		c0.8,0,1.4-0.5,1.7-1.4c0.3-0.9,0.5-2.6,0.5-5.1c0-3.2-0.1-5.3-0.4-6.4s-0.9-1.6-1.8-1.6C892.3,1237.8,891.7,1238.3,891.4,1239.2z"
		/>
	<rect id="XMLID_984_" x="859.6" y="1235.8" class="st0" width="3.7" height="7.2"/>
	<path id="XMLID_985_" class="st0" d="M869.3,1252.3c-0.7-1.4-1.1-4-1.1-7.7c0-3.3,0.4-5.6,1.1-7c0.5-0.9,1.1-1.5,2-1.8h-5.5v18.4
		h5.7C870.5,1253.9,869.8,1253.2,869.3,1252.3z"/>
	<path id="XMLID_986_" class="st0" d="M857.1,1254.2v-18.4h-5.8c1.2,0.1,2.2,0.5,2.8,1.2c0.7,0.8,1.1,2.1,1.1,3.8
		c0,2.5-0.7,4.1-2.2,4.8c-0.7,0.3-1.8,0.5-3.2,0.5v8.2L857.1,1254.2L857.1,1254.2z"/>
	<path id="XMLID_987_" class="st0" d="M852,1243.3c0.4-0.4,0.6-1.2,0.6-2.3s-0.2-1.9-0.6-2.4s-1-0.8-1.8-0.8h-0.3v6.1
		C850.9,1243.9,851.6,1243.7,852,1243.3z"/>
	<rect id="XMLID_988_" x="859.6" y="1245.1" class="st0" width="3.7" height="9.1"/>
	<path id="XMLID_989_" class="st0" d="M908.5,1252.6c-0.4,0.8-1,1.4-1.8,1.7h5.2v-18.4h-5.3c0.4,0.1,0.8,0.3,1.1,0.6
		c0.7,0.6,1.2,1.6,1.6,2.9l-2.3,1c-0.1-0.5-0.2-0.9-0.3-1.2c-0.1-0.3-0.3-0.6-0.4-0.8c-0.3-0.4-0.8-0.6-1.4-0.6
		c-0.8,0-1.4,0.5-1.7,1.5c-0.3,1.1-0.5,3-0.5,5.8c0,2.8,0.2,4.7,0.5,5.7s0.9,1.5,1.8,1.5c0.8,0,1.3-0.4,1.7-1.1
		c0.3-0.8,0.5-2,0.5-3.6v-0.6v-0.4H905v-2.1h4.5v0.7C909.4,1248.9,909.1,1251.3,908.5,1252.6z"/>
	<path id="XMLID_990_" class="st0" d="M936.9,1243.3c0.4-0.4,0.6-1.2,0.6-2.3s-0.2-1.9-0.6-2.4s-1-0.8-1.8-0.8h-0.3v6.1
		C935.8,1243.9,936.5,1243.7,936.9,1243.3z"/>
	<rect id="XMLID_991_" x="944.5" y="1245.1" class="st0" width="3.7" height="9.1"/>
	<path id="XMLID_992_" class="st0" d="M914.4,1244c1,0,1.7-0.2,2.1-0.7s0.6-1.2,0.6-2.3c0-0.6,0-1.1-0.1-1.5s-0.2-0.7-0.4-1
		c-0.2-0.3-0.4-0.4-0.7-0.6s-0.6-0.2-1-0.2h-0.4L914.4,1244L914.4,1244z"/>
	<rect id="XMLID_993_" x="615.5" y="1235.8" class="st0" width="231.8" height="18.4"/>
	<path id="XMLID_994_" class="st0" d="M942,1235.8h-5.8c1.2,0.1,2.2,0.5,2.8,1.2c0.7,0.8,1.1,2.1,1.1,3.8c0,2.5-0.7,4.1-2.2,4.8
		c-0.7,0.3-1.8,0.5-3.2,0.5v8.2h7.2L942,1235.8L942,1235.8z"/>
	<rect id="XMLID_995_" x="950.7" y="1235.8" class="st0" width="231.8" height="18.4"/>
	<rect id="XMLID_996_" x="944.5" y="1235.8" class="st0" width="3.7" height="7.2"/>
	<path id="XMLID_997_" class="st0" d="M924.9,1235.8h-9c1,0.1,1.8,0.4,2.4,0.9c0.8,0.8,1.3,2.1,1.3,3.9c0,1.3-0.2,2.4-0.7,3.2
		c-0.4,0.8-1.1,1.3-1.9,1.5l3.4,9h0.6L924.9,1235.8z"/>
	<polygon id="XMLID_998_" class="st0" points="914.4,1245.2 914.4,1254.2 917.8,1254.2 	"/>
	<polygon id="XMLID_999_" class="st0" points="927.7,1250.7 924,1250.7 923.3,1254.2 928.3,1254.2 	"/>
	<polygon id="XMLID_1000_" class="st0" points="932.3,1235.8 926.9,1235.8 930.8,1254.2 932.3,1254.2 	"/>
	<path id="XMLID_1001_" class="st0" d="M924.8,1246.4l-0.5,2.4h3l-0.6-3c-0.4-2-0.7-4.2-0.9-6.4c-0.1,1.1-0.3,2.2-0.4,3.4
		C925.2,1243.9,925,1245.1,924.8,1246.4z"/>
</g>
<g id="XMLID_81_">
	<polygon id="XMLID_1040_" class="st0" points="-13.5,440.3 -17.2,440.3 -17.9,443.9 -12.8,443.9 	"/>
	<polygon id="XMLID_1039_" class="st0" points="-8.9,425.4 -14.3,425.4 -10.3,443.9 -8.9,443.9 	"/>
	<path id="XMLID_1038_" class="st0" d="M-16.2,425.4h-9.1c2.4,0.2,3.6,1.8,3.6,4.9c0,1.3-0.2,2.2-0.5,2.8c-0.3,0.6-1,1.1-1.8,1.4
		c1,0.4,1.7,0.9,2.1,1.5s0.6,1.5,0.6,2.8c0,3.1-1.2,4.8-3.6,5h4.8L-16.2,425.4z"/>
	<path id="XMLID_1037_" class="st0" d="M-26.3,427.4h-0.2h-0.1c-0.1,0-0.1,0-0.1,0v6.1c1,0,1.6-0.2,2-0.7s0.6-1.3,0.6-2.5
		C-24.1,428.4-24.8,427.4-26.3,427.4z"/>
	<path id="XMLID_1036_" class="st0" d="M-16.4,436l-0.5,2.4h3l-0.6-2.9c-0.4-2-0.7-4.1-0.9-6.4c-0.1,1.1-0.3,2.2-0.4,3.4
		C-15.9,433.5-16.1,434.7-16.4,436z"/>
	<path id="XMLID_1035_" class="st0" d="M-26.7,441.8c1,0,1.7-0.2,2.1-0.7c0.4-0.4,0.6-1.2,0.6-2.4c0-1.2-0.2-2-0.6-2.5
		s-1.1-0.7-2.1-0.7V441.8z"/>
	<path id="XMLID_1034_" class="st0" d="M-46.5,441.8c0.7,0,1.2-0.2,1.4-0.6s0.4-1.2,0.4-2.4v-13.4h-3.6v13c0,1.3,0.1,2.2,0.4,2.7
		C-47.7,441.6-47.2,441.8-46.5,441.8z"/>
	<path id="XMLID_1033_" class="st0" d="M-39.4,425.4h-2.9v13.4c0,2-0.3,3.4-0.9,4.1c-0.4,0.4-0.9,0.7-1.5,0.9h5.2L-39.4,425.4
		L-39.4,425.4z"/>
	<path id="XMLID_1032_" class="st0" d="M-29,425.4h-6.6c1.1,0.1,2,0.4,2.5,0.9c0.8,0.8,1.3,2.1,1.3,3.8c0,1.3-0.2,2.4-0.7,3.2
		c-0.4,0.8-1.1,1.3-1.9,1.5l3.4,8.9h2V425.4z"/>
	<path id="XMLID_1031_" class="st0" d="M-34.9,432.9c0.4-0.4,0.6-1.2,0.6-2.3c0-0.6,0-1.1-0.1-1.5c-0.1-0.4-0.2-0.7-0.4-1
		c-0.2-0.3-0.4-0.4-0.7-0.6c-0.3-0.1-0.6-0.2-1-0.2h-0.4v6.2C-35.9,433.6-35.3,433.4-34.9,432.9z"/>
	<polygon id="XMLID_1030_" class="st0" points="-36.9,434.8 -36.9,443.9 -33.5,443.9 	"/>
	<polygon id="XMLID_1029_" class="st0" points="45.1,443.9 45.1,425.4 39.4,425.4 39.4,441.8 43.5,441.8 43.5,443.9 	"/>
	<path id="XMLID_1028_" class="st0" d="M29.4,436l-0.5,2.4h3l-0.6-2.9c-0.4-2-0.7-4.1-0.9-6.4c-0.1,1.1-0.3,2.2-0.4,3.4
		C29.9,433.5,29.7,434.7,29.4,436z"/>
	<polygon id="XMLID_1027_" class="st0" points="36.9,425.4 31.5,425.4 35.5,443.9 36.9,443.9 	"/>
	<polygon id="XMLID_1026_" class="st0" points="32.3,440.3 28.6,440.3 27.9,443.9 33,443.9 	"/>
	<polygon id="XMLID_1025_" class="st0" points="51.7,425.4 51.7,427.5 47.6,427.5 47.6,433.4 51.2,433.4 51.2,435.5 47.6,435.5 
		47.6,441.8 51.7,441.8 51.7,443.9 283.9,443.9 283.9,425.4 	"/>
	<path id="XMLID_1024_" class="st0" d="M-50.1,442.6c-0.5-0.7-0.7-2.1-0.7-4.1v-13H-283v18.4h234.7
		C-49.1,443.6-49.7,443.2-50.1,442.6z"/>
	<path id="XMLID_1023_" class="st0" d="M-6.5,425.4l2.5,7.4c0.7,2.1,1.4,4.3,1.9,6.7c-0.2-1.4-0.3-2.7-0.4-3.9
		c-0.1-1.2-0.1-2.3-0.1-3.3v-6.9H-6.5z"/>
	<path id="XMLID_1022_" class="st0" d="M7.7,443.3v-2.5c0.9,0.6,1.7,1,2.4,1c0.7,0,1.2-0.2,1.6-0.7s0.6-1.1,0.6-1.8
		s-0.1-1.3-0.4-1.8c-0.2-0.3-0.4-0.5-0.6-0.9c-0.3-0.3-0.6-0.7-1-1.1c-0.6-0.6-1.2-1.2-1.6-1.7s-0.7-0.9-0.9-1.3
		c-0.4-0.7-0.6-1.6-0.6-2.7c0-1.4,0.4-2.6,1.1-3.4c0.4-0.5,0.9-0.8,1.5-1h-10v18.4h9.1C8.4,443.7,8.1,443.5,7.7,443.3z"/>
	<path id="XMLID_1021_" class="st0" d="M-5.4,435.6c-0.3-0.8-0.5-1.6-0.7-2.4c-0.2-0.8-0.4-1.7-0.6-2.6c0-0.1,0-0.2-0.1-0.4
		c0-0.2-0.1-0.3-0.1-0.6c0,0.2,0,0.4,0.1,0.5c0,0.1,0,0.3,0,0.4l0.1,1.9l0.1,2.3c0,0.1,0,0.3,0,0.5c0,0.2,0,0.4,0,0.6l0.1,8h3.8
		L-5.4,435.6z"/>
	<path id="XMLID_1020_" class="st0" d="M23.7,443.9h1.9l4-18.4h-6c0.2,0.1,0.4,0.2,0.6,0.3v2.2c-0.6-0.3-1.2-0.5-1.6-0.5
		c-0.6,0-1.1,0.1-1.5,0.4c-0.4,0.3-0.8,0.7-1,1.3c-0.3,0.6-0.5,1.4-0.6,2.3s-0.2,2-0.2,3.3c0,4.6,1.2,6.9,3.5,6.9
		c0.4,0,0.9-0.1,1.5-0.4v2.3C24,443.7,23.8,443.8,23.7,443.9z"/>
	<path id="XMLID_1019_" class="st0" d="M16.5,435c0-3.3,0.5-5.8,1.4-7.4c0.6-1.1,1.4-1.8,2.5-2.1H13c0.3,0.1,0.6,0.2,0.8,0.4v2.4
		c-0.8-0.5-1.4-0.8-2.1-0.8s-1.2,0.2-1.6,0.7c-0.4,0.4-0.6,1-0.6,1.8c0,0.6,0.1,1.2,0.4,1.7c0.2,0.2,0.4,0.6,0.7,1
		c0.3,0.4,0.8,0.9,1.3,1.4c1,1,1.7,1.9,2.1,2.7c0.4,0.7,0.6,1.6,0.6,2.7c0,1.4-0.4,2.6-1.2,3.5c-0.4,0.5-1,0.8-1.6,1.1h8.3
		C17.8,443,16.5,440,16.5,435z"/>
</g>
</svg>
